<svg xmlns="http://www.w3.org/2000/svg" xmlns:xlink="http://www.w3.org/1999/xlink" width="643" viewBox="0 0 482.25 81.749997" height="109" preserveAspectRatio="xMidYMid meet"><defs><clipPath id="feeb0f33e8"><path d="M 6.046875 12 L 36.628906 12 L 36.628906 77.824219 L 6.046875 77.824219 Z M 6.046875 12 " clip-rule="nonzero"></path></clipPath><clipPath id="e4a0e4c881"><path d="M 9.78125 67.519531 C 8.511719 70.136719 7.761719 70.359375 7.316406 70.285156 C 6.867188 70.210938 6.492188 69.835938 6.269531 69.386719 C 5.96875 68.714844 6.195312 67.816406 6.417969 66.398438 C 6.941406 62.285156 10.15625 51.292969 11.652344 43.144531 C 13.371094 34.019531 14.792969 18.167969 15.839844 14.28125 C 16.136719 13.234375 16.210938 12.785156 16.585938 12.410156 C 16.960938 12.113281 17.558594 11.964844 17.933594 12.113281 C 18.382812 12.1875 18.679688 12.488281 19.054688 13.308594 C 21.148438 17.496094 25.410156 46.65625 27.953125 55.929688 C 29.222656 60.640625 30.121094 62.882812 31.464844 66.246094 C 32.960938 69.761719 37.148438 75.144531 36.550781 76.789062 C 36.328125 77.464844 35.28125 77.910156 34.53125 77.761719 C 33.410156 77.539062 31.015625 74.847656 30.492188 73.722656 C 30.195312 73.050781 30.046875 72.304688 30.34375 71.929688 C 30.644531 71.480469 32.0625 71.257812 32.511719 71.480469 C 32.886719 71.707031 33.109375 72.378906 33.109375 72.753906 C 33.109375 73.199219 32.8125 73.800781 32.4375 73.949219 C 31.914062 74.171875 30.570312 73.875 30.34375 73.425781 C 30.046875 73.050781 30.195312 72.003906 30.570312 71.632812 C 30.941406 71.332031 31.691406 71.183594 32.363281 71.40625 C 33.558594 71.855469 36.402344 74.847656 36.550781 76.042969 C 36.699219 76.714844 36.101562 77.613281 35.652344 77.761719 C 35.128906 77.910156 34.457031 77.613281 33.785156 77.015625 C 32.289062 75.667969 30.195312 70.734375 28.699219 67.367188 C 27.277344 64.003906 26.382812 61.535156 25.035156 56.75 C 22.492188 47.40625 16.886719 19.664062 16.363281 14.65625 C 16.210938 13.609375 16.0625 13.160156 16.363281 12.710938 C 16.660156 12.261719 17.484375 11.964844 17.933594 12.113281 C 18.457031 12.1875 18.828125 12.710938 19.054688 13.683594 C 20.101562 17.945312 15.164062 40.601562 13.222656 50.84375 C 11.800781 58.097656 10.828125 67.21875 9.109375 69.386719 C 8.511719 70.136719 7.761719 70.433594 7.316406 70.285156 C 6.867188 70.210938 6.269531 69.3125 6.195312 68.640625 C 6.195312 67.816406 7.164062 65.949219 7.839844 65.648438 C 8.363281 65.5 9.183594 65.796875 9.484375 66.171875 C 9.78125 66.472656 9.78125 67.519531 9.78125 67.519531 " clip-rule="nonzero"></path></clipPath><clipPath id="3303ff8a1e"><path d="M 3.324219 50.167969 L 31.695312 50.167969 L 31.695312 57.375 L 3.324219 57.375 Z M 3.324219 50.167969 " clip-rule="nonzero"></path></clipPath><clipPath id="db1f2b9e29"><path d="M 6.117188 57.351562 C 3.277344 56.003906 3.5 54.957031 4.25 54.359375 C 6.042969 52.789062 13.894531 52.039062 18.382812 51.367188 C 22.492188 50.769531 28.175781 49.945312 30.121094 50.246094 C 30.792969 50.394531 31.167969 50.546875 31.390625 50.84375 C 31.617188 51.21875 31.765625 51.890625 31.617188 52.265625 C 31.464844 52.640625 31.015625 53.085938 30.570312 53.238281 C 30.195312 53.3125 29.523438 53.164062 29.222656 52.9375 C 28.925781 52.640625 28.699219 52.039062 28.699219 51.59375 C 28.773438 51.21875 29.148438 50.621094 29.523438 50.46875 C 29.894531 50.246094 30.570312 50.246094 30.867188 50.46875 C 31.242188 50.621094 31.691406 51.21875 31.691406 51.59375 C 31.691406 52.117188 31.09375 52.863281 30.269531 53.238281 C 28.402344 54.285156 22.867188 53.761719 18.90625 54.285156 C 14.34375 54.957031 6.792969 57.796875 4.625 57.273438 C 3.949219 57.050781 3.425781 56.601562 3.351562 56.152344 C 3.277344 55.628906 3.726562 54.65625 4.25 54.359375 C 4.921875 54.058594 6.941406 54.507812 7.390625 55.03125 C 7.6875 55.332031 7.6875 56.003906 7.539062 56.378906 C 7.390625 56.828125 6.117188 57.351562 6.117188 57.351562 " clip-rule="nonzero"></path></clipPath><clipPath id="542a715754"><path d="M 34.394531 51.367188 L 49 51.367188 L 49 65.929688 L 34.394531 65.929688 Z M 34.394531 51.367188 " clip-rule="nonzero"></path></clipPath><clipPath id="bc7c122176"><path d="M 37.375 54.507812 C 39.617188 65.199219 39.019531 65.796875 38.496094 65.875 C 38.046875 65.949219 37.375 65.648438 37 65.050781 C 36.328125 64.152344 36.101562 61.386719 35.953125 59.59375 C 35.726562 57.796875 35.578125 55.554688 35.878906 54.359375 C 36.101562 53.609375 36.476562 53.085938 36.925781 52.640625 C 37.375 52.191406 37.972656 51.890625 38.71875 51.667969 C 39.914062 51.367188 41.859375 51.367188 43.355469 51.667969 C 45 51.890625 47.167969 52.714844 48.066406 53.3125 C 48.515625 53.6875 48.960938 53.984375 48.960938 54.433594 C 48.960938 54.957031 48.140625 56.152344 47.691406 56.226562 C 47.167969 56.304688 46.121094 55.332031 45.972656 54.882812 C 45.898438 54.433594 46.195312 53.835938 46.496094 53.535156 C 46.867188 53.3125 47.542969 53.164062 47.914062 53.3125 C 48.363281 53.460938 48.960938 54.285156 48.960938 54.734375 C 48.960938 55.257812 48.4375 56.003906 47.839844 56.152344 C 46.792969 56.453125 44.476562 54.808594 42.90625 54.582031 C 41.484375 54.433594 39.617188 53.984375 38.867188 54.808594 C 37.746094 56.152344 40.363281 62.660156 39.839844 64.378906 C 39.542969 65.199219 39.019531 65.875 38.496094 65.875 C 37.972656 65.949219 37.148438 65.199219 36.625 64.304688 C 35.578125 62.582031 34.082031 56.75 34.457031 54.957031 C 34.53125 54.132812 35.054688 53.386719 35.503906 53.3125 C 36.027344 53.164062 37.375 54.507812 37.375 54.507812 " clip-rule="nonzero"></path></clipPath><clipPath id="1fc17792e3"><path d="M 46.320312 51.414062 L 70.582031 51.414062 L 70.582031 63.273438 L 46.320312 63.273438 Z M 46.320312 51.414062 " clip-rule="nonzero"></path></clipPath><clipPath id="9ab9b41593"><path d="M 50.007812 60.339844 C 46.792969 61.089844 46.421875 60.488281 46.34375 60.117188 C 46.269531 59.742188 46.421875 59.292969 46.792969 58.769531 C 47.992188 57.125 55.691406 51.367188 57.5625 51.441406 C 58.234375 51.515625 58.757812 52.117188 58.90625 52.488281 C 59.058594 52.9375 58.90625 53.609375 58.609375 53.910156 C 58.308594 54.210938 57.5625 53.835938 56.886719 54.285156 C 55.542969 55.03125 51.730469 58.769531 52.101562 59.742188 C 52.402344 60.414062 55.019531 60.265625 56.964844 60.117188 C 60.105469 59.742188 66.984375 56.152344 69 56.527344 C 69.824219 56.675781 70.347656 57.125 70.496094 57.574219 C 70.644531 58.023438 70.273438 59.070312 69.898438 59.292969 C 69.449219 59.519531 68.105469 59.144531 67.804688 58.769531 C 67.507812 58.472656 67.582031 57.722656 67.730469 57.351562 C 67.953125 56.976562 68.476562 56.601562 68.851562 56.527344 C 69.300781 56.527344 69.898438 56.675781 70.199219 57.050781 C 70.496094 57.425781 70.644531 58.320312 70.347656 58.84375 C 69.898438 59.59375 68.179688 59.964844 66.609375 60.488281 C 64.214844 61.386719 59.878906 62.808594 57.113281 63.105469 C 54.871094 63.332031 52.550781 63.332031 51.207031 62.808594 C 50.234375 62.433594 49.484375 61.835938 49.261719 61.011719 C 48.960938 60.191406 49.261719 58.769531 49.785156 57.722656 C 50.53125 56.226562 52.476562 54.359375 53.898438 53.3125 C 55.09375 52.414062 56.664062 51.367188 57.5625 51.441406 C 58.160156 51.515625 58.757812 52.117188 58.90625 52.488281 C 59.058594 52.9375 58.980469 53.3125 58.609375 53.910156 C 57.710938 55.332031 52.851562 58.917969 50.683594 60.042969 C 49.335938 60.789062 47.992188 61.386719 47.242188 61.238281 C 46.792969 61.089844 46.421875 60.488281 46.34375 60.117188 C 46.269531 59.742188 46.421875 59.144531 46.792969 58.769531 C 47.316406 58.246094 49.261719 57.425781 49.933594 57.648438 C 50.382812 57.796875 50.757812 58.394531 50.757812 58.769531 C 50.832031 59.21875 50.007812 60.339844 50.007812 60.339844 " clip-rule="nonzero"></path></clipPath><clipPath id="63636584cf"><path d="M 96.351562 45.664062 L 114.414062 45.664062 L 114.414062 57.453125 L 96.351562 57.453125 Z M 96.351562 45.664062 " clip-rule="nonzero"></path></clipPath><clipPath id="6978d49861"><path d="M 98.609375 45.761719 C 114.539062 56.003906 114.164062 56.75 113.789062 57.050781 C 113.492188 57.351562 112.816406 57.5 112.445312 57.351562 C 111.996094 57.125 111.320312 55.855469 111.472656 55.40625 C 111.621094 54.957031 112.96875 54.359375 113.492188 54.507812 C 113.863281 54.65625 114.460938 55.628906 114.386719 56.078125 C 114.238281 56.601562 113.492188 57.351562 112.59375 57.351562 C 110.425781 57.5 103.769531 52.5625 100.777344 50.769531 C 98.984375 49.574219 96.890625 48.824219 96.515625 47.777344 C 96.21875 47.179688 96.515625 46.207031 96.890625 45.835938 C 97.265625 45.535156 98.609375 45.761719 98.609375 45.761719 " clip-rule="nonzero"></path></clipPath><clipPath id="a9dd9131ec"><path d="M 109.566406 42.964844 L 113.820312 42.964844 L 113.820312 69.65625 L 109.566406 69.65625 Z M 109.566406 42.964844 " clip-rule="nonzero"></path></clipPath><clipPath id="89e668b5be"><path d="M 113.789062 44.863281 C 112.519531 69.3125 111.84375 69.613281 111.320312 69.613281 C 110.875 69.613281 110.199219 69.015625 110.050781 68.492188 C 109.828125 67.667969 110.722656 65.199219 111.398438 64.675781 C 111.921875 64.378906 112.816406 64.527344 113.191406 64.828125 C 113.566406 65.050781 113.789062 65.722656 113.714844 66.171875 C 113.640625 66.546875 113.265625 67.070312 112.890625 67.292969 C 112.519531 67.519531 111.84375 67.445312 111.546875 67.292969 C 111.171875 67.070312 110.796875 66.546875 110.722656 66.097656 C 110.722656 65.722656 110.949219 65.050781 111.246094 64.828125 C 111.621094 64.527344 112.292969 64.378906 112.667969 64.527344 C 113.117188 64.675781 113.640625 65.351562 113.714844 65.949219 C 113.863281 66.84375 112.96875 68.863281 112.367188 69.386719 C 111.996094 69.6875 111.398438 69.6875 111.023438 69.539062 C 110.574219 69.386719 110.273438 69.089844 110.050781 68.492188 C 109.152344 66.097656 109.75 53.835938 110.125 49.347656 C 110.351562 46.808594 110.273438 44.488281 111.097656 43.589844 C 111.546875 43.066406 112.59375 42.84375 113.042969 43.066406 C 113.492188 43.292969 113.789062 44.863281 113.789062 44.863281 " clip-rule="nonzero"></path></clipPath><clipPath id="5c2aa4768b"><path d="M 115.675781 41.738281 L 150.078125 41.738281 L 150.078125 56.671875 L 115.675781 56.671875 Z M 115.675781 41.738281 " clip-rule="nonzero"></path></clipPath><clipPath id="d744250d1b"><path d="M 127.472656 48.976562 C 123.734375 48.226562 123.0625 48.601562 122.3125 48.976562 C 121.417969 49.574219 119.921875 50.621094 119.398438 51.515625 C 118.949219 52.117188 118.5 52.9375 118.722656 53.3125 C 118.949219 53.609375 119.996094 53.460938 120.667969 53.535156 C 121.417969 53.535156 122.238281 53.6875 123.210938 53.535156 C 124.480469 53.3125 126.351562 52.5625 127.695312 51.816406 C 128.96875 51.070312 130.386719 49.945312 130.988281 49.125 C 131.359375 48.601562 131.734375 47.855469 131.585938 47.703125 C 131.433594 47.554688 130.539062 48.453125 130.164062 48.300781 C 129.714844 48.078125 129.117188 46.730469 129.34375 46.207031 C 129.640625 45.609375 131.734375 45.535156 132.929688 45.460938 C 134.050781 45.3125 135.25 44.9375 136.296875 45.386719 C 137.492188 45.910156 138.3125 48.152344 139.660156 48.902344 C 141.15625 49.648438 143.996094 50.246094 144.894531 49.648438 C 145.640625 49.199219 145.867188 47.628906 145.640625 46.730469 C 145.492188 45.761719 143.625 44.789062 143.625 43.964844 C 143.625 43.292969 144.371094 42.542969 145.042969 42.171875 C 145.941406 41.648438 148.183594 41.648438 149.007812 41.945312 C 149.457031 42.171875 149.828125 42.542969 149.980469 42.917969 C 150.128906 43.367188 150.054688 44.039062 149.753906 44.339844 C 149.378906 44.636719 148.410156 44.9375 147.960938 44.789062 C 147.585938 44.636719 147.136719 44.113281 147.0625 43.667969 C 146.988281 43.292969 147.210938 42.621094 147.511719 42.320312 C 147.808594 42.023438 148.410156 41.796875 148.855469 41.945312 C 149.304688 42.023438 149.980469 42.769531 150.054688 43.292969 C 150.128906 43.667969 149.902344 44.265625 149.53125 44.5625 C 148.855469 45.085938 146.089844 45.460938 145.792969 45.085938 C 145.492188 44.714844 146.164062 43.292969 146.464844 43.21875 C 146.839844 43.144531 147.4375 43.816406 147.808594 44.414062 C 148.257812 45.3125 148.707031 46.957031 148.632812 48.152344 C 148.484375 49.347656 147.886719 50.769531 147.210938 51.59375 C 146.761719 52.117188 146.390625 52.488281 145.566406 52.714844 C 144.148438 53.011719 140.78125 52.714844 138.914062 51.816406 C 137.191406 51.070312 136.070312 48.527344 134.652344 48.152344 C 133.527344 47.855469 132.332031 48.824219 131.210938 48.824219 C 130.015625 48.902344 128.296875 48.976562 127.773438 48.378906 C 127.324219 47.855469 127.25 46.433594 127.546875 45.984375 C 127.847656 45.535156 128.59375 45.386719 129.265625 45.3125 C 130.164062 45.160156 131.511719 45.160156 132.332031 45.460938 C 133.082031 45.609375 133.828125 45.984375 134.203125 46.507812 C 134.5 47.03125 134.574219 47.703125 134.5 48.453125 C 134.277344 49.5 133.527344 50.917969 132.480469 51.964844 C 130.835938 53.535156 127.472656 55.628906 124.855469 56.226562 C 122.539062 56.828125 119.324219 56.675781 117.753906 56.003906 C 116.78125 55.554688 116.105469 54.734375 115.808594 53.984375 C 115.582031 53.460938 115.734375 52.789062 115.808594 52.191406 C 115.957031 51.59375 116.105469 50.992188 116.554688 50.320312 C 117.230469 49.273438 118.574219 47.855469 119.921875 47.03125 C 121.265625 46.132812 123.359375 45.386719 124.78125 45.238281 C 125.753906 45.160156 126.5 45.3125 127.25 45.683594 C 128.070312 46.058594 129.417969 47.03125 129.492188 47.703125 C 129.566406 48.078125 129.191406 48.675781 128.820312 48.902344 C 128.445312 49.125 127.472656 48.976562 127.472656 48.976562 " clip-rule="nonzero"></path></clipPath><clipPath id="224fd51b0d"><path d="M 178.742188 40.867188 L 212.914062 40.867188 L 212.914062 51.90625 L 178.742188 51.90625 Z M 178.742188 40.867188 " clip-rule="nonzero"></path></clipPath><clipPath id="26bfa42753"><path d="M 192.972656 44.636719 C 193.570312 45.011719 192.597656 45.683594 192.222656 45.609375 C 191.925781 45.535156 192.074219 44.5625 191.625 44.265625 C 190.730469 43.667969 187.664062 43.816406 186.09375 44.265625 C 184.671875 44.714844 183.328125 45.683594 182.578125 46.433594 C 182.054688 46.957031 181.457031 47.703125 181.683594 48.078125 C 182.128906 48.824219 186.992188 48.902344 189.085938 48.378906 C 190.804688 48.003906 192.375 46.957031 193.496094 45.910156 C 194.394531 45.085938 194.839844 42.917969 195.289062 42.992188 C 195.8125 43.066406 195.964844 45.386719 196.488281 46.058594 C 196.933594 46.507812 197.308594 46.730469 197.980469 46.957031 C 199.101562 47.480469 201.121094 48.078125 203.066406 48.300781 C 205.535156 48.527344 210.167969 47.554688 211.664062 48.078125 C 212.261719 48.226562 212.636719 48.527344 212.710938 48.976562 C 212.863281 49.425781 212.636719 50.394531 212.261719 50.695312 C 211.964844 50.992188 211.292969 51.144531 210.917969 50.917969 C 210.46875 50.769531 209.871094 49.945312 209.871094 49.5 C 209.871094 49.050781 210.246094 48.453125 210.542969 48.226562 C 210.917969 48.003906 211.589844 47.929688 211.964844 48.152344 C 212.414062 48.378906 212.863281 49.273438 212.863281 49.722656 C 212.863281 50.171875 212.5625 50.546875 212.039062 50.84375 C 210.617188 51.59375 205.382812 51.59375 202.617188 51.21875 C 200.300781 50.992188 197.832031 50.246094 196.335938 49.5 C 195.441406 49.050781 194.917969 48.675781 194.394531 48.003906 C 193.945312 47.40625 193.496094 46.582031 193.421875 45.761719 C 193.347656 44.789062 193.71875 43.144531 194.316406 42.46875 C 194.765625 41.871094 195.589844 41.5 196.1875 41.5 C 196.636719 41.421875 197.234375 41.722656 197.535156 42.097656 C 197.90625 42.46875 198.28125 43.21875 198.207031 43.964844 C 197.90625 45.386719 195.8125 47.929688 194.167969 49.199219 C 192.449219 50.46875 190.132812 51.367188 188.039062 51.667969 C 185.945312 52.039062 183.175781 51.890625 181.605469 51.292969 C 180.484375 50.917969 179.511719 50.320312 179.066406 49.574219 C 178.691406 48.902344 178.691406 47.929688 178.839844 47.105469 C 178.988281 46.433594 179.289062 45.835938 179.8125 45.160156 C 180.636719 44.113281 182.355469 42.621094 183.925781 41.945312 C 185.421875 41.199219 187.4375 40.898438 189.007812 40.898438 C 190.429688 40.898438 192.074219 41.199219 193.046875 41.648438 C 193.71875 41.871094 194.09375 42.097656 194.46875 42.621094 C 194.917969 43.367188 195.289062 45.085938 195.214844 45.984375 C 195.140625 46.582031 194.992188 47.105469 194.617188 47.332031 C 194.167969 47.703125 193.121094 47.929688 192.597656 47.703125 C 191.925781 47.480469 190.953125 46.285156 191.027344 45.761719 C 191.101562 45.238281 192.972656 44.636719 192.972656 44.636719 " clip-rule="nonzero"></path></clipPath><clipPath id="6a94739623"><path d="M 242.445312 16 L 253.796875 16 L 253.796875 59.503906 L 242.445312 59.503906 Z M 242.445312 16 " clip-rule="nonzero"></path></clipPath><clipPath id="6775f23213"><path d="M 243.742188 18.769531 C 246.507812 18.992188 245.460938 24.449219 245.761719 27.890625 C 246.132812 31.925781 246.734375 36.488281 247.929688 41.125 C 249.273438 46.433594 254.058594 55.105469 253.761719 57.722656 C 253.613281 58.621094 253.164062 59.292969 252.640625 59.441406 C 252.191406 59.519531 251.367188 59.070312 250.84375 58.546875 C 250.246094 57.871094 249.425781 56.152344 249.574219 55.40625 C 249.574219 54.882812 250.023438 54.433594 250.398438 54.285156 C 250.769531 54.132812 251.445312 54.132812 251.742188 54.359375 C 252.117188 54.582031 252.488281 55.105469 252.488281 55.554688 C 252.566406 55.929688 252.265625 56.601562 251.890625 56.828125 C 251.59375 57.050781 250.921875 57.199219 250.546875 57.050781 C 250.171875 56.902344 249.722656 56.453125 249.574219 56.003906 C 249.5 55.628906 249.574219 54.957031 249.875 54.65625 C 250.171875 54.359375 251.070312 54.058594 251.667969 54.285156 C 252.414062 54.582031 253.6875 56.828125 253.761719 57.722656 C 253.761719 58.320312 253.386719 59.070312 253.011719 59.292969 C 252.566406 59.519531 251.667969 59.367188 251.070312 58.84375 C 249.5 57.574219 248.003906 52.039062 246.808594 48.226562 C 245.460938 44.039062 244.339844 39.40625 243.59375 34.695312 C 242.84375 29.683594 242.246094 21.90625 242.546875 18.992188 C 242.695312 17.796875 242.769531 17.046875 243.21875 16.597656 C 243.59375 16.226562 244.339844 15.925781 244.863281 16.074219 C 245.460938 16.300781 246.359375 17.421875 246.359375 17.945312 C 246.359375 18.46875 245.761719 19.140625 245.3125 19.289062 C 244.863281 19.441406 243.742188 18.769531 243.742188 18.769531 " clip-rule="nonzero"></path></clipPath><clipPath id="55077297f2"><path d="M 223.640625 9.578125 L 265.519531 9.578125 L 265.519531 35.957031 L 223.640625 35.957031 Z M 223.640625 9.578125 " clip-rule="nonzero"></path></clipPath><clipPath id="28e3369c69"><path d="M 225.871094 20.335938 C 222.957031 13.382812 223.480469 12.636719 224.375 11.964844 C 226.171875 10.691406 230.65625 10.242188 234.46875 9.945312 C 239.40625 9.496094 246.808594 9.347656 251.445312 10.320312 C 254.957031 11.066406 258.097656 12.488281 260.265625 13.980469 C 261.910156 15.105469 263.109375 16.226562 263.929688 17.796875 C 264.828125 19.441406 265.648438 21.832031 265.425781 23.628906 C 265.125 25.496094 263.78125 27.367188 262.210938 28.785156 C 260.191406 30.507812 256.976562 31.628906 253.910156 32.675781 C 250.398438 33.945312 245.085938 34.992188 242.023438 35.441406 C 240.152344 35.742188 238.132812 36.113281 237.386719 35.664062 C 236.9375 35.441406 236.714844 34.84375 236.714844 34.46875 C 236.789062 33.945312 237.160156 33.347656 237.761719 33.050781 C 238.808594 32.449219 242.996094 32.226562 243.667969 32.972656 C 244.117188 33.421875 243.890625 34.769531 243.519531 35.140625 C 243.144531 35.441406 241.722656 35.21875 241.347656 34.84375 C 241.050781 34.617188 241.050781 33.871094 241.125 33.496094 C 241.273438 33.125 241.796875 32.675781 242.171875 32.527344 C 242.546875 32.449219 243.21875 32.527344 243.519531 32.824219 C 243.890625 33.199219 244.191406 34.171875 243.964844 34.617188 C 243.519531 35.292969 241.347656 35.816406 240.078125 35.890625 C 239.03125 35.964844 237.609375 35.890625 237.085938 35.441406 C 236.789062 35.140625 236.714844 34.46875 236.789062 34.097656 C 236.863281 33.648438 237.160156 33.347656 237.761719 33.050781 C 239.554688 32.078125 246.882812 31.628906 250.84375 30.507812 C 254.285156 29.460938 258.171875 28.1875 260.117188 26.617188 C 261.3125 25.722656 262.136719 24.675781 262.433594 23.628906 C 262.660156 22.730469 262.507812 21.90625 262.210938 21.011719 C 261.835938 20.039062 261.164062 18.917969 260.339844 18.019531 C 259.371094 16.972656 258.023438 16 256.527344 15.253906 C 254.957031 14.355469 253.386719 13.683594 250.996094 13.234375 C 247.03125 12.5625 239.03125 12.636719 234.769531 12.859375 C 232.078125 13.085938 229.683594 13.382812 228.113281 13.90625 C 227.21875 14.28125 226.320312 14.503906 226.097656 15.179688 C 225.871094 16.152344 228.714844 18.691406 228.5625 19.664062 C 228.488281 20.261719 227.890625 20.859375 227.441406 20.9375 C 226.992188 21.085938 225.871094 20.335938 225.871094 20.335938 " clip-rule="nonzero"></path></clipPath><clipPath id="e008d80fac"><path d="M 255.082031 37.800781 L 281.191406 37.800781 L 281.191406 53 L 255.082031 53 Z M 255.082031 37.800781 " clip-rule="nonzero"></path></clipPath><clipPath id="ca52470390"><path d="M 257.800781 43.667969 C 261.835938 52.039062 261.015625 52.863281 260.566406 52.9375 C 260.117188 53.085938 259.667969 52.863281 259.292969 52.414062 C 258.398438 51.292969 257.800781 46.433594 257.648438 44.191406 C 257.648438 42.695312 257.574219 41.347656 258.097656 40.375 C 258.398438 39.628906 258.847656 39.179688 259.742188 38.804688 C 261.613281 37.984375 266.171875 37.683594 269.464844 37.910156 C 273.128906 38.132812 279.632812 39.328125 280.828125 40.527344 C 281.203125 40.976562 281.203125 41.574219 281.054688 41.945312 C 280.976562 42.320312 280.453125 42.84375 280.082031 42.917969 C 279.707031 43.066406 279.035156 42.992188 278.734375 42.695312 C 278.359375 42.394531 278.136719 41.421875 278.285156 40.898438 C 278.359375 40.527344 278.960938 40.152344 279.332031 40.078125 C 279.707031 39.929688 280.378906 40.152344 280.679688 40.453125 C 280.976562 40.75 281.203125 41.347656 281.128906 41.796875 C 280.976562 42.246094 280.53125 42.769531 279.78125 42.992188 C 277.835938 43.589844 271.257812 40.898438 267.742188 40.75 C 265.125 40.675781 261.910156 40.152344 260.789062 41.574219 C 259.445312 43.292969 262.585938 49.796875 261.910156 51.59375 C 261.6875 52.339844 261.015625 52.863281 260.566406 52.9375 C 260.117188 53.011719 259.667969 52.789062 259.21875 52.339844 C 258.097656 51.292969 255.257812 46.730469 255.105469 45.085938 C 255.105469 44.265625 255.40625 43.441406 255.855469 43.21875 C 256.304688 42.992188 257.800781 43.667969 257.800781 43.667969 " clip-rule="nonzero"></path></clipPath><clipPath id="ebb9eee49d"><path d="M 267.839844 40.398438 L 295.65625 40.398438 L 295.65625 50.710938 L 267.839844 50.710938 Z M 267.839844 40.398438 " clip-rule="nonzero"></path></clipPath><clipPath id="428db94b7f"><path d="M 282.625 42.992188 C 280.605469 45.910156 276.640625 43.667969 274.699219 44.113281 C 273.128906 44.414062 270.882812 46.058594 270.882812 46.730469 C 270.882812 47.03125 271.632812 47.40625 272.230469 47.554688 C 273.203125 47.855469 275.371094 47.777344 276.714844 47.40625 C 277.988281 47.03125 279.40625 46.285156 280.230469 45.386719 C 280.976562 44.636719 281.128906 42.695312 281.726562 42.542969 C 282.175781 42.394531 282.921875 42.917969 283.144531 43.292969 C 283.371094 43.742188 282.847656 44.5625 282.996094 45.085938 C 283.144531 45.609375 283.519531 46.058594 283.96875 46.433594 C 284.492188 46.882812 285.238281 47.179688 286.0625 47.40625 C 287.257812 47.703125 288.980469 47.855469 290.472656 47.703125 C 291.894531 47.554688 294.136719 46.058594 294.8125 46.507812 C 295.335938 46.808594 295.632812 48.152344 295.335938 48.601562 C 295.035156 48.976562 293.613281 49.199219 293.164062 48.976562 C 292.792969 48.75 292.566406 48.078125 292.566406 47.703125 C 292.640625 47.253906 292.941406 46.65625 293.316406 46.507812 C 293.6875 46.285156 294.734375 46.359375 295.109375 46.65625 C 295.410156 46.957031 295.707031 47.554688 295.558594 48.003906 C 295.335938 48.75 293.6875 49.796875 292.269531 50.246094 C 290.398438 50.84375 287.035156 50.769531 285.089844 50.246094 C 283.519531 49.796875 282.023438 48.75 281.203125 47.855469 C 280.605469 47.253906 280.304688 46.65625 280.15625 45.835938 C 279.929688 44.9375 280.082031 43.515625 280.304688 42.695312 C 280.53125 42.023438 280.753906 41.421875 281.203125 41.050781 C 281.652344 40.675781 282.625 40.300781 283.144531 40.453125 C 283.667969 40.601562 284.34375 41.199219 284.566406 41.796875 C 284.792969 42.320312 284.714844 43.066406 284.492188 43.890625 C 284.117188 45.011719 282.996094 46.808594 282.101562 47.703125 C 281.425781 48.453125 280.679688 48.824219 279.929688 49.273438 C 279.109375 49.722656 278.359375 50.097656 277.3125 50.320312 C 275.820312 50.621094 273.050781 50.695312 271.558594 50.46875 C 270.511719 50.246094 269.613281 50.097656 269.015625 49.5 C 268.417969 48.976562 267.894531 48.078125 267.894531 47.179688 C 267.816406 46.207031 268.566406 44.636719 269.386719 43.667969 C 270.285156 42.695312 271.78125 41.796875 273.277344 41.421875 C 274.996094 40.976562 277.6875 41.050781 279.035156 41.421875 C 279.855469 41.648438 280.902344 42.171875 280.902344 42.542969 C 280.902344 42.917969 279.707031 43.589844 279.558594 43.441406 C 279.40625 43.367188 279.707031 42.171875 280.007812 41.871094 C 280.304688 41.574219 280.976562 41.347656 281.351562 41.421875 C 281.800781 41.574219 282.625 42.992188 282.625 42.992188 " clip-rule="nonzero"></path></clipPath><clipPath id="9f952715fc"><path d="M 291.339844 35.636719 L 318.753906 35.636719 L 318.753906 49.378906 L 291.339844 49.378906 Z M 291.339844 35.636719 " clip-rule="nonzero"></path></clipPath><clipPath id="d768de958f"><path d="M 307.523438 40.226562 C 304.082031 38.507812 302.289062 38.582031 300.867188 38.957031 C 299.222656 39.328125 297.203125 40.152344 296.082031 41.199219 C 295.183594 42.023438 294.0625 43.589844 294.210938 44.339844 C 294.4375 45.011719 295.410156 45.386719 296.53125 45.761719 C 298.398438 46.359375 302.738281 46.433594 305.355469 46.132812 C 307.445312 45.984375 309.167969 45.535156 310.960938 44.789062 C 312.980469 43.964844 315.371094 41.347656 316.792969 41.199219 C 317.464844 41.125 318.289062 41.421875 318.511719 41.796875 C 318.738281 42.246094 318.363281 43.589844 317.988281 43.964844 C 317.617188 44.191406 316.941406 44.191406 316.570312 43.964844 C 316.195312 43.816406 315.820312 43.292969 315.746094 42.84375 C 315.671875 42.46875 315.894531 41.796875 316.195312 41.5 C 316.496094 41.273438 317.167969 41.050781 317.542969 41.199219 C 317.988281 41.273438 318.511719 41.722656 318.664062 42.097656 C 318.738281 42.46875 318.738281 42.992188 318.4375 43.515625 C 317.691406 44.636719 314.175781 46.65625 311.933594 47.628906 C 309.839844 48.453125 307.671875 48.902344 305.578125 49.125 C 303.484375 49.425781 301.015625 49.347656 299.222656 49.199219 C 297.726562 49.050781 296.457031 48.902344 295.257812 48.453125 C 294.210938 48.078125 292.941406 47.554688 292.34375 46.730469 C 291.671875 45.835938 291.296875 44.113281 291.445312 42.992188 C 291.519531 42.097656 291.894531 41.421875 292.492188 40.601562 C 293.390625 39.480469 295.410156 37.910156 297.054688 37.085938 C 298.625 36.339844 300.34375 35.890625 301.988281 35.742188 C 303.632812 35.589844 305.652344 35.515625 307.074219 36.1875 C 308.34375 36.710938 310.0625 38.28125 310.214844 39.179688 C 310.289062 39.703125 309.914062 40.527344 309.464844 40.675781 C 309.015625 40.898438 307.523438 40.226562 307.523438 40.226562 " clip-rule="nonzero"></path></clipPath><clipPath id="fc164fabd9"><path d="M 319.855469 22 L 328.886719 22 L 328.886719 49.21875 L 319.855469 49.21875 Z M 319.855469 22 " clip-rule="nonzero"></path></clipPath><clipPath id="c50d08654d"><path d="M 323.074219 23.628906 C 323.222656 31.03125 323.746094 33.945312 324.570312 36.789062 C 325.542969 40.152344 329.054688 45.386719 328.832031 47.40625 C 328.683594 48.300781 327.933594 49.125 327.484375 49.199219 C 326.960938 49.199219 325.839844 48.226562 325.839844 47.703125 C 325.839844 47.253906 326.886719 46.207031 327.410156 46.207031 C 327.859375 46.207031 328.757812 47.332031 328.832031 47.777344 C 328.832031 48.226562 328.457031 48.75 328.085938 48.976562 C 327.710938 49.199219 327.039062 49.273438 326.664062 49.050781 C 326.289062 48.75 325.839844 47.40625 326.066406 46.957031 C 326.214844 46.582031 326.8125 46.207031 327.261719 46.207031 C 327.636719 46.132812 328.234375 46.433594 328.53125 46.730469 C 328.757812 47.105469 328.90625 48.003906 328.609375 48.453125 C 328.382812 48.824219 327.636719 49.273438 327.113281 49.199219 C 326.289062 48.976562 325.167969 47.253906 324.34375 45.761719 C 323.074219 43.21875 321.804688 38.804688 321.128906 35.140625 C 320.382812 31.402344 319.410156 25.347656 320.082031 23.402344 C 320.382812 22.65625 320.980469 21.984375 321.503906 22.058594 C 322.027344 22.058594 323.074219 23.628906 323.074219 23.628906 " clip-rule="nonzero"></path></clipPath><clipPath id="ec00a9e070"><path d="M 313 34.460938 L 343.210938 34.460938 L 343.210938 46.738281 L 313 46.738281 Z M 313 34.460938 " clip-rule="nonzero"></path></clipPath><clipPath id="9f605cdcba"><path d="M 314.402344 37.757812 C 338.179688 34.84375 338.328125 35.816406 338.253906 36.265625 C 338.101562 36.710938 336.90625 37.3125 336.832031 37.3125 C 336.832031 37.3125 338.179688 36.039062 338.253906 36.113281 C 338.402344 36.265625 336.757812 38.28125 336.308594 39.40625 C 336.011719 40.453125 335.410156 42.171875 335.933594 42.84375 C 336.382812 43.515625 338.027344 43.742188 339 43.515625 C 339.972656 43.292969 340.796875 41.574219 341.542969 41.574219 C 342.214844 41.574219 343.113281 42.46875 343.1875 42.992188 C 343.261719 43.367188 342.964844 44.039062 342.589844 44.265625 C 342.214844 44.488281 341.242188 44.488281 340.796875 44.265625 C 340.421875 44.039062 340.195312 43.367188 340.195312 42.992188 C 340.273438 42.542969 340.570312 41.945312 340.945312 41.796875 C 341.394531 41.574219 342.441406 41.648438 342.738281 41.945312 C 343.113281 42.320312 343.261719 43.144531 343.039062 43.742188 C 342.664062 44.636719 340.796875 45.984375 339.75 46.433594 C 338.925781 46.730469 338.179688 46.808594 337.355469 46.582031 C 336.160156 46.359375 334.140625 45.238281 333.394531 44.339844 C 332.945312 43.667969 332.871094 43.066406 332.871094 42.246094 C 332.871094 40.976562 333.316406 38.582031 334.140625 37.234375 C 334.886719 36.039062 336.757812 34.320312 337.429688 34.46875 C 337.878906 34.542969 338.328125 35.441406 338.328125 35.964844 C 338.253906 36.414062 337.953125 36.863281 337.207031 37.234375 C 334.886719 38.582031 323.296875 39.777344 319.113281 40.300781 C 316.792969 40.527344 314.773438 41.199219 313.878906 40.601562 C 313.28125 40.300781 312.90625 39.328125 313.054688 38.804688 C 313.203125 38.359375 314.402344 37.757812 314.402344 37.757812 " clip-rule="nonzero"></path></clipPath><clipPath id="b31c51550e"><path d="M 337.71875 20.476562 L 345.839844 20.476562 L 345.839844 23.964844 L 337.71875 23.964844 Z M 337.71875 20.476562 " clip-rule="nonzero"></path></clipPath><clipPath id="fccb21249c"><path d="M 339.523438 20.488281 C 345.65625 21.308594 345.953125 22.207031 345.730469 22.65625 C 345.503906 23.105469 344.234375 23.703125 343.785156 23.554688 C 343.335938 23.476562 342.890625 22.878906 342.890625 22.507812 C 342.8125 21.984375 343.261719 21.085938 343.636719 20.859375 C 344.011719 20.636719 344.683594 20.636719 345.058594 20.859375 C 345.429688 21.085938 345.878906 22.058594 345.804688 22.507812 C 345.65625 22.953125 345.058594 23.402344 344.382812 23.703125 C 343.1875 24.078125 339.972656 24 338.925781 23.402344 C 338.253906 23.105469 337.65625 22.28125 337.730469 21.832031 C 337.804688 21.308594 339.523438 20.488281 339.523438 20.488281 " clip-rule="nonzero"></path></clipPath><clipPath id="056832787b"><path d="M 347.925781 19.394531 L 357.742188 19.394531 L 357.742188 49.203125 L 347.925781 49.203125 Z M 347.925781 19.394531 " clip-rule="nonzero"></path></clipPath><clipPath id="67e104a77e"><path d="M 350.738281 20.113281 C 355.078125 37.609375 356.046875 45.535156 355.449219 45.835938 C 355.300781 45.910156 354.703125 45.386719 354.703125 45.085938 C 354.777344 44.789062 355.675781 44.039062 356.199219 44.039062 C 356.648438 44.039062 357.542969 44.636719 357.617188 45.085938 C 357.695312 45.609375 356.945312 46.882812 356.496094 46.957031 C 355.972656 47.105469 354.777344 46.207031 354.703125 45.761719 C 354.628906 45.238281 355.523438 44.113281 355.972656 44.039062 C 356.496094 43.964844 357.542969 44.789062 357.695312 45.460938 C 357.84375 46.285156 356.722656 48.300781 355.898438 48.824219 C 355.375 49.199219 354.476562 49.273438 353.953125 49.050781 C 353.507812 48.902344 353.132812 48.601562 352.757812 47.929688 C 351.5625 45.609375 351.785156 35.21875 350.816406 30.28125 C 350.066406 26.617188 347.675781 22.582031 347.972656 20.859375 C 348.046875 20.113281 348.496094 19.589844 348.871094 19.441406 C 349.394531 19.289062 350.738281 20.113281 350.738281 20.113281 " clip-rule="nonzero"></path></clipPath><clipPath id="bea341769c"><path d="M 341.273438 32.640625 L 367.644531 32.640625 L 367.644531 45.285156 L 341.273438 45.285156 Z M 341.273438 32.640625 " clip-rule="nonzero"></path></clipPath><clipPath id="dfc97458a9"><path d="M 344.308594 39.554688 C 341.394531 39.253906 341.242188 38.582031 341.320312 38.132812 C 341.46875 37.757812 341.765625 37.386719 342.289062 37.085938 C 343.414062 36.5625 346.253906 37.011719 349.019531 36.636719 C 353.582031 35.964844 364.648438 31.703125 366.742188 32.898438 C 367.414062 33.273438 367.710938 34.320312 367.488281 34.992188 C 367.191406 35.890625 364.347656 36.265625 363.449219 37.3125 C 362.628906 38.207031 362.253906 39.628906 362.105469 40.527344 C 362.03125 41.050781 361.878906 41.722656 362.179688 42.023438 C 362.703125 42.394531 364.945312 41.199219 365.769531 41.347656 C 366.292969 41.421875 366.816406 41.648438 366.964844 42.023438 C 367.191406 42.46875 367.191406 43.441406 366.816406 43.816406 C 366.515625 44.191406 365.46875 44.414062 365.019531 44.191406 C 364.648438 43.964844 364.199219 42.992188 364.273438 42.542969 C 364.273438 42.097656 364.722656 41.574219 365.171875 41.421875 C 365.621094 41.273438 366.589844 41.574219 366.890625 41.871094 C 367.191406 42.171875 367.339844 42.84375 367.191406 43.292969 C 366.742188 44.039062 364.125 45.386719 362.777344 45.238281 C 361.507812 45.160156 359.9375 44.039062 359.414062 42.917969 C 358.742188 41.574219 359.039062 39.105469 359.710938 37.535156 C 360.460938 35.890625 362.328125 34.097656 363.675781 33.421875 C 364.722656 32.898438 365.992188 32.601562 366.742188 32.898438 C 367.191406 33.050781 367.636719 33.796875 367.636719 34.246094 C 367.636719 34.769531 367.414062 35.21875 366.742188 35.664062 C 364.421875 37.234375 352.460938 39.40625 347.898438 39.851562 C 345.429688 40.078125 342.890625 40.375 341.992188 39.777344 C 341.46875 39.40625 341.242188 38.65625 341.320312 38.132812 C 341.46875 37.683594 342.214844 37.085938 342.738281 36.863281 C 343.414062 36.710938 344.757812 36.863281 345.132812 37.234375 C 345.429688 37.535156 345.429688 38.207031 345.28125 38.65625 C 345.207031 39.03125 344.308594 39.554688 344.308594 39.554688 " clip-rule="nonzero"></path></clipPath><clipPath id="d912cc8ec5"><path d="M 360.101562 24.742188 L 369.148438 24.742188 L 369.148438 31.171875 L 360.101562 31.171875 Z M 360.101562 24.742188 " clip-rule="nonzero"></path></clipPath><clipPath id="b5f25848d3"><path d="M 363.003906 27.441406 C 362.328125 27.589844 362.480469 26.394531 362.925781 26.171875 C 363.75 25.796875 367.636719 27.589844 368.535156 28.414062 C 368.910156 28.863281 369.132812 29.308594 369.132812 29.683594 C 369.058594 30.132812 368.683594 30.730469 368.386719 30.878906 C 368.011719 31.105469 367.339844 31.179688 366.964844 30.957031 C 366.589844 30.804688 366.21875 30.28125 366.144531 29.832031 C 366.066406 29.460938 366.292969 28.785156 366.589844 28.5625 C 366.890625 28.261719 367.5625 28.039062 367.9375 28.1875 C 368.386719 28.339844 369.132812 29.085938 369.132812 29.535156 C 369.058594 30.058594 368.386719 30.957031 367.5625 31.105469 C 366.144531 31.402344 360.910156 29.011719 360.234375 27.664062 C 359.9375 26.917969 360.386719 25.570312 360.910156 25.125 C 361.433594 24.75 362.777344 24.675781 363.226562 24.972656 C 363.601562 25.199219 363.824219 25.871094 363.75 26.246094 C 363.75 26.617188 363.003906 27.441406 363.003906 27.441406 " clip-rule="nonzero"></path></clipPath><clipPath id="d29b7510db"><path d="M 369.09375 28.300781 L 407.371094 28.300781 L 407.371094 46.867188 L 369.09375 46.867188 Z M 369.09375 28.300781 " clip-rule="nonzero"></path></clipPath><clipPath id="977cb6ab4a"><path d="M 384.609375 35.292969 C 375.789062 35.515625 374.367188 36.414062 373.546875 37.085938 C 373.023438 37.535156 372.722656 37.910156 372.5 38.507812 C 372.125 39.253906 371.824219 40.898438 372.125 41.648438 C 372.421875 42.394531 373.171875 42.84375 374.070312 43.144531 C 375.714844 43.742188 379.675781 44.113281 381.621094 43.441406 C 383.117188 42.992188 384.3125 42.097656 385.132812 40.75 C 386.179688 39.179688 386.554688 36.1875 386.480469 34.171875 C 386.480469 32.527344 385.058594 30.582031 385.433594 29.609375 C 385.65625 28.9375 386.257812 28.261719 387.003906 28.339844 C 389.023438 28.710938 396.5 40.300781 397.097656 42.84375 C 397.324219 43.589844 397.246094 44.191406 396.875 44.488281 C 396.574219 44.863281 395.601562 45.011719 394.929688 44.714844 C 393.808594 44.265625 392.164062 41.574219 391.414062 39.777344 C 390.667969 37.984375 390.292969 35.515625 390.292969 34.019531 C 390.367188 33.125 390.519531 32.449219 390.964844 31.777344 C 391.640625 30.804688 393.285156 29.386719 394.628906 29.085938 C 395.976562 28.785156 397.996094 29.308594 399.117188 29.910156 C 399.9375 30.355469 400.3125 30.878906 400.984375 31.851562 C 402.257812 33.648438 403.828125 38.957031 405.25 40.375 C 405.921875 41.050781 406.96875 40.898438 407.191406 41.421875 C 407.417969 41.796875 407.265625 42.769531 406.894531 43.066406 C 406.59375 43.367188 405.621094 43.515625 405.25 43.367188 C 404.875 43.21875 404.574219 42.917969 404.5 42.621094 C 404.425781 42.097656 404.949219 40.75 405.472656 40.527344 C 405.921875 40.375 406.894531 40.824219 407.117188 41.199219 C 407.417969 41.574219 407.417969 42.246094 407.191406 42.621094 C 407.042969 42.992188 406.519531 43.441406 406.070312 43.441406 C 405.621094 43.515625 404.726562 43.066406 404.5 42.621094 C 404.277344 42.246094 404.351562 41.574219 404.574219 41.199219 C 404.875 40.824219 405.769531 40.453125 406.21875 40.527344 C 406.667969 40.601562 407.117188 41.125 407.265625 41.5 C 407.417969 41.871094 407.042969 42.917969 407.042969 42.917969 C 407.042969 42.917969 407.191406 41.421875 407.191406 41.421875 C 407.265625 41.421875 407.339844 42.46875 407.117188 42.769531 C 406.894531 43.144531 406.144531 43.515625 405.546875 43.441406 C 404.648438 43.367188 403.15625 42.023438 402.183594 40.824219 C 400.910156 39.328125 400.460938 36.265625 399.265625 34.695312 C 398.292969 33.421875 396.949219 32.078125 396.050781 31.925781 C 395.453125 31.777344 394.855469 32.078125 394.40625 32.375 C 393.957031 32.75 393.507812 33.273438 393.285156 33.945312 C 393.058594 34.917969 393.359375 36.414062 393.808594 37.683594 C 394.40625 39.40625 397.097656 41.871094 397.246094 43.144531 C 397.324219 43.816406 397.023438 44.488281 396.648438 44.789062 C 396.277344 45.011719 395.601562 45.085938 394.929688 44.714844 C 392.910156 43.742188 387.527344 35.21875 386.179688 32.449219 C 385.582031 31.253906 385.210938 30.28125 385.433594 29.609375 C 385.507812 29.085938 386.105469 28.488281 386.628906 28.414062 C 387.152344 28.339844 388.050781 28.863281 388.5 29.460938 C 389.097656 30.28125 389.398438 31.777344 389.472656 33.199219 C 389.621094 34.769531 389.472656 36.863281 389.097656 38.507812 C 388.722656 40.003906 388.351562 41.5 387.453125 42.695312 C 386.332031 44.113281 384.386719 45.683594 382.519531 46.359375 C 380.5 47.03125 377.65625 46.882812 375.863281 46.730469 C 374.515625 46.582031 373.546875 46.285156 372.574219 45.761719 C 371.601562 45.238281 370.554688 44.5625 369.957031 43.667969 C 369.359375 42.621094 369.058594 40.675781 369.132812 39.480469 C 369.207031 38.507812 369.507812 37.609375 369.957031 36.863281 C 370.40625 36.039062 370.929688 35.367188 371.824219 34.695312 C 373.023438 33.722656 374.890625 32.675781 376.835938 32.226562 C 379.226562 31.703125 383.863281 31.554688 385.210938 32.375 C 385.882812 32.75 386.257812 33.648438 386.179688 34.097656 C 386.105469 34.542969 384.609375 35.292969 384.609375 35.292969 " clip-rule="nonzero"></path></clipPath><clipPath id="4990642102"><path d="M 405.441406 25.292969 L 430.617188 25.292969 L 430.617188 44.941406 L 405.441406 44.941406 Z M 405.441406 25.292969 " clip-rule="nonzero"></path></clipPath><clipPath id="a11a6a93c3"><path d="M 407.714844 35.066406 C 416.835938 30.28125 417.511719 29.757812 417.4375 29.308594 C 417.359375 28.9375 416.613281 28.339844 415.941406 28.339844 C 414.59375 28.339844 410.707031 31.105469 409.660156 32.375 C 409.0625 33.050781 408.835938 33.496094 408.6875 34.320312 C 408.464844 35.367188 408.238281 37.085938 408.910156 38.132812 C 409.734375 39.480469 412.128906 40.527344 413.996094 41.125 C 415.867188 41.796875 418.332031 41.796875 420.203125 41.796875 C 421.699219 41.722656 422.820312 41.648438 424.164062 41.273438 C 425.734375 40.75 427.980469 38.507812 429.023438 38.65625 C 429.773438 38.804688 430.519531 39.777344 430.519531 40.300781 C 430.519531 40.75 429.699219 41.5 429.25 41.648438 C 428.875 41.722656 428.203125 41.5 427.902344 41.199219 C 427.679688 40.898438 427.378906 40.226562 427.53125 39.851562 C 427.753906 39.40625 428.875 38.582031 429.398438 38.730469 C 429.847656 38.882812 430.519531 40.003906 430.445312 40.601562 C 430.222656 41.5 428.351562 42.621094 427.007812 43.292969 C 425.660156 44.039062 424.164062 44.488281 422.519531 44.636719 C 420.351562 44.9375 417.585938 44.9375 415.34375 44.488281 C 413.097656 44.039062 410.480469 43.144531 408.835938 42.097656 C 407.640625 41.347656 406.742188 40.453125 406.21875 39.40625 C 405.695312 38.507812 405.546875 37.3125 405.472656 36.265625 C 405.472656 35.21875 405.546875 34.246094 405.921875 33.199219 C 406.371094 31.925781 407.265625 30.355469 408.464844 29.160156 C 409.882812 27.816406 412.574219 26.246094 414.296875 25.722656 C 415.492188 25.347656 416.464844 25.273438 417.4375 25.421875 C 418.40625 25.570312 419.53125 25.871094 420.128906 26.542969 C 420.578125 27.066406 420.726562 28.113281 420.652344 28.863281 C 420.652344 29.609375 420.351562 30.28125 419.902344 31.03125 C 419.082031 32.152344 417.511719 33.796875 415.867188 34.917969 C 413.847656 36.1875 409.957031 38.132812 408.464844 37.910156 C 407.714844 37.757812 407.042969 37.085938 406.96875 36.5625 C 406.894531 36.113281 407.714844 35.066406 407.714844 35.066406 " clip-rule="nonzero"></path></clipPath><clipPath id="6df0e6f3bf"><path d="M 421.902344 25.253906 L 451.835938 25.253906 L 451.835938 44.882812 L 421.902344 44.882812 Z M 421.902344 25.253906 " clip-rule="nonzero"></path></clipPath><clipPath id="3bc688f8b2"><path d="M 425.511719 28.785156 C 425.0625 32.898438 425.285156 33.347656 425.808594 34.246094 C 426.78125 36.039062 431.042969 40.152344 431.417969 41.648438 C 431.566406 42.246094 431.417969 42.695312 431.195312 43.066406 C 430.894531 43.367188 430.070312 43.742188 429.546875 43.515625 C 428.5 43.066406 427.230469 39.703125 426.707031 37.683594 C 426.109375 35.589844 425.960938 32.675781 426.183594 31.105469 C 426.410156 30.132812 426.632812 29.609375 427.230469 28.863281 C 427.980469 27.816406 429.472656 26.46875 430.894531 25.871094 C 432.390625 25.273438 434.707031 25.199219 436.054688 25.496094 C 437.101562 25.722656 437.921875 26.246094 438.519531 26.917969 C 439.121094 27.589844 439.566406 28.488281 439.867188 29.386719 C 440.089844 30.207031 440.167969 31.03125 439.941406 31.925781 C 439.566406 33.199219 438.519531 34.617188 437.324219 36.113281 C 435.53125 38.132812 429.921875 42.695312 429.996094 42.769531 C 429.996094 42.769531 430.671875 41.945312 431.269531 41.722656 C 432.390625 41.347656 434.484375 41.796875 436.128906 41.574219 C 437.921875 41.273438 439.644531 40.898438 441.585938 40.152344 C 444.128906 39.105469 448.09375 35.515625 449.8125 35.292969 C 450.558594 35.21875 451.230469 35.515625 451.53125 35.890625 C 451.832031 36.1875 451.90625 36.863281 451.753906 37.234375 C 451.605469 37.609375 451.082031 38.058594 450.710938 38.207031 C 450.261719 38.28125 449.664062 38.132812 449.363281 37.835938 C 448.988281 37.535156 448.765625 36.9375 448.839844 36.488281 C 448.914062 36.113281 449.289062 35.515625 449.664062 35.367188 C 450.109375 35.21875 451.082031 35.441406 451.457031 35.742188 C 451.753906 36.039062 451.90625 36.636719 451.753906 37.085938 C 451.53125 37.984375 449.8125 39.179688 448.464844 40.078125 C 446.820312 41.199219 444.503906 42.246094 442.484375 42.992188 C 440.539062 43.667969 438.519531 44.265625 436.425781 44.5625 C 434.257812 44.863281 431.34375 45.011719 429.773438 44.636719 C 428.800781 44.414062 427.980469 44.191406 427.605469 43.667969 C 427.15625 43.066406 426.933594 42.246094 427.230469 41.421875 C 427.980469 39.328125 434.484375 34.769531 435.980469 33.125 C 436.503906 32.449219 436.800781 32.226562 436.949219 31.703125 C 437.175781 31.105469 437.101562 30.28125 436.875 29.683594 C 436.652344 29.160156 436.203125 28.710938 435.605469 28.488281 C 434.78125 28.113281 433.289062 28.113281 432.242188 28.5625 C 431.117188 29.085938 429.625 30.28125 429.175781 31.554688 C 428.652344 32.972656 429.101562 34.917969 429.472656 36.636719 C 429.847656 38.433594 431.792969 40.824219 431.492188 42.023438 C 431.34375 42.769531 430.519531 43.589844 429.921875 43.589844 C 428.875 43.589844 427.082031 41.347656 425.808594 39.851562 C 424.390625 38.058594 422.59375 35.441406 422.144531 33.199219 C 421.773438 31.328125 422.070312 28.488281 422.820312 27.589844 C 423.269531 27.066406 424.238281 26.769531 424.6875 26.992188 C 425.136719 27.214844 425.511719 28.785156 425.511719 28.785156 " clip-rule="nonzero"></path></clipPath><clipPath id="7291485f34"><path d="M 453.71875 2.816406 L 477.789062 2.816406 L 477.789062 38.160156 L 453.71875 38.160156 Z M 453.71875 2.816406 " clip-rule="nonzero"></path></clipPath><clipPath id="657b289341"><path d="M 453.773438 8.972656 C 454.148438 5.007812 454.746094 3.960938 455.570312 3.441406 C 456.390625 2.917969 457.738281 2.839844 458.933594 2.992188 C 460.503906 3.214844 462.222656 3.960938 464.167969 5.085938 C 467.085938 6.804688 472.09375 10.542969 474.261719 13.085938 C 475.683594 14.730469 476.503906 16.375 477.101562 17.945312 C 477.550781 19.214844 477.851562 20.488281 477.777344 21.757812 C 477.703125 23.03125 477.253906 24.523438 476.503906 25.648438 C 475.757812 26.917969 474.933594 27.816406 473.289062 28.9375 C 470.300781 31.179688 459.605469 34.695312 458.859375 36.488281 C 458.636719 37.011719 459.457031 37.683594 459.234375 37.910156 C 459.082031 38.132812 458.1875 38.132812 457.886719 37.910156 C 457.4375 37.683594 456.988281 36.863281 457.066406 36.414062 C 457.066406 36.039062 457.4375 35.441406 457.8125 35.292969 C 458.1875 35.066406 459.082031 35.140625 459.457031 35.441406 C 459.832031 35.664062 460.054688 36.265625 460.054688 36.710938 C 459.980469 37.160156 459.308594 37.984375 458.785156 38.058594 C 458.335938 38.132812 457.4375 37.683594 457.214844 37.234375 C 456.988281 36.863281 456.988281 36.1875 457.214844 35.816406 C 457.4375 35.515625 457.960938 35.140625 458.410156 35.066406 C 458.785156 35.066406 459.457031 35.292969 459.679688 35.664062 C 459.980469 35.964844 460.128906 36.636719 459.980469 37.011719 C 459.757812 37.460938 459.007812 38.058594 458.558594 38.058594 C 458.113281 38.058594 457.363281 37.683594 457.140625 37.160156 C 456.839844 36.339844 457.214844 34.617188 458.261719 33.347656 C 460.203125 31.03125 468.503906 28.863281 471.347656 26.695312 C 472.917969 25.496094 474.113281 24.375 474.5625 23.179688 C 474.933594 22.355469 474.785156 21.460938 474.636719 20.5625 C 474.5625 19.589844 474.261719 18.691406 473.8125 17.796875 C 473.140625 16.523438 472.242188 15.179688 470.898438 13.832031 C 469.027344 11.886719 465.140625 9.121094 462.898438 7.777344 C 461.328125 6.878906 459.980469 6.207031 458.859375 5.980469 C 458.113281 5.832031 457.289062 5.757812 456.914062 6.132812 C 456.316406 6.730469 456.914062 9.347656 456.390625 9.945312 C 456.019531 10.394531 455.121094 10.542969 454.671875 10.394531 C 454.296875 10.167969 453.773438 8.972656 453.773438 8.972656 " clip-rule="nonzero"></path></clipPath><clipPath id="fb8aeb4c20"><path d="M 468.550781 56 L 472.386719 56 L 472.386719 59.960938 L 468.550781 59.960938 Z M 468.550781 56 " clip-rule="nonzero"></path></clipPath><clipPath id="8d9282dda3"><path d="M 472.242188 58.246094 C 469.101562 59.816406 468.730469 59.21875 468.578125 58.84375 C 468.503906 58.394531 468.652344 57.796875 468.878906 57.5 C 469.175781 57.125 469.777344 56.902344 470.222656 56.976562 C 470.671875 57.050781 471.421875 57.722656 471.496094 58.246094 C 471.644531 58.621094 471.347656 59.292969 471.046875 59.519531 C 470.746094 59.816406 470.074219 60.042969 469.699219 59.890625 C 469.253906 59.742188 468.578125 58.621094 468.578125 58.023438 C 468.652344 57.351562 469.550781 56.378906 470.148438 56.152344 C 470.746094 55.929688 471.792969 55.929688 472.167969 56.304688 C 472.542969 56.601562 472.242188 58.246094 472.242188 58.246094 " clip-rule="nonzero"></path></clipPath></defs><g clip-path="url(#feeb0f33e8)"><g clip-path="url(#e4a0e4c881)"><path fill="#000000" d="M 3.203125 9.121094 L 39.617188 9.121094 L 39.617188 80.8125 L 3.203125 80.8125 Z M 3.203125 9.121094 " fill-opacity="1" fill-rule="nonzero"></path></g></g><g clip-path="url(#3303ff8a1e)"><g clip-path="url(#db1f2b9e29)"><path fill="#000000" d="M 0.359375 47.253906 L 34.660156 47.253906 L 34.660156 60.339844 L 0.359375 60.339844 Z M 0.359375 47.253906 " fill-opacity="1" fill-rule="nonzero"></path></g></g><g clip-path="url(#542a715754)"><g clip-path="url(#bc7c122176)"><path fill="#000000" d="M 31.464844 48.675781 L 52.046875 48.675781 L 52.046875 68.9375 L 31.464844 68.9375 Z M 31.464844 48.675781 " fill-opacity="1" fill-rule="nonzero"></path></g></g><g clip-path="url(#1fc17792e3)"><g clip-path="url(#9ab9b41593)"><path fill="#000000" d="M 43.355469 48.453125 L 73.476562 48.453125 L 73.476562 66.097656 L 43.355469 66.097656 Z M 43.355469 48.453125 " fill-opacity="1" fill-rule="nonzero"></path></g></g><g clip-path="url(#63636584cf)"><g clip-path="url(#6978d49861)"><path fill="#000000" d="M 93.527344 42.769531 L 117.375 42.769531 L 117.375 60.414062 L 93.527344 60.414062 Z M 93.527344 42.769531 " fill-opacity="1" fill-rule="nonzero"></path></g></g><g clip-path="url(#a9dd9131ec)"><g clip-path="url(#89e668b5be)"><path fill="#000000" d="M 107.058594 40.078125 L 116.78125 40.078125 L 116.78125 72.695312 L 107.058594 72.695312 Z M 107.058594 40.078125 " fill-opacity="1" fill-rule="nonzero"></path></g></g><g clip-path="url(#5c2aa4768b)"><g clip-path="url(#d744250d1b)"><path fill="#000000" d="M 112.816406 38.957031 L 153.015625 38.957031 L 153.015625 59.292969 L 112.816406 59.292969 Z M 112.816406 38.957031 " fill-opacity="1" fill-rule="nonzero"></path></g></g><g clip-path="url(#224fd51b0d)"><g clip-path="url(#26bfa42753)"><path fill="#000000" d="M 175.851562 37.910156 L 215.871094 37.910156 L 215.871094 54.734375 L 175.851562 54.734375 Z M 175.851562 37.910156 " fill-opacity="1" fill-rule="nonzero"></path></g></g><g clip-path="url(#6a94739623)"><g clip-path="url(#6775f23213)"><path fill="#000000" d="M 239.554688 13.085938 L 256.753906 13.085938 L 256.753906 62.460938 L 239.554688 62.460938 Z M 239.554688 13.085938 " fill-opacity="1" fill-rule="nonzero"></path></g></g><g clip-path="url(#55077297f2)"><g clip-path="url(#28e3369c69)"><path fill="#000000" d="M 219.890625 6.953125 L 268.394531 6.953125 L 268.394531 38.957031 L 219.890625 38.957031 Z M 219.890625 6.953125 " fill-opacity="1" fill-rule="nonzero"></path></g></g><g clip-path="url(#e008d80fac)"><g clip-path="url(#ca52470390)"><path fill="#000000" d="M 252.117188 34.917969 L 284.15625 34.917969 L 284.15625 56.003906 L 252.117188 56.003906 Z M 252.117188 34.917969 " fill-opacity="1" fill-rule="nonzero"></path></g></g><g clip-path="url(#ebb9eee49d)"><g clip-path="url(#428db94b7f)"><path fill="#000000" d="M 264.902344 37.460938 L 298.65625 37.460938 L 298.65625 53.460938 L 264.902344 53.460938 Z M 264.902344 37.460938 " fill-opacity="1" fill-rule="nonzero"></path></g></g><g clip-path="url(#9f952715fc)"><g clip-path="url(#d768de958f)"><path fill="#000000" d="M 288.457031 32.75 L 321.640625 32.75 L 321.640625 52.191406 L 288.457031 52.191406 Z M 288.457031 32.75 " fill-opacity="1" fill-rule="nonzero"></path></g></g><g clip-path="url(#fc164fabd9)"><g clip-path="url(#c50d08654d)"><path fill="#000000" d="M 317.09375 19.066406 L 331.824219 19.066406 L 331.824219 52.265625 L 317.09375 52.265625 Z M 317.09375 19.066406 " fill-opacity="1" fill-rule="nonzero"></path></g></g><g clip-path="url(#ec00a9e070)"><g clip-path="url(#9f605cdcba)"><path fill="#000000" d="M 310.0625 31.480469 L 346.261719 31.480469 L 346.261719 49.648438 L 310.0625 49.648438 Z M 310.0625 31.480469 " fill-opacity="1" fill-rule="nonzero"></path></g></g><g clip-path="url(#b31c51550e)"><g clip-path="url(#fccb21249c)"><path fill="#000000" d="M 334.738281 17.496094 L 348.785156 17.496094 L 348.785156 26.695312 L 334.738281 26.695312 Z M 334.738281 17.496094 " fill-opacity="1" fill-rule="nonzero"></path></g></g><g clip-path="url(#056832787b)"><g clip-path="url(#67e104a77e)"><path fill="#000000" d="M 344.980469 16.449219 L 360.683594 16.449219 L 360.683594 52.085938 L 344.980469 52.085938 Z M 344.980469 16.449219 " fill-opacity="1" fill-rule="nonzero"></path></g></g><g clip-path="url(#bea341769c)"><g clip-path="url(#dfc97458a9)"><path fill="#000000" d="M 338.328125 29.910156 L 370.660156 29.910156 L 370.660156 48.300781 L 338.328125 48.300781 Z M 338.328125 29.910156 " fill-opacity="1" fill-rule="nonzero"></path></g></g><g clip-path="url(#d912cc8ec5)"><g clip-path="url(#b5f25848d3)"><path fill="#000000" d="M 357.246094 21.984375 L 372.144531 21.984375 L 372.144531 34.171875 L 357.246094 34.171875 Z M 357.246094 21.984375 " fill-opacity="1" fill-rule="nonzero"></path></g></g><g clip-path="url(#d29b7510db)"><g clip-path="url(#977cb6ab4a)"><path fill="#000000" d="M 366.144531 25.347656 L 410.226562 25.347656 L 410.226562 49.722656 L 366.144531 49.722656 Z M 366.144531 25.347656 " fill-opacity="1" fill-rule="nonzero"></path></g></g><g clip-path="url(#4990642102)"><g clip-path="url(#a11a6a93c3)"><path fill="#000000" d="M 402.480469 22.429688 L 433.480469 22.429688 L 433.480469 47.703125 L 402.480469 47.703125 Z M 402.480469 22.429688 " fill-opacity="1" fill-rule="nonzero"></path></g></g><g clip-path="url(#6df0e6f3bf)"><g clip-path="url(#3bc688f8b2)"><path fill="#000000" d="M 419.15625 22.507812 L 454.78125 22.507812 L 454.78125 47.628906 L 419.15625 47.628906 Z M 419.15625 22.507812 " fill-opacity="1" fill-rule="nonzero"></path></g></g><g clip-path="url(#7291485f34)"><g clip-path="url(#657b289341)"><path fill="#000000" d="M 450.785156 0 L 480.84375 0 L 480.84375 41.09375 L 450.785156 41.09375 Z M 450.785156 0 " fill-opacity="1" fill-rule="nonzero"></path></g></g><g clip-path="url(#fb8aeb4c20)"><g clip-path="url(#8d9282dda3)"><path fill="#000000" d="M 465.589844 53.164062 L 475.308594 53.164062 L 475.308594 62.957031 L 465.589844 62.957031 Z M 465.589844 53.164062 " fill-opacity="1" fill-rule="nonzero"></path></g></g></svg>