<?xml version="1.0" encoding="utf-8"?>
<!-- Generator: Adobe Illustrator 28.0.0, SVG Export Plug-In . SVG Version: 6.00 Build 0)  -->
<svg version="1.1" id="Layer_1" xmlns="http://www.w3.org/2000/svg" xmlns:xlink="http://www.w3.org/1999/xlink" x="0px" y="0px"
	 viewBox="0 0 75.22 117.32" style="enable-background:new 0 0 75.22 117.32;" xml:space="preserve">
<style type="text/css">
	.st0{fill:#110E0D;}
</style>
<path class="st0" d="M70.13,68.06c-5.18-4.18-13.32-5.05-17.22-4.06c-0.9,0.23-1.78,0.6-2.64,1.07c-0.91-1.17-1.53-2.38-1.94-3.46
	c0.51-0.16,1.64-0.69,1.46-2.19c-0.23-1.92-0.35-4.62-0.21-5.78c0,0,6.2,1.36,9.84-1.39c3.64-2.74,4.57-5.45,4.05-7.06
	c1.05,0.54,3.75,1.63,5.64-0.51c1.46-1.66,1.69-2.96,1.71-3.47c0.01-0.15,0.09-0.28,0.22-0.36c2.59-1.7,2.64-6.49,1.51-10.1
	c1.79-4.55-1.51-9.78-4.77-12.54c0.02-0.39-0.01-0.78-0.08-1.18c-0.58-3.11-3.92-5.5-5.2-6.32c0.39-1.64-2.45-4.6-4.12-5.87
	c-2.22-1.69-3.8-1.6-4.52-1.42c-1.15-1.06-2.4-1.65-3.74-1.77c-1.22-0.11-2.35,0.19-3.3,0.62c-1.26-1.92-3.8-1.59-5.78-1.27
	c-1-0.76-3-1.6-4.85-0.41c-0.07-0.03-0.14-0.05-0.21-0.07c-1.46-0.44-2.82-0.23-3.85,0.59c-0.07,0.06-0.14,0.11-0.21,0.17
	c-0.02-0.01-0.03-0.01-0.05-0.02C23.5-0.85,20.06,3,19.39,3.9c-1.53,0.58-2.28,1.45-2.63,2.04c-1.07-0.31-2.3,0.19-3.28,0.69
	l-0.03,0.02c-1.66,0.97-2.78,1.96-3.53,2.9c-0.21-0.04-0.5,0-0.83,0.27l-0.23,0.19c-0.66,0.54-2.21,1.81-3.46,3.06
	c-1.16,1.16-1.1,2.38-0.93,3.04c-0.14,0.1-0.29,0.21-0.44,0.33c-1.93,1.49-2.23,3.61-2.27,4.41c-0.57,0.46-1.09,1.12-1.44,2.12
	c-0.55,1.58-0.31,2.8,0.2,3.68c0,0,0,0,0,0.01c0.05,0.09,0.11,0.18,0.17,0.27c0,0,0.01,0.01,0.01,0.01c0.18,0.26,0.39,0.48,0.6,0.67
	c0.01,0,0.01,0.01,0.01,0.01c0.61,0.62,1.32,1.24,1.99,1.96c0.91,0.98,1.42,1.74,2.13,2.36c2.94,3.16,6.32,4.31,6.93,4.11
	c0.2,0.57,1.41,1.75,1.89,2.2c0.13,0.12,0.22,0.28,0.27,0.45c2.49,8.68,14.6,7.98,18.08,7.03c1.42-0.42,2,0.23,3.29,1.13
	c1.29,0.9,2.89,4.41,4.18,7.5s2.11,3.18,2.87,5.48c0.51,1.56,1.37,3.48,1.88,4.56c0,0,0,0.01,0,0.01c0.15,0.34,0.28,0.59,0.34,0.73
	c0.01,0.02,0.02,0.04,0.03,0.05c0.02,0.03,0.02,0.05,0.03,0.06c0,0.01,0.01,0.01,0.01,0.01c0.36,0.68,0.81,1.4,1.39,2.14
	c-2.18,1.64-2.67,2.84-4.28,4.55c-0.99,1.05-1.84,1.96-2.38,2.36l-0.07,0.06c-3.08,2.65-6.05,3.85-8.82,3.56
	c-1.9-0.2-3.38-1.09-4.34-1.86c0.31-0.25,0.77-0.77,0.13-1.3c-0.54-0.45,0.46-1.1-0.5-1.2c-0.11-0.01-0.15-0.13-0.11-0.22
	c0.26-0.52,0-1.05-0.49-1.14c0,0-0.01,0-0.01,0l-1.08,1.07c-0.01,0.01-0.03,0.02-0.05,0.02s-0.03-0.01-0.05-0.02
	c-0.02-0.03-0.02-0.07,0-0.09l1.07-1.06c-0.02-0.04-0.02-0.1,0.01-0.14c0.21-0.38,0.23-0.86,0.12-1.3c-0.04-0.17-0.01-0.34,0.1-0.47
	c0.69-0.85,0.86-1.34,0.59-3c-0.3-1.79-0.44-3.36-0.56-4.73c-0.12-1.37-0.8-2.87-0.82-4.1c-0.02-1.12-1.63-1.35-2.86-1.12
	c-0.01-0.15-0.04-0.31-0.1-0.46l-1.99-5.2c-0.3-0.79-1.19-1.18-1.98-0.88c-0.61,0.23-0.98,0.81-0.98,1.43c0,0.18,0.03,0.37,0.1,0.55
	l1.99,5.2c0.01,0.02,0.02,0.04,0.03,0.06c-0.43,0.01-1.01,0.04-1.35,0.05L16,52.86c-0.26-0.69-1.04-1.04-1.73-0.77
	c-0.29,0.11-0.51,0.31-0.66,0.55l-0.04-0.1c-0.26-0.69-1.04-1.04-1.73-0.77c-0.69,0.27-1.04,1.04-0.77,1.73l2.67,6.98l-1.71,1.59
	c-0.21,0.2-0.26,0.52-0.12,0.77c0.25,0.44,0.64,1.14,0.91,1.69c0.43,0.87,2.19,6.14,4.29,5.91c1.25-0.13,1.81-0.09,1.81-0.09
	s-0.95,1.77,2.3,1.81c0.17,0,0.31,0.12,0.36,0.28c0.02,0.1,0.01,0.19-0.04,0.28c-0.11,0.18-0.24,0.53,0.11,0.74
	c0.16,0.1,0.22,0.31,0.14,0.48c-0.13,0.27-0.19,0.61,0.37,0.75c0.26,0.07,0.37,0.38,0.2,0.6c-0.25,0.31-0.48,0.63,0.31,0.99
	c-0.14,0.59,0.34,1.06,1.18,0.58c0.91,1,3.3,3.2,6.92,3.6c3.51,0.39,7.13-1.01,10.78-4.14c0.72-0.54,1.58-1.47,2.68-2.63
	c1.55-1.65,4.58-4.15,4.58-4.15c3.35,3.55,7.94,7.8,11.03,12.75c1.81,2.89,2.99,6.3,3.48,9.8c-5.76,2.45-12.56,2.27-16.47,0.45
	l-0.04-0.02c-0.04-0.02-3.86-1.64-5.89-2.71c-1.01-0.54-4.11-2.17-7.03-0.96c-1.89,0.79-3.29,2.59-4.13,5.35
	c-1.22,3.96,0.4,10.08,3.94,14.89c3.87,5.27,9.28,8.19,15.22,8.22h0.07c1.73,0,3.44-0.35,5.08-1.05c5.29-2.25,9.06-6.52,10.9-12.37
	c1.02-3.22,1.37-6.76,1.09-10.27c0.38-0.2,0.75-0.41,1.12-0.64c5.04-3.08,7.82-7.71,8.03-13.4C75.39,74.88,73.63,70.89,70.13,68.06z
	 M18.42,52.15c-0.06-0.15,0.02-0.32,0.17-0.38c0.15-0.06,0.32,0.02,0.38,0.17l2.18,5.7c0.06,0.15-0.02,0.32-0.17,0.38
	c-0.15,0.06-0.32-0.02-0.38-0.17L18.42,52.15z M14.38,53.27c0.17-0.07,0.37,0.02,0.44,0.19l1.92,5.02c0.07,0.17-0.02,0.37-0.19,0.43
	c-0.17,0.07-0.37-0.02-0.43-0.19l-1.92-5.02C14.12,53.53,14.21,53.33,14.38,53.27z M12.13,53.33c-0.05-0.14,0.02-0.3,0.16-0.36
	c0.14-0.06,0.3,0.02,0.36,0.16l2.75,7.19c0.05,0.14-0.02,0.3-0.16,0.36c-0.14,0.05-0.3-0.02-0.36-0.16L12.13,53.33z M16.41,61.83
	c-1.01,0.8-2.9,0.57-2.9,0.57l0.6-1.03c0.34,0.52,1,0.75,1.6,0.52c0.69-0.26,1.04-1.04,0.77-1.73l-0.1-0.26
	c0.27,0.08,0.58,0.08,0.86-0.03c0.36-0.14,0.62-0.41,0.76-0.74c0.93-0.39,1.66,0.07,2.27,0.88C17.46,59.98,17.41,61.04,16.41,61.83z
	 M21.69,59.25c-0.67,0.51-1.37,0.7-1.08,0.5c0,0,1.4-1.05,1.8-1.41C22.62,58.15,22.36,58.74,21.69,59.25z M22.73,63.09l-0.75-2.61
	l1.88-1.49l0.59,2.38L22.73,63.09z M23.49,71.05l-0.43-6.66l1.83-1.27l0.55,5.7L23.49,71.05z M25.7,74.08l-0.33,0.28
	c-0.01,0.01-0.03,0.01-0.04,0.01c-0.02,0-0.04-0.01-0.05-0.02c-0.02-0.03-0.02-0.07,0.01-0.09l0.33-0.28
	c0.03-0.02,0.07-0.02,0.09,0.01C25.73,74.02,25.72,74.06,25.7,74.08z M61.91,46.81c-0.26-0.02-0.47-0.06-0.69-0.1
	c0,0-0.65-0.12-0.65-0.12c-3-0.57-6.07-1.13-9.14-1.2c-3.46-0.05-7.16,0.02-10.35,1.52c1.56-0.83,3.33-1.17,5.07-1.43
	c1.75-0.24,3.52-0.31,5.28-0.29c3.08,0.01,6.17,0.51,9.2,1.03c0.34,0.06,0.95,0.18,1.27,0.2c0.11,0,0.21,0.09,0.21,0.2
	C62.11,46.73,62.02,46.82,61.91,46.81z M68.37,40.37c0.56-2.44,0.43-2.75-0.56-2.84c-0.98-0.09-2.08,4.83-4.78,4.85
	c-2.7,0.02-4.27-3.62-3.24-4.45c1.03-0.83,0.72-1.88,0.2-2.21c-0.51-0.34-1.25,0.18-2.19,1.05c-0.94,0.87-5.02,1.11-5.56,0.61
	c0,0,5.45-2.73,6.2-6.07c0.61-0.21,1.34-0.47,2.1-0.87c0.59,0.51,1.93,1.66,2.26,1.97c0.39,0.37-0.23,3.78-1.28,5.59
	c-0.17,0.28-0.1,0.64,0.16,0.85c0.12,0.1,0.27,0.15,0.42,0.15c0.21,0,0.42-0.1,0.54-0.28c0.49-0.72,1.24-2.03,1.28-3.39
	c0.04-2.03,1.52-2.12,3.15-1.36C68.71,34.72,71.23,37.74,68.37,40.37z M69.27,34.16l-1.03-0.94c0,0,1.72-0.69,1.81-4.13
	C71.53,32.02,69.27,34.16,69.27,34.16z M68.24,20.35c2.17,1.85,2.44,5.14,1.3,6.28c0.04-0.69-0.89-2.88-1.63-3.42
	C68.17,22.34,68.24,20.35,68.24,20.35z M68.02,26.83c1.05,0.51,0.56,3.04-0.63,4.09c0.16-2.64-0.04-3.82-1.12-3.82
	c-1.07,0,0.6,3-2.41,2.93c-0.66-0.04-1.18-0.39-1.54-0.76c1.09-0.93,2.12-2.26,2.81-4.23c0.26-0.75,0.38-1.46,0.39-2.13
	C66.18,23.32,67.89,24.59,68.02,26.83z M65.19,20.75c-0.66-2.07-2.09-3.36-2.09-3.36s1-2.23-1.07-5.28
	C64.76,13.29,68.7,18.21,65.19,20.75z M57.68,5.77c2.39,1.81,3.48,3.65,3.26,4.1c0,0-0.22,0.12-0.31-0.06
	C59,7.56,57.96,7.16,56.25,6.34c-0.01-0.06-0.11-0.38-0.14-0.44c-0.32-0.51-0.92-0.99-1.26-1.41C55.47,4.54,56.41,4.81,57.68,5.77z
	 M50.01,2.81c1.46,0.13,2.81,0.99,4.04,2.54c-0.96-0.3-1.77-0.45-2.28-0.55l-0.1-0.02c-0.86-0.16-1.47-0.01-1.79,0.46
	c-0.08,0.11-0.13,0.23-0.16,0.35c-1.17-0.74-2.42-1.22-3.63-1.34c-0.1-0.01-0.2-0.02-0.3-0.02C46.78,3.5,48.32,2.66,50.01,2.81z
	 M39.13,1.31c-0.39,0.12-0.74,0.27-1.05,0.45c-0.16-0.18-0.36-0.35-0.59-0.5C38.08,1.09,38.65,1.16,39.13,1.31z M32.85,2.02
	c0.85-0.69,1.87-0.62,2.58-0.44c0.8,0.2,1.42,0.6,1.72,0.87c-0.7,0.67-1.1,1.46-1.32,2.09c-1.7-1.14-3.53-1.15-4.95-0.86
	C31.42,3.18,32.05,2.66,32.85,2.02z M30.79,2.21c-0.85,0.72-1.52,1.34-2.2,2.09c-0.58-0.29-2.16-0.94-4.73-0.98
	c-0.85-0.04-1.6-0.01-2.27,0.07C23.08,2.33,25.94,1.17,30.79,2.21z M6.22,13.89c0.82-0.82,1.78-1.66,2.52-2.28
	c-0.32,0.93-0.32,1.7-0.27,2.18c-0.33,0.19-0.6,0.43-0.83,0.7c-0.36,0.09-1.1,0.33-2.11,0.92C5.53,15,5.67,14.45,6.22,13.89z
	 M4.74,17.35c0.82-0.63,1.52-1.04,2.07-1.31c-0.09,0.24-0.17,0.48-0.25,0.73c-0.22,0.66-0.46,1.35-0.83,1.94
	c-0.22,0.35-0.57,0.57-0.99,0.75c-0.01,0-0.02,0.01-0.03,0.01c-0.24,0.1-0.5,0.19-0.77,0.29c-0.29,0.1-0.6,0.21-0.91,0.34
	C3.2,19.31,3.64,18.21,4.74,17.35z M2.56,26.94L2.46,27c-0.57-0.35-1.84-1.4-1.04-3.65c0.46-1.3,1.23-1.83,2.1-2.19
	C2.11,23.78,2.34,25.99,2.56,26.94z M10.92,28.57c-0.75-0.2-1.37-0.71-1.69-1.41c-0.66-1.48-0.37-3.14-0.35-3.24
	c0.06-0.33-0.17-0.65-0.51-0.68c-0.31-0.03-0.58,0.21-0.64,0.51c-0.63,3.05,1.06,5.33,1.54,5.92c-2.49-0.49-4.59-2.27-5.56-3.4
	c-0.08-0.1-0.13-0.22-0.14-0.35c-0.1-1.19,0.09-3.19,1.76-5.44c0.53-0.25,1.03-0.58,1.38-1.14c0.45-0.71,0.7-1.46,0.95-2.19
	c0.39-1.15,0.69-2.05,1.6-2.45c0.37-0.16,0.88-0.31,1.24-0.12c0.28,0.15,0.38,0.45,0.39,0.51c0.05,0.31,0.35,0.53,0.67,0.48
	c0.31-0.05,0.53-0.35,0.48-0.67c-0.06-0.33-0.33-0.99-0.98-1.34c-0.31-0.17-0.79-0.31-1.45-0.19c-0.01-0.57,0.11-1.5,0.85-2.6
	c0.03-0.04,0.06-0.07,0.08-0.12c0.64-0.92,1.71-1.96,3.48-2.99c1.23-0.62,2.05-0.8,2.57-0.54c0.58,0.28,1.01,1.18,1.32,2.75
	c0.06,0.3,0.32,0.53,0.63,0.5c0.35-0.03,0.59-0.36,0.52-0.69c-0.3-1.53-0.72-2.53-1.32-3.14c0.23-0.41,0.81-1.11,2.14-1.59
	c0.04-0.01,0.07-0.02,0.11-0.04c0.91-0.31,2.15-0.5,3.84-0.43c2.03,0.03,3.36,0.47,3.98,0.74c-0.07,0.09-0.15,0.19-0.23,0.29
	c-0.99,1.14-1.7,2.48-2.2,3.88c-0.63-1.48-1.54-2.47-1.59-2.53c-0.22-0.23-0.59-0.25-0.82-0.03c-0.23,0.22-0.25,0.59-0.03,0.82
	c0.02,0.02,1.59,1.74,1.83,3.9c-0.13,0.1-0.17,0.13-0.31,0.24c-1.59-0.65-4.99-1.56-8.36,0.64c-0.29-0.37-0.71-0.89-1.11-1.24
	c-0.24-0.2-0.6-0.22-0.82,0c-0.24,0.24-0.22,0.64,0.04,0.85c0.34,0.28,0.71,0.74,0.97,1.08c-0.07,0.06-0.14,0.11-0.21,0.18
	c-0.53,0.46-0.92,0.97-1.18,1.51c-0.38,0.8-0.45,1.53-0.36,2.19c-0.35,0.1-0.82,0.27-1.36,0.58c-1.1,0.63-2.02,1.45-2.06,1.48
	c-0.24,0.21-0.26,0.58-0.05,0.82c0.11,0.13,0.27,0.2,0.43,0.2c0.14,0,0.28-0.05,0.38-0.14c0.01-0.01,0.88-0.77,1.87-1.34
	c0.46-0.26,0.84-0.4,1.11-0.47c0.29,0.66,0.7,1.18,0.98,1.55c0.05,0.06,0.1,0.12,0.14,0.18c0.4,0.53,1.41,1.89,1.79,2.39
	c0.19,0.26,0.56,0.3,0.81,0.11c0.15-0.11,0.23-0.29,0.23-0.46c0-0.12-0.04-0.25-0.12-0.35c-0.37-0.5-1.39-1.85-1.78-2.38
	c-0.04-0.06-0.09-0.12-0.15-0.19c-0.59-0.76-1.57-2.03-0.81-3.64c0.19-0.39,0.49-0.77,0.89-1.13c3.67-3.23,7.56-1.71,8.72-1.13
	c-0.49,3.04-0.3,5.58-0.29,5.77c0.03,0.3,0.28,0.53,0.58,0.53c0.02,0,0.03,0,0.05,0c0.32-0.02,0.56-0.3,0.53-0.62
	c-0.01-0.08-0.6-8.15,3.15-12.47l0.02-0.02c0.2-0.26,0.39-0.49,0.58-0.71c0.55-0.3,3.61-1.82,6.24,0.07
	c-0.59,0.44-1.15,0.93-1.64,1.39c-3.22,2.99-3.62,6.09-3.6,7.58c-1-0.13-1.98,0.19-2.43,0.74c-0.2,0.25-0.21,0.64,0.04,0.85
	c0.27,0.22,0.66,0.17,0.85-0.11c0.16-0.23,1.22-0.63,2.17-0.06c0.9,0.54,2.46,1.24,3.52,1.24c0.13,0,0.25-0.01,0.36-0.03
	c0.29-0.06,0.51-0.31,0.5-0.6c-0.02-0.38-0.37-0.62-0.72-0.54c-0.43,0.11-1.85-0.34-3.06-1.06c-0.02-0.01-0.04-0.02-0.05-0.03
	c-0.09-0.92-0.09-4.05,3.21-7.12c1.93-1.8,3.67-2.8,4.78-2.74c0.37,0.02,0.66,0.16,0.89,0.42c0.17,0.2,0.45,0.28,0.69,0.18
	c0.37-0.17,0.46-0.62,0.22-0.91c-0.44-0.52-1.03-0.81-1.72-0.85c-0.7-0.04-1.46,0.18-2.22,0.55c0.47-0.99,1.52-2.2,3.81-2.28
	l0.07-0.01c2.18-0.36,3.95-0.53,4.81,0.64c-1.18,0.74-1.94,1.55-2.01,1.63c-1.26,0.38-2.4,1.2-3.35,2.43
	c-3.55,4.6-3.83,11.64-3.83,13.67c-0.21,0.02-0.43,0.04-0.66,0.06c-3.4,0.3-5.66,1.79-7.11,3.31c-0.66-0.02-2.17-0.08-4.9-0.28
	c-3.87-0.29-2.95-3.8-3.2-6.48c-0.13-1.41-0.65-2.27-1.12-2.77c-0.36-0.38-0.98-0.33-1.27,0.1c-0.24,0.35-0.16,0.83,0.18,1.09
	c0.9,0.7,1.21,1.8,1.28,4.1c0.09,2.77,0.69,4.18,1.39,5.1c-3.52,1.11-5.34,0.59-5.94,0.33c-0.02-0.01-0.04-0.02-0.06-0.03
	c0,0-0.01,0-0.01,0c-0.04-0.02-0.07-0.04-0.09-0.05c-0.01-0.01-0.02-0.01-0.03-0.02C15.02,25.01,15.01,25.01,15,25
	c-0.01,0-0.01-0.01-0.01-0.01c-1.21-0.7-2.13-1.86-2.53-2.35c-0.14-0.18-0.37-0.47-0.39-0.52c-0.16-0.31-0.42-0.48-0.73-0.38
	c-0.3,0.1-0.47,0.42-0.38,0.73c0.12,0.37,1.26,1.72,1.83,2.26c0.1,0.09,0.19,0.18,0.29,0.27c0.06,0.06,0.13,0.11,0.19,0.17
	c0.02,0.02,0.04,0.04,0.06,0.05c1.35,1.16,2.59,1.77,2.59,1.77s-0.62,0.74-1.41,1.63C12.95,28.9,11.78,28.79,10.92,28.57z
	 M19.61,41.58c-1.72-0.64-2.64-2.7-2.64-2.7c1.13,0.04,2.81-0.12,2.81-0.12S19.34,40.22,19.61,41.58z M23.65,40.69
	c-0.36,0.64,0.13,0.89,1.21,1.31c1.08,0.42,1.1,1.36,0.51,1.6c-2.09,0.68-3.91-0.54-4.35-0.84c-0.45-0.3,0.11-0.59,0.1-0.89
	c-0.01-0.3-1.38-1.23,0.45-3.94c1.83-2.72,5.97-3.85,8.94-4.57c1.37-0.33,2.65-0.49,3.88-0.56c0.04,0.01,0.09,0.02,0.14,0.02h0.03
	c0.06,0,0.12-0.02,0.17-0.04c1.32-0.07,2.6-0.06,3.87-0.1c2.56-0.07,4.15,0.59,4.15,0.59c-0.31,1.37,1.55,3.06,2.05,2.53
	c0.77-0.81-1.12-1.45-0.87-2.46c0.47-1.27,2.5-1.65,3.64-1.21c1.14,0.45,2.39,1.99,2.82,1.21c0.42-0.78-1.37-1.63-1.23-1.94
	c0.13-0.31,2.91-2.17,4.47-3.58c1.56-1.41,1.92-2.28,2.75-2.37c0.83-0.09,1.45-1.12,1.47-0.35c0.02,0.77,1.09,1.73,1.56,1.17
	c0.47-0.56-0.42-2.28-1.41-2.95s0.31-5.54-1.32-5.59c-1.63-0.04-0.51,4.8,0,6.12c-0.89-0.11-1.48,0.25-3.31,1.81
	c-1.83,1.56-3.11,2.9-5.5,3.69c-2.66-0.15-4.83,1.34-5.27,1.7c-0.44,0.36-4.43-0.4-6.26,0.18c-0.35,0.11-0.76,0.2-1.22,0.28
	c0.1-0.87,0.48-2.33,1.9-2.93c1.12-0.47,1.98-0.68,2.74-0.87c1.08-0.27,1.93-0.48,2.69-1.29c0.22-0.23,0.2-0.6-0.03-0.82
	c-0.23-0.22-0.6-0.2-0.82,0.03c-0.52,0.56-1.12,0.71-2.11,0.95c-0.75,0.19-1.69,0.42-2.87,0.91l-2-1.6C34.36,25.71,34,25.75,33.8,26
	c-0.2,0.25-0.16,0.61,0.09,0.82l1.66,1.33c-1.27,1.07-1.55,2.71-1.61,3.56c-1.75,0.23-3.87,0.41-5.74,0.86
	c-0.09,0.03-0.17,0.06-0.25,0.09l-0.51-1.56c-0.11-0.34-0.47-0.54-0.81-0.45c-0.38,0.09-0.6,0.48-0.5,0.85l0.46,1.61
	c-5.96,1.84-6.96,0.24-7.15-0.61c-0.2-0.91-1.47-1.76-2.05-1.05c-1.12,2.01,3.28,4.22,3.28,4.22s-4.33,1.83-6.21-0.2
	c-1.88-2.03-1.34-4.18,2.35-7.38c3.24-2.81,9.14-2.34,10.5-2.18c-0.55,0.92-0.77,1.6-0.77,1.62c-0.1,0.3,0.07,0.63,0.38,0.73
	c0.06,0.02,0.12,0.03,0.17,0.03c0.25,0,0.48-0.16,0.55-0.41c0.02-0.05,1.79-5.52,8.37-6.1c7.31-0.64,8.46,0.03,9.48,1.2
	c0.93,1.06,3.78,3.23,4.64,2.59c0.27-0.2,0.37-0.53,0.24-0.84c-0.2-0.51-0.97-0.81-1.53-0.74c-0.07,0.01-0.14,0.03-0.21,0.06
	c-0.71-0.42-1.62-1.08-2.28-1.83c-0.33-0.37-0.67-0.68-1.08-0.94c0.39-0.53,1.06-1.34,1.84-1.87c0.03-0.02,0.06-0.04,0.09-0.06
	c0.16,0.03,0.74,0.11,1.21-0.21c0.38-0.26,0.49-0.7,0.26-1.04c-0.36-0.52-1.1-0.41-2.21,0.35c-1.03,0.7-1.86,1.77-2.26,2.34
	c-1.29-0.41-3.21-0.51-6.47-0.3c0.02-2.02,0.34-8.67,3.58-12.87c1.26-1.64,2.83-2.38,4.64-2.2c2.65,0.26,5.64,2.62,7.13,5.61
	c0.13,0.27,0.45,0.43,0.74,0.33c0.33-0.12,0.47-0.5,0.32-0.8c-0.77-1.55-1.88-2.93-3.15-4c-0.14-0.27-0.2-0.53-0.18-0.62
	c0.05-0.02,0.21-0.06,0.63,0.01l0.1,0.02c1.94,0.36,7.1,1.3,10.11,7.72c0.58,1.34,0.57,2.2,0.45,2.7c-0.34-0.37-0.69-0.74-1.08-1.12
	c-0.6-0.59-1.2-1.07-1.81-1.43c0.06-1.24-0.7-2.34-0.74-2.39c-0.19-0.26-0.55-0.32-0.81-0.14c-0.26,0.19-0.33,0.55-0.14,0.81
	c0.01,0.01,0.36,0.52,0.49,1.15c-0.72-0.25-1.43-0.35-2.15-0.29c-1.76,0.15-3.07,1.2-3.75,1.89c-0.53-0.7-1.29-1.38-2.35-1.93
	c-1.41-0.73-2.74-0.78-3.91-0.49c-0.12-0.85-0.24-2.5,0.34-4.22c0.1-0.29-0.01-0.63-0.28-0.76c-0.32-0.15-0.69,0.01-0.8,0.33
	c-0.74,2.13-0.53,4.15-0.37,5.05c-1.41,0.67-2.5,1.79-3.09,2.67c-0.17,0.25-0.14,0.61,0.1,0.8c0.27,0.22,0.66,0.15,0.85-0.13
	c0.12-0.17,2.85-4.17,6.63-2.23c3.81,1.96,2.83,5.65,2.79,5.8c-0.09,0.31,0.09,0.63,0.4,0.72c0.05,0.02,0.11,0.02,0.16,0.02
	c0.25,0,0.49-0.17,0.56-0.42c0.01-0.03,0.57-2.1-0.4-4.19c0.46-0.52,1.64-1.64,3.23-1.77c1.39-0.11,2.82,0.54,4.24,1.95
	c0.54,0.53,1.02,1.05,1.45,1.55c0.02,0.05,0.05,0.1,0.09,0.14c0.04,0.04,0.08,0.08,0.13,0.11c1.66,2,2.46,3.76,2.42,5.35
	c-0.01,0.2-0.02,0.39-0.05,0.59c-0.17,1.1-0.79,2.08-1.64,2.79c-1.52,1.26-3.17,2.08-5.36,2.87c-0.25,0.09-0.46,0.25-0.61,0.46
	c-3.09,4.32-6.99,6.5-8.86,6.71c-1.93,0.22-7.81,0.87-11,1c-3.2,0.13-8.03,0.24-9.1-0.15c-1.07-0.39-2.86-0.86-3.1-0.26
	c-0.24,0.6,0.23,0.8,0.75,0.92c-0.56,0.58,0.21,1.38,1.5,1.45C25.98,41.25,24,40.05,23.65,40.69z M33.6,42.83
	c-3.57,1.17-6.69,1.13-6.69-0.25c2.27-0.21,3.53-2.41,3.53-2.41s5.89,0.34,9.94-0.43c4.05-0.77,7.17-0.92,9.13-0.15
	c1.96,0.77,5.09,1.17,5.09,1.17s-2.75,0.38-8.42,0.27C40.5,40.93,37.16,41.66,33.6,42.83z M40,46.01c0.7-2,4.09-2.24,5.48-1.79
	C43,44.42,40,46.01,40,46.01z M40.67,49.2c-0.12,0.09-0.29,0.07-0.37-0.05c-0.08-0.12-0.06-0.28,0.06-0.37
	c1.98-1.32,4.63-1.92,9.29-2.01c4.83-0.09,11.46,1.26,11.46,1.26s-1.63,0.06-5.83-0.49C45.11,46.38,41.51,48.54,40.67,49.2z
	 M43.34,49.45c0,0,1.94-0.81,6.3-0.86c4.36-0.06,6.71,0.65,10.3,0.66C56.87,49.34,46.16,49.08,43.34,49.45z M46.55,51.35
	c3.55,0.39,7.2,0.78,10.73,0.07c0,0,0.7-0.18,0.7-0.18C54.52,52.47,50.11,52.01,46.55,51.35z M62.51,103.12
	c-1.12,3.56-3.67,8.31-9.45,10.77c-1.34,0.57-2.72,0.85-4.13,0.84c-6.89-0.04-11.2-4.51-13.16-7.17c-3.44-4.67-4.39-9.88-3.55-12.61
	c0.61-1.99,1.5-3.24,2.66-3.72c0.39-0.16,0.81-0.24,1.28-0.24c0.99,0,2.17,0.36,3.55,1.1c2.06,1.09,5.72,2.64,6.06,2.79
	c4.87,2.26,11.93,2.12,17.78-0.12C63.67,97.64,63.34,100.5,62.51,103.12z M65.83,90.8c-0.04,0.02-0.07,0.04-0.11,0.07
	c-0.61-3.56-1.78-7.93-3.63-10.88c-3.17-5.07-6.86-8.68-9.77-12.33l-0.43-0.53c0.55-0.27,1.1-0.49,1.65-0.62
	c2.71-0.69,10.12-0.34,14.96,3.57c2.89,2.33,4.27,5.51,4.13,9.44C72.41,85.54,68.81,88.98,65.83,90.8z"/>
</svg>
