<svg xmlns="http://www.w3.org/2000/svg" id="b" data-name="Ebene_2" width="1236.351" height="843.575" viewBox="0 0 1236.351 843.575"><g id="c" data-name="Layer_1"><g><path d="M1235.226,371.902c-4.7-52.3-13.5-91.2-26.4-116.3-4.8-9.3-12.6-18.3-16.6-19.2-1.6-.3-6-2.5-9.8-4.7-8.6-5.3-13.7-7.2-27.1-10.3-15.3-3.6-24.6-6.7-62-20.5-6.3-2.3-15.6-6.2-20.7-8.6-5.1-2.4-10.4-4.4-11.7-4.4-2.7,0-6.4-1.9-15.5-8.1-15.7-10.7-37.8-18.5-67.3-23.9-7.5-1.4-15.1-2-26.7-2-20.1,0-12,2.6-84-26.6-10.4-4.2-30.9-12.2-45.8-17.9-14.8-5.7-38.4-14.8-52.3-20.4-68.8-27.4-88.2-31.6-160.2-35.1-10.7-.5-23.3-1.4-28-2s-11.2-1.2-14.4-1.3c-4-.1-6.1-.7-6.7-1.7-.4-.8-2.1-4.5-3.8-8.2-3.9-8.8-10.1-15.3-22.4-23.4C511.926,2.803,503.726-.097,486.126.002c-5.8.1-13.5.7-17.3,1.5-16.9,3.4-35,14.2-67.2,40.4-3.8,3.1-9.9,7.6-13.3,10-5.7,4-7,4.4-12.9,4.7-3.6.1-8.2.8-10.2,1.5-2.4.9-8.9,1.2-20.1,1.1-16.1-.2-22-1-39-5.3-2.5-.6-6.4-.9-8.8-.6-3.9.5-4.6.2-8.4-3.2-2.3-2-6-6.6-8.3-10.2-5.4-8.3-7.8-10.9-13.9-15-6.3-4.2-12.8-6.7-24.1-9.1-10.9-2.3-16-2.3-24.4-.4-9.2,2.2-17.4,7-26.3,15.2-4.3,4-8.6,7.3-9.6,7.3s-7.4-1.1-14.3-2.4c-32.6-6.5-68.6-8-95.1-4C33.226,37.402,8.526,56.103,1.626,85.502c-2.1,8.9-2.2,26.6-.1,36,3.2,15,7.9,24.7,22.2,45.9,20.6,30.7,31.9,41,58.8,54.1,6.4,3.1,11.9,6.1,12.2,6.6.4.5.1,3.8-.6,7.1-1.8,9.5-3.7,20.2-5.5,30.7-4.7,28.3-7.2,41.7-8.6,47.4-.6,2.1-1.4,6-1.9,8.5-.4,2.5-1.5,7.5-2.3,11.1s-2.7,11.9-4.1,18.5c-1.5,6.6-3.1,13.8-3.6,16-7.2,31-9.8,60.8-6.6,78,2.2,11.8,5.8,23.5,11.2,36.6,5,12.4,16,34.5,21.6,43.8,2.1,3.4,3.8,6.5,3.8,6.8,0,.2,3.4,5.9,7.5,12.6,4.2,6.7,8.1,13.1,8.8,14.2,12.8,20.8,41.8,59.3,61.8,82,9.6,11,37.5,44.1,65.8,78.4,10.3,12.4,23.5,25.3,31.7,30.8,14.9,10.2,25.7,14.1,60.9,22.2,23.6,5.5,21.6,4.5,38,20.2,19.2,18.4,31.7,28,46,35.4,15.6,8,27.4,11.6,46.2,14.1,9.9,1.3,14.1,1.4,26.3.4,25.8-2,53.6-7.2,84.5-15.9l13-3.6,30.1.3c32.5.4,40.3-.3,62.4-5.4,20.4-4.7,34.7-10.2,51-19.6,13.3-7.7,28-14.7,34.1-16.3,3-.7,9.1-1.7,13.5-2,34.9-2.8,51.6-10.5,86.8-40.4,4.9-4.2,11.9-10,15.5-13s6.8-5.7,7.1-6.1c.3-.3,5.9-5,12.5-10.5,12.9-10.6,19.5-16.3,43-37.5,8.3-7.4,18.8-16.9,23.5-21.1,11.9-10.6,36.9-31.9,37.5-31.9.2,0,2.3.9,4.5,2.1,3.2,1.7,5,2,8.6,1.4,5.9-.9,10.9.8,47.9,16.2,53,22,69.2,29.5,80.8,37.6,4.8,3.4,6.8,4.2,11.7,4.5,5.5.4,6,.2,9.5-3,3.4-3.1,3.9-4.1,4.3-9.4.4-4.7,1.1-6.7,3.7-9.9,13.2-16.5,31.8-58.8,42.8-97.5,2.8-9.9,7.4-30.3,9.1-40.5,3.6-21.2,4-24,6.7-50.5,1.5-14.5,1.5-82.3,0-99h0ZM441.826,44.802c19-13.5,27.4-16.8,42.9-16.8,10.8-.1,11.3,0,18.3,3.5,3.9,2,7.9,4.6,8.7,5.9,1.5,2.3,1.3,2.9-2.9,11.7-8.2,17.3-13.1,21.5-23.6,20.5-3.1-.3-13.9-3.2-24.1-6.6-10.2-3.3-21.1-6.8-24.3-7.7-7-1.9-6.9-2,5-10.5h0ZM313.526,83.402c1.1.3,9.1,1,17.6,1.5s15.8.9,16.3,1c1.7.1.4,2.3-4.3,7.5-6.1,6.7-14.3,17.8-19.5,26.2-2.1,3.5-4.3,6.3-5,6.3-.9,0-1.4-3.1-1.7-10.3-.5-9.1-2.7-20.1-5.8-28.1-1.3-3.5-.4-5,2.4-4.1h0ZM190.026,83.302c8.1-16.7,12.9-24,20.5-31.2,9.5-9,16.4-10.8,29-7.6,9.6,2.5,13.2,5,16.4,11.3,2.5,5.2,2.7,6.4,2.7,18.6-.1,14.9-1.8,22.3-8.5,35.5-5.3,10.3-6,11.2-11.1,12-2.4.4-9.1,1.7-14.9,3s-13.6,2.4-17.5,2.4c-5.9.1-7.7-.3-11.6-2.6-4.5-2.7-11.3-9.9-13.8-14.6-1.7-3.2.1-8.7,8.8-26.8h0ZM74.826,183.802c-7.4-5.4-15.7-15.3-27.8-33.4-17.1-25.3-22-42.6-17.2-59.9,3.7-13.5,12.7-21.7,30.3-27.8,18.4-6.3,44.6-8,79.5-4.9,15.4,1.4,21.5,2.8,21.5,5.1,0,1.9-1.2,4.1-14.9,27.4-4.4,7.6-8.1,14-8.1,14.2,0,.3-1.2,2.3-2.7,4.7-9.1,14.4-21,42.6-26.5,62.7-3,11-4.8,17.6-5.8,21.7-.6,2.4-1.6,4.3-2.2,4.3-2.3,0-19.8-9.5-26.1-14.1ZM1208.026,440.902c-1.2,30.5-3.6,52.6-8.9,81.5-3.8,20.8-12.3,49.6-21.5,73-9.6,24.2-23.7,49.5-27.6,49.5-1,0-6.3-2.1-11.6-4.6-5.4-2.5-19.7-8.6-31.8-13.5-12.1-4.9-26.3-10.7-31.5-12.9-10-4.1-22.3-8.8-35.2-13.4-5-1.8-7.5-3.2-7.2-4,.3-.7,4.6-4.8,9.6-9.2,12.1-10.5,25.8-25,30.9-32.6,2.4-3.5,4.6-6.6,5.1-6.9.8-.5,7,.7,19.3,3.9,12.2,3.1,26.2,8.1,45.1,16.1,7.3,3,13.7,5.1,15.9,5.1,13.4,0,18.4-14.5,8-23.2-3.8-3.2-31.7-14.5-49-19.9-7.8-2.5-21.5-5.9-23.4-5.9-3.1,0-3.5-2.2-1.2-6.1,1.1-1.9,4-8.4,6.4-14.4,2.5-6.1,6-14.8,8-19.5,9-21.7,11.7-34.6,11.7-56.4,0-15.7-.7-23-3.6-35.6-5-21.7-7-26.9-11.5-30.1-9.1-6.4-20.9-.2-20.9,11.1,0,2.3,1.6,10.3,3.6,17.8,4.9,19.2,6.8,35.9,5.4,48.2-2.1,17-8.5,36.5-14.5,44.2-1.9,2.3-6.3,10.8-9.7,18.8-16.6,38.9-20.5,43.7-72.9,88.5-20.9,17.9-43.1,37.3-63.4,55.5-13.3,11.8-27.2,24.2-31,27.5s-8.7,7.6-11,9.6c-2.2,1.9-15.9,13.4-30.5,25.6-42.2,35.1-50.3,39.7-75,42.4-16.6,1.7-24.3,3-30.5,5.1-6.7,2.2-22.9,10.1-31.7,15.4-14.1,8.6-31.3,15.3-48.3,19-22.6,4.8-22.7,4.8-55.8,4.6l-31.7-.3-23.8,6c-41,10.4-67.4,15.1-84.8,15.1-19.4,0-45.3-8.7-61.4-20.6-15.2-11.3-41.1-35.9-44.3-42.1-3.1-5.9-6.5-7.4-16.4-7.2-8.7.2-11.8-.3-34.6-6.1-11.4-2.9-22.3-7.4-29.5-12.1-9.2-6-17.8-14.9-37.9-39.4-20.2-24.4-32.1-38.6-48.7-58-6.1-7.1-11.8-13.9-12.8-15-16.8-20.2-19.3-23.4-29.7-37.3-20-26.7-54.4-83.3-52.5-86.4.6-.9,1-.7,6.9,3.2,10.5,7,17.3,10.1,22.5,10.2,8.5,0,13.8-5.5,12.7-13.5-.7-5-4.2-8.7-13.2-14-3.8-2.2-11.2-7.1-16.4-10.9-11.3-8.2-15.2-9.6-21.6-7.8-5.1,1.4-5.5,1.2-7.2-4-3.2-9.6-4.4-18.1-4.4-30,0-16,3.1-33.8,14-82,6.1-27.1,8.9-41.4,13.2-67.5,1-6.6,2.6-16.3,3.5-21.5.8-5.2,2.2-11.8,3-14.6.7-2.8,1.4-6.5,1.4-8.3,0-1.7.7-6,1.4-9.4.8-3.4,2.2-9.6,3.1-13.7,3.7-17.1,7.9-33.2,11.5-44.2,4.4-13.3,15.3-36.8,17-36.8.7,0,5.4,4.3,10.5,9.5,7.5,7.7,10.6,10.1,16.7,13,11.8,5.6,25.8,5.9,46.3.9,7.5-1.9,11.4-2,18.6-.9,5.4.8,8.8-.6,13.5-5.7,6.6-7.1,16.1-24.7,20-37.2,1.2-3.9,2.2-5.6,3.3-5.4,1.6.3,3.6,7,4.7,15.4,1,8.6-4.3,32.6-9.1,40.8-1.6,2.7-4.5,11.9-7.5,23.8-5.9,23.7-8.1,31.9-12.7,47.3-1.9,6.6-3.9,13.3-4.4,15-5,17.6-10.7,33.8-19.8,56.1-2.8,6.9-4.3,12.2-4.7,17-.3,3.8-1.6,10-2.9,13.9-1.3,3.8-2.9,8.9-3.4,11.2-.6,2.2-4.2,10.6-8,18.5-11.2,23.3-15.1,33.9-17.1,45.8-.6,3.6-1.8,9.5-2.6,13.3-1.8,7.6-1.9,7.2,4.7,29.7,8.4,28.8,12.1,39.3,20.2,57.5,1.7,3.8,16.9,34.7,33.9,68.5,35.1,70.2,33,63.6,23.9,74.4-2.7,3.2-5.1,6.8-5.3,8.1-1.3,6.8,3.2,13.8,9.7,15.1,7.2,1.3,12.6-2.4,26.5-18.6,5.4-6.3,5.5-6.5,5.5-12.5-.1-5.7-.8-7.4-16.5-39-39.5-79-55.6-113.9-63.1-136.5-3-9.4-7.9-29.1-7.9-32.2,0-2.8.2-2.9,3.2-2.3,6.3,1.4,11.6,4.4,17.9,10,14,12.5,20.8,15.5,35.1,15.5,6.8,0,11.9-.7,18.8-2.5,15.8-4.3,21-8.6,21-17.5,0-3.2-.7-4.8-3.4-7.8-3.4-3.6-3.6-3.7-10.3-3.6-4.2.1-9.3,1-13.2,2.3-14.1,4.9-18.4,4-30.8-6.7-10.2-8.7-11.8-9.6-25.3-14.5-12.4-4.4-12.5-4.5-12.4-7.6.1-1.8,11-24.6,26.6-55.8,43.1-86.1,62-128.8,71.2-160.8,4.5-15.5,8.1-25,13.4-35.5,3.1-6.3,6.2-11.6,6.8-11.8.6-.1,1.4,1.5,1.8,3.8s1.8,5.4,3.5,7.2l2.9,3.3,12.9.6c14.4.6,16.7,1.3,27.7,8.7,6.4,4.3,7.6,4.7,12.9,4.7s6.1-.3,8.8-3.3c3.6-4,4-10.7.9-15.7-3.4-5.5-19.1-15.5-29.2-18.6-11.2-3.4-30.9-2.1-36.5,2.4-2.2,1.7-1.4-.3,2.4-6,4.1-6.2,24.1-26.8,31.8-32.8,2.8-2.1,6.9-5.7,9.3-7.9l4.3-4.1,7.7.3c9.7.3,22.8,3.6,41.2,10.1,22.5,8,28.4,9.4,39.2,8.9,7.9-.2,10.3-.8,15.8-3.4,8.8-4.2,14-9.1,20.2-18.5,2.8-4.3,5.5-7.9,5.9-7.9.5,0,1.3,1.7,1.8,3.7,5.3,18.9-6.8,56.2-28.5,88.3-21.9,32.4-25.7,38.4-32.6,51-4.1,7.4-10.6,19.3-14.3,26.5-9.5,18.1-16.5,30.7-18,32.5-.6.8-2.1,4-3.2,7-4.6,12.3-8.4,22.2-13.3,34.5-17.6,44.2-15.9,40.7-34.7,70.8-6.7,10.8-12.3,19.9-12.3,20.2,0,.2-1.5,2.8-3.3,5.7-6,9.5-16.8,33.1-18.8,41.2-10.3,40.8-7.2,67.7,11.5,101.6,3.5,6.3,9,16.4,12.1,22.5,7.7,14.8,10.9,20.6,16.8,30,7,11.2,29.7,48.6,29.7,49,0,.1,2.8,5.2,6.3,11.2,12.4,21.4,17.6,33,21.6,47.8,3.1,11.7,17.7,13.9,23.3,3.5,6.6-12.1-5.2-38.7-52.8-118.6-7.9-13.2-16.8-29.2-19.8-35.5s-8.2-16.4-11.5-22.4c-6.4-11.5-10.8-23.7-13.5-36.9-1.7-8.2-2-12.9-1-13.9.3-.3,4.7,1.6,9.7,4.2,13.4,7,25.2,10.7,51.2,16.2,20.2,4.2,23.9,3.9,28.3-2.5,4.5-6.5,1.6-15.2-6.1-18.6-2.3-1-9.6-3-16.2-4.5-30.4-6.7-45.7-12.9-56.8-22.7l-3.8-3.3,1.6-8c1.6-8.5,7.3-21,14.6-32.5,2.3-3.6,5.2-8.1,6.4-10,12.2-19.1,14.8-22.9,16.6-24.6,1.1-1,4.4-5.7,7.3-10.4,5.3-8.6,11.3-17.4,20.7-30.5,2.7-3.9,6.7-9.5,8.9-12.5,2.1-3,8.5-11.8,14.1-19.5,15.5-21.4,35.1-51.3,43-65.7,3.9-7.1,7.8-13.2,8.6-13.5.9-.4,5.9-.2,11.3.4,7.3.7,11.3,1.7,16.3,4.1,8.4,3.9,17.1,10.6,23.2,17.7,6.9,8.1,14.2,9.4,20.4,3.6,4.4-4.1,5-9.8,1.7-16.6-3.4-6.9-15.6-18.4-26.5-24.9-8.3-5-20.4-9.6-25.2-9.6-3.7,0-5.9-.9-5.9-2.5,0-4,17.9-15.7,32.8-21.5,2.9-1.1,7.5-3.1,10.3-4.5l5-2.6,18.7,1.1c20.4,1.2,24.8,2.1,42.7,8.2,10.8,3.7,13,4.1,22,4.2,11.4.1,16.4-1.6,23.2-7.8,2.2-2,4.7-3.6,5.6-3.6,3.6,0,3.2,19.2-.8,34.5-3.1,11.6-8,20.4-20.8,36.9-3.8,4.9-7.8,10.8-8.8,13.1-1.1,2.6-3.4,5.2-5.8,6.8-2.1,1.4-8,6-13,10.2-5,4.1-12,9.1-15.5,11.1-10.1,5.5-16.9,13.6-25.2,29.9-10.7,20.9-15.9,37.6-21.4,68.5-3.4,19.1-5,26.8-8.7,42.3-3,12.7-4,15.4-7,18.9-4.7,5.7-4.7,5.5-8.8,22.3-2,8.2-4.5,18.6-5.6,23-5.8,23.4-7.1,39-4.3,53.6,3.8,20.5,11.7,36.7,29.6,60.7,3.8,5,9.8,13.8,13.4,19.5,3.7,5.6,7.7,11.8,9,13.8,2.4,3.5,2.5,4.1,3,32,.8,36.8,2.5,45.6,10.4,52.3,5.8,4.8,16.2,2.5,19-4.4,1.3-3.2,1.1-6.6-1.5-21.1-1.7-9.3-1.5-14.9.5-14.9s10.3,14.4,11.2,19c.9,5.1,3.4,8.9,6.9,10.8,3.6,1.9,11.1,1,14.7-1.9,11.7-9.4,5.3-24.4-31.4-72.9-4.4-5.8-11.3-15.9-15.4-22.5-4-6.6-11.3-17.4-16-24-11.5-16.1-17.1-25.4-20.8-35-4.4-11.5-5.5-17.7-5-29.6.3-8.6.8-11.3,3-15.9,1.5-3.1,4.7-13.9,7.3-24,2.6-10.2,5.3-20.8,6-23.5.7-2.8,2.2-8.2,3.3-12,4.6-15.6,9.1-34.6,12.7-53.5,7.5-39.2,14.1-58.9,25.6-76.4,3.6-5.5,5.4-7.1,10.9-10,9-4.8,23.8-9.6,29.3-9.6,6.9,0,26.5-3.6,32.9-6,7.2-2.7,12.8-5.7,21.6-11.4,3.8-2.5,7.6-4.6,8.5-4.6,3.3,0,9.3,9.5,12.8,20.2,4.5,14.3,3.4,32.9-4.2,71.1-.8,3.7-.6,6.1.5,10.2,2,6.6,2,10.4.1,32.4-2.5,29-4.3,40.1-10.7,65.9-3.8,15.2-3.6,21.7.7,26.2,1.6,1.7,4.2,3.4,5.9,3.8,2.2.6,4.1,2.8,8.6,9.8,3.1,5,8.6,12.8,12.1,17.4,15.8,20.3,18.4,24.1,22.9,33.5,2.7,5.5,6.9,15.9,9.3,23.1,2.5,7.2,5.2,14.5,6.1,16.2,4,7.8,14.9,10.2,20.7,4.6,6.4-6.1,6.1-11.5-2.3-34.4-8.4-23.1-14.1-33.3-28.7-50.9-12-14.6-15.5-19.4-18.8-25.7-2.7-5.4-2.8-5.5-.9-7,6.1-4.5,55,1.8,80.2,10.2,17.2,5.8,33.7,18.9,39.7,31.8,4.3,9,8.3,12.6,13.9,12.6,8,0,13.8-6.3,13.8-14.9,0-17.7-26.1-43.5-54.5-53.9-20.2-7.4-56.1-13.2-81.9-13.2h-14.9l.6-4.8c.7-5.9,2.4-18.4,3.7-28.2.6-4.1,1.5-17.4,2-29.5.9-20.2,2.1-33.2,4.8-52,3-20.4,3.6-30.7,2.4-41.9-3-28.1-15.5-49.8-34.2-59.5-7.2-3.8-21.8-7.1-31.2-7.1-6.7,0-8.3-1-5.9-3.6,2.1-2.3,7.1-12.6,9.5-19.7,5.1-15.4,6.9-35.8,4.6-52-2.9-20.1-8.5-32.2-20.5-44.3-9.9-10-18.3-15.7-28.6-19.5-7.2-2.6-9.2-2.9-20.2-2.9-12.7,0-15.9.7-31,6.4-8.8,3.3-21.4,11.5-34.8,22.7-5.8,4.8-12.1,9.4-14,10.2-1.9.9-5.8,2.5-8.8,3.7s-11.7,5.3-19.4,9.2c-7.6,3.8-14.2,6.7-14.5,6.4-.3-.4,2.2-6.4,5.6-13.4,7.9-16.4,10.8-23.6,14.1-35.7,2.1-7.6,5.1-24,5.1-28.2,0-3.7.3-4.3,2.6-4.9,1.4-.4,8.7-.1,16.2.5,7.6.6,21.8,1.6,31.7,2.1,62.4,3.6,73.4,5.9,132.5,28.2,14.6,5.5,28.5,10.8,31,11.8s11.3,4.3,19.5,7.3c44.9,16.5,86.4,32.4,88.3,33.9,2.1,1.8,1.4,2.7-4.9,5.8-15.2,7.5-33.2,21.4-49.5,38.2-12.3,12.6-39.2,43.5-41.2,47.3-2,4-2,10.7.2,14,2.4,3.6,8,5.8,12.5,5,4.1-.8,8.3-4.8,33-31.8,33.4-36.6,55.7-51.6,86.6-58.3,11.6-2.5,34.3-3,46.5-1,10.6,1.8,24.6,5.2,33.6,8.2,8.2,2.7,19.8,7.6,21.5,9,.8.8,1.9,1.4,2.3,1.4,1.7,0,14.1,10.4,27.1,22.9,29.9,28.7,34.2,31.6,42.8,28.9,5.7-1.8,8.7-6.4,8.7-13.4,0-3.7.4-5.4,1.3-5.4.7,0,7.1,2,14.2,4.5,7,2.5,18.9,6.2,26.3,8.1,7.5,1.9,14.8,4.2,16.2,4.9,1.5.8,5.7,4.4,9.4,8,3.7,3.6,8.4,7.4,10.4,8.4,5.3,2.7,6.1,4.3,11.5,23.1,11.1,38.2,15.9,91,13.6,149h0ZM661.126,130.002c.9-.1,4.2.6,7.4,1.4,6,1.6,16.1,7.6,18,10.7,1.3,2.1-1.4,7.4-6.7,12.9-4.7,4.9-7.1,5-19.3.9-11.7-4.1-27.9-8-32.7-8-14.2,0,17.1-16.8,33.3-17.9h0Z" fill-rule="evenodd"></path><path d="M200.626,263.902c4.4-8.5-.9-17.5-11.9-20-2.6-.6-14.3-4.6-26.1-9-21.5-8-25.9-9-30.5-6.7-1.3.7-3.5,2.8-4.8,4.7-3.2,4.8-2.6,11,1.5,15.1,3,3,29.6,14.4,45.3,19.3,13.6,4.3,23.1,3.1,26.5-3.4h0Z" fill-rule="evenodd"></path><path d="M665.826,526.802c-2.3-.5-6.2-1.6-8.7-2.4-6.5-2-11.5-2.2-30.5-1.6-13.6.5-17.7,1-20.3,2.4-8.1,4.4-9.5,14.3-2.8,20.4,3.9,3.6,4.4,3.7,19.6,3.4,5.9-.2,15.9.5,22.9,1.4,18.1,2.5,23.9,1.4,28.2-5.2,4.5-6.8.2-16.1-8.4-18.4h0Z" fill-rule="evenodd"></path></g></g></svg>