<svg xmlns="http://www.w3.org/2000/svg" xmlns:xlink="http://www.w3.org/1999/xlink" width="709" viewBox="0 0 531.75 694.499979" height="926" preserveAspectRatio="xMidYMid meet"><defs><clipPath id="adfd9c03e3"><path d="M 0.0664062 0 L 503.703125 0 L 503.703125 693.25 L 0.0664062 693.25 Z M 0.0664062 0 " clip-rule="nonzero"></path></clipPath><clipPath id="7755cf0ee8"><path d="M 276.191406 193.804688 L 316.988281 193.804688 L 316.988281 224.726562 L 276.191406 224.726562 Z M 276.191406 193.804688 " clip-rule="nonzero"></path></clipPath><clipPath id="b8e9f4bb01"><path d="M 313.867188 200.609375 C 290.707031 206.53125 284.9375 210.953125 282.6875 210.050781 C 281.414062 209.601562 280.289062 206.828125 280.8125 206.082031 C 281.414062 205.179688 286.660156 206.230469 288.757812 206.53125 C 290.183594 206.753906 291.308594 206.980469 292.355469 207.503906 C 293.480469 208.105469 294.453125 208.851562 295.355469 209.976562 C 296.554688 211.699219 297.003906 215.75 298.351562 217.171875 C 299.25 218.070312 300.824219 217.996094 301.574219 218.597656 C 302.175781 219.121094 302.625 219.71875 302.699219 220.46875 C 302.847656 221.292969 302.472656 222.792969 301.875 223.542969 C 301.273438 224.21875 299.777344 224.667969 298.875 224.515625 C 297.976562 224.367188 296.777344 223.46875 296.328125 222.644531 C 295.953125 221.820312 296.027344 220.320312 296.476562 219.496094 C 297.003906 218.671875 298.277344 217.921875 299.175781 217.847656 C 300.148438 217.773438 301.5 218.445312 302.097656 219.121094 C 302.625 219.871094 302.847656 221.445312 302.625 222.269531 C 302.472656 222.941406 301.875 223.617188 301.347656 223.992188 C 300.75 224.367188 300.074219 224.589844 299.25 224.589844 C 298.125 224.515625 296.253906 223.84375 295.054688 223.09375 C 293.929688 222.34375 292.878906 221.144531 292.132812 219.945312 C 291.457031 218.820312 291.382812 217.320312 290.707031 216.199219 C 290.03125 215.148438 289.433594 213.875 288.234375 213.273438 C 286.433594 212.375 282.3125 213.351562 280.363281 212.824219 C 279.015625 212.449219 277.816406 212.074219 277.140625 211.175781 C 276.390625 210.203125 276.019531 207.953125 276.46875 206.828125 C 276.84375 205.707031 278.117188 205.03125 279.390625 204.132812 C 281.488281 202.859375 284.410156 201.734375 287.859375 200.535156 C 293.179688 198.585938 303.597656 195.4375 308.394531 194.539062 C 310.941406 194.015625 312.890625 193.640625 314.316406 193.9375 C 315.214844 194.164062 315.964844 194.539062 316.414062 195.214844 C 316.863281 195.960938 317.089844 197.460938 316.9375 198.285156 C 316.789062 198.886719 316.488281 199.261719 316.039062 199.632812 C 315.515625 200.085938 313.867188 200.609375 313.867188 200.609375 " clip-rule="nonzero"></path></clipPath><clipPath id="e557678093"><path d="M 298.316406 212 L 333.355469 212 L 333.355469 239.167969 L 298.316406 239.167969 Z M 298.316406 212 " clip-rule="nonzero"></path></clipPath><clipPath id="adfe4ccb3c"><path d="M 326.382812 213.726562 C 330.429688 212.074219 331.328125 212.300781 331.925781 212.824219 C 332.601562 213.351562 333.351562 214.699219 333.351562 215.597656 C 333.277344 216.496094 332.828125 217.621094 331.777344 218.371094 C 329.453125 220.09375 320.683594 220.171875 316.414062 221.367188 C 313.191406 222.195312 310.269531 223.167969 308.246094 224.21875 C 306.894531 224.890625 305.246094 225.339844 305.171875 226.242188 C 305.097656 228.039062 313.789062 232.160156 314.988281 234.109375 C 315.4375 234.933594 315.4375 235.609375 315.363281 236.285156 C 315.214844 236.882812 314.839844 237.707031 314.390625 238.15625 C 313.867188 238.605469 313.117188 238.980469 312.441406 239.132812 C 311.765625 239.207031 310.867188 238.980469 310.269531 238.683594 C 309.742188 238.308594 309.144531 237.707031 308.917969 237.03125 C 308.621094 236.207031 308.695312 234.632812 309.21875 233.886719 C 309.667969 233.136719 311.015625 232.386719 311.917969 232.386719 C 312.890625 232.386719 314.238281 233.0625 314.765625 233.808594 C 315.289062 234.558594 315.363281 236.132812 315.140625 236.957031 C 314.914062 237.632812 314.390625 238.308594 313.789062 238.605469 C 312.964844 238.980469 311.917969 239.207031 310.644531 238.832031 C 308.019531 238.082031 301.648438 233.359375 299.777344 230.738281 C 298.652344 229.238281 298.351562 227.664062 298.351562 226.242188 C 298.351562 225.042969 298.875 223.84375 299.476562 222.792969 C 300.074219 221.742188 301.050781 220.84375 302.023438 220.019531 C 303.074219 219.195312 303.898438 218.746094 305.621094 217.996094 C 309.292969 216.421875 318.886719 213.574219 323.535156 212.75 C 326.304688 212.226562 328.78125 211.851562 330.429688 212.226562 C 331.328125 212.375 332.003906 212.824219 332.527344 213.351562 C 332.902344 213.800781 333.125 214.25 333.203125 214.773438 C 333.351562 215.449219 333.351562 216.421875 332.902344 217.171875 C 332.226562 218.222656 330.054688 219.644531 328.855469 219.945312 C 328.03125 220.171875 327.132812 220.019531 326.457031 219.71875 C 325.855469 219.421875 325.105469 218.671875 324.882812 217.996094 C 324.582031 217.246094 324.582031 216.273438 324.808594 215.597656 C 325.03125 214.847656 326.382812 213.726562 326.382812 213.726562 " clip-rule="nonzero"></path></clipPath><clipPath id="d050801e9a"><path d="M 302.28125 217.277344 L 322.824219 217.277344 L 322.824219 231.980469 L 302.28125 231.980469 Z M 302.28125 217.277344 " clip-rule="nonzero"></path></clipPath><clipPath id="f68eefe9b0"><path d="M 307.046875 217.546875 C 317.835938 223.242188 321.058594 225.117188 322.109375 226.539062 C 322.632812 227.214844 322.785156 227.890625 322.785156 228.5625 C 322.785156 229.238281 322.484375 230.0625 322.035156 230.585938 C 321.660156 231.113281 320.910156 231.636719 320.234375 231.785156 C 319.636719 231.9375 318.738281 231.9375 318.136719 231.636719 C 317.460938 231.410156 316.789062 230.886719 316.488281 230.210938 C 316.113281 229.464844 315.964844 227.890625 316.339844 227.066406 C 316.789062 226.242188 318.0625 225.417969 318.886719 225.191406 C 319.5625 225.042969 320.386719 225.265625 320.984375 225.566406 C 321.585938 225.867188 322.183594 226.539062 322.484375 227.140625 C 322.785156 227.738281 322.933594 228.640625 322.710938 229.3125 C 322.410156 230.136719 321.359375 231.261719 320.609375 231.710938 C 319.9375 232.011719 319.410156 232.011719 318.4375 231.785156 C 315.589844 231.039062 304.945312 225.042969 303.074219 222.71875 C 302.398438 221.820312 302.324219 221.070312 302.324219 220.394531 C 302.324219 219.871094 302.472656 219.34375 302.773438 218.894531 C 303.222656 218.296875 303.972656 217.621094 304.648438 217.398438 C 305.398438 217.171875 307.046875 217.546875 307.046875 217.546875 " clip-rule="nonzero"></path></clipPath><clipPath id="0926aef428"><path d="M 319.621094 212.523438 L 338.449219 212.523438 L 338.449219 227.148438 L 319.621094 227.148438 Z M 319.621094 212.523438 " clip-rule="nonzero"></path></clipPath><clipPath id="7c1b9066c2"><path d="M 321.660156 213.125 C 324.507812 212.300781 326.230469 212.375 327.878906 213.125 C 330.578125 214.324219 335.675781 218.972656 337.171875 221.144531 C 338 222.269531 338.449219 223.167969 338.371094 224.066406 C 338.296875 224.964844 337.398438 226.242188 336.574219 226.691406 C 335.75 227.140625 334.25 227.140625 333.425781 226.691406 C 332.601562 226.242188 331.851562 224.964844 331.628906 224.066406 C 331.550781 223.394531 331.777344 222.566406 332.152344 221.96875 C 332.453125 221.367188 333.050781 220.769531 333.726562 220.542969 C 334.625 220.320312 336.125 220.46875 336.875 220.917969 C 337.546875 221.292969 338 221.96875 338.222656 222.644531 C 338.449219 223.242188 338.449219 224.140625 338.222656 224.816406 C 338 225.417969 337.472656 226.089844 336.949219 226.464844 C 336.347656 226.914062 335.675781 227.214844 334.851562 227.066406 C 333.203125 226.765625 329.605469 223.765625 328.03125 222.195312 C 326.90625 220.996094 326.605469 219.046875 325.632812 218.671875 C 324.808594 218.371094 323.609375 219.644531 322.785156 219.570312 C 321.960938 219.496094 321.136719 219.121094 320.609375 218.519531 C 320.011719 217.847656 319.5625 216.421875 319.710938 215.523438 C 319.859375 214.625 321.660156 213.125 321.660156 213.125 " clip-rule="nonzero"></path></clipPath><clipPath id="12f02e7b28"><path d="M 315.699219 231.671875 L 355.574219 231.671875 L 355.574219 266.902344 L 315.699219 266.902344 Z M 315.699219 231.671875 " clip-rule="nonzero"></path></clipPath><clipPath id="14c7703372"><path d="M 346.015625 240.480469 C 330.277344 243.179688 322.410156 247.601562 319.261719 247.375 C 317.914062 247.300781 317.011719 246.699219 316.414062 246.027344 C 315.964844 245.425781 315.738281 244.453125 315.8125 243.777344 C 315.8125 243.179688 315.8125 242.730469 316.339844 242.203125 C 317.539062 240.855469 322.632812 239.054688 326.15625 237.78125 C 329.902344 236.433594 334.175781 235.382812 338.371094 234.410156 C 342.71875 233.433594 349.464844 231.9375 351.714844 231.785156 C 352.539062 231.785156 352.835938 231.785156 353.363281 232.011719 C 353.960938 232.234375 354.785156 232.910156 355.160156 233.511719 C 355.535156 234.183594 355.683594 235.160156 355.460938 235.910156 C 355.3125 236.65625 354.9375 237.183594 354.113281 237.933594 C 352.3125 239.582031 346.46875 241.679688 343.246094 243.929688 C 340.171875 246.027344 337.171875 248.5 335.074219 251.046875 C 333.203125 253.222656 331.550781 256.367188 330.726562 258.167969 C 330.277344 259.21875 329.902344 259.890625 329.980469 260.714844 C 329.980469 261.691406 331.253906 262.738281 331.253906 263.640625 C 331.253906 264.3125 330.953125 265.0625 330.429688 265.585938 C 329.828125 266.1875 328.40625 266.785156 327.503906 266.785156 C 326.832031 266.710938 326.082031 266.335938 325.558594 265.8125 C 325.105469 265.363281 324.65625 264.6875 324.582031 263.9375 C 324.507812 263.039062 324.882812 261.613281 325.632812 260.941406 C 326.304688 260.339844 327.730469 259.890625 328.628906 260.117188 C 329.527344 260.339844 330.726562 261.316406 331.027344 262.214844 C 331.402344 263.039062 331.179688 264.539062 330.652344 265.289062 C 330.128906 266.113281 328.78125 266.710938 327.878906 266.785156 C 327.132812 266.863281 326.457031 266.636719 325.855469 266.113281 C 324.808594 265.0625 323.457031 262.289062 323.457031 260.117188 C 323.382812 257.417969 325.40625 253.445312 326.757812 250.972656 C 327.730469 249.097656 328.929688 247.824219 330.203125 246.324219 C 331.550781 244.828125 332.828125 243.554688 334.699219 242.054688 C 337.25 239.878906 341.371094 237.03125 344.445312 235.234375 C 346.992188 233.734375 349.988281 232.011719 351.714844 231.785156 C 352.6875 231.710938 353.511719 232.011719 354.113281 232.386719 C 354.5625 232.609375 354.9375 232.984375 355.160156 233.511719 C 355.460938 234.335938 355.535156 235.832031 355.234375 236.65625 C 354.859375 237.40625 354.484375 237.78125 353.4375 238.308594 C 350.4375 239.804688 339.496094 240.929688 333.578125 242.578125 C 328.628906 244.003906 322.785156 246.925781 320.085938 247.300781 C 318.960938 247.449219 318.363281 247.300781 317.6875 247.074219 C 317.164062 246.851562 316.789062 246.476562 316.414062 246.027344 C 316.113281 245.652344 315.890625 245.128906 315.8125 244.601562 C 315.738281 243.851562 315.964844 242.804688 316.339844 242.203125 C 316.5625 241.753906 316.789062 241.53125 317.460938 241.078125 C 319.261719 240.03125 324.582031 238.15625 328.554688 236.957031 C 333.050781 235.683594 339.871094 234.109375 343.09375 233.734375 C 344.742188 233.585938 345.792969 233.433594 346.839844 233.886719 C 347.742188 234.261719 348.867188 235.085938 349.164062 235.910156 C 349.464844 236.808594 349.316406 238.308594 348.789062 239.054688 C 348.265625 239.804688 346.015625 240.480469 346.015625 240.480469 " clip-rule="nonzero"></path></clipPath><clipPath id="e34e5922ba"><path d="M 322.089844 237.535156 L 341.109375 237.535156 L 341.109375 250.316406 L 322.089844 250.316406 Z M 322.089844 237.535156 " clip-rule="nonzero"></path></clipPath><clipPath id="e9ea39a652"><path d="M 326.757812 237.78125 C 340.921875 245.351562 341.070312 245.953125 341.070312 246.625 C 341.144531 247.300781 340.921875 248.125 340.546875 248.722656 C 340.171875 249.25 339.496094 249.773438 338.898438 250.074219 C 338.222656 250.296875 337.398438 250.375 336.722656 250.074219 C 335.898438 249.773438 334.773438 248.648438 334.476562 247.824219 C 334.25 247.152344 334.25 246.324219 334.550781 245.652344 C 334.925781 244.902344 336.125 243.851562 336.949219 243.554688 C 337.625 243.328125 338.449219 243.476562 339.046875 243.777344 C 339.722656 244.078125 340.394531 244.601562 340.695312 245.203125 C 340.996094 246.027344 341.070312 247.601562 340.695312 248.351562 C 340.472656 249.023438 339.796875 249.625 339.195312 249.921875 C 338.597656 250.222656 338.074219 250.375 337.023438 250.148438 C 334.402344 249.699219 324.808594 245.203125 322.933594 243.179688 C 322.257812 242.355469 322.109375 241.679688 322.109375 240.929688 C 322.109375 240.179688 322.484375 239.207031 323.007812 238.683594 C 323.535156 238.15625 324.433594 237.707031 325.105469 237.558594 C 325.707031 237.484375 326.757812 237.78125 326.757812 237.78125 " clip-rule="nonzero"></path></clipPath><clipPath id="e960b63c4d"><path d="M 331.507812 244 L 359.085938 244 L 359.085938 265.71875 L 331.507812 265.71875 Z M 331.507812 244 " clip-rule="nonzero"></path></clipPath><clipPath id="c3565293d7"><path d="M 352.164062 247.074219 C 354.410156 244.078125 355.910156 243.851562 356.734375 244.152344 C 357.632812 244.453125 358.609375 245.578125 358.90625 246.476562 C 359.132812 247.152344 359.207031 247.824219 358.683594 248.800781 C 356.882812 252.097656 340.472656 263.113281 337.023438 264.988281 C 336.050781 265.511719 335.675781 265.664062 334.925781 265.664062 C 334.25 265.664062 333.425781 265.4375 332.902344 264.988281 C 332.378906 264.613281 331.851562 263.863281 331.703125 263.265625 C 331.476562 262.589844 331.476562 261.765625 331.777344 261.089844 C 332.152344 260.265625 333.351562 259.292969 334.175781 258.992188 C 334.851562 258.765625 335.675781 258.84375 336.273438 259.21875 C 337.097656 259.667969 338.074219 260.789062 338.222656 261.691406 C 338.371094 262.664062 337.847656 264.089844 337.25 264.6875 C 336.800781 265.289062 335.972656 265.585938 335.300781 265.664062 C 334.625 265.738281 333.800781 265.585938 333.203125 265.210938 C 332.601562 264.835938 332.003906 264.238281 331.777344 263.5625 C 331.550781 262.738281 331.402344 261.691406 332.078125 260.414062 C 334.175781 256.742188 350.214844 245.351562 354.335938 244.226562 C 355.761719 243.851562 356.734375 244.078125 357.484375 244.527344 C 358.160156 244.902344 358.683594 245.726562 358.90625 246.476562 C 359.132812 247.226562 358.984375 248.351562 358.683594 249.097656 C 358.382812 249.921875 357.859375 250.824219 357.183594 251.273438 C 356.585938 251.722656 355.609375 251.945312 354.859375 251.945312 C 354.335938 251.871094 353.8125 251.722656 353.363281 251.421875 C 352.835938 250.972656 352.164062 250.222656 351.9375 249.472656 C 351.714844 248.722656 352.164062 247.074219 352.164062 247.074219 " clip-rule="nonzero"></path></clipPath><clipPath id="8e8ad6cda0"><path d="M 334.660156 243 L 364 243 L 364 281.160156 L 334.660156 281.160156 Z M 334.660156 243 " clip-rule="nonzero"></path></clipPath><clipPath id="854b059584"><path d="M 352.539062 243.628906 C 359.882812 249.472656 362.054688 252.097656 363.03125 253.96875 C 363.628906 255.246094 363.929688 256.292969 363.929688 257.644531 C 363.855469 259.140625 363.40625 261.164062 362.429688 262.363281 C 361.382812 263.640625 359.808594 264.3125 357.707031 264.914062 C 354.410156 265.960938 347.667969 266.1875 343.769531 266.1875 C 340.996094 266.113281 338 265.886719 336.648438 265.363281 C 335.972656 265.0625 335.675781 264.761719 335.375 264.3125 C 335 263.714844 334.625 262.738281 334.773438 261.988281 C 334.925781 261.089844 335.675781 259.816406 336.5 259.367188 C 337.324219 258.917969 338.671875 258.917969 339.648438 259.292969 C 340.621094 259.667969 341.144531 260.414062 342.195312 261.539062 C 344.445312 264.164062 350.289062 272.855469 351.714844 275.480469 C 352.238281 276.378906 352.539062 276.753906 352.539062 277.429688 C 352.613281 278.101562 352.539062 278.925781 352.089844 279.527344 C 351.5625 280.203125 350.214844 281.027344 349.316406 281.101562 C 348.640625 281.175781 347.816406 280.953125 347.292969 280.5 C 346.617188 279.902344 345.792969 278.628906 345.867188 277.652344 C 345.867188 276.753906 346.691406 275.40625 347.367188 274.878906 C 347.964844 274.429688 348.714844 274.28125 349.464844 274.355469 C 350.289062 274.503906 351.636719 275.332031 352.164062 276.078125 C 352.539062 276.679688 352.613281 277.503906 352.539062 278.179688 C 352.460938 278.851562 352.089844 279.601562 351.636719 280.125 C 351.113281 280.578125 350.4375 281.027344 349.691406 281.101562 C 348.789062 281.101562 347.890625 280.875 346.691406 279.976562 C 343.917969 277.878906 336.800781 267.234375 335.375 264.3125 C 334.925781 263.265625 334.773438 262.664062 334.773438 261.988281 C 334.773438 261.390625 335 260.941406 335.300781 260.492188 C 335.75 259.890625 336.199219 259.367188 337.25 259.066406 C 340.023438 258.167969 350.8125 260.191406 353.886719 258.84375 C 355.3125 258.242188 356.585938 257.191406 356.585938 256.144531 C 356.507812 254.195312 349.613281 250.597656 348.265625 248.800781 C 347.667969 247.898438 347.292969 247.300781 347.367188 246.550781 C 347.367188 245.652344 348.039062 244.300781 348.714844 243.703125 C 349.316406 243.253906 350.363281 243.101562 351.039062 243.101562 C 351.636719 243.101562 352.539062 243.628906 352.539062 243.628906 " clip-rule="nonzero"></path></clipPath><clipPath id="28083600cb"><path d="M 352.757812 263.484375 L 403 263.484375 L 403 304.339844 L 352.757812 304.339844 Z M 352.757812 263.484375 " clip-rule="nonzero"></path></clipPath><clipPath id="219c8cb658"><path d="M 361.007812 282.449219 C 356.660156 286.273438 356.210938 286.273438 355.683594 286.199219 C 355.011719 286.046875 354.035156 285.671875 353.585938 285.074219 C 353.0625 284.398438 352.6875 283.125 352.835938 282 C 353.0625 280.578125 354.1875 279.003906 355.386719 277.203125 C 357.257812 274.582031 360.558594 270.535156 363.328125 268.359375 C 365.578125 266.5625 368.203125 265.289062 370.226562 264.464844 C 371.722656 263.9375 372.921875 263.414062 374.195312 263.5625 C 375.394531 263.640625 376.746094 264.089844 377.496094 264.914062 C 378.394531 265.960938 378.917969 267.609375 378.769531 269.484375 C 378.46875 272.707031 373.746094 278.703125 372.398438 282.523438 C 371.425781 285.296875 371.050781 287.472656 370.675781 290.019531 C 370.375 292.566406 370.148438 297.738281 370.449219 297.738281 C 370.675781 297.8125 370.75 294.964844 371.648438 293.765625 C 372.921875 292.191406 375.394531 291.292969 378.09375 289.792969 C 382.441406 287.472656 392.707031 281.027344 395.78125 281.777344 C 397.207031 282.074219 398.554688 284.175781 398.328125 284.773438 C 398.105469 285.296875 396.230469 285.597656 395.257812 285.449219 C 394.359375 285.222656 393.082031 284.472656 392.632812 283.648438 C 392.183594 282.824219 392.257812 281.324219 392.632812 280.5 C 392.933594 279.828125 393.53125 279.300781 394.207031 279.003906 C 394.808594 278.703125 395.632812 278.628906 396.304688 278.777344 C 396.980469 278.925781 397.730469 279.226562 398.179688 279.828125 C 398.703125 280.578125 399.152344 282 398.855469 282.898438 C 398.628906 283.800781 397.582031 284.921875 396.753906 285.222656 C 395.855469 285.523438 394.359375 285.222656 393.609375 284.773438 C 393.007812 284.398438 392.558594 283.722656 392.410156 282.976562 C 392.183594 282.148438 392.558594 280.578125 393.007812 279.902344 C 393.457031 279.300781 394.058594 279.003906 394.882812 278.777344 C 396.007812 278.402344 398.179688 278.027344 399.453125 278.328125 C 400.652344 278.628906 401.851562 279.300781 402.375 280.277344 C 402.976562 281.324219 403.199219 283.347656 402.675781 284.625 C 402.152344 285.898438 400.953125 286.496094 399.152344 287.621094 C 395.183594 290.246094 382.890625 294.214844 378.167969 297.4375 C 375.472656 299.3125 374.121094 301.859375 372.324219 302.984375 C 371.199219 303.734375 370.148438 304.257812 369.101562 304.183594 C 367.902344 304.183594 366.402344 303.511719 365.503906 302.609375 C 364.527344 301.636719 364.003906 299.914062 363.703125 298.113281 C 363.253906 295.640625 363.480469 292.34375 364.003906 289.121094 C 364.605469 285.148438 366.550781 279.078125 367.75 276.078125 C 368.351562 274.429688 368.726562 273.230469 369.625 272.332031 C 370.449219 271.507812 372.699219 270.683594 372.773438 270.757812 C 372.773438 270.832031 367.601562 273.457031 365.277344 275.628906 C 362.429688 278.328125 359.582031 285.074219 357.257812 286.046875 C 356.136719 286.496094 354.9375 286.046875 354.1875 285.597656 C 353.511719 285.222656 352.988281 284.398438 352.835938 283.648438 C 352.6875 282.898438 352.761719 282.074219 353.136719 281.25 C 353.585938 280.203125 355.011719 278.703125 355.984375 277.953125 C 356.660156 277.429688 357.335938 276.980469 358.082031 276.902344 C 358.832031 276.828125 359.808594 276.980469 360.40625 277.503906 C 361.15625 278.027344 361.832031 279.378906 361.90625 280.277344 C 361.90625 281.027344 361.007812 282.449219 361.007812 282.449219 " clip-rule="nonzero"></path></clipPath><clipPath id="a0f3549247"><path d="M 390.183594 309.703125 L 431.957031 309.703125 L 431.957031 348.503906 L 390.183594 348.503906 Z M 390.183594 309.703125 " clip-rule="nonzero"></path></clipPath><clipPath id="64dfedda35"><path d="M 398.929688 325.917969 C 395.332031 330.339844 390.910156 328.765625 390.386719 327.566406 C 390.011719 326.742188 390.910156 325.46875 391.734375 324.269531 C 393.234375 322.246094 396.605469 319.324219 399.828125 317.074219 C 403.726562 314.378906 410.996094 309.804688 413.917969 309.730469 C 415.265625 309.730469 416.242188 310.328125 416.765625 311.078125 C 417.367188 311.753906 417.664062 312.953125 417.367188 314.152344 C 416.765625 316.175781 412.34375 318.949219 410.546875 321.347656 C 408.972656 323.371094 406.273438 326.445312 406.875 327.492188 C 407.546875 328.617188 412.71875 328.015625 415.417969 327.34375 C 418.117188 326.667969 420.8125 324.945312 423.0625 323.519531 C 425.011719 322.246094 426.734375 319.699219 428.15625 319.398438 C 429.058594 319.25 429.882812 319.546875 430.480469 320 C 431.082031 320.449219 431.605469 321.273438 431.832031 322.023438 C 431.980469 322.769531 431.832031 323.519531 431.457031 324.34375 C 430.929688 325.84375 429.808594 327.492188 427.933594 329.515625 C 424.1875 333.636719 410.546875 342.855469 408.148438 345.78125 C 407.398438 346.605469 407.546875 347.203125 407.023438 347.652344 C 406.5 348.101562 405.75 348.476562 405.074219 348.476562 C 404.175781 348.476562 402.75 347.804688 402.152344 347.203125 C 401.703125 346.679688 401.402344 345.855469 401.476562 345.179688 C 401.476562 344.28125 402.152344 342.855469 402.902344 342.332031 C 403.652344 341.808594 405.148438 341.582031 406.050781 341.957031 C 406.875 342.257812 407.847656 343.382812 408.074219 344.28125 C 408.296875 345.253906 407.847656 346.679688 407.324219 347.351562 C 406.875 347.953125 406.050781 348.328125 405.449219 348.402344 C 404.773438 348.550781 403.875 348.476562 403.277344 348.101562 C 402.527344 347.652344 401.476562 346.605469 401.476562 345.480469 C 401.402344 343.90625 403.351562 341.582031 405.449219 339.183594 C 409.347656 334.835938 422.386719 326.667969 425.160156 323.144531 C 426.210938 321.796875 425.984375 320.523438 426.660156 319.921875 C 427.109375 319.546875 427.632812 319.398438 428.15625 319.398438 C 428.832031 319.398438 429.882812 319.546875 430.480469 320 C 431.082031 320.449219 431.605469 321.347656 431.832031 322.023438 C 431.980469 322.546875 431.980469 322.996094 431.753906 323.59375 C 431.304688 324.792969 429.808594 326.667969 428.082031 328.09375 C 425.535156 330.191406 420.738281 332.8125 417.214844 333.863281 C 414.066406 334.761719 410.246094 334.761719 407.921875 334.613281 C 406.421875 334.613281 405.375 334.460938 404.25 334.011719 C 403.125 333.5625 401.777344 332.8125 401.101562 331.765625 C 400.351562 330.566406 400.128906 328.617188 400.203125 327.042969 C 400.277344 325.617188 400.726562 324.34375 401.476562 322.769531 C 402.527344 320.597656 404.699219 317.824219 406.5 315.726562 C 408.296875 313.703125 410.996094 311.003906 412.417969 310.253906 C 413.019531 309.878906 413.394531 309.804688 413.917969 309.730469 C 414.441406 309.730469 415.042969 309.804688 415.492188 310.03125 C 416.167969 310.40625 416.917969 311.078125 417.214844 311.753906 C 417.515625 312.429688 417.589844 313.402344 417.367188 314.152344 C 417.140625 314.828125 416.765625 315.203125 415.867188 316.027344 C 413.167969 318.347656 401.175781 326.667969 396.832031 327.117188 C 394.808594 327.34375 392.558594 326.367188 392.109375 325.542969 C 391.808594 324.871094 392.484375 323.746094 393.007812 323.144531 C 393.457031 322.546875 394.359375 322.097656 395.03125 321.945312 C 395.632812 321.796875 396.15625 321.796875 396.679688 322.023438 C 397.28125 322.320312 398.179688 322.921875 398.554688 323.519531 C 398.929688 324.195312 398.929688 325.917969 398.929688 325.917969 " clip-rule="nonzero"></path></clipPath><clipPath id="0693607c67"><path d="M 412.167969 335.066406 L 444 335.066406 L 444 359.671875 L 412.167969 359.671875 Z M 412.167969 335.066406 " clip-rule="nonzero"></path></clipPath><clipPath id="706bed7414"><path d="M 433.03125 346.679688 C 433.703125 343.757812 431.753906 342.480469 430.554688 342.03125 C 429.355469 341.65625 428.15625 341.808594 426.882812 341.957031 C 425.535156 342.183594 423.886719 342.558594 422.613281 343.230469 C 421.414062 343.90625 419.839844 344.804688 419.316406 345.929688 C 418.863281 346.980469 419.015625 348.851562 419.6875 349.828125 C 420.289062 350.800781 421.636719 351.324219 423.0625 351.773438 C 425.011719 352.449219 428.53125 352.824219 430.632812 352.75 C 432.054688 352.75 433.328125 352.75 434.378906 352.074219 C 435.429688 351.402344 436.253906 349.902344 436.703125 348.628906 C 437.152344 347.351562 437.300781 345.78125 437.078125 344.355469 C 436.851562 342.707031 435.277344 340.757812 434.976562 339.484375 C 434.828125 338.585938 434.753906 337.984375 435.054688 337.3125 C 435.429688 336.484375 436.476562 335.4375 437.375 335.210938 C 438.277344 334.988281 439.773438 335.363281 440.449219 335.960938 C 441.125 336.5625 441.574219 338.058594 441.574219 338.882812 C 441.5 339.632812 441.125 340.382812 440.597656 340.832031 C 440.148438 341.359375 439.398438 341.734375 438.652344 341.808594 C 437.828125 341.882812 436.328125 341.433594 435.726562 340.757812 C 435.128906 340.007812 434.753906 338.585938 434.976562 337.683594 C 435.203125 336.785156 436.253906 335.660156 437.078125 335.285156 C 437.675781 334.988281 438.574219 335.0625 439.175781 335.210938 C 439.851562 335.4375 440.375 335.960938 440.972656 336.484375 C 441.648438 337.160156 442.246094 338.058594 442.773438 339.035156 C 443.296875 340.160156 443.746094 341.359375 443.898438 342.855469 C 444.046875 345.105469 443.671875 348.777344 442.996094 351.027344 C 442.472656 352.75 441.722656 354.097656 440.675781 355.296875 C 439.699219 356.496094 438.425781 357.546875 437 358.296875 C 435.652344 358.96875 434.152344 359.417969 432.355469 359.570312 C 429.730469 359.792969 425.535156 359.34375 422.910156 358.671875 C 420.886719 358.21875 419.316406 357.695312 417.816406 356.722656 C 416.242188 355.824219 414.667969 354.472656 413.695312 352.972656 C 412.792969 351.550781 412.269531 349.601562 412.195312 347.953125 C 412.121094 346.453125 412.417969 344.878906 413.019531 343.53125 C 413.695312 342.105469 414.816406 340.757812 415.941406 339.707031 C 417.066406 338.585938 418.488281 337.761719 419.914062 337.085938 C 421.414062 336.410156 422.835938 335.8125 424.636719 335.4375 C 426.960938 335.0625 430.257812 335.0625 432.804688 335.4375 C 435.203125 335.8125 437.976562 336.335938 439.476562 337.460938 C 440.523438 338.285156 441.199219 339.484375 441.574219 340.609375 C 441.875 341.734375 441.648438 342.929688 441.347656 344.28125 C 440.824219 346.152344 439.398438 349.675781 438.199219 350.726562 C 437.453125 351.324219 436.628906 351.476562 435.878906 351.476562 C 435.128906 351.402344 434.230469 350.949219 433.703125 350.425781 C 433.328125 350.050781 433.03125 349.601562 432.878906 349.078125 C 432.730469 348.402344 433.03125 346.679688 433.03125 346.679688 " clip-rule="nonzero"></path></clipPath><clipPath id="d964669a05"><path d="M 428.800781 349.675781 L 454.832031 349.675781 L 454.832031 367.304688 L 428.800781 367.304688 Z M 428.800781 349.675781 " clip-rule="nonzero"></path></clipPath><clipPath id="8a937b0bea"><path d="M 451.015625 356.648438 C 448.167969 356.648438 446.820312 357.695312 445.097656 358.820312 C 442.097656 360.695312 435.726562 366.316406 433.253906 367.0625 C 432.355469 367.363281 431.753906 367.214844 431.082031 366.988281 C 430.480469 366.765625 429.730469 366.316406 429.433594 365.714844 C 428.984375 364.890625 428.832031 363.390625 429.132812 362.566406 C 429.355469 361.816406 429.882812 361.21875 430.554688 360.917969 C 431.304688 360.542969 432.878906 360.394531 433.703125 360.769531 C 434.527344 361.21875 435.429688 362.417969 435.578125 363.316406 C 435.726562 364.292969 435.203125 365.714844 434.527344 366.316406 C 433.855469 366.914062 432.355469 367.363281 431.457031 367.140625 C 430.554688 366.914062 429.433594 365.941406 429.058594 365.039062 C 428.757812 364.140625 428.757812 363.09375 429.507812 361.894531 C 431.082031 359.269531 439.101562 354.097656 442.996094 352.074219 C 445.621094 350.726562 448.167969 349.828125 450.117188 349.75 C 451.390625 349.675781 452.589844 349.976562 453.414062 350.574219 C 454.015625 351.027344 454.539062 351.773438 454.765625 352.523438 C 454.914062 353.273438 454.765625 354.25 454.390625 354.921875 C 454.089844 355.597656 453.265625 356.195312 452.589844 356.496094 C 452.066406 356.722656 451.015625 356.648438 451.015625 356.648438 " clip-rule="nonzero"></path></clipPath><clipPath id="a9cd2258dd"><path d="M 428.265625 345.542969 L 465.417969 345.542969 L 465.417969 381.703125 L 428.265625 381.703125 Z M 428.265625 345.542969 " clip-rule="nonzero"></path></clipPath><clipPath id="9c96b94911"><path d="M 445.921875 345.628906 C 449.816406 345.554688 452.140625 346.304688 453.714844 347.128906 C 455.289062 347.953125 456.414062 349.003906 457.761719 350.425781 C 459.785156 352.375 462.78125 355.972656 463.980469 358.296875 C 464.808594 359.871094 465.179688 361.144531 465.257812 362.640625 C 465.332031 364.140625 465.179688 366.089844 464.355469 367.363281 C 463.382812 368.714844 461.132812 369.6875 459.410156 370.210938 C 457.761719 370.738281 455.964844 370.585938 454.164062 370.511719 C 452.214844 370.4375 450.492188 370.136719 448.09375 369.613281 C 444.347656 368.863281 434.152344 366.316406 434.152344 366.089844 C 434.230469 365.941406 437 365.941406 438.425781 366.539062 C 440.375 367.4375 442.023438 370.136719 444.273438 371.636719 C 446.746094 373.359375 451.316406 374.410156 452.589844 376.058594 C 453.339844 377.03125 453.414062 378.304688 453.265625 379.128906 C 453.113281 379.878906 452.589844 380.554688 452.066406 380.929688 C 451.542969 381.378906 450.71875 381.605469 450.042969 381.605469 C 449.367188 381.605469 448.542969 381.378906 448.019531 380.929688 C 447.417969 380.554688 446.894531 379.878906 446.746094 379.128906 C 446.59375 378.304688 446.820312 376.808594 447.417969 376.058594 C 448.019531 375.382812 449.519531 374.859375 450.417969 374.933594 C 451.089844 374.933594 451.839844 375.308594 452.367188 375.832031 C 452.816406 376.28125 453.265625 377.03125 453.339844 377.707031 C 453.488281 378.382812 453.414062 379.207031 453.039062 379.804688 C 452.515625 380.554688 451.464844 381.453125 450.417969 381.605469 C 448.917969 381.828125 446.820312 380.855469 444.945312 379.953125 C 442.847656 378.980469 440.675781 377.558594 438.425781 375.683594 C 435.578125 373.359375 431.082031 369.085938 429.582031 366.539062 C 428.757812 365.117188 428.15625 363.917969 428.457031 362.71875 C 428.832031 361.441406 430.257812 359.644531 432.128906 359.121094 C 435.578125 358.144531 444.496094 362.269531 449.367188 363.015625 C 452.890625 363.542969 457.835938 364.816406 458.585938 363.765625 C 459.109375 363.09375 458.0625 361.441406 457.238281 360.167969 C 456.113281 358.296875 453.488281 355.523438 451.914062 354.097656 C 450.792969 353.199219 449.890625 352.375 448.84375 352.074219 C 447.867188 351.851562 446.667969 352.523438 445.695312 352.300781 C 444.945312 352.148438 444.121094 351.699219 443.671875 351.175781 C 443.148438 350.574219 442.847656 349.601562 442.847656 348.925781 C 442.847656 348.328125 442.921875 347.804688 443.296875 347.351562 C 443.746094 346.679688 445.921875 345.628906 445.921875 345.628906 " clip-rule="nonzero"></path></clipPath><clipPath id="13c0d9897d"><path d="M 446.785156 372.328125 L 473.910156 372.328125 L 473.910156 404.570312 L 446.785156 404.570312 Z M 446.785156 372.328125 " clip-rule="nonzero"></path></clipPath><clipPath id="70d909f6f8"><path d="M 471.328125 379.054688 C 459.335938 384.375 456.9375 386.175781 455.4375 387.523438 C 454.464844 388.5 453.113281 389.171875 453.265625 390.222656 C 453.714844 392.472656 466.15625 396.292969 468.179688 398.765625 C 469.078125 399.890625 469.304688 400.863281 469.152344 401.839844 C 469.003906 402.738281 468.03125 403.9375 467.203125 404.3125 C 466.378906 404.6875 464.808594 404.460938 464.058594 404.085938 C 463.382812 403.789062 462.933594 403.039062 462.707031 402.4375 C 462.410156 401.765625 462.332031 400.941406 462.558594 400.265625 C 462.933594 399.441406 463.980469 398.316406 464.808594 398.015625 C 465.480469 397.71875 466.304688 397.792969 466.980469 398.015625 C 467.578125 398.242188 468.328125 398.691406 468.628906 399.367188 C 469.078125 400.117188 469.304688 401.613281 468.929688 402.515625 C 468.628906 403.339844 467.503906 404.3125 466.53125 404.539062 C 465.179688 404.761719 463.457031 403.710938 461.507812 402.886719 C 458.511719 401.539062 452.964844 398.542969 450.566406 396.742188 C 449.144531 395.695312 448.242188 395.167969 447.644531 393.894531 C 446.894531 392.472656 446.667969 389.773438 446.96875 388.199219 C 447.195312 387 447.71875 386.25 448.542969 385.125 C 449.816406 383.476562 451.917969 381.527344 454.390625 379.804688 C 457.6875 377.480469 463.90625 374.257812 466.90625 373.136719 C 468.402344 372.609375 469.453125 372.234375 470.503906 372.386719 C 471.550781 372.535156 472.75 373.058594 473.277344 373.808594 C 473.800781 374.632812 474.023438 376.058594 473.648438 376.957031 C 473.351562 377.78125 471.328125 379.054688 471.328125 379.054688 " clip-rule="nonzero"></path></clipPath><clipPath id="b9ab4a23e0"><path d="M 455.789062 377.480469 L 477.234375 377.480469 L 477.234375 396.222656 L 455.789062 396.222656 Z M 455.789062 377.480469 " clip-rule="nonzero"></path></clipPath><clipPath id="7fac0651cd"><path d="M 458.0625 377.480469 C 460.835938 377.707031 462.332031 378.53125 463.980469 379.65625 C 467.203125 381.902344 475.300781 388.574219 476.722656 391.046875 C 477.246094 391.871094 477.246094 392.472656 477.171875 393.144531 C 477.097656 393.820312 476.722656 394.570312 476.273438 395.09375 C 475.824219 395.617188 475.074219 395.992188 474.398438 396.144531 C 473.726562 396.21875 472.902344 396.144531 472.300781 395.769531 C 471.550781 395.320312 470.578125 394.121094 470.503906 393.144531 C 470.351562 392.246094 471.027344 390.820312 471.625 390.222656 C 472.152344 389.699219 472.902344 389.398438 473.648438 389.398438 C 474.476562 389.472656 475.898438 389.996094 476.5 390.746094 C 477.097656 391.496094 477.324219 392.996094 477.023438 393.820312 C 476.722656 394.71875 475.675781 395.769531 474.773438 396.066406 C 473.875 396.292969 472.902344 395.992188 471.625 395.394531 C 469.304688 394.195312 464.507812 389.699219 462.558594 387.449219 C 461.359375 386.101562 461.132812 384.375 460.234375 383.851562 C 459.484375 383.476562 458.4375 384.003906 457.835938 383.777344 C 457.3125 383.550781 456.863281 383.328125 456.488281 382.804688 C 456.113281 382.128906 455.664062 380.628906 455.886719 379.730469 C 456.113281 378.832031 458.0625 377.480469 458.0625 377.480469 " clip-rule="nonzero"></path></clipPath><clipPath id="689b632058"><path d="M 463.320312 370.222656 L 527.855469 370.222656 L 527.855469 427.179688 L 463.320312 427.179688 Z M 463.320312 370.222656 " clip-rule="nonzero"></path></clipPath><clipPath id="a6b3f3b0e0"><path d="M 468.402344 370.585938 C 484.59375 382.128906 491.789062 388.5 497.183594 393.445312 C 501.832031 397.71875 505.726562 401.390625 509.847656 405.738281 C 514.046875 410.082031 518.992188 417.953125 521.992188 419.601562 C 523.265625 420.351562 524.390625 419.75 525.289062 420.125 C 526.039062 420.425781 526.636719 420.800781 527.085938 421.398438 C 527.460938 421.925781 527.761719 422.675781 527.6875 423.421875 C 527.613281 424.324219 526.863281 425.671875 526.1875 426.195312 C 525.589844 426.644531 524.761719 426.796875 524.089844 426.722656 C 523.414062 426.644531 522.589844 426.347656 522.066406 425.898438 C 521.617188 425.445312 521.089844 424.699219 521.015625 424.023438 C 520.941406 423.125 521.242188 421.625 521.914062 420.949219 C 522.589844 420.351562 524.089844 419.976562 524.914062 420.050781 C 525.664062 420.125 526.414062 420.5 526.863281 421.101562 C 527.386719 421.773438 527.761719 423.273438 527.613281 424.171875 C 527.460938 424.847656 527.160156 425.523438 526.488281 425.972656 C 525.214844 426.722656 522.214844 427.695312 519.816406 426.796875 C 515.46875 425.222656 509.773438 415.40625 504.976562 410.457031 C 500.78125 406.035156 497.257812 402.664062 492.6875 398.464844 C 487.441406 393.671875 480.320312 387.300781 475.074219 383.328125 C 471.175781 380.328125 466.082031 377.929688 464.433594 375.984375 C 463.757812 375.234375 463.457031 374.632812 463.382812 373.882812 C 463.308594 373.136719 463.609375 372.160156 464.058594 371.5625 C 464.433594 370.960938 465.332031 370.4375 466.007812 370.285156 C 466.753906 370.136719 468.402344 370.585938 468.402344 370.585938 " clip-rule="nonzero"></path></clipPath></defs><g clip-path="url(#adfd9c03e3)"><path fill="#000000" d="M 38.046875 0.855469 C 24.410156 4.503906 14.015625 12.34375 6.921875 24.429688 C 2.527344 31.871094 0.078125 40.414062 0.078125 48.554688 C 0.078125 53.746094 0.925781 57.792969 3.175781 63.785156 C 4.722656 67.882812 5.023438 68.179688 11.570312 74.773438 C 17.8125 80.96875 20.363281 83.613281 31.054688 95 C 33.101562 97.199219 37.398438 101.695312 40.546875 104.992188 C 58.183594 123.371094 57.632812 122.71875 57.382812 124.417969 C 57.285156 125.269531 56.335938 129.113281 55.335938 132.910156 C 54.335938 136.804688 53.535156 141.101562 53.535156 142.648438 C 53.535156 144.195312 53.285156 146.992188 52.988281 148.941406 C 52.386719 153.085938 53.136719 164.472656 54.386719 169.867188 C 54.785156 171.816406 55.285156 174.8125 55.433594 176.609375 C 55.535156 178.40625 55.886719 180.355469 56.183594 180.90625 C 56.785156 182.054688 59.78125 185.949219 69.625 198.484375 C 73.570312 203.429688 78.117188 209.273438 79.765625 211.421875 C 81.414062 213.519531 84.464844 217.414062 86.511719 220.0625 C 88.609375 222.707031 93.457031 228.851562 97.253906 233.796875 C 101.101562 238.691406 105.347656 244.085938 106.644531 245.78125 C 107.996094 247.429688 110.242188 250.378906 111.691406 252.324219 C 115.289062 257.070312 121.136719 262.515625 125.382812 265.011719 C 129.878906 267.707031 136.375 270.253906 141.621094 271.402344 C 147.816406 272.753906 160.804688 272.601562 168.449219 271.105469 C 175.644531 269.707031 183.988281 266.957031 191.429688 263.5625 C 199.425781 259.917969 198.976562 259.964844 202.074219 263.113281 C 203.523438 264.613281 208.917969 270.207031 214.113281 275.550781 C 225.605469 287.386719 235.898438 297.925781 244.890625 307.265625 C 248.636719 311.109375 259.730469 322.546875 269.621094 332.734375 C 279.515625 342.875 290.503906 354.261719 294.101562 357.957031 C 297.648438 361.652344 304.894531 369.042969 310.089844 374.4375 C 315.335938 379.78125 322.628906 387.324219 326.378906 391.167969 C 330.125 395.015625 341.367188 406.652344 351.457031 416.992188 C 370.144531 436.320312 371.59375 437.71875 373.890625 438.917969 C 374.589844 439.316406 377.988281 441.863281 381.386719 444.609375 C 384.78125 447.40625 390.578125 452 394.277344 454.847656 C 409.613281 466.683594 419.058594 475.574219 430.25 488.808594 C 439.140625 499.25 442.390625 502.34375 446.785156 504.492188 C 449.433594 505.742188 451.28125 506.289062 452.832031 506.289062 C 456.679688 506.289062 456.777344 506.492188 456.226562 514.53125 C 455.730469 521.222656 454.929688 526.519531 453.429688 533.011719 C 450.332031 546.394531 448.585938 553.789062 447.984375 555.484375 C 447.636719 556.585938 446.285156 560.828125 444.988281 564.976562 C 443.6875 569.070312 442.140625 573.914062 441.488281 575.714844 C 440.839844 577.511719 439.742188 580.65625 439.042969 582.707031 C 438.390625 584.753906 437.042969 588.699219 436.09375 591.445312 C 435.144531 594.191406 433.695312 598.6875 432.796875 601.433594 C 431.898438 604.179688 430.597656 607.675781 429.898438 609.175781 C 427.75 613.820312 426.25 618.515625 424.953125 624.707031 C 423.304688 632.648438 423.253906 646.332031 424.753906 653.625 C 429 673.601562 439.042969 686.789062 453.980469 691.882812 C 460.824219 694.179688 470.515625 693.53125 476.761719 690.335938 C 488.804688 684.140625 497.046875 672.703125 501.394531 656.371094 C 502.542969 651.925781 503.691406 643.1875 503.691406 638.492188 C 503.691406 634.546875 502.09375 620.664062 501.492188 619.761719 C 501.34375 619.515625 500.992188 617.066406 500.746094 614.371094 C 499.84375 605.730469 498.195312 596.238281 496.246094 588.449219 C 495.699219 586.25 494.199219 579.609375 492.949219 573.714844 C 490.601562 562.828125 488.554688 554.285156 485.707031 543.5 C 483.15625 533.859375 481.160156 526.167969 480.660156 523.820312 C 480.410156 522.574219 480.011719 520.875 479.710938 520.074219 C 479.460938 519.226562 478.8125 516.628906 478.210938 514.28125 C 477.660156 511.933594 476.414062 507.4375 475.414062 504.292969 C 474.464844 501.148438 473.316406 497.351562 472.914062 495.902344 L 472.214844 493.207031 L 474.414062 490.410156 C 478.261719 485.515625 479.210938 482.867188 479.210938 476.972656 C 479.210938 469.28125 477.910156 465.984375 470.816406 455.597656 C 462.324219 443.160156 451.730469 426.53125 451.730469 425.632812 C 451.730469 425.179688 441.238281 407.851562 438.59375 403.90625 C 432.847656 395.363281 427.949219 389.523438 416.808594 377.933594 C 405.71875 366.449219 389.828125 349.765625 381.285156 340.726562 C 379.238281 338.527344 373.242188 332.234375 368.046875 326.742188 C 362.800781 321.25 356.753906 314.855469 354.554688 312.507812 C 350.710938 308.363281 347.859375 305.367188 337.269531 294.277344 C 334.371094 291.230469 330.074219 286.738281 327.777344 284.289062 C 322.332031 278.496094 305.492188 260.765625 294.851562 249.578125 C 290.304688 244.785156 282.660156 236.691406 277.863281 231.597656 C 273.070312 226.503906 266.773438 219.863281 263.824219 216.863281 C 256.480469 209.273438 254.882812 207.375 254.882812 206.375 C 254.882812 205.878906 256.082031 203.082031 257.582031 200.183594 C 263.476562 188.597656 266.722656 178.957031 268.621094 167.21875 C 269.921875 159.429688 269.472656 147.792969 267.671875 140.449219 C 264.625 128.265625 258.429688 119.324219 246.886719 110.484375 C 245.089844 109.136719 236.195312 101.945312 227.105469 94.503906 C 188.484375 62.988281 184.1875 59.492188 182.988281 58.691406 C 182.289062 58.191406 180.789062 57.792969 179.691406 57.792969 C 178.589844 57.792969 176.242188 57.34375 174.445312 56.746094 C 166.800781 54.347656 161.605469 53.597656 152.210938 53.597656 C 141.570312 53.546875 136.171875 54.347656 125.382812 57.59375 L 121.035156 58.941406 L 104.449219 42.011719 C 72.574219 9.496094 68.125 5.253906 64.527344 3.503906 C 58.882812 0.808594 56.335938 0.257812 48.789062 0.0585938 C 42.945312 -0.09375 41.195312 0.0078125 38.050781 0.855469 Z M 170.398438 85.511719 C 183.136719 98.246094 191.980469 107.386719 191.832031 107.789062 C 191.679688 108.1875 191.03125 108.488281 190.332031 108.488281 C 189.382812 108.488281 186.835938 106.289062 179.890625 99.695312 C 174.84375 94.851562 169.25 89.558594 167.449219 87.960938 C 165.699219 86.3125 160.304688 81.265625 155.457031 76.722656 C 150.664062 72.175781 145.867188 67.730469 144.867188 66.832031 C 143.867188 65.933594 143.167969 64.886719 143.316406 64.535156 C 143.566406 63.785156 146.066406 63.335938 147.714844 63.6875 C 148.265625 63.785156 158.457031 73.625 170.398438 85.511719 Z M 132.425781 68.832031 C 133.425781 69.730469 137.273438 73.277344 140.96875 76.722656 C 144.667969 80.167969 149.164062 84.363281 150.960938 86.011719 C 152.761719 87.660156 156.707031 91.355469 159.707031 94.300781 C 167.101562 101.394531 174.195312 108.085938 176.890625 110.433594 C 178.640625 111.984375 178.992188 112.53125 178.589844 113.179688 C 177.191406 115.429688 176.292969 114.679688 152.3125 90.957031 C 139.472656 78.320312 129.128906 67.78125 129.328125 67.632812 C 129.929688 66.984375 130.578125 67.28125 132.425781 68.832031 Z M 142.367188 95.25 C 155.609375 108.4375 166.449219 119.375 166.449219 119.574219 C 166.449219 120.023438 161.453125 123.417969 161.203125 123.121094 C 158.507812 120.574219 136.273438 99.148438 129.726562 92.753906 C 124.78125 87.910156 118.738281 82.066406 116.339844 79.769531 C 113.941406 77.472656 112.042969 75.222656 112.09375 74.875 C 112.242188 74.175781 116.636719 71.429688 117.738281 71.328125 C 118.039062 71.328125 129.078125 82.066406 142.367188 95.25 Z M 109.195312 86.609375 C 112.542969 89.855469 119.1875 96.300781 123.984375 100.996094 C 128.777344 105.691406 137.171875 113.730469 142.617188 118.925781 C 148.015625 124.117188 152.460938 128.714844 152.460938 129.164062 C 152.460938 130.113281 143.367188 138.203125 142.320312 138.203125 C 141.96875 138.203125 140.019531 136.457031 138.023438 134.308594 C 136.023438 132.210938 130.429688 126.417969 125.582031 121.472656 C 94.953125 90.257812 93.304688 88.457031 93.90625 87.460938 C 94.554688 86.3125 101.601562 80.765625 102.449219 80.765625 C 102.847656 80.765625 105.898438 83.414062 109.195312 86.609375 Z M 87.910156 97.097656 C 88.558594 97.898438 94.753906 104.242188 101.648438 111.234375 C 108.59375 118.277344 117.585938 127.464844 121.683594 131.710938 C 125.832031 135.957031 130.628906 140.949219 132.328125 142.75 L 135.523438 145.996094 L 132.625 149.289062 C 131.027344 151.089844 128.179688 154.734375 126.230469 157.332031 C 124.332031 159.980469 122.382812 162.125 121.933594 162.125 C 121.484375 162.175781 118.6875 159.527344 115.6875 156.28125 C 112.691406 153.085938 107.445312 147.492188 103.949219 143.945312 C 100.5 140.351562 96.003906 135.65625 93.957031 133.457031 C 91.90625 131.261719 86.660156 125.71875 82.363281 121.121094 C 78.066406 116.578125 74.519531 112.480469 74.519531 112.082031 C 74.519531 110.382812 84.960938 95.75 86.160156 95.75 C 86.460938 95.75 87.261719 96.351562 87.910156 97.097656 Z M 225.65625 114.230469 C 234.296875 115.726562 236.648438 116.628906 242.691406 120.574219 C 248.238281 124.117188 251.835938 128.265625 254.882812 134.457031 C 257.679688 140.152344 259.429688 146.34375 258.480469 147.292969 C 258.03125 147.742188 257.878906 147.691406 257.878906 147.042969 C 257.878906 145.34375 252.585938 137.453125 248.886719 133.707031 C 242.792969 127.464844 234.796875 123.019531 225.953125 121.074219 C 220.359375 119.773438 205.421875 119.875 199.273438 121.222656 C 182.886719 124.816406 168 132.609375 153.910156 144.996094 C 141.019531 156.28125 130.226562 171.167969 124.332031 185.898438 C 121.734375 192.390625 120.933594 195.089844 119.484375 202.28125 C 118.488281 207.125 118.386719 208.722656 118.636719 217.265625 C 118.886719 226.703125 119.136719 228.203125 121.183594 234.34375 C 122.183594 237.292969 124.933594 242.835938 126.679688 245.433594 C 130.078125 250.378906 138.320312 257.320312 144.015625 259.917969 C 148.0625 261.765625 145.316406 262.164062 139.769531 260.515625 C 124.234375 255.871094 114.839844 243.933594 112.941406 226.503906 C 111.941406 216.863281 113.242188 206.828125 117.039062 195.4375 C 124.683594 172.714844 141.371094 150.589844 163.453125 134.109375 C 174.445312 125.917969 189.980469 118.425781 201.671875 115.679688 C 205.671875 114.730469 214.964844 113.332031 217.660156 113.28125 C 219.058594 113.28125 222.65625 113.679688 225.65625 114.230469 Z M 71.972656 124.46875 C 72.472656 125.167969 76.71875 129.710938 81.367188 134.605469 C 85.960938 139.453125 92.007812 145.792969 94.753906 148.691406 C 99.453125 153.636719 107.894531 162.476562 113.890625 168.769531 C 116.589844 171.515625 116.636719 171.617188 115.988281 173.113281 C 115.390625 174.5625 113.789062 175.261719 113.390625 174.210938 C 113.339844 173.964844 109.644531 169.96875 105.195312 165.371094 C 96.902344 156.582031 78.617188 137.15625 71.921875 129.914062 C 69.773438 127.566406 68.027344 125.515625 68.027344 125.269531 C 68.027344 122.96875 70.375 122.519531 71.972656 124.46875 Z M 212.765625 129.8125 C 213.464844 130.710938 213.863281 132.507812 214.664062 138.953125 C 215.261719 143.746094 215.261719 145.445312 214.664062 150.238281 C 213.863281 157.183594 213.015625 160.679688 212.066406 161.027344 C 211.164062 161.378906 205.921875 156.332031 205.921875 155.132812 C 205.921875 154.683594 206.46875 153.335938 207.117188 152.136719 C 209.167969 148.390625 210.066406 144.394531 210.066406 139.152344 C 210.015625 136.457031 209.765625 133.507812 209.417969 132.507812 C 208.96875 131.0625 208.96875 130.511719 209.417969 129.960938 C 210.167969 129.0625 212.117188 128.964844 212.765625 129.8125 Z M 226.652344 131.460938 C 238.945312 135.207031 247.789062 144.597656 251.183594 157.429688 C 252.433594 162.175781 252.433594 175.609375 251.183594 181.40625 C 249.886719 187.597656 246.4375 196.636719 245.390625 196.636719 C 244.941406 196.636719 235.449219 187.046875 226.804688 177.910156 C 217.859375 168.417969 218.210938 168.96875 219.910156 166.421875 C 222.90625 161.976562 224.457031 149.941406 223.507812 138.703125 C 223.15625 134.808594 223.007812 131.410156 223.15625 131.160156 C 223.554688 130.5625 223.707031 130.5625 226.652344 131.460938 Z M 200.222656 133.558594 C 201.722656 137.15625 200.625 146.894531 198.625 147.542969 C 197.925781 147.792969 187.335938 136.304688 187.585938 135.554688 C 187.785156 134.855469 196.578125 131.761719 198.277344 131.710938 C 199.125 131.710938 199.625 132.210938 200.222656 133.558594 Z M 74.570312 147.292969 C 79.066406 152.039062 85.8125 159.179688 89.507812 163.175781 C 96.355469 170.515625 100.601562 175.0625 106.644531 181.453125 C 110.042969 185 110.691406 186.398438 109.195312 187 C 108.144531 187.398438 106.644531 185.851562 90.660156 167.917969 C 72.621094 147.742188 65.527344 139.601562 65.527344 139.203125 C 65.527344 138.003906 66.875 139.203125 74.570312 147.292969 Z M 187.683594 150.9375 C 192.828125 156.433594 198.675781 162.625 200.625 164.671875 C 202.574219 166.722656 206.871094 171.214844 210.167969 174.664062 C 223.207031 188.296875 225.003906 190.195312 232.351562 198.085938 C 239.59375 205.828125 241.441406 208.226562 240.742188 208.925781 C 240.59375 209.074219 238.496094 209.421875 236.046875 209.671875 C 231.199219 210.171875 228.652344 210.921875 224.15625 213.21875 C 219.757812 215.417969 218.410156 216.863281 218.410156 219.3125 C 218.460938 223.707031 221.457031 224.707031 226.453125 222.007812 C 232.449219 218.863281 234.398438 218.464844 243.792969 218.761719 L 252.132812 219.011719 L 256.78125 223.855469 C 259.328125 226.554688 261.328125 229 261.226562 229.300781 C 261.128906 229.601562 259.480469 230 257.582031 230.148438 C 250.4375 230.75 242.992188 233.546875 241.34375 236.292969 C 240.144531 238.191406 240.445312 239.890625 242.191406 241.4375 C 243.839844 242.9375 245.191406 242.886719 250.585938 240.988281 C 254.78125 239.488281 255.683594 239.390625 263.078125 239.191406 L 271.019531 238.992188 L 276.214844 244.335938 C 279.0625 247.28125 281.3125 249.929688 281.210938 250.226562 C 281.113281 250.578125 279.714844 251.125 278.066406 251.476562 C 264.375 254.371094 258.128906 259.367188 262.375 263.960938 C 263.824219 265.511719 266.273438 265.359375 269.769531 263.613281 C 274.667969 261.164062 281.363281 259.566406 287.007812 259.566406 L 290.605469 259.566406 L 296.949219 266.160156 C 300.449219 269.804688 303.34375 273.152344 303.34375 273.601562 C 303.34375 274.550781 302.347656 275.050781 300.496094 275.050781 C 297.898438 275.050781 287.90625 278.445312 285.257812 280.242188 C 283.859375 281.144531 283.5625 281.691406 283.460938 283.492188 C 283.3125 285.1875 283.5625 285.9375 284.410156 286.835938 C 285.859375 288.386719 287.808594 288.386719 291.902344 286.738281 C 297.398438 284.589844 302.644531 283.539062 308.191406 283.539062 L 313.289062 283.539062 L 319.683594 290.082031 C 323.179688 293.679688 326.277344 296.925781 326.527344 297.375 C 327.175781 298.523438 326.277344 299.023438 322.78125 299.523438 C 318.734375 300.121094 313.6875 301.671875 311.089844 303.167969 C 307.34375 305.316406 307.042969 309.761719 310.539062 311.460938 C 312.089844 312.160156 311.839844 312.207031 318.085938 310.011719 C 321.882812 308.664062 328.625 307.511719 332.773438 307.511719 L 335.96875 307.511719 L 342.765625 314.554688 C 346.511719 318.453125 349.558594 321.898438 349.558594 322.195312 C 349.558594 322.496094 348.3125 323.046875 346.8125 323.394531 C 339.367188 325.195312 333.722656 327.539062 331.824219 329.589844 C 330.675781 330.835938 330.476562 333.785156 331.523438 335.132812 C 331.875 335.582031 332.871094 336.230469 333.722656 336.53125 C 335.019531 336.980469 335.722656 336.832031 338.667969 335.53125 C 344.214844 333.132812 349.210938 331.984375 354.457031 331.984375 L 359.152344 331.984375 L 363.148438 336.082031 C 374.492188 347.917969 374.839844 348.316406 374.191406 348.816406 C 373.839844 349.117188 372.191406 349.617188 370.542969 349.964844 C 366.546875 350.765625 362.152344 352.214844 358.804688 353.863281 C 355.207031 355.609375 353.855469 357.957031 354.957031 360.605469 C 355.40625 361.652344 356.253906 362.5 357.203125 362.902344 C 358.554688 363.449219 359.101562 363.351562 363.101562 361.703125 C 369.394531 359.105469 374.292969 357.957031 379.4375 357.957031 L 383.785156 357.957031 L 386.183594 360.054688 C 393.027344 366.148438 400.421875 373.890625 400.121094 374.589844 C 399.972656 375.039062 398.671875 375.585938 396.925781 375.9375 C 388.78125 377.636719 379.289062 382.578125 377.488281 386.027344 C 376.390625 388.171875 377.339844 390.769531 379.585938 391.71875 C 381.535156 392.519531 382.386719 392.269531 386.332031 389.820312 C 387.832031 388.871094 390.027344 387.722656 391.277344 387.222656 C 392.527344 386.726562 394.074219 386.074219 394.777344 385.824219 C 398.921875 384.128906 407.714844 383.378906 409.914062 384.476562 C 410.511719 384.777344 412.261719 386.324219 413.761719 387.921875 C 415.261719 389.523438 418.109375 392.519531 420.054688 394.566406 C 424.402344 399.210938 432.496094 410.949219 438.242188 421.1875 C 440.742188 425.53125 447.183594 436.617188 449.382812 440.363281 C 451.882812 444.558594 453.679688 447.308594 461.574219 459.144531 C 468.96875 470.179688 469.769531 472.828125 465.820312 472.828125 C 463.375 472.878906 460.324219 474.277344 457.726562 476.625 C 454.78125 479.269531 453.332031 481.71875 452.480469 485.5625 C 451.78125 488.460938 451.78125 489.160156 452.480469 492.15625 C 452.929688 494.15625 453.082031 495.652344 452.78125 495.953125 C 451.632812 497.101562 446.136719 492.40625 439.441406 484.566406 C 425.75 468.484375 416.957031 460.390625 397.324219 445.609375 C 382.683594 434.621094 377.289062 429.578125 350.757812 402.15625 C 327.527344 378.132812 313.039062 363.152344 303.09375 352.960938 C 297 346.769531 289.507812 339.027344 286.359375 335.730469 C 283.210938 332.433594 276.015625 325.042969 270.371094 319.25 C 264.726562 313.507812 256.980469 305.515625 253.132812 301.519531 C 249.285156 297.523438 241.644531 289.683594 236.148438 284.039062 C 223.457031 271.054688 209.265625 256.121094 206.167969 252.574219 C 204.820312 251.078125 202.871094 249.027344 201.824219 248.078125 C 198.976562 245.53125 193.078125 239.6875 186.484375 232.847656 C 183.335938 229.550781 176.34375 222.359375 170.945312 216.863281 C 151.5625 197.039062 137.722656 182.554688 137.574219 181.902344 C 137.371094 181.105469 139.96875 176.160156 141.917969 173.664062 C 142.667969 172.714844 144.015625 170.765625 144.964844 169.417969 C 148.964844 163.476562 156.359375 155.535156 163.003906 150.089844 C 167.800781 146.09375 176.144531 140.699219 177.191406 140.800781 C 177.792969 140.898438 182.339844 145.296875 187.683594 150.9375 Z M 74.71875 164.921875 C 79.167969 169.867188 83.8125 175.0625 85.011719 176.460938 C 86.261719 177.859375 90.859375 183.003906 95.253906 187.847656 C 105.296875 198.984375 105.695312 199.433594 105.296875 200.382812 C 104.597656 202.230469 103.648438 201.382812 94.207031 190.394531 C 85.3125 179.957031 79.167969 172.765625 75.46875 168.371094 C 73.171875 165.621094 69.523438 161.328125 67.425781 158.828125 C 63.527344 154.234375 62.179688 151.738281 65.078125 154.484375 C 65.925781 155.285156 70.273438 159.980469 74.71875 164.921875 Z M 137.671875 196.6875 C 139.769531 198.933594 141.46875 201.082031 141.371094 201.53125 C 141.167969 202.53125 135.523438 204.128906 132.125 204.128906 C 129.027344 204.128906 128.929688 203.878906 130.226562 198.984375 C 131.277344 194.890625 132.328125 192.640625 133.125 192.640625 C 133.527344 192.640625 135.574219 194.488281 137.671875 196.6875 Z M 153.359375 212.820312 C 156.757812 216.367188 156.859375 216.566406 155.957031 217.363281 C 155.457031 217.8125 152.460938 218.8125 149.261719 219.613281 C 144.566406 220.761719 142.117188 221.011719 135.875 221.160156 L 128.230469 221.359375 L 127.929688 219.863281 C 127.378906 217.316406 127.429688 214.367188 128.078125 213.71875 C 128.429688 213.367188 130.078125 213.121094 132.027344 213.121094 C 135.375 213.121094 143.167969 211.421875 146.464844 209.972656 C 147.414062 209.574219 148.5625 209.171875 149.011719 209.171875 C 149.414062 209.125 151.363281 210.773438 153.359375 212.820312 Z M 176.542969 236.691406 C 183.335938 243.636719 188.882812 249.628906 188.933594 249.976562 C 188.933594 250.875 186.386719 251.875 180.238281 253.324219 C 172.84375 255.121094 161.804688 255.222656 155.707031 253.574219 C 144.417969 250.578125 136.871094 244.535156 131.925781 234.59375 C 131.128906 232.898438 130.527344 231.398438 130.675781 231.148438 C 130.828125 230.949219 134.023438 230.601562 137.820312 230.449219 C 146.214844 230.050781 156.007812 227.753906 161.203125 224.957031 C 162.054688 224.507812 163.054688 224.15625 163.453125 224.105469 C 163.851562 224.105469 169.746094 229.800781 176.542969 236.691406 Z M 488.753906 614.46875 C 490.402344 615.917969 492.199219 619.914062 492.199219 622.0625 C 492.199219 624.207031 490.75 626.507812 488.304688 628.503906 C 486.554688 629.953125 481.757812 630.101562 479.210938 628.753906 C 477.113281 627.65625 474.714844 623.359375 474.714844 620.761719 C 474.714844 617.617188 477.8125 614.019531 480.960938 613.519531 C 483.957031 613.019531 487.652344 613.472656 488.753906 614.46875 Z M 450.933594 614.621094 C 453.28125 616.167969 454.230469 618.066406 454.230469 621.3125 C 454.230469 623.957031 454.082031 624.359375 452.332031 626.257812 C 450.683594 628.003906 450.035156 628.304688 447.933594 628.503906 C 442.640625 629.003906 438.742188 626.007812 438.34375 621.0625 C 438.191406 618.863281 438.34375 618.164062 439.292969 616.964844 C 441.691406 613.921875 447.933594 612.671875 450.933594 614.621094 Z M 448.035156 652.527344 C 449.285156 653.375 450.234375 655.472656 450.234375 657.371094 C 450.234375 660.769531 453.53125 663.414062 459.425781 664.613281 C 463.121094 665.363281 467.71875 664.613281 471.914062 662.515625 C 475.863281 660.519531 477.210938 659.121094 477.210938 656.871094 C 477.210938 652.726562 481.609375 651.226562 485.007812 654.226562 C 490.402344 658.96875 492 662.867188 489.453125 665.363281 C 488.105469 666.761719 486.855469 666.910156 484.40625 666.011719 C 482.859375 665.460938 482.609375 665.5625 480.109375 667.460938 C 474.613281 671.65625 470.167969 673.105469 462.773438 673.105469 C 454.878906 673.105469 450.632812 671.65625 445.886719 667.410156 L 443.335938 665.113281 L 441.039062 665.710938 C 439.042969 666.261719 438.542969 666.210938 437.34375 665.511719 C 433.546875 663.214844 435.492188 657.371094 441.4375 653.425781 C 443.335938 652.128906 446.785156 651.679688 448.035156 652.527344 Z M 448.035156 652.527344 " fill-opacity="1" fill-rule="evenodd"></path></g><path fill="#000000" d="M 203.773438 228.101562 C 202.273438 229.300781 201.773438 231.097656 202.421875 232.847656 C 203.222656 234.996094 207.367188 240.039062 209.019531 240.886719 C 211.867188 242.386719 214.914062 240.488281 214.914062 237.191406 C 214.914062 234.996094 213.914062 233.246094 210.566406 229.699219 C 207.820312 226.753906 206.019531 226.355469 203.773438 228.101562 Z M 203.773438 228.101562 " fill-opacity="1" fill-rule="evenodd"></path><path fill="#000000" d="M 226.253906 249.078125 C 224.605469 250.378906 224.105469 252.875 225.054688 255.121094 C 226.054688 257.621094 227.253906 258.566406 229.152344 258.566406 C 231.800781 258.566406 233 257.21875 233.300781 253.921875 C 233.5 251.328125 233.398438 251.027344 232 249.578125 C 230.203125 247.78125 228.152344 247.628906 226.253906 249.078125 Z M 226.253906 249.078125 " fill-opacity="1" fill-rule="evenodd"></path><path fill="#000000" d="M 246.140625 269.804688 C 244.140625 271.753906 244.390625 274.5 246.789062 277.046875 C 249.1875 279.496094 250.835938 279.644531 252.933594 277.597656 C 254.53125 275.949219 254.734375 274.800781 253.683594 272.351562 C 252.183594 268.757812 248.4375 267.457031 246.140625 269.804688 Z M 246.140625 269.804688 " fill-opacity="1" fill-rule="evenodd"></path><path fill="#000000" d="M 268.871094 293.878906 C 266.222656 294.628906 265.226562 300.472656 267.371094 302.769531 C 269.371094 304.917969 272.769531 304.117188 274.316406 301.171875 C 274.617188 300.570312 274.867188 299.074219 274.867188 297.824219 C 274.867188 296.027344 274.617188 295.425781 273.566406 294.578125 C 272.320312 293.578125 270.671875 293.328125 268.871094 293.878906 Z M 268.871094 293.878906 " fill-opacity="1" fill-rule="evenodd"></path><path fill="#000000" d="M 290.457031 315.855469 C 289.355469 316.304688 288.257812 319 288.605469 320.5 C 288.957031 322.148438 291.453125 324.496094 292.851562 324.496094 C 295.703125 324.496094 297.800781 321.648438 297.050781 318.800781 C 296.449219 316.304688 293.054688 314.804688 290.457031 315.855469 Z M 290.457031 315.855469 " fill-opacity="1" fill-rule="evenodd"></path><path fill="#000000" d="M 316.984375 343.222656 C 315.535156 344.222656 314.136719 348.566406 314.535156 350.714844 C 315.1875 354.109375 319.035156 355.558594 321.480469 353.261719 C 323.78125 351.113281 323.929688 344.773438 321.679688 343.222656 C 320.332031 342.273438 318.382812 342.273438 316.984375 343.222656 Z M 316.984375 343.222656 " fill-opacity="1" fill-rule="evenodd"></path><path fill="#000000" d="M 341.816406 368.59375 C 341.117188 368.945312 340.265625 369.894531 339.867188 370.691406 C 338.320312 373.890625 340.917969 379.933594 343.816406 379.933594 C 345.761719 379.933594 347.363281 378.933594 348.0625 377.234375 C 349.460938 373.9375 346.761719 367.945312 343.914062 367.945312 C 343.464844 367.945312 342.515625 368.246094 341.816406 368.59375 Z M 341.816406 368.59375 " fill-opacity="1" fill-rule="evenodd"></path><path fill="#000000" d="M 366.347656 398.710938 C 363.75 400.558594 363 405.152344 365.046875 407.152344 C 367.445312 409.597656 371.292969 408.449219 372.34375 404.953125 C 373.839844 399.960938 370.09375 396.113281 366.347656 398.710938 Z M 366.347656 398.710938 " fill-opacity="1" fill-rule="evenodd"></path><g clip-path="url(#7755cf0ee8)"><g clip-path="url(#b8e9f4bb01)"><path fill="#000000" d="M 273.46875 190.941406 L 319.996094 190.941406 L 319.996094 227.589844 L 273.46875 227.589844 Z M 273.46875 190.941406 " fill-opacity="1" fill-rule="nonzero"></path></g></g><g clip-path="url(#e557678093)"><g clip-path="url(#adfe4ccb3c)"><path fill="#000000" d="M 295.355469 209.152344 L 336.445312 209.152344 L 336.445312 242.128906 L 295.355469 242.128906 Z M 295.355469 209.152344 " fill-opacity="1" fill-rule="nonzero"></path></g></g><g clip-path="url(#d050801e9a)"><g clip-path="url(#f68eefe9b0)"><path fill="#000000" d="M 299.324219 214.398438 L 325.78125 214.398438 L 325.78125 234.859375 L 299.324219 234.859375 Z M 299.324219 214.398438 " fill-opacity="1" fill-rule="nonzero"></path></g></g><g clip-path="url(#0926aef428)"><g clip-path="url(#7c1b9066c2)"><path fill="#000000" d="M 316.714844 209.453125 L 341.359375 209.453125 L 341.359375 230.136719 L 316.714844 230.136719 Z M 316.714844 209.453125 " fill-opacity="1" fill-rule="nonzero"></path></g></g><g clip-path="url(#12f02e7b28)"><g clip-path="url(#14c7703372)"><path fill="#000000" d="M 312.816406 228.789062 L 358.457031 228.789062 L 358.457031 269.785156 L 312.816406 269.785156 Z M 312.816406 228.789062 " fill-opacity="1" fill-rule="nonzero"></path></g></g><g clip-path="url(#e34e5922ba)"><g clip-path="url(#e9ea39a652)"><path fill="#000000" d="M 319.113281 234.558594 L 344.085938 234.558594 L 344.085938 253.144531 L 319.113281 253.144531 Z M 319.113281 234.558594 " fill-opacity="1" fill-rule="nonzero"></path></g></g><g clip-path="url(#e960b63c4d)"><g clip-path="url(#c3565293d7)"><path fill="#000000" d="M 328.703125 241.15625 L 361.996094 241.15625 L 361.996094 268.734375 L 328.703125 268.734375 Z M 328.703125 241.15625 " fill-opacity="1" fill-rule="nonzero"></path></g></g><g clip-path="url(#8e8ad6cda0)"><g clip-path="url(#854b059584)"><path fill="#000000" d="M 331.777344 240.105469 L 366.925781 240.105469 L 366.925781 284.179688 L 331.777344 284.179688 Z M 331.777344 240.105469 " fill-opacity="1" fill-rule="nonzero"></path></g></g><g clip-path="url(#28083600cb)"><g clip-path="url(#219c8cb658)"><path fill="#000000" d="M 349.839844 260.566406 L 405.648438 260.566406 L 405.648438 307.257812 L 349.839844 307.257812 Z M 349.839844 260.566406 " fill-opacity="1" fill-rule="nonzero"></path></g></g><g clip-path="url(#a0f3549247)"><g clip-path="url(#64dfedda35)"><path fill="#000000" d="M 387.386719 306.734375 L 434.75 306.734375 L 434.75 351.476562 L 387.386719 351.476562 Z M 387.386719 306.734375 " fill-opacity="1" fill-rule="nonzero"></path></g></g><g clip-path="url(#0693607c67)"><g clip-path="url(#706bed7414)"><path fill="#000000" d="M 409.195312 332.214844 L 446.875 332.214844 L 446.875 362.640625 L 409.195312 362.640625 Z M 409.195312 332.214844 " fill-opacity="1" fill-rule="nonzero"></path></g></g><g clip-path="url(#d964669a05)"><g clip-path="url(#8a937b0bea)"><path fill="#000000" d="M 426.058594 346.753906 L 457.753906 346.753906 L 457.753906 370.136719 L 426.058594 370.136719 Z M 426.058594 346.753906 " fill-opacity="1" fill-rule="nonzero"></path></g></g><g clip-path="url(#a9cd2258dd)"><g clip-path="url(#9c96b94911)"><path fill="#000000" d="M 425.460938 342.40625 L 468.226562 342.40625 L 468.226562 384.675781 L 425.460938 384.675781 Z M 425.460938 342.40625 " fill-opacity="1" fill-rule="nonzero"></path></g></g><g clip-path="url(#13c0d9897d)"><g clip-path="url(#70d909f6f8)"><path fill="#000000" d="M 443.972656 369.386719 L 476.722656 369.386719 L 476.722656 407.511719 L 443.972656 407.511719 Z M 443.972656 369.386719 " fill-opacity="1" fill-rule="nonzero"></path></g></g><g clip-path="url(#b9ab4a23e0)"><g clip-path="url(#7fac0651cd)"><path fill="#000000" d="M 452.890625 374.484375 L 480.230469 374.484375 L 480.230469 399.214844 L 452.890625 399.214844 Z M 452.890625 374.484375 " fill-opacity="1" fill-rule="nonzero"></path></g></g><g clip-path="url(#689b632058)"><g clip-path="url(#a6b3f3b0e0)"><path fill="#000000" d="M 460.386719 367.289062 L 530.789062 367.289062 L 530.789062 429.867188 L 460.386719 429.867188 Z M 460.386719 367.289062 " fill-opacity="1" fill-rule="nonzero"></path></g></g></svg>