<?xml version="1.0" encoding="UTF-8"?>
<svg id="b" data-name="Ebene_2" xmlns="http://www.w3.org/2000/svg" width="1008.001" height="1388.055" viewBox="0 0 1008.001 1388.055">
  <g id="c" data-name="Layer_1">
    <g>
      <path d="M76,1.716C48.7,9.016,27.9,24.716,13.7,48.916,4.9,63.816,0,80.916,0,97.216c0,10.4,1.7,18.5,6.2,30.5,3.1,8.2,3.7,8.8,16.8,22,12.5,12.4,17.6,17.7,39,40.5,4.1,4.4,12.7,13.4,19,20,35.3,36.8,34.2,35.5,33.7,38.9-.2,1.7-2.1,9.4-4.1,17-2,7.8-3.6,16.4-3.6,19.5s-.5,8.7-1.1,12.6c-1.2,8.3.3,31.1,2.8,41.9.8,3.9,1.8,9.9,2.1,13.5.2,3.6.9,7.5,1.5,8.6,1.2,2.3,7.2,10.1,26.9,35.2,7.9,9.9,17,21.6,20.3,25.9,3.3,4.2,9.4,12,13.5,17.3,4.2,5.3,13.9,17.6,21.5,27.5,7.7,9.8,16.2,20.6,18.8,24,2.7,3.3,7.2,9.2,10.1,13.1,7.2,9.5,18.9,20.4,27.4,25.4,9,5.4,22,10.5,32.5,12.8,12.4,2.7,38.4,2.4,53.7-.6,14.4-2.8,31.1-8.3,46-15.1,16-7.3,15.1-7.2,21.3-.9,2.9,3,13.7,14.2,24.1,24.9,23,23.7,43.6,44.8,61.6,63.5,7.5,7.7,29.7,30.6,49.5,51,19.8,20.3,41.8,43.1,49,50.5,7.1,7.4,21.6,22.2,32,33,10.5,10.7,25.1,25.8,32.6,33.5s30,31,50.2,51.7c37.4,38.7,40.3,41.5,44.9,43.9,1.4.8,8.2,5.9,15,11.4,6.8,5.6,18.4,14.8,25.8,20.5,30.7,23.7,49.6,41.5,72,68,17.8,20.9,24.3,27.1,33.1,31.4,5.3,2.5,9,3.6,12.1,3.6,7.7,0,7.9.4,6.8,16.5-1,13.4-2.6,24-5.6,37-6.2,26.8-9.7,41.6-10.9,45-.7,2.2-3.4,10.7-6,19-2.6,8.2-5.7,17.9-7,21.5s-3.5,9.9-4.9,14c-1.3,4.1-4,12-5.9,17.5s-4.8,14.5-6.6,20-4.4,12.5-5.8,15.5c-4.3,9.3-7.3,18.7-9.9,31.1-3.3,15.9-3.4,43.3-.4,57.9,8.5,40,28.6,66.4,58.5,76.6,13.7,4.6,33.1,3.3,45.6-3.1,24.1-12.4,40.6-35.3,49.3-68,2.3-8.9,4.6-26.4,4.6-35.8,0-7.9-3.2-35.7-4.4-37.5-.3-.5-1-5.4-1.5-10.8-1.8-17.3-5.1-36.3-9-51.9-1.1-4.4-4.1-17.7-6.6-29.5-4.7-21.8-8.8-38.9-14.5-60.5-5.1-19.3-9.1-34.7-10.1-39.4-.5-2.5-1.3-5.9-1.9-7.5-.5-1.7-1.8-6.9-3-11.6-1.1-4.7-3.6-13.7-5.6-20-1.9-6.3-4.2-13.9-5-16.8l-1.4-5.4,4.4-5.6c7.7-9.8,9.6-15.1,9.6-26.9,0-15.4-2.6-22-16.8-42.8-17-24.9-38.2-58.2-38.2-60,0-.9-21-35.6-26.3-43.5-11.5-17.1-21.3-28.8-43.6-52-22.2-23-54-56.4-71.1-74.5-4.1-4.4-16.1-17-26.5-28-10.5-11-22.6-23.8-27-28.5-7.7-8.3-13.4-14.3-34.6-36.5-5.8-6.1-14.4-15.1-19-20-10.9-11.6-44.6-47.1-65.9-69.5-9.1-9.6-24.4-25.8-34-36s-22.2-23.5-28.1-29.5c-14.7-15.2-17.9-19-17.9-21,0-1,2.4-6.6,5.4-12.4,11.8-23.2,18.3-42.5,22.1-66,2.6-15.6,1.7-38.9-1.9-53.6-6.1-24.4-18.5-42.3-41.6-60-3.6-2.7-21.4-17.1-39.6-32-77.3-63.1-85.9-70.1-88.3-71.7-1.4-1-4.4-1.8-6.6-1.8s-6.9-.9-10.5-2.1c-15.3-4.8-25.7-6.3-44.5-6.3-21.3-.1-32.1,1.5-53.7,8l-8.7,2.7-33.2-33.9C145.101,19.016,136.201,10.516,129.001,7.016,117.701,1.616,112.601.516,97.501.116c-11.7-.3-15.2-.1-21.5,1.6h0ZM340.9,171.216c25.5,25.5,43.2,43.8,42.9,44.6s-1.6,1.4-3,1.4c-1.9,0-7-4.4-20.9-17.6-10.1-9.7-21.3-20.3-24.9-23.5-3.5-3.3-14.3-13.4-24-22.5-9.6-9.1-19.2-18-21.2-19.8s-3.4-3.9-3.1-4.6c.5-1.5,5.5-2.4,8.8-1.7,1.1.2,21.5,19.9,45.4,43.7ZM264.9,137.816c2,1.8,9.7,8.9,17.1,15.8,7.4,6.9,16.4,15.3,20,18.6s11.5,10.7,17.5,16.6c14.8,14.2,29,27.6,34.4,32.3,3.5,3.1,4.2,4.2,3.4,5.5-2.8,4.5-4.6,3-52.6-44.5-25.7-25.3-46.4-46.4-46-46.7,1.2-1.3,2.5-.7,6.2,2.4h0ZM284.8,190.716c26.5,26.4,48.2,48.3,48.2,48.7,0,.9-10,7.7-10.5,7.1-5.4-5.1-49.9-48-63-60.8-9.9-9.7-22-21.4-26.8-26s-8.6-9.1-8.5-9.8c.3-1.4,9.1-6.9,11.3-7.1.6,0,22.7,21.5,49.3,47.9h0ZM218.4,173.416c6.7,6.5,20,19.4,29.6,28.8s26.4,25.5,37.3,35.9c10.8,10.4,19.7,19.6,19.7,20.5,0,1.9-18.2,18.1-20.3,18.1-.7,0-4.6-3.5-8.6-7.8-4-4.2-15.2-15.8-24.9-25.7-61.3-62.5-64.6-66.1-63.4-68.1,1.3-2.3,15.4-13.4,17.1-13.4.8,0,6.9,5.3,13.5,11.7h0ZM175.8,194.416c1.3,1.6,13.7,14.3,27.5,28.3,13.9,14.1,31.9,32.5,40.1,41,8.3,8.5,17.9,18.5,21.3,22.1l6.4,6.5-5.8,6.6c-3.2,3.6-8.9,10.9-12.8,16.1-3.8,5.3-7.7,9.6-8.6,9.6-.9.1-6.5-5.2-12.5-11.7-6-6.4-16.5-17.6-23.5-24.7-6.9-7.2-15.9-16.6-20-21s-14.6-15.5-23.2-24.7c-8.6-9.1-15.7-17.3-15.7-18.1,0-3.4,20.9-32.7,23.3-32.7.6,0,2.2,1.2,3.5,2.7h0ZM451.5,228.716c17.3,3,22,4.8,34.1,12.7,11.1,7.1,18.3,15.4,24.4,27.8,5.6,11.4,9.1,23.8,7.2,25.7-.9.9-1.2.8-1.2-.5,0-3.4-10.6-19.2-18-26.7-12.2-12.5-28.2-21.4-45.9-25.3-11.2-2.6-41.1-2.4-53.4.3-32.8,7.2-62.6,22.8-90.8,47.6-25.8,22.6-47.4,52.4-59.2,81.9-5.2,13-6.8,18.4-9.7,32.8-2,9.7-2.2,12.9-1.7,30,.5,18.9,1,21.9,5.1,34.2,2,5.9,7.5,17,11,22.2,6.8,9.9,23.3,23.8,34.7,29,8.1,3.7,2.6,4.5-8.5,1.2-31.1-9.3-49.9-33.2-53.7-68.1-2-19.3.6-39.4,8.2-62.2,15.3-45.5,48.7-89.8,92.9-122.8,22-16.4,53.1-31.4,76.5-36.9,8-1.9,26.6-4.7,32-4.8,2.8,0,10,.8,16,1.9h0ZM143.9,249.216c1,1.4,9.5,10.5,18.8,20.3,9.2,9.7,21.3,22.4,26.8,28.2,9.4,9.9,26.3,27.6,38.3,40.2,5.4,5.5,5.5,5.7,4.2,8.7-1.2,2.9-4.4,4.3-5.2,2.2-.1-.5-7.5-8.5-16.4-17.7-16.6-17.6-53.2-56.5-66.6-71-4.3-4.7-7.8-8.8-7.8-9.3,0-4.6,4.7-5.5,7.9-1.6h0ZM425.7,259.916c1.4,1.8,2.2,5.4,3.8,18.3,1.2,9.6,1.2,13,0,22.6-1.6,13.9-3.3,20.9-5.2,21.6-1.8.7-12.3-9.4-12.3-11.8,0-.9,1.1-3.6,2.4-6,4.1-7.5,5.9-15.5,5.9-26-.1-5.4-.6-11.3-1.3-13.3-.9-2.9-.9-4,0-5.1,1.5-1.8,5.4-2,6.7-.3h0ZM453.5,263.216c24.6,7.5,42.3,26.3,49.1,52,2.5,9.5,2.5,36.4,0,48-2.6,12.4-9.5,30.5-11.6,30.5-.9,0-19.9-19.2-37.2-37.5-17.9-19-17.2-17.9-13.8-23,6-8.9,9.1-33,7.2-55.5-.7-7.8-1-14.6-.7-15.1.8-1.2,1.1-1.2,7,.6ZM400.6,267.416c3,7.2.8,26.7-3.2,28-1.4.5-22.6-22.5-22.1-24,.4-1.4,18-7.6,21.4-7.7,1.7,0,2.7,1,3.9,3.7h0ZM149.1,294.916c9,9.5,22.5,23.8,29.9,31.8,13.7,14.7,22.2,23.8,34.3,36.6,6.8,7.1,8.1,9.9,5.1,11.1-2.1.8-5.1-2.3-37.1-38.2-36.1-40.4-50.3-56.7-50.3-57.5,0-2.4,2.7,0,18.1,16.2ZM375.5,302.216c10.3,11,22,23.4,25.9,27.5s12.5,13.1,19.1,20c26.1,27.3,29.7,31.1,44.4,46.9,14.5,15.5,18.2,20.3,16.8,21.7-.3.3-4.5,1-9.4,1.5-9.7,1-14.8,2.5-23.8,7.1-8.8,4.4-11.5,7.3-11.5,12.2.1,8.8,6.1,10.8,16.1,5.4,12-6.3,15.9-7.1,34.7-6.5l16.7.5,9.3,9.7c5.1,5.4,9.1,10.3,8.9,10.9s-3.5,1.4-7.3,1.7c-14.3,1.2-29.2,6.8-32.5,12.3-2.4,3.8-1.8,7.2,1.7,10.3,3.3,3,6,2.9,16.8-.9,8.4-3,10.2-3.2,25-3.6l15.9-.4,10.4,10.7c5.7,5.9,10.2,11.2,10,11.8-.2.7-3,1.8-6.3,2.5-27.4,5.8-39.9,15.8-31.4,25,2.9,3.1,7.8,2.8,14.8-.7,9.8-4.9,23.2-8.1,34.5-8.1h7.2l12.7,13.2c7,7.3,12.8,14,12.8,14.9,0,1.9-2,2.9-5.7,2.9-5.2,0-25.2,6.8-30.5,10.4-2.8,1.8-3.4,2.9-3.6,6.5-.3,3.4.2,4.9,1.9,6.7,2.9,3.1,6.8,3.1,15-.2,11-4.3,21.5-6.4,32.6-6.4h10.2l12.8,13.1c7,7.2,13.2,13.7,13.7,14.6,1.3,2.3-.5,3.3-7.5,4.3-8.1,1.2-18.2,4.3-23.4,7.3-7.5,4.3-8.1,13.2-1.1,16.6,3.1,1.4,2.6,1.5,15.1-2.9,7.6-2.7,21.1-5,29.4-5h6.4l13.6,14.1c7.5,7.8,13.6,14.7,13.6,15.3s-2.5,1.7-5.5,2.4c-14.9,3.6-26.2,8.3-30,12.4-2.3,2.5-2.7,8.4-.6,11.1.7.9,2.7,2.2,4.4,2.8,2.6.9,4,.6,9.9-2,11.1-4.8,21.1-7.1,31.6-7.1h9.4l8,8.2c22.7,23.7,23.4,24.5,22.1,25.5-.7.6-4,1.6-7.3,2.3-8,1.6-16.8,4.5-23.5,7.8-7.2,3.5-9.9,8.2-7.7,13.5.9,2.1,2.6,3.8,4.5,4.6,2.7,1.1,3.8.9,11.8-2.4,12.6-5.2,22.4-7.5,32.7-7.5h8.7l4.8,4.2c13.7,12.2,28.5,27.7,27.9,29.1-.3.9-2.9,2-6.4,2.7-16.3,3.4-35.3,13.3-38.9,20.2-2.2,4.3-.3,9.5,4.2,11.4,3.9,1.6,5.6,1.1,13.5-3.8,3-1.9,7.4-4.2,9.9-5.2s5.6-2.3,7-2.8c8.3-3.4,25.9-4.9,30.3-2.7,1.2.6,4.7,3.7,7.7,6.9s8.7,9.2,12.6,13.3c8.7,9.3,24.9,32.8,36.4,53.3,5,8.7,17.9,30.9,22.3,38.4,5,8.4,8.6,13.9,24.4,37.6,14.8,22.1,16.4,27.4,8.5,27.4-4.9.1-11,2.9-16.2,7.6-5.9,5.3-8.8,10.2-10.5,17.9-1.4,5.8-1.4,7.2,0,13.2.9,4,1.2,7,.6,7.6-2.3,2.3-13.3-7.1-26.7-22.8-27.4-32.2-45-48.4-84.3-78-29.3-22-40.1-32.1-93.2-87-46.5-48.1-75.5-78.1-95.4-98.5-12.2-12.4-27.2-27.9-33.5-34.5s-20.7-21.4-32-33c-11.3-11.5-26.8-27.5-34.5-35.5s-23-23.7-34-35c-25.4-26-53.8-55.9-60-63-2.7-3-6.6-7.1-8.7-9-5.7-5.1-17.5-16.8-30.7-30.5-6.3-6.6-20.3-21-31.1-32-38.8-39.7-66.5-68.7-66.8-70-.4-1.6,4.8-11.5,8.7-16.5,1.5-1.9,4.2-5.8,6.1-8.5,8-11.9,22.8-27.8,36.1-38.7,9.6-8,26.3-18.8,28.4-18.6,1.2.2,10.3,9,21,20.3h0ZM149.4,330.216c8.9,9.9,18.2,20.3,20.6,23.1,2.5,2.8,11.7,13.1,20.5,22.8,20.1,22.3,20.9,23.2,20.1,25.1-1.4,3.7-3.3,2-22.2-20-17.8-20.9-30.1-35.3-37.5-44.1-4.6-5.5-11.9-14.1-16.1-19.1-7.8-9.2-10.5-14.2-4.7-8.7,1.7,1.6,10.4,11,19.3,20.9h0ZM275.4,393.816c4.2,4.5,7.6,8.8,7.4,9.7-.4,2-11.7,5.2-18.5,5.2-6.2,0-6.4-.5-3.8-10.3,2.1-8.2,4.2-12.7,5.8-12.7.8,0,4.9,3.7,9.1,8.1h0ZM306.8,426.116c6.8,7.1,7,7.5,5.2,9.1-1,.9-7,2.9-13.4,4.5-9.4,2.3-14.3,2.8-26.8,3.1l-15.3.4-.6-3c-1.1-5.1-1-11,.3-12.3.7-.7,4-1.2,7.9-1.2,6.7,0,22.3-3.4,28.9-6.3,1.9-.8,4.2-1.6,5.1-1.6.8-.1,4.7,3.2,8.7,7.3h0ZM353.2,473.916c13.6,13.9,24.7,25.9,24.8,26.6,0,1.8-5.1,3.8-17.4,6.7-14.8,3.6-36.9,3.8-49.1.5-22.6-6-37.7-18.1-47.6-38-1.6-3.4-2.8-6.4-2.5-6.9.3-.4,6.7-1.1,14.3-1.4,16.8-.8,36.4-5.4,46.8-11,1.7-.9,3.7-1.6,4.5-1.7.8,0,12.6,11.4,26.2,25.2h0ZM978.099,1230.316c3.3,2.9,6.9,10.9,6.9,15.2s-2.9,8.9-7.8,12.9c-3.5,2.9-13.1,3.2-18.2.5-4.2-2.2-9-10.8-9-16,0-6.3,6.2-13.5,12.5-14.5,6-1,13.4-.1,15.6,1.9h0ZM902.4,1230.616c4.7,3.1,6.6,6.9,6.6,13.4,0,5.3-.3,6.1-3.8,9.9-3.3,3.5-4.6,4.1-8.8,4.5-10.6,1-18.4-5-19.2-14.9-.3-4.4,0-5.8,1.9-8.2,4.8-6.1,17.3-8.6,23.3-4.7h0ZM896.599,1306.516c2.5,1.7,4.4,5.9,4.4,9.7,0,6.8,6.6,12.1,18.4,14.5,7.4,1.5,16.6,0,25-4.2,7.9-4,10.6-6.8,10.6-11.3,0-8.3,8.8-11.3,15.6-5.3,10.8,9.5,14,17.3,8.9,22.3-2.7,2.8-5.2,3.1-10.1,1.3-3.1-1.1-3.6-.9-8.6,2.9-11,8.4-19.9,11.3-34.7,11.3-15.8,0-24.3-2.9-33.8-11.4l-5.1-4.6-4.6,1.2c-4,1.1-5,1-7.4-.4-7.6-4.6-3.7-16.3,8.2-24.2,3.8-2.6,10.7-3.5,13.2-1.8h0Z" fill-rule="evenodd"/>
      <path d="M407.7,456.716c-3,2.4-4,6-2.7,9.5,1.6,4.3,9.9,14.4,13.2,16.1,5.7,3,11.8-.8,11.8-7.4,0-4.4-2-7.9-8.7-15-5.5-5.9-9.1-6.7-13.6-3.2h0Z" fill-rule="evenodd"/>
      <path d="M452.7,498.716c-3.3,2.6-4.3,7.6-2.4,12.1,2,5,4.4,6.9,8.2,6.9,5.3,0,7.7-2.7,8.3-9.3.4-5.2.2-5.8-2.6-8.7-3.6-3.6-7.7-3.9-11.5-1Z" fill-rule="evenodd"/>
      <path d="M492.5,540.216c-4,3.9-3.5,9.4,1.3,14.5,4.8,4.9,8.1,5.2,12.3,1.1,3.2-3.3,3.6-5.6,1.5-10.5-3-7.2-10.5-9.8-15.1-5.1Z" fill-rule="evenodd"/>
      <path d="M538,588.416c-5.3,1.5-7.3,13.2-3,17.8,4,4.3,10.8,2.7,13.9-3.2.6-1.2,1.1-4.2,1.1-6.7,0-3.6-.5-4.8-2.6-6.5-2.5-2-5.8-2.5-9.4-1.4h0Z" fill-rule="evenodd"/>
      <path d="M581.2,632.416c-2.2.9-4.4,6.3-3.7,9.3.7,3.3,5.7,8,8.5,8,5.7,0,9.9-5.7,8.4-11.4-1.2-5-8-8-13.2-5.9h0Z" fill-rule="evenodd"/>
      <path d="M634.3,687.216c-2.9,2-5.7,10.7-4.9,15,1.3,6.8,9,9.7,13.9,5.1,4.6-4.3,4.9-17,.4-20.1-2.7-1.9-6.6-1.9-9.4,0Z" fill-rule="evenodd"/>
      <path d="M684,738.016c-1.4.7-3.1,2.6-3.9,4.2-3.1,6.4,2.1,18.5,7.9,18.5,3.9,0,7.1-2,8.5-5.4,2.8-6.6-2.6-18.6-8.3-18.6-.9,0-2.8.6-4.2,1.3Z" fill-rule="evenodd"/>
      <path d="M733.1,798.316c-5.2,3.7-6.7,12.9-2.6,16.9,4.8,4.9,12.5,2.6,14.6-4.4,3-10-4.5-17.7-12-12.5Z" fill-rule="evenodd"/>
    </g>
  </g>
</svg>