<?xml version="1.0" encoding="utf-8"?>
<!-- Generator: Adobe Illustrator 28.0.0, SVG Export Plug-In . SVG Version: 6.00 Build 0)  -->
<svg version="1.1" id="Layer_1" xmlns="http://www.w3.org/2000/svg" xmlns:xlink="http://www.w3.org/1999/xlink" x="0px" y="0px"
	 viewBox="0 0 102.91 67.65" style="enable-background:new 0 0 102.91 67.65;" xml:space="preserve">
<style type="text/css">
	.st0{fill:#110E0D;}
</style>
<g>
	<path class="st0" d="M47.92,55.94c-0.74-0.06-1.46-0.15-2.17-0.24l-4.36,6.29c1.22,0.23,2.44,0.4,3.64,0.54L47.92,55.94z"/>
	<path class="st0" d="M62.73,55.16c-0.5,0.1-1.03,0.19-1.55,0.27l2.23,5.33c0.86-0.27,1.72-0.56,2.58-0.87L62.73,55.16z"/>
	<path class="st0" d="M50.75,56.11c-0.03,0-0.06,0-0.09,0c-0.55-0.02-1.07-0.07-1.61-0.1l-2.83,6.64c1.06,0.09,2.1,0.15,3.12,0.18
		L50.75,56.11z"/>
	<path class="st0" d="M53.4,56.12l-0.55,6.66c0.39-0.02,0.78-0.04,1.16-0.07l-0.06-6.59C53.77,56.12,53.58,56.12,53.4,56.12z"/>
	<path class="st0" d="M52.4,56.12c-0.27,0-0.55,0-0.83,0l-1.25,6.73c0.49,0,0.97,0,1.45-0.01L52.4,56.12z"/>
	<path class="st0" d="M55.61,56.03c-0.15,0.01-0.31,0.02-0.46,0.02v6.55c0.08-0.01,0.16-0.01,0.24-0.02
		c0.26-0.03,0.52-0.08,0.78-0.12L55.61,56.03z"/>
	<path class="st0" d="M62.35,61.09l-2.28-5.49c-0.53,0.08-1.09,0.14-1.64,0.2l1.33,5.99C60.62,61.58,61.49,61.35,62.35,61.09z"/>
	<path class="st0" d="M56.79,55.98l0.58,6.31c0.43-0.08,0.87-0.17,1.31-0.27L57.5,55.9C57.26,55.92,57.03,55.96,56.79,55.98z"/>
	<path class="st0" d="M31.68,61.54c-1.83-0.8-3.44-1.65-4.83-2.47l-2.17,1.94c1.43,1,3.05,1.98,4.91,2.86L31.68,61.54z"/>
	<path class="st0" d="M18.41,48.64c0.96,1.35,2.03,2.59,3.19,3.72l5.15-3.81c-1.05-0.75-2-1.51-2.85-2.27L18.41,48.64z"/>
	<path class="st0" d="M17.76,47.68l5.23-2.24c-1.31-1.25-2.34-2.46-3.09-3.49c0,0-9.92,2.38-13.75,3.21
		c2.3,0.51,5.69,0.83,10.7,1.04C17.14,46.71,17.45,47.2,17.76,47.68z"/>
	<path class="st0" d="M38.89,63.93c-2.19-0.51-4.21-1.17-6.05-1.91l-2.05,2.38c1.87,0.8,3.97,1.5,6.31,2.05L38.89,63.93z"/>
	<path class="st0" d="M44.86,55.59c-1.94-0.28-3.77-0.67-5.48-1.14l-4.91,5.69c1.96,0.69,3.96,1.24,5.96,1.65L44.86,55.59z"/>
	<path class="st0" d="M44.04,64.78c-1.44-0.14-2.82-0.35-4.15-0.63l-1.76,2.53c1.49,0.31,3.07,0.55,4.75,0.71L44.04,64.78z"/>
	<path class="st0" d="M22.53,53.24c1.56,1.4,3.26,2.63,5.04,3.69l5.53-4.75c-1.9-0.87-3.62-1.81-5.14-2.81L22.53,53.24z"/>
	<path class="st0" d="M64.08,54.88c0.5,0.75,1.77,2.66,3.07,4.59c1.68-0.63,3.33-1.31,4.94-2l-3.12-3.91
		C67.47,54.03,65.84,54.48,64.08,54.88z"/>
	<path class="st0" d="M28.58,57.52c1.53,0.84,3.11,1.58,4.73,2.2l5-5.58c-1.5-0.45-2.93-0.96-4.25-1.52L28.58,57.52z"/>
	<path class="st0" d="M18.09,54.94l1.78-1.32c-1.39-1.36-2.43-2.32-3.06-1.97c-0.56,0.37-0.22,1.56,1.02,2.99
		C17.91,54.74,18.01,54.84,18.09,54.94z"/>
	<path class="st0" d="M1.44,41.5c0.23,1.28,0.83,2.24,2.41,2.95c0.03-0.01,6.74-1.67,10.6-2.62c-6.72-0.46-8.99-1.92-11.35-1.9
		C1.97,39.94,1.29,40.66,1.44,41.5z"/>
	<path class="st0" d="M23.67,60.28l2.15-1.84c-1.99-1.26-3.38-2.38-4.04-2.99c-0.35-0.32-0.69-0.64-1.01-0.95l-1.89,1.34
		C20.11,57.2,21.66,58.75,23.67,60.28z"/>
	<path class="st0" d="M84.87,52.02l-3.49-2.71c-1.86,0.35-3.87,1.1-6.17,1.98l3.57,3.23C81.08,53.49,83.16,52.61,84.87,52.02z"/>
	<path class="st0" d="M48.89,64.93c-1.24,0.04-2.45,0.02-3.63-0.05l-1.13,2.65c1.43,0.11,2.82,0.14,4.18,0.12L48.89,64.93z"/>
	<path class="st0" d="M85.33,55.98c1.14-0.38,2.07-0.91,2.78-1.46l-1.41-1.09c-1.55,0.79-4.06,0.91-7.03,1.88l1.99,1.8
		C82.9,56.72,84.05,56.41,85.33,55.98z"/>
	<path class="st0" d="M97.6,46.93c0.89-1.09,1.49-1.98,2.28-2.05s1.78-1.46-0.69-4.53c-1.33-1.65-2.8-2.59-4.15-3.11
		c2.92,0.7,5.57,0.46,5.45-0.16c-0.17-0.94-1.73-0.57-3.95-1.05c-2.22-0.47-6.01-3.17-7.56-4.94c-1.55-1.78-10.1-11.85-25.92-16.92
		c-0.72-0.23-1.43-0.43-2.14-0.61c0.02-0.27,0.04-0.43,0.04-0.43c0.05-0.33-0.18-0.64-0.51-0.69c-0.32-0.05-0.64,0.18-0.69,0.51
		c0,0.03-0.02,0.15-0.04,0.33c-0.92-0.2-1.83-0.37-2.73-0.5c0-0.06-0.01-0.09-0.01-0.1c-0.02-0.33-0.34-0.59-0.64-0.57
		c-0.29,0.02-0.51,0.24-0.55,0.51c-8.87-0.96-16.77,1.65-23.83,5.44c-0.02-0.05-0.05-0.1-0.07-0.15c-0.12-0.31-0.48-0.46-0.79-0.34
		c-0.31,0.12-0.46,0.47-0.34,0.79c0.04,0.1,0.08,0.19,0.13,0.29c-0.17,0.09-0.34,0.19-0.51,0.29c-0.17-0.2-0.46-0.28-0.71-0.16
		c-0.28,0.14-0.4,0.46-0.3,0.74c-0.65,0.38-1.28,0.77-1.92,1.16c-0.08-0.08-0.13-0.13-0.13-0.14c-0.22-0.25-0.61-0.27-0.85-0.04
		c-0.24,0.22-0.26,0.59-0.05,0.84c-0.99,0.64-1.96,1.28-2.92,1.94c0.55-0.59,1.33-1.36,2.33-2.23l-9.95-7.39
		c-2.1,1.94-3.61,3.71-4.61,5l11.48,4.84l-0.62,0.89l-11.46-4.93c-0.31,0.43-0.55,0.77-0.7,0.99c-1.8,2.6-2.38,2.28-4.27,2.61
		c-0.79,0.13-1.93,0.59-2.99,1.32l16.06,3.38c0.15,0.07,0.3,0.14,0.46,0.21c0.09,0.09,0.19,0.19,0.3,0.27
		c0.08,0.3,0.27,0.77,0.77,1.24c0.16,0.15,0.34,0.29,0.54,0.42l0,0l-2.5-0.46c0.16-0.15,0.31-0.29,0.47-0.44L1.79,25.12
		C0.73,26.1-0.06,27.39,0,28.95c0.01,0.18,0.02,0.37,0.04,0.55l16.12,1.63l-1.02,1.17l-14.73-1.2c0.86,2.48,3,4.37,5.59,4.09
		c0.11-0.01,0.22-0.03,0.33-0.04c1.17,0.63,5.43,2.68,11.14,2.68c1.4,0,2.9-0.13,4.45-0.43c-0.66,0.17-1.33,0.31-1.97,0.43
		c-1.52,0.29-2.35,0.22-3.5,0.12c-0.76-0.07-1.61-0.15-2.83-0.13c-2.92,0.02-8.01-1.45-8.07-1.46c-0.32-0.1-0.66,0.09-0.75,0.41
		c-0.09,0.32,0.09,0.66,0.41,0.75c0.21,0.06,5.21,1.51,8.3,1.51c0.04,0,0.08,0,0.12,0c1.16-0.01,1.98,0.06,2.7,0.12
		c0.55,0.05,1.06,0.09,1.62,0.09c0.63,0,1.33-0.06,2.21-0.23c1.59-0.31,3.26-0.69,4.59-1.29c-0.32,2.52,1.25,5.12,4.81,7.93
		c2.07,1.63,5.54,4.36,10.13,5.89c5.76,1.92,10.81,2.63,15.29,2.63c5.24,0,9.71-0.96,13.65-2.08c3.04-0.86,5.61-1.82,7.88-2.67
		c2.85-1.07,5.1-1.91,6.68-1.91c0,0,0,0,0,0c0.49,0,1.21,0.06,2.03,0.12c2.2,0.17,5.38,0.41,8.39-0.06
		c-2.27,1.13-4.55,1.28-10.52,1.51c0,0,0,0-0.01,0l3.34,2.45c0.42-0.11,0.81-0.18,1.17-0.22C93.28,50.65,96.71,48.01,97.6,46.93z
		 M84.22,34.96c0.16,0.12,0.33,0.25,0.48,0.37c0.96,0.73,1.73,1.33,2.49,1.81c0.61,0.6,1.02,2.22,0.58,4.09
		c-0.26,1.12-0.98,2.91-2.9,4.15c0.41-0.66,0.71-1.43,0.89-2.3C86.27,40.53,85.65,37.54,84.22,34.96z M25.51,23.7
		c0.54,0.63,1.58,1.59,3.44,2.44c-2.02-0.38-3.41-1.06-4.36-1.78C24.89,24.14,25.2,23.92,25.51,23.7z M27.53,22.4
		c1.16,1.02,3.19,2.56,5.82,3.59c0,0,0,0.01,0,0.01l0.37,0.31c-4.38-0.78-6.41-2.42-7.2-3.28C26.86,22.81,27.19,22.6,27.53,22.4z
		 M36.13,18.63c1.51,2.76,3.7,4.02,5.35,4.58c0.48,0.17,0.97,0.28,1.45,0.37c-0.24,0.07-0.48,0.15-0.71,0.23
		c-3.65-1.13-5.68-3.5-6.65-4.99C35.75,18.76,35.94,18.69,36.13,18.63z M54.98,18.71c0.65,0.92,1.52,1.87,2.67,2.71c0,0,0,0,0,0
		c-0.57-0.02-1.13-0.02-1.69-0.01C55.52,20.54,55.2,19.6,54.98,18.71z M54.96,16.25c0.49,0.03,0.97,0.06,1.45,0.1
		c0.31,1.17,0.77,2.47,1.46,3.69C56.39,18.81,55.49,17.38,54.96,16.25z M38.16,19.53c1.08,0.9,2.79,2.05,5.21,2.92
		c-0.48-0.07-0.99-0.19-1.5-0.37C40.76,21.69,39.35,20.96,38.16,19.53z M34.55,25.13c-2.58-0.86-4.64-2.32-5.89-3.36
		c0.51-0.28,1.03-0.55,1.57-0.81c0.82,1.2,2.26,2.93,4.38,4.15C34.59,25.11,34.57,25.12,34.55,25.13z M27.56,27.05
		c-0.49-0.03-1.01-0.06-1.54-0.09c-0.24-0.24-0.47-0.49-0.66-0.73C25.98,26.54,26.71,26.82,27.56,27.05z M28.87,29.96
		c-3.59,0.17-5.6-0.24-6.72-0.75C24.34,29.71,27.12,29.89,28.87,29.96z M47,33.81c1.66,0.69,0.68,1.94-0.16,1.55
		c-0.84-0.39-2.02-0.99-3.62,0.07c-0.36,0.27-1.44-0.36-0.84-1.15C42.97,33.49,45.34,33.11,47,33.81z M44.05,35.8
		c0.42,0.1,0.65,0.01,0.97-0.13c0.35-0.15,1.12-0.22,1.38,0.03c0.62,0.01,1.05,0.41,1.06,1.11c0.01,0.7-0.74,0.74-1.32,0.64
		c-0.58-0.1-1.27,0.25-1.82,0.52c-0.54,0.27-1.7,0.3-1.76-0.88C42.49,35.91,43.63,35.7,44.05,35.8z M45.45,38.29
		c1.05-0.33,2.18,0.24,2.53,1.29c0.06,0.18,1.33,3.65,5.91,4.42c4.31,0.73,5.95-1.99,6.12-2.3c0.54-0.96,1.75-1.33,2.72-0.81
		c0.97,0.52,1.35,1.72,0.84,2.69c-0.11,0.21-2.46,4.57-8.24,4.57c-0.66,0-1.36-0.06-2.11-0.18c-7.1-1.19-9-6.91-9.08-7.15
		C43.81,39.77,44.39,38.63,45.45,38.29z M57.39,31.51c0.44-0.41,1.18-0.33,1.64,0.17c0.47,0.5,0.48,1.24,0.04,1.65
		c-0.44,0.41-1.18,0.33-1.64-0.17C56.96,32.66,56.94,31.92,57.39,31.51z M63.5,31.88c-2.41,0.62-5.44-2.02-3.3-4.7
		c1.07-1.34,3.47-0.88,4.51,0.57C65.85,29.33,65.66,31.32,63.5,31.88z M88.95,41.51c0.29-1.21,0.27-2.42,0.02-3.43
		c0.26,0.1,0.52,0.2,0.8,0.3c1.46,0.47,5.91,1.91,6.56,3.52c0.1,0.25,0.15,0.53,0.18,0.84c-3.23,0.22-4.64,0.86-5.9,2.2
		c-0.76,0.8-2.14,1.34-3.2,1.65c-0.72-0.04-1.39-0.09-1.99-0.14C87.21,45.31,88.46,43.61,88.95,41.51z M96.11,44.94
		c-0.23,0.45-0.65,1.01-1.35,1.19c-1.12,0.28-2.3,0.42-3.47,0.48C92.37,45.48,93.65,44.99,96.11,44.94z M70.88,20.41
		c13.65,7.43,17.16,13.68,20.98,15.68c0.56,0.29,1.14,0.53,1.73,0.74c-0.61-0.12-1.18-0.16-1.66-0.15
		c-1.82,0.05-3.87-1.86-5.38-3.09c-1.35-1.1-11.91-9.58-24.32-11.7c-0.7-1.79-1.05-3.48-1.21-4.9
		C64.55,17.67,67.9,18.79,70.88,20.41z M59.76,16.77c0.14,1.41,0.45,3.1,1.1,4.91c-0.06-0.01-0.13-0.02-0.19-0.03
		c-1.53-1.37-2.43-3.39-2.95-5.17C58.4,16.56,59.08,16.66,59.76,16.77z M53.28,16.18c0.15,1.3,0.51,3.37,1.34,5.26
		c-0.55,0.03-1.1,0.06-1.65,0.11c-1.14-1.21-2.17-3-2.18-3.02c-0.16-0.29-0.53-0.39-0.82-0.23c-0.29,0.16-0.39,0.53-0.23,0.82
		c0.05,0.08,0.79,1.38,1.77,2.57c-0.09,0.01-0.18,0.02-0.27,0.03c-3.44-1.57-6.56-4.72-6.59-4.75c-0.23-0.24-0.62-0.24-0.86-0.01
		c-0.24,0.23-0.24,0.62-0.01,0.86c0.11,0.11,2.14,2.17,4.8,3.84c-3.42-0.81-5.26-3.33-5.36-3.46c-0.19-0.27-0.57-0.34-0.84-0.14
		c-0.27,0.19-0.34,0.57-0.14,0.84c0.08,0.11,1.29,1.78,3.55,2.99c-4.02-0.98-6.45-2.89-7.51-3.9
		C43.05,16.73,48.21,16.07,53.28,16.18z M34.37,19.23c0.77,1.28,2.3,3.25,4.93,4.68c-2.66-0.36-4.91-1.81-6.41-4.12
		C33.38,19.59,33.87,19.41,34.37,19.23z M37.14,24.64c-0.2,0.01-0.4,0.03-0.59,0.05c-2.52-0.99-4.24-2.92-5.18-4.25
		c0.13-0.06,0.26-0.12,0.39-0.18C33.05,22.38,34.92,23.88,37.14,24.64z M23.27,25.26c0.2,0.38,0.55,0.96,1.04,1.59
		c-0.98-0.06-1.94-0.13-2.82-0.19C22.1,26.16,22.7,25.68,23.27,25.26z M23.76,31.53l-7.08-0.5c0.14-0.14,0.3-0.29,0.45-0.43
		L23.76,31.53z M11.74,34.23c1.97,0.25,5.06,0.55,8.47,0.55c0.58,0,1.17-0.01,1.77-0.03c-4.19,0.6-8.55,0.15-11.35-0.3
		C11.02,34.38,11.39,34.3,11.74,34.23z M11.7,35.85c1.68,0.23,3.72,0.42,5.89,0.42c2.18,0,4.5-0.19,6.7-0.73
		C19.4,37.1,14.92,36.66,11.7,35.85z M14.41,33.29c0.21-0.21,0.49-0.5,0.82-0.82l11.4,0.46c-0.06,0.08-0.13,0.15-0.19,0.23
		C22.26,33.76,17.7,33.58,14.41,33.29z M76.12,48.29c-2.25,0.84-4.8,1.79-7.79,2.64c-7.12,2.02-16.04,3.53-28.23-0.53
		c-4.39-1.46-7.75-4.11-9.76-5.7c-3.22-2.54-4.69-4.87-4.36-6.95c0.05-0.32,0.28-0.77,0.66-1.3c0.02-0.02,0.05-0.04,0.07-0.06
		c0.03-0.03,0.04-0.07,0.06-0.1c0.15-0.2,0.32-0.41,0.51-0.63c0.05-0.04,0.09-0.09,0.13-0.14c2.58-2.92,8.42-7.39,15.53-9.84
		c-2.08,2.64-3.34,5.97-3.34,9.6c0,8.59,6.96,15.55,15.55,15.55s15.55-6.96,15.55-15.55c0-3.32-1.06-6.39-2.83-8.92
		c5.44,1.75,9.97,4.06,12.33,5.67c0.14,0.1,0.26,0.18,0.39,0.27c3.02,2.63,4.7,7.05,4,10.55c-0.26,1.32-1,3.02-2.97,3.66
		c0,0,0,0,0,0C80.08,46.82,78.27,47.49,76.12,48.29z"/>
	<path class="st0" d="M70.27,53.12l3.26,3.73c1.41-0.62,2.77-1.22,4.07-1.81l-3.58-3.29C72.85,52.19,71.6,52.66,70.27,53.12z"/>
	<path class="st0" d="M89.54,52.41c-0.36-0.38-0.89-0.14-1.54,0.25l1.16,0.85C89.56,53.01,89.7,52.59,89.54,52.41z"/>
	<path class="st0" d="M68.41,63.41l-1.49-2.16c-0.91,0.34-1.87,0.68-2.89,1l1.02,2.44C66.25,64.28,67.37,63.85,68.41,63.41z"/>
	<path class="st0" d="M55.14,67.13c0.47-0.07,0.93-0.15,1.39-0.22l-0.24-2.8c-0.38,0.06-0.77,0.12-1.15,0.18V67.13z"/>
	<path class="st0" d="M59.51,66.31l-0.52-2.72c-0.48,0.1-0.97,0.2-1.47,0.29l0.26,2.79C58.36,66.56,58.94,66.44,59.51,66.31z"/>
	<path class="st0" d="M52.47,67.45c0.54-0.05,1.06-0.11,1.58-0.18l-0.03-2.81c-0.43,0.06-0.88,0.1-1.33,0.15L52.47,67.45z"/>
	<path class="st0" d="M51.59,64.74c-0.11,0.01-0.21,0.03-0.32,0.04c-0.45,0.04-0.89,0.08-1.33,0.1l-0.51,2.76
		c0.64-0.02,1.27-0.06,1.9-0.11L51.59,64.74z"/>
	<path class="st0" d="M74.49,60.45l-1.52-1.9c-1.4,0.72-3.02,1.49-4.91,2.25c0.53,0.78,1.03,1.52,1.44,2.14
		C71.51,62.05,73.2,61.17,74.49,60.45z"/>
	<path class="st0" d="M80.35,57.57l-1.94-1.79c-0.09,0.04-0.18,0.06-0.27,0.1c-0.98,0.41-2.21,1.11-3.76,1.94l1.58,1.81
		C77.69,58.66,79.1,58.03,80.35,57.57z"/>
	<path class="st0" d="M64,65.06l-1.03-2.48c-0.91,0.27-1.86,0.52-2.86,0.76l0.59,2.68C61.84,65.71,62.95,65.4,64,65.06z"/>
	<path class="st0" d="M52.03,10.92L50.86,0.11c-0.7,0.04-1.39,0.08-2.07,0.13l2.4,10.7C51.47,10.93,51.75,10.93,52.03,10.92z"/>
	<path class="st0" d="M49.8,11.04L47.61,0.35c-1.52,0.15-2.98,0.34-4.4,0.57l4.31,10.37C48.27,11.18,49.02,11.1,49.8,11.04z"/>
	<path class="st0" d="M46.49,11.43L42.14,1.1c-1.68,0.3-3.28,0.66-4.81,1.07l6.92,9.7C44.98,11.7,45.72,11.55,46.49,11.43z"/>
	<path class="st0" d="M53.9,10.9V0.02c-0.52,0.01-1.04,0.01-1.55,0.02l0.87,10.86C53.45,10.9,53.67,10.9,53.9,10.9z"/>
	<path class="st0" d="M102.7,30c0.24-1.18,0.26-2.33,0.11-3.47l-12.57,2.35c0.08,0.09,0.16,0.16,0.22,0.22
		c0.46,0.45,1.2,1.16,2.08,1.88l10.06-0.61C102.63,30.25,102.68,30.13,102.7,30z"/>
	<path class="st0" d="M16.87,12.78l9.99,7.41c1.29-1.04,2.85-2.18,4.69-3.29l-9.12-8.27C20.28,10,18.43,11.42,16.87,12.78z"/>
	<path class="st0" d="M55.09,10.93c0.25,0.01,0.49,0.02,0.75,0.03l0.82-10.93c-0.5-0.01-1-0.04-1.52-0.04c-0.02,0-0.03,0-0.05,0
		V10.93z"/>
	<path class="st0" d="M36.54,14.34l-7.93-9.06c-1.86,0.85-3.57,1.76-5.13,2.7l9.25,8.24C33.9,15.56,35.18,14.93,36.54,14.34z"/>
	<path class="st0" d="M43.01,12.15l-6.95-9.62c-2.2,0.64-4.25,1.37-6.14,2.17l7.74,9.17C39.32,13.21,41.1,12.62,43.01,12.15z"/>
	<path class="st0" d="M65.8,1.02c-1.37-0.26-2.78-0.47-4.22-0.64l-2.57,10.87c0.75,0.09,1.49,0.2,2.21,0.33L65.8,1.02z"/>
	<path class="st0" d="M57.09,11.06c0.27,0.02,0.54,0.04,0.82,0.07l2.56-10.86c-0.82-0.08-1.65-0.14-2.5-0.18L57.09,11.06z"/>
	<path class="st0" d="M102.05,31.69l-7.86,0.51c1.56,1.02,3.34,1.79,4.92,1.47C100.1,33.46,101.28,32.92,102.05,31.69z"/>
	<path class="st0" d="M93.14,13.68L82.47,21.5c1.06,0.84,2.02,1.67,2.88,2.45l12.9-5.78C96.84,16.69,95.14,15.2,93.14,13.68z"/>
	<path class="st0" d="M89.42,28.01l13.18-2.57c-0.51-2.1-1.67-4.16-3.42-6.22l-12.97,5.54C87.59,26.06,88.66,27.2,89.42,28.01z"/>
	<path class="st0" d="M78.76,5.07c-1.84-0.82-3.78-1.57-5.8-2.22l-7.19,9.81c1.76,0.52,3.44,1.12,5.02,1.79L78.76,5.07z"/>
	<path class="st0" d="M71.38,2.36c-1.39-0.41-2.82-0.77-4.29-1.08l-4.84,10.51c0.73,0.15,1.45,0.31,2.16,0.5L71.38,2.36z"/>
	<path class="st0" d="M86.37,9.08l-9.61,8.45c1.73,1.04,3.3,2.13,4.72,3.2l10.63-7.81c-1.43-1.05-2.98-2.1-4.67-3.18
		C87.09,9.52,86.73,9.3,86.37,9.08z"/>
	<path class="st0" d="M85.12,8.33c-1.61-0.94-3.31-1.84-5.1-2.68L72.01,15c1.27,0.59,2.48,1.22,3.63,1.87L85.12,8.33z"/>
</g>
</svg>
