<svg xmlns="http://www.w3.org/2000/svg" xmlns:xlink="http://www.w3.org/1999/xlink" width="463" zoomAndPan="magnify" viewBox="0 0 347.25 228.749994" height="305" preserveAspectRatio="xMidYMid meet" version="1.0"><defs><clipPath id="c13a2eb1d4"><path d="M 163 0.121094 L 175 0.121094 L 175 38 L 163 38 Z M 163 0.121094 " clip-rule="nonzero"/></clipPath><clipPath id="227d70dc41"><path d="M 175 0.121094 L 182 0.121094 L 182 38 L 175 38 Z M 175 0.121094 " clip-rule="nonzero"/></clipPath><clipPath id="083f3ded5e"><path d="M 303 89 L 345.753906 89 L 345.753906 105 L 303 105 Z M 303 89 " clip-rule="nonzero"/></clipPath><clipPath id="200583dee5"><path d="M 185 0.121094 L 191 0.121094 L 191 38 L 185 38 Z M 185 0.121094 " clip-rule="nonzero"/></clipPath><clipPath id="5d9cd47bea"><path d="M 191 0.121094 L 204 0.121094 L 204 38 L 191 38 Z M 191 0.121094 " clip-rule="nonzero"/></clipPath><clipPath id="e314b33fb6"><path d="M 163 0.121094 L 175 0.121094 L 175 38 L 163 38 Z M 163 0.121094 " clip-rule="nonzero"/></clipPath><clipPath id="c0817b40e5"><path d="M 175 0.121094 L 182 0.121094 L 182 38 L 175 38 Z M 175 0.121094 " clip-rule="nonzero"/></clipPath><clipPath id="8e614046f5"><path d="M 303 89 L 345.753906 89 L 345.753906 105 L 303 105 Z M 303 89 " clip-rule="nonzero"/></clipPath><clipPath id="5ec1830d82"><path d="M 185 0.121094 L 191 0.121094 L 191 38 L 185 38 Z M 185 0.121094 " clip-rule="nonzero"/></clipPath><clipPath id="1854612e0f"><path d="M 191 0.121094 L 204 0.121094 L 204 38 L 191 38 Z M 191 0.121094 " clip-rule="nonzero"/></clipPath></defs><path fill="#7b7b7a" d="M 161.03125 188.5625 C 158.546875 188.359375 156.125 188.054688 153.742188 187.753906 L 139.089844 208.890625 C 143.1875 209.664062 147.289062 210.234375 151.320312 210.707031 Z M 161.03125 188.5625 " fill-opacity="1" fill-rule="nonzero"/><path fill="#7b7b7a" d="M 210.800781 185.941406 C 209.121094 186.277344 207.339844 186.578125 205.59375 186.847656 L 213.085938 204.757812 C 215.976562 203.851562 218.867188 202.875 221.753906 201.835938 Z M 210.800781 185.941406 " fill-opacity="1" fill-rule="nonzero"/><path fill="#7b7b7a" d="M 170.542969 189.132812 C 170.441406 189.132812 170.339844 189.132812 170.238281 189.132812 C 168.390625 189.066406 166.644531 188.898438 164.828125 188.796875 L 155.320312 211.109375 C 158.882812 211.410156 162.375 211.613281 165.804688 211.714844 Z M 170.542969 189.132812 " fill-opacity="1" fill-rule="nonzero"/><path fill="#7b7b7a" d="M 179.449219 189.164062 L 177.597656 211.546875 C 178.910156 211.480469 180.21875 211.410156 181.496094 211.3125 L 181.296875 189.164062 C 180.691406 189.164062 180.050781 189.164062 179.449219 189.164062 Z M 179.449219 189.164062 " fill-opacity="1" fill-rule="nonzero"/><path fill="#7b7b7a" d="M 176.085938 189.164062 C 175.179688 189.164062 174.238281 189.164062 173.296875 189.164062 L 169.097656 211.78125 C 170.746094 211.78125 172.355469 211.78125 173.96875 211.746094 Z M 176.085938 189.164062 " fill-opacity="1" fill-rule="nonzero"/><path fill="#7b7b7a" d="M 186.875 188.863281 C 186.371094 188.898438 185.832031 188.929688 185.328125 188.929688 L 185.328125 210.941406 C 185.597656 210.90625 185.867188 210.90625 186.136719 210.875 C 187.007812 210.773438 187.882812 210.605469 188.757812 210.472656 Z M 186.875 188.863281 " fill-opacity="1" fill-rule="nonzero"/><path fill="#7b7b7a" d="M 209.523438 205.867188 L 201.863281 187.417969 C 200.082031 187.6875 198.199219 187.886719 196.351562 188.089844 L 200.820312 208.21875 C 203.710938 207.511719 206.632812 206.742188 209.523438 205.867188 Z M 209.523438 205.867188 " fill-opacity="1" fill-rule="nonzero"/><path fill="#7b7b7a" d="M 190.839844 188.695312 L 192.789062 209.898438 C 194.234375 209.628906 195.710938 209.328125 197.191406 208.992188 L 193.226562 188.425781 C 192.417969 188.492188 191.644531 188.628906 190.839844 188.695312 Z M 190.839844 188.695312 " fill-opacity="1" fill-rule="nonzero"/><path fill="#7b7b7a" d="M 106.457031 207.378906 C 100.308594 204.691406 94.898438 201.835938 90.226562 199.078125 L 82.9375 205.597656 C 87.742188 208.957031 93.183594 212.25 99.4375 215.207031 Z M 106.457031 207.378906 " fill-opacity="1" fill-rule="nonzero"/><path fill="#7b7b7a" d="M 61.867188 164.03125 C 65.09375 168.566406 68.6875 172.734375 72.585938 176.53125 L 89.890625 163.726562 C 86.363281 161.207031 83.171875 158.652344 80.316406 156.097656 Z M 61.867188 164.03125 " fill-opacity="1" fill-rule="nonzero"/><path fill="#7b7b7a" d="M 59.679688 160.804688 L 77.257812 153.277344 C 72.855469 149.074219 69.394531 145.007812 66.871094 141.546875 C 66.871094 141.546875 33.539062 149.546875 20.667969 152.335938 C 28.394531 154.050781 39.789062 155.125 56.625 155.828125 C 57.597656 157.542969 58.640625 159.191406 59.679688 160.804688 Z M 59.679688 160.804688 " fill-opacity="1" fill-rule="nonzero"/><path fill="#7b7b7a" d="M 130.6875 215.410156 C 123.328125 213.695312 116.539062 211.480469 110.355469 208.992188 L 103.46875 216.988281 C 109.753906 219.679688 116.808594 222.03125 124.671875 223.878906 Z M 130.6875 215.410156 " fill-opacity="1" fill-rule="nonzero"/><path fill="#7b7b7a" d="M 150.75 187.382812 C 144.230469 186.445312 138.082031 185.132812 132.335938 183.554688 L 115.835938 202.675781 C 122.421875 204.992188 129.140625 206.839844 135.863281 208.21875 Z M 150.75 187.382812 " fill-opacity="1" fill-rule="nonzero"/><path fill="#7b7b7a" d="M 147.992188 218.265625 C 143.15625 217.796875 138.515625 217.089844 134.046875 216.148438 L 128.132812 224.652344 C 133.140625 225.695312 138.449219 226.5 144.097656 227.039062 Z M 147.992188 218.265625 " fill-opacity="1" fill-rule="nonzero"/><path fill="#7b7b7a" d="M 75.710938 179.488281 C 80.953125 184.191406 86.664062 188.324219 92.648438 191.886719 L 111.230469 175.925781 C 104.847656 173 99.066406 169.84375 93.957031 166.484375 Z M 75.710938 179.488281 " fill-opacity="1" fill-rule="nonzero"/><path fill="#7b7b7a" d="M 215.335938 185 C 217.015625 187.519531 221.285156 193.9375 225.652344 200.421875 C 231.300781 198.304688 236.84375 196.019531 242.253906 193.703125 L 231.769531 180.5625 C 226.730469 182.140625 221.25 183.65625 215.335938 185 Z M 215.335938 185 " fill-opacity="1" fill-rule="nonzero"/><path fill="#7b7b7a" d="M 96.042969 193.871094 C 101.183594 196.691406 106.492188 199.179688 111.9375 201.261719 L 128.738281 182.511719 C 123.699219 181 118.890625 179.285156 114.457031 177.402344 Z M 96.042969 193.871094 " fill-opacity="1" fill-rule="nonzero"/><path fill="#7b7b7a" d="M 60.789062 185.199219 L 66.773438 180.765625 C 62.101562 176.195312 58.605469 172.96875 56.488281 174.144531 C 54.605469 175.386719 55.75 179.386719 59.917969 184.191406 C 60.1875 184.527344 60.523438 184.863281 60.789062 185.199219 Z M 60.789062 185.199219 " fill-opacity="1" fill-rule="nonzero"/><path fill="#7b7b7a" d="M 4.839844 140.035156 C 5.613281 144.335938 7.628906 147.5625 12.9375 149.949219 C 13.039062 149.914062 35.585938 144.335938 48.558594 141.144531 C 25.976562 139.597656 18.347656 134.691406 10.417969 134.761719 C 6.621094 134.792969 4.335938 137.214844 4.839844 140.035156 Z M 4.839844 140.035156 " fill-opacity="1" fill-rule="nonzero"/><path fill="#7b7b7a" d="M 79.542969 203.144531 L 86.765625 196.960938 C 80.078125 192.726562 75.410156 188.964844 73.191406 186.914062 C 72.015625 185.839844 70.871094 184.761719 69.796875 183.722656 L 63.445312 188.222656 C 67.578125 192.792969 72.789062 198.003906 79.542969 203.144531 Z M 79.542969 203.144531 " fill-opacity="1" fill-rule="nonzero"/><path fill="#7b7b7a" d="M 285.199219 175.386719 L 273.472656 166.28125 C 267.222656 167.457031 260.46875 169.976562 252.738281 172.933594 L 264.734375 183.789062 C 272.464844 180.328125 279.453125 177.371094 285.199219 175.386719 Z M 285.199219 175.386719 " fill-opacity="1" fill-rule="nonzero"/><path fill="#7b7b7a" d="M 164.292969 218.769531 C 160.125 218.90625 156.058594 218.839844 152.09375 218.601562 L 148.296875 227.507812 C 153.101562 227.878906 157.773438 227.980469 162.34375 227.910156 Z M 164.292969 218.769531 " fill-opacity="1" fill-rule="nonzero"/><path fill="#7b7b7a" d="M 286.746094 188.695312 C 290.578125 187.417969 293.703125 185.636719 296.089844 183.789062 L 291.351562 180.125 C 286.140625 182.78125 277.707031 183.183594 267.726562 186.445312 L 274.414062 192.492188 C 278.582031 191.183594 282.445312 190.140625 286.746094 188.695312 Z M 286.746094 188.695312 " fill-opacity="1" fill-rule="nonzero"/><path fill="#7b7b7a" d="M 327.980469 158.28125 C 330.96875 154.621094 332.988281 151.628906 335.640625 151.394531 C 338.296875 151.160156 341.621094 146.488281 333.324219 136.171875 C 328.851562 130.625 323.914062 127.46875 319.375 125.71875 C 329.1875 128.074219 338.09375 127.265625 337.691406 125.183594 C 337.121094 122.023438 331.878906 123.265625 324.417969 121.652344 C 316.957031 120.074219 304.222656 111 299.011719 105.054688 C 293.804688 99.070312 265.070312 65.230469 211.910156 48.195312 C 209.488281 47.421875 207.105469 46.75 204.71875 46.144531 C 204.785156 45.238281 204.851562 44.699219 204.851562 44.699219 C 205.019531 43.589844 204.246094 42.550781 203.140625 42.382812 C 202.0625 42.214844 200.988281 42.984375 200.820312 44.09375 C 200.820312 44.195312 200.753906 44.597656 200.6875 45.203125 C 197.59375 44.53125 194.535156 43.960938 191.511719 43.523438 C 191.511719 43.320312 191.476562 43.222656 191.476562 43.1875 C 191.410156 42.078125 190.335938 41.207031 189.328125 41.273438 C 188.351562 41.339844 187.613281 42.078125 187.480469 42.984375 C 157.671875 39.761719 131.125 48.53125 107.398438 61.265625 C 107.332031 61.097656 107.230469 60.929688 107.164062 60.761719 C 106.761719 59.722656 105.550781 59.21875 104.511719 59.621094 C 103.46875 60.023438 102.964844 61.199219 103.367188 62.273438 C 103.5 62.609375 103.636719 62.914062 103.804688 63.25 C 103.234375 63.550781 102.660156 63.886719 102.089844 64.222656 C 101.519531 63.550781 100.542969 63.285156 99.703125 63.6875 C 98.761719 64.15625 98.359375 65.230469 98.695312 66.171875 C 96.511719 67.449219 94.394531 68.761719 92.246094 70.070312 C 91.976562 69.800781 91.808594 69.632812 91.808594 69.601562 C 91.066406 68.761719 89.757812 68.695312 88.949219 69.464844 C 88.144531 70.207031 88.078125 71.449219 88.78125 72.289062 C 85.457031 74.441406 82.195312 76.589844 78.96875 78.808594 C 80.820312 76.824219 83.441406 74.238281 86.800781 71.316406 L 53.363281 46.480469 C 46.308594 53 41.234375 58.949219 37.871094 63.285156 L 76.449219 79.546875 L 74.367188 82.539062 L 35.855469 65.972656 C 34.8125 67.417969 34.007812 68.558594 33.503906 69.296875 C 27.453125 78.035156 25.503906 76.960938 19.15625 78.070312 C 16.5 78.507812 12.667969 80.050781 9.105469 82.503906 L 63.074219 93.863281 C 63.578125 94.097656 64.082031 94.332031 64.621094 94.570312 C 64.921875 94.871094 65.261719 95.207031 65.628906 95.476562 C 65.898438 96.484375 66.535156 98.0625 68.21875 99.644531 C 68.753906 100.148438 69.359375 100.617188 70.03125 101.054688 L 61.628906 99.507812 C 62.167969 99.003906 62.671875 98.535156 63.210938 98.03125 L 6.015625 84.992188 C 2.453125 88.285156 -0.203125 92.621094 0 97.863281 C 0.0351562 98.46875 0.0664062 99.105469 0.132812 99.710938 L 54.304688 105.1875 L 50.878906 109.121094 L 1.378906 105.085938 C 4.269531 113.421875 11.460938 119.773438 20.164062 118.832031 C 20.53125 118.796875 20.902344 118.730469 21.273438 118.695312 C 25.203125 120.8125 39.519531 127.703125 58.707031 127.703125 C 63.410156 127.703125 68.453125 127.265625 73.660156 126.257812 C 71.441406 126.828125 69.191406 127.300781 67.039062 127.703125 C 61.933594 128.675781 59.144531 128.441406 55.28125 128.105469 C 52.726562 127.871094 49.867188 127.601562 45.769531 127.667969 C 35.957031 127.738281 18.851562 122.796875 18.652344 122.761719 C 17.574219 122.425781 16.433594 123.066406 16.128906 124.140625 C 15.828125 125.214844 16.433594 126.359375 17.507812 126.660156 C 18.214844 126.863281 35.015625 131.734375 45.398438 131.734375 C 45.535156 131.734375 45.667969 131.734375 45.804688 131.734375 C 49.699219 131.703125 52.457031 131.9375 54.875 132.140625 C 56.722656 132.308594 58.4375 132.441406 60.320312 132.441406 C 62.4375 132.441406 64.789062 132.238281 67.746094 131.667969 C 73.089844 130.625 78.703125 129.347656 83.171875 127.332031 C 82.09375 135.800781 87.371094 144.539062 99.335938 153.980469 C 106.289062 159.460938 117.953125 168.632812 133.375 173.773438 C 152.730469 180.226562 169.703125 182.613281 184.757812 182.613281 C 202.367188 182.613281 217.386719 179.386719 230.628906 175.621094 C 240.84375 172.734375 249.480469 169.507812 257.109375 166.652344 C 266.683594 163.054688 274.246094 160.230469 279.554688 160.230469 C 281.203125 160.230469 283.621094 160.433594 286.378906 160.636719 C 293.769531 161.207031 304.457031 162.011719 314.570312 160.433594 C 306.941406 164.230469 299.28125 164.734375 279.21875 165.507812 C 279.21875 165.507812 279.21875 165.507812 279.1875 165.507812 L 290.410156 173.742188 C 291.820312 173.371094 293.132812 173.136719 294.339844 173 C 313.460938 170.785156 324.988281 161.914062 327.980469 158.28125 Z M 283.015625 118.058594 C 283.554688 118.460938 284.125 118.898438 284.628906 119.300781 C 287.855469 121.753906 290.441406 123.769531 292.996094 125.382812 C 295.046875 127.402344 296.425781 132.84375 294.945312 139.128906 C 294.074219 142.890625 291.652344 148.90625 285.199219 153.074219 C 286.578125 150.855469 287.585938 148.269531 288.191406 145.34375 C 289.90625 136.777344 287.820312 126.726562 283.015625 118.058594 Z M 85.726562 80.21875 C 87.539062 82.335938 91.035156 85.5625 97.285156 88.417969 C 90.496094 87.140625 85.824219 84.855469 82.632812 82.4375 C 83.640625 81.699219 84.683594 80.960938 85.726562 80.21875 Z M 92.511719 75.851562 C 96.410156 79.277344 103.234375 84.453125 112.070312 87.914062 C 112.070312 87.914062 112.070312 87.949219 112.070312 87.949219 L 113.3125 88.992188 C 98.59375 86.371094 91.773438 80.859375 89.117188 77.96875 C 90.261719 77.230469 91.371094 76.523438 92.511719 75.851562 Z M 121.414062 63.183594 C 126.488281 72.457031 133.847656 76.691406 139.390625 78.574219 C 141.003906 79.144531 142.652344 79.515625 144.265625 79.816406 C 143.457031 80.050781 142.652344 80.320312 141.878906 80.589844 C 129.613281 76.792969 122.789062 68.828125 119.53125 63.820312 C 120.136719 63.621094 120.773438 63.382812 121.414062 63.183594 Z M 184.757812 63.453125 C 186.941406 66.542969 189.863281 69.734375 193.730469 72.558594 C 191.8125 72.492188 189.933594 72.492188 188.050781 72.523438 C 186.570312 69.601562 185.496094 66.441406 184.757812 63.453125 Z M 184.691406 55.183594 C 186.335938 55.285156 187.949219 55.386719 189.5625 55.519531 C 190.605469 59.453125 192.148438 63.820312 194.46875 67.921875 C 189.496094 63.789062 186.472656 58.980469 184.691406 55.183594 Z M 128.234375 66.207031 C 131.863281 69.230469 137.609375 73.097656 145.742188 76.019531 C 144.128906 75.785156 142.414062 75.382812 140.703125 74.777344 C 136.972656 73.464844 132.234375 71.011719 128.234375 66.207031 Z M 116.101562 85.023438 C 107.433594 82.136719 100.511719 77.230469 96.308594 73.734375 C 98.023438 72.792969 99.773438 71.886719 101.585938 71.011719 C 104.34375 75.042969 109.179688 80.859375 116.304688 84.957031 C 116.238281 84.957031 116.171875 84.992188 116.101562 85.023438 Z M 92.613281 91.476562 C 90.96875 91.375 89.21875 91.277344 87.4375 91.175781 C 86.632812 90.367188 85.859375 89.527344 85.222656 88.722656 C 87.304688 89.761719 89.757812 90.703125 92.613281 91.476562 Z M 97.015625 101.257812 C 84.953125 101.828125 78.199219 100.449219 74.433594 98.734375 C 81.792969 100.417969 91.136719 101.019531 97.015625 101.257812 Z M 157.941406 114.195312 C 163.519531 116.511719 160.226562 120.714844 157.402344 119.402344 C 154.582031 118.09375 150.613281 116.074219 145.238281 119.636719 C 144.027344 120.546875 140.398438 118.429688 142.414062 115.773438 C 144.398438 113.117188 152.363281 111.839844 157.941406 114.195312 Z M 148.027344 120.882812 C 149.4375 121.21875 150.210938 120.914062 151.289062 120.445312 C 152.464844 119.941406 155.050781 119.707031 155.925781 120.546875 C 158.007812 120.578125 159.453125 121.921875 159.488281 124.273438 C 159.519531 126.628906 157 126.761719 155.050781 126.425781 C 153.101562 126.089844 150.78125 127.265625 148.933594 128.171875 C 147.121094 129.082031 143.222656 129.179688 143.019531 125.214844 C 142.785156 121.25 146.617188 120.546875 148.027344 120.882812 Z M 152.730469 129.25 C 156.261719 128.140625 160.058594 130.054688 161.234375 133.582031 C 161.4375 134.1875 165.703125 145.847656 181.09375 148.4375 C 195.578125 150.890625 201.089844 141.75 201.660156 140.707031 C 203.476562 137.480469 207.542969 136.238281 210.800781 137.984375 C 214.058594 139.734375 215.335938 143.765625 213.625 147.027344 C 213.253906 147.730469 205.355469 162.382812 185.933594 162.382812 C 183.714844 162.382812 181.363281 162.179688 178.84375 161.777344 C 154.984375 157.777344 148.597656 138.558594 148.328125 137.75 C 147.222656 134.222656 149.171875 130.390625 152.730469 129.25 Z M 192.855469 106.464844 C 194.335938 105.085938 196.820312 105.355469 198.367188 107.035156 C 199.945312 108.714844 199.980469 111.203125 198.5 112.582031 C 197.023438 113.957031 194.535156 113.691406 192.992188 112.007812 C 191.410156 110.328125 191.34375 107.84375 192.855469 106.464844 Z M 213.386719 107.707031 C 205.289062 109.792969 195.109375 100.921875 202.296875 91.914062 C 205.894531 87.410156 213.960938 88.957031 217.453125 93.828125 C 221.285156 99.140625 220.648438 105.828125 213.386719 107.707031 Z M 298.910156 140.070312 C 299.886719 136.003906 299.820312 131.9375 298.980469 128.542969 C 299.851562 128.878906 300.726562 129.214844 301.667969 129.550781 C 306.574219 131.128906 321.527344 135.96875 323.710938 141.378906 C 324.046875 142.21875 324.214844 143.160156 324.316406 144.203125 C 313.460938 144.941406 308.722656 147.09375 304.488281 151.597656 C 301.9375 154.285156 297.296875 156.097656 293.738281 157.140625 C 291.316406 157.007812 289.066406 156.839844 287.050781 156.671875 C 293.0625 152.839844 297.265625 147.125 298.910156 140.070312 Z M 322.972656 151.597656 C 322.199219 153.109375 320.789062 154.988281 318.4375 155.59375 C 314.671875 156.535156 310.707031 157.007812 306.773438 157.207031 C 310.40625 153.410156 314.707031 151.765625 322.972656 151.597656 Z M 238.1875 69.164062 C 284.058594 94.132812 295.855469 115.136719 308.691406 121.855469 C 310.574219 122.832031 312.519531 123.636719 314.503906 124.34375 C 312.453125 123.9375 310.539062 123.804688 308.925781 123.839844 C 302.808594 124.007812 295.921875 117.589844 290.847656 113.453125 C 286.308594 109.757812 250.824219 81.261719 209.121094 74.136719 C 206.769531 68.121094 205.59375 62.441406 205.054688 57.671875 C 216.917969 59.957031 228.175781 63.71875 238.1875 69.164062 Z M 200.820312 56.933594 C 201.289062 61.671875 202.332031 67.347656 204.515625 73.433594 C 204.316406 73.398438 204.078125 73.363281 203.878906 73.332031 C 198.738281 68.726562 195.710938 61.9375 193.964844 55.957031 C 196.25 56.226562 198.535156 56.5625 200.820312 56.933594 Z M 179.042969 54.949219 C 179.546875 59.316406 180.757812 66.273438 183.546875 72.625 C 181.699219 72.726562 179.851562 72.828125 178.003906 72.996094 C 174.171875 68.929688 170.710938 62.914062 170.675781 62.847656 C 170.140625 61.871094 168.894531 61.535156 167.921875 62.074219 C 166.945312 62.609375 166.609375 63.855469 167.148438 64.828125 C 167.316406 65.097656 169.804688 69.464844 173.097656 73.464844 C 172.792969 73.5 172.492188 73.53125 172.1875 73.566406 C 160.628906 68.289062 150.144531 57.703125 150.042969 57.605469 C 149.269531 56.796875 147.960938 56.796875 147.152344 57.570312 C 146.347656 58.34375 146.347656 59.652344 147.121094 60.460938 C 147.488281 60.832031 154.3125 67.753906 163.25 73.363281 C 151.757812 70.644531 145.574219 62.175781 145.238281 61.738281 C 144.601562 60.832031 143.324219 60.59375 142.414062 61.265625 C 141.507812 61.90625 141.273438 63.183594 141.945312 64.089844 C 142.214844 64.460938 146.28125 70.070312 153.875 74.136719 C 140.367188 70.84375 132.199219 64.425781 128.636719 61.03125 C 144.667969 56.796875 162.007812 54.578125 179.042969 54.949219 Z M 115.5 65.199219 C 118.085938 69.5 123.226562 76.121094 132.066406 80.925781 C 123.125 79.714844 115.566406 74.84375 110.523438 67.082031 C 112.171875 66.410156 113.816406 65.804688 115.5 65.199219 Z M 124.808594 83.378906 C 124.136719 83.414062 123.460938 83.480469 122.824219 83.546875 C 114.355469 80.21875 108.574219 73.734375 105.417969 69.265625 C 105.855469 69.0625 106.289062 68.863281 106.726562 68.660156 C 111.0625 75.785156 117.347656 80.824219 124.808594 83.378906 Z M 78.199219 85.460938 C 78.871094 86.738281 80.046875 88.6875 81.691406 90.804688 C 78.398438 90.605469 75.171875 90.367188 72.214844 90.167969 C 74.265625 88.488281 76.28125 86.875 78.199219 85.460938 Z M 79.84375 106.53125 L 56.050781 104.851562 C 56.523438 104.382812 57.058594 103.878906 57.5625 103.40625 Z M 39.453125 115.605469 C 46.070312 116.445312 56.457031 117.453125 67.914062 117.453125 C 69.863281 117.453125 71.847656 117.421875 73.863281 117.351562 C 59.78125 119.367188 45.128906 117.855469 35.722656 116.34375 C 37.03125 116.109375 38.277344 115.839844 39.453125 115.605469 Z M 39.316406 121.050781 C 44.960938 121.820312 51.816406 122.460938 59.109375 122.460938 C 66.4375 122.460938 74.230469 121.820312 81.625 120.007812 C 65.191406 125.25 50.136719 123.769531 39.316406 121.050781 Z M 48.425781 112.445312 C 49.128906 111.742188 50.070312 110.765625 51.179688 109.691406 L 89.488281 111.238281 C 89.285156 111.503906 89.050781 111.742188 88.851562 112.007812 C 74.804688 114.027344 59.480469 113.421875 48.425781 112.445312 Z M 255.796875 162.851562 C 248.234375 165.675781 239.667969 168.867188 229.621094 171.726562 C 205.691406 178.511719 175.71875 183.585938 134.753906 169.945312 C 120 165.039062 108.710938 156.132812 101.957031 150.789062 C 91.136719 142.253906 86.195312 134.425781 87.304688 127.433594 C 87.472656 126.359375 88.246094 124.847656 89.523438 123.066406 C 89.589844 123 89.691406 122.929688 89.757812 122.863281 C 89.859375 122.761719 89.890625 122.628906 89.960938 122.527344 C 90.464844 121.855469 91.035156 121.148438 91.671875 120.410156 C 91.839844 120.277344 91.976562 120.109375 92.109375 119.941406 C 100.78125 110.128906 120.40625 95.105469 144.296875 86.875 C 137.308594 95.746094 133.074219 106.933594 133.074219 119.132812 C 133.074219 148 156.460938 171.390625 185.328125 171.390625 C 214.195312 171.390625 237.582031 148 237.582031 119.132812 C 237.582031 107.976562 234.019531 97.660156 228.074219 89.160156 C 246.355469 95.039062 261.578125 102.800781 269.507812 108.210938 C 269.976562 108.546875 270.382812 108.816406 270.816406 109.121094 C 280.964844 117.957031 286.613281 132.8125 284.261719 144.574219 C 283.386719 149.007812 280.898438 154.722656 274.28125 156.871094 C 269.105469 157.914062 263.023438 160.164062 255.796875 162.851562 Z M 255.796875 162.851562 " fill-opacity="1" fill-rule="nonzero"/><path fill="#7b7b7a" d="M 236.136719 179.085938 L 247.09375 191.617188 C 251.832031 189.535156 256.402344 187.519531 260.769531 185.535156 L 248.738281 174.480469 C 244.808594 175.960938 240.609375 177.539062 236.136719 179.085938 Z M 236.136719 179.085938 " fill-opacity="1" fill-rule="nonzero"/><path fill="#7b7b7a" d="M 300.894531 176.699219 C 299.683594 175.421875 297.902344 176.226562 295.71875 177.539062 L 299.617188 180.394531 C 300.960938 178.714844 301.433594 177.304688 300.894531 176.699219 Z M 300.894531 176.699219 " fill-opacity="1" fill-rule="nonzero"/><path fill="#7b7b7a" d="M 229.886719 213.664062 L 224.882812 206.40625 C 221.824219 207.546875 218.597656 208.691406 215.167969 209.765625 L 218.597656 217.964844 C 222.628906 216.585938 226.394531 215.140625 229.886719 213.664062 Z M 229.886719 213.664062 " fill-opacity="1" fill-rule="nonzero"/><path fill="#7b7b7a" d="M 185.296875 226.164062 C 186.875 225.929688 188.421875 225.660156 189.964844 225.425781 L 189.160156 216.015625 C 187.882812 216.21875 186.570312 216.417969 185.292969 216.621094 L 185.292969 226.164062 Z M 185.296875 226.164062 " fill-opacity="1" fill-rule="nonzero"/><path fill="#7b7b7a" d="M 199.980469 223.410156 L 198.234375 214.269531 C 196.621094 214.605469 194.972656 214.941406 193.292969 215.242188 L 194.167969 224.617188 C 196.117188 224.25 198.066406 223.84375 199.980469 223.410156 Z M 199.980469 223.410156 " fill-opacity="1" fill-rule="nonzero"/><path fill="#7b7b7a" d="M 176.324219 227.238281 C 178.136719 227.070312 179.882812 226.871094 181.632812 226.632812 L 181.53125 217.191406 C 180.085938 217.394531 178.574219 217.527344 177.0625 217.695312 Z M 176.324219 227.238281 " fill-opacity="1" fill-rule="nonzero"/><path fill="#7b7b7a" d="M 173.367188 218.132812 C 172.996094 218.167969 172.660156 218.234375 172.289062 218.265625 C 170.777344 218.402344 169.300781 218.535156 167.820312 218.601562 L 166.105469 227.878906 C 168.257812 227.8125 170.375 227.675781 172.492188 227.507812 Z M 173.367188 218.132812 " fill-opacity="1" fill-rule="nonzero"/><path fill="#7b7b7a" d="M 250.320312 203.714844 L 245.210938 197.332031 C 240.507812 199.75 235.0625 202.339844 228.710938 204.890625 C 230.492188 207.511719 232.171875 210 233.550781 212.082031 C 240.304688 209.09375 245.984375 206.136719 250.320312 203.714844 Z M 250.320312 203.714844 " fill-opacity="1" fill-rule="nonzero"/><path fill="#7b7b7a" d="M 270.011719 194.039062 L 263.492188 188.023438 C 263.191406 188.15625 262.886719 188.226562 262.585938 188.359375 C 259.292969 189.738281 255.160156 192.089844 249.949219 194.878906 L 255.257812 200.960938 C 261.074219 197.699219 265.8125 195.582031 270.011719 194.039062 Z M 270.011719 194.039062 " fill-opacity="1" fill-rule="nonzero"/><path fill="#7b7b7a" d="M 215.070312 219.207031 L 211.605469 210.875 C 208.550781 211.78125 205.355469 212.621094 201.996094 213.429688 L 203.980469 222.433594 C 207.808594 221.390625 211.539062 220.351562 215.070312 219.207031 Z M 215.070312 219.207031 " fill-opacity="1" fill-rule="nonzero"/><g clip-path="url(#c13a2eb1d4)"><path fill="#7b7b7a" d="M 174.84375 37.273438 L 170.914062 0.945312 C 168.558594 1.082031 166.242188 1.214844 163.957031 1.382812 L 172.019531 37.339844 C 172.960938 37.308594 173.902344 37.308594 174.84375 37.273438 Z M 174.84375 37.273438 " fill-opacity="1" fill-rule="nonzero"/></g><path fill="#7b7b7a" d="M 167.351562 37.675781 L 159.992188 1.753906 C 154.882812 2.257812 149.976562 2.894531 145.203125 3.667969 L 159.6875 38.515625 C 162.207031 38.148438 164.730469 37.878906 167.351562 37.675781 Z M 167.351562 37.675781 " fill-opacity="1" fill-rule="nonzero"/><path fill="#7b7b7a" d="M 156.226562 38.988281 L 141.609375 4.273438 C 135.964844 5.28125 130.585938 6.492188 125.445312 7.871094 L 148.699219 40.464844 C 151.152344 39.894531 153.640625 39.390625 156.226562 38.988281 Z M 156.226562 38.988281 " fill-opacity="1" fill-rule="nonzero"/><g clip-path="url(#227d70dc41)"><path fill="#7b7b7a" d="M 181.128906 37.207031 L 181.128906 0.644531 C 179.378906 0.679688 177.632812 0.679688 175.917969 0.710938 L 178.84375 37.207031 C 179.617188 37.207031 180.355469 37.207031 181.128906 37.207031 Z M 181.128906 37.207031 " fill-opacity="1" fill-rule="nonzero"/></g><g clip-path="url(#083f3ded5e)"><path fill="#7b7b7a" d="M 345.117188 101.390625 C 345.925781 97.425781 345.992188 93.5625 345.488281 89.730469 L 303.246094 97.628906 C 303.515625 97.929688 303.785156 98.164062 303.984375 98.367188 C 305.53125 99.878906 308.019531 102.265625 310.976562 104.683594 L 344.78125 102.632812 C 344.882812 102.230469 345.050781 101.828125 345.117188 101.390625 Z M 345.117188 101.390625 " fill-opacity="1" fill-rule="nonzero"/></g><path fill="#7b7b7a" d="M 56.691406 43.523438 L 90.261719 68.425781 C 94.597656 64.929688 99.839844 61.097656 106.023438 57.367188 L 75.375 29.578125 C 68.148438 34.183594 61.933594 38.953125 56.691406 43.523438 Z M 56.691406 43.523438 " fill-opacity="1" fill-rule="nonzero"/><g clip-path="url(#200583dee5)"><path fill="#7b7b7a" d="M 185.125 37.308594 C 185.96875 37.339844 186.773438 37.375 187.648438 37.40625 L 190.402344 0.679688 C 188.722656 0.644531 187.042969 0.542969 185.296875 0.542969 C 185.226562 0.542969 185.195312 0.542969 185.125 0.542969 Z M 185.125 37.308594 " fill-opacity="1" fill-rule="nonzero"/></g><path fill="#7b7b7a" d="M 122.789062 48.765625 L 96.140625 18.320312 C 89.890625 21.175781 84.144531 24.234375 78.902344 27.394531 L 109.988281 55.082031 C 113.917969 52.867188 118.21875 50.75 122.789062 48.765625 Z M 122.789062 48.765625 " fill-opacity="1" fill-rule="nonzero"/><path fill="#7b7b7a" d="M 144.53125 41.40625 L 121.175781 9.078125 C 113.785156 11.230469 106.894531 13.683594 100.542969 16.371094 L 126.554688 47.1875 C 132.132812 44.96875 138.113281 42.984375 144.53125 41.40625 Z M 144.53125 41.40625 " fill-opacity="1" fill-rule="nonzero"/><path fill="#7b7b7a" d="M 221.117188 4.003906 C 216.511719 3.132812 211.773438 2.425781 206.9375 1.855469 L 198.300781 38.382812 C 200.820312 38.683594 203.308594 39.054688 205.726562 39.492188 Z M 221.117188 4.003906 " fill-opacity="1" fill-rule="nonzero"/><g clip-path="url(#5d9cd47bea)"><path fill="#7b7b7a" d="M 191.847656 37.742188 C 192.753906 37.8125 193.664062 37.878906 194.601562 37.980469 L 203.207031 1.484375 C 200.449219 1.214844 197.660156 1.015625 194.804688 0.878906 Z M 191.847656 37.742188 " fill-opacity="1" fill-rule="nonzero"/></g><path fill="#7b7b7a" d="M 342.933594 107.070312 L 316.519531 108.785156 C 321.761719 112.210938 327.746094 114.800781 333.054688 113.722656 C 336.378906 113.019531 340.347656 111.203125 342.933594 107.070312 Z M 342.933594 107.070312 " fill-opacity="1" fill-rule="nonzero"/><path fill="#7b7b7a" d="M 312.992188 46.546875 L 277.136719 72.828125 C 280.699219 75.648438 283.925781 78.4375 286.8125 81.058594 L 330.164062 61.636719 C 325.425781 56.664062 319.710938 51.65625 312.992188 46.546875 Z M 312.992188 46.546875 " fill-opacity="1" fill-rule="nonzero"/><path fill="#7b7b7a" d="M 300.492188 94.703125 L 344.78125 86.066406 C 343.066406 79.011719 339.167969 72.085938 333.289062 65.164062 L 289.703125 83.78125 C 294.339844 88.152344 297.9375 91.980469 300.492188 94.703125 Z M 300.492188 94.703125 " fill-opacity="1" fill-rule="nonzero"/><path fill="#7b7b7a" d="M 264.667969 17.613281 C 258.484375 14.859375 251.964844 12.339844 245.179688 10.15625 L 221.015625 43.121094 C 226.929688 44.867188 232.578125 46.882812 237.886719 49.136719 Z M 264.667969 17.613281 " fill-opacity="1" fill-rule="nonzero"/><path fill="#7b7b7a" d="M 239.867188 8.507812 C 235.199219 7.128906 230.390625 5.921875 225.453125 4.878906 L 209.1875 40.195312 C 211.640625 40.699219 214.058594 41.238281 216.445312 41.878906 Z M 239.867188 8.507812 " fill-opacity="1" fill-rule="nonzero"/><path fill="#7b7b7a" d="M 290.242188 31.089844 L 257.949219 59.484375 C 263.761719 62.980469 269.039062 66.644531 273.808594 70.238281 L 309.53125 43.996094 C 304.726562 40.464844 299.515625 36.9375 293.835938 33.308594 C 292.660156 32.570312 291.453125 31.828125 290.242188 31.089844 Z M 290.242188 31.089844 " fill-opacity="1" fill-rule="nonzero"/><path fill="#7b7b7a" d="M 286.042969 28.570312 C 280.628906 25.410156 274.917969 22.386719 268.902344 19.5625 L 241.984375 50.984375 C 246.253906 52.964844 250.320312 55.082031 254.183594 57.269531 Z M 286.042969 28.570312 " fill-opacity="1" fill-rule="nonzero"/><path fill="#7b7b7a" d="M 161.03125 188.5625 C 158.546875 188.359375 156.125 188.054688 153.742188 187.753906 L 139.089844 208.890625 C 143.1875 209.664062 147.289062 210.234375 151.320312 210.707031 Z M 161.03125 188.5625 " fill-opacity="1" fill-rule="nonzero"/><path fill="#7b7b7a" d="M 210.800781 185.941406 C 209.121094 186.277344 207.339844 186.578125 205.59375 186.847656 L 213.085938 204.757812 C 215.976562 203.851562 218.867188 202.875 221.753906 201.835938 Z M 210.800781 185.941406 " fill-opacity="1" fill-rule="nonzero"/><path fill="#7b7b7a" d="M 170.542969 189.132812 C 170.441406 189.132812 170.339844 189.132812 170.238281 189.132812 C 168.390625 189.066406 166.644531 188.898438 164.828125 188.796875 L 155.320312 211.109375 C 158.882812 211.410156 162.375 211.613281 165.804688 211.714844 Z M 170.542969 189.132812 " fill-opacity="1" fill-rule="nonzero"/><path fill="#7b7b7a" d="M 179.449219 189.164062 L 177.597656 211.546875 C 178.910156 211.480469 180.21875 211.410156 181.496094 211.3125 L 181.296875 189.164062 C 180.691406 189.164062 180.050781 189.164062 179.449219 189.164062 Z M 179.449219 189.164062 " fill-opacity="1" fill-rule="nonzero"/><path fill="#7b7b7a" d="M 176.085938 189.164062 C 175.179688 189.164062 174.238281 189.164062 173.296875 189.164062 L 169.097656 211.78125 C 170.746094 211.78125 172.355469 211.78125 173.96875 211.746094 Z M 176.085938 189.164062 " fill-opacity="1" fill-rule="nonzero"/><path fill="#7b7b7a" d="M 186.875 188.863281 C 186.371094 188.898438 185.832031 188.929688 185.328125 188.929688 L 185.328125 210.941406 C 185.597656 210.90625 185.867188 210.90625 186.136719 210.875 C 187.007812 210.773438 187.882812 210.605469 188.757812 210.472656 Z M 186.875 188.863281 " fill-opacity="1" fill-rule="nonzero"/><path fill="#7b7b7a" d="M 209.523438 205.867188 L 201.863281 187.417969 C 200.082031 187.6875 198.199219 187.886719 196.351562 188.089844 L 200.820312 208.21875 C 203.710938 207.511719 206.632812 206.742188 209.523438 205.867188 Z M 209.523438 205.867188 " fill-opacity="1" fill-rule="nonzero"/><path fill="#7b7b7a" d="M 190.839844 188.695312 L 192.789062 209.898438 C 194.234375 209.628906 195.710938 209.328125 197.191406 208.992188 L 193.226562 188.425781 C 192.417969 188.492188 191.644531 188.628906 190.839844 188.695312 Z M 190.839844 188.695312 " fill-opacity="1" fill-rule="nonzero"/><path fill="#7b7b7a" d="M 106.457031 207.378906 C 100.308594 204.691406 94.898438 201.835938 90.226562 199.078125 L 82.9375 205.597656 C 87.742188 208.957031 93.183594 212.25 99.4375 215.207031 Z M 106.457031 207.378906 " fill-opacity="1" fill-rule="nonzero"/><path fill="#7b7b7a" d="M 61.867188 164.03125 C 65.09375 168.566406 68.6875 172.734375 72.585938 176.53125 L 89.890625 163.726562 C 86.363281 161.207031 83.171875 158.652344 80.316406 156.097656 Z M 61.867188 164.03125 " fill-opacity="1" fill-rule="nonzero"/><path fill="#7b7b7a" d="M 59.679688 160.804688 L 77.257812 153.277344 C 72.855469 149.074219 69.394531 145.007812 66.871094 141.546875 C 66.871094 141.546875 33.539062 149.546875 20.667969 152.335938 C 28.394531 154.050781 39.789062 155.125 56.625 155.828125 C 57.597656 157.542969 58.640625 159.191406 59.679688 160.804688 Z M 59.679688 160.804688 " fill-opacity="1" fill-rule="nonzero"/><path fill="#7b7b7a" d="M 130.6875 215.410156 C 123.328125 213.695312 116.539062 211.480469 110.355469 208.992188 L 103.46875 216.988281 C 109.753906 219.679688 116.808594 222.03125 124.671875 223.878906 Z M 130.6875 215.410156 " fill-opacity="1" fill-rule="nonzero"/><path fill="#7b7b7a" d="M 150.75 187.382812 C 144.230469 186.445312 138.082031 185.132812 132.335938 183.554688 L 115.835938 202.675781 C 122.421875 204.992188 129.140625 206.839844 135.863281 208.21875 Z M 150.75 187.382812 " fill-opacity="1" fill-rule="nonzero"/><path fill="#7b7b7a" d="M 147.992188 218.265625 C 143.15625 217.796875 138.515625 217.089844 134.046875 216.148438 L 128.132812 224.652344 C 133.140625 225.695312 138.449219 226.5 144.097656 227.039062 Z M 147.992188 218.265625 " fill-opacity="1" fill-rule="nonzero"/><path fill="#7b7b7a" d="M 75.710938 179.488281 C 80.953125 184.191406 86.664062 188.324219 92.648438 191.886719 L 111.230469 175.925781 C 104.847656 173 99.066406 169.84375 93.957031 166.484375 Z M 75.710938 179.488281 " fill-opacity="1" fill-rule="nonzero"/><path fill="#7b7b7a" d="M 215.335938 185 C 217.015625 187.519531 221.285156 193.9375 225.652344 200.421875 C 231.300781 198.304688 236.84375 196.019531 242.253906 193.703125 L 231.769531 180.5625 C 226.730469 182.140625 221.25 183.65625 215.335938 185 Z M 215.335938 185 " fill-opacity="1" fill-rule="nonzero"/><path fill="#7b7b7a" d="M 96.042969 193.871094 C 101.183594 196.691406 106.492188 199.179688 111.9375 201.261719 L 128.738281 182.511719 C 123.699219 181 118.890625 179.285156 114.457031 177.402344 Z M 96.042969 193.871094 " fill-opacity="1" fill-rule="nonzero"/><path fill="#7b7b7a" d="M 60.789062 185.199219 L 66.773438 180.765625 C 62.101562 176.195312 58.605469 172.96875 56.488281 174.144531 C 54.605469 175.386719 55.75 179.386719 59.917969 184.191406 C 60.1875 184.527344 60.523438 184.863281 60.789062 185.199219 Z M 60.789062 185.199219 " fill-opacity="1" fill-rule="nonzero"/><path fill="#7b7b7a" d="M 4.839844 140.035156 C 5.613281 144.335938 7.628906 147.5625 12.9375 149.949219 C 13.039062 149.914062 35.585938 144.335938 48.558594 141.144531 C 25.976562 139.597656 18.347656 134.691406 10.417969 134.761719 C 6.621094 134.792969 4.335938 137.214844 4.839844 140.035156 Z M 4.839844 140.035156 " fill-opacity="1" fill-rule="nonzero"/><path fill="#7b7b7a" d="M 79.542969 203.144531 L 86.765625 196.960938 C 80.078125 192.726562 75.410156 188.964844 73.191406 186.914062 C 72.015625 185.839844 70.871094 184.761719 69.796875 183.722656 L 63.445312 188.222656 C 67.578125 192.792969 72.789062 198.003906 79.542969 203.144531 Z M 79.542969 203.144531 " fill-opacity="1" fill-rule="nonzero"/><path fill="#7b7b7a" d="M 285.199219 175.386719 L 273.472656 166.28125 C 267.222656 167.457031 260.46875 169.976562 252.738281 172.933594 L 264.734375 183.789062 C 272.464844 180.328125 279.453125 177.371094 285.199219 175.386719 Z M 285.199219 175.386719 " fill-opacity="1" fill-rule="nonzero"/><path fill="#7b7b7a" d="M 164.292969 218.769531 C 160.125 218.90625 156.058594 218.839844 152.09375 218.601562 L 148.296875 227.507812 C 153.101562 227.878906 157.773438 227.980469 162.34375 227.910156 Z M 164.292969 218.769531 " fill-opacity="1" fill-rule="nonzero"/><path fill="#7b7b7a" d="M 286.746094 188.695312 C 290.578125 187.417969 293.703125 185.636719 296.089844 183.789062 L 291.351562 180.125 C 286.140625 182.78125 277.707031 183.183594 267.726562 186.445312 L 274.414062 192.492188 C 278.582031 191.183594 282.445312 190.140625 286.746094 188.695312 Z M 286.746094 188.695312 " fill-opacity="1" fill-rule="nonzero"/><path fill="#7b7b7a" d="M 327.980469 158.28125 C 330.96875 154.621094 332.988281 151.628906 335.640625 151.394531 C 338.296875 151.160156 341.621094 146.488281 333.324219 136.171875 C 328.851562 130.625 323.914062 127.46875 319.375 125.71875 C 329.1875 128.074219 338.09375 127.265625 337.691406 125.183594 C 337.121094 122.023438 331.878906 123.265625 324.417969 121.652344 C 316.957031 120.074219 304.222656 111 299.011719 105.054688 C 293.804688 99.070312 265.070312 65.230469 211.910156 48.195312 C 209.488281 47.421875 207.105469 46.75 204.71875 46.144531 C 204.785156 45.238281 204.851562 44.699219 204.851562 44.699219 C 205.019531 43.589844 204.246094 42.550781 203.140625 42.382812 C 202.0625 42.214844 200.988281 42.984375 200.820312 44.09375 C 200.820312 44.195312 200.753906 44.597656 200.6875 45.203125 C 197.59375 44.53125 194.535156 43.960938 191.511719 43.523438 C 191.511719 43.320312 191.476562 43.222656 191.476562 43.1875 C 191.410156 42.078125 190.335938 41.207031 189.328125 41.273438 C 188.351562 41.339844 187.613281 42.078125 187.480469 42.984375 C 157.671875 39.761719 131.125 48.53125 107.398438 61.265625 C 107.332031 61.097656 107.230469 60.929688 107.164062 60.761719 C 106.761719 59.722656 105.550781 59.21875 104.511719 59.621094 C 103.46875 60.023438 102.964844 61.199219 103.367188 62.273438 C 103.5 62.609375 103.636719 62.914062 103.804688 63.25 C 103.234375 63.550781 102.660156 63.886719 102.089844 64.222656 C 101.519531 63.550781 100.542969 63.285156 99.703125 63.6875 C 98.761719 64.15625 98.359375 65.230469 98.695312 66.171875 C 96.511719 67.449219 94.394531 68.761719 92.246094 70.070312 C 91.976562 69.800781 91.808594 69.632812 91.808594 69.601562 C 91.066406 68.761719 89.757812 68.695312 88.949219 69.464844 C 88.144531 70.207031 88.078125 71.449219 88.78125 72.289062 C 85.457031 74.441406 82.195312 76.589844 78.96875 78.808594 C 80.820312 76.824219 83.441406 74.238281 86.800781 71.316406 L 53.363281 46.480469 C 46.308594 53 41.234375 58.949219 37.871094 63.285156 L 76.449219 79.546875 L 74.367188 82.539062 L 35.855469 65.972656 C 34.8125 67.417969 34.007812 68.558594 33.503906 69.296875 C 27.453125 78.035156 25.503906 76.960938 19.15625 78.070312 C 16.5 78.507812 12.667969 80.050781 9.105469 82.503906 L 63.074219 93.863281 C 63.578125 94.097656 64.082031 94.332031 64.621094 94.570312 C 64.921875 94.871094 65.261719 95.207031 65.628906 95.476562 C 65.898438 96.484375 66.535156 98.0625 68.21875 99.644531 C 68.753906 100.148438 69.359375 100.617188 70.03125 101.054688 L 61.628906 99.507812 C 62.167969 99.003906 62.671875 98.535156 63.210938 98.03125 L 6.015625 84.992188 C 2.453125 88.285156 -0.203125 92.621094 0 97.863281 C 0.0351562 98.46875 0.0664062 99.105469 0.132812 99.710938 L 54.304688 105.1875 L 50.878906 109.121094 L 1.378906 105.085938 C 4.269531 113.421875 11.460938 119.773438 20.164062 118.832031 C 20.53125 118.796875 20.902344 118.730469 21.273438 118.695312 C 25.203125 120.8125 39.519531 127.703125 58.707031 127.703125 C 63.410156 127.703125 68.453125 127.265625 73.660156 126.257812 C 71.441406 126.828125 69.191406 127.300781 67.039062 127.703125 C 61.933594 128.675781 59.144531 128.441406 55.28125 128.105469 C 52.726562 127.871094 49.867188 127.601562 45.769531 127.667969 C 35.957031 127.738281 18.851562 122.796875 18.652344 122.761719 C 17.574219 122.425781 16.433594 123.066406 16.128906 124.140625 C 15.828125 125.214844 16.433594 126.359375 17.507812 126.660156 C 18.214844 126.863281 35.015625 131.734375 45.398438 131.734375 C 45.535156 131.734375 45.667969 131.734375 45.804688 131.734375 C 49.699219 131.703125 52.457031 131.9375 54.875 132.140625 C 56.722656 132.308594 58.4375 132.441406 60.320312 132.441406 C 62.4375 132.441406 64.789062 132.238281 67.746094 131.667969 C 73.089844 130.625 78.703125 129.347656 83.171875 127.332031 C 82.09375 135.800781 87.371094 144.539062 99.335938 153.980469 C 106.289062 159.460938 117.953125 168.632812 133.375 173.773438 C 152.730469 180.226562 169.703125 182.613281 184.757812 182.613281 C 202.367188 182.613281 217.386719 179.386719 230.628906 175.621094 C 240.84375 172.734375 249.480469 169.507812 257.109375 166.652344 C 266.683594 163.054688 274.246094 160.230469 279.554688 160.230469 C 281.203125 160.230469 283.621094 160.433594 286.378906 160.636719 C 293.769531 161.207031 304.457031 162.011719 314.570312 160.433594 C 306.941406 164.230469 299.28125 164.734375 279.21875 165.507812 C 279.21875 165.507812 279.21875 165.507812 279.1875 165.507812 L 290.410156 173.742188 C 291.820312 173.371094 293.132812 173.136719 294.339844 173 C 313.460938 170.785156 324.988281 161.914062 327.980469 158.28125 Z M 283.015625 118.058594 C 283.554688 118.460938 284.125 118.898438 284.628906 119.300781 C 287.855469 121.753906 290.441406 123.769531 292.996094 125.382812 C 295.046875 127.402344 296.425781 132.84375 294.945312 139.128906 C 294.074219 142.890625 291.652344 148.90625 285.199219 153.074219 C 286.578125 150.855469 287.585938 148.269531 288.191406 145.34375 C 289.90625 136.777344 287.820312 126.726562 283.015625 118.058594 Z M 85.726562 80.21875 C 87.539062 82.335938 91.035156 85.5625 97.285156 88.417969 C 90.496094 87.140625 85.824219 84.855469 82.632812 82.4375 C 83.640625 81.699219 84.683594 80.960938 85.726562 80.21875 Z M 92.511719 75.851562 C 96.410156 79.277344 103.234375 84.453125 112.070312 87.914062 C 112.070312 87.914062 112.070312 87.949219 112.070312 87.949219 L 113.3125 88.992188 C 98.59375 86.371094 91.773438 80.859375 89.117188 77.96875 C 90.261719 77.230469 91.371094 76.523438 92.511719 75.851562 Z M 121.414062 63.183594 C 126.488281 72.457031 133.847656 76.691406 139.390625 78.574219 C 141.003906 79.144531 142.652344 79.515625 144.265625 79.816406 C 143.457031 80.050781 142.652344 80.320312 141.878906 80.589844 C 129.613281 76.792969 122.789062 68.828125 119.53125 63.820312 C 120.136719 63.621094 120.773438 63.382812 121.414062 63.183594 Z M 184.757812 63.453125 C 186.941406 66.542969 189.863281 69.734375 193.730469 72.558594 C 191.8125 72.492188 189.933594 72.492188 188.050781 72.523438 C 186.570312 69.601562 185.496094 66.441406 184.757812 63.453125 Z M 184.691406 55.183594 C 186.335938 55.285156 187.949219 55.386719 189.5625 55.519531 C 190.605469 59.453125 192.148438 63.820312 194.46875 67.921875 C 189.496094 63.789062 186.472656 58.980469 184.691406 55.183594 Z M 128.234375 66.207031 C 131.863281 69.230469 137.609375 73.097656 145.742188 76.019531 C 144.128906 75.785156 142.414062 75.382812 140.703125 74.777344 C 136.972656 73.464844 132.234375 71.011719 128.234375 66.207031 Z M 116.101562 85.023438 C 107.433594 82.136719 100.511719 77.230469 96.308594 73.734375 C 98.023438 72.792969 99.773438 71.886719 101.585938 71.011719 C 104.34375 75.042969 109.179688 80.859375 116.304688 84.957031 C 116.238281 84.957031 116.171875 84.992188 116.101562 85.023438 Z M 92.613281 91.476562 C 90.96875 91.375 89.21875 91.277344 87.4375 91.175781 C 86.632812 90.367188 85.859375 89.527344 85.222656 88.722656 C 87.304688 89.761719 89.757812 90.703125 92.613281 91.476562 Z M 97.015625 101.257812 C 84.953125 101.828125 78.199219 100.449219 74.433594 98.734375 C 81.792969 100.417969 91.136719 101.019531 97.015625 101.257812 Z M 157.941406 114.195312 C 163.519531 116.511719 160.226562 120.714844 157.402344 119.402344 C 154.582031 118.09375 150.613281 116.074219 145.238281 119.636719 C 144.027344 120.546875 140.398438 118.429688 142.414062 115.773438 C 144.398438 113.117188 152.363281 111.839844 157.941406 114.195312 Z M 148.027344 120.882812 C 149.4375 121.21875 150.210938 120.914062 151.289062 120.445312 C 152.464844 119.941406 155.050781 119.707031 155.925781 120.546875 C 158.007812 120.578125 159.453125 121.921875 159.488281 124.273438 C 159.519531 126.628906 157 126.761719 155.050781 126.425781 C 153.101562 126.089844 150.78125 127.265625 148.933594 128.171875 C 147.121094 129.082031 143.222656 129.179688 143.019531 125.214844 C 142.785156 121.25 146.617188 120.546875 148.027344 120.882812 Z M 152.730469 129.25 C 156.261719 128.140625 160.058594 130.054688 161.234375 133.582031 C 161.4375 134.1875 165.703125 145.847656 181.09375 148.4375 C 195.578125 150.890625 201.089844 141.75 201.660156 140.707031 C 203.476562 137.480469 207.542969 136.238281 210.800781 137.984375 C 214.058594 139.734375 215.335938 143.765625 213.625 147.027344 C 213.253906 147.730469 205.355469 162.382812 185.933594 162.382812 C 183.714844 162.382812 181.363281 162.179688 178.84375 161.777344 C 154.984375 157.777344 148.597656 138.558594 148.328125 137.75 C 147.222656 134.222656 149.171875 130.390625 152.730469 129.25 Z M 192.855469 106.464844 C 194.335938 105.085938 196.820312 105.355469 198.367188 107.035156 C 199.945312 108.714844 199.980469 111.203125 198.5 112.582031 C 197.023438 113.957031 194.535156 113.691406 192.992188 112.007812 C 191.410156 110.328125 191.34375 107.84375 192.855469 106.464844 Z M 213.386719 107.707031 C 205.289062 109.792969 195.109375 100.921875 202.296875 91.914062 C 205.894531 87.410156 213.960938 88.957031 217.453125 93.828125 C 221.285156 99.140625 220.648438 105.828125 213.386719 107.707031 Z M 298.910156 140.070312 C 299.886719 136.003906 299.820312 131.9375 298.980469 128.542969 C 299.851562 128.878906 300.726562 129.214844 301.667969 129.550781 C 306.574219 131.128906 321.527344 135.96875 323.710938 141.378906 C 324.046875 142.21875 324.214844 143.160156 324.316406 144.203125 C 313.460938 144.941406 308.722656 147.09375 304.488281 151.597656 C 301.9375 154.285156 297.296875 156.097656 293.738281 157.140625 C 291.316406 157.007812 289.066406 156.839844 287.050781 156.671875 C 293.0625 152.839844 297.265625 147.125 298.910156 140.070312 Z M 322.972656 151.597656 C 322.199219 153.109375 320.789062 154.988281 318.4375 155.59375 C 314.671875 156.535156 310.707031 157.007812 306.773438 157.207031 C 310.40625 153.410156 314.707031 151.765625 322.972656 151.597656 Z M 238.1875 69.164062 C 284.058594 94.132812 295.855469 115.136719 308.691406 121.855469 C 310.574219 122.832031 312.519531 123.636719 314.503906 124.34375 C 312.453125 123.9375 310.539062 123.804688 308.925781 123.839844 C 302.808594 124.007812 295.921875 117.589844 290.847656 113.453125 C 286.308594 109.757812 250.824219 81.261719 209.121094 74.136719 C 206.769531 68.121094 205.59375 62.441406 205.054688 57.671875 C 216.917969 59.957031 228.175781 63.71875 238.1875 69.164062 Z M 200.820312 56.933594 C 201.289062 61.671875 202.332031 67.347656 204.515625 73.433594 C 204.316406 73.398438 204.078125 73.363281 203.878906 73.332031 C 198.738281 68.726562 195.710938 61.9375 193.964844 55.957031 C 196.25 56.226562 198.535156 56.5625 200.820312 56.933594 Z M 179.042969 54.949219 C 179.546875 59.316406 180.757812 66.273438 183.546875 72.625 C 181.699219 72.726562 179.851562 72.828125 178.003906 72.996094 C 174.171875 68.929688 170.710938 62.914062 170.675781 62.847656 C 170.140625 61.871094 168.894531 61.535156 167.921875 62.074219 C 166.945312 62.609375 166.609375 63.855469 167.148438 64.828125 C 167.316406 65.097656 169.804688 69.464844 173.097656 73.464844 C 172.792969 73.5 172.492188 73.53125 172.1875 73.566406 C 160.628906 68.289062 150.144531 57.703125 150.042969 57.605469 C 149.269531 56.796875 147.960938 56.796875 147.152344 57.570312 C 146.347656 58.34375 146.347656 59.652344 147.121094 60.460938 C 147.488281 60.832031 154.3125 67.753906 163.25 73.363281 C 151.757812 70.644531 145.574219 62.175781 145.238281 61.738281 C 144.601562 60.832031 143.324219 60.59375 142.414062 61.265625 C 141.507812 61.90625 141.273438 63.183594 141.945312 64.089844 C 142.214844 64.460938 146.28125 70.070312 153.875 74.136719 C 140.367188 70.84375 132.199219 64.425781 128.636719 61.03125 C 144.667969 56.796875 162.007812 54.578125 179.042969 54.949219 Z M 115.5 65.199219 C 118.085938 69.5 123.226562 76.121094 132.066406 80.925781 C 123.125 79.714844 115.566406 74.84375 110.523438 67.082031 C 112.171875 66.410156 113.816406 65.804688 115.5 65.199219 Z M 124.808594 83.378906 C 124.136719 83.414062 123.460938 83.480469 122.824219 83.546875 C 114.355469 80.21875 108.574219 73.734375 105.417969 69.265625 C 105.855469 69.0625 106.289062 68.863281 106.726562 68.660156 C 111.0625 75.785156 117.347656 80.824219 124.808594 83.378906 Z M 78.199219 85.460938 C 78.871094 86.738281 80.046875 88.6875 81.691406 90.804688 C 78.398438 90.605469 75.171875 90.367188 72.214844 90.167969 C 74.265625 88.488281 76.28125 86.875 78.199219 85.460938 Z M 79.84375 106.53125 L 56.050781 104.851562 C 56.523438 104.382812 57.058594 103.878906 57.5625 103.40625 Z M 39.453125 115.605469 C 46.070312 116.445312 56.457031 117.453125 67.914062 117.453125 C 69.863281 117.453125 71.847656 117.421875 73.863281 117.351562 C 59.78125 119.367188 45.128906 117.855469 35.722656 116.34375 C 37.03125 116.109375 38.277344 115.839844 39.453125 115.605469 Z M 39.316406 121.050781 C 44.960938 121.820312 51.816406 122.460938 59.109375 122.460938 C 66.4375 122.460938 74.230469 121.820312 81.625 120.007812 C 65.191406 125.25 50.136719 123.769531 39.316406 121.050781 Z M 48.425781 112.445312 C 49.128906 111.742188 50.070312 110.765625 51.179688 109.691406 L 89.488281 111.238281 C 89.285156 111.503906 89.050781 111.742188 88.851562 112.007812 C 74.804688 114.027344 59.480469 113.421875 48.425781 112.445312 Z M 255.796875 162.851562 C 248.234375 165.675781 239.667969 168.867188 229.621094 171.726562 C 205.691406 178.511719 175.71875 183.585938 134.753906 169.945312 C 120 165.039062 108.710938 156.132812 101.957031 150.789062 C 91.136719 142.253906 86.195312 134.425781 87.304688 127.433594 C 87.472656 126.359375 88.246094 124.847656 89.523438 123.066406 C 89.589844 123 89.691406 122.929688 89.757812 122.863281 C 89.859375 122.761719 89.890625 122.628906 89.960938 122.527344 C 90.464844 121.855469 91.035156 121.148438 91.671875 120.410156 C 91.839844 120.277344 91.976562 120.109375 92.109375 119.941406 C 100.78125 110.128906 120.40625 95.105469 144.296875 86.875 C 137.308594 95.746094 133.074219 106.933594 133.074219 119.132812 C 133.074219 148 156.460938 171.390625 185.328125 171.390625 C 214.195312 171.390625 237.582031 148 237.582031 119.132812 C 237.582031 107.976562 234.019531 97.660156 228.074219 89.160156 C 246.355469 95.039062 261.578125 102.800781 269.507812 108.210938 C 269.976562 108.546875 270.382812 108.816406 270.816406 109.121094 C 280.964844 117.957031 286.613281 132.8125 284.261719 144.574219 C 283.386719 149.007812 280.898438 154.722656 274.28125 156.871094 C 269.105469 157.914062 263.023438 160.164062 255.796875 162.851562 Z M 255.796875 162.851562 " fill-opacity="1" fill-rule="nonzero"/><path fill="#7b7b7a" d="M 236.136719 179.085938 L 247.09375 191.617188 C 251.832031 189.535156 256.402344 187.519531 260.769531 185.535156 L 248.738281 174.480469 C 244.808594 175.960938 240.609375 177.539062 236.136719 179.085938 Z M 236.136719 179.085938 " fill-opacity="1" fill-rule="nonzero"/><path fill="#7b7b7a" d="M 300.894531 176.699219 C 299.683594 175.421875 297.902344 176.226562 295.71875 177.539062 L 299.617188 180.394531 C 300.960938 178.714844 301.433594 177.304688 300.894531 176.699219 Z M 300.894531 176.699219 " fill-opacity="1" fill-rule="nonzero"/><path fill="#7b7b7a" d="M 229.886719 213.664062 L 224.882812 206.40625 C 221.824219 207.546875 218.597656 208.691406 215.167969 209.765625 L 218.597656 217.964844 C 222.628906 216.585938 226.394531 215.140625 229.886719 213.664062 Z M 229.886719 213.664062 " fill-opacity="1" fill-rule="nonzero"/><path fill="#7b7b7a" d="M 185.296875 226.164062 C 186.875 225.929688 188.421875 225.660156 189.964844 225.425781 L 189.160156 216.015625 C 187.882812 216.21875 186.570312 216.417969 185.292969 216.621094 L 185.292969 226.164062 Z M 185.296875 226.164062 " fill-opacity="1" fill-rule="nonzero"/><path fill="#7b7b7a" d="M 199.980469 223.410156 L 198.234375 214.269531 C 196.621094 214.605469 194.972656 214.941406 193.292969 215.242188 L 194.167969 224.617188 C 196.117188 224.25 198.066406 223.84375 199.980469 223.410156 Z M 199.980469 223.410156 " fill-opacity="1" fill-rule="nonzero"/><path fill="#7b7b7a" d="M 176.324219 227.238281 C 178.136719 227.070312 179.882812 226.871094 181.632812 226.632812 L 181.53125 217.191406 C 180.085938 217.394531 178.574219 217.527344 177.0625 217.695312 Z M 176.324219 227.238281 " fill-opacity="1" fill-rule="nonzero"/><path fill="#7b7b7a" d="M 173.367188 218.132812 C 172.996094 218.167969 172.660156 218.234375 172.289062 218.265625 C 170.777344 218.402344 169.300781 218.535156 167.820312 218.601562 L 166.105469 227.878906 C 168.257812 227.8125 170.375 227.675781 172.492188 227.507812 Z M 173.367188 218.132812 " fill-opacity="1" fill-rule="nonzero"/><path fill="#7b7b7a" d="M 250.320312 203.714844 L 245.210938 197.332031 C 240.507812 199.75 235.0625 202.339844 228.710938 204.890625 C 230.492188 207.511719 232.171875 210 233.550781 212.082031 C 240.304688 209.09375 245.984375 206.136719 250.320312 203.714844 Z M 250.320312 203.714844 " fill-opacity="1" fill-rule="nonzero"/><path fill="#7b7b7a" d="M 270.011719 194.039062 L 263.492188 188.023438 C 263.191406 188.15625 262.886719 188.226562 262.585938 188.359375 C 259.292969 189.738281 255.160156 192.089844 249.949219 194.878906 L 255.257812 200.960938 C 261.074219 197.699219 265.8125 195.582031 270.011719 194.039062 Z M 270.011719 194.039062 " fill-opacity="1" fill-rule="nonzero"/><path fill="#7b7b7a" d="M 215.070312 219.207031 L 211.605469 210.875 C 208.550781 211.78125 205.355469 212.621094 201.996094 213.429688 L 203.980469 222.433594 C 207.808594 221.390625 211.539062 220.351562 215.070312 219.207031 Z M 215.070312 219.207031 " fill-opacity="1" fill-rule="nonzero"/><g clip-path="url(#e314b33fb6)"><path fill="#7b7b7a" d="M 174.84375 37.273438 L 170.914062 0.945312 C 168.558594 1.082031 166.242188 1.214844 163.957031 1.382812 L 172.019531 37.339844 C 172.960938 37.308594 173.902344 37.308594 174.84375 37.273438 Z M 174.84375 37.273438 " fill-opacity="1" fill-rule="nonzero"/></g><path fill="#7b7b7a" d="M 167.351562 37.675781 L 159.992188 1.753906 C 154.882812 2.257812 149.976562 2.894531 145.203125 3.667969 L 159.6875 38.515625 C 162.207031 38.148438 164.730469 37.878906 167.351562 37.675781 Z M 167.351562 37.675781 " fill-opacity="1" fill-rule="nonzero"/><path fill="#7b7b7a" d="M 156.226562 38.988281 L 141.609375 4.273438 C 135.964844 5.28125 130.585938 6.492188 125.445312 7.871094 L 148.699219 40.464844 C 151.152344 39.894531 153.640625 39.390625 156.226562 38.988281 Z M 156.226562 38.988281 " fill-opacity="1" fill-rule="nonzero"/><g clip-path="url(#c0817b40e5)"><path fill="#7b7b7a" d="M 181.128906 37.207031 L 181.128906 0.644531 C 179.378906 0.679688 177.632812 0.679688 175.917969 0.710938 L 178.84375 37.207031 C 179.617188 37.207031 180.355469 37.207031 181.128906 37.207031 Z M 181.128906 37.207031 " fill-opacity="1" fill-rule="nonzero"/></g><g clip-path="url(#8e614046f5)"><path fill="#7b7b7a" d="M 345.117188 101.390625 C 345.925781 97.425781 345.992188 93.5625 345.488281 89.730469 L 303.246094 97.628906 C 303.515625 97.929688 303.785156 98.164062 303.984375 98.367188 C 305.53125 99.878906 308.019531 102.265625 310.976562 104.683594 L 344.78125 102.632812 C 344.882812 102.230469 345.050781 101.828125 345.117188 101.390625 Z M 345.117188 101.390625 " fill-opacity="1" fill-rule="nonzero"/></g><path fill="#7b7b7a" d="M 56.691406 43.523438 L 90.261719 68.425781 C 94.597656 64.929688 99.839844 61.097656 106.023438 57.367188 L 75.375 29.578125 C 68.148438 34.183594 61.933594 38.953125 56.691406 43.523438 Z M 56.691406 43.523438 " fill-opacity="1" fill-rule="nonzero"/><g clip-path="url(#5ec1830d82)"><path fill="#7b7b7a" d="M 185.125 37.308594 C 185.96875 37.339844 186.773438 37.375 187.648438 37.40625 L 190.402344 0.679688 C 188.722656 0.644531 187.042969 0.542969 185.296875 0.542969 C 185.226562 0.542969 185.195312 0.542969 185.125 0.542969 Z M 185.125 37.308594 " fill-opacity="1" fill-rule="nonzero"/></g><path fill="#7b7b7a" d="M 122.789062 48.765625 L 96.140625 18.320312 C 89.890625 21.175781 84.144531 24.234375 78.902344 27.394531 L 109.988281 55.082031 C 113.917969 52.867188 118.21875 50.75 122.789062 48.765625 Z M 122.789062 48.765625 " fill-opacity="1" fill-rule="nonzero"/><path fill="#7b7b7a" d="M 144.53125 41.40625 L 121.175781 9.078125 C 113.785156 11.230469 106.894531 13.683594 100.542969 16.371094 L 126.554688 47.1875 C 132.132812 44.96875 138.113281 42.984375 144.53125 41.40625 Z M 144.53125 41.40625 " fill-opacity="1" fill-rule="nonzero"/><path fill="#7b7b7a" d="M 221.117188 4.003906 C 216.511719 3.132812 211.773438 2.425781 206.9375 1.855469 L 198.300781 38.382812 C 200.820312 38.683594 203.308594 39.054688 205.726562 39.492188 Z M 221.117188 4.003906 " fill-opacity="1" fill-rule="nonzero"/><g clip-path="url(#1854612e0f)"><path fill="#7b7b7a" d="M 191.847656 37.742188 C 192.753906 37.8125 193.664062 37.878906 194.601562 37.980469 L 203.207031 1.484375 C 200.449219 1.214844 197.660156 1.015625 194.804688 0.878906 Z M 191.847656 37.742188 " fill-opacity="1" fill-rule="nonzero"/></g><path fill="#7b7b7a" d="M 342.933594 107.070312 L 316.519531 108.785156 C 321.761719 112.210938 327.746094 114.800781 333.054688 113.722656 C 336.378906 113.019531 340.347656 111.203125 342.933594 107.070312 Z M 342.933594 107.070312 " fill-opacity="1" fill-rule="nonzero"/><path fill="#7b7b7a" d="M 312.992188 46.546875 L 277.136719 72.828125 C 280.699219 75.648438 283.925781 78.4375 286.8125 81.058594 L 330.164062 61.636719 C 325.425781 56.664062 319.710938 51.65625 312.992188 46.546875 Z M 312.992188 46.546875 " fill-opacity="1" fill-rule="nonzero"/><path fill="#7b7b7a" d="M 300.492188 94.703125 L 344.78125 86.066406 C 343.066406 79.011719 339.167969 72.085938 333.289062 65.164062 L 289.703125 83.78125 C 294.339844 88.152344 297.9375 91.980469 300.492188 94.703125 Z M 300.492188 94.703125 " fill-opacity="1" fill-rule="nonzero"/><path fill="#7b7b7a" d="M 264.667969 17.613281 C 258.484375 14.859375 251.964844 12.339844 245.179688 10.15625 L 221.015625 43.121094 C 226.929688 44.867188 232.578125 46.882812 237.886719 49.136719 Z M 264.667969 17.613281 " fill-opacity="1" fill-rule="nonzero"/><path fill="#7b7b7a" d="M 239.867188 8.507812 C 235.199219 7.128906 230.390625 5.921875 225.453125 4.878906 L 209.1875 40.195312 C 211.640625 40.699219 214.058594 41.238281 216.445312 41.878906 Z M 239.867188 8.507812 " fill-opacity="1" fill-rule="nonzero"/><path fill="#7b7b7a" d="M 290.242188 31.089844 L 257.949219 59.484375 C 263.761719 62.980469 269.039062 66.644531 273.808594 70.238281 L 309.53125 43.996094 C 304.726562 40.464844 299.515625 36.9375 293.835938 33.308594 C 292.660156 32.570312 291.453125 31.828125 290.242188 31.089844 Z M 290.242188 31.089844 " fill-opacity="1" fill-rule="nonzero"/><path fill="#7b7b7a" d="M 286.042969 28.570312 C 280.628906 25.410156 274.917969 22.386719 268.902344 19.5625 L 241.984375 50.984375 C 246.253906 52.964844 250.320312 55.082031 254.183594 57.269531 Z M 286.042969 28.570312 " fill-opacity="1" fill-rule="nonzero"/></svg>