<?xml version="1.0" encoding="utf-8"?>
<!-- Generator: Adobe Illustrator 28.0.0, SVG Export Plug-In . SVG Version: 6.00 Build 0)  -->
<svg version="1.1" id="Layer_1" xmlns="http://www.w3.org/2000/svg" xmlns:xlink="http://www.w3.org/1999/xlink" x="0px" y="0px"
	 viewBox="0 0 94.37 99.83" style="enable-background:new 0 0 94.37 99.83;" xml:space="preserve">
<style type="text/css">
	.st0{fill:#110E0D;}
</style>
<g>
	<path class="st0" d="M32.53,41.51c-1.29-0.77-2.22-1.42-2.71-2.04c-0.6-0.09-1.15-0.21-1.65-0.36
		C28.76,39.77,30.1,40.9,32.53,41.51z"/>
	<path class="st0" d="M25.83,33.89c-0.57-0.45-1.33-0.93-2.16-1.42c0.42,0.41,1.01,0.93,1.77,1.44C25.57,33.9,25.7,33.9,25.83,33.89
		z"/>
	<path class="st0" d="M29.8,38.65c0.1,0.36,0.42,0.76,0.94,1.18c-0.4-0.43-0.74-0.88-0.95-1.29C29.8,38.58,29.79,38.61,29.8,38.65z"
		/>
	<path class="st0" d="M36.43,37.27c0.65-0.64,0.82-2.62,0.43-3.63c-0.02-0.02-0.03-0.04-0.05-0.05c-0.11-0.09-0.23-0.18-0.35-0.27
		c0.33,1.3-0.01,3-0.23,3.88C36.3,37.23,36.36,37.25,36.43,37.27z"/>
	<path class="st0" d="M29.96,37.84c0.07,0.62,0.85,1.56,1.82,2.45c-1.02-1.23-1.52-2.06-1.43-2.61c0-0.02,0.02-0.04,0.03-0.07
		C30.2,37.64,30.06,37.71,29.96,37.84z"/>
	<path class="st0" d="M33.7,41.71c-1.24-1.27-2.45-3.25-2.53-4.06c-0.11-0.02-0.22-0.03-0.32-0.04c-0.05,0.04-0.09,0.07-0.1,0.13
		c-0.11,0.72,1.63,2.65,2.69,3.82C33.52,41.61,33.62,41.66,33.7,41.71z"/>
	<path class="st0" d="M35.86,37.01c0.45-1.78,0.46-3.28,0.03-4.12c-0.12-0.09-0.24-0.17-0.36-0.26c-0.01,0-0.02-0.01-0.03-0.02
		c0.04,0.82,0.1,2.68-0.01,4.17C35.6,36.86,35.73,36.94,35.86,37.01z"/>
	<path class="st0" d="M33.66,31.06c-0.13,0.83-0.33,2.91,0.76,4.56c-0.52-1.8-0.24-3.48-0.15-3.92
		C34.02,31.48,33.82,31.28,33.66,31.06z"/>
	<path class="st0" d="M30.28,34.32c-0.02-0.06-0.04-0.12-0.06-0.18c-1.07-0.83-2.7-1.35-4.42-1.91c-1.41-0.45-2.95-0.95-4.41-1.67
		c0.67,0.45,1.41,0.91,2.15,1.35c1.15,0.68,2.22,1.33,2.9,1.96C28.16,33.87,29.6,34.15,30.28,34.32z"/>
	<path class="st0" d="M32.64,31.22c-0.09,0.36-0.32,1.79,1.01,3.84c-0.69-1.57-0.52-3.26-0.39-4.03
		C33.08,31.1,32.87,31.16,32.64,31.22z"/>
	<path class="st0" d="M22.52,31.77c-0.18-0.11-0.35-0.22-0.52-0.33c0.54,0.76,1.42,1.86,2.38,2.6c0.15-0.03,0.3-0.05,0.45-0.07
		C23.36,32.9,22.64,31.93,22.52,31.77z"/>
	<path class="st0" d="M68.93,32.88c1.4-1.81,1.96-3.63,2.16-4.56c-0.32,0.35-0.69,0.77-1.08,1.23
		C69.98,29.87,69.81,31.19,68.93,32.88z"/>
	<path class="st0" d="M60.82,20.66c0.44-0.13,0.85-0.26,1.23-0.38c1.13-0.75,1.8-1.74,2.06-2.18c-0.81-0.18-2.11,0.01-3.89,0.55
		c0,0.02,0.01,0.05,0.01,0.07c0.11,1.01-0.09,1.76-0.28,2.21C60.25,20.84,60.54,20.76,60.82,20.66z"/>
	<path class="st0" d="M24.93,36.97c0.78,0.69,2.22,1.61,4.59,2.04c-0.04-0.09-0.08-0.17-0.11-0.26c-0.05-0.18-0.06-0.37-0.03-0.55
		C27.49,37.96,26.04,37.49,24.93,36.97z"/>
	<path class="st0" d="M38.49,23.77c1.63,2.12,1.6,3.44,1.6,3.5c0,0.09-0.07,0.17-0.16,0.18c-0.01,0.01-0.03,0.01-0.04,0.01
		c-0.08,0-0.15-0.05-0.18-0.12c-0.01-0.02-0.84-1.77-2.04-3.25c-1.18-1.45-2.42-3.99-2.54-6.12c-0.08-0.04-0.16-0.09-0.23-0.14
		c0.04,0.55-0.01,1.23-0.06,1.99c-0.1,1.4-0.22,3.13,0.19,4.7c0.71,2.64,1.83,4.05,1.85,4.06c0.06,0.09,0.06,0.21-0.03,0.28
		c-0.07,0.07-0.2,0.07-0.27-0.01c-0.03-0.03-3.29-3.35-6.93-4.14c-0.78-0.19-1.52-0.26-2.19-0.33c-0.39-0.04-0.74-0.07-1.04-0.13
		c1.21,1.45,4.97,5.76,7.22,6.15c0.06,0.02,0.11,0.06,0.13,0.11c0.01,0.01,0.02,0.01,0.02,0.02c0.21,0.49,0.87,1,1.6,1.52
		c0.01,0.01,0.01,0.01,0.02,0.01c0.11,0.08,0.22,0.16,0.34,0.25c0.43,0.3,0.89,0.62,1.31,0.97c0.52,0.42,1.12,1.08,1.65,1.82
		c0,0.01,0.01,0.01,0.02,0.01c0.01,0.02,0.01,0.04,0.02,0.06c0.32,0.45,0.6,0.93,0.83,1.42c0.08-0.24,0.2-0.44,0.34-0.61
		c0.01-0.01,0.01-0.03,0.01-0.04c0.01-0.01,0.03-0.01,0.04-0.02c0.26-0.29,0.59-0.49,0.95-0.64c0.42-0.18,0.88-0.27,1.24-0.35
		c1.04-0.21,1.58-0.77,1.59-0.77c0.05-0.06,0.13-0.08,0.2-0.05c0.08,0.02,0.13,0.08,0.14,0.16c0,0.02,0.12,0.62,1.17,0.84
		c0.25,0.05,0.54,0.14,0.85,0.25c0.01,0,0.02,0,0.03,0.01c0.6,0.21,1.28,0.53,1.86,0.93c0.02,0,0.02,0.02,0.03,0.02
		c0.55,0.37,1,0.81,1.23,1.26c0.84-0.76,1.75-1.39,2.59-1.8c1.3-0.64,2.25-1.18,2.92-1.61c0.68-0.44,1.08-0.78,1.3-1.03
		c0.15-0.17,0.21-0.29,0.21-0.37c0-0.11,0.08-0.19,0.18-0.2c0.11-0.02,0.2,0.06,0.22,0.16c0.05,0.27,0.16,0.6,0.28,0.96
		c0.17-1.1,0.77-2.44,1.76-3.7c0.02-0.03,0.04-0.06,0.07-0.08c0.37-0.45,0.79-0.88,1.26-1.28c0.01-0.02,0.02-0.03,0.04-0.04
		c0.36-0.3,0.77-0.59,1.19-0.87c0.01-0.01,0.03-0.01,0.04-0.02c0.36-0.22,0.76-0.43,1.17-0.61c0.01,0,0.01,0,0.01,0
		c0.21-0.1,0.42-0.19,0.65-0.27c-0.74,0.06-1.51,0.3-2.26,0.53c-0.26,0.08-0.52,0.16-0.79,0.23c-1.22,0.35-4.18,1.38-5.32,3.36
		c-0.06,0.1-0.18,0.13-0.27,0.07c-0.1-0.05-0.13-0.17-0.08-0.27c0.79-1.35,2.33-2.27,3.67-2.85c3.7-2.81,5.01-6.05,5.25-7.66
		c-0.63,0.3-1.48,0.55-2.44,0.84c-1.91,0.57-4.28,1.3-5.85,2.73c-0.06,1.45-0.51,3-1.78,4.18c-0.04,0.04-0.09,0.05-0.14,0.05
		c-0.05,0-0.11-0.02-0.15-0.06c-0.07-0.08-0.07-0.21,0.01-0.28c2.55-2.36,1.58-6.35,1.05-7.56c-0.05-0.1-0.08-0.22-0.11-0.34h-0.01
		c0,0,0,0,0-0.01c0-0.02-0.01-0.03-0.02-0.05c-0.06,2.04-0.59,5.36-3.08,8.08c-0.04,0.05-0.09,0.07-0.15,0.07
		c-0.05,0-0.09-0.02-0.13-0.05c-0.08-0.08-0.09-0.2-0.02-0.29c2.41-2.62,2.92-5.84,2.99-7.81c-0.22,2.03-0.96,5.45-3.45,7.58
		c-0.04,0.03-0.08,0.05-0.13,0.05c-0.06,0-0.11-0.02-0.15-0.07c-0.07-0.08-0.06-0.21,0.02-0.28c2.93-2.51,3.33-7.06,3.38-8.46
		c-0.23,0.18-0.49,0.36-0.8,0.52c-1.27,0.7-5.07,3.39-5.48,5.45c-0.02,0.11-0.12,0.18-0.23,0.16c-0.11-0.02-0.18-0.13-0.16-0.24
		c0.25-1.25,1.55-2.63,2.86-3.72c-0.46-0.85-1.44-1.6-2.41-2.34c-0.57-0.43-1.13-0.86-1.54-1.28c-0.14,1.08-0.45,4.12-0.05,8.06
		c1.32,0.31,2.39,1.26,2.86,2.5h0.01c0.01,0.02,0.01,0.05,0.02,0.08c0.15,0.42,0.25,0.88,0.25,1.36c0,0.21-0.03,0.41-0.06,0.61
		l0.01,0.01c0,0.01-0.01,0.03-0.02,0.05c-0.12,0.74-0.45,1.4-0.93,1.96l0.01,0.01c0,0-0.02,0.02-0.06,0.04
		c-0.74,0.84-1.8,1.37-3,1.37c-2.01,0-3.66-1.47-3.98-3.38c0-0.02-0.01-0.04-0.02-0.05l0.01-0.01c-0.03-0.2-0.06-0.4-0.06-0.61
		c0-0.62,0.16-1.21,0.41-1.74c0-0.02,0-0.04,0.01-0.05h0.02c0.21-0.44,0.5-0.84,0.87-1.17v-0.01h0.01c0.43-0.39,0.96-0.7,1.53-0.88
		c0.19-0.66,0.09-1.39-0.32-2.19c-0.87-1.68-2.83-3.18-4.16-3.59c-0.89-0.28-1.88-0.64-2.72-1.01
		C36.38,19.48,37.24,22.15,38.49,23.77z M33.92,29.37c-0.15,0-0.27-0.11-0.27-0.24c0-0.13,0.12-0.24,0.27-0.24
		c0.15,0,0.27,0.11,0.27,0.24C34.19,29.26,34.07,29.37,33.92,29.37z M46.04,24.17c-0.18,0-0.33-0.15-0.33-0.33s0.15-0.33,0.33-0.33
		c0.18,0,0.33,0.15,0.33,0.33S46.22,24.17,46.04,24.17z M47.61,25.31c-0.24,0-0.43-0.22-0.43-0.5c0-0.28,0.19-0.5,0.43-0.5
		c0.24,0,0.43,0.22,0.43,0.5C48.04,25.09,47.85,25.31,47.61,25.31z M49.57,35.9c-0.33,0.15-0.46-0.21-0.74-0.39
		c-0.28-0.19-0.39-0.25-0.39-0.41c0-0.16,0.73-0.19,1.04,0.15C49.77,35.59,49.68,35.85,49.57,35.9z M50.44,34.47
		c-0.34,0.36-0.67-0.36-1.12-0.48c-0.45-0.12-0.53,0.06-0.6-0.04s0.15-0.56,1.08-0.34C50.73,33.83,50.44,34.47,50.44,34.47z
		 M51.8,34.37c-0.27,0.21-0.81-0.71-0.99-1.02c-0.18-0.31,0.2-0.5,0.52-0.11C51.65,33.62,52.17,34.08,51.8,34.37z M53.07,34.02
		c-0.16,0-0.29-0.17-0.29-0.37c0-0.21,0.13-0.37,0.29-0.37c0.16,0,0.29,0.17,0.29,0.37C53.36,33.85,53.23,34.02,53.07,34.02z
		 M54.33,32.1c0.24,0,0.43,0.21,0.43,0.47c0,0.26-0.19,0.47-0.43,0.47s-0.43-0.21-0.43-0.47C53.9,32.31,54.09,32.1,54.33,32.1z
		 M53.36,31.2c0,0.24-0.16,0.43-0.35,0.43c-0.19,0-0.35-0.19-0.35-0.43s0.16-0.43,0.35-0.43C53.21,30.77,53.36,30.97,53.36,31.2z
		 M53.24,29.81c0,0.14-0.11,0.25-0.25,0.25c-0.14,0-0.25-0.11-0.25-0.25c0-0.14,0.11-0.25,0.25-0.25
		C53.13,29.56,53.24,29.67,53.24,29.81z M52.64,28.03c0.21,0,0.38,0.17,0.38,0.38c0,0.21-0.17,0.38-0.38,0.38
		c-0.21,0-0.38-0.17-0.38-0.38C52.27,28.2,52.44,28.03,52.64,28.03z M52.11,33.04c-0.58,0.21-0.58-0.81-1.28-0.92
		c-0.41-0.07-0.66-0.02-0.66-0.23c0-0.19,0.77-0.51,1.56-0.04C52.74,32.44,52.11,33.04,52.11,33.04z M51.56,31.16
		c-0.3-0.02-0.52-0.41-0.92-0.44c-0.47-0.04-0.64,0.36-0.92,0.47c-0.28,0.11-0.46-0.21-0.29-0.47c0.17-0.26,1.01-0.89,1.95-0.62
		C52.32,30.38,52.12,31.19,51.56,31.16z M51.62,28.96c-0.02,0.49-0.28,0.49-0.92,0.45c-0.64-0.04-0.91,0.6-1.19,0.53
		c-0.28-0.07,0.05-1,0.89-1.27C51.23,28.38,51.63,28.66,51.62,28.96z M50.15,27.6c0.11,0.3-0.08,0.46-0.38,0.48
		c-0.3,0.02-0.46,0.23-0.49,0.39c-0.03,0.16-0.32,0.18-0.31-0.06c0-0.12-0.02-0.43,0.27-0.75C49.46,27.43,50.01,27.3,50.15,27.6z
		 M49.67,25c0.1,0,0.19,0.07,0.19,0.16c0,0.09-0.08,0.16-0.19,0.16c-0.1,0-0.19-0.07-0.19-0.16C49.49,25.07,49.57,25,49.67,25z
		 M48.98,25.65c0.23,0,0.42,0.22,0.42,0.5c0,0.28-0.19,0.5-0.42,0.5s-0.42-0.22-0.42-0.5C48.56,25.87,48.75,25.65,48.98,25.65z
		 M47.42,32.57c0.2-0.14,0.62-0.41,1.04-0.54c0.43-0.13,0.87-0.12,1.14,0.02c0.55,0.28-0.01,0.99-0.31,0.87
		c-0.3-0.12-0.91-0.17-1.67,0.22C47,33.45,46.91,32.91,47.42,32.57z M46.32,34.34c0.23-0.39,0.91-0.67,1.39-0.39
		c0.48,0.28,0.17,0.71-0.13,0.62c-0.31-0.09-0.66-0.13-0.98,0.15C46.33,34.95,46.09,34.74,46.32,34.34z M45.19,33.74
		c0.23,0,0.42,0.17,0.42,0.38c0,0.21-0.19,0.38-0.42,0.38c-0.23,0-0.42-0.17-0.42-0.38C44.77,33.91,44.96,33.74,45.19,33.74z
		 M41.99,24.13c0.19,0,0.34,0.14,0.34,0.31c0,0.17-0.15,0.31-0.34,0.31s-0.34-0.14-0.34-0.31C41.64,24.27,41.8,24.13,41.99,24.13z
		 M37.37,25.05c0.11,0,0.2,0.09,0.2,0.2c0,0.11-0.09,0.2-0.2,0.2c-0.11,0-0.2-0.09-0.2-0.2C37.16,25.14,37.25,25.05,37.37,25.05z
		 M37.87,26.22c0.59,0.41,1.79,2.8,1.87,3.29c0.08,0.49-0.23,0.29-0.4-0.08c-0.18-0.38-0.9-1.51-2.18-2.58
		C36.77,26.52,37.29,25.81,37.87,26.22z M35.08,30.96c-0.12,0.13-0.33,0.12-0.49-0.01c-0.15-0.14-0.18-0.35-0.07-0.48
		c0.11-0.13,0.33-0.13,0.48,0.01C35.17,30.61,35.2,30.83,35.08,30.96z M35.47,30.07c-0.15-0.14-0.18-0.35-0.07-0.48
		c0.12-0.13,0.33-0.12,0.49,0.01c0.15,0.14,0.18,0.35,0.07,0.48C35.84,30.21,35.62,30.2,35.47,30.07z M37.38,31.62
		c-0.96,0.04-1.39,0.2-1.49-0.3c-0.05-0.23,0.39-0.6,1.18-0.53c1.07,0.11,2.51,0.8,2.26,1.42C39.04,32.47,38.34,31.58,37.38,31.62z
		 M39.96,35.03c-0.22,0.18-1.1-0.56-0.91-0.83c0.19-0.27,0.61-0.01,0.85,0.25C40.15,34.71,40.18,34.85,39.96,35.03z M41.07,34.71
		c-0.12,0.14-0.24-0.49-0.96-0.98c-0.72-0.48-1.53-0.32-1.58-0.79c-0.07-0.55,1.11-0.43,1.76,0.22
		C40.93,33.8,41.19,34.56,41.07,34.71z M41.32,32.82c0.29,0.17,1.03,0.91,0.95,1.67c-0.01,0.05-0.14,0.11-0.26-0.16
		c-0.12-0.27-0.69-0.76-0.97-0.97C40.63,33.07,41.03,32.66,41.32,32.82z M40.5,32.48c-0.16,0.18-0.24-0.53-1.31-1.51
		c-1.08-0.98-2.06-0.71-2.16-1.22c-0.1-0.49,1.38-0.75,2.46,0.56C40.56,31.63,40.67,32.29,40.5,32.48z M40.82,24.83
		c0.23,0,0.41,0.18,0.41,0.41c0,0.23-0.18,0.41-0.41,0.41c-0.23,0-0.41-0.18-0.41-0.41C40.41,25.02,40.6,24.83,40.82,24.83z"/>
	<path class="st0" d="M72.82,27.7c-0.39,0-0.76,0.03-1.14,0.05c-0.03,0.03-0.06,0.06-0.09,0.08c-0.06,0.47-0.42,2.67-2.11,4.98
		c0.93-1.15,1.51-2.18,2.05-3.09C71.95,28.96,72.34,28.3,72.82,27.7z"/>
	<path class="st0" d="M45.6,51.83c0.18-1.06-0.23-1.62-0.43-1.81c-0.12,0.08-0.25,0.17-0.39,0.25c0.2,0.28,0.42,0.85,0.17,1.77
		C45.16,51.98,45.38,51.91,45.6,51.83z"/>
	<path class="st0" d="M65.12,47.55c-0.03-0.04-0.06-0.07-0.09-0.11c-1.57-0.87-5.48-0.11-7.27,1.1c-1.31,0.89-3.9,1.82-6.09,2.07
		c0.15,0.01,0.29,0.01,0.44,0.02c2.35-0.19,4.34-1,6.27-1.78C60.67,47.9,62.84,47.02,65.12,47.55z"/>
	<path class="st0" d="M47.06,51.16c-0.01-1.34-0.51-1.92-0.75-2.1c-0.25,0.25-0.51,0.49-0.81,0.72c0.25,0.27,0.62,0.88,0.52,1.88
		C46.37,51.52,46.71,51.35,47.06,51.16z"/>
	<path class="st0" d="M57.73,49.62c2.67-1.02,4.46-1.55,5.65-1.82c-1.56,0.07-3.12,0.71-4.85,1.41c-0.71,0.28-1.44,0.58-2.22,0.87
		C56.78,49.94,57.25,49.79,57.73,49.62z"/>
	<path class="st0" d="M39.02,37.94c0.2,0.05,0.39,0.11,0.59,0.17c-0.02-0.23-0.08-0.47-0.16-0.74
		C39.36,37.57,39.22,37.77,39.02,37.94z"/>
	<path class="st0" d="M38.93,36.9c-0.1,0.36-0.27,0.67-0.5,0.9c0.02,0,0.04,0.01,0.06,0.01c0.51-0.25,0.71-0.8,0.76-0.99
		c-0.07-0.16-0.14-0.31-0.23-0.47C39.01,36.53,38.98,36.72,38.93,36.9z"/>
	<path class="st0" d="M43.82,34.64c-0.02,0.01-0.05,0.03-0.07,0.05c-0.27,0.26-0.31,2.08,0.39,6.39c0.09,0.13,0.18,0.25,0.27,0.37
		c0-0.15,0-0.28,0.01-0.44c0.03-2.19,0.07-4.92-0.3-6.01C43.98,34.87,43.88,34.75,43.82,34.64z"/>
	<path class="st0" d="M39.86,37.32c0,0,0,0,0,0.01c0.1,0.31,0.16,0.62,0.17,0.92c0.02,0.01,0.04,0.01,0.05,0.01
		c0.11,0.04,0.21,0.09,0.31,0.13c-0.22-0.44-0.4-0.95-0.49-1.4C39.88,37.09,39.87,37.2,39.86,37.32z"/>
	<path class="st0" d="M43.44,41.93c0.15-0.31,0.16-0.68,0.06-0.98c-0.17-0.18-0.34-0.36-0.53-0.53c0.08,0.62,0.03,1.57-0.72,2.3
		c0.09,0.01,0.18,0.02,0.27,0.04C43.05,42.55,43.32,42.19,43.44,41.93z"/>
	<path class="st0" d="M44.53,47.79c-0.33-0.71-0.55-1.57-0.65-2.17c-0.05-0.32-0.07-0.62-0.09-0.9c-0.06-0.84-0.12-1.25-0.66-1.48
		c-0.14-0.02-0.27-0.04-0.41-0.06c0.44,0.49,0.81,1.29,0.83,2.17C43.57,46.17,43.93,47.12,44.53,47.79z"/>
	<path class="st0" d="M38.78,38.29c0.12,0.66,0.43,2.29,0.91,4.03c0.06,0.02,0.14,0.03,0.21,0.04c0.05-1.5-0.36-3.4-0.48-3.89
		C39.2,38.41,38.99,38.34,38.78,38.29z"/>
	<path class="st0" d="M36.56,18.23c0.41,0.17,0.87,0.34,1.36,0.52c-0.65-1.03-1.15-2.24-1.43-2.98
		C36.31,16.96,36.49,17.93,36.56,18.23z"/>
	<path class="st0" d="M37.04,37.88c0.2,1.97,1.12,3.82,1.67,4.79c-0.99-2.12-1.16-4.09-1.19-4.67
		C37.36,37.96,37.2,37.92,37.04,37.88z"/>
	<path class="st0" d="M39.31,42.49c-0.53-1.98-0.88-3.8-0.96-4.29c-0.13-0.03-0.26-0.06-0.38-0.09c-0.01,0-0.03,0-0.04-0.01
		c0.05,0.7,0.27,2.68,1.28,4.7C39.25,42.69,39.29,42.6,39.31,42.49z"/>
	<path class="st0" d="M42.48,40.01c-0.16-0.11-0.32-0.22-0.49-0.33c0.17,0.68,0.29,1.85-0.48,2.94c0.07,0.01,0.14,0.02,0.22,0.03
		C42.96,41.77,42.55,40.25,42.48,40.01z"/>
	<path class="st0" d="M37.29,37.53c0.73-0.57,0.72-2.38,0.38-3.1c-0.09-0.1-0.18-0.2-0.27-0.3c0.16,1.07,0.02,2.54-0.55,3.29
		C36.99,37.45,37.14,37.49,37.29,37.53z"/>
	<path class="st0" d="M41.11,35.64c-0.12,0.08-0.21,0.24-0.25,0.48c-0.12,0.76,0.2,2.03,1.06,3c0.05,0.04,0.1,0.08,0.15,0.11
		c-0.68-1.4-0.94-2.86-0.68-3.7C41.29,35.57,41.2,35.61,41.11,35.64z"/>
	<path class="st0" d="M41.03,42.55c1.12-1.35,0.55-2.92,0.43-3.2c-0.2-0.12-0.41-0.24-0.64-0.34c0.19,0.67,0.41,2-0.08,3.5
		C40.84,42.52,40.94,42.54,41.03,42.55z"/>
	<path class="st0" d="M37.93,37.68c0.28-0.16,0.5-0.47,0.61-0.88c0.13-0.51,0.08-1.08-0.13-1.44c-0.06-0.07-0.1-0.14-0.16-0.22
		c0.11,0.85-0.01,1.89-0.51,2.5C37.81,37.65,37.87,37.67,37.93,37.68z"/>
	<path class="st0" d="M42.25,35.32c-0.11,0.03-0.23,0.06-0.35,0.08c-0.4,0.54-0.26,2.4,0.92,4.36c0.04,0.04,0.09,0.08,0.13,0.12
		c-0.86-2.14-0.89-3.71-0.57-4.6C42.33,35.3,42.3,35.31,42.25,35.32z"/>
	<path class="st0" d="M40.48,35.99c-0.07,0.06-0.14,0.12-0.21,0.19c-0.14,0.23,0.1,1.49,0.72,2.46c0.05,0.02,0.09,0.05,0.13,0.07
		c-0.56-0.95-0.78-1.98-0.66-2.65C40.46,36.03,40.48,36.02,40.48,35.99z"/>
	<path class="st0" d="M44.63,35.32c0.26,1.33,0.23,3.73,0.2,5.69c-0.01,0.38-0.01,0.74-0.02,1.08c0.02,0.03,0.04,0.06,0.06,0.1
		c0.65-3.39,0.42-6.41-0.08-6.81C44.74,35.36,44.67,35.35,44.63,35.32z"/>
	<path class="st0" d="M43.8,42.1c-0.13,0.29-0.34,0.53-0.61,0.74c0.5,0.06,1.02,0.12,1.55,0.19c-0.01-0.04-0.03-0.07-0.02-0.11
		c0.01-0.02,0.01-0.05,0.01-0.07c-0.19-0.46-0.45-0.92-0.77-1.34C43.94,41.71,43.89,41.91,43.8,42.1z"/>
	<path class="st0" d="M42.88,35.14c-0.38,0.64-0.61,2.42,0.76,5.32c-0.42-2.73-0.55-4.57-0.4-5.47
		C43.13,35.04,43.01,35.09,42.88,35.14z"/>
	<path class="st0" d="M45.26,43.09c0.04,0,0.07,0,0.11,0.01c0.07-0.88,0.28-1.73,0.48-2.57c0.4-1.68,0.78-3.27,0.07-4.81
		c-0.21-0.08-0.41-0.14-0.58-0.18c0.48,1.26,0.43,4.38-0.19,7.28C45.19,42.91,45.23,42.99,45.26,43.09z"/>
	<path class="st0" d="M40.35,42.45c0.58-1.72,0.12-3.27-0.01-3.65c-0.13-0.05-0.26-0.11-0.39-0.16c-0.03-0.01-0.06-0.01-0.08-0.02
		c0.16,0.72,0.48,2.41,0.43,3.82C40.31,42.44,40.33,42.44,40.35,42.45z"/>
	<path class="st0" d="M46.06,48.74c-0.32,0.13-0.67,0.21-1.02,0.27c-0.01,0-0.01,0-0.02,0h-0.01c-0.16,0.02-0.33,0.04-0.49,0.05
		c-0.01,0-0.02,0.01-0.04,0.01c-0.01,0-0.03,0-0.05-0.01c-0.06,0-0.13,0.01-0.19,0.01c-0.31,0-0.62-0.03-0.95-0.08
		c0,0,0,0.01-0.01,0.01c-0.02,0-0.05-0.01-0.08-0.02c-0.48-0.07-0.97-0.19-1.46-0.36c-0.01,0-0.03,0-0.05-0.01
		c-0.01,0-0.01-0.01-0.02-0.01c-0.19-0.07-0.37-0.13-0.55-0.21c-0.3,0.06-2.08,0.37-4.18,0.37c-1.08,0-2.23-0.09-3.31-0.33
		c0.54,0.36,1.15,0.75,1.82,1.14C39.85,52.16,43.89,51.01,46.06,48.74z"/>
	<path class="st0" d="M27.96,44.76c-0.18,0.34-0.35,0.67-0.54,0.92c1.29-0.11,2.31,0.26,3.44,0.93c3.58,1.12,6.69,1.08,8.52,0.9
		c-0.36-0.22-0.72-0.46-1.05-0.72c-1.02-0.87-3.08-2.14-3.4-2.33c-0.94-0.09-1.54-0.39-1.71-0.9c-0.13-0.38,0.03-0.82,0.43-1.23
		c-0.72-0.12-1.46-0.22-2.22-0.27C29.36,42.13,28.58,43.58,27.96,44.76z"/>
	<path class="st0" d="M26.58,46.22c-0.18,0.05-0.36,0.1-0.55,0.16c2.25,0.13,4.78,0.93,7.05,2.17c-0.26-0.18-0.51-0.35-0.76-0.51
		c-2.16-1.46-3.39-2.29-5.45-1.87C26.78,46.19,26.68,46.22,26.58,46.22z"/>
	<path class="st0" d="M22.48,34.96c0.01,0.01,0.01,0.01,0.02,0.01c0.03,0.03,0.06,0.05,0.1,0.08c0.96,0.75,2.96,2.29,6.91,2.75
		c0.02-0.04,0.03-0.08,0.06-0.13c0-0.01,0.01-0.02,0.02-0.03c0.39-0.59,1.12-0.47,1.89-0.35c0.6,0.1,1.23,0.2,1.77,0.02
		c-1.33-0.87-2.23-1.68-2.72-2.5c-0.41-0.11-3.2-0.85-6.12-0.37c-0.32,0.05-0.64,0.14-0.95,0.23c-0.34,0.1-0.7,0.19-1.06,0.25
		C22.44,34.93,22.46,34.95,22.48,34.96z"/>
	<path class="st0" d="M36.99,50.76c-0.57-0.22-1.16-0.5-1.74-0.85c-0.03-0.02-0.06-0.04-0.09-0.05c0.33,0.24,0.67,0.49,0.97,0.76
		c0.03,0.02,0.07,0.04,0.09,0.05c0.17,0.1,0.46,0.26,0.83,0.44C37.05,50.89,37.01,50.79,36.99,50.76z"/>
	<path class="st0" d="M28.72,47.21c1.55,0.53,3.22,1.24,4.72,1.98C31.95,48.31,30.32,47.64,28.72,47.21z"/>
	<path class="st0" d="M27.45,40.7c-3.17-2.36-3.87-4.15-3.98-4.54c-0.25-0.17-0.49-0.33-0.69-0.47c0.39,0.92,1.53,2.79,4.63,5
		C27.43,40.69,27.44,40.7,27.45,40.7z"/>
	<path class="st0" d="M31.43,41.65c0.03,0,0.06-0.01,0.09-0.01c0.02,0,0.04,0.01,0.06,0.02c0.01,0,0.01,0,0.02,0
		c-2.77-0.9-3.92-2.44-4.13-2.77c-0.33-0.12-0.66-0.25-0.94-0.38c0.74,0.88,2.29,2.36,4.86,3.13
		C31.41,41.64,31.42,41.65,31.43,41.65z"/>
	<path class="st0" d="M21.75,34.95c-0.01,0-0.01,0-0.02,0c-0.1-0.01-0.19-0.01-0.3-0.02c0.26,0.32,0.51,0.73,0.8,1.16
		c0.24,0.36,0.48,0.75,0.75,1.1c0.57,0.83,1.31,1.55,2.15,2.18c-2.34-2.15-2.83-3.75-2.92-4.12C22,35.09,21.83,34.97,21.75,34.95z"
		/>
	<path class="st0" d="M29.64,41.39c-2.56-1.23-3.74-3.01-3.94-3.35c-0.66-0.4-1.11-0.81-1.41-1.12c0.57,0.94,1.85,2.49,4.59,4.29
		C29.12,41.29,29.39,41.34,29.64,41.39z"/>
	<path class="st0" d="M36.67,51.4c-0.23-0.12-0.45-0.25-0.67-0.37c-1.66-1-4.18-2.24-6.54-3.12c0.85,0.47,1.57,0.97,2.25,1.43
		C33.25,50.38,34.57,51.28,36.67,51.4z"/>
	<path class="st0" d="M42.59,53.39c1.22,1.96,2.31,3.62,3.37,5.23c1.56,2.37,2.91,4.42,4.16,6.65c1.1,1.96,2.85,4.51,4.55,6.96
		c1.47,2.15,2.87,4.18,3.62,5.52c0.38,0.7,0.73,1.25,1.06,1.79c-0.31-0.7-0.6-1.33-0.83-1.74c-1.05-1.65-2.13-3.26-3.07-4.67
		c-0.35-0.52-0.69-1.01-0.99-1.47c-1.16-1.73-2.25-3.76-3.51-6.1c-1.39-2.59-2.97-5.53-5.03-8.77c-0.06-0.09-0.03-0.21,0.06-0.27
		c0.1-0.06,0.22-0.04,0.28,0.06c2.06,3.24,3.64,6.19,5.04,8.79c1.26,2.34,2.34,4.34,3.49,6.07c0.3,0.45,0.64,0.95,0.99,1.47
		c0.05,0.08,0.11,0.16,0.16,0.24c-0.8-1.48-1.73-3.29-2.79-5.43c-0.07-0.13-0.15-0.26-0.22-0.39c-2.51-4.31-4.89-8.39-5.86-14.71
		c-0.02-0.11,0.06-0.21,0.17-0.23c0.1-0.02,0.21,0.06,0.22,0.17c0.97,6.24,3.32,10.28,5.82,14.57c0.22,0.39,0.46,0.8,0.7,1.2
		c0.8,1.38,1.88,3.01,3.04,4.75c0.18,0.27,0.37,0.55,0.56,0.84c-1.13-2.04-2.32-4.2-3.37-6.2c-3.7-6.21-5.62-12.31-5.21-16.73
		c0.01-0.11,0.11-0.19,0.22-0.18c0.11,0.01,0.19,0.11,0.18,0.22c-0.32,3.45,0.81,7.94,3.11,12.72c-2.54-5.54-3.31-9.7-2.4-13
		c-0.41-0.11-0.81-0.24-1.17-0.4c-0.98,0.82-2.01,1.4-3.04,1.79c-0.4,0.15-0.81,0.28-1.22,0.37c-0.01,0.01-0.03,0.02-0.04,0.02
		s-0.01,0-0.01,0c-0.8,0.18-1.58,0.27-2.37,0.27c-0.09,0-0.18-0.01-0.27-0.01l-0.01,0.01c-0.01,0-0.02-0.01-0.04-0.01
		c-0.55-0.02-1.11-0.07-1.65-0.17c2.47,2.2,4.08,5.1,5.63,7.92c0.27,0.49,0.53,0.98,0.81,1.45c1.4,2.5,3.74,5.45,6.03,8.18
		c-1.15-1.7-2.23-3.35-2.98-4.71c-1.25-2.22-2.59-4.26-4.15-6.63c-1.06-1.61-2.16-3.28-3.38-5.24c-0.06-0.09-0.03-0.21,0.06-0.27
		C42.4,53.27,42.53,53.3,42.59,53.39z"/>
	<path class="st0" d="M51.57,69.88c0.87,0.72,1.7,1.57,2.49,2.46c-2.74-3.22-5.92-7.02-7.68-10.14c-0.27-0.48-0.53-0.97-0.81-1.45
		c-1.64-3-3.36-6.11-6.09-8.3c-0.18-0.05-0.36-0.09-0.54-0.14c1.27,1.44,4.61,5.4,6.79,9.55C47.47,65.12,49.7,67.75,51.57,69.88z"/>
	<path class="st0" d="M57.47,75.11c-0.01-0.04-0.02-0.09,0-0.13c-0.17-0.26-0.34-0.52-0.5-0.77C57.15,74.54,57.31,74.83,57.47,75.11
		z"/>
	<path class="st0" d="M39.12,51.63c-0.21,0.03-0.42,0.07-0.62,0.09c0.18,0.07,0.37,0.12,0.56,0.18C39.1,51.8,39.12,51.7,39.12,51.63
		z"/>
	<path class="st0" d="M39.53,51.55c0.01,0.13-0.01,0.29-0.06,0.46c0.35,0.09,0.73,0.17,1.12,0.24c0.12-0.34,0.04-0.65-0.03-0.8
		c-0.16,0-0.32-0.01-0.48-0.02C39.89,51.48,39.71,51.52,39.53,51.55z"/>
	<path class="st0" d="M41.86,52.39c0.21-0.44,0.1-0.86,0.01-1.05c-0.29,0.05-0.59,0.08-0.9,0.1c0.07,0.21,0.13,0.52,0.03,0.88
		C41.29,52.35,41.57,52.38,41.86,52.39z"/>
	<path class="st0" d="M43.21,52.36c0.27-0.8-0.02-1.18-0.15-1.3c-0.25,0.08-0.51,0.15-0.78,0.21c0.1,0.25,0.19,0.67,0.03,1.13
		C42.6,52.4,42.9,52.38,43.21,52.36z"/>
	<path class="st0" d="M44.49,52.15c0.34-0.97,0.1-1.49-0.05-1.68c-0.31,0.17-0.64,0.31-0.97,0.44c0.19,0.25,0.36,0.7,0.17,1.4
		C43.92,52.27,44.2,52.22,44.49,52.15z"/>
	<path class="st0" d="M38.74,51.28c-0.43-0.08-0.87-0.2-1.31-0.35c0.01,0.1,0,0.22-0.02,0.36c0.07,0.04,0.15,0.07,0.23,0.1
		C37.98,51.38,38.35,51.34,38.74,51.28z"/>
	<path class="st0" d="M43.75,16.85c0.08-1.78-0.13-3.87-0.2-4.45h-0.11c0.09,0.68,0.36,2.77,0.22,4.52
		C43.69,16.91,43.72,16.87,43.75,16.85z"/>
	<path class="st0" d="M4.27,56.3v2.08c0,0-1.18,0.24-1.52,1.7c-0.33,1.47,2.39,2.89,2.39,2.89s-1.16,0.73-1.42,1.54
		c-0.4,1.24-0.1,2.36,1.3,3.08C6.41,68.31,7,70.25,7,70.25s-1.05,1.36-0.22,3.82c1.34,4.29,7.44,3.71,10.92,2.75
		c3.47-0.95,7.5-0.82,11.11,3.01c3.61,3.84,7.06,8.63,10.94,13.9c-0.36,1.46-5.27,3.34-5.43,4.82c-0.16,1.49,3.5,2.61,12.34-2.19
		c5.98-3.26,10.94-7.45,14.58-10.64c-0.28-1.23-0.86-2.55-1.58-3.88c-0.06-0.11-0.11-0.22-0.18-0.34c-0.11-0.21-0.24-0.42-0.36-0.62
		c-1.7-2.84-4.55-6.45-6.73-9.22c-0.74-0.93-1.4-1.77-1.96-2.49c0,0,0,0,0-0.01c-1.67-1.96-3.53-4.29-5.02-7.1
		c-2.58-4.88-6.78-9.53-7.21-10c-0.22-0.08-0.42-0.16-0.63-0.25c-0.14,0.01-0.29,0.01-0.43,0.01c-2.48,0-3.92-0.98-5.62-2.15
		c-1.38-0.95-2.94-2.02-5.41-2.77c-0.4-0.08-0.78-0.12-1.11-0.13c-0.1-0.01-0.18-0.08-0.19-0.17c0-0.01,0-0.01,0-0.01
		c0-0.01-0.01-0.01-0.01-0.02c0-0.01,0.01-0.02,0.02-0.03c0-0.03,0.01-0.06,0.03-0.09c0.01-0.01,0.02-0.02,0.04-0.03
		c0.01-0.02,0.02-0.03,0.03-0.04c0.59-0.25,1.12-0.42,1.6-0.53c0,0,0-0.01,0.01-0.01c0.03,0,0.06-0.01,0.09-0.02
		c0.37-0.05,0.65-0.5,1.03-1.24c0.49-0.95,1.14-2.15,2.52-2.66c-1.01-0.17-1.98-0.45-2.89-0.86c-0.01,0-0.02,0-0.02,0
		c-0.01-0.01-0.01-0.01-0.02-0.01c-1.85-0.82-3.48-2.06-4.57-3.61c-0.26-0.36-0.51-0.76-0.75-1.12c-0.46-0.72-0.9-1.39-1.29-1.62
		c-0.09-0.05-0.13-0.16-0.08-0.26c0.05-0.09,0.16-0.14,0.26-0.09c0.82,0.33,1.49,0.24,2.16,0.06c-0.11-0.06-0.23-0.14-0.38-0.24
		c-0.01-0.01-0.04-0.01-0.05-0.02c0-0.01-0.01-0.01-0.01-0.02c-0.52-0.34-1.22-0.86-1.96-1.52c0-0.01-0.01,0-0.01-0.01
		c-0.01,0-0.01-0.01-0.01-0.01c-0.55-0.5-1.12-1.11-1.65-1.8c-0.04-0.02-0.07-0.05-0.08-0.09c-0.01-0.01-0.01-0.02-0.01-0.03
		c-0.95-1.26-1.73-2.82-2-4.67c0-0.01,0.02-0.03,0.02-0.04c0-0.04,0.01-0.06,0.03-0.09v-0.03c0.02-0.01,0.03-0.01,0.05-0.02
		c0.01-0.01,0.02-0.02,0.03-0.03c0.02-0.01,0.03,0,0.05,0c0.01,0,0.02-0.01,0.03-0.01c1.17,0.06,2.29-0.08,3.37-0.22
		c0.02,0,0.04,0,0.06-0.01c-0.81-0.92-3.09-3.93-2.1-7.11c0-0.03,0.02-0.04,0.03-0.06c0.01-0.01,0.01-0.02,0.02-0.03
		c0.01,0,0.01-0.01,0.01-0.01h0.01c0.03-0.03,0.06-0.04,0.1-0.04c2.61-0.24,5.22,0.69,6.18,1.07c-0.36-1.63-0.13-3.5-0.12-3.58
		c0.01-0.02,0.02-0.02,0.02-0.04c0.01-0.02,0.03-0.04,0.05-0.07c0-0.01,0-0.02,0.02-0.03c0.01-0.01,0.02,0,0.03-0.01
		c0.02,0,0.02-0.02,0.04-0.02c0.01,0,0.03,0.01,0.04,0.01c0.02,0,0.03-0.01,0.04-0.01c0.02,0,1.32,0.27,2.9,0.44
		c-0.24-1.25,0.24-2.24,0.58-2.9c0.07-0.14,0.14-0.27,0.18-0.38h0.01c0.01-0.04,0.05-0.08,0.09-0.1c0.01,0,0.01,0,0.01,0
		c0.01,0,0.01-0.01,0.01-0.01c0.01,0,0.03,0.01,0.04,0c0.04,0,0.07,0,0.1,0.01c0.01,0.01,0.02,0,0.03,0.01
		c0.22,0.12,0.78,0.21,1.42,0.32c1.77,0.29,4.39,0.75,5.95,2.58c0.04-0.2,0.08-0.39,0.13-0.59c0-0.01,0.01-0.01,0.01-0.02
		c0.01-0.02,0.03-0.03,0.04-0.05c0.02-0.02,0.03-0.03,0.05-0.05l0.01-0.01c0.02-0.01,0.03,0,0.04,0c0.02-0.01,0.04-0.02,0.05-0.02
		c0.52,0.01,1.01,0.07,1.46,0.14c0.44-0.19,3.69-1.59,4.48-2.56c0.18-0.21,0.45-0.34,0.78-0.38c0,0,0,0,0.01,0
		C43.3,12,43.43,12,43.57,12.01c0.05,0,0.1,0.02,0.14,0.03c0.01,0,0.01,0,0.01,0c1.38,0.2,3.45,1.6,4.81,3.93
		c0.44-0.24,0.86-0.43,1.15-0.51c0.53-0.15,1.06-0.02,1.53,0.34c2.19-1.36,4.24-1.68,5.39-1.41l0.01-0.01
		c0.01,0,0.02,0.01,0.03,0.02c0.07,0.01,0.15,0.02,0.21,0.05c0.37,0.12,0.61,0.33,0.71,0.6c0.26,0.76,0.16,2.06-0.09,2.81
		c0.59-0.18,1.1-0.24,1.51-0.21c0.03-0.01,0.05-0.02,0.08-0.02c0.01,0.01,0.02,0.02,0.03,0.02c0.19,0.03,0.37,0.07,0.51,0.14
		c0.22,0.11,0.38,0.27,0.48,0.48c2.11-0.65,3.53-0.81,4.4-0.47c0,0,0,0,0.01,0c0.16,0.06,0.3,0.13,0.41,0.21
		c0.4,0.29,0.6,0.74,0.6,1.33c0,2.15-0.89,2.89-0.92,2.92c-0.04,0.03-0.09,0.04-0.13,0.04c-0.06,0-0.12-0.02-0.16-0.07
		c-0.07-0.08-0.05-0.21,0.03-0.28c0.01-0.01,0.77-0.68,0.77-2.61c0-0.46-0.13-0.79-0.42-1.01c-0.05-0.03-0.12-0.06-0.18-0.09
		c-0.17,0.28-0.55,0.91-1.21,1.54c0.07-0.03,0.15-0.07,0.21-0.1c0.07-0.04,0.15-0.04,0.21,0c0.06,0.04,0.1,0.11,0.09,0.18
		c-0.01,0.28-0.07,0.66-0.18,1.08c0,0.18-0.01,1.13-0.17,2.28c1.03-0.7,3.95-2.29,8.36-1.57c0.03,0,0.04,0.02,0.06,0.03
		c0.01,0.01,0.03,0,0.04,0.01v0.01c0.03,0.03,0.05,0.06,0.06,0.1c0,0.01,0.01,0.02,0.01,0.03c0.24,2.92-1.37,4.87-2.26,5.72
		c0.6-0.09,1.23-0.16,1.86-0.2c0.03,0,0.05-0.01,0.07,0c0.45-0.03,0.91-0.05,1.38-0.05c0.15,0,0.34-0.02,0.4,0.12
		c0.04,0.07,0.02,0.16-0.03,0.21c-0.6,0.66-1.04,1.41-1.54,2.28c-1.07,1.88-2.52,4.39-6.74,7.46c-0.01,0.02-0.03,0.03-0.04,0.04
		h-0.01c-0.35,0.26-0.73,0.51-1.12,0.78c-0.03,0.03-0.07,0.04-0.11,0.04c-0.04,0-0.07-0.03-0.1-0.06c-0.76,0.92-1.75,1.82-3.04,2.7
		c2.26-0.53,4.1-0.48,5.28,0.18c0.71,0.39,1.16,0.99,1.35,1.76c0.26,1.1-0.56,1.76-1.3,2.36c-0.51,0.41-1.01,0.81-1.01,1.27
		c-0.01,0.37,0.27,0.8,0.86,1.3c0.07,0.07,0.09,0.18,0.03,0.26c-0.05,0.08-0.16,0.12-0.25,0.07c-0.81-0.37-3.36,0.25-7.79,1.93
		c-1.88,0.72-3.69,1.06-5.32,1.06c-0.17,0-0.34-0.02-0.5-0.02c-0.01,0-0.01,0-0.02,0H52c-0.51-0.03-1.02-0.09-1.49-0.19
		c-0.91,3.3-0.1,7.47,2.54,13.11c2.5,5.34,4.96,9.2,6.93,12.31c1.98,3.09,3.37,5.3,3.7,7.29c0.69-0.58,1.3-1.1,1.83-1.51
		c3.45-2.64,5.69-1.1,5.76-2.77c0.06-1.66-3.24-2.83-4.83-3.56c-1.6-0.74-2.58-6.01-2.64-7.31s0.8-1.6,1.16-3.77
		c4.26,0.15,6.28-2.84,7.11-4c0.84-1.15,1.51-1.89,4.03-3.5c2.52-1.59,2.26-2.4,2.26-2.4s0.29-0.23,1.41-1.23
		c3.92,0.04,4.73-1.38,4.73-1.38s2.55,0.56,4.68-3.2c1.22-2.14,1-4.15,0.58-5.5c0.39-0.57,0.82-1.33,1.04-2.39
		c1.79-1.31,2.88-2.78,3.32-4.5c0.41-1.59,0.22-3.48,0.05-4.83c-0.39-2.93-2.07-5.56-6.18-5.75c0.52-5.65-2.95-6.42-2.95-6.42
		s1.9,1.42,2.17,3.35c-1.38-3.45-4.07-3.83-4.47-3.75c-0.4,0.08-0.51,0.4,0,0.4s2.73,0.5,3.13,2.77c-1.46-2.02-4.82-2.16-6.51-0.88
		c-1.08-5.31-6.29-9.46-14.21-9.9C63.63,4.52,51.52,1.98,46.99,0.48c-1.87-0.61-5.86-0.5-10.28-0.37c-3.58,0.1-7.44,0.32-10.72,1.4
		c-8.2-1.3-13,2.1-14.62,5.47c-0.31,0.66-0.5,1.31-0.59,1.96c-0.69,0.56-1.11,1.15-1.36,1.66c-0.16,0.33-0.26,0.69-0.33,1.05
		l-0.01-0.01c-0.58,1.28-0.61,2.65-0.11,3.95c0.37,0.93,1.01,1.76,1.83,2.42c-0.19,0.27-0.38,0.53-0.58,0.84
		c-2.21,3.25-4.63,11.81-4.75,13.09c-0.12,1.27,0.64,3.39,0.64,4.6s0.6,3.36,0.6,3.93c0,0.57-0.45,1.09-1.81,2.96
		c-1.36,1.88-5.15,6.6-4.88,8.96C0.29,54.75,4.27,56.3,4.27,56.3z M71.53,55.58c0.51-0.44,0.98-0.94,0.98-0.94s0.46,0.66,2.68,0.94
		C75.19,55.58,73.35,57.32,71.53,55.58z M75.56,17.98c0.8,0.77,1.27,1.93,1.55,2.9l-0.68-0.22C76.26,19.87,75.97,18.93,75.56,17.98z
		 M77.25,21.46c0.16,0.73,0.21,1.24,0.21,1.24l-0.69,0.4c0,0-0.02-0.71-0.21-1.76L77.25,21.46z M90.81,28.88
		c2.8,2.41,3.43,5.5,2.7,7.76c-0.67,2.07-1.77,2.93-2.62,3.86c0.09-0.72,0.07-1.57-0.11-2.58c1-1.39,2.28-2.34,2.2-4.1
		C92.86,31.28,91.38,31.05,90.81,28.88z M89.77,40.09c0.05-0.21,0.11-0.4,0.17-0.59c0.22,1.17,0.03,2.19-0.5,3.07
		c-0.06-0.13-0.12-0.26-0.17-0.36C89.43,41.66,89.58,41,89.77,40.09z M88.92,43.18c0.01,0.02,0.01,0.05,0.02,0.07
		c-0.04,0.05-0.08,0.1-0.13,0.14C88.85,43.32,88.88,43.25,88.92,43.18z M87.27,45.81c0.1-0.13,0.21-0.24,0.31-0.38
		c0.14-0.21,0.26-0.4,0.38-0.58c0.02,0.02,0.04,0.04,0.04,0.04s0.56-0.19,1.2-0.81c0.61,2.86-1.28,7.14-4.06,6.52
		C87.37,48.61,87.41,46.7,87.27,45.81z M85.89,46.99c-0.27,1.61-1.54,2.26-2.82,2.17c0.48-0.48,0.79-1.13,0.95-1.54
		C84.69,47.52,85.32,47.32,85.89,46.99z M82.4,47.69c0.37,0.02,0.73,0.01,1.08-0.01c-0.25,0.59-0.66,1.04-1.12,1.36
		c-0.33-0.09-0.65-0.23-0.94-0.42C81.97,48.33,82.26,47.94,82.4,47.69z M81.86,47.64c-0.3,0.26-0.62,0.44-0.97,0.55
		c-0.25-0.24-0.45-0.52-0.6-0.85C80.82,47.49,81.35,47.58,81.86,47.64z M79.54,48.97c0.34,0.34,0.69,0.62,1,0.86
		c-0.4,0.09-0.78,0.13-1.07,0.15c-0.53-0.33-1.06-0.78-1.5-1.27C78.56,48.87,79.09,48.95,79.54,48.97z M76.67,46.43
		c-0.05-0.44,0.09-0.79,0.54-0.9c0.43,1,0.96,1.81,1.49,2.5C77.93,47.7,77.2,47.13,76.67,46.43z M78.6,21.85l-0.7-0.58
		c0,0-0.6-3.82-5.15-6.95C75.92,15.95,78.23,18.95,78.6,21.85z M11.62,16.86c-0.04-0.12-0.06-0.25-0.09-0.37
		c0.08,0.05,0.17,0.09,0.26,0.14C11.73,16.7,11.68,16.78,11.62,16.86z M11.97,16.37c-0.19-0.09-0.37-0.2-0.55-0.32
		c-0.17-1.05-0.05-2.22,0.4-3.32c0.06,0.07,0.12,0.14,0.19,0.2c0.22,0.56,0.55,1.14,1.02,1.73C12.78,15.19,12.42,15.74,11.97,16.37z
		 M13.23,14.11c-0.53-0.75-0.86-1.45-1.01-2.16c0.26-0.45,0.58-0.89,0.99-1.28c0.02,0.74,0.13,1.38,0.17,1.87
		C13.42,13.15,13.37,13.64,13.23,14.11z M13.21,9.96c-0.43,0.37-0.8,0.78-1.1,1.2c-0.06-0.99,0.18-1.97,0.59-2.99
		c0.3-0.12,0.65-0.24,1.01-0.35C13.37,8.54,13.24,9.27,13.21,9.96z M13.9,7.45c-0.37,0.1-0.73,0.21-1.04,0.33
		c0.05-0.12,0.11-0.25,0.16-0.37c1.62-3.47,5.65-4.72,8.67-4C17.02,4.21,14.86,5.78,13.9,7.45z M11.65,7.11
		c1.53-3.2,6.02-6.41,13.7-5.4c-1.02,0.38-1.97,0.87-2.82,1.45l-0.17-0.09c-3.29-1.05-7.96,0.23-9.78,4.12
		c-0.13,0.29-0.26,0.57-0.37,0.87c-0.41,0.2-0.77,0.41-1.08,0.64C11.22,8.17,11.39,7.64,11.65,7.11z M11.06,9.09
		c0.27-0.21,0.6-0.41,0.98-0.61c-0.37,1.07-0.56,2.18-0.36,3.35c-0.02,0.04-0.04,0.08-0.07,0.12C11.12,11.12,10.93,10.14,11.06,9.09
		z M9.69,10.73c0.2-0.42,0.53-0.9,1.05-1.36c-0.06,1.07,0.18,2.06,0.72,2.88c-0.51,1.11-0.72,2.28-0.61,3.37
		c-0.45-0.38-0.86-0.87-1.13-1.46C9.18,12.99,9.18,11.78,9.69,10.73z M9.25,15.47c-0.35-0.92-0.42-1.86-0.21-2.79
		c0.04,0.53,0.16,1.07,0.39,1.59c0.35,0.76,0.88,1.34,1.46,1.78c0.07,0.45,0.2,0.89,0.37,1.29c-0.1,0.14-0.19,0.26-0.29,0.41
		C10.19,17.14,9.59,16.35,9.25,15.47z"/>
	<path class="st0" d="M41.5,31.18c0.66,0.94,1.74,1.56,2.98,1.56c0.67,0,1.28-0.2,1.82-0.51c-0.32,0.07-0.72,0.11-1.19,0.11
		c-0.25,0-0.53-0.01-0.84-0.04C43.04,32.18,42.13,31.71,41.5,31.18z"/>
	<path class="st0" d="M56.76,14.85c-0.1,0.73-0.59,2.86-2.55,4.21c0.01,0.1,0.03,0.19,0.05,0.29c1-0.59,1.89-1.03,2.69-1.32
		c0.29-0.39,0.51-2.03,0.22-2.85C57.13,15.05,56.98,14.93,56.76,14.85z"/>
	<path class="st0" d="M49.79,15.84c-0.77,0.21-2.55,1.34-3.17,1.74c0.19,0.15,0.4,0.31,0.61,0.47c0.8,0.6,1.6,1.23,2.16,1.92
		c1.09-1.94,1.01-3.66,0.96-4.13C50.16,15.8,49.97,15.79,49.79,15.84z"/>
	<path class="st0" d="M43.97,12.49c0.07,0.7,0.24,2.49,0.19,4.12c0.37-0.2,0.73-0.33,1.02-0.35c0.07-0.02,0.14,0.03,0.18,0.09
		c0.2,0.3,0.53,0.62,0.93,0.96c0.3-0.19,1.1-0.71,1.88-1.15C47.02,14.18,45.25,12.83,43.97,12.49z"/>
	<path class="st0" d="M47.83,30.53c-0.04,0.02-0.07,0.05-0.11,0.07C47.26,30.87,46.65,31,45.99,31c-0.61,0-1.28-0.11-1.97-0.32
		c-1.48-0.48-2.58-1.27-3.03-2.19c-0.03-0.05-0.04-0.1-0.07-0.16c-0.05,0.25-0.08,0.5-0.08,0.77c0,0.2,0.03,0.39,0.06,0.58
		c0.25,0.8,1.33,2.02,3.43,2.22c1.82,0.18,2.68-0.28,2.9-0.42C47.47,31.19,47.68,30.88,47.83,30.53z"/>
	<path class="st0" d="M42.7,12.66c-0.7,0.85-3.01,1.96-4.11,2.45c2.46,0.61,3.7,2.04,4.09,2.56c0.18-0.15,0.36-0.3,0.54-0.44
		c0.2-1.73-0.09-4.07-0.19-4.77C42.91,12.49,42.79,12.55,42.7,12.66z"/>
	<path class="st0" d="M44.49,25.44c-0.16,0-0.31,0.03-0.47,0.05c-0.38,0.17-0.6,0.43-0.59,0.74c0,0.44,0.45,0.89,1.14,1.14
		c0.61,0.22,1.12,0.15,1.36,0.03c0.1-0.06,0.17-0.13,0.19-0.21c0.02-0.07,0-0.19-0.09-0.32c-0.12,0.06-0.27,0.08-0.44,0.04
		c-0.28-0.08-0.46-0.3-0.4-0.49c0.05-0.18,0.29-0.27,0.55-0.22v-0.01c0.02,0,0.03,0.01,0.05,0.02c0.09,0.03,0.17,0.07,0.23,0.12
		c0.39,0.25,0.56,0.66,0.49,0.97c-0.05,0.19-0.18,0.35-0.39,0.46c-0.21,0.11-0.48,0.16-0.77,0.16c-0.29,0-0.61-0.05-0.93-0.17
		c-0.86-0.31-1.39-0.89-1.4-1.5c-0.01-0.19,0.06-0.37,0.16-0.54c-0.41,0.16-0.78,0.39-1.1,0.68c-0.1,0.2-0.11,0.43,0.01,0.71
		c0.31,0.75,1.48,1.69,3.11,2.08c1.49,0.34,2.19-0.2,2.41-0.45c0.24-0.26,0.34-0.59,0.28-0.86C47.38,26.44,46.06,25.44,44.49,25.44z
		"/>
	<path class="st0" d="M39.58,19.34c0.35,0.17,0.74,0.39,1.12,0.67c0.38-0.67,1-1.4,1.69-2.06c-0.38-0.52-2.06-2.48-5.56-2.71
		C37.33,16.06,38.68,18.2,39.58,19.34z"/>
	<path class="st0" d="M45.09,16.67c-0.04,0.01-0.09,0.03-0.14,0.05c-0.09,0.75-0.53,4.72,0,8.37h0.04
		c-0.45-4.52,0.02-7.86,0.11-8.41C45.1,16.67,45.1,16.67,45.09,16.67z"/>
	<path class="st0" d="M48.07,29.66c0.03-0.19,0.06-0.37,0.06-0.56c0-0.13-0.03-0.25-0.04-0.37c-0.05,0.09-0.11,0.17-0.18,0.25
		c-0.41,0.45-1.05,0.7-1.81,0.7c-0.31,0-0.65-0.04-0.99-0.12c-1.58-0.36-2.98-1.32-3.4-2.32c-0.05-0.12-0.08-0.24-0.1-0.35
		c-0.14,0.18-0.27,0.38-0.38,0.6c-0.07,0.24-0.03,0.52,0.12,0.83c0.39,0.81,1.44,1.54,2.79,1.98c1.32,0.43,2.59,0.41,3.39-0.03
		C47.82,30.09,48,29.88,48.07,29.66z"/>
	<path class="st0" d="M30.11,13.38c-0.39-0.06-0.7-0.12-0.97-0.18c0.7,0.99,2.28,3.26,3.02,4.21c0.97,0.59,1.82,1.31,2.3,1.98
		c0.05-0.83,0.08-1.54-0.05-2c-0.02-0.1,0.02-0.19,0.11-0.24c0.08-0.04,0.19-0.01,0.25,0.06c0.16,0.21,0.65,0.5,1.33,0.82
		c-0.07-0.4-0.14-1.1-0.06-1.93C34.64,14.13,31.92,13.68,30.11,13.38z"/>
	<path class="st0" d="M25.06,16.06c0.1,0.27,0.24,0.55,0.42,0.82c0.03,0.03,0.05,0.06,0.07,0.09c0.84,1.14,2.34,2.18,3.7,3.11
		c0.42,0.29,0.85,0.58,1.24,0.87c1.52,1.11,3.33,2.99,4.25,4.01c-0.04-0.11-0.07-0.22-0.1-0.34c-0.4-1.5-0.32-3.1-0.23-4.47
		c-0.37-1.33-3.75-3.49-5.68-3.62c-0.26-0.02-0.52-0.04-0.79-0.06v-0.01C26.7,16.34,25.6,16.16,25.06,16.06z"/>
	<path class="st0" d="M18.26,29.1c-0.13-0.45-0.2-0.79-0.22-0.89c-0.14-0.17-0.28-0.35-0.41-0.54
		C17.79,28.17,18.02,28.66,18.26,29.1z"/>
	<path class="st0" d="M55.1,23.26c1.23-1.02,2.81-1.66,4.32-2.16c0.12-0.2,0.54-1.04,0.41-2.32c-0.04-0.3-0.17-0.51-0.4-0.62
		c-0.08-0.04-0.18-0.06-0.27-0.08c-0.21,0.7-1.12,3.1-4.06,5.14V23.26z"/>
	<path class="st0" d="M22.67,30.13c0.32,0.1,0.66,0.2,0.99,0.3c1.85,0.55,3.75,1.13,5.3,1.97c-1.98-2.78-2.77-5.51-2.92-6.07
		c-1.95-0.86-3.74-0.64-5.63-0.39c-1,0.12-2.03,0.25-3.11,0.23C18.3,28.67,19.85,29.27,22.67,30.13z"/>
	<path class="st0" d="M54.43,19.94c0.24,0.53,0.54,1.58,0.64,2.79c2.56-1.83,3.44-3.97,3.68-4.69c-0.99,0.02-2.56,0.62-4.37,1.71
		C54.39,19.82,54.41,19.89,54.43,19.94z"/>
	<path class="st0" d="M49.71,20.44c1.1-0.88,2.14-1.54,2.51-1.74c0.94-0.51,1.56-1.26,1.57-1.27c0.05-0.07,0.14-0.09,0.22-0.06
		c0.08,0.03,0.13,0.11,0.13,0.2c0,0.01-0.02,0.47,0.02,1.03c1.7-1.28,2.12-3.26,2.21-3.85c-1.09-0.19-2.96,0.18-4.85,1.34
		c0.41,0.43,0.77,1.05,1.02,1.82c0.03,0.11-0.02,0.22-0.13,0.26c-0.02,0-0.04,0.01-0.06,0.01c-0.08,0-0.16-0.06-0.19-0.14
		c-0.32-1.01-0.83-1.72-1.39-2.05c0.06,0.73,0.02,2.44-1.12,4.36C49.67,20.38,49.69,20.41,49.71,20.44z"/>
	<path class="st0" d="M41.02,20.25c0.92,0.71,1.79,1.62,2.31,2.62c0.41,0.8,0.53,1.55,0.39,2.25c0.06-0.01,0.12-0.01,0.18-0.02
		c0.01,0,0.02-0.01,0.02-0.01l0.01,0.01c0.18-0.03,0.36-0.06,0.55-0.06c0.02,0,0.03,0.01,0.05,0.01c-0.48-3.41-0.14-7.06-0.01-8.16
		C43.38,17.44,41.75,18.96,41.02,20.25z"/>
	<path class="st0" d="M38.85,19.05c-0.46-0.65-0.99-1.43-1.44-2.13c0.31,0.69,0.71,1.43,1.15,2.04
		C38.66,18.99,38.75,19.02,38.85,19.05z"/>
	<path class="st0" d="M62.89,28.66c-0.08,0.12-0.14,0.24-0.21,0.36c1.97-0.71,3.78-2.01,5.2-3.28
		C66.52,26.77,64.84,27.82,62.89,28.66z"/>
	<path class="st0" d="M50.76,42.3c0.65-2.21,1.53-5.31,1.85-6.45c-0.18,0.09-0.35,0.18-0.52,0.26
		C51.21,37.48,50.72,39.74,50.76,42.3z"/>
	<path class="st0" d="M50.77,43.64c0.01,0,0.01,0,0.02,0c1.73-2.52,2.7-7.03,2.97-8.4c-0.22,0.12-0.44,0.23-0.66,0.35
		C52.91,36.29,51.48,41.35,50.77,43.64z"/>
	<path class="st0" d="M52.08,43.17c2.97-2.95,3.73-7.83,3.9-9.39c-0.24,0.21-0.52,0.42-0.85,0.64
		C55.05,35.11,54.42,39.71,52.08,43.17z"/>
	<path class="st0" d="M51.47,43.32c2.27-3.09,3.02-7.32,3.22-8.63c-0.15,0.09-0.3,0.18-0.46,0.27
		C54.1,35.67,53.23,40.36,51.47,43.32z"/>
	<path class="st0" d="M50.37,43.59c0.01-0.04,0.02-0.08,0.04-0.13c-0.2-2.75,0.17-5.29,1.02-6.98c-0.24,0.14-0.48,0.3-0.73,0.47
		C49.91,38.39,49.35,41.5,50.37,43.59z"/>
	<path class="st0" d="M46.65,43.24c0.05,0,0.1,0.01,0.15,0.01c-0.09-0.14-0.15-0.3-0.21-0.47C46.6,42.94,46.62,43.09,46.65,43.24z"
		/>
	<path class="st0" d="M47.98,38.91c0.3-0.36,0.64-0.71,0.98-1.04c-0.11-0.31-0.37-0.61-0.72-0.91
		C48.25,37.49,48.15,38.21,47.98,38.91z"/>
	<path class="st0" d="M51.95,44.12c-0.12-0.01-0.24-0.01-0.36-0.02c0,0,0,0-0.01,0c-0.02,0-0.03-0.01-0.05-0.01
		c-0.1,0.22-0.37,0.72-0.9,1.37C51.23,44.9,51.68,44.41,51.95,44.12z"/>
	<path class="st0" d="M49.75,43.55c0.06,0.01,0.12,0.01,0.18,0.02c-0.82-1.89-0.52-4.47,0.1-6.09c-0.17,0.14-0.34,0.29-0.5,0.44
		C48.99,39.52,48.94,42.07,49.75,43.55z"/>
	<path class="st0" d="M48.95,38.47c-0.17,0.17-0.33,0.35-0.49,0.53c-0.25,1.09-0.48,3.03,0.58,4.49c0.06,0,0.11,0.01,0.17,0.01
		c0.02,0,0.05,0.01,0.07,0.01C48.65,42.12,48.61,40.05,48.95,38.47z"/>
	<path class="st0" d="M52.47,44.15c-0.11,0.12-0.39,0.44-0.83,0.88c0.07-0.05,0.13-0.1,0.2-0.15c0.01-0.01,0.01,0,0.01-0.01
		c0.3-0.23,0.59-0.46,0.92-0.71C52.67,44.16,52.57,44.15,52.47,44.15z"/>
	<path class="st0" d="M56.71,47.37c-1.79-0.24-3.84-0.8-4.79-2.04c-0.07,0.05-0.14,0.1-0.2,0.15
		C52.86,46.54,54.52,47.17,56.71,47.37z"/>
	<path class="st0" d="M46.24,48.21c0.89-1.37,0.71-3.89,0.64-4.55c-0.22-0.02-0.45-0.05-0.68-0.07c0.36,1.18,0.22,3.5,0,4.63
		C46.22,48.21,46.23,48.21,46.24,48.21z"/>
	<path class="st0" d="M56.44,33.32c-0.01,0.01-0.01,0.01-0.02,0.02c-0.03,0.6-0.5,6.71-4.17,10.22c4.01-3.02,4.52-8.83,4.54-9.23
		c-0.02-0.08-0.05-0.15-0.07-0.22C56.61,33.83,56.51,33.57,56.44,33.32z"/>
	<path class="st0" d="M50.9,44.05c-0.12-0.01-0.24-0.02-0.37-0.03c-0.08,0.32-0.33,1.08-0.92,2.02c0.87-0.92,1.3-1.62,1.49-1.98
		C51.03,44.06,50.97,44.05,50.9,44.05z"/>
	<path class="st0" d="M53.21,43.77h0.07c0,0,0,0,0.01,0c2.97-2.14,3.96-4.13,4.11-5.88C56.94,39.47,55.82,41.88,53.21,43.77z"/>
	<path class="st0" d="M53.25,43.24c3.63-2.77,4.04-6.56,4.08-6.98c-0.07-0.36-0.15-0.72-0.25-1.05
		C56.82,36.93,55.96,40.7,53.25,43.24z"/>
	<path class="st0" d="M49.62,43.94c-0.08-0.01-0.15-0.01-0.22-0.02c-0.03,0.42-0.15,1.44-0.57,2.52c0.84-1.11,1.18-2.06,1.29-2.46
		C49.95,43.97,49.79,43.95,49.62,43.94z"/>
	<path class="st0" d="M48.99,43.88h-0.06c-0.2-0.02-0.4-0.04-0.6-0.06c0.03,0.69,0.02,2.68-0.94,4.02c0.09-0.04,0.19-0.07,0.28-0.11
		C48.72,46.32,48.94,44.45,48.99,43.88z"/>
	<path class="st0" d="M58.7,30.69c-0.93,1.31-1.38,2.66-1.36,3.65C58.33,33,58.62,31.51,58.7,30.69z"/>
	<path class="st0" d="M47.91,43.78c-0.2-0.02-0.41-0.04-0.62-0.06c0.07,0.69,0.19,2.66-0.4,4.11
		C47.96,46.59,47.94,44.39,47.91,43.78z"/>
	<path class="st0" d="M47.07,41.01c-0.07,0.14-0.13,0.28-0.19,0.43c-0.08,0.68,0.08,1.55,0.5,1.87c0.12,0.02,0.23,0.03,0.35,0.04
		C47.23,42.7,47.01,41.91,47.07,41.01z"/>
	<path class="st0" d="M28.12,16.08c0.21,0.02,0.42,0.04,0.64,0.05c0.4,0.03,0.86,0.13,1.33,0.29c-0.76-1.11-1.24-2.37-1.47-3.04
		C28.29,14.01,27.84,14.94,28.12,16.08z"/>
	<path class="st0" d="M24.87,17.65c0.07,0.31,0.89,3.86,3.22,6.39c0.2,0.02,0.4,0.05,0.62,0.08c-2.81-2.86-3.62-5.92-3.84-7.13
		V17.65z"/>
	<path class="st0" d="M31.3,16.94c-0.59-0.82-1.36-1.89-1.95-2.73c0.33,0.78,0.81,1.72,1.43,2.49
		C30.96,16.76,31.13,16.84,31.3,16.94z"/>
	<path class="st0" d="M18.92,18.66c0.83,0.99,3.67,4.21,7.17,6.39c-0.13-0.4-0.26-0.78-0.4-1.08c-0.01-0.02-0.01-0.05-0.01-0.08
		c0-0.01-0.01-0.02,0-0.03c0-0.04,0.02-0.08,0.05-0.11c0,0,0.01,0,0.01-0.01c0,0,0,0,0.01-0.01h0.02c0.04-0.02,0.07-0.03,0.1-0.03
		h0.04c0.02,0.01,0.03,0,0.04,0.01c0.27,0.12,0.69,0.17,1.18,0.23c-1.28-1.29-2.17-3.62-2.34-4.1
		C24.31,19.63,21.61,18.54,18.92,18.66z"/>
	<path class="st0" d="M38.98,25.22c-0.2-0.36-0.47-0.77-0.81-1.21c-1.5-1.95-2.42-5.21-2.58-5.79c-0.01,0-0.02-0.01-0.03-0.02
		c0.19,1.99,1.32,4.29,2.42,5.63C38.36,24.29,38.69,24.77,38.98,25.22z"/>
	<path class="st0" d="M48.55,50.15c-0.73-0.39-1.35-0.91-1.83-1.54c-0.05,0.05-0.09,0.1-0.13,0.15c0.29,0.25,0.8,0.89,0.87,2.17
		C47.81,50.7,48.18,50.44,48.55,50.15z"/>
	<path class="st0" d="M19.92,31.41c-0.54-1.19-0.8-2.08-0.85-2.3c-0.03-0.02-0.07-0.04-0.1-0.07c-0.14-0.1-0.27-0.2-0.4-0.31
		c0.12,0.44,0.3,1.07,0.56,1.73C19.39,30.8,19.66,31.12,19.92,31.41z"/>
	<path class="st0" d="M21.81,33.13c-0.91-1.4-1.73-2.99-1.81-3.17c-0.13-0.12-0.24-0.24-0.35-0.36c0.2,0.62,0.58,1.61,1.21,2.72
		C21.18,32.63,21.5,32.9,21.81,33.13z"/>
	<path class="st0" d="M21.5,25.4c1.04-0.11,2.08-0.14,3.14,0.07c-3.53-2.31-5.12-4.43-5.83-5.72C19.05,21.06,19.7,23.2,21.5,25.4z"
		/>
	<path class="st0" d="M20.9,25.46c0.04,0,0.09-0.01,0.13-0.01c-1.61-2.04-2.28-3.97-2.54-5.29C18.56,22.78,20.53,25.06,20.9,25.46z"
		/>
	<path class="st0" d="M29.76,21.72c1.7,1.38,3.97,3.25,5.46,4.65c-0.06-0.15-0.11-0.31-0.17-0.46c-0.16-0.18-2.75-3.14-4.8-4.64
		c-0.38-0.28-0.81-0.56-1.23-0.86c-0.65-0.44-1.29-0.9-1.88-1.36C27.9,19.99,28.81,20.96,29.76,21.72z"/>
	<path class="st0" d="M65.73,33.09c-0.88,1.83-2.66,5-5.4,7.53C64.11,38.11,65.26,35.3,65.73,33.09z"/>
	<path class="st0" d="M69.5,30.15c-0.25,0.29-0.51,0.58-0.78,0.88c-0.06,0.19-0.11,0.4-0.17,0.61c-0.36,1.4-0.87,3.33-3.67,5.17
		c-0.03,0.02-0.07,0.03-0.11,0.03c-0.02,0-0.04-0.02-0.06-0.03c-0.13,0.22-0.28,0.45-0.44,0.68c0.2-0.14,0.4-0.28,0.59-0.42
		C68.23,34.39,69.22,31.45,69.5,30.15z"/>
	<path class="st0" d="M29.41,24.25c0.11,0.02,0.22,0.03,0.33,0.06c2.49,0.54,4.75,2.17,6.03,3.25c-0.03-0.05-0.06-0.12-0.09-0.18
		c-1.34-1.4-4.16-3.72-6.17-5.34c-1.66-1.33-3.2-3.3-4.12-4.61C25.73,18.88,26.71,21.71,29.41,24.25z"/>
	<path class="st0" d="M61.93,32.19c1.74-0.42,3.56-0.87,4.3-1.93c0.06-0.08,0.16-0.11,0.24-0.07c0.09,0.04,0.14,0.13,0.12,0.23
		c-0.07,0.3-0.12,0.66-0.18,1.07c-0.06,0.41-0.12,0.88-0.22,1.38c1.19-0.89,2.36-2.25,3.41-3.47c0.53-0.62,1.03-1.2,1.45-1.62
		c-4.07,0.36-7.41,1.88-10.59,4.8C60.92,32.44,61.41,32.32,61.93,32.19z"/>
	<path class="st0" d="M57.53,48.2c0.19-0.13,0.42-0.25,0.66-0.37c-3.05-0.01-5.33-0.72-6.78-2.1c-1.08,0.86-2.09,1.61-3.14,2.16
		c-0.02,0.01-0.03,0.02-0.04,0.02c-0.01,0.01-0.02,0.01-0.03,0.01c-0.37,0.19-0.75,0.35-1.13,0.47c0.6,0.77,1.43,1.33,2.41,1.71
		C51.5,50.69,55.74,49.4,57.53,48.2z"/>
	<path class="st0" d="M65.78,44.85c0.71-0.55,1.36-1.09,1.16-1.94c-0.16-0.67-0.55-1.18-1.16-1.51c-1.3-0.74-3.53-0.66-6.27,0.21
		c-0.41,0.23-0.84,0.46-1.3,0.7c-1.34,0.66-2.91,1.28-4.76,1.84c-0.42,0.31-0.83,0.62-1.21,0.93c1.69,2.24,7.64,2.07,7.71,2.07
		c0,0,0,0,0.01,0c1.66-0.47,3.52-0.63,4.74-0.25c-0.05-0.16-0.09-0.31-0.08-0.45C64.63,45.78,65.22,45.31,65.78,44.85z"/>
	<path class="st0" d="M26.22,25.6c-3.06-1.82-5.66-4.5-6.98-5.96c0.79,1.39,2.64,3.78,6.89,6.28c0.01,0,0.01,0.01,0.01,0.01
		c0.04,0.02,0.09,0.04,0.13,0.06c0.02,0.01,0.03,0.01,0.05,0.02c0.03,0.02,0.07,0.04,0.1,0.05c-0.04-0.11-0.08-0.23-0.11-0.35
		C26.27,25.65,26.24,25.62,26.22,25.6z"/>
	<path class="st0" d="M38.58,43.45c0.03-0.02,0.06-0.04,0.09-0.06c-0.44-0.7-1.83-3.05-2.05-5.63c-0.23-0.07-0.45-0.15-0.67-0.25
		C36,39.17,37.27,41.8,38.58,43.45z"/>
	<path class="st0" d="M71.35,22.65c-0.04,0.06-4.05,5.36-8.94,6.89c-0.03,0.06-0.06,0.12-0.1,0.19c-0.22,0.43-0.46,0.9-0.76,1.39
		c2.28-1.78,4.68-2.89,7.38-3.44c0.03-0.02,2.69-1.89,2.67-5.31C71.53,22.46,71.45,22.55,71.35,22.65z"/>
	<path class="st0" d="M63.36,23.79c-0.17,0.93-0.44,1.92-0.88,2.71c0.61-0.12,1.22-0.15,1.81-0.01c0.02,0.01,0.04,0.01,0.05,0.02
		h0.01v0.01c0.04,0.02,0.07,0.06,0.09,0.11v0.02c0,0.02,0.01,0.03,0.01,0.05c0,0.03-0.01,0.05-0.02,0.07
		c-0.01,0.02-0.02,0.03-0.03,0.04c0,0.01-0.01,0.02-0.02,0.03c-0.46,0.4-0.81,0.79-1.09,1.18c4.39-2.04,7.29-5.1,8.08-6.02
		C66.71,21.38,63.78,23.47,63.36,23.79z"/>
	<path class="st0" d="M59.32,27.41c0.26-0.09,0.5-0.17,0.7-0.22c0.26-0.07,0.52-0.15,0.78-0.23c0.37-0.12,0.76-0.24,1.14-0.33
		c0.79-1.16,1.1-3.01,1.22-4.29C62.5,23.82,61.32,25.66,59.32,27.41z"/>
	<path class="st0" d="M62.72,27.42c-0.17,0.31-0.32,0.85-0.49,1.46c-0.02,0.09-0.06,0.2-0.08,0.29c0.36-0.71,0.74-1.37,1.39-2.07
		C63.25,27.2,62.98,27.31,62.72,27.42z"/>
	<path class="st0" d="M47.67,40.02c-0.41,1.4-0.19,2.55,0.66,3.4c0.07,0.01,0.14,0.01,0.21,0.02c-0.76-1.23-0.78-2.68-0.61-3.78
		C47.84,39.78,47.75,39.9,47.67,40.02z"/>
	<path class="st0" d="M23.49,34.24c0.12-0.03,0.25-0.07,0.38-0.1c-1.45-1.21-2.62-3.05-2.75-3.28c-0.11-0.07-0.21-0.15-0.32-0.23
		c0.48,0.88,1.26,2.24,1.98,3.19C23.12,34.04,23.38,34.18,23.49,34.24z"/>
	<path class="st0" d="M60.54,31.86c0.06-0.07,0.12-0.14,0.17-0.21c0.55-0.84,0.86-1.92,1.13-2.88c0.11-0.4,0.21-0.78,0.32-1.08
		c-0.18,0.09-0.35,0.19-0.52,0.29C61.59,28.43,61.38,30.19,60.54,31.86z"/>
	<path class="st0" d="M45.76,43.55c-0.23-0.02-0.47-0.05-0.71-0.08c0.41,0.58,0.43,1.42,0.44,2.29c0,0.8,0.01,1.61,0.33,2.3
		C46.04,46.88,46.16,44.49,45.76,43.55z"/>
	<path class="st0" d="M45.57,48.46c0,0,0.01,0,0.02,0c-0.48-0.83-0.5-1.81-0.5-2.71c-0.01-1.03-0.03-1.93-0.7-2.36
		c-0.17-0.02-0.35-0.04-0.52-0.06c0.24,0.36,0.28,0.84,0.32,1.36c0.02,0.27,0.04,0.55,0.09,0.87
		C44.46,46.76,44.98,48.15,45.57,48.46z"/>
	<path class="st0" d="M47.02,40.24c0.07-0.12,0.15-0.25,0.24-0.37c0.46-1.1,0.71-2.78,0.54-3.24c-0.14-0.08-0.27-0.17-0.41-0.25
		c0.21,0.91-0.03,2.16-0.28,3.38C47.08,39.93,47.05,40.08,47.02,40.24z"/>
	<path class="st0" d="M59.22,33.14c1.38-1.6,1.84-3.94,1.98-4.89c-0.27,0.18-0.52,0.37-0.77,0.57
		C60.41,29.29,60.29,31.28,59.22,33.14z"/>
	<path class="st0" d="M46.4,41.53c0.05-0.55,0.17-1.19,0.31-1.85c0.26-1.3,0.56-2.77,0.16-3.57c-0.15-0.07-0.29-0.13-0.44-0.19
		c0.56,1.56,0.19,3.16-0.18,4.71c-0.2,0.83-0.4,1.67-0.47,2.52c0.15,0.02,0.3,0.04,0.46,0.05C46.14,42.68,46.21,42.11,46.4,41.53z"
		/>
	<path class="st0" d="M59.22,33.71c-0.27,0.22-0.53,0.41-0.78,0.58c0.03,0.19,0.27,1.58,0.07,3.22
		C59.01,35.94,59.17,34.45,59.22,33.71z"/>
	<path class="st0" d="M66.08,33.46c-0.11,0.43-0.24,0.9-0.41,1.37c0.6-0.72,0.8-1.26,0.95-1.7c0.01-0.03,0.02-0.05,0.02-0.07
		c-0.18,0.14-0.36,0.27-0.54,0.4C66.08,33.46,66.08,33.46,66.08,33.46z"/>
	<path class="st0" d="M57.45,41.79c3.81-2.91,6.74-8.43,7.6-10.15c-0.33,0.15-0.69,0.28-1.05,0.4
		C63.75,32.78,61.83,38.1,57.45,41.79z"/>
	<path class="st0" d="M56.87,40.69c1.64-2.09,1.32-5.31,1.2-6.15c-0.27,0.18-0.49,0.31-0.66,0.4c0.12,0.39,0.23,0.82,0.31,1.26
		c0,0.01,0.01,0.02,0.01,0.03c0,0,0,0.02,0,0.03c0.21,1.31,0.1,2.85-0.94,4.53C56.82,40.75,56.85,40.72,56.87,40.69z"/>
	<path class="st0" d="M65.34,35.67c-0.01,0-0.01,0-0.02,0c-0.08,0.16-0.16,0.33-0.25,0.5c2.23-1.61,2.72-3.2,3.06-4.51
		c-0.21,0.21-0.42,0.42-0.64,0.62c-0.28,0.29-0.38,0.58-0.5,0.96c-0.2,0.58-0.44,1.32-1.51,2.37
		C65.44,35.65,65.39,35.67,65.34,35.67z"/>
	<path class="st0" d="M57.84,40.72c-0.01,0.02-0.03,0.04-0.04,0.06c-0.01,0.01-0.02,0-0.03,0.01c-0.47,0.48-1,0.97-1.58,1.45
		c4.62-3.3,6.81-8.64,7.33-10.06c-0.42,0.12-0.85,0.23-1.28,0.34C62.15,33.26,61.56,36.88,57.84,40.72z"/>
	<path class="st0" d="M59.34,38.31c1.89-2.66,2.37-4.92,2.47-5.68c-0.33,0.08-0.66,0.16-0.97,0.25
		C60.78,33.48,60.5,35.87,59.34,38.31z"/>
	<path class="st0" d="M44.61,48.4c-0.96-0.77-1.43-2.12-1.46-3.04c-0.03-1.22-0.74-2.12-1.22-2.28c-0.22-0.03-0.43-0.06-0.64-0.09
		c0.55,0.6,0.85,1.41,1.13,2.26C42.83,46.47,43.27,47.72,44.61,48.4z"/>
	<path class="st0" d="M59.13,30.13c0,0.4-0.04,2.24-1.17,4c0.02-0.01,0.04-0.02,0.06-0.03c1.52-1.66,1.88-3.92,1.98-4.89
		C59.69,29.5,59.38,29.81,59.13,30.13z"/>
	<path class="st0" d="M59.64,33.36c-0.02,0.76-0.21,4.17-1.89,6.83c2.02-2.69,2.56-6.16,2.67-7.18c-0.2,0.06-0.42,0.12-0.61,0.19
		C59.76,33.25,59.7,33.3,59.64,33.36z"/>
	<path class="st0" d="M57.75,42.07c0.09-0.04,0.18-0.08,0.27-0.13c5.33-3.54,7.9-10.24,7.99-10.47c0-0.01,0.01-0.03,0.01-0.04
		c0.02-0.15,0.04-0.28,0.06-0.41c-0.12,0.1-0.28,0.18-0.42,0.27C65.47,31.71,62.27,38.61,57.75,42.07z"/>
	<path class="st0" d="M30.06,33.1c0-0.12,0.02-0.25,0.04-0.38c-1.94-2.12-2.86-4.31-3.49-6.12c-0.03-0.01-0.05-0.02-0.08-0.04
		c0.31,1.05,1.28,3.81,3.37,6.43C29.96,33.03,30.01,33.07,30.06,33.1z"/>
	<path class="st0" d="M33.94,36.88c-2.32-2.03-2.71-3.81-2.76-4.49c-0.02-0.24-0.01-0.46,0.03-0.67c-0.16,0.1-0.3,0.21-0.42,0.36
		c-0.23,0.55,0.48,2.55,3.13,4.82C33.93,36.9,33.93,36.89,33.94,36.88z"/>
	<path class="st0" d="M30.42,31.91c0,0,0.01,0,0.01-0.01c0.43-0.59,1.18-0.83,1.82-1c-2.24-1.24-4.18-3.21-5.24-4.36
		c0.59,1.69,1.47,3.74,3.22,5.72c0.05-0.12,0.12-0.23,0.19-0.33C30.42,31.91,30.42,31.91,30.42,31.91z"/>
	<path class="st0" d="M26.48,24.95c0.06,0.18,0.12,0.36,0.19,0.55c0,0.01,0,0.01,0,0.02c0.64,0.77,3.19,3.72,6.15,5.23
		c0.1-0.03,0.2-0.06,0.28-0.09C30.92,29.91,27.89,26.59,26.48,24.95z"/>
	<path class="st0" d="M29.58,33.24c-1.61-1.09-3.76-1.74-6.03-2.42c-0.33-0.1-0.67-0.2-1-0.3c-0.32-0.1-0.63-0.19-0.93-0.29
		c1.42,0.7,2.91,1.18,4.29,1.62C27.26,32.28,28.54,32.69,29.58,33.24z"/>
	<path class="st0" d="M35.12,37c-0.06-0.05-0.12-0.09-0.17-0.14c-0.01-0.01-0.01-0.02-0.02-0.02c-0.03-0.03-0.06-0.06-0.1-0.09
		c0.05,1.78,1.03,3.89,2.84,6.15c-1.17-1.74-2.18-4.06-2.12-5.6c-0.15-0.08-0.29-0.18-0.42-0.28C35.13,37,35.12,37,35.12,37z"/>
	<path class="st0" d="M31.72,31.49c-0.09,0.14-0.18,0.42-0.14,0.88c0.05,0.62,0.41,2.28,2.62,4.2c0.01-0.02,0.02-0.05,0.04-0.07
		c-2.19-2.52-2.18-4.41-2.04-5.16C32.04,31.38,31.89,31.43,31.72,31.49z"/>
	<path class="st0" d="M34.63,31.97c-0.12,0.72-0.31,2.58,0.47,4.35c0.09-1.65,0-3.58-0.02-4.01C34.92,32.21,34.77,32.08,34.63,31.97
		z"/>
	<path class="st0" d="M34.4,36.97c0,0.01,0,0.02-0.01,0.03c0,0.01-0.01,0-0.01,0.01c-0.09,0.11-0.19,0.2-0.29,0.28
		c0,0.01,0,0.01,0,0.02c-0.01,0.01-0.03,0.01-0.04,0.01c-0.07,0.06-0.15,0.12-0.23,0.16c0.02,0.28,0.12,1.13,0.61,1.9
		c0.61,0.97,2.55,3.35,2.66,3.48c0.03,0.02,0.05,0.03,0.08,0.04c-1.72-2.2-2.64-4.19-2.73-5.98C34.43,36.94,34.42,36.96,34.4,36.97z
		"/>
	<path class="st0" d="M39.63,47.18c0.1,0.06,0.21,0.11,0.31,0.17c-1.2-1.09-1.93-2.35-2.06-3.17c-0.14,0.04-0.3,0.08-0.46,0.11
		c0.1,0.69,0.84,1.45,1.7,2.35C39.28,46.82,39.46,46.99,39.63,47.18z"/>
	<path class="st0" d="M41.94,48.25c-1.75-1.21-2.84-3.01-3.1-4.47c-0.05,0.03-0.12,0.06-0.17,0.09c0,0,0,0-0.01,0
		c-0.12,0.07-0.24,0.13-0.38,0.18c0.09,1,1.44,3,3.56,4.16C41.86,48.23,41.89,48.24,41.94,48.25z"/>
	<path class="st0" d="M31.98,47.32c0.16,0.11,0.34,0.23,0.51,0.35c2.62,1.04,6.44,0.64,7.94,0.41c-0.15-0.07-0.31-0.16-0.46-0.24
		C39.33,47.92,38.46,48,37.41,48C35.9,48,34.03,47.82,31.98,47.32z"/>
	<path class="st0" d="M43.53,48.63c-0.78-0.52-1.53-1.42-2.3-2.73c-0.72-1.23-1.35-2.35-1.67-2.91c-0.09,0.19-0.21,0.36-0.37,0.52
		c0.18,1.46,1.56,3.94,4.16,5.09L43.53,48.63z"/>
	<path class="st0" d="M42.04,45.38c-0.34-1.01-0.67-1.97-1.47-2.49c-0.17-0.03-0.33-0.06-0.48-0.08c-0.06-0.01-0.12-0.02-0.17-0.03
		c0.3,0.53,0.95,1.67,1.67,2.91c0.67,1.14,1.31,1.95,1.97,2.45C42.72,47.37,42.36,46.33,42.04,45.38z"/>
	<path class="st0" d="M33.6,43.42c0.09,0.27,0.51,0.55,1.39,0.62c0.01,0,0.02,0,0.03,0.01c0.18,0.01,0.39,0.02,0.61,0.01
		c0.91-0.01,1.65-0.12,2.23-0.3c-0.67-0.52-2.05-1.01-3.73-1.34C33.71,42.78,33.5,43.14,33.6,43.42z"/>
	<path class="st0" d="M36.27,42.51c-0.66-0.82-1.73-2.2-2.18-2.89c-0.47-0.75-0.62-1.54-0.67-1.95c-0.27,0.09-0.54,0.13-0.82,0.14
		C32.54,38.26,33.37,40.36,36.27,42.51z"/>
	<path class="st0" d="M31.56,37.71c0.16,0.72,1.69,3.37,3.26,4.45c0.18,0.04,0.35,0.09,0.53,0.13c-2.17-1.8-3.18-3.67-3.14-4.5
		C31.99,37.77,31.76,37.74,31.56,37.71z"/>
	<path class="st0" d="M37.02,44.36c-0.38,0.06-0.82,0.1-1.29,0.11c0.58,0.36,1.46,0.94,2.19,1.47
		C37.43,45.39,37.1,44.88,37.02,44.36z"/>
	<path class="st0" d="M30.47,33c-0.11,1.22,0.71,2.39,2.61,3.7C31.55,35.26,30.75,33.94,30.47,33z"/>
</g>
</svg>
