<svg xmlns="http://www.w3.org/2000/svg" xmlns:xlink="http://www.w3.org/1999/xlink" width="118" viewBox="0 0 88.5 77.249999" height="103" preserveAspectRatio="xMidYMid meet"><defs><clipPath id="223c212190"><path d="M 3 2.882812 L 34.210938 2.882812 L 34.210938 39.511719 L 3 39.511719 Z M 3 2.882812 " clip-rule="nonzero"></path></clipPath><clipPath id="2c0f347d9d"><path d="M 7.457031 23.621094 C 8.644531 16.414062 7.085938 14.707031 7.605469 13.59375 C 8.199219 12.332031 11.542969 10.472656 13.027344 11.289062 C 15.925781 12.777344 18.003906 29.5625 17.855469 33.871094 C 17.78125 35.578125 17.484375 36.546875 16.742188 37.4375 C 16.074219 38.328125 14.738281 39.144531 13.546875 39.367188 C 12.433594 39.589844 10.875 39.367188 9.910156 38.773438 C 8.867188 38.179688 7.828125 37.066406 7.53125 35.800781 C 7.234375 34.09375 8.050781 31.195312 9.3125 29.191406 C 10.875 26.742188 14.8125 25.03125 17.261719 22.730469 C 19.566406 20.425781 22.089844 15.152344 23.574219 15.300781 C 24.691406 15.449219 25.582031 17.902344 25.878906 19.386719 C 26.175781 20.871094 25.804688 22.582031 25.507812 24.289062 C 25.136719 26.070312 24.617188 28.449219 23.722656 29.710938 C 22.980469 30.75 21.941406 31.421875 20.902344 31.71875 C 19.9375 32.089844 18.523438 32.015625 17.484375 31.71875 C 16.519531 31.34375 15.40625 30.453125 14.8125 29.5625 C 14.214844 28.671875 13.769531 27.410156 13.992188 26.292969 C 14.214844 24.882812 15.480469 22.804688 16.667969 21.988281 C 17.558594 21.390625 18.894531 21.09375 20.011719 21.316406 C 21.347656 21.613281 23.351562 23.027344 24.09375 24.214844 C 24.691406 25.179688 24.765625 26.515625 24.617188 27.632812 C 24.394531 28.671875 23.722656 29.859375 22.90625 30.601562 C 22.164062 31.34375 20.976562 31.941406 19.789062 31.941406 C 18.375 32.015625 16.148438 31.046875 15.183594 30.007812 C 14.363281 29.191406 14.066406 28.152344 13.992188 26.816406 C 13.84375 24.734375 15.257812 20.945312 16 18.644531 C 16.667969 16.859375 17.1875 15.449219 18.078125 14.113281 C 19.042969 12.703125 20.160156 11.214844 21.644531 10.398438 C 23.128906 9.507812 25.285156 8.988281 26.992188 8.988281 C 28.625 9.0625 30.632812 9.582031 31.820312 10.621094 C 33.007812 11.660156 33.828125 13.667969 34.050781 15.226562 C 34.273438 16.710938 33.828125 18.347656 33.15625 19.832031 C 32.488281 21.390625 31.449219 22.804688 30.113281 24.4375 C 28.253906 26.742188 25.136719 30.601562 22.757812 32.089844 C 21.050781 33.203125 18.671875 32.90625 17.855469 33.871094 C 17.261719 34.539062 17.707031 35.578125 17.410156 36.324219 C 17.113281 37.066406 16.519531 37.808594 15.851562 38.328125 C 15.257812 38.847656 14.4375 39.292969 13.546875 39.367188 C 12.507812 39.515625 10.875 39.367188 9.910156 38.773438 C 8.867188 38.179688 8.273438 37.363281 7.53125 35.800781 C 5.824219 32.164062 3.667969 19.832031 3.148438 15.300781 C 2.925781 13.148438 3 11.957031 3.148438 10.398438 C 3.296875 8.765625 3.371094 6.832031 4.261719 5.644531 C 5.230469 4.308594 7.308594 3.046875 8.867188 2.972656 C 10.578125 2.824219 12.878906 3.9375 14.214844 4.976562 C 15.40625 5.941406 16.074219 7.355469 16.742188 8.691406 C 17.484375 10.101562 18.078125 11.363281 18.375 13.222656 C 18.894531 15.820312 19.265625 20.128906 18.671875 23.027344 C 18.078125 25.550781 16.890625 28.300781 15.554688 29.636719 C 14.589844 30.527344 13.398438 31.046875 12.285156 31.195312 C 11.171875 31.269531 9.761719 30.75 8.867188 30.230469 C 8.125 29.710938 7.679688 29.042969 7.308594 28.300781 C 7.011719 27.632812 6.789062 26.742188 6.789062 25.996094 C 6.863281 25.179688 7.457031 23.621094 7.457031 23.621094 " clip-rule="nonzero"></path></clipPath><clipPath id="db46f875e1"><path d="M 60.585938 47.683594 L 84.707031 47.683594 L 84.707031 73.632812 L 60.585938 73.632812 Z M 60.585938 47.683594 " clip-rule="nonzero"></path></clipPath><clipPath id="bcd7bc6c97"><path d="M 70.074219 58.605469 C 67.699219 60.613281 67.996094 59.050781 67.625 58.160156 C 67.027344 56.898438 64.207031 55.113281 64.355469 54.074219 C 64.503906 53.183594 66.582031 51.921875 67.101562 52.144531 C 67.546875 52.292969 67.546875 53.480469 67.625 54.667969 C 67.996094 57.566406 68.441406 66.480469 67.699219 69.671875 C 67.398438 71.234375 66.730469 72.496094 66.0625 73.089844 C 65.691406 73.386719 65.320312 73.535156 64.800781 73.460938 C 63.984375 73.460938 62.199219 72.71875 61.753906 71.902344 C 61.308594 71.160156 61.308594 69.820312 61.679688 69.078125 C 62.050781 68.335938 63.910156 67.296875 63.984375 67.445312 C 64.132812 67.519531 61.53125 70.640625 61.382812 70.566406 C 61.160156 70.417969 61.53125 68.855469 62.347656 67.667969 C 64.429688 64.695312 77.578125 54.371094 78.246094 55.039062 C 78.765625 55.410156 74.382812 62.320312 72.601562 63.65625 C 71.707031 64.398438 70.667969 64.695312 69.851562 64.621094 C 69.257812 64.546875 68.589844 64.175781 68.144531 63.65625 C 67.625 63.0625 67.175781 61.726562 67.398438 60.910156 C 67.546875 60.015625 68.441406 58.976562 69.257812 58.679688 C 70 58.382812 71.410156 58.605469 72.152344 58.976562 C 72.675781 59.347656 73.121094 59.941406 73.34375 60.539062 C 73.492188 61.355469 73.34375 62.765625 72.824219 63.433594 C 72.300781 64.101562 71.039062 64.621094 70.222656 64.621094 C 69.554688 64.621094 68.886719 64.324219 68.367188 63.878906 C 67.921875 63.507812 67.472656 62.839844 67.398438 62.246094 C 67.25 61.578125 67.324219 61.058594 67.546875 60.238281 C 68.144531 58.753906 70 55.710938 71.632812 54.148438 C 73.121094 52.664062 75.273438 51.402344 76.980469 50.882812 C 78.246094 50.507812 79.507812 50.582031 80.621094 50.808594 C 81.660156 50.957031 82.777344 51.328125 83.445312 51.996094 C 84.113281 52.664062 84.558594 53.851562 84.632812 54.742188 C 84.707031 55.710938 84.707031 56.453125 83.964844 57.640625 C 81.734375 61.058594 67.324219 73.164062 64.132812 73.535156 C 63.167969 73.609375 62.644531 73.015625 62.125 72.496094 C 61.679688 72.050781 61.382812 71.160156 61.382812 70.492188 C 61.382812 69.820312 61.679688 68.929688 62.125 68.484375 C 62.570312 67.964844 64.058594 67.445312 64.058594 67.445312 C 64.058594 67.445312 62.199219 69.078125 61.605469 68.707031 C 60.121094 67.816406 60.492188 53.554688 61.679688 50.433594 C 62.125 49.097656 62.871094 48.503906 63.6875 48.058594 C 64.503906 47.6875 65.765625 47.613281 66.582031 47.910156 C 67.472656 48.207031 67.921875 49.023438 68.738281 49.914062 C 70.148438 51.550781 72.972656 54.59375 73.640625 56.972656 C 74.234375 58.976562 74.234375 61.800781 73.417969 62.988281 C 72.898438 63.953125 71.558594 64.398438 70.59375 64.472656 C 69.777344 64.621094 68.664062 64.25 68.144531 63.730469 C 67.546875 63.359375 67.25 62.542969 67.101562 61.875 C 67.027344 61.28125 67.25 60.390625 67.625 59.867188 C 68.144531 59.273438 70.074219 58.605469 70.074219 58.605469 " clip-rule="nonzero"></path></clipPath></defs><g clip-path="url(#223c212190)"><g clip-path="url(#2c0f347d9d)"><path fill="#f56e71" d="M 0.179688 0 L 37.09375 0 L 37.09375 42.394531 L 0.179688 42.394531 Z M 0.179688 0 " fill-opacity="1" fill-rule="nonzero"></path></g></g><g clip-path="url(#db46f875e1)"><g clip-path="url(#bcd7bc6c97)"><path fill="#f56e71" d="M 58.414062 44.9375 L 87.679688 44.9375 L 87.679688 76.492188 L 58.414062 76.492188 Z M 58.414062 44.9375 " fill-opacity="1" fill-rule="nonzero"></path></g></g></svg>