<svg xmlns="http://www.w3.org/2000/svg" xmlns:xlink="http://www.w3.org/1999/xlink" id="Layer_2" viewBox="0 0 1843.2 1662.2"><defs><style>      .st0 {        fill: none;      }      .st1 {        fill: #ff244a;      }      .st2 {        fill: #8c8101;      }      .st3 {        fill: #1f4ec2;      }      .st4 {        fill: #cddb3c;      }      .st5 {        fill: #ff49ef;      }      .st6 {        clip-path: url(#clippath);      }    </style><clipPath id="clippath"><polygon class="st0" points="116.3 -27.4 1840.4 -27.4 1751.1 1648.5 26.9 1648.5 116.3 -27.4"></polygon></clipPath></defs><g class="st6"><g><g><g><path d="M762.3,1580.5c-179.9-30.9-344.6-124.8-463.5-264.7-59-69.4-105.1-147.6-137-232.5-33-87.9-49.7-180.4-49.7-275.2s20.7-208.4,61.6-305c39.5-93.3,96-177.1,167.9-249.1,72-72,155.8-128.5,249.1-167.9,96.6-40.9,199.2-61.6,305-61.6,206.5,0,401.4,79.6,548.8,224.2,71.7,70.3,128.4,152.4,168.7,243.9,41.6,94.6,63.8,195.3,65.9,299.3h-5.1C1665.6,371.8,1316.4,29.7,895.7,29.7S117.1,379,117.1,808.3s271.7,703.1,646,767.3l-.9,5h0Z"></path><circle cx="762.7" cy="1578" r="5.3"></circle><circle cx="1676.6" cy="792.2" r="5.3"></circle></g><g><path d="M808.7,1565.9c1.1.3,2.3.9,3.5,1.6l1.2.2c1.5.2,2.8,0,4-.4s2-1.2,2.4-2.1.5-1.6.2-2.2c-.3-.5-.8-1-1.5-1.3s-1.5-.6-2.3-.7c-.9-.2-1.7-.3-2.5-.4-.1,0-.3,0-.4,0s-.3,0-.4,0l-2.4-.4c-.5,0-1,0-1.4-.2-.5,0-.9-.1-1.2-.2l-3-.5c-.5,0-1.1-.2-1.5-.3-.5-.1-.9-.2-1.4-.3l-1.5-.2c-.1,0-.2,0-.3,0s0,0-.2,0c-2-.3-3.5-.2-4.7.2-1.1.4-2,1.2-2.5,2.3-.4.9-.4,1.8.1,2.5s1.6,1.3,3.3,1.6c.5,0,1.4,0,2.6,0-.2.6-.4,1.3-.7,2.3-.3.9-.7,1.9-1.1,2.9s-.8,2-1.2,3c-.4,1-.8,1.9-1.1,2.6-1.2,2.7-2.5,5.5-4,8.4-1.5,2.9-2.9,5.7-4.2,8.3-1.1,2-2,3.9-2.8,5.6-.8,1.7-1.6,3.3-2.2,4.7-.1,0-.3,0-.6-.1-.3,0-.6-.1-1.1-.2-1.8-.3-3.3-.2-4.6.1-1.3.4-2.2,1.1-2.7,2.4-.9,2,.2,3.3,3.1,3.9.3,0,.6.2,1,.2.4,0,.8.1,1.4.2,1.2.2,2.5.4,3.7.5,1.3.2,2.4.2,3.4.3.9,0,1.7.2,2.3.2.7,0,1.3.2,1.9.3.3,0,.5.1.8.2.2,0,.6.2,1.1.4,1.6,0,3-.3,4.2-.8,1.2-.5,2-1.1,2.3-1.8.9-2.1-.5-3.4-4.2-4-.5,0-1.1,0-1.7,0,0,0,0,0-.3-.1-.2,0-.6,0-1.2,0,.5-1.6,1.2-3.4,2-5.2.8-1.8,1.7-3.8,2.6-5.8.8-1.7,1.6-3.5,2.5-5.3s1.8-3.6,2.7-5.4c.9-1.8,1.8-3.5,2.7-5.2.9-1.7,1.7-3.3,2.5-4.7.8-1.6,1.5-3,2.2-4.2s1.1-2.1,1.3-2.7h0s0,0,0,0Z"></path><path d="M886.4,1566.8h-.3s-.1,0-.3,0c-.3,0-.8,0-1.4,0s-1.5,0-2.5-.1c-1.4,0-2.8,0-4.3-.1-1.5,0-2.8-.2-4-.3-.4,0-.7,0-.9-.1s-.6-.2-1-.4c-2,.2-3.6.7-4.6,1.3-1,.6-1.7,1.2-1.9,1.9-.3.7-.2,1.4.1,2s1.3,1.2,2.8,1.6c1.4-.2,3-.4,4.8-.4-.6,1.5-1.1,3-1.6,4.3-.5,1.3-1,2.7-1.4,3.9-.4,1.3-.8,2.6-1.2,3.8s-.8,2.6-1.3,3.9c-.9,2.7-1.8,5.5-2.7,8.1-.9,2.7-1.9,5.4-3,8.3l-1.5,3.8c-1.8-2.2-3-4.3-3.5-6.3-.5-2-.9-4-1.2-6,0-.7-.2-1.4-.3-2.1s-.3-1.4-.5-2.2h0c-.5-1.9-1-4-1.6-6.3-.6-2.2-1.3-4.4-2.1-6.6-.8-2.2-1.7-4.3-2.8-6.4-1.1-2.1-2.3-4-3.8-5.7-.7-.8-1.7-1.5-3-2.1-1.3-.6-2.7-1.1-4.2-1.5-1.5-.4-3-.7-4.5-.9-1.5-.2-2.8-.4-3.9-.5h-.3c-.3-.2-.5-.2-.7-.3s-.4,0-.5,0c-1.3-.1-2.5.1-3.7.8-1.2.6-2,1.4-2.4,2.4-.5,1.3-.3,2.3.6,2.9s1.9.9,3,1c.3,0,.7,0,1,0s.6,0,1-.1h.4c.8.1,1.4.2,1.9.2.5,0,.9.2,1.3.4,0,0,0,0,0,0s0,0,0,0c-.3.6-.5,1.3-.7,1.9s-.4,1.2-.7,1.8c-1.3,3.9-2.6,7.7-3.9,11.2-1.3,3.5-2.6,7.1-3.9,10.7-.7,1.9-1.5,3.9-2.3,5.9-.8,2.1-1.7,4.2-2.7,6.5-.5-.2-1.1-.3-1.6-.3-.5,0-1,0-1.4-.1-1.7-.2-3.1.1-4.2.8-1.1.7-1.8,1.4-2.1,2.2-.2.4-.2.9,0,1.5s.4,1.2.9,1.6l-.4-.8c-.1-.3.2-.6.8-.9l1.9,2.2h-.2s.2,0,.3,0,.2,0,.3,0c1.2,0,2.3,0,3.4.1,1.1,0,2.1.1,3,.2,2.6.2,5.1.5,7.5.9,2.4.4,4.3.8,5.8,1.4,2,0,3.5-.3,4.5-.9,1-.6,1.7-1.3,2-2.2.3-.7.2-1.5-.4-2.4s-1.6-1.3-3.1-1.5h-.9c0,0-.5,0-.5,0-.2,0-.5,0-.7,0l-6.1-.5c.3-.9.6-1.7.8-2.4.3-.7.5-1.3.8-2,.3-.6.5-1.2.7-1.9s.5-1.3.7-2.1l.9-2.4c.5-1.4,1.1-2.7,1.7-4.1.6-1.3,1.1-2.7,1.7-4.1.7-1.6,1.4-3.2,2.1-4.8.7-1.6,1.4-3.4,2.1-5.2.3-.7.6-1.7,1-3,.4-1.3.9-2.7,1.3-4.1.9,1.1,1.7,2.1,2.2,3.1.5,1,1,1.9,1.3,2.7,1,2.6,1.9,5.6,2.7,8.9.8,3.3,1.4,6.4,2,9.3.1.9.3,1.8.5,2.6.2.9.3,1.7.5,2.4.4,1.5.8,3,1.2,4.5.5,1.5,1.1,3,1.9,4.4.8,1.4,1.8,2.8,3,4.1,1.2,1.3,2.8,2.5,4.6,3.6h.6c.4.2.9.4,1.5.4,1,0,2-.1,3.2-.5,1.2-.4,2.1-1.2,2.7-2.3.4-1.8,1.1-4.1,1.9-6.8s1.8-5.7,2.9-8.9c1.1-3.2,2.2-6.4,3.4-9.7,1.2-3.3,2.4-6.4,3.5-9.4l2.9-7.6c.2,0,.4.1.7.1s.4,0,.5,0c1.5.1,3,0,4.3-.6,1.4-.5,2.3-1.3,2.7-2.5.4-1,.3-1.8-.4-2.6-.7-.7-1.7-1.1-3.1-1.3h0Z"></path><path d="M949.1,1578.2c.4-.4.8-1,1.1-1.7.3-.7.6-1.6.8-2.6.2-.7.4-1.4.5-2.2.1-.8.1-1.6,0-2.3s-.5-1.4-1-1.9c-.5-.5-1.2-.9-2.2-1.1-.4,0-.7,0-.9-.1s-.6,0-.8-.1h-.3s-.2,0-.3,0h-2.3c-1.2,0-2.6,0-4,0s-2.7,0-4,0c-1.3,0-2.6,0-4,0s-2.6,0-3.8,0l-9.7.2c-1,0-1.9,0-2.6,0-.7,0-1.4,0-2.1,0h-1.8c-.6,0-1.3,0-2,0h-5.2c-.6,0-1,0-1.2,0-.3,0-.6,0-1,0-.4,0-.7,0-1,0-1.5,0-2.9.3-4.3.8-1.4.5-2.6,1.5-3.6,3l-.5,1.8c.2.3.4.5.6.7s.3.4.3.5,0,.3-.1.4c0,.2-.2.3-.3.5-.3.4-.5.7-.6,1s-.2.6-.2.9c.6,2,1.8,2.9,3.8,2.9,1,0,2.1-.3,3.3-.9s2.1-1.6,2.8-2.9c-.6-1.1-.9-2-.8-2.7,2.1,0,4-.1,5.6-.2s3.3,0,5.2,0c1.8,0,3.5,0,4.9,0-.1.6-.2,1-.2,1.4s-.1.7-.2,1.1c0,.3,0,.6,0,.8,0,.3-.1.5-.2.8v.5c-.2.2-.3.4-.4.4s0,.2,0,.3c-.1.4-.3.8-.3,1.2-.1.5-.2.9-.2,1.3-.1.4-.2.8-.2,1.3s-.1.9-.2,1.3c-.7,2.5-1.5,5-2.3,7.4-.8,2.4-1.6,4.9-2.5,7.5-.9,2.6-1.8,5.1-2.7,7.7-.9,2.6-1.7,5.3-2.4,8l-.2.7h-.4.2c-.3-.1-.6-.2-1.1-.2s-1.5,0-3,0c-1.6,0-2.9.4-3.9,1.1s-1.7,1.5-1.9,2.4c-.5,1.6.8,2.8,3.9,3.5,1-.3,2.1-.5,3.3-.6,1.2-.1,2.2-.2,3.2-.2h1.4c.4,0,.9,0,1.4,0,.6,0,1.1,0,1.8,0s1.2,0,1.8,0h2.2c2.6,0,4.9-.3,6.9-.8,2-.5,3.2-1.5,3.6-3.1,0-.3.1-.6,0-1,0-.4-.1-.7-.3-1.1-.2-.3-.5-.6-.9-.9-.4-.3-1-.4-1.8-.4-.9,0-2.1.2-3.5.7h.1c-.6.1-1.2.2-1.9.4s-1.2.2-1.8.2c.2-1.9.6-3.7.9-5.3s.7-3,1.1-4.2c.8-3.2,1.8-6.4,2.7-9.4,1-3,2-6.2,3.2-9.4.8-2.4,1.5-4.6,2.2-6.8.7-2.2,1.4-4.5,2.1-6.9,3,0,5.7,0,8.2.1,2.5.1,5.1.4,7.6.7-.1.3-.3.5-.4.8s-.2.6-.3.8c-.3.4-.6.9-.9,1.7-.3,1.2,0,2.1.7,2.7.8.6,1.8.9,3.1.9,1,0,1.9-.1,2.6-.3.7-.2,1.2-.5,1.7-.9h0Z"></path><path d="M1006.8,1561.6c-1.3-.7-3.3-.9-6.1-.6-1.4.1-2.4.2-3.2.4-.8.1-1.4.2-1.9.3-.2,0-.4.1-.5.1h-.1l-7.3.6c-3.6.3-7.1.6-10.5.8-3.4.2-6.8.4-10.3.5h-.3c-.3,0-.5,0-.6,0-.4,0-.7-.1-1-.1s-.7,0-1.1,0c-1.4.1-2.8.5-4.2,1.3-1.3.7-2.2,1.8-2.4,3.1-.2,1,.1,1.8.9,2.4.8.6,1.8.8,3.1.7.7,0,1.2-.1,1.5-.2,0,0,.2,0,.4,0,.2,0,.3,0,.5,0l2.4-.2c-.5,2.4-.9,4.7-1.3,6.9-.4,2.2-.9,4.7-1.4,7.4-.5,2.9-1.1,5.8-1.7,8.7-.6,2.9-1.1,5.7-1.7,8.4-.1.4-.2.7-.3,1.1s-.1.7-.2,1l-1.6,7.5c-.7,0-1.5,0-2.5.1-1,0-2.4,0-4.3,0-1.6.4-2.8,1-3.6,1.8-.9.8-1.4,1.5-1.6,2.3-.3,2,.7,3.1,3.2,3.3,2,0,3.9-.2,5.8-.3,1.9-.1,3.4-.3,4.5-.3,1.7-.2,3.1-.3,4.2-.4s2.2-.3,3.3-.5h-.1c1.4-.2,2.9-.4,4.6-.6s4-.4,6.8-.7c.2,0,.4,0,.5,0,.1,0,.2,0,.4,0l2.3-.2c.6,0,1.2,0,2-.1.8,0,1.4-.1,2-.2,1,0,2-.2,3.1-.3,1.1-.1,2.2-.4,3.4-.7,1.5-.7,3.1-1.7,5-3.2,1.9-1.4,3.6-2.8,5.2-4.3,1.6-1.4,3-2.7,4.1-3.9,1.1-1.1,1.7-1.8,1.8-2,.2-1.2,0-2.1-.9-2.6-.8-.5-1.9-.7-3.2-.6s-2.6.7-3.9,1.9-2.7,2.5-4.3,3.9c-1.1,1.1-2.3,2.2-3.4,3.2-1.1,1-2,1.8-2.8,2.2h.1c-.3.1-.9.2-1.7.3-.8,0-1.7.2-2.7.2h-.8c-3.3.4-6.3.6-9,.7-2.7.2-5.4.3-8.1.5.2-2.3.5-4.4.7-6.4.3-2,.5-3.9.8-5.8.3-1.9.5-3.8.9-5.7.3-1.9.7-4,1.1-6.1,1.2-.2,2.2-.3,2.9-.4.7,0,1.3-.2,1.9-.2s1.1-.1,1.7-.1c.6,0,1.3-.1,2.3-.2,1.2-.1,2.3-.2,3.5-.3,1.1-.1,2.4-.2,3.8-.2v.4c-.2.7-.3,1.3-.4,2,0,.7,0,1.3.2,1.8.2.5.5.9,1.1,1.2s1.4.4,2.6.3c1.3-.1,2.6-.9,3.9-2.4,1.3-1.5,2.5-3.5,3.5-5.9-.4.4-.7.9-.9,1.2-.3.3-.5.7-.7,1-.2.4-.3.7-.4.9,0-.1,0-.3,0-.5s0-.4,0-.5c0,0,0,.2,0,.3,0-.1,0-.2,0-.4,0-.1,0-.2,0-.3-.2-.1-.2-.4,0-.8v-.5c.3-.9.5-1.8.9-2.7.1-.4.2-.8.3-1.2s.3-1,.5-1.8c.6-2.9-.7-4.2-3.9-3.9-1,0-1.9.4-2.8.8-.9.5-1.7,1.2-2.3,2.2h1.9c0,0-1.9.2-1.9.2,0,0,0,0-.1.1s-.1,0-.1.1v.8c-.2.2-.2.3-.2.4,0,.1,0,.2,0,.3-2.7.2-5.3.5-7.9.7-2.6.2-5.2.5-7.8.7.3-1.5.6-2.8.8-3.9.3-1.1.5-2,.8-2.8.2-.8.5-1.5.7-2.1.2-.6.5-1.3.8-2h0c0,0,2.1-.3,2.1-.3,1,0,2.2-.2,3.8-.3s3-.3,4.3-.4c1.8-.2,3.5-.4,5.2-.6,1.7-.2,3.3-.3,4.9-.5h1.7c0-.1,1.9-.3,1.9-.3v.2c-.3.4-.5.9-.6,1.4-.1.5-.2,1-.2,1.7,0,.6.1,1.2.4,1.8s.7,1,1.2,1.3,1.4.5,2.6.4c3.2-.3,4.9-1.6,5.4-4.1.1-.3.1-.5,0-.6s-.1-.3-.1-.5l.2-.6c0-.2,0-.4,0-.5,0-.2,0-.4.1-.6l.2-1,.2-.3c.4-2.2,0-3.6-1.3-4.3h0Z"></path><path d="M1079.9,1574.8c-.8-.6-2-.8-3.6-.7l-2.1.6c-1.2.3-2.3.6-3.4.9s-1.9.5-2.6.6c-.2,0-.3,0-.4,0h-.2s-.3,0-1,.3-1.4.3-1.9.5c-.4.1-.8.2-1.2.3s-.8.2-1,.2c-1.3.2-2.5.4-3.5.4-.6,0-1.1,0-1.7.1-.6,0-1.1.1-1.6.2-1.4.2-2.6.8-3.7,1.7-1.1.9-1.8,1.9-1.9,3.1-.1.9.3,1.7,1.1,2.3s1.9.7,3.2.5c1.9-.3,3.4-.6,4.3-.9,1-.3,2-.6,2.9-.9.3-.2.5-.2.6-.3,0,.7-.1,1.1,0,1.1,0,0,0,.2,0,.5,0,.3,0,.6,0,.8s0,.5,0,.8c-.3,3-.6,6.1-1,9.2-.3.2-.5.3-.6.3-.1,0-.3.1-.4.2-.1,0-.2.1-.3.1h-.1c0,0,0-.4,0-.4,0,0-.3,0-.7.2s-.9.2-1.4.3l-2,.4v1.8c-1.3.4-2.5.8-3.6,1.1-1.7.5-3.3.8-4.9,1.1-4.1.7-7.7.8-10.7.2-3-.6-5.5-1.7-7.4-3.3-1.9-1.6-3.3-3.5-4.1-5.7-.8-2.3-1.1-4.7-.8-7.3.3-2.4,1.1-4.9,2.4-7.4,1.3-2.6,3.1-5,5.3-7.4,2.2-2.4,5-4.6,8.2-6.6,3.3-2,6.9-3.7,11-5,.3,0,.7-.1,1.2-.2s.7-.2.9-.2c2.6-.5,4.9,0,6.7,1.1,1.8,1.2,2.9,2.8,3.2,4.8-.2.2-.3.4-.3.4,0,0,0,.2,0,.4-.1,1.3.3,2.3,1.2,3.2,1,.9,2.1,1.2,3.4,1,2.6-.5,4.4-1.8,5.2-4.1,0-.9,0-1.4-.2-1.5.2-.8.4-1.5.5-2.1s.2-1.2.3-1.8c0-.7.1-1.4,0-2,0-.6,0-1.2,0-1.6,0-.7,0-1.3,0-1.9,0-.5.2-1.1.5-1.7l.9-.9c-.4-.7-1-1.3-1.7-1.8s-1.6-.7-2.7-.5c-.5.1-1.2.4-2,.9-.3.2-.7.4-1,.7l-1.4-.3-.4,3.1c-1.9-.9-3.8-1.4-5.8-1.6-2-.2-4.4,0-7.1.5-5.7,1-10.8,2.7-15.2,5.1-4.4,2.4-8.2,5.2-11.3,8.4-3.1,3.2-5.6,6.6-7.3,10.2-1.8,3.6-2.8,7.2-3.2,10.7-.4,3.7,0,7.1,1.2,10.1,1.2,3,3.1,5.5,5.8,7.5,2.7,2,6.1,3.3,10.1,4,4.1.7,8.8.6,14.2-.3,2.1-.4,4.2-.8,6.4-1.4,2.2-.6,4.4-1.3,6.8-2.2,0,.3-.1.5-.1.6v.3c0,0,0,0,0,0-.1.6-.2,1.1-.3,1.6,0,.5-.2,1.1-.4,1.8v.5c-.2,1.3.2,2.1,1.1,2.6.9.5,1.9.6,3,.4,1-.2,2-.7,3-1.4,1-.8,1.7-1.7,2.2-2.9.1-1,.2-2.2.2-3.4,0-1.2.1-2.5.2-3.7.1-2.9.3-5.9.6-9,.2-1.7.4-3.3.7-4.9.3-1.6.6-3.1,1.1-4.7.9-.2,1.8-.3,2.5-.4.8-.1,1.5-.2,2.2-.3,1.6-.4,2.8-1.1,3.7-1.9.8-.8,1.3-1.7,1.4-2.5,0-.8-.3-1.5-1.1-2.1h0s0,0,0,0Z"></path><path d="M1154.2,1575.2c-.9-.6-2.4-.7-4.3-.2-.3,0-.6.2-.9.3-.3.1-.6.2-.8.3-.2.1-.5.2-1.1.4-4-1.1-7.3-2.7-10.1-4.7-2.8-2-5.5-4-8.2-6.1-.7-.6-1.4-1.2-2.2-1.8-.7-.6-1.4-1.2-2.2-1.8,2.2-1.3,4.3-2.7,6.1-4.2,1.9-1.5,3.5-3,4.9-4.5,1.4-1.6,2.5-3.1,3.3-4.7.8-1.6,1.2-3.1,1.2-4.7,0-1.5-.3-2.9-1-4.2-.7-1.3-1.8-2.5-3.4-3.7-.8-.8-2.5-1.2-5.1-1.2-2.6,0-5.5.3-8.9.9-3.4.6-6.9,1.3-10.5,2.2-3.7.9-6.9,1.7-9.9,2.5-2.8.8-5.4,1.6-7.5,2.4-2.2.8-3.7,1.8-4.6,2.9-.8.8-1.1,1.6-1.1,2.5,0,.9.4,1.6,1.2,2.2.9.5,2.3.5,4.2,0,.3-.1.6-.3.9-.4s.6-.3,1-.4c.3-.1.4-.2.4-.2,0,0,.1,0,.3-.2,0,1-.2,1.8-.2,2.6,0,.8,0,1.5-.1,2.2,0,.7,0,1.4,0,2.1,0,.7,0,1.5,0,2.3,0,1.5,0,3.1,0,4.7,0,1.6,0,3.2.1,4.7.3,2,.4,4.2.5,6.5,0,2.3,0,4.7,0,7v1.7c0,1,0,2.2,0,3.6,0,1.4,0,2.7-.2,3.9-.5,0-1,.2-1.5.3s-1,.3-1.4.4c-.8.2-1.6.5-2.3.8s-1.4.6-2,1-1.1.9-1.4,1.5c-.4.6-.5,1.3-.5,2.2,0,2.4,1.7,3.1,5.2,2.1.2-.2.5-.3.7-.3s.4-.2.5-.4h.5c.6-.4,1.2-.6,1.7-.7.5-.1,1-.3,1.5-.4l.6-.2c1.1-.3,2.3-.6,3.4-.8,1.1-.2,2.4-.5,3.9-.7h-.1c.6,0,1.2-.1,1.9-.3.7-.1,1.4-.3,2.2-.4,1.3-.6,2.4-1.3,3.2-2.3.8-.9,1.2-1.8,1.3-2.7,0-.8-.4-1.4-1.1-2-.7-.5-1.8-.7-3.2-.5-.8.2-1.3.4-1.5.5s-.5.2-.8.3c-.3.1-.6.3-.9.4s-.7.3-1.2.4c0-3.3,0-6.5-.2-9.6-.1-3.1-.3-6.3-.6-9.6,1.7-.5,3.5-1,5.4-1.6,2-.6,3.8-1.1,5.3-1.7,2,1.1,3.8,2.2,5.4,3.4,1.7,1.1,3.4,2.3,5.3,3.6,1.8,1.2,3.6,2.4,5.5,3.7,1.9,1.3,3.8,2.4,5.6,3.5-1,.7-1.6,1.4-2.1,2s-.6,1.3-.6,1.9c0,.8.4,1.5,1.1,1.9.7.4,1.7.6,2.9.6,1.1-.6,2-1,2.9-1.4.9-.4,1.7-.7,2.4-.9,0,0,0,0,.3,0s.6-.1,1-.2.8-.2,1.2-.2c.4,0,.7-.1.9-.2h-.1c1.3-.2,2.8-.5,4.6-1,1.3-.6,2.3-1.4,3.2-2.4.9-1,1.3-1.9,1.3-2.5,0-.9-.4-1.7-1.3-2.3h0ZM1118.3,1557.9c-2.5.9-4.9,1.7-7.3,2.4-1.2.3-2.3.6-3.4.9-1.1.3-2.2.5-3.4.8.3-2.4.4-4.7.6-6.6.1-2,.3-4.2.6-6.6,0-.4,0-.9,0-1.4,0-.5,0-1,0-1.4h.1c.5-.2,1-.3,1.6-.5.6-.2,1.1-.3,1.5-.5.7-.2,1.4-.4,1.9-.6.6-.2,1.1-.4,1.7-.5,1.8-.5,3.8-1,6-1.6,2.2-.5,4.3-.8,6.3-.9,2,0,3.6.3,4.9,1,1.3.7,2,2.1,1.9,4.1,0,1.6-.6,3.1-1.9,4.5-1.3,1.4-2.8,2.7-4.8,3.8s-4.1,2.2-6.6,3.1h0,0Z"></path><path d="M1224.6,1548.3c-.9-.4-2.1-.4-3.7,0-.5.3-.9.5-1.2.7-.3.2-.6.3-.9.5-.2.2-.5.3-.8.4s-.6.2-.8.4c-.7-1.7-1.6-3.3-2.5-4.6-.9-1.3-1.8-2.7-2.7-4-.6-.8-1.2-1.6-1.7-2.4s-1.1-1.6-1.6-2.6c-1.7-2.5-3.3-5.1-4.8-7.7-1.5-2.6-3-5.3-4.5-8-.3-.5-.6-.9-.8-1.4-.2-.5-.4-.9-.8-1.4-.1-.1-.2-.3-.4-.7-.5-.8-1-1.6-1.5-2.4-.5-.8-1.2-1.5-2-2-.8-.6-1.7-.9-2.8-1.1-1.1-.2-2.4-.1-3.9.3-.7,2-1.3,3.8-1.9,5.5-.5,1.7-.9,3.3-1.3,4.8l-1,4.1h0c-.9,2.7-1.9,5.5-2.9,8.1-1,2.7-2,5.4-3.1,8.2-1.6,4.2-3.2,8.5-4.7,12.8-1.5,4.3-2.9,8.7-4.2,13.3-.3,0-.5.1-.6.2s-.5.1-1.3.3c-.1,0-.3.1-.6.2s-.5.2-.6.2c-1.4.8-2.4,1.8-3.1,2.8-.7,1.1-.9,2-.9,2.8,0,.9.5,1.6,1.2,2,.8.4,1.9.5,3.4.3.7-.4,1.5-.9,2.5-1.4,1-.5,1.9-1,2.7-1.3.3,0,.8,0,1.5-.3.6-.3,1.2-.6,1.8-1.1.1,0,.2,0,.3,0s.2,0,.3,0l.4-.2c.4-.1.9-.2,1.4-.3.5-.1,1.1-.2,1.6-.1.3,0,.9,0,1.6-.4,1.5-.6,2.5-1.4,3.2-2.5.6-1.1.9-2.2.9-3.3-.2-2.6-2-3.3-5.3-2.1,0,0-.1,0-.2.1,0,0-.2.1-.3.2,0,0-.2,0-.3.2-.1,0-.3.2-.5.2.4-1.6.9-3.3,1.5-5.3.6-1.9,1.2-3.8,1.8-5.6,0-.4.2-.8.4-1.3s.3-1,.5-1.3l1-.4c.8-.3,1.7-.6,2.6-1.1,1-.4,1.9-.8,2.6-1.1.9-.4,1.8-.8,2.7-1.2s1.9-.8,3-1.2l1.2-.5c.1,0,.4-.1.8-.3.4-.1.9-.3,1.4-.4.8-.2,1.7-.5,2.6-.8.9-.3,1.7-.6,2.5-.8.2.4.3.6.4.6,0,0,.1.3.3.7,1.1,1.2,2,2.4,2.8,3.6s1.5,2.5,2,4c-.5.4-1,.9-1.6,1.4-.6.5-1.1,1-1.7,1.6s-.9,1.1-1.2,1.7c-.3.5-.5,1-.4,1.5.1.8.4,1.5,1,2.1s1.4.6,2.6.3h.7c.6-.3,1.1-.5,1.7-.7s1-.3,1.6-.5c.7-.2,1.3-.4,2-.7.7-.2,1.3-.5,2-.7l.9-.3c.7-.2,1.4-.4,2.1-.6s1.6-.6,2.6-1l1.9-.7c1.4-.5,2.5-1.4,3.2-2.5.7-1.2,1.1-2.2,1-3.2,0-1-.5-1.7-1.4-2.1h0c0,0,0,0,0,0ZM1194.5,1539.5c-1,.4-2.3.9-4,1.5-.9.4-1.8.7-2.8,1s-1.8.6-2.7.9c-.1,0-.2,0-.3,0s-.2,0-.3,0c0-.2.1-.2.2-.2.2-.5.3-1,.5-1.5.2-.5.3-1,.5-1.5.8-2.2,1.7-4.5,2.5-6.9.9-2.4,1.6-4.7,2.3-7h0c0-.3.2-.6.2-1.2,0-.6.2-1.2.4-1.9,1,1.6,1.9,3.3,2.7,4.9.8,1.6,1.6,3.1,2.4,4.4.4.9.8,1.8,1.2,2.6.4.8.8,1.5,1.2,2.2.1,0,.2.2.2.2s0,.2,0,.3c-1.8.8-3.1,1.4-4.2,1.9h0s0,0,0,0Z"></path><path d="M1276.2,1477.7c-.2-.8-.6-1.4-1-2.1s-1-1-1.7-1.3c-.7-.3-1.5-.3-2.5-.1-.3.1-.6.2-.9.3-.3.1-.5.2-.8.3h-.3c0,.1-.2.2-.3.2l-2,1c-1.1.5-2.3,1.1-3.6,1.7-1.3.6-2.5,1.1-3.6,1.7-1.2.5-2.4,1.1-3.7,1.7-1.2.6-2.4,1.1-3.5,1.7l-8.7,4.3c-.9.5-1.7.8-2.4,1.2-.7.3-1.3.6-1.9.9-.6.3-1.1.5-1.6.8-.5.2-1.1.5-1.8.8l-4.6,2.3c-.5.2-.9.4-1.1.5-.3.1-.6.3-.9.4-.4.2-.7.3-.9.4-1.4.7-2.6,1.5-3.6,2.5-1,1-1.7,2.4-2,4.2l.3,1.8c.3.1.6.3.9.4s.4.2.5.3,0,.3,0,.4c0,.2,0,.4,0,.6,0,.4-.1.8,0,1.1s.1.6.2.9c1.4,1.6,2.9,1.9,4.7,1,.9-.5,1.8-1.2,2.6-2.2.8-1,1.2-2.3,1.3-3.8-1-.7-1.7-1.4-1.8-2.1,1.9-1,3.6-1.8,5-2.5,1.4-.7,3-1.5,4.6-2.3,1.6-.8,3.1-1.5,4.4-2.2.1.6.3,1,.4,1.3s.2.7.3,1.1c.1.3.2.5.3.8,0,.3.1.5.2.8v.5c0,.3,0,.4,0,.5s0,.2,0,.3c0,.4.1.8.2,1.3.1.5.2.9.3,1.3,0,.4.2.8.3,1.2s.3.8.3,1.2c.4,2.6.8,5.1,1.1,7.6.3,2.5.6,5.1.9,7.8.3,2.7.5,5.4.8,8.2.3,2.7.7,5.5,1.2,8.3v.7c.1,0,0,0,0,0-.3,0-.7.1-1.1.3-.4.2-1.3.6-2.8,1.3-1.4.7-2.4,1.6-3.1,2.6-.6,1.1-.9,2.1-.7,3,.3,1.7,2,2.2,5,1.6.8-.7,1.7-1.4,2.7-2s2-1.1,2.8-1.5c.5-.2.9-.4,1.3-.6.4-.2.8-.4,1.3-.6.5-.2,1.1-.4,1.6-.7s1.1-.5,1.6-.8l2-1c2.3-1.1,4.3-2.4,5.9-3.6,1.6-1.3,2.2-2.7,1.9-4.3,0-.3-.2-.6-.3-.9-.2-.3-.4-.6-.7-.8-.3-.2-.7-.3-1.2-.4-.5,0-1.1.1-1.8.4-.8.4-1.8,1.1-2.9,2.1h0c-.5.3-1,.7-1.5,1.1-.5.4-1,.7-1.5.9-.6-1.8-1-3.5-1.4-5.2-.4-1.7-.6-3.1-.8-4.3-.6-3.3-1.1-6.5-1.5-9.7s-.8-6.5-1.1-9.9c-.3-2.5-.6-4.8-.9-7.1-.3-2.2-.6-4.6-1-7.2,2.7-1.3,5.2-2.4,7.5-3.4,2.3-.9,4.7-1.8,7.2-2.6,0,.3,0,.6,0,.9s0,.6.1.8c0,.4-.1,1.1-.1,1.9.2,1.2.8,1.9,1.8,2.1,1,.2,2,0,3.1-.5.9-.5,1.7-.9,2.2-1.4.5-.5.9-1,1.1-1.5.2-.6.3-1.2.3-2,0-.8-.1-1.7-.3-2.7-.1-.7-.3-1.4-.5-2.2h0c0,0,0,0,0,0Z"></path><path d="M1304.4,1506.3c-.5.3-.9.6-1.3,1.1,0,0-.1,0-.3,0-.2.2-.5.4-.9.8-.6-1.6-1.1-3.4-1.6-5.3-.5-1.9-1-4-1.5-6.2-.5-1.8-.9-3.7-1.3-5.7-.4-2-.8-4-1.2-5.9-.4-2-.8-3.9-1.1-5.8-.4-1.9-.7-3.6-.9-5.2-.4-1.7-.6-3.3-.9-4.6s-.5-2.3-.6-2.9c1.1-.4,2.3-.7,3.8-.9l1.1-.6c1.3-.7,2.3-1.7,2.9-2.8s.8-2.2.6-3.2c-.2-1-.6-1.6-1.2-1.8s-1.2-.3-2-.1-1.5.4-2.3.9-1.6.8-2.3,1.2c-.1,0-.2.2-.3.2-.1,0-.2.2-.3.2l-2.2,1.2c-.4.3-.8.5-1.2.8-.4.2-.8.4-1.1.6l-2.6,1.5c-.5.3-.9.5-1.4.7-.4.2-.9.4-1.3.7l-1.3.8c-.1,0-.2.1-.2.1,0,0-.1,0-.2,0-1.7,1-2.9,2-3.6,3.1-.6,1.1-.8,2.2-.5,3.4.2,1,.8,1.6,1.7,1.9s2.1,0,3.6-.8c.5-.3,1.2-.8,2.1-1.6.2.6.5,1.3.8,2.2.3.9.6,1.9.9,2.9.3,1,.6,2.1.9,3.2.3,1,.5,2,.7,2.7.7,2.9,1.4,5.9,2.1,9.1.6,3.2,1.2,6.3,1.8,9.1.4,2.2.8,4.3,1.2,6.1.4,1.9.8,3.5,1.2,5-.1,0-.3.2-.6.3-.3.1-.6.3-1,.5-1.6.9-2.7,1.9-3.5,2.9s-1,2.3-.7,3.6c.6,2.1,2.2,2.5,4.8,1.1.3,0,.6-.2.9-.4.3-.2.7-.4,1.2-.7,1.1-.6,2.2-1.2,3.2-1.9,1.1-.7,2-1.3,2.8-1.9.8-.5,1.4-.9,2-1.2.6-.3,1.1-.7,1.7-1,.2-.1.5-.3.7-.4s.6-.2,1.2-.4c1.2-1,2.2-2.1,2.8-3.3s.9-2.1.7-2.8c-.5-2.2-2.5-2.4-5.8-.5h0s0,0,0,0Z"></path><path d="M1355.2,1438.1c-1.7-2.3-3.8-4-6.4-5.1-2.5-1.1-5.4-1.6-8.6-1.3-3.2.3-6.7,1.4-10.6,3.4l-.5.3c-4.6,3.5-8.4,7.2-11.4,11.2-3,4-5.3,8-6.9,12.1-1.6,4-2.5,8-2.8,12-.3,3.9,0,7.5,1.1,10.7,1,3.2,2.5,5.9,4.6,8.3s4.5,4,7.5,5.1c2.9,1.1,6.3,1.3,10.2.8,3.8-.5,8-2,12.4-4.5h0c.3-.1.6-.2.8-.4s.6-.4,1-.6c3.4-2.2,6.3-5.1,8.5-8.6,2.3-3.5,4-7.3,5.1-11.4,1.1-4.1,1.7-8.2,1.7-12.4,0-4.2-.5-8.1-1.6-11.6-.9-3-2.3-5.6-4-7.9h0,0ZM1352,1468.3c-.7,3-1.9,5.8-3.4,8.5-1.5,2.7-3.5,5-5.8,6.8-3.3,2.1-6.3,3.3-9,3.8-2.7.5-5.1.4-7.2-.4-2.1-.7-3.9-2-5.4-3.7s-2.6-3.9-3.3-6.4c-.8-2.7-1.2-5.6-1.2-8.8,0-3.2.6-6.4,1.5-9.5,1-3.1,2.4-6.1,4.3-8.8,1.9-2.8,4.3-5.1,7.2-7,.3-.2.5-.3.7-.5s.4-.3.7-.5l.5-.3c2.4-1.6,4.7-2.4,6.8-2.6,2.1-.1,4.1.3,5.8,1.2s3.2,2.4,4.5,4.2c1.2,1.9,2.3,4,3,6.4.8,2.6,1.2,5.4,1.2,8.5,0,3-.3,6.1-1,9h0Z"></path><path d="M1420.5,1421.2c-1.2-2.6-2.6-5.4-4-8.5-1.4-3-2.8-6.2-4.2-9.4-1.4-3.2-2.7-6.3-3.9-9.2l-3.1-7.6c.2,0,.4-.2.6-.4s.3-.3.4-.3c1.2-.9,2.1-2.1,2.8-3.4.7-1.3.8-2.5.3-3.7-.4-1-1-1.6-2.1-1.6s-2.1.4-3.1,1.2c-.1,0-.2.2-.2.2,0,0,0,.1-.2.2-.2.2-.6.5-1.1.9-.5.5-1.1,1-1.9,1.6-1,.9-2.1,1.9-3.3,2.9-1.2,1-2.2,1.8-3.1,2.6-.3.2-.5.4-.8.5-.2.2-.6.3-1,.4-1.3,1.6-2.1,2.9-2.5,4-.3,1.1-.4,2.1,0,2.7.3.7.8,1.1,1.5,1.4s1.7,0,3.1-.8c.9-1.1,1.9-2.3,3.2-3.6.7,1.5,1.3,2.9,1.8,4.2s1.1,2.6,1.7,3.8c.6,1.2,1.2,2.4,1.8,3.6.6,1.2,1.2,2.4,1.8,3.7,1.2,2.6,2.5,5.2,3.6,7.8,1.2,2.6,2.3,5.3,3.5,8.1l1.5,3.8c-2.8-.4-5.1-1.1-6.8-2.2-1.7-1.1-3.4-2.3-5-3.6-.6-.5-1.1-.9-1.7-1.4s-1.2-.8-1.8-1.2h0c-1.7-1.1-3.5-2.2-5.5-3.5-2-1.2-4-2.3-6-3.4-2.1-1.1-4.2-2-6.4-2.8-2.2-.8-4.4-1.3-6.6-1.6-1.1-.1-2.3,0-3.6.5-1.3.5-2.7,1.1-4.1,1.8-1.4.7-2.7,1.5-3.9,2.4-1.2.9-2.3,1.7-3.2,2.3l-.2.2c-.3,0-.5.2-.7.3-.2.1-.3.2-.4.3-1,.8-1.8,1.9-2.2,3.1s-.5,2.4-.1,3.4c.6,1.3,1.4,1.9,2.4,1.7,1-.2,2-.6,2.9-1.3.3-.2.5-.4.7-.6.2-.2.4-.5.7-.8l.3-.3c.6-.5,1.1-.9,1.5-1.2s.8-.5,1.2-.6c0,0,0,0,0,0,0,0,0,0,0,0,.3.7.5,1.3.8,1.9.3.6.5,1.2.8,1.8,1.7,3.8,3.4,7.4,4.8,10.8,1.5,3.4,3,6.9,4.5,10.5.8,1.9,1.6,3.8,2.4,5.9.8,2.1,1.6,4.3,2.5,6.5-.5.3-.9.6-1.3.9s-.8.6-1.1.9c-1.3,1.1-2.2,2.2-2.5,3.5-.3,1.2-.3,2.2,0,3,.2.4.5.8,1,1.2.5.4,1.1.6,1.8.5l-.8-.3c-.3-.2-.3-.6,0-1.2l2.9.3h-.2c0,.1.1,0,.2,0,.1,0,.2,0,.2-.1.9-.8,1.7-1.6,2.5-2.2.8-.7,1.6-1.3,2.4-1.9,2.1-1.6,4.1-3.1,6.1-4.5,2-1.4,3.7-2.3,5.2-2.9,1.4-1.4,2.3-2.6,2.7-3.7.3-1.1.3-2.1,0-3-.3-.7-.9-1.2-1.9-1.5-.9-.3-2,.1-3.3,1.1l-.7.6c-.1,0-.2.2-.4.4s-.3.3-.5.5l-4.8,3.8c-.4-.8-.8-1.6-1-2.3-.3-.7-.5-1.3-.8-2s-.5-1.3-.8-1.9c-.3-.6-.6-1.3-.9-2l-.9-2.4c-.6-1.4-1.1-2.7-1.6-4.1-.5-1.4-1-2.7-1.6-4.1-.6-1.6-1.2-3.3-1.8-4.9-.6-1.6-1.3-3.4-2-5.3-.3-.7-.7-1.7-1.3-2.9-.6-1.2-1.2-2.5-1.8-3.9,1.4.1,2.7.4,3.7.7,1.1.4,2,.7,2.8,1.1,2.6,1.2,5.2,2.8,8,4.6,2.8,1.9,5.4,3.7,7.8,5.4.7.6,1.4,1.1,2.1,1.6.7.5,1.4,1,2,1.4,1.3.9,2.6,1.7,4,2.5,1.4.8,2.8,1.4,4.4,2,1.6.5,3.2.8,5,.9,1.8.1,3.7,0,5.8-.6l.5-.4c.4-.1.9-.4,1.4-.8.8-.6,1.4-1.5,2-2.6.6-1.1.7-2.3.4-3.6-.9-1.6-2-3.7-3.3-6.3h0c0,.1,0,.1,0,.1Z"></path><path d="M1477,1371.7c-.4.4-.7.9-.9,1.4,0,0-.1,0-.3.2-.1.2-.3.5-.6,1-1-1.4-2-2.9-3-4.7-1-1.7-2.1-3.6-3.2-5.5-1-1.6-1.9-3.4-2.9-5.2-.9-1.8-1.9-3.6-2.8-5.4-.9-1.8-1.8-3.5-2.7-5.3-.8-1.7-1.6-3.3-2.3-4.8-.8-1.6-1.5-3-2.1-4.2-.6-1.2-1.1-2.1-1.4-2.6.9-.7,2.1-1.3,3.4-1.9l.9-.9c1.1-1.1,1.7-2.2,2-3.5.3-1.3.2-2.3-.3-3.2-.5-.9-1-1.3-1.7-1.4-.6,0-1.2,0-1.9.4s-1.3.8-2,1.4c-.6.6-1.3,1.2-1.8,1.8-.1.1-.2.2-.3.3s-.2.2-.3.3l-1.8,1.8c-.3.4-.6.7-1,1.1s-.6.6-.9.9l-2.1,2.1c-.4.4-.8.8-1.1,1.1-.4.3-.7.7-1,1l-1.1,1.1c-.1.1-.2.2-.2.2,0,0,0,0-.1,0-1.4,1.4-2.3,2.7-2.6,3.9-.3,1.2-.2,2.3.4,3.4.5.9,1.2,1.3,2.1,1.4s2-.5,3.2-1.8c.4-.4.9-1.1,1.6-2.1.4.5.9,1.1,1.4,1.9.6.8,1.1,1.6,1.7,2.6.6.9,1.2,1.9,1.7,2.8.6.9,1,1.7,1.4,2.4,1.5,2.5,3,5.3,4.5,8.2s2.9,5.7,4.2,8.2c1,2,1.9,3.9,2.8,5.6.9,1.7,1.7,3.2,2.5,4.5-.1.1-.3.2-.5.4-.2.2-.5.4-.8.8-1.3,1.3-2.1,2.5-2.6,3.8s-.4,2.4.4,3.6c1.1,1.9,2.7,1.8,4.9-.2.2-.2.5-.4.7-.6.3-.3.6-.6,1-1,.9-.9,1.7-1.8,2.6-2.7s1.6-1.8,2.2-2.5c.6-.7,1.1-1.2,1.6-1.7.4-.5.9-.9,1.3-1.4.2-.2.4-.4.6-.5s.5-.4,1-.7c.9-1.3,1.6-2.6,1.8-3.9.3-1.3.3-2.3-.1-2.9-1.1-2-3-1.6-5.7,1.1h0Z"></path><polygon points="1476.9 1346.9 1476.9 1346.9 1476.9 1346.8 1476.9 1346.9"></polygon><path d="M1512.3,1307.7c-2.5-.6-5.1-.4-7.8.5-2.7.9-5.5,2.4-8.3,4.5-2.8,2.1-5.3,4.4-7.6,7.1l-1.6,1.8c-.2.3-.4.5-.5.6-.1.2-.3.4-.5.6l-1.6,1.8c0,.1-.2.2-.3.4-.1.2-.2.3-.4.5-.7.8-1.4,1.5-2.1,2.1-.7.6-1.3.9-2,1.1-.7.2-1.3,0-2-.4-.7-.4-1.4-1.1-2.1-2.3-.7-.9-.9-2.3-.7-4,.2-1.7.8-3.6,1.6-5.6.8-2,1.9-4.1,3.2-6.1,1.3-2.1,2.7-3.9,4.1-5.6,1.5-1.7,2.8-2.9,4-3.5,1.1-.6,2.2-.8,3.2-.6,1,.2,2,.7,3,1.6,1,.8,2.1,1.9,3.4,3,.7.9,1.5,1.3,2.5,1.2,1-.2,1.9-.7,2.6-1.6.7-.8,1.2-1.8,1.6-2.9.3-1.1.2-2.3-.3-3.6-.6-.6-1.2-1.4-1.9-2.2-.7-.9-1.3-1.8-1.9-2.8-.8-1.1-1.4-2.2-1.9-3.3-.5-1-.8-2-.8-2.8l-.5-.7c-.7-1-1.5-1.5-2.4-1.3s-1.9.7-2.7,1.7c-.8.9-1.3,1.8-1.6,2.6-.3.9-.3,1.9,0,3.1-1.8.6-3.5,1.6-5.3,2.8-1.8,1.2-3.4,2.8-5.1,4.6-2.2,2.5-4.2,5.1-6,7.9-1.8,2.8-3.3,5.6-4.3,8.6-1,2.9-1.4,5.9-1.3,8.8.1,3,1.1,5.8,2.9,8.6,1.4,2.3,2.9,3.6,4.4,3.9s3.1.1,4.8-.8c1.6-.9,3.3-2.2,5.1-4,1.8-1.8,3.5-3.7,5.3-5.7,1.6-1.8,3.3-3.5,4.9-5.3,1.6-1.7,3.2-3.1,4.8-4.1h-.1c2.9-1.5,5.5-2.3,7.6-2.2s3.7.8,4.6,2.2c.8,1.2,1.2,2.7,1.4,4.5s0,3.7-.4,5.8c-.5,2.1-1.2,4.2-2.3,6.3-1,2.2-2.4,4.2-4.1,6.1-.2.3-.5.5-.8.8-.3.3-.6.6-.9.9l-.4.5c-4.4,4-8.3,6-11.4,6.1-3.2.1-6-1.9-8.6-5.9-.2-.4-.5-.8-.8-1.3s-.6-.9-.8-1.3c-.9-.6-1.8-.8-2.7-.7-.9.1-1.7.6-2.4,1.3-1.4,1.6-1.9,3.5-1.6,5.7h0c0,0,0,0,0,0l.5-.4-.4.5.6.9c0,.3.1.5.2.6.1,0,.2.2.3.4l.2.3s.2.2.3.2c.1,0,.2.2.2.3.3.2.4.4.5.5.8,1.1,1.5,2.4,2.1,3.7.6,1.4,1.2,2.7,1.7,4.1.3.7.6,1.3.9,1.9.3.6.6,1.2.9,1.9.7,1.1,1.6,1.6,2.6,1.4,1-.1,1.9-.7,2.7-1.6.4-.4.8-1.1,1.3-2,.5-.9.6-2,.4-3.3,2.9.1,5.9-.6,9.1-2.1,3.2-1.5,6.5-4.2,9.9-8.1,1.9-2.2,3.7-4.6,5.4-7.4,1.7-2.8,3-5.6,4-8.7,1-3,1.4-6,1.3-9,0-3-1-5.8-2.7-8.5-1.7-2.7-3.8-4.3-6.3-4.9h0c0,0,0,0,0,0Z"></path><path d="M1579.8,1245.8c-.3-.2-.7-.3-1.1-.3-.4,0-.8,0-1.2.3s-.9.6-1.3,1.2c-.5.7-1,1.8-1.4,3.3h0c-.3.5-.5,1.1-.7,1.7-.2.6-.5,1.1-.8,1.6-1.4-1.3-2.7-2.5-3.8-3.8s-2.1-2.3-2.9-3.3c-2.2-2.5-4.3-5.1-6.2-7.6-2-2.5-4-5.2-6-7.9-1.5-2-2.9-3.9-4.3-5.6-1.4-1.8-2.9-3.7-4.5-5.6,1.6-2.5,3.2-4.7,4.8-6.7,1.5-2,3.2-4,4.9-5.9.1.3.3.5.5.8.2.3.4.5.5.6.2.4.4,1,.9,1.7.8.9,1.7,1.2,2.6.9.9-.3,1.8-1,2.4-2,.6-.9,1-1.6,1.2-2.3.2-.7.3-1.3.2-1.9,0-.6-.3-1.2-.7-1.9s-1-1.3-1.7-2.1c-.4-.5-.9-1.1-1.5-1.6-.6-.6-1.2-1-1.9-1.3-.7-.3-1.4-.4-2.1-.3-.7.1-1.4.5-2.2,1.2-.2.3-.4.5-.6.7-.2.2-.4.4-.6.6l-.2.3s-.1.1-.2.2l-1.3,1.9c-.7,1-1.4,2.1-2.2,3.3-.8,1.2-1.6,2.2-2.3,3.3-.8,1.1-1.5,2.2-2.3,3.3-.8,1.1-1.5,2.2-2.1,3.2l-5.4,8.1c-.6.9-1.1,1.6-1.4,2.2-.4.6-.8,1.2-1.2,1.7-.3.5-.7,1-1,1.5s-.7,1-1.1,1.7l-2.8,4.3c-.3.5-.6.8-.7,1-.2.2-.3.5-.6.8s-.4.6-.6.8c-.8,1.3-1.4,2.6-1.8,4-.4,1.4-.2,2.9.4,4.6l1.2,1.4c.3,0,.6,0,.9-.1.3,0,.5,0,.6,0,.1,0,.2.2.3.3,0,.1.2.3.3.6.2.4.3.8.5,1,.2.3.4.5.6.7,2,.6,3.5.2,4.5-1.4.6-.9.9-1.9,1.1-3.2.2-1.3-.1-2.6-.8-4-1.3-.1-2.2-.4-2.6-.9,1.1-1.8,2.2-3.4,3-4.7.9-1.3,1.8-2.8,2.8-4.3,1-1.5,1.9-2.9,2.7-4.1.4.4.7.8,1,1,.3.2.6.5.8.8.3.2.5.4.6.6s.4.4.5.6l.3.3c.1.2.2.4.2.5,0,0,.1.1.2.2.2.3.5.6.8,1,.3.3.6.7.9.9.3.3.6.6.9.9.3.3.6.6.9.9,1.7,2,3.3,4,4.8,6,1.6,2,3.1,4.1,4.8,6.3,1.6,2.2,3.2,4.4,4.8,6.6s3.4,4.4,5.3,6.5l.5.6-.2.3v-.2c-.1.2-.4.4-.7.8-.3.4-.9,1.2-1.8,2.5-.9,1.3-1.3,2.6-1.3,3.8s.3,2.2.9,3c1.1,1.3,2.8.9,5.1-1.2.3-1,.8-2.1,1.3-3.1.6-1,1.1-1.9,1.7-2.7.3-.5.6-.9.8-1.2.3-.3.5-.7.8-1.2.4-.4.7-.9,1-1.4s.7-1,1-1.5l1.2-1.8c1.4-2.2,2.5-4.2,3.3-6.1s.6-3.5-.5-4.7c-.2-.2-.4-.4-.7-.6h0Z"></path><path d="M1623.8,1172.6c-.7-.7-1.4-.9-2.3-.8-.9.2-1.8.9-2.7,2.4-.4.9-.7,1.7-1.1,2.4s-.7,1.5-1.1,2.4c-1.1-.9-2.1-1.8-3-2.6-.9-.8-1.8-1.6-2.6-2.4s-1.7-1.7-2.6-2.5c-.9-.9-1.9-1.9-3-2.9-1.7-1.6-3.4-3.3-5-5.1-1.7-1.8-3.4-3.6-5.1-5.3-1.5-1.5-3-3-4.4-4.5-1.4-1.5-2.9-3-4.3-4.4,0-.1.1-.2.1-.3,0,0,0-.2.1-.3.3-.5.6-1,.9-1.7.4-.6.8-1.2,1.2-1.7.5-1.4.7-2.6.6-3.8-.2-1.1-.5-2-1.1-2.7s-1.4-.9-2.5-.6c-1,.2-2,1.1-2.8,2.6l-.2.5c-.5,1.5-.9,2.7-1.4,3.6-.5.9-.9,1.8-1.3,2.6l-.4.8c-.4.7-.9,1.5-1.5,2.5-.7,1-1.8,2.4-3.4,4.4-.9,3.3-.8,5.6.4,6.9.6.5,1.3.6,2.2.4.9-.2,1.8-.8,2.6-1.7.4-.9.7-1.6,1-2.2.3-.6.5-1.1.7-1.4h0c1.2,1,2.2,1.9,2.9,2.6.7.8,1.5,1.6,2.5,2.6l2,1.9c-.8,1.6-1.5,3.1-2.2,4.4-.7,1.3-1.5,2.7-2.4,4.3-1.3,2.4-2.6,4.8-4,7-1.3,2.3-2.8,4.6-4.3,7.1h0c-1.2-1.2-2.4-2.4-3.6-3.4-1.2-1-2.4-2.1-3.7-3.2h0c.2-.2.4-.4.6-.7.2-.3.3-.5.4-.7l1.4-1.7c.6-1.6.8-2.9.6-4.1-.1-1.2-.5-2-1.1-2.6-.6-.7-1.4-.9-2.2-.7-.9.2-1.8,1-2.7,2.3-.4,1-.9,2-1.5,3.1s-1.1,2.1-1.7,3.1c-.8,1.4-1.6,2.9-2.5,4.3-.9,1.4-1.8,2.7-2.7,3.8-.7,3.3-.5,5.5.5,6.5.5.5,1.2.7,2.1.4s1.8-.9,2.6-1.9c.2-.4.4-.8.6-1.2.2-.4.4-.8.5-1.2,0-.1,0-.2,0-.2,0,0,0,0,0-.2,2.4,2,4.6,3.7,6.5,5.3,1.9,1.6,3.6,3,5.2,4.4,1.6,1.4,3,2.7,4.4,3.9,1.3,1.2,2.7,2.5,4,3.8,2.3,2.3,4.3,4.4,6,6.3,1.7,2,3.4,3.9,4.9,5.9l-2.2,4c-1,3.1-.9,5.3.3,6.4.6.7,1.4,1,2.2.9.8-.2,1.7-.9,2.6-2.2.2-.3.3-.6.4-.9,0-.3.2-.5.4-.8s.3-.5.4-.8l.9-2.2,1.9-4.5c.6-.8,1-1.6,1.5-2.2.4-.7.9-1.6,1.5-2.6l2.8-3.4c.7-1.5.9-2.8.8-3.9-.2-1.1-.5-2-1-2.6-.7-.7-1.3-1-1.9-.8s-1.2.5-1.8,1.2c-.6.7-1.2,1.5-1.7,2.5-.6,1-1.1,2-1.7,3l-.7,1.3c-.5-.5-.9-.9-1.3-1.3-.3-.3-.7-.7-1.2-1.1-.8-.8-1.6-1.6-2.3-2.4-.7-.7-1.4-1.5-2.2-2.3l-.3-.3c-1.6-1.8-3.6-3.9-5.9-6.1l-1.2-1.3c-.2-.2-.6-.5-.9-.8-.4-.3-.8-.7-1.2-1.2-.4-.3-.7-.6-1-.8-.2-.3-.6-.6-.9-.9.5-.8.8-1.6,1.2-2.1.3-.6.6-1.1.9-1.6.3-.5.5-1,.8-1.6.3-.5.7-1.2,1.1-2,1.4-2.5,2.8-5.1,4.4-7.7,1.5-2.6,3.1-5.2,4.7-7.9l.4.4c1.3,1.3,2.6,2.7,4.1,4.2,1.5,1.5,3,3,4.6,4.5,1.6,1.6,3.1,3.1,4.6,4.6,1.5,1.5,2.9,3,4.3,4.5-.4.6-.8,1.2-1.1,1.8-.4.6-.9,1.3-1.4,2.1-.6,1.6-.8,3-.7,4s.5,1.9,1.1,2.5c.6.6,1.3.8,2.1.7s1.6-.7,2.5-1.8c.5-.9,1-1.9,1.6-2.9.5-1,1-2,1.5-2.9.4-.9.9-1.7,1.3-2.6s.9-1.7,1.4-2.5c.5-.9,1-1.9,1.6-2.9.6-1,1.2-2,1.9-3,.7-1.5,1-2.9.9-4.1-.1-1.2-.4-2.1-1-2.6h0s0,0,0,0Z"></path><path d="M1645.8,1111.2c-.5-2.1-1-4-1.4-5.5s-.8-2.4-1-2.5c-.9-.8-1.8-.9-2.7-.4-.9.5-1.6,1.3-2.1,2.5-.5,1.2-.6,2.7-.2,4.4.4,1.7.9,3.6,1.4,5.6.4,1.6.8,3,1.2,4.5.4,1.4.6,2.6.6,3.5h0c0,.3-.2.8-.6,1.6s-.7,1.6-1.1,2.5l-.3.8c-1.3,3-2.5,5.8-3.7,8.2-1.1,2.4-2.3,4.9-3.4,7.3-1.9-1.3-3.7-2.5-5.3-3.7-1.6-1.2-3.2-2.3-4.8-3.4-1.5-1.1-3.1-2.3-4.7-3.5-1.6-1.2-3.2-2.5-4.9-3.9.5-1.2.8-2.1,1-2.7s.5-1.2.7-1.7c.2-.5.4-1,.7-1.5.2-.5.5-1.2.9-2.1.5-1.1.9-2.1,1.4-3.2.5-1,1-2.2,1.7-3.4l.3.3c.5.5,1.1.9,1.6,1.3s1.1.6,1.7.7c.5,0,1.1,0,1.6-.4.5-.3,1-1,1.5-2.1.5-1.2.4-2.7-.2-4.6s-1.9-3.9-3.5-5.9c.2.5.4,1,.6,1.4.2.4.4.7.6,1.1.2.4.4.6.6.8,0-.1-.2-.2-.4-.3,0,0-.2,0-.2-.1,0,0,0,0,0,0,0,0,0,0,0,0,0,0,0,0,0,0,0,0,0,0-.1-.1-.1,0-.2-.1-.3-.1-.2,0-.4,0-.7-.3l-.4-.3c-.7-.6-1.4-1.3-2-2-.3-.3-.6-.6-.9-.9s-.8-.7-1.4-1.3c-2.2-1.9-4-1.4-5.3,1.5-.4.9-.6,1.8-.6,2.8s.3,2,.9,3l1-1.6-.7,1.7s0,0,0,.1,0,.1,0,.1l.6.5c.1.1.2.2.3.2.1,0,.2,0,.3.2-1.1,2.5-2.1,4.9-3.2,7.3-1,2.4-2.1,4.8-3.1,7.2-1.2-1-2.2-1.8-3-2.6-.8-.7-1.5-1.4-2.1-2-.6-.6-1.1-1.1-1.6-1.6-.5-.5-.9-1-1.4-1.6h0s.8-1.9.8-1.9c.4-.9.9-2.1,1.5-3.5.6-1.4,1.2-2.8,1.7-4,.7-1.7,1.3-3.3,2-4.8.7-1.6,1.3-3.1,1.9-4.5l.7-1.5.7-1.7.2.2c.2.4.6.8,1,1.1.4.3.8.6,1.4.9s1.1.5,1.7.5,1.2-.1,1.8-.5c.6-.4,1.1-1.1,1.6-2.1,1.3-2.9.9-5.1-1-6.6-.2-.2-.4-.3-.5-.3s-.3,0-.5,0l-.5-.4c-.2,0-.3-.2-.5-.3-.1,0-.3-.2-.5-.4l-.8-.7-.2-.3c-1.8-1.4-3.2-1.6-4.4-.8s-2.3,2.5-3.5,5.1c-.6,1.3-1,2.3-1.2,3-.3.7-.5,1.3-.6,1.9,0,.2,0,.4-.1.5h0c0,.1-2.9,6.8-2.9,6.8-1.5,3.4-2.9,6.6-4.3,9.6-1.4,3.1-2.9,6.2-4.5,9.3v.3c-.3.2-.5.4-.5.5-.2.3-.4.6-.6.8s-.3.6-.5,1c-.6,1.3-.9,2.8-.9,4.3s.5,2.7,1.6,3.6c.8.6,1.6.8,2.5.4s1.6-1.2,2.1-2.4c.3-.6.5-1.1.6-1.4,0,0,.1-.2.2-.3s.1-.3.2-.4l.9-2.2c1.9,1.6,3.7,3,5.4,4.4,1.7,1.4,3.7,3,5.9,4.8,2.3,1.8,4.6,3.7,6.9,5.6,2.3,1.9,4.5,3.7,6.6,5.5.3.3.5.5.8.7s.5.4.8.6l5.9,4.9c-.3.6-.6,1.4-1.1,2.3-.5.9-1.2,2.1-2.1,3.8-.4,1.6-.4,2.9-.1,4.1s.7,2,1.3,2.5c1.6,1.2,3.1.8,4.4-1.2.9-1.8,1.7-3.5,2.5-5.2.8-1.7,1.4-3.1,1.9-4.1.7-1.6,1.2-2.9,1.7-3.9.4-1,.8-2.1,1.1-3.1h0c.5-1.2,1-2.6,1.6-4.2.6-1.6,1.5-3.7,2.7-6.3,0-.2.2-.3.2-.4s.1-.2.2-.3l.9-2.1c.3-.5.6-1.1.9-1.8.3-.7.6-1.3.8-1.9.4-.9.8-1.8,1.2-2.9.4-1,.7-2.1,1-3.3,0-1.6,0-3.6-.4-5.9-.4-2.3-.8-4.5-1.3-6.6h0c0,0,0,0,0,0Z"></path><path d="M1623.6,1106.6s-.2-.2-.2-.2c0,0,0,0,.1.1s0,0,0,0h0Z"></path><path d="M1675.7,988.3c-3.1-3.3-6-6.6-8.9-10-2.9-3.4-5.7-6.8-8.5-10.3-2.8-3.5-5.6-7.2-8.4-11,.4-1.2.6-2.1.8-2.7.2-.6.4-1.1.6-1.6.2-.4.3-.9.5-1.3.2-.5.4-1.1.7-1.9.1-1.4,0-2.6-.5-3.7s-1-1.9-1.7-2.3c-.7-.4-1.4-.4-2.3,0s-1.5,1.3-2.1,2.7c0,1.2-.1,2.4-.4,3.4-.2.8-.5,1.7-.8,2.7-.3,1-.7,2.1-1,3.2-.4,1.1-.7,2.2-1.1,3.3-.3,1.1-.6,2.2-.9,3.2-.6,2.5-.9,4.6-.8,6.3.1,1.6.9,2.9,2.2,3.7.9.5,1.8.5,2.7-.1.9-.6,1.4-1.4,1.7-2.5.1-.5.2-.9.2-1.1s0-.5,0-.9,0-.8,0-1.1c1.6,1.7,3.4,3.8,5.6,6.3,2.2,2.5,4.4,5.1,6.7,7.9,2.3,2.7,4.6,5.5,6.9,8.2,2.3,2.7,4.3,5.2,6.1,7.4-1.2,0-2.4-.1-3.6-.2s-2.3-.3-3.4-.4c-1.2-.2-2.3-.4-3.5-.7-1.2-.3-2.5-.5-3.9-.8-.9-.2-1.9-.4-2.9-.6-1-.3-2.2-.5-3.4-.7h.1c-.2-.1-.4-.2-.6-.1-.2,0-.4,0-.5,0-.2,0-.5-.1-.8-.2s-.6-.1-.8-.2-.4-.1-.4-.1,0,0,.4,0h.5c0,.1-.2,0-.2,0,.2.2.2.1,0-.2-2.7-.4-4.4.5-4.9,2.7-.3,1-.3,2.1-.2,3.3.1,1.2.9,2.2,2.4,3.1,0,.1.2.1.3.1.1,0,.2,0,.3.1,4.1,3.7,8,7.4,11.7,11.2,3.7,3.8,7.4,7.9,11,12.3-1.3-.2-2.5-.3-3.6-.5s-1.9-.2-2.4-.2h0c-3.1-.2-5.9-.4-8.4-.7s-5.1-.7-7.7-1.2l-2.5-.4c-.2,0-.4,0-.5,0,0,0-.2,0-.5,0h0c-.6,0-1.3,0-2-.1-.7,0-1.4-.2-1.9-.3-1.2,0-2.3-.1-3.5-.3-1.2-.2-2.5-.4-3.9-.6.5-1.4,1-2.7,1.5-3.7l.2-.8c.3-1.1.1-2.2-.4-3.5s-1.3-2.2-2.2-2.9c-1.4,0-2.6.8-3.7,2.3-.2.7-.4,1.7-.6,2.8-.2,1.2-.4,2.4-.6,3.7-.3,1.6-.6,3.3-.9,5-.3,1.7-.7,3.4-1.1,5.1-.4.6-.7,1.2-.8,1.7-.4,1.6-.4,2.9,0,4,.4,1.1,1,1.9,1.8,2.4.5.3,1,.3,1.6.1.6-.2,1.1-.4,1.6-.6l.7-.6c.2-.5.4-1,.6-1.4s.2-.8.3-1.1c.1-.4.2-.9.2-1.5s.1-1.2.2-1.9c2.5.5,4.6.8,6.2.9,1.6,0,3.2.1,4.6.1,0,0,.1,0,.2,0,.1,0,.2-.1.3,0,.2,0,.5,0,.9,0,.4,0,.8,0,1.2,0,1.1,0,2.1,0,3.2.2s2.1.2,3.1.4h0c.3,0,.6,0,.9,0,.3,0,.6.1.8.2.3,0,.5,0,.6,0,.2,0,.3,0,.5,0l.9.2c.3,0,.6.1.9.2.4,0,.7,0,1,0h0c1.4.2,2.7.4,4.1.5,1.4.1,2.6.2,3.8.2h0,13.1c.5-.2,1.1-.7,1.7-1.2.6-.6.9-1.1,1.1-1.8.3-1.1.3-2.1,0-3-.2-.9-.6-1.8-1-2.5s-1-1.4-1.6-1.9c-.6-.6-1.1-1.1-1.6-1.5-.4-.3-.7-.5-.7-.6-1-1.1-2.1-2.2-3.1-3.3-1-1.1-2.1-2.2-3.2-3.4-1.1-1.2-2.2-2.4-3.3-3.5-1.1-1.1-2.2-2.3-3.3-3.5l-3.1-3.1c.2,0,.4,0,.6,0s.3,0,.5.1c.4,0,.8,0,1.2.1.4,0,.8.1,1.2.2,1.7,0,3.4.2,5.1.4s3.6.5,5.8,1.1h.1c.8.6,1.8.9,3,1.1s2.3.4,3.4.5c.5,0,.9.1,1.3.2.4,0,.6.2.9.3.2,0,.5-.1.9-.3s.8-.4,1.2-.7c.4-.3.7-.6,1.1-1,.3-.3.6-.8.7-1.3.4-1.7-.1-3.7-1.6-5.8-3.3-3.3-6.5-6.5-9.6-9.8h0c0,.1,0,.1,0,.1Z"></path><path d="M1701.8,891.6c-.9-.4-1.7-.3-2.5.2s-1.4,1.6-1.8,3.3c0,.6,0,1,0,1.3,0,.4,0,.7,0,1,0,.3,0,.6,0,.9s0,.6,0,.9c-1.9-.2-3.6-.2-5.2,0-1.6.2-3.2.3-4.8.5-1,.2-2,.3-2.9.4-.9.1-2,.2-3,.2-3,.3-6,.5-9.1.5-3,0-6.1,0-9.1,0-.6,0-1.1,0-1.6,0-.5,0-1,0-1.6,0-.2,0-.4,0-.8,0-.9,0-1.9,0-2.8.1-1,0-1.9.3-2.7.7s-1.6,1-2.3,1.9-1.3,2-1.7,3.6c1.4,1.6,2.7,3,3.9,4.3,1.2,1.3,2.4,2.4,3.6,3.4l3.1,2.8h0c2,2.1,4,4.3,5.8,6.5s3.7,4.4,5.7,6.7c2.9,3.5,5.9,6.9,9,10.3,3,3.4,6.3,6.8,9.7,10.1-.1.3-.2.5-.2.6s-.1.5-.3,1.3c0,.1,0,.4-.1.7,0,.3-.1.5-.1.7,0,1.6.4,2.9,1,4,.6,1.1,1.3,1.8,2,2.1.8.4,1.6.4,2.3-.1s1.4-1.4,1.9-2.9c0-.8,0-1.7,0-2.8,0-1.1,0-2.1.1-3,.2-.3.3-.8.4-1.5,0-.7,0-1.4-.1-2.1,0-.1,0-.2,0-.3s0-.2,0-.3v-.4c.2-.4.3-.9.4-1.4s.4-1,.7-1.5c.2-.3.3-.8.5-1.6.2-1.6,0-2.9-.7-4s-1.5-1.9-2.5-2.4c-2.4-1.1-3.9.1-4.3,3.7v.8c0,.1,0,.3,0,.5-1.2-1.1-2.5-2.4-3.9-3.9s-2.7-2.9-4.1-4.3c-.3-.3-.6-.6-1-1-.4-.4-.7-.8-.9-1.1v-1c.3-.8.4-1.8.5-2.8.1-1.1.2-2,.3-2.8,0-1,.2-2,.3-3,0-1,.2-2.1.4-3.2l.2-1.3c0-.1,0-.4.2-.9,0-.4.2-.9.3-1.5.2-.8.4-1.7.5-2.6s.3-1.8.5-2.5h.7s.3,0,.7.1c1.6-.3,3.1-.6,4.5-.8,1.4-.2,2.9-.1,4.5.2.1.6.3,1.3.4,2.1.2.8.4,1.5.6,2.2.3.7.6,1.4.9,1.9.3.5.7.9,1.1,1.1.8.3,1.5.4,2.3.2.7-.2,1.2-.9,1.6-2.1l.3-.7c0-.6.2-1.2.3-1.7s.2-1.1.3-1.6c.1-.7.3-1.4.4-2.1.1-.7.2-1.4.3-2.1v-.9c.3-.7.5-1.4.6-2.1.1-.8.2-1.7.4-2.8l.3-2.1c.2-1.5,0-2.8-.7-4.1-.7-1.2-1.4-2-2.3-2.4h0c0,0,0,0,0,0ZM1677.1,913.9c-.2,1.1-.3,2.5-.6,4.2-.1,1-.3,1.9-.4,2.9-.2,1-.3,1.9-.5,2.8,0,.1,0,.2,0,.3s0,.2,0,.3c-.1-.2-.2-.2,0-.2-.4-.4-.7-.8-1-1.1-.3-.4-.7-.7-1-1.1-1.6-1.8-3.2-3.7-4.9-5.5s-3.4-3.7-5-5.4h0c-.1-.2-.4-.4-.9-.8s-1-.8-1.4-1.2c1.9,0,3.8,0,5.6,0s3.5.1,5.1,0c1,0,2,.1,2.8.2.9,0,1.7,0,2.5,0,.1,0,.2,0,.3,0,0,0,.2,0,.3,0-.1,1.9-.2,3.4-.4,4.5h0Z"></path><path d="M1707.3,850.1c.1-2.3.4-4.4.9-6.4-.6-1.7-1.2-3.1-1.9-4.3s-1.4-1.9-2-2.3c-.9-.6-1.7-.7-2.3-.2-.7.4-1.1,1.5-1.2,3.2.2.4.3,1.2.4,2.5,0,1.3.2,2.6.2,3.8-1-.5-2.3-1.3-3.9-2.3-1.6-1-3.4-2.2-5.6-3.5l-3.3-2c-.3-.4-.7-.7-1.2-1l-3.7-2.2c-2.5-4-4.6-7.8-6.4-11.2-1.8-3.4-3.5-6.8-5.2-10h0c0,.1-.7-1.1-.7-1.1-.1-.4-.3-.8-.5-1-1.2-2.3-2.5-4.8-3.9-7.4-1.3-2.6-2.9-5.5-4.8-8.6,0-.3,0-.5,0-.4,0,.1,0,0,0-.3,0-.6.1-1.2.2-1.9s0-1.4,0-2.2c0-1.2,0-2.2-.3-3.1v-.8c-1.2-2.3-2.2-3.7-2.9-4.2-1-.7-1.9-.7-2.6-.2s-1.1,1.5-1.1,2.8c0,.7.1,1.7.5,3,.2,1.6.3,3,.3,4.2,0,1.2,0,2.3,0,3.4,0,1-.1,1.8-.2,2.6,0,.8-.2,1.5-.3,2.2,0,.5-.1.9-.2,1.4,0,.5,0,1-.1,1.6,0,.6,0,1.3.2,2s.4,1.4.7,2.1c.3.7.7,1.3,1.1,1.9.4.5.9.9,1.4,1.2.9.7,1.8.7,2.4.2.7-.5,1-1.4,1.1-2.7,0-.3,0-.5,0-.7,1,1.6,1.9,3,2.8,4.4.8,1.4,1.6,2.7,2.3,4.1.7,1.3,1.4,2.7,2,4s1.3,2.7,2,4.2l.7,1.4c.1.1.4.7.9,1.7s1,2,1.5,3.2h0c.2.3.5.8.6,1.2s.4,1,.7,1.5c-.9.2-1.7.5-2.6.9-.9.4-1.7.8-2.6,1.3h-.2c-1.1.7-2.5,1.4-3.9,2s-3.2,1-5.3,1.2v-.7c0-.3,0-.6.1-.8s0-.4,0-.6v-1.1c0-1.6-.4-3-1-4.3s-1.4-2.2-2.2-2.8c-.8-.4-1.6-.5-2.3-.2-.7.3-1.2,1.3-1.4,2.9,0,.7.2,1.6.2,2.6,0,1,.1,2.1.2,3.2s.1,2.1.1,3v2.9c0,.4,0,.7,0,1.1,0,.4,0,.6,0,.8,0,.8-.2,1.4-.4,1.9s-.3.8-.2,1v2.8c.3,1.7.7,3,1.3,4.1.6,1.1,1.3,1.9,2.1,2.5.7.4,1.4.5,2.1.2s1.2-1,1.4-2.2v-.6c0-.7,0-1.2,0-1.6v-.7c0-.1,0-.2,0-.2s0,0,0-.1c0-.6-.1-1-.1-1.4,0-.4,0-1.1-.1-2,.6-.3,1.7-.7,3.2-1,1.5-.4,3.2-.8,5.2-1.3,2.3-.6,4.6-1.2,6.8-1.9,2.2-.6,3.9-1.2,5-1.6.6.2,1.3.6,2.2,1.1.9.5,1.9,1.1,3,1.7s2.3,1.3,3.5,2c1.2.7,2.4,1.5,3.6,2.2.9.7,1.9,1.3,2.8,1.9s1.8,1.2,2.7,1.8c.3.5.7.9,1,1.1s.7.4,1,.6v2.4c-.5,2.4-.5,4.3,0,5.7.5,1.4,1,2.4,1.4,3,1.1.7,2,.8,2.6.5.6-.3,1.1-1,1.6-1.9v-1.8c0-.3,0-.9-.1-1.8,0-.9,0-2.6.1-5,0-2,.2-4.1.3-6.5h0s0,0,0,0ZM1661.5,788.3l.7-.2v.6c0,0-.7-.4-.7-.4h0Z"></path></g></g><g><path d="M1494,1055.1c-4.1-27.5-13.6-52.3-28.6-73.7-.5-.7-1-1.4-1.5-2.1-.9,1.4-1.9,2.8-2.8,4.1-.5.8-1.1,1.5-1.6,2.3,15.7,22.5,25.1,49.2,28.3,78.7,2.1-3.1,4.1-6.3,6.2-9.4h0Z"></path><path d="M1066.4,1451.1c-48,6.7-92.2,3.7-127.8-8.3-4.5.9-9.1,1.9-13.6,2.7,26.3,10.9,57.9,16.5,92.6,16.5s29.7-1,45.2-3c17.5-5.3,35-11.2,52.4-17.8-16.3,4.3-32.6,7.7-48.8,10h0Z"></path><path d="M1139.5,1388.5c40-19.4,72.6-37.9,99.7-56.3.1,0,.2-.2.3-.2,1.3-1.1,17.5-15.2,32.7-37.1-6.9,4.9-13.9,9.8-21,14.7-8.5,9.7-15.3,15.8-16.3,16.7-26.7,18.1-58.8,36.3-98.2,55.4-6.5,1.3-12.9,2.5-19.1,3.4-7.4,3.3-14.9,6.5-22.4,9.6,13.8-.8,28.4-2.7,43.5-5.9.3,0,.6-.2.9-.3h0Z"></path><path d="M552.5,652.9c50.2-47.7,108-93,173.3-135.5l42.5,69.2c2.1-1.3,4.2-2.5,6.3-3.8l-42.6-69.3c1.2-.8,2.3-1.5,3.5-2.3,64-41,133.2-74.2,203.3-98.7,1.6-3,3.1-6,4.6-9-74.5,25.2-146.5,59.6-211.9,101.5-1.1.7-2.3,1.5-3.4,2.2l-17.6-28.7c-2.1,1.3-4.1,2.6-6.2,3.9l17.7,28.8c-67.3,43.8-127.1,91-179,141.1,2,0,3.9,0,5.9.1,1.3,0,2.5.2,3.6.6h0Z"></path><path d="M1303.1,1339c13.2-9.8,27.1-20.6,41.3-32.6,34.7-42.1,52.8-85.3,56.6-123.6-2.8,3-5.6,5.9-8.4,8.9-7.3,46.1-35.9,98.7-89.4,147.3h0Z"></path><path d="M1488.4,1072c1.9,27.5-1.5,57.4-10.2,88.8,4-5.7,7.9-11.5,11.8-17.4,6.1-28.7,7.8-56,4.9-81.2-2.2,3.3-4.3,6.6-6.5,9.8h0Z"></path><path d="M912.2,1431.2c-27.2-15-45.8-35-58.4-56-2.5.5-5,1-7.6,1.5,15.1,26,36,46.4,62.4,60.9,2.9,1.6,5.8,3,8.8,4.5,4.2-.8,8.5-1.6,12.8-2.5-6.3-2.5-12.4-5.3-18.1-8.4h0Z"></path><path d="M631.1,363.3c2.1-1.1,4.3-2.4,6.4-3.6l-21.5-35.1c-2.1,1.4-4.4,2.5-6.7,3.1l21.9,35.6Z"></path><path d="M1374.5,1089.2c-1.7,1.8-3.4,3.5-5.2,5.3,5.4,7,10.2,14.8,14.3,23.2,9.1,18.8,12.6,41.4,10,66.1,2.7-2.8,5.3-5.6,7.9-8.5,1.1-22.5-2.8-43.2-11.3-60.8-4.5-9.2-9.7-17.7-15.7-25.3h0Z"></path><path d="M1469.3,1188.6l6.9,2.5c4.3-11.7,7.9-23.3,10.8-34.7-4.2,6.2-8.6,12.3-12.9,18.3-1.5,4.6-3.1,9.2-4.8,13.9h0Z"></path><path d="M990.9,1367.7c22.3,18.1,53.5,27.3,90.8,27.4,6.7-2.6,13.3-5.4,19.9-8.2-44.4,3.7-81.3-4.8-106.1-24.9-7.2-5.9-13.2-12.7-18-20.3-2.4.8-4.8,1.6-7.2,2.4,5.3,8.9,12.2,16.8,20.5,23.6Z"></path><path d="M1299.1,1219.3c0-18.4-6.8-33.8-18.9-45-2,1.6-4,3.2-6,4.7,11.2,9.9,17.5,23.7,17.5,40.2,0,30-15.2,57.6-30,77.3,5.9-4.2,11.8-8.4,17.5-12.6,10.9-18.3,19.8-40.6,19.8-64.6h0Z"></path><path d="M611,312.5c-.4-1.7-1.4-3.2-2.6-4.3-7.4,4.7-15.5,9.9-24.1,15.7-.1,1.3-.1,2.5,0,3.8.2,1.5.6,2.9,1.1,4.3,6.6-4.5,13-8.7,19-12.5l1.7,2.8c2.6-1,4.4-3.3,5-5.9l-.5-.9c.3-.2.5-.3.7-.5,0-.9,0-1.7-.2-2.6h0s0,0,0,0Z"></path><path d="M1119.7,1306.7c-12.5,0-21.2-4.6-26.3-13.6-2.2,1.1-4.4,2.2-6.6,3.2,6.3,11.5,17.4,17.7,32.9,17.7,30.9,0,51.3-18,63-33.1,6.8-8.7,7.4-20.9,1.6-30.3l-3.7-6.1c-2.1,1.3-4.2,2.6-6.2,3.9l3.7,6.1c4.2,6.8,3.7,15.7-1.2,22-10.7,13.8-29.3,30.2-57.2,30.2h0Z"></path><path d="M1390.2,921.8c-31.5-13.6-69.3-20.9-112.6-21.5-2.3,2.4-4.6,4.9-6.9,7.3h.9c43.9,0,82.1,6.8,113.8,20.1,1.6-2,3.2-4,4.8-5.9h0Z"></path><path d="M1394.7,923.7c-1.6,2-3.2,4-4.7,5.9,27.6,12.4,50.1,29.8,66.7,52.1.2-.3.4-.6.6-.9,1.2-1.8,2.5-3.7,3.7-5.5-16.9-21.9-39.2-39.2-66.3-51.6h0Z"></path><path d="M1270.5,1176c2-1.6,4.1-3.2,6.1-4.8-13.8-10.9-33.3-17-56.9-17s-57.2,9.4-79.8,24l-12.9-21.1c-2.1,1.3-4.2,2.5-6.3,3.8l13.1,21.4c-32.2,23.1-52.8,56.7-52.8,86.8s1.3,16.6,3.9,23c2.2-1.1,4.4-2.1,6.6-3.2-2.1-5.4-3.1-12-3.1-19.8,0-23.7,14.3-50.4,38.2-71.6,3.6-3.2,7.3-6.1,11.1-8.9l34.3,55.9c2.1-1.3,4.2-2.6,6.2-3.9l-34.5-56.2c22.8-14.9,49.2-22.9,75.9-22.9s38.4,5.2,50.9,14.5h0Z"></path><path d="M1366.4,1090.8c1.7-1.8,3.5-3.5,5.2-5.3-21.7-25.7-51.9-41.4-87.3-45-2.5,2.3-5.1,4.5-7.6,6.8,36.6,2,67.9,17.4,89.7,43.5Z"></path><path d="M985.8,1015.1c10.3-7.9,20.8-15.3,31.6-22.4l45.8,74.7c2.1-1.3,4.2-2.5,6.3-3.8l-45.9-74.8c77.4-49.7,164.3-79.2,240.7-81,2.4-2.5,4.7-4.9,7.1-7.4-79.3.1-170.7,30.3-251.6,82.2l-11.6-18.9c-2.1,1.3-4.2,2.6-6.3,3.8l11.7,19c-11,7.2-21.7,14.8-32.2,22.8-45.3,34.5-83.6,75-110.9,117.1-8.5,13.1-15.9,26.4-22.3,39.7,3.4-1.1,6.7-2.2,10.1-3.3,27-53.2,70.6-104.1,127.6-147.6h0s0,0,0,0Z"></path><path d="M845.4,1171.8c-14.6,31.9-23,64.3-25.2,96.7-.2,2.9-.3,6.2-.3,9.6,2.5-.6,4.9-1.2,7.4-1.8,0-4.1.2-6.8.2-7.4,2.3-33.4,11.8-67.3,27.7-100.4-3.3,1.1-6.6,2.1-9.8,3.2h0Z"></path><path d="M1268.2,1039.7c-5.4,0-10.8.1-16.1.3-71.3,2.9-125.8,24.3-166.3,50.1l-13.9-22.6c-2.1,1.3-4.2,2.6-6.3,3.8l14,22.8c-20.2,13.6-36.7,28.2-49.8,41.9-27,28.1-48.2,61.8-60.6,94.9,3.1-1.2,6.2-2.5,9.3-3.8,12.3-30,31.9-60.3,56.5-86,12.7-13.3,28.7-27.4,48.4-40.7l34.7,56.5c2.1-1.2,4.2-2.5,6.3-3.8l-34.8-56.7c39.6-25.3,93-46.2,162.8-49,5.2-.2,10.5-.3,15.8-.3s1,0,1.5,0c2.7-2.3,5.4-4.7,8-7.1-3.2-.2-6.3-.3-9.6-.3h0Z"></path><path d="M1182,1417.4c-28.9,13.9-58.1,25.9-87.5,36.1,54.5-11.5,109.3-34.3,157-65.6,28.5-18.7,52.6-38.6,72.6-59-31.7,24.8-60.8,43.8-83.6,57.4-18.6,11.7-38.3,22.2-58.5,31.1h0Z"></path><path d="M975.1,1337.5c-7.2-13.1-10.9-28.5-10.9-45.5s4.3-38.4,12-58.9c-3,1.2-6,2.5-9.1,3.7-6.6,19.2-10.3,38-10.3,55.3s3.8,34,11.1,47.9c2.4-.8,4.7-1.6,7.1-2.4Z"></path><path d="M820,1282.9c.6,18.4,4.2,42.3,13.1,65.9,3.1,8.3,6.7,16.1,10.8,23.6,2.5-.5,5-1,7.5-1.4-19.6-34.9-23.4-71.3-23.9-89.8-2.5.6-4.9,1.2-7.4,1.7h0Z"></path><path d="M772.2,91.6l-1.7-7.1c-28.6,7-53.4,13.9-74.9,20.6,15.4-3,33.7-5.8,52.7-7.4,7.7-2,15.6-4,23.9-6h0Z"></path><path d="M718.4,106c-36.3,5.5-64.4,13.7-64.8,13.8l-10,3.3c-46.8,18-65.4,31.2-66.7,32l4.3,5.9c.4-.3,36.9-26,137.1-55.1h0Z"></path><path d="M311.7,378.7c.1-.1.3-.3.4-.4.2-.3,5.9-7.2,15.2-17.9,8.4-14.3,17.4-27.7,26.6-40-25.6,26.7-44.9,50-47.3,53-29.7,27.1-71.7,98.7-73.5,101.7l6.3,3.7c.4-.7,43.4-73.9,72.3-100.2h0Z"></path><path d="M439.4,255.4l-3.9-6.2c-16.5,10.4-34.3,25.3-51.2,41.1-12.8,14.6-25.8,31-38.1,49.2,26-28.2,62.4-64.7,93.3-84.1h0Z"></path><path d="M1087.3,100.2l1.2-7.2c-58.5-9.6-116.8-12.7-174.2-9.2,13,1.5,25.4,3.5,37.2,6.1,44.9-.6,90.3,2.9,135.9,10.4h0Z"></path><path d="M308.4,408.3c-3.1,7.2-6,14.7-8.7,22.4,23.2-29.2,46.2-55.1,68.6-78.1,5.5-9.5,11.5-19,18.1-28.3-25.3,24.2-51.4,52-78,84Z"></path><path d="M204.1,589.1c1.3-.7,2.8-2.1,4.1-4.8l.7-1.5c.6-1.3,1.3-2.8,2.1-4.5,1.6-9.6,3.6-19.3,6-29.1-6.6,13.2-11.6,23.8-14.7,30.5l-.7,1.5c-.4.8-.7,1.2-.8,1.3-1.3.2-2.4,1.1-2.9,2.3-14.1,37.7-37.4,119.1-37.6,119.9l7.1,2c.2-.8,22.8-79.6,36.8-117.7h0Z"></path><path d="M928.8,90.4c-13.8-2.1-28.5-3.6-43.8-4.3-25.8,2.6-51.4,6.5-76.8,11.7,8.5.7,16.6,1.8,24.3,3.1,31.9-5.6,63.9-9,96.2-10.4Z"></path><path d="M687,141.4c43.2-16.6,86.9-29.2,131.1-37.8-8.4-1-17.2-1.7-26.5-2.1-43.3,10-86.5,24-129.2,41.9,8.4-1.1,16.6-1.8,24.7-2h0Z"></path><path d="M298.3,420.6c-1.9,2.4-3.9,4.8-5.8,7.3-27.3,34.5-49.7,72.3-65.8,102.4-3,10.5-5.6,21-7.8,31.3,14.3-29.2,39.2-76.2,71.9-119.6,2.3-7.3,4.8-14.4,7.4-21.4Z"></path><path d="M382.7,338c71.3-70.2,136-111.7,183.3-138.8,35.3-20.3,71-37.7,107.1-52.4-9.5.8-19.1,2.3-29,4.4-27.5,12.3-54.8,26.2-81.7,41.6-41.3,23.7-95.9,58.3-156.5,113.2-8.4,10.4-16.1,21.1-23.1,31.9h0Z"></path><path d="M1241.3,752.5c-1.9,2.5-3.8,5.1-5.7,7.6,47.7-2.2,91.9,3.6,131.2,17.1,1.3-2.1,2.6-4.3,3.9-6.4-38.9-13.6-82.4-19.8-129.4-18.3h0Z"></path><path d="M1539.3,974.6c0-.3,0-.5,0-.8-3.8-29.7-12-56.9-24.3-81.4-1.3,2.6-2.7,5.3-4,7.9,12.4,26,19.9,54.9,22.6,86.6,2-4.1,3.9-8.2,5.8-12.3h0Z"></path><path d="M1462.4,824.2c-1.2,2.2-2.5,4.3-3.7,6.5,20.8,18.8,37.4,40.3,49.6,64.3,1.3-2.6,2.6-5.2,3.9-7.8-12.6-23.6-29.2-44.6-49.8-63h0Z"></path><path d="M939.4,865.6l60,97.8c2.1-1.3,4.2-2.6,6.3-3.8l-60.1-98c.8-.5,1.5-1,2.3-1.5,90.4-58.4,185.9-92.7,276.1-99.3,1.9-.1,3.7-.2,5.6-.4,2-2.5,3.9-5.1,5.8-7.6-4,.2-7.9.4-11.9.7-91.5,6.6-188.2,41.3-279.6,100.4-.7.5-1.4.9-2.1,1.4l-6.8-11.1c-2,1.3-4.1,2.6-6.2,3.9l6.9,11.3c-106.3,71.3-168.6,162.4-196.6,211.2-.2.3-.4.6-.5,1,3.3-.8,6.6-1.6,9.8-2.4,28.9-49.2,89.8-135.5,191.1-203.5h0Z"></path><path d="M849.1,1495.5h-1.2c19.2,5.2,39.6,8.5,60.9,9.6l.4-7.3c-9.9-.5-19.6-1.5-29.1-3-10.3.4-20.7.7-31,.7Z"></path><path d="M859.1,1490.7c-27.4-6.5-52.5-16.9-74.5-30.7-2.5,0-5.1,0-7.6,0s-3.9,0-5.8,0c18.2,12.6,38.6,22.9,60.9,30.5,5.7.1,11.4.2,17.1.2s6.6,0,10,0h0Z"></path><path d="M1534.1,996.1c1.3,24.9-.2,51.4-4.7,79.6,3.5-6.8,6.9-13.8,10.1-20.8,2.6-25,2.9-48.7.7-71.3-2,4.2-4.1,8.4-6.2,12.6h0Z"></path><path d="M688.8,1299.3c-1.9-31.1.3-62.7,6.6-94.1-2.6.3-5.1.6-7.6.9-6,31.4-8.2,62.8-6.2,93.9,2.4-.2,4.9-.4,7.3-.6h0Z"></path><path d="M777.4,1455.4c-25.2-17.1-46-38.8-61.1-63.8-2.8.1-5.6.2-8.4.3,14.1,24.5,33.3,45.9,56.6,63.4,4.1,0,8.3.1,12.4.1h.4Z"></path><path d="M1455.1,827.6c1.3-2.2,2.5-4.3,3.7-6.5-2.8-2.4-5.7-4.8-8.6-7.1-22.2-17.5-47.4-31.4-74.9-41.5-1.3,2.1-2.6,4.3-3.9,6.4,27.4,9.9,52.3,23.6,74.3,40.9,3.2,2.6,6.4,5.2,9.5,7.8h0Z"></path><path d="M1521.1,1117.3l7.1,1.7c4.2-17.2,7.3-33.6,9.6-49.6-3.6,7.3-7.2,14.4-11,21.5-1.7,8.7-3.5,17.5-5.7,26.4h0Z"></path><path d="M705.3,1387.2c2.7,0,5.5-.2,8.3-.3-13.1-23.2-21.5-49.2-24.1-77.2-.2-1.9-.3-3.8-.5-5.8-2.4.2-4.9.4-7.3.6.2,1.9.3,3.9.5,5.8,2.5,27.7,10.5,53.5,23.1,76.8h0Z"></path><path d="M735.3,1077c-22.4,40.4-38,82.2-46.6,124.2,2.6-.3,5.1-.6,7.7-.9,9-42.5,25.3-84.8,48.6-125.6-3.2.8-6.5,1.5-9.7,2.3h0Z"></path><path d="M1565.2,756.5c-.8,3.4-1.7,6.9-2.5,10.3,10.1,17.8,18,37.1,23.5,57.7,1-5.4,1.9-10.9,2.7-16.4-6.1-18.3-14.1-35.6-23.8-51.6h0Z"></path><path d="M1516.9,698.6c-.8,2.6-1.6,5.2-2.4,7.8,17.6,16.1,32.6,34.4,44.7,54.6.8-3.4,1.6-6.8,2.4-10.1-12.4-19.3-27.4-36.8-44.8-52.2h0Z"></path><path d="M588,1095.6c-2.6,0-5.2,0-7.8.1-4.5,12.3-8.5,24.6-11.9,37-6.8,24.4-11.3,48.4-13.4,71.8,2.5.2,5,.3,7.5.5,2.2-23.8,6.6-47.5,13-70.3,3.7-13.3,8-26.4,12.7-39.1h0Z"></path><path d="M1592.1,818.2c-1,5.7-2,11.5-3.2,17.2,1,4.2,1.8,8.5,2.6,12.9l7.2-1.3c-1.7-9.9-4-19.5-6.7-28.8h0Z"></path><path d="M568.7,1306.1c-2.6-.2-5.2-.4-7.8-.6,3.6,15.7,8.5,30.9,14.7,45.4,4.2,9.9,9.1,19.4,14.5,28.5,3.1.5,6.2,1,9.4,1.5-14.6-23.4-24.6-48.6-30.8-74.9Z"></path><path d="M873.8,758.7l52.4,85.3c2.1-1.3,4.2-2.6,6.2-3.9l-52.5-85.5s0,0,.1,0c138-92,293.6-137,430-126.7,1.1-2.4,2.1-4.7,3.2-7.1-138.6-11.2-296.9,34.3-437.1,127.7l-28-45.5c-2,1-4.2,2-6.7,3.2l28.5,46.5c-69.5,47-132.1,102.6-181.3,161-8.3,9.8-16.1,19.7-23.7,29.6,3.5-.6,6.9-1.1,10.3-1.7,64.7-83.5,143-145.1,198.5-182.7h0Z"></path><path d="M671.1,946.9c-3.4.6-6.8,1.1-10.2,1.6-34.3,46.2-60.8,93.9-79.1,142.5,2.6,0,5.2,0,7.9-.1,20.4-53.4,49.1-101.5,81.4-144h0Z"></path><path d="M1314.9,628.2c23.6,2,46.5,5.7,68.7,11.1,15.1,3.7,29.5,8.2,43.1,13.5.8-2.3,1.6-4.7,2.3-7-13.9-5.4-28.5-10-43.8-13.7-21.8-5.3-44.3-8.9-67.3-11-1,2.4-2.1,4.7-3.1,7.1h0Z"></path><path d="M602.9,1386.2c-3.2-.5-6.4-1-9.5-1.5,12.8,20.4,28.5,38.7,47,54.8.8.7,1.6,1.3,2.3,2,5.1,1.1,10.1,2.1,15.2,3-22.7-17.2-40.9-36.9-55.1-58.3h0Z"></path><path d="M704.5,1481.1c15.1,7.2,31.3,13.5,48.5,18.9l2.2-7c-6.2-1.9-12.3-4-18.1-6.1-10.8-1.7-21.7-3.6-32.5-5.7Z"></path><path d="M666.7,1450.9c-5.4-.9-10.8-1.9-16.1-3,12.4,9.7,26,18.6,40.6,26.4,8.3,1.5,16.6,2.9,25.7,4.4-18.6-8.2-35.3-17.5-50.2-27.8h0Z"></path><path d="M1513,695.2c-22.8-19.4-49.4-35.5-79.5-47.6-.8,2.3-1.6,4.7-2.4,7,30.3,12.3,56.9,28.6,79.5,48.4.8-2.6,1.6-5.2,2.3-7.8h0Z"></path><path d="M567.6,1301.3c-6.5-29.9-8-60.9-5.6-91.6-2.5-.1-5-.3-7.5-.5-2.5,31.9-.7,62.6,5.4,91.5,2.6.2,5.2.4,7.8.6h0Z"></path><path d="M474.7,998.3c6.6-16.2,13.8-32,21.6-47.3-2.6-.4-5.1-.7-7.6-1.1-7.5,14.8-14.4,30-20.8,45.7-11,27-19.6,53.8-25.9,80.3,2.3.6,4.7,1.1,7.1,1.7,6.2-25.8,14.7-52.3,25.7-79.2h0Z"></path><path d="M448,1082c-2.4-.5-4.7-1.1-7.1-1.7-8.1,35.3-11.9,69.8-11.4,102.8,2.5.7,5,1.4,7.5,2.2-.9-33,2.7-67.5,10.9-103.2h0Z"></path><path d="M455.4,1285.9c-3.2-.9-6.3-1.9-9.4-2.8,7.5,22.5,17.6,43.8,30.2,63.8,4,1.6,8.2,3.3,12.6,4.9-13.9-20.6-25-42.6-33.4-65.9h0Z"></path><path d="M493.5,1358.6c-4.4-1.6-8.7-3.2-12.8-4.9,10.6,16,23,31.1,36.9,45.3,6.7,3.2,13.4,6.2,20.1,9.1-16.8-15.3-31.5-31.9-44.2-49.6h0Z"></path><path d="M1582.6,671.2l6.8-2.8c-3.4-8.2-7.2-16.2-11.3-23.9,0,5.4,0,10.7-.2,16.1,1.6,3.5,3.2,7,4.7,10.6h0Z"></path><path d="M1355.4,495.8c28.7,6.8,63,17.9,96.9,35.9.2-2.7.4-5.4.5-8.1-28.8-15-61-26.8-96.3-35-.4,2.4-.7,4.9-1.1,7.3Z"></path><path d="M623.7,773.6c-3.9.6-7.7,1.1-11.6,1.7-45.6,49.1-88.2,105.8-121.1,170.2,2.5.4,5.1.8,7.7,1.1,34-65.7,78-123.4,125.1-172.9h0Z"></path><path d="M527.6,1408.9c8.8,8.2,18.1,16.2,28,23.8l4.5-5.8c-3.8-2.9-7.6-5.9-11.2-9-7.1-2.9-14.2-5.8-21.2-9h0Z"></path><path d="M1056.1,501.7c-100.3,27.4-192.1,72.5-259.3,117.5l-19.9-32.5c-2.1,1.3-4.2,2.6-6.3,3.8l20.1,32.7c-53.8,36.7-115.9,85.5-173.6,146.5,4-.6,7.9-1.2,11.9-1.8,55.2-57.2,114.2-103.4,165.5-138.4l44.4,72.4c2.4-1.1,4.7-2.2,6.7-3.2l-45-73.3c65-43.5,153.1-87.2,249.5-114.6,2-2.9,3.9-6,5.9-9.2h0Z"></path><path d="M1057,509c89.6-24.6,186-34.8,277.4-17.7,5.2,1,10.7,2.1,16.4,3.4.4-2.4.8-4.8,1.1-7.2-5.3-1.2-10.7-2.3-16.2-3.4-90-16.8-184.7-7.5-273.1,15.8-1.9,3.1-3.8,6.1-5.7,9.1h0Z"></path><path d="M437.3,1190.2c-2.5-.7-5.1-1.4-7.6-2.2.4,13.1,1.4,25.9,3.2,38.4,2.5,17.7,6.3,34.8,11.5,51.2,3,1,6.1,1.9,9.2,2.8-9.5-28.4-15-58.6-16.3-90.3h0Z"></path><path d="M1528.9,588.8c0-3.5,0-7-.1-10.4-20.5-20.3-44.4-37.8-71.4-52.4-.2,2.7-.4,5.4-.6,8.2,25.3,13.9,50.1,31.8,72.1,54.7h0Z"></path><path d="M1533.6,589.5c0,1.4,0,2.9,0,4.3,15.1,16.5,28.6,35.6,39.9,57.5,0-5.2,0-10.3-.2-15.6-11-19-24.3-36.5-39.7-52.5,0,2.1,0,4.1,0,6.3h0Z"></path><path d="M447.8,770.6c-2.5-.6-4.9-1.2-7.4-1.8-31.5,42.9-57.9,87.5-78.9,133.4,2.1,1.2,4.2,2.3,6.3,3.5,21.2-46.7,47.9-91.7,79.9-135h0Z"></path><path d="M319.7,1025.2c2.2,1.4,4.4,2.7,6.7,4.1,3.2-15.9,7.4-32.2,12.8-49.1,7.6-23.8,16.6-47.2,26.8-70.2-2.1-1.1-4.3-2.3-6.4-3.5-10.6,23.5-19.7,47.4-27.5,71.5-5.1,15.9-9.2,31.7-12.5,47.3h0Z"></path><path d="M320,1138.6c-2.7-1.8-5.4-3.5-8-5.3,1,13.8,2.8,27.4,5.5,40.8,3.3,17,8,33.7,13.8,50.1,3.4,2.3,6.9,4.6,10.6,6.9-10.7-27.2-18.7-58.1-21.9-92.4Z"></path><path d="M344.9,1238.4c-3.7-2.2-7.3-4.5-10.7-6.8,5,13,10.8,25.7,17.4,38.2l1.5,1.7c4,4.3,9.5,9.4,16.4,14.9-8.8-14.4-17.2-30.4-24.6-48h0Z"></path><path d="M1442,408.1c-24.7-13-52.5-24-83.1-32.6.4,2.6.7,5.3,1,7.9,31.3,9,59.7,20.6,84.5,34.3-.8-3.3-1.6-6.5-2.4-9.6h0Z"></path><path d="M548.2,657.1c-3.3,0-6.6-.1-9.9-.2-30.2,29.6-57.7,60.1-82.3,91.5-4.2,5.4-8.4,10.9-12.4,16.3,2.4.6,4.9,1.2,7.4,1.8,28.3-37.8,60.7-74.3,97.2-109.4h0Z"></path><path d="M359.6,1284.2c6,10.2,12.5,20.2,19.6,30l5.9-4.3c-2.8-3.8-5.5-7.8-8.3-11.9-6.7-4.9-12.4-9.5-17.3-13.8h0Z"></path><path d="M1110.1,363.5c-24.5,3.4-49.5,8-74.7,13.9-28.8,6.6-57.5,14.7-85.9,24.1-1.4,3-2.9,5.9-4.4,8.9,54.7-18.7,109.9-32,163.6-39.6.5-2.4.9-4.8,1.4-7.3h0Z"></path><path d="M1529.2,491.6l6.1-4.1c-5.3-8-11.4-15.6-18.1-23,1.5,5.1,3,10.6,4.5,16.6,2.7,3.4,5.2,6.9,7.6,10.5h0Z"></path><path d="M325.4,1034.2c-2.3-1.3-4.5-2.7-6.7-4.1-6.5,33.1-8.9,65.6-7,97.2,2.6,1.8,5.2,3.6,7.9,5.4-2.3-30.2-.8-63,5.9-98.5h0Z"></path><path d="M1449.9,420.8c25.8,14.9,47.6,32.3,64.6,51.7-1.6-5.8-3.2-11-4.7-15.7-17.1-17-38-32.4-62.1-45.7.8,3.2,1.6,6.4,2.3,9.7h0Z"></path><path d="M1113.7,370.1c77.5-10.4,152-8.9,217.6,6,8.1,1.8,16,3.8,23.7,6-.3-2.6-.6-5.3-1-7.9-6.9-1.9-13.9-3.6-21.1-5.3-64.6-14.7-138.8-16.7-217.9-6.1-.4,2.4-.9,4.9-1.3,7.3h0Z"></path><path d="M1237.1,262.8c-.8-2.6-1.5-5.2-2.4-7.8-38-5.4-78.1-7.1-119.4-5.2.4,2.4.8,4.8,1.2,7.2,48.2-2.1,88.8,1.1,120.6,5.8h0Z"></path><path d="M982.1,267.6c-.7.2-1.4.3-2.1.5,0,1,0,2.1,0,3,0,1.4,0,2.8,0,4.2,48.4-10.8,92.5-16.2,131.8-18.1-.4-2.4-.8-4.8-1.2-7.2-42,2.2-85.1,8-128.4,17.6h0Z"></path><path d="M1333.8,286.8c25.3,9.2,48.7,20.6,70.2,33.9-3-4.8-6.2-9.5-9.3-14.1-20.2-11.4-41.9-21.1-65.1-29.2,1.5,3,2.9,6.2,4.3,9.3h0Z"></path><path d="M247.8,973c-2.2-2.3-4.3-4.5-6.3-6.8-3.1,21.8-4.7,42.9-4.6,63.6,0,8.6.4,17,.9,25.5,2.7,3.6,5.4,7.2,8.2,10.7-3-30.3-2.5-61.1,1.7-93h0Z"></path><path d="M415.5,622.9c28-33.5,60-67.1,95.9-99.7-2.9-.6-5.8-1.3-8.6-2.1-35.1,32.2-66.4,65.3-94,98.3,2.2,1.2,4.4,2.3,6.6,3.5h0Z"></path><path d="M515.8,519.3c42.6-38.2,90.7-75.1,144.5-108.7l41.6,67.8c2.1-1.3,4.1-2.6,6.2-3.9l-41.5-67.7c.7-.4,1.3-.8,2-1.2,54.5-33.4,106.8-59.7,156.2-80.4.8-2.9,1.5-5.7,2.2-8.6-54.4,22.3-108.6,49.9-162.3,82.8-.7.4-1.3.8-2,1.2l-22.7-36.9c-2.1,1.3-4.2,2.5-6.4,3.6l22.8,37.2c-55.8,34.8-105.5,73.2-149.4,112.9,2.9.7,5.8,1.4,8.8,2h0Z"></path><path d="M275.2,1185.5c-.4-1.6-1-3-1.9-4.3l1.5-1c-14.2-35.6-23.4-70.4-27.7-105.8-2.9-3.4-5.7-6.9-8.5-10.5,3.8,42.6,14.6,84.2,33.3,128.5l6.8-2.8c-.7-1.6-1.3-3.3-2-4.9l-1.4.9h0Z"></path><path d="M338.1,716.1c-26.3,41.5-46.2,81-59.9,116.1-.2.6-.5,1.2-.7,1.8,1.8,2.1,3.6,4.2,5.5,6.2.7-1.8,1.3-3.6,2.1-5.4,13.4-34.5,32.9-73.2,58.6-113.9-1.9-1.6-3.8-3.2-5.6-4.9h0Z"></path><path d="M975.3,276.4c0-1.8,0-3.5,0-5.3v-2c-47.7,10.9-95.5,26-143.2,45.2-.6,2.9-1.3,5.7-2.1,8.6,51.6-21.2,100.2-36.2,145.2-46.5h0Z"></path><path d="M412.4,626.6c-2.2-1.1-4.4-2.3-6.6-3.5-24.8,30-46.5,59.9-65.1,88.8,1.8,1.7,3.7,3.3,5.6,4.9,18.8-29.4,40.8-59.7,66.1-90.2h0Z"></path><path d="M1327.7,284.6c-1.4-3.2-2.9-6.2-4.4-9.3-22.7-7.5-46.9-13.5-72.4-17.8-3.6-.6-7.3-1.2-10.9-1.7.8,2.6,1.6,5.2,2.3,7.8,2.5.4,5,.8,7.4,1.2,27.7,4.7,53.7,11.4,78.1,19.9h0Z"></path><path d="M242.4,960.2c2,2.3,4.1,4.5,6.2,6.8,5.6-38.5,16.4-78.7,32.5-121.8-1.9-2-3.7-4.1-5.5-6.1-16.2,42.8-27.2,82.9-33.2,121.1Z"></path><path d="M1482.9,388.7l5.6-4.7c-23.9-28.3-52.1-52.2-84.4-71.7,3.1,4.7,6.1,9.4,9,14.4,26.3,17.5,49.7,38.2,69.8,62.1h0Z"></path><path d="M186.7,963.4c1,18.3,3.2,36.4,6.6,54.1l7.2-1.4c-1.6-8.2-2.8-16.4-3.9-24.5-3.8-9.2-7.1-18.7-9.9-28.2h0Z"></path><path d="M208.3,795.9c-8.5,28.2-14.6,56.1-18.2,83.6,1.8,4.1,3.8,8.3,6,12.7,4.9-45.5,16.4-89.4,31.7-130.4-1.4-3.4-2.8-6.9-4-10.3-5.8,14.9-10.9,29.7-15.4,44.5h0Z"></path><path d="M1343.4,240.5l4.1-4.2c1,1.2,2.3,2.1,3.9,2.7l-4.1,4.1c5.6,3.7,11.1,7.5,16.6,11.5l4.3-5.9c-30.3-21.9-61.5-39.4-94.8-52.8,3.8,4,7.7,8.3,11.6,12.9,20,8.9,39.4,19.5,58.3,31.7h0Z"></path><path d="M283.5,631.5c-23.1,37.9-42.2,75.7-57.2,113.2,1.2,3.5,2.5,7,3.9,10.5,16-41.6,35.8-80.3,56.5-114.7-1.1-3-2.2-6-3.1-9h0Z"></path><path d="M1076.9,161.4c1.9,2.4,3.7,4.8,5.5,7.3,20.7.1,41.2,1.2,61.2,3.3,17.1,1.8,33.5,4.3,49.5,7.5-1.1-1.3-2.2-2.7-3.3-4-1.4-1.7-2.9-3.3-4.3-5-13.3-2.4-27-4.4-41.1-5.9-22-2.3-44.6-3.4-67.4-3.4h0Z"></path><path d="M315.9,594.9c8.1-11.8,16.4-23.2,24.8-34.4-1.3-2.4-2.5-4.8-3.7-7.3-9.3,12.1-18.3,24.6-27.2,37.5-8.1,11.8-15.7,23.6-23,35.4.9,3.1,1.9,6.2,3,9.2,8.7-14.2,17.4-27.7,26.1-40.4h0Z"></path><path d="M1200.2,181.1c26.3,5.7,51.1,13.4,75,23.3-4.3-4.7-8.5-9-12.5-12.8-22.3-8.3-45.4-14.7-69.8-19.6.1.2.3.3.4.5,2.4,2.8,4.7,5.7,6.9,8.5h0Z"></path><path d="M822.7,205.7c1.1,2.2,2.2,4.4,3.2,6.7,42.1-14.1,84.4-25,126.2-32.3-1.3-2.2-2.7-4.5-4.2-6.7-41.4,7.4-83.3,18.3-125.1,32.3h0Z"></path><path d="M194.8,973.2c-2-24.5-1.7-48.7.4-72.5-2.2-4.2-4.3-8.3-6.2-12.4-2.2,19.4-3.1,38.6-2.8,57.5,0,0,6.6,21.4,8.6,27.3h0Z"></path><path d="M615.5,311.3c0,.3.1.6.2.9.2-.2.5-.3.7-.4.9-.5,1.7-1.1,2.6-1.6-.2-.4-.5-.8-1-1.2-1.2-1.1-2.8-1.9-4.7-2.4,1,1.4,1.8,3,2.2,4.7h0Z"></path><path d="M953.1,172.5c1.4,2.2,2.8,4.5,4.1,6.7,40.5-6.8,80.5-10.4,119.4-10.5-1.8-2.5-3.8-4.9-5.7-7.3-38.4.4-77.9,4.2-117.7,11.1h0Z"></path><path d="M579.6,328.3c0-.4,0-.8-.1-1.2-8.8,6-18.1,12.5-27.8,19.5-.9,2.9-1.3,5.9-1.2,9,0,.3,0,.6,0,.9,10.8-7.9,21.1-15.2,30.7-21.8-.9-2-1.4-4.2-1.7-6.5h0Z"></path><path d="M623,307.7c25-15.3,50.4-29.5,76.1-42.4-.3-2.5-.9-5-1.7-7.3-27.2,13.6-54.1,28.6-80.5,44.9,1.7.7,3.1,1.6,4.3,2.7.6.6,1.3,1.3,1.8,2.2h0Z"></path><path d="M425.5,463.6c-1.1-2.5-2-5-2.8-7.5-27.9,27.8-55.9,58.8-82.5,93,1.1,2.5,2.3,4.9,3.6,7.4,26.2-34.1,54-65.1,81.7-92.8h0Z"></path><path d="M426.5,452.3c.7,2.6,1.6,5.2,2.6,7.7,40.8-40.4,81.4-73.8,117.1-100.3-.2-1.2-.4-2.5-.5-3.9,0-1.7,0-3.4.2-5-36.2,26.6-77.7,60.5-119.5,101.6h0Z"></path><path d="M818.1,207.3c-39.2,13.4-78.2,29.7-116.6,48.6.8,2.3,1.5,4.8,1.9,7.2,38.8-19.2,78.3-35.7,117.9-49.2-1-2.3-2.1-4.5-3.2-6.6h0Z"></path><path d="M612.4,219.8c5.7-.8,11.4-1.2,17.1-1.2h.9c45.5-23.7,90.7-43.3,135.6-58.8-3.4-1.5-6.8-2.8-10.4-4.1-47.4,16.8-95.1,38.2-143.1,64.1h0s0,0,0,0Z"></path><path d="M592.7,230.6c-38.9,21.9-76.3,46.6-111.7,73.6-7.2,8.1-13.8,16.5-19.8,25,42.2-34.4,87.5-65.4,135.2-92.2,8.2-4.6,16.3-9.1,24.5-13.4-7.2.6-14.5,1.8-22,3.6-2,1.1-4.1,2.3-6.1,3.4h0Z"></path><path d="M210.1,655.3c16.5-39.6,37.9-79.6,63.6-119,.3-5.1.7-10.1,1.2-15.1-25.8,38-47.5,76.7-64.8,115.4-.1,6.3-.1,12.6,0,18.8h0Z"></path><path d="M205.2,647.4c-.7,1.5-1.3,3-2,4.6-14.1,33.6-24.7,66.9-31.7,99.5-1,15.1-1,30.4-.1,45.9,5.1-42.7,16.7-87,34.4-131.7-.4-6-.6-12.1-.6-18.2h0Z"></path><path d="M337.6,439.1c-1.3,5.1-2.4,10.2-3.3,15.3,34.3-41.2,72.8-79.7,114.5-114.9,4.6-7.5,9.7-14.8,15.2-22-46,36.8-88.5,77.6-126.3,121.5h0Z"></path><path d="M762.6,153.3c3.4,1.3,6.8,2.8,10,4.3,41.3-13.9,82.2-24.3,122.7-31.2-3.6-1.9-7.2-3.7-11.1-5.5-40.2,7.4-80.7,18.1-121.6,32.3h0Z"></path><path d="M1169.2,141.1l3.2-6.6c-9.9-4.9-22.4-9.1-36.9-12.7,3.8,2.3,10.3,6.7,18.5,13,5.6,2,10.7,4,15.2,6.3h0Z"></path><path d="M1009.2,109c4.9,2.3,9.7,4.8,14.4,7.4,44.8.7,86.1,5.8,116.8,14.3-6.4-4.4-10.4-6.7-10.5-6.8l-4.1-2.3,1-1.8c-32.7-7.1-74-11-117.5-10.8h0Z"></path><path d="M278.9,528.3c10.2-15.2,21-30.4,32.5-45.4,5.5-7.1,11.1-14.2,16.8-21.2.8-4.9,1.7-9.9,2.8-14.8-8.7,10.4-17.2,20.9-25.4,31.6-8.8,11.5-17.2,23-25.2,34.6-.6,5-1.1,10.1-1.5,15.3h0Z"></path><path d="M161.9,820.3c-.6,9.5-.8,19-.8,28.4h7.3c0-6.4,0-12.8.4-19.2-.8-4-1.4-7.4-1.8-10l-5.1.8h0Z"></path><path d="M892.4,119.5c3.7,1.8,7.2,3.7,10.6,5.7,34.9-5.6,69.5-8.5,103.7-8.8,2.2,0,4.4,0,6.7,0-5-2.5-10.1-4.9-15.5-7.1-34.8.8-70,4.2-105.5,10.3Z"></path></g><g><circle class="st3" cx="607.7" cy="631.4" r="164"></circle><circle class="st1" cx="1052.5" cy="544.3" r="267.4"></circle><circle class="st5" cx="999.2" cy="1007.9" r="189.3"></circle><circle class="st2" cx="709.7" cy="1289.8" r="94.9"></circle><circle class="st4" cx="1250.2" cy="939.5" r="179.6" transform="translate(-298.2 1159.2) rotate(-45)"></circle></g><g><path d="M1601.8,859.8c-47.4,336.5-309.3,499.7-388.4,541.8-195.2,103.7-404.8,121.8-608.2,53,54.3,14.9,111.6,22.4,171.8,22.4s11.8,0,17.8-.2c68-1.7,141.4-13.2,212.3-33.5,80.3-22.9,154.3-55.7,219.9-97.5,132-84,218.7-171.2,299.1-301,58.4-94.3,92.5-217.4,91-329.6l-16.9.2c1.4,109-31.7,228.8-88.5,320.4-79,127.4-164.2,213.1-293.9,295.6-120.8,76.9-279.1,124.8-423.6,128.3-132.4,3.2-251.2-30.2-353.1-99.1l-9.5,14c43.4,29.4,89.7,52.4,138.6,69.2l-5.5,14.1c93.6,36.2,188.6,54.4,283.7,54.4s91.3-4.2,136.9-12.6c120.4-22.1,207.2-68.2,235.8-83.4,91.9-48.8,179.2-121.7,245.7-205.4,82.6-103.8,133.5-221.2,151.5-348.9l-16.7-2.4h0,0Z"></path><path d="M376.2,624.3c43.5,31.4,104.7,49,172.5,49.7h0c4.6,0,8.4-3.7,8.4-8.4,0-4.7-3.7-8.5-8.4-8.5-64.3-.6-122.1-17.1-162.8-46.5-39.3-28.4-60.9-67.5-60.9-110.2,0-85.3,46-176.2,126.1-249.6,73.9-67.6,166-109.6,240.4-109.6s145.3,47,145.3,128.8-33.7,133.8-94.8,185c-53.9,45.1-123.8,73.1-182.5,73.1s-75.6-9.3-100.9-26.3c-26-17.4-39.8-42-39.8-70.9,0-95.3,116.1-212.5,210.6-212.5s74.6,21.4,74.6,52c0,59.2-74.3,111.2-119.2,111.2s-38.1-1.2-39.1-26c-1.2-30.5,42.4-53.4,60.4-54.5,6.1-.4,11.6,1.2,15,4.3,1.2,1.1,2.7,3,2.8,5.3.1,4.8-2.5,8.5-4.7,10.8-3.8,3.9-9.4,6.5-14.1,6.5h0c-2.7,0-4-1.3-4.1-2.5-.2-1.9,3.1-2.8,3.8-3,4.5-1.1,7.3-5.7,6.2-10.2-1.1-4.5-5.7-7.3-10.2-6.2-12.8,3.2-17.5,13-16.5,21.4,1.2,10,10,17.4,20.9,17.4h0c9.4,0,19.1-4.3,26.2-11.6,6.3-6.5,9.7-14.7,9.5-23-.2-6.5-3.1-12.6-8.3-17.3-6.8-6.2-16.7-9.3-27.4-8.7-13.5.8-32.6,9-47.4,20.4-19.3,14.8-29.5,33.1-28.8,51.6,1.2,31.2,30.9,42.2,55.9,42.2s60.6-14.6,88.1-38.2c30.5-26.2,48-58.9,48-89.9s-37.6-68.8-91.5-68.8c-104.1,0-227.4,124.3-227.4,229.3s16.4,64.2,47.3,84.9c28.1,18.8,67.2,29.1,110.3,29.1,62.5,0,136.6-29.5,193.3-77,65-54.5,100.8-124.7,100.8-197.9s-13.1-76.8-37.8-102.1c-28.3-28.9-70.2-43.6-124.4-43.6-78.5,0-175,43.7-251.8,114-83.6,76.5-131.6,172-131.6,262s24.1,92.3,67.9,123.9h0Z"></path><path d="M652.2,115.3c.6-.2,64.1-18.8,124.3-18.8,183.7,0,203.6,122.2,203.6,174.7,0,179.4-170.5,317.6-291.5,358.4l5.4,16c51.3-17.3,129.2-59.6,193.7-126.5,49.8-51.7,109.3-136.6,109.3-247.8s-5.3-79.2-40.6-122.3c-30.7-37.5-76.7-59.9-137.1-66.9,105.9-6.4,184.9,12.4,235.4,56.3,43.4,37.7,65.4,93.7,65.4,166.6s-29.1,146.9-53.6,188.8c-26.6,45.6-53.6,72.4-53.9,72.7l11.8,12c1.2-1.1,28.6-28.4,56.4-75.8,25.6-43.7,56.2-113.6,56.2-197.8s-23.9-138.3-71.2-179.3c-64.4-55.9-170.4-73.9-315.2-53.5l1.2,8.5c-53.7,3.7-102,17.9-104.3,18.6l4.8,16.2h0Z"></path><path d="M333.6,734.3c49.9,41.2,120.7,63,204.7,63s173.8-23.4,229.6-43c60.5-21.2,99.5-42.2,101.1-43.1l-8-14.8c-1.6.8-157.7,84.1-322.7,84.1s-265.3-84.2-265.3-219.7,75.8-242.1,132.9-300.6l-12.1-11.8c-41.5,42.7-72.5,85-94.8,129.3-28.4,56.7-42.9,118.3-42.9,183.1s26.8,131.6,77.5,173.6h0Z"></path><path d="M1193.3,172.6c39.9,47,59.2,102.1,57.5,163.6l16.9.5c2.3-82.2-32.5-140.8-62-175.5-31.9-37.5-64.2-55.4-65.5-56.2l-8.1,14.8c.3.2,31.3,17.5,61.2,52.8h0,0Z"></path><path d="M243,824.5c32.3,46.3,78.9,84.3,134.9,109.7,55.1,25.1,119.7,38.3,186.9,38.3s142.8-11.5,211.8-34.3c55.1-18.2,109-43.5,160-75.3,86.9-54.2,134.9-107.6,136.9-109.9l-12.6-11.2c-.5.5-48.7,54.2-133.7,107.1-78.2,48.7-204.6,106.7-362.3,106.7s-245.6-51.3-308-140.9c-60.7-87-68-200.1-21.2-326.9l-15.8-5.8c-25,67.6-35,132.2-30,191.8,4.8,56,22.6,106.7,53.2,150.5h0c0,0,0,0,0,0Z"></path><path d="M259.4,1007.3c36.7,32.1,80,57.3,128.9,75,55.7,20.2,118.7,30.4,187.1,30.4s190.2-19.5,285.1-56.3c92.5-35.9,181.7-88.2,258.1-151.4,78.3-64.8,143.2-141.1,187.6-220.8,48.2-86.6,72.7-175.7,72.7-265,0-128.6-71.7-220.4-114.1-254.4l-10.5,13.2c40,32.1,107.8,119,107.8,241.3s-92.6,339.3-254.1,472.8c-154.3,127.6-353.4,203.8-532.4,203.8s-229.2-35-304.8-101.2c-82.7-72.3-100.1-152.3-103.4-175.1l-16.7,2.5c9.6,64.7,50.3,134,109,185.4h0Z"></path><path d="M605.2,1227.7c3,0,6.1,0,9.2,0,96.2-1,200.9-23,302.7-63.4,98.5-39.1,194.2-95.4,276.7-162.7,178.7-145.8,281.3-328.5,281.3-501.2s-62.2-214.9-116.4-268.6l-11.9,12c51.9,51.3,111.4,126.9,111.4,256.6s-100.2,345.5-275.1,488.1c-168.2,137.2-380.8,220.3-568.9,222.3-128.1,1.4-232.3-26.5-309.5-82.7-59.2-43.1-101.8-104.1-119.9-171.7l-16.3,4.4c19.1,71.3,64,135.6,126.3,180.9,78.4,57.1,182.8,86,310.4,86h0Z"></path><path d="M609.7,1324.5c121.4,0,243-23.8,361.4-70.7,107.2-42.4,210.6-104.3,299.2-178.7,84.7-71.2,155.3-153.3,204.3-237.5,49.7-85.4,76-171.2,76-248,0-115.9-34-173.1-35.4-175.4l-14.4,8.7c.3.5,33,56.1,33,166.7s-105.1,330.4-274.2,472.6c-185.5,156-422.4,245.5-649.8,245.5s-302.1-81.4-329.9-124.9l-14.2,9.1c18.1,28.4,63.2,61.1,117.6,85.6,47.9,21.5,126.1,47.2,226.6,47.2h0s0,0,0,0Z"></path><path d="M684,1409.1c205.5,0,415.8-74.6,592.1-210.1,82-63.1,149-132.4,199-206,66.5-97.9,140.4-248.8,114.7-411.6l-16.7,2.6c24.8,157.3-47.2,304-112,399.5-49,72.1-114.7,140.1-195.3,202.1-173.4,133.3-380,206.6-581.8,206.6s-172-24.6-219.8-45.2c-58.1-25.1-98-54.6-114.5-72.3l-12.3,11.5c18.5,19.7,59.7,50.2,120.1,76.2,49.2,21.3,128.5,46.6,226.5,46.6h0Z"></path></g><path d="M885.7,1531.4c-99.3,0-195.7-19.5-286.4-57.8-87.6-37.1-166.3-90.1-233.9-157.7-67.6-67.6-120.6-146.3-157.7-233.9-38.4-90.7-57.8-187.1-57.8-286.4s19.5-195.7,57.8-286.4c37.1-87.6,90.1-166.3,157.7-233.9,67.6-67.6,146.3-120.6,233.9-157.7,90.7-38.4,187.1-57.8,286.4-57.8s195.7,19.5,286.4,57.8c87.6,37.1,166.3,90.1,233.9,157.7,67.6,67.6,120.6,146.3,157.7,233.9,38.4,90.7,57.8,187.1,57.8,286.4s-19.5,195.7-57.8,286.4c-37.1,87.6-90.1,166.3-157.7,233.9s-146.3,120.6-233.9,157.7c-90.7,38.4-187.1,57.8-286.4,57.8h0ZM885.7,76.5c-396.4,0-719,322.5-719,719s322.5,719,719,719,719-322.5,719-719S1282.1,76.5,885.7,76.5h0Z"></path><g><path d="M997.7,836.8c-1.3-.3-2.4-.2-3.4.4-2.5,1.5-3.6,4.1-3.4,7.8.4,1.9.3,3.9-.5,5.9-.7,2-1.8,4-3.2,5.9-1.4,1.9-3,3.6-4.8,5.2-1.8,1.6-3.6,2.8-5.2,3.8-4,2.4-8,4.1-11.9,5.1-3.9.9-7.5,1-10.8.3s-6.3-2.3-8.8-4.7c-2.6-2.4-4.6-5.6-6-9.8-.7-1.9-1-3.7-.9-5.4,0-1.8.2-3.7.3-5.8,0-.7.1-1.3.1-1.9,0-.6,0-1.3,0-2v.5c.3-3,.8-6,1.3-9.1.5-3.1,1.3-6.1,2.5-9,1.1-2.9,2.7-5.7,4.6-8.3,1.9-2.6,4.4-4.8,7.5-6.7,2.4-1.4,4.8-2.3,7-2.4,2.3-.2,4.8.7,7.5,2.5.2,0,.4.1.5.3,0,.1.2.2.4.3h0c.4.2.8.5,1.2.8.4.3.9.5,1.4.6.9.4,1.8,1,2.5,1.7.8.7,1.5,1.4,2.2,2.2h-.1c1.3,1.4,2.5,2.5,3.7,3.3,1.2.8,2.6.9,4.2.1l.5-.3c.5-.2.9-.4,1.4-.8s.9-.8,1.2-1.4c.4-.6.6-1.5.8-2.5.2-1,.2-2.4,0-4-1.3-2.4-2.5-4.9-3.7-7.5-1.2-2.6-2.2-5.1-2.9-7.4-.1-.4-.3-.9-.4-1.5s-.3-1.2-.4-1.7c0-.3,0-.6-.1-1s-.2-.7-.3-1c0-.4-.2-.9-.4-1.6-.7-1.9-1.7-3.1-3-3.5-1.3-.4-2.6-.2-3.9.6-.4.3-.9.7-1.4,1.2s-1,1.2-1.4,2c-.4.8-.6,1.6-.8,2.4s0,1.7.2,2.7l.2.6c.2.6.5,1.4,1,2.3s.9,1.8,1.4,2.6c-3.8-1.8-7.3-2.7-10.6-2.9-3.3-.1-6.7.9-10.3,3-1,.6-2.1,1.3-3.1,2.1-1,.8-2.1,1.6-3.2,2.4-2.1,1.7-4,4-5.8,6.8-1.8,2.8-3.4,6-4.8,9.5-1.4,3.5-2.6,7.2-3.5,11-1,3.8-1.6,7.6-2,11.3-.4,3.7-.5,7.3-.3,10.6.2,3.4.7,6.3,1.5,8.8l.3,1c4.8,11.1,11.6,17.7,20.2,19.9,8.6,2.2,19.1-.5,31.3-7.8,2.2-1.3,4.5-3.2,6.9-5.5,2.4-2.3,4.6-5,6.5-8,1.9-3,3.3-6.4,4.2-10,1-3.6,1-7.4.2-11.4-1-1.5-2.1-2.4-3.4-2.7h0c0,0,0,0,0,0ZM975.5,799.4h-.3c.4-.3.5-.3.3,0Z"></path><path d="M1051.5,769.4c-2-4.2-4.5-8-7.3-11.3-2.8-3.3-6-5.8-9.5-7.5-3.5-1.7-7.3-2.5-11.3-2.4-4,.2-8.2,1.5-12.6,4.1l-.6.4c-4.9,4.5-8.7,9.5-11.5,14.9-2.8,5.4-4.6,10.9-5.5,16.4-.9,5.6-1,11.1-.3,16.5.7,5.5,2.2,10.4,4.3,15,2.2,4.5,4.9,8.4,8.1,11.8,3.3,3.4,6.9,5.9,11,7.5,4.1,1.7,8.5,2.3,13.2,1.8,4.7-.5,9.6-2.3,14.7-5.5h-.1c.4-.1.7-.3.9-.5.3-.2.6-.5,1-.8,3.7-2.9,6.6-6.7,8.5-11.5,1.9-4.8,3.1-10,3.4-15.6.3-5.6,0-11.3-1.2-17.2-1.1-5.9-2.9-11.3-5.2-16.4h0,0ZM1046.5,811.8c-1.2,3.7-3.1,6.7-5.6,9.1-3.6,2.7-7.1,4.3-10.4,4.8-3.3.5-6.5.2-9.4-.9s-5.5-3-7.9-5.6c-2.4-2.6-4.4-5.6-5.9-9.1-1.8-3.8-3.1-7.9-3.9-12.4-.8-4.5-1-8.8-.6-13.2.4-4.3,1.4-8.3,3-12.1,1.7-3.8,4.1-6.9,7.3-9.4.3-.3.6-.4.8-.6s.4-.4.7-.7l.6-.4c2.7-2.1,5.3-3.1,8-3.2,2.7,0,5.3.6,7.7,2.1s4.8,3.5,6.9,6.2c2.1,2.7,4,5.7,5.6,9.2,1.7,3.7,3,7.6,3.9,11.9.9,4.2,1.3,8.4,1.2,12.6-.1,4.1-.8,8.1-2,11.7h0s0,0,0,0Z"></path><path d="M1124.2,737.3c-2.5-3.5-5.1-7.4-8-11.6s-5.7-8.5-8.5-12.9c-2.8-4.4-5.6-8.6-8.2-12.6l-6.5-10.4c.2-.1.4-.3.6-.5l.4-.4c1.2-1.2,2.1-2.7,2.6-4.5.5-1.8.2-3.4-.8-5-.8-1.4-1.9-2.1-3.2-2.2-1.3-.1-2.6.4-3.7,1.6-.1.1-.2.2-.2.3s0,.1-.2.3c-.2.2-.6.6-1.2,1.2-.5.6-1.2,1.3-1.9,2.2-1,1.2-2.1,2.5-3.4,3.8-1.2,1.3-2.3,2.4-3.3,3.4-.3.3-.6.5-.8.7-.3.2-.6.4-1.1.6-1.2,2.1-1.9,3.9-1.9,5.4,0,1.5.2,2.8.8,3.7s1.4,1.6,2.4,1.9c1,.3,2.3,0,3.8-1,.8-1.5,1.8-3.1,3-4.8,1.3,2.1,2.6,4,3.8,5.8,1.2,1.8,2.3,3.5,3.5,5.2,1.2,1.7,2.3,3.4,3.5,5,1.2,1.6,2.3,3.3,3.5,5.1,2.5,3.5,4.9,7.1,7.3,10.6,2.4,3.5,4.8,7.2,7.2,11l3.2,5.1c-3.8-.6-7.1-1.6-9.7-3.2-2.6-1.6-5.2-3.2-7.7-5-.9-.7-1.8-1.3-2.6-1.9-.9-.6-1.8-1.2-2.8-1.7h0c-2.6-1.5-5.4-3.2-8.3-4.8-3-1.7-6-3.3-9-4.8-3.1-1.5-6.2-2.8-9.3-4-3.2-1.1-6.2-1.9-9.2-2.3-1.4-.2-3,0-4.6.6-1.6.6-3.2,1.4-4.7,2.3s-3,2-4.3,3.1c-1.3,1.2-2.5,2.2-3.4,3.1l-.3.3c-.3.1-.6.3-.8.4-.2.2-.3.3-.4.4-1.1,1.1-1.7,2.5-1.9,4.2-.2,1.7.1,3.3.9,4.6,1.2,1.8,2.4,2.6,3.7,2.4,1.3-.2,2.4-.7,3.4-1.7.3-.3.5-.6.8-.8s.4-.6.6-1l.3-.3c.6-.6,1.2-1.1,1.6-1.5.5-.4.9-.7,1.3-.8,0,0,.1,0,.1,0,0,0,0,0,.1,0,.5.9,1.1,1.7,1.7,2.5.6.8,1.1,1.6,1.6,2.4,3.5,5.1,6.8,10.1,9.9,14.8,3.1,4.7,6.2,9.5,9.3,14.4,1.6,2.5,3.3,5.2,5,8.1,1.8,2.8,3.5,5.8,5.4,8.9-.6.3-1.1.7-1.5,1.1l-1.1,1.1c-1.4,1.4-2.2,2.9-2.2,4.6,0,1.7.3,3,1,4.1.3.6.9,1.1,1.7,1.6.8.5,1.6.8,2.5.8l-1.2-.5c-.4-.2-.6-.8-.5-1.7l3.9.5-.2.2s.1-.1.3-.2c.1,0,.2-.1.3-.2.9-1.1,1.7-2.1,2.6-2.9s1.7-1.8,2.5-2.5c2.2-2.1,4.3-4.1,6.5-5.9,2.2-1.8,4.1-3.1,5.8-3.8,1.4-1.9,2.2-3.5,2.3-5,0-1.4-.3-2.8-1.1-4.1-.6-1-1.6-1.7-3-2.1-1.3-.4-2.6,0-4,1.4l-.8.8c-.1.1-.2.3-.4.5-.1.2-.3.4-.6.6l-5,5c-.8-1.2-1.5-2.2-2.1-3.2-.6-.9-1.1-1.8-1.7-2.7-.5-.9-1-1.7-1.6-2.6s-1.2-1.8-1.8-2.8l-2-3.2c-1.2-1.9-2.3-3.8-3.4-5.6-1.1-1.9-2.2-3.7-3.4-5.6-1.3-2.2-2.6-4.4-3.9-6.7-1.3-2.2-2.8-4.6-4.4-7.2-.6-.9-1.5-2.3-2.7-4-1.2-1.7-2.4-3.5-3.6-5.3,1.9.2,3.6.6,5.2,1.1s2.9,1.1,4.1,1.6c3.8,1.7,7.8,3.9,12,6.5,4.3,2.6,8.3,5.1,12,7.5,1.1.8,2.2,1.5,3.3,2.3s2.2,1.4,3.1,2c2,1.2,4,2.4,6,3.4,2,1.1,4.2,2,6.4,2.8,2.2.8,4.5,1.2,6.9,1.4,2.4.2,4.9,0,7.4-.6l.5-.5c.5-.2,1-.5,1.5-1,.8-.8,1.4-1.9,1.8-3.4.4-1.5.2-3.1-.6-4.8-1.7-2.2-3.8-5.1-6.3-8.6h0Z"></path><path d="M1172.4,691.2c-.5-.4-1-.6-1.5-.7s-1.1-.1-1.7,0c-.6.1-1.2.6-1.7,1.2-.6.8-1.2,2.1-1.8,3.8h0c-.3.6-.6,1.2-.9,1.9s-.6,1.3-1,1.8c-2.1-2-3.9-4-5.6-5.9-1.7-1.9-3-3.6-4.2-5-3.2-3.8-6.2-7.6-9.1-11.5-2.9-3.8-5.8-7.7-8.8-11.8-2.2-3-4.3-5.8-6.4-8.5s-4.2-5.5-6.6-8.5c2.1-2.7,4.2-5.1,6.2-7.3,2-2.1,4.2-4.2,6.4-6.2.2.4.5.7.7,1.1s.5.7.7,1c.2.6.7,1.4,1.3,2.4,1.1,1.4,2.4,2.1,3.7,1.9,1.3-.2,2.4-.8,3.3-1.9.7-.9,1.3-1.8,1.5-2.6.3-.8.3-1.6.2-2.4-.2-.8-.6-1.7-1.1-2.6-.6-.9-1.4-2-2.4-3.2-.6-.8-1.4-1.7-2.2-2.5-.8-.9-1.8-1.6-2.7-2.2-1-.6-2-.9-2.9-.9s-2,.2-3,.9c-.3.3-.6.5-.8.7-.2.2-.5.4-.7.6l-.2.3s-.2.1-.3.2l-1.6,2.1c-.9,1.1-1.9,2.3-2.9,3.6s-2,2.4-3,3.5c-1,1.1-2,2.3-3,3.6-1,1.2-2,2.4-2.8,3.5l-7,8.9c-.7.9-1.4,1.8-1.9,2.4-.5.7-1.1,1.3-1.6,1.9-.4.6-.9,1.1-1.3,1.6-.5.5-.9,1.1-1.5,1.8l-3.7,4.7c-.4.5-.7.9-1,1.1-.2.3-.5.5-.8.9s-.6.6-.8.9c-1.1,1.4-1.9,2.9-2.3,4.6s-.2,3.7.9,6l1.7,2.1c.5,0,.9,0,1.3,0s.7,0,.9.2.3.3.4.5c.1.2.3.5.4.8.2.6.5,1.1.8,1.4.3.4.6.7.9,1.1,2.8,1.4,4.9,1.2,6.2-.6.7-.9,1.2-2.2,1.3-3.9.1-1.6-.3-3.4-1.3-5.3-1.8-.5-3-1.1-3.7-1.9,1.5-2,2.8-3.7,4-5.2s2.4-3,3.7-4.7,2.5-3.2,3.5-4.5c.6.7,1.1,1.2,1.5,1.5s.8.8,1.2,1.3c.4.3.7.6.9.9.3.3.5.6.8.9l.5.5c.2.3.3.5.3.6,0,.1.2.2.3.3.3.5.7,1,1.2,1.5s.9,1,1.4,1.5c.4.5.8,1,1.3,1.4.5.4.9.9,1.3,1.4,2.4,3,4.8,6.1,7.1,9.1,2.3,3,4.6,6.1,7,9.3,2.4,3.3,4.7,6.6,7.1,9.8s5,6.6,7.7,9.8l.7.8-.2.2c-.3.2-.7.4-1,.8-.4.4-1.1,1.3-2.3,2.7s-1.7,3-1.6,4.6c0,1.6.6,2.9,1.5,4.1,1.6,2,3.9,1.9,7-.1.4-1.2.9-2.4,1.7-3.6.8-1.1,1.5-2.2,2.2-3,.4-.5.8-.9,1.1-1.3s.7-.8,1.1-1.3c.5-.5.9-1,1.3-1.5s.9-1.1,1.3-1.6l1.6-2c1.9-2.4,3.3-4.7,4.2-6.9.9-2.2.6-4.3-1-6.1-.3-.3-.6-.6-1.1-1h0Z"></path><path d="M1231,602c-1-1-2.2-1.4-3.5-1.4-1.3,0-2.6.9-3.8,2.4-.2.6-.4,1.1-.6,1.5-.2.4-.3.7-.5,1.1-.1.3-.2.6-.4.9s-.3.6-.4.9c-2.5-1.4-4.9-2.5-7.2-3.4-2.3-.9-4.5-1.7-6.7-2.6-1.4-.5-2.8-1-4.1-1.4-1.3-.5-2.7-1.1-4.2-1.8-4.3-1.6-8.5-3.4-12.6-5.3-4.1-1.9-8.3-3.8-12.6-5.8-.8-.3-1.6-.7-2.2-1.1s-1.4-.8-2.2-1.1c-.2,0-.6-.2-1.1-.5-1.3-.6-2.6-1.1-3.9-1.7-1.3-.5-2.7-.9-4-1-1.3-.1-2.7,0-4,.5-1.3.5-2.6,1.4-3.8,2.8,1.2,2.6,2.4,5,3.6,7.2s2.3,4.2,3.5,6l3,5.1h-.1c1.9,3.6,3.6,7.2,5.2,10.7,1.6,3.6,3.3,7.2,5,11,2.6,5.7,5.2,11.3,7.9,17,2.7,5.7,5.7,11.4,9,17.2-.3.3-.4.5-.5.6,0,0-.4.5-1,1.2,0,.1-.2.4-.5.6s-.4.5-.5.6c-.6,1.8-.7,3.5-.3,5.1.4,1.6,1,2.8,1.9,3.6,1,1,2,1.4,3.2,1.4,1.2,0,2.5-.7,3.9-1.9.3-.9.6-1.9,1.1-3.1.5-1.2,1-2.3,1.4-3.2.4-.2.8-.6,1.2-1.4.4-.7.7-1.5.7-2.4,0-.1.2-.2.2-.3s.2-.1.2-.3l.3-.4c.3-.4.7-.8,1.1-1.3.4-.5,1-.9,1.6-1.1.4-.2.8-.6,1.3-1.5,1-1.6,1.2-3.2.8-4.8-.4-1.6-1.2-3-2.4-4.2-2.9-2.8-5.4-2.4-7.5,1.2,0,0,0,.2,0,.2s0,.2-.1.3c0,0,0,.2-.1.3,0,.2-.1.3-.3.5-1.1-2-2.4-4.2-3.7-6.7-1.3-2.5-2.6-4.9-3.7-7.3-.3-.4-.6-1-.9-1.7-.4-.7-.6-1.3-.8-1.7l.6-1c.5-.8,1-1.8,1.7-2.9.6-1.1,1.1-2.1,1.6-2.9.5-1,1-2,1.6-3.1s1.2-2.2,1.8-3.3l.8-1.3c0-.1.3-.4.6-.8.3-.4.7-.9,1-1.4.6-.7,1.2-1.6,1.9-2.5.6-.9,1.2-1.8,1.7-2.5.6.3.9.4,1,.5s.4.3.9.6c2.3.7,4.5,1.3,6.4,2.1,2,.7,4,1.8,6.1,3.1-.1.8-.2,1.6-.3,2.5-.1.9-.1,1.9,0,2.8,0,1,.2,1.8.4,2.6.2.8.6,1.4,1.1,1.9.9.8,2,1.4,3,1.6s2.1-.2,3-1.3l.6-.6c.4-.6.7-1.2,1.1-1.7s.7-1,1.1-1.6c.5-.6,1-1.3,1.4-2,.5-.7.9-1.4,1.3-2.1l.6-.9c.6-.6,1-1.3,1.5-2,.5-.8,1-1.7,1.7-2.8l1.2-2.1c.9-1.5,1.2-3.1.8-4.9-.4-1.7-1.1-3.1-2.1-4.1h0c0,0,0,0,0,0ZM1187.8,610.4c-.7,1.1-1.5,2.5-2.5,4.2-.6,1-1.2,1.9-1.8,2.9-.6,1-1.2,1.9-1.9,2.7,0,.1-.2.2-.2.3,0,0-.2.1-.2.3-.1-.3-.1-.4,0-.3-.3-.7-.6-1.3-1-1.9s-.6-1.2-1-1.9c-1.4-3-2.8-6-4.3-9.2s-3-6.2-4.6-9.1h-.1c-.1-.3-.4-.8-.9-1.5-.5-.7-1-1.4-1.5-2.3,2.7,1.1,5.2,2.4,7.6,3.6,2.4,1.3,4.7,2.4,6.9,3.3,1.4.7,2.6,1.4,3.8,2,1.2.6,2.3,1.1,3.4,1.6.2,0,.3,0,.4.2,0,.1.2.2.3.3-1,2-1.8,3.6-2.4,4.7h0Z"></path><path d="M1246.6,568.1c-2.7-2.1-5-1.2-6.9,2.8-.3.6-.4,1.2-.4,1.9,0,0-.2,0-.3.3,0,.3-.1.7-.3,1.3-2.2-1.4-4.4-3-6.8-4.8-2.4-1.8-4.9-3.8-7.5-5.8-2.3-1.7-4.6-3.6-6.9-5.5-2.3-1.9-4.7-3.9-7-5.8-2.3-1.9-4.5-3.8-6.7-5.6-2.2-1.9-4.1-3.6-6-5.2-2-1.7-3.8-3.2-5.3-4.5s-2.7-2.2-3.4-2.8c.8-1.1,1.9-2.2,3.4-3.2l.6-1.3c.8-1.6,1-3.2.6-4.8-.4-1.6-1.2-2.9-2.4-3.8-1.2-.9-2.2-1.3-3.1-1.3-.9,0-1.6.4-2.3,1-.7.6-1.3,1.4-1.8,2.3s-.9,1.8-1.4,2.7c0,.2-.1.3-.2.5,0,.2,0,.3-.2.5l-1.3,2.6c-.2.5-.4,1.1-.6,1.6-.3.5-.5.9-.6,1.3l-1.5,3.1c-.3.6-.6,1.1-.8,1.6s-.5,1-.8,1.5l-.8,1.6c0,.2-.1.2-.2.3,0,0-.1,0-.1.1-1,2.1-1.4,3.9-1.1,5.4.3,1.5,1.2,2.8,2.6,4,1.2.9,2.4,1.3,3.7,1.1,1.3-.2,2.3-1.2,3.2-3,.3-.6.5-1.6.8-3,.8.5,1.8,1.1,3,1.9,1.2.8,2.5,1.7,3.8,2.6,1.3,1,2.7,1.9,4,2.9,1.3,1,2.4,1.8,3.4,2.6,3.5,2.7,7.2,5.6,10.9,8.7,3.7,3.1,7.3,6.1,10.6,8.9,2.5,2.2,4.9,4.2,7.1,6,2.2,1.8,4.2,3.4,6,4.8,0,.2-.2.4-.4.6-.2.3-.4.7-.6,1.2-.9,1.9-1.3,3.6-1.2,5.2s1,3,2.6,4.3c2.6,2,4.7,1.4,6.4-1.6.2-.3.4-.6.6-1,.2-.4.4-.9.7-1.5.6-1.3,1.2-2.6,1.8-4s1-2.6,1.4-3.7c.4-1,.7-1.8,1-2.5.3-.7.6-1.4.9-2,.1-.3.3-.6.4-.8s.5-.6,1-1.1c.5-1.8.5-3.6,0-5.2-.4-1.7-1-2.8-1.9-3.5h0Z"></path><path d="M1278.2,491c-2.5-1.3-5.6-3-9.4-5.2-3.7-2.2-7.8-4.5-12.1-7.2-4.3-2.6-8.7-5.3-13.2-8.1-4.4-2.8-8.7-5.5-12.7-8l-10.3-6.7c.2-.2.3-.4.4-.7s.2-.4.2-.5c.6-1.7.8-3.4.4-5.2-.3-1.8-1.2-3.2-2.8-4.2-1.3-.9-2.6-1.1-3.8-.7s-2.2,1.5-2.7,3c0,.2,0,.3,0,.3s0,.2,0,.3c-.1.3-.3.8-.5,1.6-.2.8-.5,1.7-.8,2.8-.4,1.6-.9,3.2-1.4,4.9-.5,1.7-1.1,3.2-1.5,4.4-.1.4-.3.7-.4,1-.2.3-.4.6-.8,1-.2,2.4,0,4.3.5,5.7.6,1.4,1.3,2.4,2.3,3,.9.6,1.9.8,3,.7s2.1-.9,3-2.5c0-1.7.3-3.6.7-5.6,2.1,1.3,4,2.5,5.8,3.7,1.8,1.1,3.6,2.2,5.4,3.3,1.8,1,3.5,2.1,5.3,3,1.7,1,3.5,2,5.3,3.2,3.7,2.2,7.4,4.4,11.1,6.6,3.6,2.2,7.4,4.5,11.2,7l5.1,3.3c-3.7,1.1-7.1,1.5-10.1,1.2-3-.3-6-.7-9.1-1.3-1.1-.2-2.1-.4-3.2-.6-1-.2-2.1-.3-3.3-.4h.1c-3-.3-6.2-.6-9.6-.9-3.4-.3-6.8-.5-10.2-.6-3.4,0-6.8,0-10.1.3s-6.5.9-9.4,1.8c-1.4.4-2.7,1.2-3.9,2.5-1.2,1.2-2.3,2.6-3.3,4.1-1,1.5-1.9,3.1-2.6,4.7-.7,1.6-1.3,3-1.8,4.2v.3c-.4.3-.6.5-.6.7s-.2.4-.2.6c-.5,1.4-.5,2.9,0,4.6.6,1.6,1.5,2.9,2.8,3.8,1.8,1.1,3.3,1.3,4.4.6,1.1-.7,1.9-1.7,2.4-3,.1-.4.3-.7.4-1.1,0-.4.1-.7.1-1.2l.2-.5c.3-.8.6-1.5.8-2.1.3-.6.6-1,.9-1.3,0,0,.1,0,.1,0,0,0,0,0,.1,0,.9.6,1.7,1.1,2.6,1.6.9.5,1.7,1,2.5,1.6,5.3,3.2,10.4,6.3,15.2,9.3,4.8,3,9.6,6,14.5,9.1,2.5,1.6,5.2,3.4,8,5.2s5.7,3.8,8.6,5.8c-.4.5-.7,1.1-.9,1.7s-.4,1.1-.6,1.5c-.7,1.9-.7,3.6,0,5.1.7,1.5,1.6,2.6,2.6,3.3.5.4,1.3.6,2.2.8.9.1,1.8,0,2.6-.4h-1.3c-.5,0-.9-.4-1.1-1.3l3.8-1.1v.2c0,0,0-.2,0-.3s.1-.2.2-.3c.3-1.3.7-2.6,1.1-3.8.4-1.2.8-2.3,1.2-3.3,1.1-2.8,2.2-5.5,3.4-8.1,1.2-2.5,2.4-4.5,3.7-5.9.5-2.3.5-4.1,0-5.5-.5-1.3-1.4-2.4-2.7-3.3-1-.6-2.2-.8-3.6-.6s-2.4,1.2-3,2.9l-.4,1c0,.2-.1.3-.2.6,0,.2-.1.5-.2.8l-2.5,6.6c-1.2-.7-2.3-1.4-3.2-2-.9-.6-1.8-1.2-2.6-1.8-.8-.6-1.7-1.1-2.5-1.7-.9-.5-1.8-1.1-2.8-1.8l-3.2-2.1c-1.9-1.2-3.7-2.4-5.5-3.7-1.8-1.2-3.6-2.4-5.5-3.6-2.1-1.5-4.2-2.9-6.4-4.4s-4.5-3-7-4.7c-.9-.6-2.3-1.4-4.1-2.5s-3.6-2.2-5.5-3.3c1.8-.6,3.5-1,5.2-1.2,1.6-.2,3.1-.3,4.3-.3,4.1,0,8.7.3,13.6.9,5,.6,9.6,1.2,14,1.8,1.3.2,2.6.5,4,.7,1.3.2,2.5.4,3.7.5,2.3.3,4.6.5,6.9.6,2.3.1,4.6,0,6.9-.2,2.3-.2,4.6-.8,6.9-1.6,2.3-.8,4.4-2,6.5-3.7l.3-.7c.4-.4.7-.9,1-1.6.4-1,.4-2.3.1-3.9s-1.2-2.9-2.6-4.1h0Z"></path><path d="M1293.2,407.4c-1.4-2.5-2.8-4.5-4-6.3s-2-2.7-2.2-2.8c-1.6-.8-3-.9-4.1-.2s-1.8,1.8-2.2,3.3c-.4,1.5,0,3.2,1.2,5.2s2.5,4.1,4,6.5c1.2,1.8,2.3,3.5,3.3,5.1,1,1.7,1.7,3,2.1,4.1h0c0,.3,0,1-.3,1.9s-.5,2-.7,3l-.2.9c-.9,3.7-1.8,7.1-2.6,10.1-.8,3-1.7,6-2.5,9-3.2-1.3-6.2-2.5-9-3.7-2.8-1.2-5.5-2.3-8.1-3.5-2.6-1.1-5.3-2.3-8-3.5-2.7-1.2-5.5-2.6-8.4-4,.3-1.4.5-2.5.6-3.3s.3-1.5.5-2.1.3-1.2.5-1.9.4-1.5.6-2.6c.3-1.3.6-2.6.9-3.9s.7-2.7,1.3-4.2l.5.3c.9.5,1.9.9,2.8,1.3.9.4,1.8.6,2.7.6.8,0,1.6-.2,2.2-.6.6-.5,1.1-1.4,1.4-2.7.4-1.5-.3-3.3-1.9-5.4-1.6-2.1-4-4.3-7.1-6.6.5.6,1,1.1,1.4,1.6.4.4.8.8,1.2,1.2s.8.7,1.2.8c-.1-.1-.4-.2-.7-.3-.1,0-.3,0-.4-.1,0,0,0,0,0,0h-.1c0,0-.1-.1-.1-.1,0,0-.1-.1-.2-.1-.2,0-.4,0-.5-.1-.3.1-.6,0-1.1-.3l-.7-.3c-1.3-.6-2.5-1.3-3.6-2.1-.6-.3-1.1-.6-1.6-.9-.5-.3-1.3-.7-2.5-1.3-3.9-1.9-6.3-1.1-7.2,2.5-.3,1.1-.2,2.2.1,3.4.4,1.2,1.1,2.4,2.3,3.5l.8-2-.5,2.1s.1,0,.1.2,0,.1.1.2l1.1.5c.2.1.4.2.6.2s.3,0,.4.2c-.7,3-1.5,6-2.2,9-.7,3-1.4,5.9-2,8.9-2.1-1-3.8-1.9-5.3-2.6-1.4-.8-2.7-1.4-3.7-2.1-1-.6-2-1.2-2.8-1.7-.8-.5-1.7-1.1-2.6-1.7h-.1s.6-2.4.6-2.4c.3-1.1.6-2.5,1-4.3.4-1.8.8-3.4,1.1-4.9.4-2,.8-4,1.3-5.9.4-1.9.9-3.8,1.3-5.6l.5-1.9.5-2.1.3.2c.5.4,1.1.8,1.9,1.2.6.3,1.4.6,2.3.9.9.3,1.8.4,2.7.4.9,0,1.7-.3,2.4-.8.7-.5,1.2-1.4,1.6-2.7.9-3.6-.4-6.1-3.8-7.7-.3-.3-.6-.4-.9-.3-.2,0-.5,0-.7,0l-.8-.5c-.3,0-.6-.2-.8-.3s-.5-.2-.9-.4l-1.4-.7-.4-.3c-3-1.4-5.3-1.5-6.7-.5-1.5,1.1-2.6,3.2-3.4,6.4-.4,1.6-.6,2.8-.8,3.7-.1.9-.2,1.6-.3,2.3,0,.3,0,.5,0,.6h0c0,.1-2,8.4-2,8.4-1,4.1-2,8.1-3,11.9-1,3.8-2.1,7.6-3.4,11.5v.4c-.3.3-.4.5-.5.6-.3.4-.4.7-.6,1-.1.3-.2.7-.4,1.2-.4,1.6-.3,3.4.2,5.2.5,1.8,1.7,3.2,3.6,4,1.3.7,2.6.7,3.8.1s1.9-1.6,2.3-3.1c.2-.8.3-1.4.3-1.8.1,0,.2-.2.2-.4s0-.4,0-.5l.7-2.7c3.3,1.6,6.4,3.2,9.4,4.6,3,1.4,6.4,3,10.2,4.9,4,1.9,8,3.8,11.9,5.7,4,2,7.8,3.8,11.5,5.6.5.3,1,.5,1.4.8.5.2.9.5,1.3.6l10.3,5.1c-.2.8-.5,1.7-.9,2.8-.4,1.1-1,2.7-1.8,4.7,0,1.9.4,3.5,1.2,4.8.8,1.3,1.7,2.2,2.7,2.8,2.8,1.3,4.8.6,6-2,.7-2.2,1.3-4.4,1.9-6.5.5-2.1,1-3.8,1.3-5.1.5-1.9.8-3.6,1.1-4.8.3-1.2.5-2.5.6-3.8h0c.2-1.5.5-3.2.9-5.2.4-1.9,1-4.5,1.8-7.8,0-.2.1-.4.2-.5s.1-.2.2-.4l.6-2.6c.2-.6.5-1.3.7-2.3.2-.9.4-1.7.6-2.3.3-1.1.5-2.3.7-3.5.2-1.3.4-2.6.4-4-.4-1.9-1.3-4.2-2.6-6.9-1.3-2.7-2.7-5.2-4.1-7.7h0Z"></path><path d="M1259.2,404.8c-.2-.1-.3-.2-.4-.2,0,0,.1,0,.2.1,0,0,.1,0,.1,0h0Z"></path><path d="M1313.5,325.2s0,0,0-.4.1-.7.2-1.2c0-.5.2-.9.2-1.4,0-.4.1-.8.1-1h0c.4-1.4.6-3.2.8-5.4-.3-1.6-.9-3.2-1.9-4.6-1-1.4-2-2.2-3-2.5-1.3-.4-2.6-.3-4,.5-1.4.7-2.2,2.3-2.4,4.6,0,.3,0,.7,0,1.1s0,.7,0,1c0,.3,0,.7,0,1.3-3.6,3.8-7.5,6.8-11.7,9s-8.5,4.2-12.9,6.2c-1.2.5-2.4,1.1-3.6,1.6-1.2.5-2.4,1-3.6,1.6-.8-3-1.7-5.8-2.9-8.4-1.2-2.7-2.5-5.1-4.1-7.3-1.5-2.2-3.2-4-5.1-5.6-1.9-1.6-3.9-2.7-6.1-3.3-2.1-.7-4.3-.9-6.5-.7-2.2.2-4.6.9-7,2.1-1.6.5-3,2.2-4.3,5s-2.3,6.1-3.2,10c-.9,3.9-1.6,8-2.1,12.4-.6,4.3-1,8.3-1.3,11.8-.3,3.4-.4,6.5-.3,9.2,0,2.7.7,4.8,1.9,6.3.8,1.2,1.8,2,3.1,2.3,1.3.4,2.5.3,3.7-.4,1.2-.7,1.9-2.2,2.1-4.5,0-.4,0-.8-.1-1.2s0-.8-.1-1.3c0-.3,0-.5,0-.6s0-.2,0-.4c1.4.5,2.6,1,3.6,1.3s2.1.7,3.1,1,2,.6,2.9,1c1,.3,2.1.7,3.3,1,2.2.7,4.5,1.3,6.8,2,2.3.7,4.6,1.3,6.8,1.9,3.1.6,6.3,1.3,9.6,2.3,3.4,1,6.7,2,10,3.1l2.5.7c1.4.5,3.1,1.1,5.1,1.7,2,.6,3.8,1.2,5.6,1.9-.1.6-.2,1.1-.3,1.8s-.1,1.2-.1,1.7c0,1-.1,1.9,0,2.8s.2,1.8.5,2.6.8,1.6,1.4,2.2,1.6,1.2,2.8,1.5c3.4,1.1,5.3-.5,5.6-4.7-.1-.3-.2-.6-.2-.9s0-.5-.3-.7v-.6c0-.8,0-1.5.1-2s.1-1.2.2-1.8v-.7c.2-1.4.4-2.7.6-4,.2-1.3.6-2.8,1-4.6h0c.2-.5.4-1.2.5-2.1.2-.8.3-1.7.6-2.5-.2-1.7-.7-3.2-1.7-4.5s-2-2.1-3.2-2.6c-1.1-.3-2.3-.2-3.4.3-1.1.6-1.9,1.7-2.3,3.3,0,1-.1,1.6,0,1.8,0,.2,0,.6.1,1s0,.8.1,1.2c0,.4,0,.9,0,1.5-4.8-1.4-9.4-2.8-13.8-3.9-4.4-1.2-9.2-2.3-14.1-3.5,0-2,.2-4.2.4-6.6.2-2.4.3-4.6.3-6.5,2.5-1.6,5.1-3.1,7.5-4.4s5.1-2.7,7.8-4.2c2.5-1.4,5.2-2.8,8-4.3,2.8-1.5,5.4-3,7.9-4.6.5,1.3,1.1,2.4,1.9,3.1s1.6,1.2,2.4,1.5c1.2.3,2.3.2,3.3-.4,1-.6,1.7-1.6,2.2-2.9-.3-1.4-.5-2.6-.6-3.8-.1-1.1-.2-2.1-.2-3h0s0,0,0,0ZM1263.1,349.7c-.1,1.4-.3,2.8-.4,4.1-.2,1.3-.4,2.6-.6,4-3.4-1.3-6.5-2.5-9.2-3.5s-5.8-2.2-9.2-3.5c-.6-.2-1.3-.5-2-.7-.7-.3-1.4-.5-2-.7,0-.6.1-1.3.2-2,0-.7,0-1.3,0-1.9,0-.9.1-1.7.1-2.3,0-.7,0-1.4.1-2.1.2-2.2.4-4.6.8-7.2.3-2.7,1-5.1,1.9-7.2.9-2.1,2.2-3.8,3.9-4.9,1.7-1.1,4-1.2,6.9-.3,2.3.7,4.1,2,5.5,4,1.4,2,2.4,4.2,3.1,6.8.7,2.6,1.1,5.4,1.2,8.5.1,3.1,0,6-.2,8.9h0Z"></path><path d="M732,789c-.6.2-1.2.5-1.7,1,0,0-.2,0-.4,0-.2.2-.6.4-1.2.7-.5-2.5-.8-5.3-1.1-8.3-.3-3-.6-6.1-.9-9.5-.3-2.8-.5-5.8-.7-8.8-.2-3-.4-6-.5-9-.2-3-.3-5.9-.5-8.7-.1-2.8-.2-5.5-.3-7.9-.2-2.6-.3-5-.3-7,0-2-.2-3.5-.3-4.4,1.4-.2,2.9,0,4.6.3l1.4-.4c1.7-.5,3-1.5,3.9-2.8.9-1.4,1.3-2.8,1.2-4.3-.1-1.5-.5-2.5-1.1-3.1-.6-.6-1.4-.9-2.3-1s-1.9,0-2.9.3c-1,.3-2,.6-2.9.8-.2,0-.3.1-.4.2s-.3.2-.4.2l-2.7.9c-.5.2-1,.4-1.6.6-.5.2-1,.3-1.4.4l-3.3,1c-.6.2-1.2.4-1.7.5-.6.1-1.1.3-1.6.4l-1.7.5c-.2,0-.3,0-.3,0,0,0-.1,0-.2,0-2.2.7-3.8,1.7-4.7,2.9-.9,1.3-1.3,2.8-1.1,4.6.1,1.5.7,2.6,1.7,3.4,1,.8,2.5.9,4.4.3.6-.2,1.5-.7,2.7-1.4.2.9.4,2.1.7,3.5.2,1.4.5,3,.7,4.6.2,1.6.4,3.3.6,4.9.2,1.6.3,3,.4,4.2.4,4.4.8,9,1,13.9.3,4.9.5,9.5.8,13.8.1,3.4.3,6.5.5,9.3.2,2.8.4,5.4.6,7.7-.2,0-.4.1-.7.2-.3,0-.7.2-1.3.3-2,.6-3.5,1.5-4.6,2.7-1.1,1.2-1.5,2.8-1.3,4.9.3,3.2,2.2,4.4,5.5,3.6.3,0,.7-.1,1.1-.2s.9-.3,1.6-.5c1.4-.4,2.8-.9,4.1-1.4,1.4-.5,2.6-1,3.6-1.5,1-.4,1.8-.7,2.5-1,.7-.3,1.4-.5,2.1-.7.3-.1.6-.2.9-.2.3,0,.8,0,1.4,0,1.7-.9,2.9-2.1,3.9-3.5.9-1.4,1.4-2.7,1.3-3.8-.3-3.4-2.6-4.4-6.8-3.1h0s0,0,0,0Z"></path><path d="M815.6,737.1c-1-4.9-2-10-3-15.2-1-5.2-1.9-10.1-2.8-14.8l-2.1-12.1c.3,0,.5,0,.8-.2.3-.1.4-.2.5-.2,1.6-.7,3-1.7,4.1-3.2,1.1-1.4,1.5-3.1,1.2-4.9-.2-1.6-.9-2.7-2.1-3.3-1.2-.6-2.5-.6-4,0-.2,0-.2.1-.3.2s-.1.1-.3.2c-.3.1-.8.4-1.5.7s-1.6.8-2.6,1.3c-1.4.8-2.9,1.5-4.5,2.2s-3,1.4-4.3,1.9c-.4.2-.7.3-1,.4-.3,0-.7.1-1.3,0-1.9,1.5-3.2,2.9-3.8,4.3-.6,1.4-.9,2.6-.7,3.7.2,1.1.7,2,1.5,2.7.8.7,2.1.9,3.9.5,1.3-1.1,2.8-2.2,4.6-3.3.5,2.4.9,4.7,1.3,6.8.4,2.1.8,4.2,1.2,6.1.4,2,.9,4,1.3,5.9.5,2,.9,4,1.3,6.1,1,4.2,1.9,8.4,2.7,12.6.9,4.2,1.7,8.5,2.5,12.9l1,6c-3.3-2-5.9-4.2-7.7-6.6-1.8-2.4-3.6-4.9-5.3-7.5-.6-.9-1.1-1.9-1.7-2.7-.6-.9-1.2-1.8-1.9-2.7h0c-1.8-2.3-3.7-4.9-5.8-7.6-2.1-2.7-4.3-5.3-6.6-7.9-2.3-2.5-4.6-4.9-7.1-7.2-2.5-2.2-5-4.1-7.7-5.6-1.3-.7-2.7-1.1-4.4-1.2-1.7,0-3.5,0-5.3.3-1.8.3-3.5.7-5.2,1.3-1.7.6-3.1,1.1-4.3,1.6h-.3c-.4.1-.6.1-.9.2-.2,0-.4.2-.6.2-1.4.6-2.5,1.6-3.3,3.1-.8,1.5-1.1,3-.9,4.6.4,2.1,1.3,3.3,2.5,3.6s2.5.2,3.8-.3c.4-.2.7-.3,1-.5s.6-.4.9-.7l.4-.2c.8-.3,1.5-.6,2.1-.8.6-.2,1.1-.3,1.6-.2,0,0,0,.1.1,0s0,0,.1,0c.2,1,.4,2,.6,3,.2,1,.4,1.9.5,2.9,1.3,6.1,2.5,11.9,3.5,17.4,1.1,5.5,2.1,11.1,3.2,16.8.5,3,1.1,6.1,1.6,9.4.5,3.3,1.1,6.7,1.6,10.3-.7.1-1.3.3-1.8.5s-1.1.4-1.5.6c-1.9.8-3.1,1.9-3.8,3.4-.7,1.5-.9,2.9-.6,4.2,0,.6.4,1.3.9,2.1s1.2,1.3,2.1,1.7l-.9-.9c-.3-.4-.3-.9.2-1.7l3.4,2h-.2c0,0,.2,0,.3,0s.2,0,.3,0c1.2-.7,2.4-1.2,3.5-1.8,1.1-.5,2.2-1,3.3-1.4,2.8-1.2,5.6-2.2,8.2-3,2.7-.9,5-1.3,6.9-1.3,2-1.2,3.4-2.4,4-3.7s.8-2.7.6-4.2c-.2-1.2-.9-2.2-2-3-1.1-.8-2.5-.9-4.2-.2l-1,.4c-.2,0-.3.2-.5.3-.2.1-.5.3-.8.4l-6.6,2.7c-.3-1.4-.6-2.6-.8-3.7-.2-1.1-.4-2.1-.5-3.1-.2-1-.3-2-.5-3-.2-1-.4-2.1-.6-3.3l-.6-3.8c-.4-2.2-.7-4.3-1-6.5-.3-2.1-.7-4.3-1-6.5-.4-2.5-.7-5.1-1.1-7.7-.4-2.6-.8-5.3-1.3-8.3-.2-1.1-.5-2.7-1-4.7-.5-2-.9-4.1-1.4-6.3,1.7.9,3.1,1.9,4.3,3,1.2,1.1,2.3,2.1,3.2,3,2.8,3,5.7,6.6,8.7,10.6,3,4,5.7,7.9,8.3,11.5.7,1.1,1.5,2.2,2.2,3.4s1.5,2.1,2.1,3c1.4,1.9,2.8,3.7,4.3,5.5,1.5,1.8,3.1,3.4,4.9,5,1.8,1.5,3.7,2.8,5.8,3.9,2.1,1.1,4.5,1.9,7.1,2.3l.7-.3c.5,0,1.1,0,1.8-.4,1-.4,2-1.3,2.9-2.5.9-1.3,1.3-2.8,1.2-4.7-.8-2.7-1.6-6.2-2.6-10.4-1-4.2-2-8.8-3-13.7h0c0,0,0,0,0,0Z"></path><path d="M875.9,658v-.5c-.9-2.5-1.7-4.3-2.5-5.5s-1.9-1.8-3.2-1.9c-1.3,0-2.9.4-4.9,1.3-2,1-4.5,2.3-7.5,4l-2.4,1.3c-3.6,2-7,3.9-10.2,5.6-3.2,1.8-6.5,3.4-10,4.9-.7.1-1.3.3-1.9.6l-.5.3c-.5.2-1.1.5-1.8.8-.7.3-1.3.7-2,1-2.4,1.3-4.4,3-6.2,5-1.7,2-2.3,4.2-1.6,6.5.5,1.7,1.4,2.7,2.8,3.1,1.4.4,2.8.2,4.2-.6.6-.3,1.2-.8,1.9-1.5.7-.7,1.3-1.4,2-2.2,4.5,9.7,8.3,19.7,11.4,30.1.8,2.7,1.6,5.6,2.4,8.6.8,2.9,1.6,5.8,2.3,8.5.4,2.1.9,4.1,1.4,6.1.5,2,1.1,4,1.7,5.9-1.5,0-2.9.1-4.1.1-1.2,0-2.1.2-2.8.4s-1,.4-1,.7.5.7,1.3,1.3c-1.2,1-2,2.2-2.3,3.5-.3,1.3-.2,2.6.2,3.8,1,3.3,3.3,4,6.7,2.1l2-1.1c1.3-.7,2.5-1.4,3.8-2,1.3-.6,2.6-1.2,3.9-1.8,1.4-.6,2.8-1.2,4.1-1.8s2.7-1.3,4-2c2.2-1.2,4-2.5,5.2-3.8,1.2-1.3,1.4-3.2.7-5.7-.8-2.8-2.8-3.7-6.2-2.5-.4.2-.8.5-1,.7-.3.3-.6.5-.9.8-.3.3-.7.7-1.2,1.2s-1.4,1.1-2.6,2c-2.2-6-4.1-11.7-6-17.2-1.8-5.5-3.7-11.4-5.6-17.7l-.3-.8,2-1.1c1.6-.9,3.4-1.8,5.3-2.8,1.9-1,4-2,6.4-3,.2.6.3.9.3.8,0,0,0,.1.1.5l.2.8c0,.1.1.3,0,.4s0,.2,0,.4l.2.8c1.1,1.1,2.1,1.7,3.2,1.8,1.1.1,2.1,0,3-.6,1-.5,1.8-1.6,2.6-3,.7-1.5,1.1-3.2,1-5.2-1.5-2.5-2.7-4.9-3.7-7.1-1-2.2-1.9-4.8-2.8-7.6-.7-1.6-1.7-2.5-2.9-2.6s-2.3.1-3.3.7c-1.2.7-2.2,1.7-2.9,3.2-.7,1.5-.9,3.1-.4,4.9v.4c0,0,.2.1.2.1s.1,0,.1.1l3.8-2.5-3.6,2.9c.2.3.3.5.5.8.2.3.4.6.5,1-.3.3-.6.5-.9.6-.3.1-.5.2-.7.3l-1.3.7c-2.9,1.6-6.1,3.2-9.6,4.5-.2-.7-.4-1.2-.5-1.7-.1-.4-.2-.8-.4-1.2-.2-.4-.3-.8-.4-1.2-.1-.4-.3-1-.5-1.8-.5-1.8-1-3.4-1.6-5.1-.5-1.6-1.1-3.3-1.8-5l4.1-2.3c2-1.1,4.1-2.3,6.5-3.6,2.4-1.3,4.6-2.6,6.7-3.7,2.1-1.1,3.9-2.1,5.3-2.8,1.4-.7,2.2-1,2.2-1,.3,1.1.5,2.2.6,3.4,0,1.2.2,2.3.2,3.2,0,.7.2,1.2.2,1.6s0,.8,0,1c.6,1.9,1.5,3,2.7,3.3,1.2.3,2.5.1,3.7-.6,1.3-.7,2.1-1.6,2.6-2.8.5-1.2.7-2.4.7-3.7,0-1.3-.2-2.7-.6-4.1-.3-1.4-.7-2.7-1.1-4h0Z"></path><path d="M928.3,697.5c-1.3-3.2-3.7-3.5-7.4-1.1-.5.4-1,.8-1.3,1.5,0,0-.2,0-.4.1-.2.2-.5.5-.9,1-1.2-2.3-2.3-4.8-3.5-7.6-1.1-2.8-2.3-5.7-3.5-8.8-1.1-2.6-2.2-5.4-3.2-8.2-1-2.8-2.1-5.7-3.1-8.5-1-2.8-2-5.6-2.9-8.3-.9-2.7-1.8-5.2-2.5-7.5-.9-2.5-1.7-4.7-2.3-6.6-.7-1.9-1.2-3.3-1.6-4.1,1.3-.6,2.8-.9,4.5-1.1l1.2-.8c1.5-1,2.4-2.3,2.9-3.9.5-1.6.4-3.1-.1-4.5-.6-1.4-1.2-2.3-2-2.6-.8-.4-1.6-.5-2.5-.3-.9.2-1.8.5-2.7,1.1-.9.6-1.7,1.1-2.5,1.6-.1,0-.3.2-.4.3-.1.1-.2.2-.4.3l-2.4,1.6c-.4.4-.9.7-1.3,1-.5.3-.9.6-1.2.8l-2.9,1.9c-.5.4-1,.7-1.5,1s-1,.6-1.4.9l-1.5,1c-.1,0-.2.1-.3.1,0,0-.1,0-.2,0-1.9,1.3-3.2,2.7-3.7,4.1-.5,1.5-.4,3,.2,4.8.6,1.4,1.4,2.3,2.6,2.8,1.2.5,2.6.1,4.3-1,.5-.4,1.3-1.1,2.2-2.2.5.8,1,1.9,1.6,3.2.6,1.3,1.3,2.7,2,4.2.7,1.5,1.3,3,1.9,4.5.6,1.5,1.2,2.8,1.6,3.9,1.7,4.1,3.4,8.4,5,13,1.6,4.6,3.2,8.9,4.7,13,1.1,3.2,2.1,6.1,3.1,8.8,1,2.6,1.9,5,2.8,7.2-.1,0-.3.2-.6.4-.3.2-.7.4-1.1.7-1.7,1.2-2.9,2.5-3.7,3.9-.7,1.4-.7,3.1.1,5,1.2,3,3.4,3.6,6.4,1.9.3-.1.6-.3,1-.5s.8-.6,1.3-.9c1.2-.8,2.4-1.7,3.6-2.5,1.2-.9,2.2-1.7,3-2.5.8-.6,1.5-1.2,2.1-1.7.6-.5,1.2-.9,1.8-1.3.3-.2.5-.3.8-.5s.7-.3,1.4-.4c1.3-1.3,2.2-2.8,2.7-4.5s.5-3,.1-4h0Z"></path><path d="M911.4,627.8c1.3,0,2.5-.5,3.5-1.4.3-.3.6-.5.8-.8.3-.3.5-.6.7-1l.4-.3c.7-.6,1.3-1,1.8-1.4.5-.4,1-.6,1.4-.6,0,0,0,0,.1,0,0,0,0,0,.1,0,.5.9.9,1.8,1.4,2.7s.9,1.7,1.4,2.6c3,5.4,5.9,10.6,8.6,15.6s5.3,10,8,15.1c1.4,2.7,2.8,5.5,4.3,8.5,1.5,3,3,6.1,4.6,9.4-.6.3-1.1.6-1.6,1-.5.4-.9.7-1.2,1-1.5,1.3-2.4,2.7-2.6,4.4-.2,1.7,0,3,.6,4.2.3.6.8,1.2,1.5,1.8.7.6,1.6.9,2.5,1l-1.1-.6c-.4-.3-.5-.8-.3-1.7l3.9.9-.2.2s.2-.1.3-.2c.1,0,.2-.1.3-.2.9-1,1.9-1.9,2.8-2.7.9-.8,1.8-1.6,2.7-2.3,2.3-2,4.7-3.7,7-5.3,2.3-1.6,4.4-2.7,6.2-3.3,1.6-1.7,2.5-3.3,2.7-4.8.2-1.4,0-2.8-.7-4.2-.6-1-1.5-1.8-2.8-2.3s-2.6-.1-4.1,1l-.8.7c-.1.1-.3.3-.4.4s-.4.4-.6.6l-5.5,4.5c-.7-1.2-1.3-2.3-1.8-3.3s-1-1.9-1.4-2.8-.9-1.8-1.4-2.7c-.5-.9-1-1.9-1.6-2.9l-1.7-3.4c-1-2-2-3.9-2.9-5.9-.9-1.9-1.9-3.9-2.9-5.9-1.1-2.3-2.2-4.7-3.3-7-1.1-2.3-2.4-4.9-3.8-7.5-.5-1-1.3-2.4-2.3-4.2-1-1.8-2.1-3.7-3.2-5.6,1.9.4,3.5.9,5,1.6,1.5.7,2.8,1.3,3.9,1.9,3.6,2.1,7.4,4.6,11.4,7.5s7.8,5.8,11.3,8.5c1,.9,2.1,1.7,3.1,2.5s2,1.6,2.9,2.3c1.9,1.4,3.8,2.7,5.7,3.9s4,2.4,6.1,3.3,4.4,1.6,6.8,2c2.4.4,4.9.4,7.5,0l.6-.5c.5-.1,1-.4,1.6-.9.9-.7,1.6-1.8,2-3.3.5-1.5.4-3.1-.2-4.9-1.5-2.3-3.4-5.4-5.6-9.1-2.2-3.7-4.5-7.8-7-12.2-2.5-4.4-4.9-8.9-7.4-13.6-2.5-4.7-4.8-9.1-7.1-13.3l-5.6-10.9c.2-.1.5-.2.7-.4.2-.2.4-.3.4-.4,1.3-1.1,2.3-2.5,2.9-4.3.6-1.7.5-3.4-.3-5-.7-1.4-1.7-2.3-3-2.5-1.3-.2-2.6.2-3.8,1.2-.1.1-.2.2-.2.2,0,0,0,.1-.2.2-.3.2-.7.6-1.2,1.1-.6.5-1.3,1.2-2.1,2-1.1,1.1-2.4,2.3-3.7,3.5-1.3,1.2-2.5,2.2-3.5,3.1-.3.3-.6.5-.9.6-.3.2-.7.3-1.2.5-1.4,2-2.2,3.7-2.4,5.2-.2,1.5,0,2.8.5,3.8.5,1,1.2,1.7,2.2,2.1s2.2.2,3.9-.6c.9-1.4,2-2.9,3.4-4.5,1.2,2.2,2.2,4.2,3.3,6.1,1,1.9,2,3.7,3,5.5s2,3.5,3,5.3c1,1.7,2,3.5,3.1,5.4,2.2,3.7,4.3,7.5,6.4,11.2,2.1,3.7,4.1,7.6,6.2,11.6l2.8,5.4c-3.8-.9-6.9-2.2-9.4-4-2.5-1.8-4.9-3.6-7.2-5.6-.8-.7-1.6-1.4-2.5-2.1-.8-.7-1.7-1.3-2.6-2h0c-2.4-1.7-5.1-3.6-7.9-5.5s-5.7-3.8-8.6-5.5c-2.9-1.8-5.9-3.3-8.9-4.7s-6-2.4-9-3.1c-1.4-.3-2.9-.3-4.6.2-1.7.5-3.3,1.1-4.9,1.9-1.6.8-3.2,1.7-4.6,2.8-1.4,1-2.6,2-3.6,2.8l-.3.2c-.4,0-.6.2-.8.4s-.3.3-.5.4c-1.2,1-1.9,2.3-2.2,4-.3,1.7-.1,3.2.5,4.7,1,1.9,2.2,2.8,3.5,2.7h0Z"></path><path d="M976.9,568.9c1.2.2,2.6-.4,4-1.8.5-.5,1-1.3,1.7-2.6.6.7,1.4,1.6,2.2,2.8.9,1.1,1.8,2.4,2.8,3.7,1,1.3,1.9,2.7,2.8,4,.9,1.3,1.7,2.5,2.4,3.5,2.5,3.7,5,7.6,7.5,11.7,2.5,4.2,5,8.1,7.2,11.7,1.7,2.9,3.3,5.5,4.9,7.9,1.5,2.4,2.9,4.5,4.2,6.4-.1.1-.3.3-.5.5s-.6.5-1,.9c-1.4,1.5-2.4,3-2.8,4.6-.4,1.6,0,3.2,1.1,4.9,1.8,2.7,4,2.9,6.6.6.3-.2.6-.4.9-.7s.7-.7,1.1-1.2c1-1,2-2.1,3-3.2,1-1.1,1.8-2.1,2.5-3,.7-.8,1.3-1.5,1.8-2.1s1-1.1,1.5-1.6c.2-.2.4-.4.7-.6.2-.2.6-.4,1.3-.7,1-1.6,1.6-3.2,1.7-4.9s0-3-.7-4c-1.9-2.8-4.4-2.7-7.4.5-.5.5-.8,1-1,1.7,0,0-.2,0-.3.2-.1.2-.3.6-.7,1.2-1.6-2-3.3-4.3-4.9-6.8-1.7-2.5-3.5-5.1-5.3-7.9-1.6-2.3-3.2-4.8-4.8-7.4-1.6-2.6-3.2-5.1-4.8-7.7-1.6-2.5-3.1-5-4.6-7.5-1.5-2.4-2.8-4.7-4-6.8-1.4-2.2-2.6-4.2-3.6-6-1-1.7-1.8-3-2.4-3.7,1.1-.8,2.5-1.5,4.2-2l1-1c1.2-1.3,1.9-2.7,2.1-4.4.2-1.7-.2-3.1-1-4.4s-1.7-2-2.5-2.2c-.8-.2-1.7-.1-2.5.2-.8.4-1.6.9-2.4,1.6s-1.5,1.4-2.1,2.1c-.1.1-.2.2-.3.4s-.2.3-.3.4l-2,2.1c-.3.5-.7.9-1.1,1.3-.4.4-.7.7-1,1l-2.4,2.5c-.5.5-.9.9-1.3,1.2s-.8.8-1.2,1.2l-1.3,1.3c-.1.1-.2.2-.3.2s-.1,0-.2,0c-1.6,1.7-2.5,3.3-2.7,4.8-.2,1.5.2,3.1,1.2,4.6.8,1.3,1.9,2,3.1,2.2h0c0,0,0,0,0,0Z"></path><path d="M1000.3,542.5c.5,0,.9,0,1.3.1.4,0,.7,0,.9.2s.3.3.4.5c.1.2.3.5.4.8.2.6.5,1.1.8,1.5.3.4.6.8.9,1.1,2.7,1.4,4.8,1.2,6.3-.5.8-.9,1.2-2.2,1.4-3.8.2-1.6-.3-3.4-1.3-5.4-1.8-.5-3-1.1-3.7-1.9,1.5-2,2.8-3.7,4-5.2,1.2-1.5,2.4-3,3.8-4.7,1.3-1.7,2.5-3.1,3.6-4.4.6.7,1,1.2,1.4,1.6.4.4.8.8,1.2,1.3.4.3.7.6.9.9.3.3.5.6.8.9l.5.5c.1.3.2.5.3.6s.2.2.3.3c.3.5.7,1,1.2,1.5s.9,1,1.3,1.5c.4.5.8,1,1.3,1.4.5.5.9.9,1.3,1.4,2.4,3.1,4.7,6.1,6.9,9.2,2.2,3,4.5,6.2,6.9,9.4,2.3,3.3,4.6,6.6,7,9.9,2.4,3.3,4.9,6.6,7.6,9.9l.7.8-.2.2c-.3.2-.7.4-1.1.8-.4.4-1.2,1.2-2.3,2.7-1.2,1.4-1.7,2.9-1.7,4.5,0,1.6.5,2.9,1.4,4.1,1.6,2,3.9,2,7,0,.4-1.2,1-2.4,1.8-3.5.8-1.1,1.5-2.1,2.2-3,.4-.5.8-.9,1.1-1.3.3-.4.7-.8,1.1-1.3.5-.5.9-1,1.4-1.5.5-.6.9-1.1,1.3-1.6l1.6-2c1.9-2.4,3.4-4.7,4.3-6.9,1-2.2.6-4.3-.9-6.2-.3-.3-.6-.6-1.1-1s-.9-.6-1.5-.7c-.5-.1-1.1-.1-1.7,0-.6.1-1.2.5-1.7,1.2-.7.8-1.3,2.1-1.9,3.8h0c-.3.6-.7,1.2-1,1.9s-.7,1.3-1.1,1.8c-2-2.1-3.8-4-5.5-6-1.6-1.9-3-3.6-4.1-5.1-3.1-3.9-6.1-7.8-8.9-11.6s-5.7-7.8-8.6-12c-2.2-3-4.2-5.8-6.3-8.5-2-2.7-4.2-5.6-6.5-8.6,2.2-2.7,4.3-5.1,6.3-7.2,2.1-2.1,4.2-4.1,6.5-6.1.2.4.4.7.7,1.1s.5.7.7,1c.2.6.7,1.4,1.3,2.5,1.1,1.4,2.3,2.1,3.7,2,1.3-.1,2.4-.8,3.3-1.9.8-.9,1.3-1.8,1.6-2.6.3-.8.4-1.6.2-2.4-.2-.8-.5-1.7-1.1-2.6-.6-.9-1.4-2-2.4-3.3-.6-.8-1.4-1.7-2.2-2.6-.8-.9-1.7-1.6-2.7-2.2-1-.6-2-.9-2.9-1-1,0-2,.2-3,.8-.3.3-.6.5-.8.7-.2.2-.5.4-.7.6l-.2.3s-.2.1-.3.2l-1.7,2.1c-.9,1.1-1.9,2.3-3,3.6-1.1,1.2-2.1,2.4-3,3.5-1,1.1-2.1,2.3-3.1,3.5-1,1.2-2,2.4-2.8,3.4l-7.1,8.8c-.8.9-1.4,1.7-1.9,2.4s-1.1,1.3-1.7,1.8c-.5.6-.9,1.1-1.4,1.6-.5.5-1,1.1-1.5,1.8l-3.8,4.7c-.4.5-.7.8-1,1-.2.3-.5.5-.8.9s-.6.6-.8.8c-1.1,1.4-1.9,2.9-2.4,4.6-.5,1.7-.2,3.7.8,6l1.7,2.2h0s0,0,0,0Z"></path><path d="M1052.5,469c.7,1,1.6,1.6,2.6,1.8,1.1.2,2.1-.1,3.1-1.1l.5-.6c.4-.7.6-1.3.8-1.6.2-.4.3-.6.4-.7s.1-.2,0-.2,0,0,0-.1c.2-.6.4-1.2.6-1.6.2-.4.5-1.1.9-2.1,1,.2,2.6.6,4.8,1.4,2.2.8,4.7,1.6,7.6,2.5,3.4,1.1,6.7,2.2,10,3.3,3.3,1,5.8,1.8,7.5,2.2.6.7,1.3,1.6,2.2,2.8.9,1.2,1.9,2.6,3,4,1.1,1.5,2.3,3.1,3.5,4.8,1.2,1.7,2.4,3.3,3.6,5,.9,1.4,1.8,2.7,2.7,4.1.9,1.3,1.7,2.6,2.5,3.9.2.8.4,1.4.7,1.9s.6.9,1,1.3l-1.4,2.4c-1.9,2.1-3,4.1-3.1,5.8-.2,1.8,0,3.2.2,4.2,1.1,1.6,2.2,2.4,3.2,2.5,1,.1,2-.1,3.2-.7l1.1-1.7c0-.4.3-1,.8-2s1.5-2.6,2.9-5c1.2-2,2.6-4.1,4-6.3,1.5-2.2,3-4.2,4.7-5.9.2-2.2,0-4.1-.2-5.8-.3-1.7-.7-3-1.4-3.9-.9-1.3-1.8-1.9-2.9-2-1.1,0-2.2.7-3.4,2.3,0,.5-.2,1.4-.9,2.8-.6,1.4-1.3,2.7-1.9,4.1-1-1.3-2.3-3-3.8-5.3-1.5-2.2-3.3-4.8-5.4-7.8l-3.2-4.5c-.2-.6-.5-1.2-1-1.9l-3.6-5c-1-6-1.7-11.4-2.1-16.2-.4-4.9-.8-9.6-1.2-14.1h0c0,.1-.2-1.6-.2-1.6,0-.5,0-1,0-1.4-.3-3.3-.7-6.8-1-10.5-.3-3.7-.8-7.9-1.5-12.4.2-.3.3-.5.3-.3,0,.1,0,0,.2-.2.4-.5.8-1.1,1.2-1.8.4-.7.9-1.4,1.3-2.2.7-1.2,1.2-2.3,1.4-3.4l.4-.9c-.2-3.2-.7-5.4-1.4-6.5-.9-1.4-2-2.1-3.3-2.1s-2.3.7-3.1,2c-.4.7-.8,1.8-1,3.5-.6,1.8-1.3,3.3-1.9,4.5-.6,1.3-1.3,2.4-1.9,3.4-.6,1-1.2,1.8-1.7,2.5s-1.1,1.4-1.7,2c-.4.4-.7.9-1,1.3-.3.4-.6.9-1,1.6-.4.6-.6,1.3-.8,2.2-.2.8-.2,1.7-.2,2.7s.1,1.9.4,2.7c.3.9.6,1.6,1.1,2.3.9,1.4,1.9,2.1,3.1,2.1,1.2,0,2.2-.7,3-2,.2-.3.3-.5.3-.8.5,2.4.9,4.5,1.2,6.6.3,2,.6,4,.8,5.9.2,1.9.3,3.8.4,5.6.1,1.9.2,3.8.2,5.8l.2,1.9c0,.2.1,1,.2,2.4.1,1.4.2,2.8.2,4.4h0c0,.5.1,1.1.1,1.7,0,.6,0,1.3,0,2.1-1.2-.5-2.6-.8-3.9-1.1s-2.7-.4-4.2-.7h-.4c-1.9-.3-4-.6-6.3-1.1s-4.9-1.4-7.7-2.7l.4-.7c.2-.3.4-.6.6-.8.2-.2.3-.4.4-.6l.7-1.1c.8-1.7,1.1-3.4.9-5.2-.2-1.8-.7-3.3-1.4-4.5-.8-1.1-1.8-1.7-2.9-1.9-1.1-.2-2.3.4-3.6,1.9-.3.8-.7,1.7-1.2,2.8-.5,1.1-1,2.2-1.5,3.4-.5,1.1-1,2.2-1.6,3.2-.5,1-.9,1.8-1.3,2.3l-.4.6c-.1.4-.3.8-.6,1.1-.2.4-.4.6-.5.8-.5.8-1,1.3-1.6,1.6-.6.3-.9.6-.8.8l-1.5,2.9c-.7,1.8-.9,3.5-.7,5.1.2,1.6.7,2.9,1.3,4.1h0s0,0,0,0ZM1096.9,401.5c0-.1,0-.2,0-.2,0,0,0-.1,0-.2v.4l-.3.7-.7-1,1,.3h0Z"></path><path d="M564.2,631.5c.3-1,.5-2.1.8-3.3.2-1.2.3-2.4.2-3.5-.1-1.1-.4-2.1-.9-2.9s-1.3-1.5-2.4-1.9c-.4-.1-.8-.2-1.1-.2s-.6-.1-1-.2h-.4s-.2,0-.4-.2h-2.6c-1.4-.2-3-.3-4.6-.4s-3.2-.2-4.6-.4c-1.5-.2-3.1-.3-4.7-.4s-3.1-.2-4.4-.3l-11.3-.5c-1.2,0-2.2-.1-3.1-.1s-1.7-.1-2.5-.2c-.7,0-1.4,0-2.1-.2-.7,0-1.5-.1-2.3-.2l-6-.3c-.6,0-1.1,0-1.4-.2-.3,0-.7,0-1.1-.1-.4,0-.8-.1-1.1-.1-1.8,0-3.5.2-5.1.8-1.6.6-3.1,2-4.4,4.2l-.7,2.6c.2.4.5.8.7,1.1s.3.6.3.8c0,.2,0,.4-.2.6,0,.2-.2.5-.4.8-.4.5-.6,1-.7,1.5s-.3.9-.4,1.4c.5,3,1.9,4.6,4.1,4.7,1.2,0,2.5-.3,3.9-1.2,1.4-.8,2.6-2.2,3.6-4.2-.6-1.7-.9-3.1-.7-4.1,2.5,0,4.7.1,6.6.2s3.9.2,6,.3,4,.2,5.7.3c-.2.8-.3,1.5-.4,2.1,0,.5-.2,1.1-.4,1.7,0,.5,0,.9-.2,1.3s-.2.8-.3,1.1l-.2.7c-.2.3-.3.5-.3.6s0,.3,0,.4c-.2.5-.4,1.1-.5,1.8-.2.7-.3,1.3-.4,2-.2.6-.3,1.2-.4,1.9s-.2,1.3-.4,1.9c-1,3.8-2.1,7.4-3.3,11-1.1,3.6-2.3,7.3-3.5,11.1-1.3,3.8-2.6,7.7-3.8,11.5-1.3,3.9-2.4,7.9-3.5,12l-.3,1h-.5.2c-.3-.2-.7-.3-1.2-.4s-1.7-.2-3.5-.3c-1.8,0-3.4.4-4.6,1.4-1.2,1-2.1,2.2-2.4,3.6-.7,2.5.7,4.3,4.2,5.7,1.2-.4,2.5-.6,3.9-.7s2.6,0,3.7,0c.6,0,1.2,0,1.7.1.5,0,1,.1,1.7.1.6.1,1.3.2,2,.2s1.4,0,2,0h2.5c3,.3,5.7,0,8.1-.5,2.3-.6,3.8-2,4.4-4.4.1-.4.2-.9.2-1.4s0-1.1-.3-1.7c-.2-.5-.6-1-1-1.4-.5-.4-1.1-.6-2-.7-1,0-2.4.2-4.1.7h.1c-.7.1-1.4.3-2.2.4-.7.2-1.4.2-2.1.2.5-2.8,1-5.5,1.6-8,.6-2.5,1.1-4.6,1.6-6.3,1.3-4.8,2.6-9.5,4-14.1,1.4-4.6,2.9-9.2,4.5-14.1,1.1-3.5,2.2-6.9,3.2-10.1,1-3.2,2-6.7,3-10.3,3.4.2,6.6.4,9.5.8,2.9.4,5.8.9,8.8,1.6-.2.4-.3.8-.5,1.3-.1.5-.3.8-.4,1.1-.4.5-.7,1.4-1.2,2.5-.5,1.8-.3,3.1.6,4.1.9,1,2,1.5,3.5,1.6,1.2,0,2.2,0,3-.3s1.5-.7,2-1.2c.6-.6,1-1.4,1.4-2.4s.8-2.3,1.2-3.8h0,0Z"></path><path d="M640.6,611.3l-.6.2c-1.7.6-3.2,1-4.4,1.1-1.2.1-2.3.2-3.4.3h-1.1c-.9.2-2,.2-3.4.1s-3.5-.3-6.5-.8c-3.8,1.5-6,3.5-6.4,6.1,0,1.1.3,2.1,1.1,3.1.8,1,1.9,1.7,3.4,2,1.1-.2,2-.4,2.8-.6.8-.1,1.4-.2,1.9-.3h.1c-.2,2.4-.5,4.4-.8,5.9-.3,1.5-.6,3.3-.8,5.3l-.5,4.1c-2.1.3-4,.5-5.7.6-1.7.1-3.6.2-5.7.4-3.2.2-6.3.4-9.4.5-3,0-6.3.1-9.6.2h0c.4-2.6.7-5.1.9-7.5.2-2.4.4-4.8.6-7.3h.1c.3.1.6.2,1,.2h1l2.6.4c1.9-.5,3.4-1.4,4.4-2.5s1.6-2.3,1.8-3.5c.2-1.3,0-2.5-.8-3.4-.8-.9-2.1-1.5-4-1.7-1.3.3-2.6.5-3.9.6s-2.7.3-4.1.4c-1.9.2-3.9.2-5.8.3-2,0-3.8-.1-5.4-.5-3.6,1.8-5.6,3.7-5.9,5.9-.2,1.1.2,2.1,1,3.1.8.9,2,1.6,3.6,1.8.6,0,1.1-.1,1.6-.2s1-.2,1.5-.3c.2,0,.2,0,.2,0s0,0,.2,0c-.3,4.7-.6,8.9-.8,12.6-.3,3.7-.6,7.1-.8,10.2-.3,3.1-.6,6-.9,8.8s-.7,5.5-1,8.1c-.7,4.7-1.4,9-2.2,12.8-.8,3.8-1.6,7.5-2.4,11.1l-5.3.3c-3.7,1.2-5.7,3-6,5.5-.3,1.4-.1,2.6.6,3.5s1.9,1.5,3.8,1.6c.4,0,.8-.1,1.1-.2.3-.1.6-.2,1-.2s.7,0,1-.2l2.7-.6,5.6-1.2c1.1,0,2.2.1,3.2.1,1,0,2.1,0,3.5-.2l5.1.9c1.9-.4,3.3-1.1,4.3-2.2s1.6-2.2,1.8-3.4c.2-1.4,0-2.5-.5-3.2-.5-.7-1.3-1.2-2.3-1.4s-2.2-.3-3.5-.3c-1.3,0-2.7.1-4,.3h-1.7c.2-1,.3-1.9.4-2.5s.2-1.5.3-2.4c.3-1.7.5-3.4.8-4.9s.5-3,.8-4.6v-.6c.8-3.6,1.4-7.7,2.1-12.5l.4-2.6c0-.5.1-1.1.2-1.9,0-.8.2-1.6.4-2.5,0-.8,0-1.4.2-1.9,0-.5.2-1.2.3-1.9,1.1,0,2.1-.2,2.8-.2.8,0,1.4-.1,2.1-.2.6,0,1.3-.1,2-.2s1.6-.1,2.6-.2c3.4-.3,6.8-.4,10.3-.6,3.5-.1,7.1-.2,10.7-.2v.8c-.5,2.7-.9,5.6-1.4,8.7-.5,3.1-.9,6.3-1.4,9.6-.5,3.3-1,6.5-1.4,9.7-.5,3.2-1,6.2-1.5,9.1-.8,0-1.6,0-2.5,0-.8,0-1.8,0-3-.1-2,.5-3.4,1.3-4.3,2.4s-1.4,2.2-1.7,3.3c-.2,1.2.1,2.4.7,3.3s1.8,1.5,3.4,1.7c1.2,0,2.5-.2,3.8-.4,1.3-.1,2.6-.3,3.8-.5,1.1-.2,2.2-.3,3.4-.4,1.1,0,2.2-.2,3.4-.3,1.2,0,2.5-.2,3.8-.2,1.4,0,2.7,0,4.1,0,1.9-.3,3.4-1,4.5-2.2,1.1-1.1,1.8-2.3,1.9-3.4.2-1.4,0-2.6-.8-3.6s-2.1-1.5-4.1-1.6c-1.1.2-2.1.4-3,.6-.9.2-1.9.3-3,.5.2-2.1.3-4.1.5-5.9.2-1.8.4-3.6.6-5.4.2-1.8.5-3.6.7-5.4.3-1.8.5-3.9.9-6.2.5-3.5,1-7,1.6-10.6s1.2-7.2,1.8-10.8c.5-3.2,1-6.3,1.5-9.3.5-3.1,1-6.1,1.5-9.1.2,0,.3,0,.4,0,0,0,.2,0,.4,0,.6,0,1.4,0,2.2-.1s1.7,0,2.5.2c1.7-.4,3-1.2,4-2.3,1-1.1,1.6-2.3,1.8-3.6.2-1.3-.1-2.6-1-3.7-.9-1.1-2.3-1.7-4.3-1.6h0s0,0,0,0Z"></path><path d="M712,673.5c1.9-2.3,3.6-4.7,5.2-7,1.6-2.4,2.9-4.4,4-6.3,1-1.8,1.6-2.9,1.6-3.2,0-1.8-.5-3.1-1.6-3.8-1.1-.7-2.4-.9-3.9-.6-1.5.3-2.9,1.4-4.2,3.3-1.3,1.9-2.7,4-4.1,6.4-1.1,1.8-2.2,3.5-3.2,5.2s-2,2.9-2.8,3.7h.1c-.4.2-1,.4-2,.6s-2,.4-3.1.6l-.9.2c-3.8.8-7.2,1.4-10.3,2-3.1.6-6.1,1.1-9.2,1.6-.2-3.4-.4-6.7-.5-9.7-.1-3-.3-6-.4-8.8-.1-2.9-.2-5.8-.2-8.7,0-3,0-6.1,0-9.3,1.4-.4,2.5-.7,3.3-.9.8-.2,1.5-.4,2.1-.5.6-.1,1.3-.3,1.9-.4.6-.1,1.5-.3,2.6-.5,1.3-.3,2.6-.6,3.9-.8s2.7-.5,4.3-.7v.6c0,1,0,2.1,0,3.1,0,1,.2,1.9.6,2.7.3.8.8,1.3,1.5,1.7.7.4,1.7.4,3,.1,1.5-.3,2.8-1.7,4.1-4.1,1.2-2.4,2.2-5.5,2.9-9.3-.4.7-.6,1.3-.8,2-.2.5-.4,1.1-.6,1.6-.2.6-.3,1-.3,1.4,0-.2,0-.4,0-.8,0-.1,0-.3,0-.4h0c0,0,0-.2,0-.2,0,0,0-.2,0-.3,0-.2,0-.4-.1-.5-.2-.2-.3-.6-.2-1.1v-.7c0-1.4.1-2.8.4-4.1,0-.6,0-1.3.1-1.9s0-1.5.2-2.8c0-4.4-1.7-6.2-5.3-5.4-1.1.2-2.1.8-3,1.6s-1.7,2-2.2,3.5h2.2c0-.1-2.1.3-2.1.3,0,0,0,.1,0,.2,0,0-.1.1,0,.2v1.2c0,.2,0,.4,0,.6s0,.3,0,.5c-3.1.6-6.1,1.3-9.1,1.9s-6,1.3-8.9,2c0-2.3,0-4.3.1-5.9s.2-3.1.3-4.3.2-2.3.4-3.3c.1-1,.3-2,.5-3.1h0c0-.1,2.3-.6,2.3-.6,1.1-.2,2.5-.5,4.3-.9,1.8-.4,3.4-.8,4.9-1.1,2-.5,4-1,5.9-1.4s3.8-.8,5.6-1.2l1.9-.4,2.1-.4v.4c-.3.6-.4,1.3-.3,2.2,0,.7,0,1.6.2,2.5.1,1,.4,1.8.8,2.6s1,1.4,1.7,1.8c.7.4,1.8.5,3.1.2,3.6-.8,5.4-3,5.4-6.7,0-.4,0-.7,0-.9-.1-.2-.2-.4-.3-.7v-1c0-.3,0-.6,0-.8v-2.5c0,0,.2-.5.2-.5,0-3.3-.9-5.4-2.5-6.3-1.6-.9-4-.9-7.2-.3-1.6.3-2.8.6-3.6.9s-1.6.5-2.2.7c-.2.1-.4.2-.6.2h-.1l-8.4,1.8c-4.2.9-8.2,1.7-12,2.4-3.9.7-7.8,1.3-11.9,1.9h-.4c-.4,0-.6,0-.8,0-.4,0-.8,0-1.2,0s-.8.1-1.2.2c-1.7.3-3.2,1.1-4.6,2.4-1.4,1.2-2.1,2.9-2.1,5,0,1.5.5,2.7,1.5,3.5s2.3,1.1,3.8.8c.8-.2,1.4-.3,1.7-.5,0,0,.2,0,.4,0,.2,0,.4-.1.5-.2l2.7-.6c0,3.7,0,7.1-.1,10.5,0,3.3,0,7.1,0,11.3,0,4.4,0,8.8,0,13.3s-.1,8.7-.2,12.8c0,.6,0,1.1-.1,1.6v1.5l-.2,11.4c-.8.2-1.8.3-2.9.4-1.2.1-2.8.3-5,.4-1.7.8-3,1.9-3.8,3.1-.8,1.2-1.3,2.5-1.4,3.7,0,3.1,1.5,4.6,4.4,4.5,2.3-.3,4.5-.7,6.7-1.1,2.1-.4,3.9-.7,5.2-1,2-.4,3.6-.8,4.8-1.1,1.2-.3,2.5-.7,3.7-1.1h-.1c1.5-.5,3.3-.9,5.2-1.4,1.9-.5,4.5-1.1,7.8-1.7.2,0,.4,0,.5,0,.1,0,.3,0,.4,0l2.6-.5c.6,0,1.4-.2,2.3-.4s1.7-.4,2.3-.5c1.1-.2,2.3-.5,3.5-.8s2.5-.8,3.8-1.4c1.6-1.2,3.3-2.9,5.1-5.3h0c0-.1,0-.1,0-.1Z"></path><path d="M704.9,634.6c0-.2,0-.3,0-.4v.4Z"></path></g></g></g></svg>