<svg xmlns="http://www.w3.org/2000/svg" xmlns:xlink="http://www.w3.org/1999/xlink" width="316" viewBox="0 0 236.87999 48" height="64" preserveAspectRatio="xMidYMid meet"><defs><clipPath id="3beedaeceb"><path d="M 5.210938 9.097656 L 19.707031 9.097656 L 19.707031 41.652344 L 5.210938 41.652344 Z M 5.210938 9.097656 " clip-rule="nonzero"></path></clipPath><clipPath id="a95de5b15a"><path d="M 16.683594 9.84375 C 19.183594 9.402344 19.625 10.066406 19.625 10.945312 C 19.769531 13.738281 13.527344 23.878906 11.542969 29.167969 C 10.074219 32.988281 8.601562 39.527344 8.308594 39.453125 C 8.164062 39.453125 8.015625 37.910156 8.308594 37.691406 C 8.675781 37.324219 10.144531 37.542969 10.441406 37.910156 C 10.734375 38.277344 10.511719 39.746094 10.074219 40.039062 C 9.707031 40.261719 8.234375 39.96875 8.015625 39.527344 C 7.722656 39.085938 8.164062 37.761719 8.601562 37.46875 C 8.96875 37.25 10 37.46875 10.367188 37.761719 C 10.660156 38.128906 10.808594 39.011719 10.511719 39.527344 C 10.074219 40.40625 7.722656 41.804688 6.839844 41.582031 C 6.179688 41.4375 5.515625 40.335938 5.296875 39.746094 C 5.148438 39.160156 5.371094 38.792969 5.515625 38.058594 C 5.957031 36.074219 7.355469 31.738281 8.824219 28.066406 C 10.734375 23.070312 14.40625 13.886719 16.316406 11.09375 C 17.125 10.066406 17.785156 9.183594 18.375 9.183594 C 18.816406 9.109375 19.328125 9.550781 19.476562 9.917969 C 19.695312 10.285156 19.769531 10.875 19.550781 11.242188 C 19.183594 11.828125 17.640625 12.5625 17.050781 12.417969 C 16.539062 12.34375 16.097656 11.535156 16.023438 11.09375 C 16.023438 10.652344 16.683594 9.84375 16.683594 9.84375 " clip-rule="nonzero"></path></clipPath><clipPath id="9eb9ca655d"><path d="M 18.519531 14 L 72 14 L 72 42.835938 L 18.519531 42.835938 Z M 18.519531 14 " clip-rule="nonzero"></path></clipPath><clipPath id="c919adaba3"><path d="M 29.320312 21.234375 C 22.929688 31.371094 22.710938 37.027344 21.535156 38.644531 C 21.019531 39.378906 20.359375 39.820312 19.917969 39.746094 C 19.402344 39.671875 18.816406 39.011719 18.667969 38.203125 C 18.226562 36.21875 20.578125 30.121094 21.902344 26.667969 C 23.078125 23.730469 24.324219 20.496094 25.941406 18.660156 C 26.96875 17.414062 28.367188 16.382812 29.46875 16.089844 C 30.351562 15.941406 31.304688 16.164062 31.964844 16.675781 C 32.921875 17.484375 33.363281 19.25 34.023438 21.378906 C 35.417969 25.714844 38.503906 38.71875 38.136719 41.363281 C 38.066406 42.023438 37.84375 42.320312 37.476562 42.539062 C 37.109375 42.757812 36.523438 42.832031 36.152344 42.6875 C 35.785156 42.613281 35.492188 42.390625 35.347656 41.949219 C 34.980469 40.703125 36.742188 36.21875 38.066406 32.914062 C 39.753906 28.800781 42.988281 22.261719 44.96875 19.324219 C 46.074219 17.707031 46.953125 16.605469 47.910156 15.871094 C 48.570312 15.429688 49.230469 14.988281 49.820312 15.132812 C 50.480469 15.207031 51.363281 16.164062 51.65625 16.824219 C 52.023438 17.558594 51.875 18.074219 51.804688 19.324219 C 51.65625 22.777344 50.1875 36.957031 48.570312 39.378906 C 48.054688 40.113281 47.394531 40.480469 46.878906 40.40625 C 46.441406 40.335938 46 39.894531 45.707031 39.234375 C 45.117188 37.910156 45.777344 34.089844 45.339844 31.960938 C 44.96875 30.195312 44.308594 28.875 43.574219 27.332031 C 42.765625 25.714844 41.957031 23.730469 40.5625 22.40625 C 39.167969 21.011719 35.859375 20.128906 35.050781 19.175781 C 34.757812 18.660156 34.613281 18.21875 34.683594 17.851562 C 34.832031 17.414062 34.980469 17.117188 35.566406 16.75 C 38.652344 15.207031 64.21875 13.222656 68.554688 14.546875 C 69.730469 14.914062 70.242188 15.429688 70.613281 16.089844 C 70.90625 16.824219 70.90625 17.707031 70.390625 18.660156 C 69.070312 21.234375 60.324219 26.523438 58.121094 29.3125 C 56.945312 30.710938 55.84375 32.179688 56.066406 32.839844 C 56.210938 33.355469 57.09375 33.429688 57.976562 33.574219 C 59.515625 33.796875 63.191406 33.503906 64.808594 33.207031 C 65.835938 32.988281 66.351562 32.839844 67.085938 32.398438 C 68.113281 31.8125 69.363281 29.753906 70.242188 29.609375 C 70.832031 29.535156 71.566406 30.050781 71.785156 30.488281 C 72.007812 30.929688 71.785156 31.960938 71.347656 32.253906 C 70.980469 32.546875 69.507812 32.328125 69.289062 31.960938 C 68.996094 31.59375 69.214844 30.195312 69.65625 29.828125 C 70.023438 29.609375 71.050781 29.679688 71.417969 29.976562 C 71.714844 30.269531 72.007812 30.785156 71.933594 31.296875 C 71.714844 32.253906 69.582031 34.308594 68.113281 35.117188 C 66.863281 35.925781 65.617188 36.21875 63.925781 36.441406 C 61.722656 36.734375 57.902344 36.808594 56.066406 36.21875 C 54.890625 35.851562 54.007812 35.339844 53.566406 34.605469 C 53.125 34.015625 53.050781 33.207031 53.125 32.328125 C 53.347656 31.152344 53.859375 29.828125 55.035156 28.285156 C 57.386719 25.347656 69.140625 19.324219 68.40625 17.484375 C 67.453125 14.988281 41.957031 20.058594 37.402344 19.617188 C 36.082031 19.46875 35.273438 19.324219 34.90625 18.882812 C 34.613281 18.515625 34.683594 17.851562 34.832031 17.484375 C 34.980469 17.117188 35.417969 16.75 35.933594 16.675781 C 36.960938 16.53125 39.460938 17.632812 40.929688 18.808594 C 42.691406 20.128906 44.308594 22.480469 45.484375 24.539062 C 46.734375 26.667969 47.6875 29.019531 48.203125 31.445312 C 48.71875 34.015625 49.230469 38.570312 48.421875 39.746094 C 47.984375 40.261719 47.027344 40.480469 46.511719 40.335938 C 46.074219 40.113281 45.851562 39.304688 45.707031 38.277344 C 45.339844 35.265625 47.761719 21.96875 48.863281 19.394531 C 49.230469 18.585938 49.894531 18 49.894531 18 C 49.964844 18.074219 46.074219 22.921875 44.308594 26.230469 C 41.886719 30.636719 39.386719 41.289062 37.476562 42.539062 C 36.890625 42.90625 36.226562 42.757812 35.785156 42.539062 C 35.273438 42.171875 35.125 41.511719 34.757812 40.40625 C 33.65625 37.324219 32.554688 25.566406 31.230469 22.113281 C 30.644531 20.644531 30.128906 19.175781 29.394531 19.175781 C 28.21875 19.175781 26.015625 24.613281 24.691406 27.699219 C 23.296875 31.152344 22.636719 37.46875 21.386719 39.011719 C 20.871094 39.527344 20.359375 39.820312 19.917969 39.746094 C 19.402344 39.671875 18.890625 39.085938 18.667969 38.570312 C 18.375 37.835938 18.667969 36.808594 18.890625 35.558594 C 19.328125 33.429688 20.359375 29.679688 21.679688 27.035156 C 23.148438 24.171875 25.867188 19.761719 27.410156 19.027344 C 28.144531 18.734375 29.027344 18.882812 29.320312 19.25 C 29.6875 19.617188 29.320312 21.234375 29.320312 21.234375 " clip-rule="nonzero"></path></clipPath><clipPath id="4f2bfb2762"><path d="M 49.054688 14.699219 L 92.035156 14.699219 L 92.035156 37.867188 L 49.054688 37.867188 Z M 49.054688 14.699219 " clip-rule="nonzero"></path></clipPath><clipPath id="9d2938b304"><path d="M 52.980469 28.800781 C 49.160156 28.800781 49.011719 27.917969 49.085938 27.476562 C 49.230469 27.109375 49.527344 26.816406 50.113281 26.597656 C 51.949219 25.789062 58.929688 26.15625 63.117188 25.566406 C 67.011719 25.054688 71.050781 24.171875 74.503906 23.214844 C 77.445312 22.40625 80.089844 21.671875 82.585938 20.496094 C 84.863281 19.46875 87.730469 16.457031 88.90625 16.605469 C 89.417969 16.675781 90.007812 17.414062 89.933594 17.707031 C 89.785156 18.292969 87.289062 18.367188 85.964844 19.101562 C 84.128906 20.128906 81.925781 21.96875 80.382812 23.949219 C 78.839844 25.933594 77.296875 29.460938 76.855469 31.152344 C 76.636719 32.03125 76.5625 32.695312 76.710938 33.28125 C 76.929688 33.796875 77.222656 34.382812 77.738281 34.675781 C 78.398438 34.972656 79.355469 35.042969 80.308594 34.898438 C 81.632812 34.75 83.542969 34.238281 84.789062 33.429688 C 86.039062 32.546875 86.847656 30.121094 87.804688 29.902344 C 88.464844 29.753906 89.566406 30.269531 89.785156 30.785156 C 89.933594 31.152344 89.640625 32.179688 89.199219 32.472656 C 88.832031 32.695312 87.804688 32.621094 87.4375 32.398438 C 87.140625 32.105469 86.847656 31.519531 86.921875 31.078125 C 86.996094 30.636719 87.65625 29.902344 88.171875 29.753906 C 88.539062 29.679688 89.199219 29.902344 89.417969 30.195312 C 89.714844 30.5625 89.785156 31.371094 89.640625 31.960938 C 89.417969 32.914062 88.464844 34.089844 87.507812 34.972656 C 86.40625 35.925781 84.9375 36.957031 83.394531 37.394531 C 81.632812 37.910156 78.914062 37.984375 77.371094 37.542969 C 76.269531 37.25 75.460938 36.660156 74.800781 35.925781 C 74.210938 35.191406 73.917969 34.238281 73.769531 33.207031 C 73.625 31.960938 73.917969 30.417969 74.285156 29.019531 C 74.726562 27.550781 75.386719 26.082031 76.269531 24.613281 C 77.371094 22.847656 78.988281 20.9375 80.601562 19.46875 C 82.21875 18 84.054688 16.605469 85.746094 15.871094 C 87.289062 15.207031 89.273438 14.472656 90.375 14.839844 C 91.109375 15.0625 91.84375 15.941406 91.992188 16.53125 C 92.136719 17.042969 91.84375 17.558594 91.476562 18.148438 C 90.890625 18.957031 89.640625 19.984375 88.316406 20.867188 C 86.628906 21.96875 84.421875 23.070312 81.777344 24.023438 C 78.105469 25.421875 72.300781 26.816406 67.964844 27.699219 C 64.144531 28.507812 60.546875 29.019531 57.238281 29.242188 C 54.449219 29.460938 50.480469 30.050781 49.527344 29.09375 C 49.085938 28.652344 49.085938 27.476562 49.527344 26.890625 C 49.964844 26.300781 51.730469 25.789062 52.539062 25.933594 C 53.125 26.007812 53.933594 26.667969 54.007812 27.109375 C 54.082031 27.625 52.980469 28.800781 52.980469 28.800781 " clip-rule="nonzero"></path></clipPath><clipPath id="6a51a14048"><path d="M 76.765625 24.152344 L 99.339844 24.152344 L 99.339844 43.585938 L 76.765625 43.585938 Z M 76.765625 24.152344 " clip-rule="nonzero"></path></clipPath><clipPath id="c851ca9237"><path d="M 80.53125 27.035156 C 77.003906 27.332031 76.78125 26.449219 76.855469 26.007812 C 76.855469 25.640625 77.148438 25.273438 77.738281 24.980469 C 79.867188 24.023438 93.386719 24.90625 96.324219 25.347656 C 97.28125 25.492188 97.722656 25.492188 98.234375 25.859375 C 98.75 26.300781 99.410156 27.109375 99.265625 28.140625 C 98.824219 30.785156 87.875 41.65625 87.214844 41.289062 C 86.921875 41.144531 87.289062 39.378906 87.804688 39.011719 C 88.242188 38.71875 89.640625 38.792969 89.933594 39.160156 C 90.226562 39.601562 90.007812 40.996094 89.640625 41.289062 C 89.273438 41.582031 88.242188 41.582031 87.875 41.289062 C 87.507812 40.921875 87.363281 39.527344 87.65625 39.160156 C 87.949219 38.792969 88.980469 38.570312 89.417969 38.792969 C 89.859375 39.011719 90.300781 39.820312 90.226562 40.40625 C 90.082031 41.289062 88.023438 43.054688 86.996094 43.421875 C 86.261719 43.640625 85.304688 43.566406 84.863281 43.199219 C 84.351562 42.757812 84.203125 41.289062 84.277344 40.554688 C 84.421875 39.894531 84.644531 39.601562 85.160156 38.867188 C 86.773438 36.808594 96.988281 30.195312 96.179688 28.285156 C 95.371094 26.15625 80.015625 28.726562 77.8125 27.699219 C 77.148438 27.476562 76.929688 27.109375 76.855469 26.742188 C 76.710938 26.375 76.78125 25.789062 77.148438 25.421875 C 77.664062 24.832031 79.429688 24.097656 80.234375 24.246094 C 80.75 24.320312 81.410156 24.90625 81.484375 25.347656 C 81.558594 25.789062 80.53125 27.035156 80.53125 27.035156 " clip-rule="nonzero"></path></clipPath><clipPath id="d8ea94d407"><path d="M 99.0625 11.347656 L 123.769531 11.347656 L 123.769531 40.292969 L 99.0625 40.292969 Z M 99.0625 11.347656 " clip-rule="nonzero"></path></clipPath><clipPath id="b13b93463b"><path d="M 104.628906 28.652344 C 102.351562 36.074219 102.863281 38.570312 102.203125 39.453125 C 101.761719 40.039062 100.808594 40.261719 100.367188 40.113281 C 99.925781 40.039062 99.632812 39.527344 99.410156 38.792969 C 98.824219 36.734375 99.191406 29.609375 99.632812 26.375 C 99.925781 24.246094 100.367188 22.921875 100.953125 21.304688 C 101.617188 19.617188 102.277344 17.851562 103.527344 16.382812 C 104.921875 14.765625 107.492188 12.855469 109.257812 12.121094 C 110.503906 11.535156 111.535156 11.460938 112.710938 11.460938 C 113.8125 11.460938 114.988281 11.535156 116.015625 12.121094 C 117.265625 12.855469 118.808594 14.179688 119.394531 15.722656 C 120.128906 17.414062 120.277344 20.203125 119.617188 21.96875 C 118.953125 23.65625 117.558594 24.6875 115.867188 26.15625 C 113.148438 28.285156 104.039062 31.664062 104.40625 32.988281 C 104.773438 34.53125 119.910156 32.988281 122.261719 33.722656 C 122.921875 33.871094 123.289062 34.015625 123.4375 34.382812 C 123.65625 34.75 123.730469 35.414062 123.582031 35.78125 C 123.363281 36.148438 122.847656 36.515625 122.480469 36.585938 C 122.039062 36.660156 121.453125 36.441406 121.160156 36.148438 C 120.863281 35.851562 120.71875 35.265625 120.792969 34.824219 C 120.863281 34.457031 121.304688 33.941406 121.671875 33.796875 C 122.113281 33.648438 123.070312 33.941406 123.363281 34.238281 C 123.65625 34.605469 123.804688 35.265625 123.582031 35.632812 C 123.4375 36.074219 122.921875 36.367188 122.113281 36.660156 C 119.542969 37.324219 107.714844 35.925781 104.703125 35.558594 C 103.597656 35.414062 103.085938 35.484375 102.496094 35.117188 C 101.835938 34.824219 100.953125 34.089844 100.878906 33.429688 C 100.808594 32.621094 101.6875 31.59375 102.792969 30.488281 C 105.140625 28.140625 114.324219 23.804688 116.164062 21.894531 C 116.824219 21.234375 117.042969 20.792969 117.191406 20.203125 C 117.339844 19.542969 117.265625 18.734375 117.042969 18 C 116.675781 16.972656 115.941406 15.429688 114.914062 14.839844 C 113.8125 14.253906 111.902344 14.328125 110.433594 14.765625 C 108.890625 15.28125 107.199219 16.457031 105.949219 18.074219 C 104.40625 20.128906 103.230469 23.511719 102.570312 26.742188 C 101.835938 30.417969 103.160156 37.324219 102.277344 39.160156 C 101.984375 39.820312 101.542969 40.1875 101.027344 40.261719 C 100.585938 40.261719 99.851562 39.96875 99.558594 39.453125 C 99.042969 38.570312 99.339844 36.441406 99.632812 34.675781 C 100 32.472656 100.878906 28.359375 101.984375 27.332031 C 102.570312 26.816406 103.453125 26.667969 103.894531 26.816406 C 104.332031 27.035156 104.628906 28.652344 104.628906 28.652344 " clip-rule="nonzero"></path></clipPath><clipPath id="a829607211"><path d="M 117.605469 11.664062 L 155.585938 11.664062 L 155.585938 41.601562 L 117.605469 41.601562 Z M 117.605469 11.664062 " clip-rule="nonzero"></path></clipPath><clipPath id="52be4d793c"><path d="M 122.628906 38.496094 C 122.40625 39.453125 121.230469 39.304688 121.011719 38.792969 C 120.277344 37.324219 124.023438 30.050781 125.785156 26.230469 C 127.328125 22.777344 129.019531 19.324219 130.710938 16.75 C 132.03125 14.765625 133.355469 12.417969 134.675781 11.828125 C 135.632812 11.460938 136.953125 11.753906 137.542969 12.195312 C 137.984375 12.5625 137.984375 13.078125 138.128906 14.105469 C 138.644531 17.191406 137.394531 29.976562 137.910156 34.015625 C 138.128906 35.851562 139.230469 37.761719 138.9375 37.984375 C 138.789062 38.058594 137.984375 37.46875 137.617188 36.957031 C 136.953125 36.074219 136.808594 34.089844 135.925781 32.914062 C 134.96875 31.59375 133.574219 30.417969 131.664062 29.609375 C 129.019531 28.507812 120.9375 28.359375 120.9375 28.140625 C 120.9375 27.917969 128.945312 28.507812 132.105469 28.285156 C 134.457031 28.066406 136.21875 27.917969 138.203125 27.332031 C 140.332031 26.667969 142.242188 25.789062 144.449219 24.539062 C 147.167969 22.847656 151.5 18.441406 153.191406 17.78125 C 153.851562 17.558594 154.21875 17.414062 154.585938 17.632812 C 155.101562 18 155.46875 19.324219 155.46875 20.644531 C 155.46875 22.996094 153.265625 27.625 152.675781 30.855469 C 152.234375 33.503906 152.382812 38.425781 152.089844 38.425781 C 152.015625 38.425781 151.796875 37.542969 151.796875 36.808594 C 151.722656 35.632812 151.941406 32.621094 152.675781 31.886719 C 153.117188 31.445312 154 31.371094 154.441406 31.59375 C 154.808594 31.738281 155.175781 32.328125 155.175781 32.695312 C 155.25 33.132812 155.027344 33.722656 154.660156 34.015625 C 154.367188 34.238281 153.707031 34.457031 153.339844 34.308594 C 152.898438 34.164062 152.308594 33.355469 152.234375 32.914062 C 152.234375 32.472656 152.601562 31.886719 152.898438 31.664062 C 153.265625 31.445312 153.925781 31.296875 154.292969 31.519531 C 154.660156 31.738281 155.101562 32.328125 155.175781 33.0625 C 155.46875 34.308594 154.808594 37.617188 154.144531 39.011719 C 153.777344 39.96875 153.265625 40.777344 152.675781 41.144531 C 152.089844 41.4375 151.132812 41.4375 150.546875 41.214844 C 150.03125 40.921875 149.589844 40.335938 149.371094 39.527344 C 148.929688 38.203125 149.003906 36 149.296875 33.503906 C 149.8125 29.460938 151.574219 19.027344 153.191406 17.78125 C 153.707031 17.339844 154.511719 17.558594 154.878906 17.78125 C 155.25 18 155.542969 18.515625 155.46875 19.027344 C 155.320312 20.128906 152.75 22.113281 151.132812 23.4375 C 149.515625 24.757812 147.902344 26.007812 145.769531 27.109375 C 143.273438 28.507812 140.1875 30.050781 136.660156 30.710938 C 132.472656 31.519531 125.050781 31.078125 122.039062 30.5625 C 120.644531 30.34375 119.910156 30.195312 119.101562 29.679688 C 118.441406 29.167969 117.632812 28.140625 117.632812 27.402344 C 117.632812 26.816406 118.074219 26.007812 118.878906 25.640625 C 120.570312 24.757812 126.226562 25.273438 129.238281 25.933594 C 131.8125 26.523438 134.53125 27.699219 136.144531 28.800781 C 137.175781 29.609375 137.761719 30.34375 138.421875 31.371094 C 139.230469 32.621094 140.113281 34.164062 140.40625 35.707031 C 140.628906 37.101562 140.554688 39.453125 139.894531 40.1875 C 139.378906 40.703125 138.277344 40.921875 137.617188 40.554688 C 136.660156 40.1875 135.851562 38.277344 135.410156 37.101562 C 135.042969 36.074219 135.042969 35.484375 134.96875 34.015625 C 134.75 30.488281 134.308594 18.148438 135.265625 15.574219 C 135.558594 14.765625 136.367188 14.179688 136.441406 14.253906 C 136.511719 14.328125 131.589844 21.085938 129.535156 25.125 C 127.257812 29.609375 124.980469 37.617188 123.582031 39.894531 C 123.140625 40.703125 122.921875 41.070312 122.40625 41.363281 C 121.964844 41.582031 121.160156 41.730469 120.71875 41.363281 C 120.128906 40.921875 119.542969 38.496094 119.910156 37.761719 C 120.128906 37.324219 121.230469 36.957031 121.671875 37.101562 C 122.113281 37.25 122.628906 38.496094 122.628906 38.496094 " clip-rule="nonzero"></path></clipPath><clipPath id="e249049958"><path d="M 137.851562 12.578125 L 172.757812 12.578125 L 172.757812 41.199219 L 137.851562 41.199219 Z M 137.851562 12.578125 " clip-rule="nonzero"></path></clipPath><clipPath id="24c6afa58e"><path d="M 140.039062 19.691406 C 137.6875 17.632812 137.6875 16.605469 138.054688 16.089844 C 138.421875 15.574219 139.085938 15.429688 140.1875 15.132812 C 143.199219 14.179688 153.925781 13.003906 158.480469 12.710938 C 161.273438 12.5625 163.257812 12.488281 165.167969 12.785156 C 166.636719 13.003906 167.886719 13.296875 168.988281 14.03125 C 170.164062 14.695312 171.484375 15.796875 172.074219 17.042969 C 172.660156 18.292969 172.734375 19.394531 172.660156 21.304688 C 172.585938 25.273438 170.234375 39.011719 168.988281 39.378906 C 168.621094 39.453125 168.03125 38.792969 167.957031 38.203125 C 167.664062 37.027344 168.914062 32.546875 169.867188 32.03125 C 170.382812 31.738281 171.558594 32.398438 171.851562 32.765625 C 172.074219 33.132812 171.925781 33.796875 171.707031 34.164062 C 171.484375 34.53125 170.898438 34.898438 170.53125 34.824219 C 170.015625 34.75 169.058594 33.796875 169.058594 33.28125 C 168.988281 32.839844 169.722656 32.03125 170.164062 31.960938 C 170.601562 31.8125 171.484375 32.179688 171.777344 32.621094 C 172.21875 33.429688 171.777344 35.414062 171.484375 36.585938 C 171.265625 37.617188 170.898438 38.644531 170.308594 39.378906 C 169.796875 40.039062 169.058594 40.921875 168.324219 41.070312 C 167.738281 41.144531 166.855469 40.703125 166.488281 40.261719 C 166.046875 39.746094 166.121094 39.085938 166.121094 37.984375 C 166.195312 35.042969 169.574219 24.832031 169.722656 21.378906 C 169.796875 19.835938 169.722656 18.882812 169.28125 18.074219 C 168.988281 17.414062 168.472656 17.042969 167.738281 16.675781 C 166.710938 16.089844 164.945312 15.722656 163.476562 15.574219 C 161.933594 15.429688 160.757812 15.503906 158.703125 15.648438 C 154.511719 15.941406 141.140625 19.324219 140.113281 18.148438 C 139.820312 17.78125 140.1875 16.675781 140.480469 16.605469 C 140.773438 16.53125 142.097656 18.074219 142.171875 18.585938 C 142.171875 19.027344 141.730469 19.542969 141.363281 19.761719 C 140.996094 19.910156 140.039062 19.691406 140.039062 19.691406 " clip-rule="nonzero"></path></clipPath><clipPath id="80550f3b66"><path d="M 171.316406 2.746094 L 231.210938 2.746094 L 231.210938 41 L 171.316406 41 Z M 171.316406 2.746094 " clip-rule="nonzero"></path></clipPath><clipPath id="37405c1c74"><path d="M 191.394531 24.757812 C 183.238281 24.6875 181.769531 25.273438 180.300781 26.230469 C 178.539062 27.402344 176.261719 29.3125 175.304688 31.078125 C 174.496094 32.621094 173.835938 34.75 174.421875 35.851562 C 174.863281 36.882812 176.773438 37.46875 177.875 37.835938 C 178.832031 38.058594 179.640625 38.203125 180.667969 37.984375 C 182.285156 37.691406 184.929688 36.660156 186.398438 35.558594 C 187.648438 34.605469 188.53125 33.648438 189.191406 32.105469 C 190.074219 29.976562 190.511719 25.789062 190.367188 23.363281 C 190.21875 21.527344 189.707031 20.058594 189.042969 18.660156 C 188.53125 17.339844 186.839844 16.164062 186.914062 15.28125 C 186.988281 14.621094 187.648438 13.664062 188.457031 13.664062 C 190.808594 13.59375 201.238281 25.421875 203.664062 29.3125 C 204.839844 31.152344 205.355469 32.472656 205.355469 33.941406 C 205.429688 35.265625 205.058594 36.808594 204.324219 37.617188 C 203.589844 38.425781 201.976562 39.011719 201.09375 39.011719 C 200.503906 38.9375 199.992188 38.792969 199.625 38.203125 C 198.742188 36.734375 198.816406 31.886719 199.109375 28.210938 C 199.402344 23.65625 200.945312 15.355469 201.976562 12.855469 C 202.34375 11.902344 202.636719 11.460938 203.148438 11.167969 C 203.738281 10.800781 204.839844 10.578125 205.574219 10.800781 C 206.457031 11.09375 206.96875 11.753906 208 12.855469 C 210.570312 15.648438 216.890625 26.15625 220.046875 29.828125 C 221.886719 31.886719 223.207031 33.207031 224.675781 34.238281 C 225.707031 35.042969 227.175781 36.074219 227.6875 35.851562 C 228.128906 35.632812 228.203125 34.898438 228.277344 34.238281 C 228.277344 33.207031 227.761719 31.960938 227.101562 30.269531 C 225.632812 26.597656 220.195312 18.148438 218.503906 14.105469 C 217.550781 11.902344 216.960938 10.285156 216.667969 8.816406 C 216.523438 7.789062 216.375 6.980469 216.667969 6.171875 C 216.960938 5.363281 217.550781 4.40625 218.503906 3.894531 C 219.828125 3.085938 223.207031 2.496094 224.308594 2.9375 C 224.898438 3.160156 225.410156 3.894531 225.410156 4.335938 C 225.410156 4.847656 224.75 5.65625 224.308594 5.804688 C 223.796875 5.878906 222.691406 5.144531 222.472656 4.703125 C 222.324219 4.335938 222.546875 3.671875 222.839844 3.378906 C 223.132812 3.085938 223.796875 2.867188 224.164062 2.9375 C 224.53125 3.011719 225.117188 3.378906 225.265625 3.746094 C 225.410156 4.113281 225.484375 4.777344 225.191406 5.144531 C 224.675781 5.730469 221.957031 5.582031 220.929688 6.023438 C 220.269531 6.390625 219.679688 6.6875 219.460938 7.199219 C 219.238281 7.789062 219.460938 8.375 219.753906 9.476562 C 220.855469 13.078125 229.085938 26.082031 230.480469 31.003906 C 231.214844 33.355469 231.363281 35.117188 231.070312 36.441406 C 230.921875 37.394531 230.554688 38.203125 229.820312 38.570312 C 228.9375 39.011719 227.101562 38.792969 225.707031 38.277344 C 223.722656 37.46875 221.738281 35.851562 219.386719 33.503906 C 215.273438 29.3125 207.410156 13.296875 204.765625 13.8125 C 203.148438 14.105469 203.003906 19.691406 202.5625 22.996094 C 201.976562 26.667969 202.710938 32.839844 202.046875 34.75 C 201.753906 35.484375 201.019531 35.925781 201.09375 36.074219 C 201.238281 36.148438 202.269531 36 202.5625 35.632812 C 202.929688 34.972656 202.636719 33.503906 201.828125 32.03125 C 200.066406 28.433594 188.234375 18.660156 187.207031 15.941406 C 186.914062 15.132812 186.988281 14.621094 187.207031 14.253906 C 187.429688 13.886719 187.941406 13.59375 188.457031 13.664062 C 189.191406 13.738281 190.367188 14.988281 191.101562 16.089844 C 191.984375 17.414062 192.644531 19.394531 193.011719 21.234375 C 193.378906 23.214844 193.378906 25.492188 193.085938 27.550781 C 192.863281 29.609375 192.421875 31.960938 191.6875 33.574219 C 191.101562 34.898438 190.511719 35.78125 189.484375 36.734375 C 188.234375 37.910156 186.105469 39.304688 184.488281 39.96875 C 183.167969 40.554688 181.992188 40.847656 180.59375 40.921875 C 178.980469 40.996094 176.773438 40.628906 175.304688 40.039062 C 174.128906 39.527344 173.101562 38.867188 172.367188 37.984375 C 171.707031 37.101562 171.339844 35.925781 171.339844 34.675781 C 171.265625 33.132812 172.074219 30.929688 172.878906 29.460938 C 173.542969 28.210938 174.351562 27.257812 175.453125 26.230469 C 176.847656 24.980469 179.199219 23.4375 180.960938 22.628906 C 182.285156 22.039062 183.167969 21.671875 184.636719 21.527344 C 186.691406 21.234375 190.953125 21.160156 192.203125 21.96875 C 192.789062 22.335938 193.160156 23.214844 193.011719 23.730469 C 192.863281 24.171875 191.394531 24.757812 191.394531 24.757812 " clip-rule="nonzero"></path></clipPath><clipPath id="38b3c7c32d"><path d="M 160.261719 10.789062 L 166.886719 10.789062 L 166.886719 16.558594 L 160.261719 16.558594 Z M 160.261719 10.789062 " clip-rule="nonzero"></path></clipPath><clipPath id="b7353128bb"><path d="M 163.402344 14.695312 C 160.097656 12.488281 160.171875 11.902344 160.316406 11.535156 C 160.539062 11.242188 160.90625 10.800781 161.417969 10.800781 C 162.523438 10.800781 166.34375 13.445312 166.78125 14.546875 C 167.003906 15.207031 166.710938 16.015625 166.34375 16.308594 C 165.976562 16.605469 164.871094 16.605469 164.503906 16.308594 C 164.136719 16.015625 163.992188 14.546875 164.285156 14.179688 C 164.578125 13.8125 166.046875 13.738281 166.414062 14.03125 C 166.78125 14.328125 166.929688 15.429688 166.710938 15.796875 C 166.414062 16.238281 165.386719 16.53125 164.652344 16.382812 C 163.695312 16.238281 162.152344 15.207031 161.417969 14.328125 C 160.757812 13.59375 160.097656 12.195312 160.316406 11.535156 C 160.464844 11.09375 161.199219 10.800781 161.785156 10.800781 C 162.59375 10.726562 164.136719 11.460938 164.726562 12.050781 C 165.238281 12.5625 165.679688 13.445312 165.460938 13.886719 C 165.238281 14.328125 163.402344 14.695312 163.402344 14.695312 " clip-rule="nonzero"></path></clipPath></defs><g clip-path="url(#3beedaeceb)"><g clip-path="url(#a95de5b15a)"><path fill="#000000" d="M 2.359375 6.246094 L 22.636719 6.246094 L 22.636719 44.582031 L 2.359375 44.582031 Z M 2.359375 6.246094 " fill-opacity="1" fill-rule="nonzero"></path></g></g><g clip-path="url(#9eb9ca655d)"><g clip-path="url(#c919adaba3)"><path fill="#000000" d="M 15.730469 11.609375 L 74.859375 11.609375 L 74.859375 45.625 L 15.730469 45.625 Z M 15.730469 11.609375 " fill-opacity="1" fill-rule="nonzero"></path></g></g><g clip-path="url(#4f2bfb2762)"><g clip-path="url(#9d2938b304)"><path fill="#000000" d="M 46.144531 11.902344 L 94.945312 11.902344 L 94.945312 40.554688 L 46.144531 40.554688 Z M 46.144531 11.902344 " fill-opacity="1" fill-rule="nonzero"></path></g></g><g clip-path="url(#6a51a14048)"><g clip-path="url(#c851ca9237)"><path fill="#000000" d="M 73.917969 21.304688 L 102.28125 21.304688 L 102.28125 46.433594 L 73.917969 46.433594 Z M 73.917969 21.304688 " fill-opacity="1" fill-rule="nonzero"></path></g></g><g clip-path="url(#d8ea94d407)"><g clip-path="url(#b13b93463b)"><path fill="#000000" d="M 96.472656 8.523438 L 126.59375 8.523438 L 126.59375 43.234375 L 96.472656 43.234375 Z M 96.472656 8.523438 " fill-opacity="1" fill-rule="nonzero"></path></g></g><g clip-path="url(#a829607211)"><g clip-path="url(#52be4d793c)"><path fill="#000000" d="M 114.691406 8.890625 L 158.496094 8.890625 L 158.496094 44.375 L 114.691406 44.375 Z M 114.691406 8.890625 " fill-opacity="1" fill-rule="nonzero"></path></g></g><g clip-path="url(#e249049958)"><g clip-path="url(#24c6afa58e)"><path fill="#000000" d="M 135.042969 9.769531 L 175.699219 9.769531 L 175.699219 44.007812 L 135.042969 44.007812 Z M 135.042969 9.769531 " fill-opacity="1" fill-rule="nonzero"></path></g></g><g clip-path="url(#80550f3b66)"><g clip-path="url(#37405c1c74)"><path fill="#000000" d="M 168.398438 0 L 234.128906 0 L 234.128906 43.933594 L 168.398438 43.933594 Z M 168.398438 0 " fill-opacity="1" fill-rule="nonzero"></path></g></g><g clip-path="url(#38b3c7c32d)"><g clip-path="url(#b7353128bb)"><path fill="#000000" d="M 157.378906 7.859375 L 169.722656 7.859375 L 169.722656 19.394531 L 157.378906 19.394531 Z M 157.378906 7.859375 " fill-opacity="1" fill-rule="nonzero"></path></g></g></svg>