<svg xmlns="http://www.w3.org/2000/svg" xmlns:xlink="http://www.w3.org/1999/xlink" width="281" viewBox="0 0 210.75 323.999988" height="432" preserveAspectRatio="xMidYMid meet"><defs><clipPath id="e6a7bf5891"><path d="M 0.1875 0.191406 L 209.75 0.191406 L 209.75 323.808594 L 0.1875 323.808594 Z M 0.1875 0.191406 " clip-rule="nonzero"></path></clipPath></defs><g clip-path="url(#e6a7bf5891)"><path fill="#000000" d="M 124.25 244.09375 C 123.96875 240.03125 123.726562 235.964844 123.394531 231.90625 C 122.226562 217.554688 120.613281 203.257812 118.347656 189.03125 C 115.59375 171.710938 113.414062 154.324219 113.8125 136.746094 C 113.929688 131.492188 114.90625 126.257812 115.492188 121.015625 C 115.613281 119.949219 116.003906 119.558594 117.257812 119.691406 C 121.234375 120.117188 125.1875 119.714844 129.066406 118.714844 C 130.457031 118.355469 131.972656 118.136719 133.167969 117.414062 C 139.363281 113.675781 141.933594 107.320312 140.457031 99.773438 C 139.660156 95.671875 138.058594 91.886719 135.808594 88.386719 C 133.082031 84.148438 128.925781 81.875 124.382812 80.164062 C 123.253906 79.738281 122.097656 79.390625 120.945312 79.027344 C 119.460938 78.5625 118.050781 78.304688 116.867188 76.886719 C 115.144531 74.824219 111.445312 75.042969 109.273438 76.792969 C 108.765625 77.203125 108.070312 77.59375 107.445312 77.621094 C 101.757812 77.886719 96.324219 79.261719 90.992188 81.152344 C 90.761719 81.230469 90.523438 81.277344 90.179688 81.371094 C 90.398438 78.574219 90.648438 75.878906 90.8125 73.175781 C 91.121094 68.152344 91.390625 63.125 91.648438 58.097656 C 91.742188 56.199219 91.699219 56.277344 93.671875 56.4375 C 97.574219 56.757812 101.480469 57.023438 105.390625 57.207031 C 106.632812 57.265625 107.90625 57.078125 109.136719 56.867188 C 112.6875 56.253906 115.257812 53.304688 115.742188 49.378906 C 115.804688 48.878906 115.886719 48.363281 115.828125 47.875 C 115.195312 42.695312 114.980469 37.414062 113.78125 32.367188 C 111.71875 23.675781 106.152344 17.203125 99.140625 11.929688 C 95.125 8.90625 90.6875 6.707031 85.882812 5.21875 C 85.375 5.0625 84.78125 4.503906 84.625 4.007812 C 83.929688 1.808594 82.34375 0.773438 80.238281 0.351562 C 78.0625 -0.0820312 76.050781 0.3125 74.671875 2.144531 C 73.933594 3.128906 73.144531 3.355469 72.011719 3.375 C 62.9375 3.539062 54.46875 5.726562 47.246094 11.476562 C 41.113281 16.355469 36.863281 22.636719 34.386719 30.082031 C 33.394531 33.054688 33.488281 36.210938 31.703125 39.140625 C 29.953125 42.023438 30.769531 45.609375 32.308594 48.707031 C 35.316406 54.761719 40.167969 58.496094 46.851562 59.480469 C 51.0625 60.101562 55.339844 60.324219 59.59375 60.554688 C 61.003906 60.628906 62.445312 60.171875 63.984375 59.945312 C 64.023438 60.328125 64.117188 60.707031 64.09375 61.082031 C 63.058594 79.570312 60.625 97.839844 53.179688 114.953125 C 46.9375 129.289062 40.070312 143.355469 33.265625 157.441406 C 26.789062 170.84375 19.65625 183.941406 14.285156 197.859375 C 8.570312 212.671875 3.714844 227.742188 1.585938 243.554688 C -0.609375 259.886719 -0.433594 276.136719 4.195312 292.058594 C 6.027344 298.359375 8.78125 304.394531 11.066406 310.566406 C 13.476562 317.058594 18.230469 320.40625 24.933594 321.601562 C 32.089844 322.875 39.277344 323.566406 46.527344 323.6875 C 51.5 323.773438 56.492188 323.945312 61.441406 323.605469 C 64.808594 323.375 68.148438 322.445312 71.441406 321.597656 C 73.3125 321.117188 74.820312 319.898438 75.871094 318.160156 C 76.09375 317.785156 76.855469 317.578125 77.375 317.570312 C 83.054688 317.480469 88.742188 317.527344 94.417969 317.371094 C 98.839844 317.25 103.253906 316.855469 107.671875 316.671875 C 108.390625 316.644531 109.269531 316.898438 109.824219 317.339844 C 112.109375 319.148438 114.761719 319.871094 117.550781 319.996094 C 129.171875 320.527344 140.78125 320.257812 152.339844 318.90625 C 154.804688 318.617188 157.230469 317.792969 159.601562 316.996094 C 160.457031 316.710938 161.277344 315.914062 161.8125 315.140625 C 163.953125 312.054688 164.789062 308.53125 164.632812 304.832031 C 164.273438 296.183594 163.964844 287.527344 163.347656 278.894531 C 161.988281 259.96875 164.253906 241.429688 168.714844 223.066406 C 172.457031 207.675781 176.121094 192.257812 179.578125 176.800781 C 182.445312 163.988281 182.546875 150.925781 182.398438 137.871094 C 182.292969 128.296875 181.4375 118.773438 179.917969 109.3125 C 179.800781 108.574219 179.71875 107.804688 179.777344 107.058594 C 180.390625 99.183594 181.027344 91.308594 181.675781 83.433594 C 182.101562 78.265625 182.59375 73.105469 182.96875 67.933594 C 183.054688 66.726562 183.460938 66.261719 184.667969 66.234375 C 188.015625 66.148438 191.289062 66.332031 194.296875 68.058594 C 195.6875 68.855469 197.101562 68.453125 198.320312 67.726562 C 203.023438 64.910156 206.75 61.15625 208.441406 55.816406 C 210.914062 48 210.109375 40.273438 207.097656 32.78125 C 206.453125 31.171875 205.078125 29.808594 203.875 28.484375 C 202.695312 27.1875 201.324219 26.058594 200.003906 24.898438 C 198.695312 23.753906 197.886719 22.574219 197.796875 20.613281 C 197.621094 16.792969 192.382812 14.109375 188.988281 15.808594 C 188.601562 16 187.992188 16.082031 187.617188 15.917969 C 179.023438 12.113281 170.433594 13.015625 161.863281 15.917969 C 154.132812 18.539062 146.933594 22.160156 140.660156 27.464844 C 135.886719 31.5 132.773438 36.734375 130.546875 42.4375 C 129.542969 45.007812 129.21875 47.90625 128.960938 50.691406 C 128.503906 55.578125 132.023438 60.46875 137.054688 62.425781 C 137.84375 62.734375 138.558594 63.261719 139.363281 63.5 C 140.785156 63.921875 142.25 64.472656 143.695312 64.472656 C 146.921875 64.476562 150.089844 64.519531 153.246094 65.429688 C 154.769531 65.867188 155.101562 66.523438 154.980469 67.945312 C 154.527344 73.210938 153.90625 78.480469 153.8125 83.753906 C 153.652344 92.707031 153.671875 101.671875 153.933594 110.621094 C 154.265625 122.089844 153.226562 133.453125 151.765625 144.789062 C 149.90625 159.242188 146.132812 173.308594 143.132812 187.535156 C 139.558594 204.492188 133.816406 220.734375 127.445312 236.789062 C 126.46875 239.246094 125.554688 241.726562 124.613281 244.195312 C 124.492188 244.160156 124.371094 244.125 124.25 244.09375 Z M 87.835938 46.523438 C 87.882812 47.460938 87.921875 47.949219 87.925781 48.4375 C 88.039062 59.277344 87.023438 70.050781 86.050781 80.832031 C 85.828125 83.285156 85.183594 85.339844 83.238281 86.980469 C 82.375 87.707031 81.738281 88.742188 81.128906 89.71875 C 78.0625 94.625 76.289062 99.890625 77.089844 105.753906 C 77.351562 107.660156 78.027344 109.550781 79.75 110.644531 C 80.691406 111.238281 80.757812 111.769531 80.511719 112.726562 C 78.910156 119.011719 76.136719 124.820312 73.382812 130.644531 C 67.753906 142.554688 61.84375 154.347656 56.554688 166.410156 C 47.195312 187.773438 42.476562 210.113281 43.660156 233.550781 C 44.222656 244.769531 46.042969 255.742188 49.808594 266.363281 C 52.8125 274.828125 56.683594 282.910156 60.96875 290.769531 C 62.820312 294.171875 63.074219 297.132812 61.566406 300.667969 C 60.015625 304.3125 59.015625 308.183594 58.984375 312.234375 C 58.96875 314.808594 59.945312 316.375 62.351562 317.121094 C 63 317.324219 63.730469 317.308594 64.425781 317.316406 C 66.527344 317.335938 68.628906 317.324219 70.734375 317.324219 C 70.75 317.542969 70.765625 317.761719 70.78125 317.980469 C 69.199219 318.394531 67.625 319.085938 66.023438 319.175781 C 60.511719 319.484375 54.988281 319.789062 49.472656 319.710938 C 41.683594 319.601562 33.894531 319.175781 26.222656 317.621094 C 22.0625 316.78125 18.117188 315.691406 16.019531 311.34375 C 11.898438 302.789062 8.453125 294.011719 6.554688 284.679688 C 3.121094 267.78125 3.816406 250.910156 7.394531 234.160156 C 11.484375 215.019531 18.394531 196.847656 26.980469 179.292969 C 35.644531 161.582031 44.390625 143.914062 52.914062 126.132812 C 63.894531 103.234375 68.488281 78.96875 67.820312 53.640625 C 67.796875 52.703125 67.820312 51.757812 67.820312 50.480469 C 74.390625 49.179688 81.007812 47.871094 87.835938 46.523438 Z M 116.066406 315.679688 C 116.027344 315.542969 115.988281 315.40625 115.949219 315.269531 C 119.136719 313.878906 120.148438 311.234375 120.328125 308.074219 C 120.402344 306.820312 120.617188 305.574219 120.792969 304.332031 C 123 288.667969 124.632812 272.960938 124.492188 257.109375 C 124.484375 256.1875 124.765625 255.21875 125.097656 254.339844 C 126.761719 249.917969 128.554688 245.539062 130.175781 241.101562 C 134.160156 230.191406 138.453125 219.371094 141.925781 208.300781 C 146.867188 192.546875 150 176.316406 153.300781 160.15625 C 156.652344 143.746094 158.628906 127.140625 157.964844 110.359375 C 157.398438 96.054688 157.597656 81.78125 158.664062 67.511719 C 158.738281 66.535156 158.960938 66.160156 160.011719 66.015625 C 162.292969 65.707031 164.558594 65.238281 166.804688 64.714844 C 169.957031 63.976562 173.09375 63.925781 176.179688 64.898438 C 179.347656 65.898438 179.324219 65.96875 179.117188 69.257812 C 179.09375 69.660156 179.050781 70.058594 179.011719 70.460938 C 178.078125 79.871094 177.066406 89.277344 176.25 98.699219 C 175.917969 102.546875 175.503906 106.496094 175.996094 110.285156 C 177.222656 119.78125 178.269531 129.273438 178.351562 138.851562 C 178.460938 151.804688 178.183594 164.75 175.28125 177.449219 C 171.96875 191.960938 168.546875 206.445312 165.019531 220.90625 C 161.144531 236.808594 158.464844 252.859375 158.929688 269.285156 C 159.164062 277.582031 159.925781 285.863281 160.261719 294.160156 C 160.453125 298.875 160.714844 303.664062 160.109375 308.3125 C 159.523438 312.84375 158.355469 314.132812 154.234375 314.738281 C 153.242188 314.882812 152.257812 315.191406 151.265625 315.222656 C 140.867188 315.527344 130.46875 315.808594 120.066406 316.046875 C 118.738281 316.074219 117.398438 315.808594 116.066406 315.679688 Z M 93.929688 175.546875 C 93.726562 175.546875 93.519531 175.542969 93.316406 175.542969 C 93.316406 161.753906 93.320312 147.964844 93.3125 134.171875 C 93.3125 127.785156 94.34375 121.554688 96.046875 115.417969 C 96.347656 114.328125 96.660156 113.597656 98.09375 114.074219 C 102.378906 115.503906 106.699219 116.847656 111.023438 118.15625 C 112.085938 118.476562 112.078125 119.015625 111.914062 119.941406 C 111.234375 123.804688 110.347656 127.660156 110.082031 131.554688 C 109.234375 144.042969 109.882812 156.519531 111.433594 168.917969 C 113.394531 184.59375 115.75 200.214844 117.707031 215.890625 C 119.265625 228.375 120.324219 240.917969 120.285156 253.523438 C 120.28125 254.550781 120.0625 255.621094 119.726562 256.59375 C 116.863281 264.859375 113.742188 273.042969 111.109375 281.378906 C 108.261719 290.398438 107.976562 299.78125 108.066406 309.171875 C 108.101562 312.714844 108.082031 312.785156 104.511719 312.875 C 95.316406 313.101562 86.117188 313.261719 76.921875 313.445312 C 76.109375 313.460938 75.460938 313.464844 75.046875 312.425781 C 73.351562 308.128906 71.609375 303.839844 69.703125 299.632812 C 67.316406 294.359375 67.25 294.269531 70.453125 289.386719 C 70.5625 289.21875 70.667969 289.050781 70.789062 288.886719 C 76.425781 281.164062 81.0625 272.867188 84.386719 263.914062 C 90.074219 248.574219 92.40625 232.546875 93.078125 216.300781 C 93.636719 202.726562 93.664062 189.132812 93.929688 175.546875 Z M 65.074219 289.972656 C 64.023438 287.890625 62.964844 285.796875 61.902344 283.703125 C 56.773438 273.632812 52.3125 263.296875 50.082031 252.152344 C 45.976562 231.601562 46.984375 211.210938 52.300781 190.996094 C 56.210938 176.128906 62.566406 162.230469 69.207031 148.4375 C 73.328125 139.878906 77.359375 131.269531 81.226562 122.589844 C 82.667969 119.359375 83.523438 115.867188 84.675781 112.410156 C 87.261719 112.664062 89.921875 112.925781 92.636719 113.195312 C 92.585938 113.605469 92.59375 113.808594 92.535156 113.992188 C 89.546875 123.582031 89.09375 133.445312 89.167969 143.40625 C 89.332031 164.492188 89.472656 185.585938 89.347656 206.671875 C 89.253906 222.160156 87.5625 237.496094 83.726562 252.558594 C 80.214844 266.347656 73.429688 278.46875 65.074219 289.972656 Z M 119.886719 267.921875 C 120.007812 267.945312 120.125 267.972656 120.242188 267.996094 C 120.097656 270.777344 120.085938 273.570312 119.785156 276.328125 C 118.589844 287.167969 117.3125 298 116.054688 308.832031 C 115.769531 311.292969 115.308594 311.722656 112.878906 312.257812 C 111.757812 312.503906 111.246094 312.207031 111.320312 311.011719 C 111.441406 309.058594 111.519531 307.105469 111.621094 305.152344 C 111.765625 302.492188 111.734375 299.808594 112.089844 297.179688 C 113.210938 288.890625 115.175781 280.796875 118.039062 272.929688 C 118.648438 271.257812 119.269531 269.589844 119.886719 267.921875 Z M 200.566406 40.058594 C 202.320312 40.1875 203.4375 40.824219 203.898438 42.113281 C 205.023438 45.238281 203.464844 51.121094 200.964844 53.269531 C 200.265625 53.875 199.691406 53.957031 198.839844 53.402344 C 197.726562 52.675781 196.503906 52.007812 195.230469 51.65625 C 192.8125 50.988281 192.007812 49.738281 192.949219 47.324219 C 193.917969 44.847656 195.414062 42.710938 197.707031 41.285156 C 198.578125 40.746094 199.609375 40.460938 200.566406 40.058594 Z M 136.550781 53.171875 C 135.625 52.964844 134.351562 53.035156 134.023438 52.511719 C 133.554688 51.765625 133.417969 50.429688 133.765625 49.613281 C 134.757812 47.289062 138.460938 46.332031 140.828125 47.574219 C 142.71875 48.566406 143.652344 52.207031 142.546875 54.289062 C 142.019531 55.285156 138.917969 56.730469 137.839844 56.488281 C 136.308594 56.140625 135.875 54.804688 136.550781 53.171875 Z M 65.125 11.628906 C 65.429688 14.015625 64.871094 14.960938 62.894531 15.164062 C 61.25 15.335938 59.394531 14.199219 58.800781 12.660156 C 57.820312 10.109375 58.367188 9.035156 60.964844 8.375 C 61.304688 8.289062 61.625 8.144531 61.957031 8.03125 C 64.285156 7.230469 67.929688 8.546875 68.976562 10.75 C 69.269531 11.367188 69.160156 12.507812 68.753906 13.027344 C 68.339844 13.554688 67.296875 13.851562 66.585938 13.765625 C 66.167969 13.714844 65.867188 12.722656 65.503906 12.15625 C 65.390625 11.976562 65.253906 11.804688 65.125 11.628906 Z M 65.589844 301.394531 C 65.757812 301.382812 65.925781 301.367188 66.09375 301.355469 C 67.773438 305.265625 69.449219 309.175781 71.3125 313.519531 C 68.664062 313.3125 66.570312 313.226562 64.507812 312.925781 C 64.058594 312.859375 63.421875 312.042969 63.378906 311.53125 C 63.074219 307.925781 64.5625 304.707031 65.589844 301.394531 Z M 105 51.546875 C 104.832031 51.40625 104.660156 51.269531 104.492188 51.128906 C 105.109375 51.410156 105.707031 51.738281 106.34375 51.960938 C 106.925781 52.167969 107.546875 52.269531 108.511719 52.503906 C 107.949219 52.902344 107.875 52.992188 107.789062 53.007812 C 102.609375 53.824219 97.476562 53.132812 92.34375 52.503906 C 92.105469 52.476562 91.921875 52.019531 91.710938 51.765625 C 94.34375 52.53125 95.210938 51.953125 95.375 49.316406 C 95.425781 48.476562 95.488281 47.640625 95.546875 46.804688 C 95.71875 46.742188 95.886719 46.683594 96.058594 46.621094 C 96.265625 47.023438 96.625 47.417969 96.644531 47.832031 C 96.679688 48.523438 96.453125 49.222656 96.417969 49.921875 C 96.363281 51.035156 96.714844 51.972656 97.96875 52.113281 C 99.261719 52.257812 99.902344 51.488281 100.089844 50.28125 C 100.222656 49.421875 100.335938 48.5625 100.457031 47.703125 C 100.617188 47.71875 100.773438 47.734375 100.929688 47.75 C 100.847656 48.742188 100.710938 49.730469 100.691406 50.726562 C 100.664062 52.175781 101.800781 53.105469 103.027344 52.632812 C 103.722656 52.363281 104.34375 51.914062 105 51.546875 Z M 49.128906 30.898438 C 48.828125 33.539062 47.570312 34.453125 45.179688 33.769531 C 44.878906 33.683594 44.503906 33.875 44.191406 33.8125 C 43.699219 33.714844 43.042969 33.640625 42.792969 33.304688 C 42.53125 32.957031 42.457031 32.1875 42.671875 31.820312 C 43.21875 30.882812 43.820312 29.820312 44.691406 29.273438 C 45.527344 28.746094 46.8125 28.484375 47.738281 28.726562 C 48.347656 28.882812 48.675781 30.136719 49.128906 30.898438 Z M 176.15625 17.667969 C 177.796875 17.667969 179.289062 18.9375 179.257812 20.3125 C 179.226562 21.789062 178.128906 22.863281 176.652344 22.859375 C 174.90625 22.851562 173.332031 21.691406 173.34375 20.417969 C 173.359375 18.933594 174.652344 17.671875 176.15625 17.667969 Z M 82.515625 4.902344 C 82.519531 7.140625 81.75 7.804688 80.074219 7.554688 C 79.679688 7.496094 79.246094 7.449219 78.914062 7.257812 C 78.179688 6.832031 76.898438 6.277344 76.925781 5.847656 C 76.984375 5.050781 77.652344 3.957031 78.363281 3.632812 C 79.183594 3.257812 80.375 3.398438 81.300781 3.671875 C 81.898438 3.851562 82.308594 4.671875 82.515625 4.902344 Z M 190.476562 27.136719 C 190.964844 26.421875 191.15625 25.828125 191.558594 25.605469 C 192.578125 25.035156 194.972656 25.648438 195.761719 26.542969 C 196.742188 27.667969 196.464844 29.019531 195.257812 29.871094 C 194.136719 30.660156 193.257812 29.960938 192.515625 29.453125 C 191.722656 28.914062 191.191406 27.980469 190.476562 27.136719 Z M 106.925781 99.878906 C 108.550781 99.984375 109.761719 100.761719 109.6875 101.832031 C 109.585938 103.332031 108.4375 103.679688 107.160156 103.820312 C 106.792969 103.859375 106.441406 104.082031 106.089844 104.242188 C 105.023438 104.726562 103.925781 104.046875 103.871094 102.863281 C 103.820312 101.777344 105.835938 99.808594 106.925781 99.878906 Z M 51.15625 56.164062 C 51.617188 55.515625 51.890625 55.128906 52.171875 54.738281 C 53.847656 56.128906 54.273438 56.113281 55.902344 54.65625 C 57.757812 55.605469 58.222656 55.488281 59.460938 53.757812 C 60.394531 55.378906 61.515625 56.003906 62.300781 55.105469 C 63.046875 54.253906 63.289062 52.957031 63.925781 51.449219 C 64.007812 52.398438 64.019531 52.972656 64.117188 53.527344 C 64.355469 54.832031 63.871094 55.421875 62.5625 55.863281 C 58.882812 57.105469 55.230469 56.339844 51.15625 56.164062 Z M 85.113281 18.546875 C 83.691406 17.988281 82.433594 17.546875 81.234375 16.980469 C 80.898438 16.820312 80.527344 16.257812 80.570312 15.929688 C 80.609375 15.640625 81.210938 15.183594 81.53125 15.210938 C 82.9375 15.324219 84.363281 15.46875 85.710938 15.851562 C 86.203125 15.992188 86.503906 16.816406 86.894531 17.328125 C 86.332031 17.710938 85.769531 18.097656 85.113281 18.546875 Z M 134.410156 93.601562 C 134.195312 93.859375 133.800781 94.613281 133.179688 94.9375 C 132.9375 95.066406 131.773438 94.25 131.757812 93.835938 C 131.714844 92.816406 131.28125 92.617188 130.4375 92.441406 C 130.109375 92.375 129.648438 91.679688 129.707031 91.355469 C 129.785156 90.917969 130.25 90.320312 130.65625 90.21875 C 132.546875 89.75 134.308594 91.140625 134.410156 93.601562 Z M 170.539062 38.515625 C 171.617188 38.625 172.03125 39.433594 172.03125 40.574219 C 172.03125 41.855469 171.179688 42.679688 169.796875 42.660156 C 168.765625 42.644531 168.058594 42.113281 167.960938 41.050781 C 167.875 40.09375 169.445312 38.492188 170.539062 38.515625 Z M 132.074219 101.789062 C 132.777344 101.917969 133.847656 101.746094 133.898438 103.066406 C 133.941406 104.175781 132.613281 105.601562 131.554688 105.589844 C 130.351562 105.574219 129.921875 104.792969 129.882812 103.722656 C 129.839844 102.386719 130.503906 101.777344 132.074219 101.789062 Z M 98.601562 88.535156 C 98.570312 87.449219 99.613281 86.652344 101.191406 86.6875 C 101.988281 86.707031 103.007812 86.609375 103.082031 87.859375 C 103.136719 88.808594 101.652344 89.988281 100.402344 90.019531 C 99.382812 90.046875 98.625 89.734375 98.601562 88.535156 Z M 114.195312 78.035156 C 114.378906 78.199219 115.113281 78.550781 115.292969 79.089844 C 115.554688 79.878906 113.578125 81.632812 112.558594 81.664062 C 111.457031 81.699219 111.074219 80.964844 111.007812 80.042969 C 110.925781 78.851562 112 78.070312 114.195312 78.035156 Z M 65.925781 27.574219 C 64.148438 27.578125 62.753906 26.601562 63.148438 25.941406 C 63.648438 25.109375 64.613281 24.457031 65.511719 23.996094 C 66.113281 23.6875 67.339844 25.089844 67.089844 25.925781 C 66.871094 26.636719 66.199219 27.207031 65.925781 27.574219 Z M 158.027344 29.964844 C 158.167969 28.292969 158.695312 27.511719 159.910156 27.453125 C 161.015625 27.402344 161.566406 28.042969 161.621094 29.105469 C 161.675781 30.203125 160.695312 31.546875 159.851562 31.296875 C 159.085938 31.070312 158.476562 30.3125 158.027344 29.964844 Z M 195.753906 19.710938 C 195.457031 20.25 195.351562 20.6875 195.074219 20.871094 C 194.878906 21 194.199219 20.828125 194.171875 20.699219 C 193.863281 19.226562 192.570312 19.269531 191.550781 18.855469 C 191.28125 18.746094 191.046875 18.410156 190.929688 18.125 C 190.878906 17.996094 191.1875 17.542969 191.277344 17.558594 C 192.335938 17.738281 193.4375 17.847656 194.417969 18.246094 C 194.957031 18.464844 195.296875 19.183594 195.753906 19.710938 Z M 190.640625 23.925781 C 189.796875 23.015625 188.832031 22.113281 188.902344 22.023438 C 189.566406 21.183594 190.402344 20.476562 191.191406 19.734375 C 191.414062 20.511719 191.800781 21.285156 191.804688 22.066406 C 191.808594 22.546875 191.230469 23.027344 190.640625 23.925781 Z M 107.117188 35.761719 C 106.894531 35.777344 106.667969 35.792969 106.441406 35.808594 C 105.957031 35.226562 105.058594 34.609375 105.101562 34.070312 C 105.148438 33.476562 106.058594 32.949219 106.59375 32.390625 C 107.109375 32.96875 107.851562 33.480469 108.050781 34.148438 C 108.171875 34.558594 107.457031 35.214844 107.121094 35.761719 Z M 125.667969 85.671875 C 126.679688 85.082031 127.195312 84.574219 127.765625 84.496094 C 128.8125 84.355469 129.410156 85.121094 129.277344 86.054688 C 129.207031 86.570312 128.332031 87.453125 128.101562 87.371094 C 127.363281 87.109375 126.75 86.476562 125.664062 85.671875 Z M 94.484375 19.921875 C 94.496094 19.710938 94.507812 19.503906 94.523438 19.292969 C 94.957031 18.992188 95.386719 18.445312 95.832031 18.429688 C 96.882812 18.398438 97.707031 18.957031 97.652344 20.125 C 97.636719 20.484375 96.945312 21.167969 96.769531 21.105469 C 95.96875 20.828125 95.238281 20.335938 94.484375 19.921875 Z M 85.4375 92.40625 C 86.328125 91.707031 86.863281 91.035156 87.523438 90.875 C 87.851562 90.792969 88.410156 91.648438 88.867188 92.078125 C 88.21875 92.632812 87.613281 93.257812 86.894531 93.683594 C 86.757812 93.761719 86.15625 93.050781 85.4375 92.410156 Z M 68.917969 8.183594 C 68.910156 8 68.902344 7.820312 68.894531 7.636719 C 69.417969 7.285156 69.960938 6.644531 70.460938 6.675781 C 70.914062 6.707031 71.484375 7.40625 71.679688 7.933594 C 71.769531 8.167969 71.035156 9.046875 70.734375 9.019531 C 70.109375 8.957031 69.519531 8.488281 68.917969 8.183594 Z M 94.65625 15.980469 C 95.53125 15.277344 96.175781 14.53125 96.382812 14.636719 C 97.007812 14.957031 97.507812 15.574219 97.933594 16.167969 C 97.992188 16.25 97.269531 17.179688 97.035156 17.128906 C 96.359375 16.984375 95.75 16.539062 94.65625 15.980469 Z M 41.441406 53.605469 C 41.5 53.441406 41.5625 53.277344 41.621094 53.117188 C 43.210938 53.507812 45.175781 52.894531 46.324219 55.425781 C 44.488281 54.742188 42.964844 54.171875 41.441406 53.605469 Z M 100.730469 20.074219 C 100.128906 19.269531 99.609375 18.808594 99.4375 18.246094 C 99.367188 18 100.015625 17.539062 100.335938 17.179688 C 100.777344 17.65625 101.3125 18.082031 101.605469 18.640625 C 101.707031 18.828125 101.195312 19.34375 100.730469 20.074219 Z M 101.605469 21.351562 C 102.1875 20.871094 102.636719 20.34375 102.769531 20.414062 C 103.324219 20.707031 103.777344 21.183594 104.269531 21.589844 C 103.953125 21.902344 103.550781 22.527344 103.34375 22.46875 C 102.800781 22.3125 102.34375 21.859375 101.605469 21.351562 Z M 202.914062 55.746094 C 203.511719 55.238281 203.929688 54.882812 204.34375 54.527344 C 204.609375 54.960938 205.089844 55.410156 205.066406 55.828125 C 205.046875 56.191406 204.492188 56.703125 204.09375 56.792969 C 203.847656 56.851562 203.449219 56.246094 202.914062 55.746094 Z M 202.914062 55.746094 " fill-opacity="1" fill-rule="nonzero"></path><path fill="#000000" d="M 124.25 244.09375 C 123.96875 240.03125 123.726562 235.964844 123.394531 231.90625 C 122.226562 217.554688 120.613281 203.257812 118.347656 189.03125 C 115.59375 171.710938 113.414062 154.324219 113.8125 136.746094 C 113.929688 131.492188 114.90625 126.257812 115.492188 121.015625 C 115.613281 119.949219 116.003906 119.558594 117.257812 119.691406 C 121.234375 120.117188 125.1875 119.714844 129.066406 118.714844 C 130.457031 118.355469 131.972656 118.136719 133.167969 117.414062 C 139.363281 113.675781 141.933594 107.320312 140.457031 99.773438 C 139.660156 95.671875 138.058594 91.886719 135.808594 88.386719 C 133.082031 84.148438 128.925781 81.875 124.382812 80.164062 C 123.253906 79.738281 122.097656 79.390625 120.945312 79.027344 C 119.460938 78.5625 118.050781 78.304688 116.867188 76.886719 C 115.144531 74.824219 111.445312 75.042969 109.273438 76.792969 C 108.765625 77.203125 108.070312 77.59375 107.445312 77.621094 C 101.757812 77.886719 96.324219 79.261719 90.992188 81.152344 C 90.761719 81.230469 90.523438 81.277344 90.179688 81.371094 C 90.398438 78.574219 90.648438 75.878906 90.8125 73.175781 C 91.121094 68.152344 91.390625 63.125 91.648438 58.097656 C 91.742188 56.199219 91.699219 56.277344 93.671875 56.4375 C 97.574219 56.757812 101.480469 57.023438 105.390625 57.207031 C 106.632812 57.265625 107.90625 57.078125 109.136719 56.867188 C 112.6875 56.253906 115.257812 53.304688 115.742188 49.378906 C 115.804688 48.878906 115.886719 48.363281 115.828125 47.875 C 115.195312 42.695312 114.980469 37.414062 113.78125 32.367188 C 111.71875 23.675781 106.152344 17.203125 99.140625 11.929688 C 95.125 8.90625 90.6875 6.707031 85.882812 5.21875 C 85.375 5.0625 84.78125 4.503906 84.625 4.007812 C 83.929688 1.808594 82.34375 0.773438 80.238281 0.351562 C 78.0625 -0.0820312 76.050781 0.3125 74.671875 2.144531 C 73.933594 3.128906 73.144531 3.355469 72.011719 3.375 C 62.9375 3.539062 54.46875 5.726562 47.246094 11.476562 C 41.113281 16.355469 36.863281 22.636719 34.386719 30.082031 C 33.394531 33.054688 33.488281 36.210938 31.703125 39.140625 C 29.953125 42.023438 30.769531 45.609375 32.308594 48.707031 C 35.316406 54.761719 40.167969 58.496094 46.851562 59.480469 C 51.0625 60.101562 55.339844 60.324219 59.59375 60.554688 C 61.003906 60.628906 62.445312 60.171875 63.984375 59.945312 C 64.023438 60.328125 64.117188 60.707031 64.09375 61.082031 C 63.058594 79.570312 60.625 97.839844 53.179688 114.953125 C 46.9375 129.289062 40.070312 143.355469 33.265625 157.441406 C 26.789062 170.84375 19.65625 183.941406 14.285156 197.859375 C 8.570312 212.671875 3.714844 227.742188 1.585938 243.554688 C -0.609375 259.886719 -0.433594 276.136719 4.195312 292.058594 C 6.027344 298.359375 8.78125 304.394531 11.066406 310.566406 C 13.476562 317.058594 18.230469 320.40625 24.933594 321.601562 C 32.089844 322.875 39.277344 323.566406 46.527344 323.6875 C 51.5 323.773438 56.492188 323.945312 61.441406 323.605469 C 64.808594 323.375 68.148438 322.445312 71.441406 321.597656 C 73.3125 321.117188 74.820312 319.898438 75.871094 318.160156 C 76.09375 317.785156 76.855469 317.578125 77.375 317.570312 C 83.054688 317.480469 88.742188 317.527344 94.417969 317.371094 C 98.839844 317.25 103.253906 316.855469 107.671875 316.671875 C 108.390625 316.644531 109.269531 316.898438 109.824219 317.339844 C 112.109375 319.148438 114.761719 319.871094 117.550781 319.996094 C 129.171875 320.527344 140.78125 320.257812 152.339844 318.90625 C 154.804688 318.617188 157.230469 317.792969 159.601562 316.996094 C 160.457031 316.710938 161.277344 315.914062 161.8125 315.140625 C 163.953125 312.054688 164.789062 308.53125 164.632812 304.832031 C 164.273438 296.183594 163.964844 287.527344 163.347656 278.894531 C 161.988281 259.96875 164.253906 241.429688 168.714844 223.066406 C 172.457031 207.675781 176.121094 192.257812 179.578125 176.800781 C 182.445312 163.988281 182.546875 150.925781 182.398438 137.871094 C 182.292969 128.296875 181.4375 118.773438 179.917969 109.3125 C 179.800781 108.574219 179.71875 107.804688 179.777344 107.058594 C 180.390625 99.183594 181.027344 91.308594 181.675781 83.433594 C 182.101562 78.265625 182.59375 73.105469 182.96875 67.933594 C 183.054688 66.726562 183.460938 66.261719 184.667969 66.234375 C 188.015625 66.148438 191.289062 66.332031 194.296875 68.058594 C 195.6875 68.855469 197.101562 68.453125 198.320312 67.726562 C 203.023438 64.910156 206.75 61.15625 208.441406 55.816406 C 210.914062 48 210.109375 40.273438 207.097656 32.78125 C 206.453125 31.171875 205.078125 29.808594 203.875 28.484375 C 202.695312 27.1875 201.324219 26.058594 200.003906 24.898438 C 198.695312 23.753906 197.886719 22.574219 197.796875 20.613281 C 197.621094 16.792969 192.382812 14.109375 188.988281 15.808594 C 188.601562 16 187.992188 16.082031 187.617188 15.917969 C 179.023438 12.113281 170.433594 13.015625 161.863281 15.917969 C 154.132812 18.539062 146.933594 22.160156 140.660156 27.464844 C 135.886719 31.5 132.773438 36.734375 130.546875 42.4375 C 129.542969 45.007812 129.21875 47.90625 128.960938 50.691406 C 128.503906 55.578125 132.023438 60.46875 137.054688 62.425781 C 137.84375 62.734375 138.558594 63.261719 139.363281 63.5 C 140.785156 63.921875 142.25 64.472656 143.695312 64.472656 C 146.921875 64.476562 150.089844 64.519531 153.246094 65.429688 C 154.769531 65.867188 155.101562 66.523438 154.980469 67.945312 C 154.527344 73.210938 153.90625 78.480469 153.8125 83.753906 C 153.652344 92.707031 153.671875 101.671875 153.933594 110.621094 C 154.265625 122.089844 153.226562 133.453125 151.765625 144.789062 C 149.90625 159.242188 146.132812 173.308594 143.132812 187.535156 C 139.558594 204.492188 133.816406 220.734375 127.445312 236.789062 C 126.46875 239.246094 125.554688 241.726562 124.613281 244.195312 C 124.492188 244.160156 124.371094 244.125 124.25 244.09375 Z M 87.835938 46.523438 C 87.882812 47.460938 87.921875 47.949219 87.925781 48.4375 C 88.039062 59.277344 87.023438 70.050781 86.050781 80.832031 C 85.828125 83.285156 85.183594 85.339844 83.238281 86.980469 C 82.375 87.707031 81.738281 88.742188 81.128906 89.71875 C 78.0625 94.625 76.289062 99.890625 77.089844 105.753906 C 77.351562 107.660156 78.027344 109.550781 79.75 110.644531 C 80.691406 111.238281 80.757812 111.769531 80.511719 112.726562 C 78.910156 119.011719 76.136719 124.820312 73.382812 130.644531 C 67.753906 142.554688 61.84375 154.347656 56.554688 166.410156 C 47.195312 187.773438 42.476562 210.113281 43.660156 233.550781 C 44.222656 244.769531 46.042969 255.742188 49.808594 266.363281 C 52.8125 274.828125 56.683594 282.910156 60.96875 290.769531 C 62.820312 294.171875 63.074219 297.132812 61.566406 300.667969 C 60.015625 304.3125 59.015625 308.183594 58.984375 312.234375 C 58.96875 314.808594 59.945312 316.375 62.351562 317.121094 C 63 317.324219 63.730469 317.308594 64.425781 317.316406 C 66.527344 317.335938 68.628906 317.324219 70.734375 317.324219 C 70.75 317.542969 70.765625 317.761719 70.78125 317.980469 C 69.199219 318.394531 67.625 319.085938 66.023438 319.175781 C 60.511719 319.484375 54.988281 319.789062 49.472656 319.710938 C 41.683594 319.601562 33.894531 319.175781 26.222656 317.621094 C 22.0625 316.78125 18.117188 315.691406 16.019531 311.34375 C 11.898438 302.789062 8.453125 294.011719 6.554688 284.679688 C 3.121094 267.78125 3.816406 250.910156 7.394531 234.160156 C 11.484375 215.019531 18.394531 196.847656 26.980469 179.292969 C 35.644531 161.582031 44.390625 143.914062 52.914062 126.132812 C 63.894531 103.234375 68.488281 78.96875 67.820312 53.640625 C 67.796875 52.703125 67.820312 51.757812 67.820312 50.480469 C 74.390625 49.179688 81.007812 47.871094 87.835938 46.523438 Z M 116.066406 315.679688 C 116.027344 315.542969 115.988281 315.40625 115.949219 315.269531 C 119.136719 313.878906 120.148438 311.234375 120.328125 308.074219 C 120.402344 306.820312 120.617188 305.574219 120.792969 304.332031 C 123 288.667969 124.632812 272.960938 124.492188 257.109375 C 124.484375 256.1875 124.765625 255.21875 125.097656 254.339844 C 126.761719 249.917969 128.554688 245.539062 130.175781 241.101562 C 134.160156 230.191406 138.453125 219.371094 141.925781 208.300781 C 146.867188 192.546875 150 176.316406 153.300781 160.15625 C 156.652344 143.746094 158.628906 127.140625 157.964844 110.359375 C 157.398438 96.054688 157.597656 81.78125 158.664062 67.511719 C 158.738281 66.535156 158.960938 66.160156 160.011719 66.015625 C 162.292969 65.707031 164.558594 65.238281 166.804688 64.714844 C 169.957031 63.976562 173.09375 63.925781 176.179688 64.898438 C 179.347656 65.898438 179.324219 65.96875 179.117188 69.257812 C 179.09375 69.660156 179.050781 70.058594 179.011719 70.460938 C 178.078125 79.871094 177.066406 89.277344 176.25 98.699219 C 175.917969 102.546875 175.503906 106.496094 175.996094 110.285156 C 177.222656 119.78125 178.269531 129.273438 178.351562 138.851562 C 178.460938 151.804688 178.183594 164.75 175.28125 177.449219 C 171.96875 191.960938 168.546875 206.445312 165.019531 220.90625 C 161.144531 236.808594 158.464844 252.859375 158.929688 269.285156 C 159.164062 277.582031 159.925781 285.863281 160.261719 294.160156 C 160.453125 298.875 160.714844 303.664062 160.109375 308.3125 C 159.523438 312.84375 158.355469 314.132812 154.234375 314.738281 C 153.242188 314.882812 152.257812 315.191406 151.265625 315.222656 C 140.867188 315.527344 130.46875 315.808594 120.066406 316.046875 C 118.738281 316.074219 117.398438 315.808594 116.066406 315.679688 Z M 93.929688 175.546875 C 93.726562 175.546875 93.519531 175.542969 93.316406 175.542969 C 93.316406 161.753906 93.320312 147.964844 93.3125 134.171875 C 93.3125 127.785156 94.34375 121.554688 96.046875 115.417969 C 96.347656 114.328125 96.660156 113.597656 98.09375 114.074219 C 102.378906 115.503906 106.699219 116.847656 111.023438 118.15625 C 112.085938 118.476562 112.078125 119.015625 111.914062 119.941406 C 111.234375 123.804688 110.347656 127.660156 110.082031 131.554688 C 109.234375 144.042969 109.882812 156.519531 111.433594 168.917969 C 113.394531 184.59375 115.75 200.214844 117.707031 215.890625 C 119.265625 228.375 120.324219 240.917969 120.285156 253.523438 C 120.28125 254.550781 120.0625 255.621094 119.726562 256.59375 C 116.863281 264.859375 113.742188 273.042969 111.109375 281.378906 C 108.261719 290.398438 107.976562 299.78125 108.066406 309.171875 C 108.101562 312.714844 108.082031 312.785156 104.511719 312.875 C 95.316406 313.101562 86.117188 313.261719 76.921875 313.445312 C 76.109375 313.460938 75.460938 313.464844 75.046875 312.425781 C 73.351562 308.128906 71.609375 303.839844 69.703125 299.632812 C 67.316406 294.359375 67.25 294.269531 70.453125 289.386719 C 70.5625 289.21875 70.667969 289.050781 70.789062 288.886719 C 76.425781 281.164062 81.0625 272.867188 84.386719 263.914062 C 90.074219 248.574219 92.40625 232.546875 93.078125 216.300781 C 93.636719 202.726562 93.664062 189.132812 93.929688 175.546875 Z M 65.074219 289.972656 C 64.023438 287.890625 62.964844 285.796875 61.902344 283.703125 C 56.773438 273.632812 52.3125 263.296875 50.082031 252.152344 C 45.976562 231.601562 46.984375 211.210938 52.300781 190.996094 C 56.210938 176.128906 62.566406 162.230469 69.207031 148.4375 C 73.328125 139.878906 77.359375 131.269531 81.226562 122.589844 C 82.667969 119.359375 83.523438 115.867188 84.675781 112.410156 C 87.261719 112.664062 89.921875 112.925781 92.636719 113.195312 C 92.585938 113.605469 92.59375 113.808594 92.535156 113.992188 C 89.546875 123.582031 89.09375 133.445312 89.167969 143.40625 C 89.332031 164.492188 89.472656 185.585938 89.347656 206.671875 C 89.253906 222.160156 87.5625 237.496094 83.726562 252.558594 C 80.214844 266.347656 73.429688 278.46875 65.074219 289.972656 Z M 119.886719 267.921875 C 120.007812 267.945312 120.125 267.972656 120.242188 267.996094 C 120.097656 270.777344 120.085938 273.570312 119.785156 276.328125 C 118.589844 287.167969 117.3125 298 116.054688 308.832031 C 115.769531 311.292969 115.308594 311.722656 112.878906 312.257812 C 111.757812 312.503906 111.246094 312.207031 111.320312 311.011719 C 111.441406 309.058594 111.519531 307.105469 111.621094 305.152344 C 111.765625 302.492188 111.734375 299.808594 112.089844 297.179688 C 113.210938 288.890625 115.175781 280.796875 118.039062 272.929688 C 118.648438 271.257812 119.269531 269.589844 119.886719 267.921875 Z M 200.566406 40.058594 C 202.320312 40.1875 203.4375 40.824219 203.898438 42.113281 C 205.023438 45.238281 203.464844 51.121094 200.964844 53.269531 C 200.265625 53.875 199.691406 53.957031 198.839844 53.402344 C 197.726562 52.675781 196.503906 52.007812 195.230469 51.65625 C 192.8125 50.988281 192.007812 49.738281 192.949219 47.324219 C 193.917969 44.847656 195.414062 42.710938 197.707031 41.285156 C 198.578125 40.746094 199.609375 40.460938 200.566406 40.058594 Z M 136.550781 53.171875 C 135.625 52.964844 134.351562 53.035156 134.023438 52.511719 C 133.554688 51.765625 133.417969 50.429688 133.765625 49.613281 C 134.757812 47.289062 138.460938 46.332031 140.828125 47.574219 C 142.71875 48.566406 143.652344 52.207031 142.546875 54.289062 C 142.019531 55.285156 138.917969 56.730469 137.839844 56.488281 C 136.308594 56.140625 135.875 54.804688 136.550781 53.171875 Z M 65.125 11.628906 C 65.429688 14.015625 64.871094 14.960938 62.894531 15.164062 C 61.25 15.335938 59.394531 14.199219 58.800781 12.660156 C 57.820312 10.109375 58.367188 9.035156 60.964844 8.375 C 61.304688 8.289062 61.625 8.144531 61.957031 8.03125 C 64.285156 7.230469 67.929688 8.546875 68.976562 10.75 C 69.269531 11.367188 69.160156 12.507812 68.753906 13.027344 C 68.339844 13.554688 67.296875 13.851562 66.585938 13.765625 C 66.167969 13.714844 65.867188 12.722656 65.503906 12.15625 C 65.390625 11.976562 65.253906 11.804688 65.125 11.628906 Z M 65.589844 301.394531 C 65.757812 301.382812 65.925781 301.367188 66.09375 301.355469 C 67.773438 305.265625 69.449219 309.175781 71.3125 313.519531 C 68.664062 313.3125 66.570312 313.226562 64.507812 312.925781 C 64.058594 312.859375 63.421875 312.042969 63.378906 311.53125 C 63.074219 307.925781 64.5625 304.707031 65.589844 301.394531 Z M 105 51.546875 C 104.832031 51.40625 104.660156 51.269531 104.492188 51.128906 C 105.109375 51.410156 105.707031 51.738281 106.34375 51.960938 C 106.925781 52.167969 107.546875 52.269531 108.511719 52.503906 C 107.949219 52.902344 107.875 52.992188 107.789062 53.007812 C 102.609375 53.824219 97.476562 53.132812 92.34375 52.503906 C 92.105469 52.476562 91.921875 52.019531 91.710938 51.765625 C 94.34375 52.53125 95.210938 51.953125 95.375 49.316406 C 95.425781 48.476562 95.488281 47.640625 95.546875 46.804688 C 95.71875 46.742188 95.886719 46.683594 96.058594 46.621094 C 96.265625 47.023438 96.625 47.417969 96.644531 47.832031 C 96.679688 48.523438 96.453125 49.222656 96.417969 49.921875 C 96.363281 51.035156 96.714844 51.972656 97.96875 52.113281 C 99.261719 52.257812 99.902344 51.488281 100.089844 50.28125 C 100.222656 49.421875 100.335938 48.5625 100.457031 47.703125 C 100.617188 47.71875 100.773438 47.734375 100.929688 47.75 C 100.847656 48.742188 100.710938 49.730469 100.691406 50.726562 C 100.664062 52.175781 101.800781 53.105469 103.027344 52.632812 C 103.722656 52.363281 104.34375 51.914062 105 51.546875 Z M 49.128906 30.898438 C 48.828125 33.539062 47.570312 34.453125 45.179688 33.769531 C 44.878906 33.683594 44.503906 33.875 44.191406 33.8125 C 43.699219 33.714844 43.042969 33.640625 42.792969 33.304688 C 42.53125 32.957031 42.457031 32.1875 42.671875 31.820312 C 43.21875 30.882812 43.820312 29.820312 44.691406 29.273438 C 45.527344 28.746094 46.8125 28.484375 47.738281 28.726562 C 48.347656 28.882812 48.675781 30.136719 49.128906 30.898438 Z M 176.15625 17.667969 C 177.796875 17.667969 179.289062 18.9375 179.257812 20.3125 C 179.226562 21.789062 178.128906 22.863281 176.652344 22.859375 C 174.90625 22.851562 173.332031 21.691406 173.34375 20.417969 C 173.359375 18.933594 174.652344 17.671875 176.15625 17.667969 Z M 82.515625 4.902344 C 82.519531 7.140625 81.75 7.804688 80.074219 7.554688 C 79.679688 7.496094 79.246094 7.449219 78.914062 7.257812 C 78.179688 6.832031 76.898438 6.277344 76.925781 5.847656 C 76.984375 5.050781 77.652344 3.957031 78.363281 3.632812 C 79.183594 3.257812 80.375 3.398438 81.300781 3.671875 C 81.898438 3.851562 82.308594 4.671875 82.515625 4.902344 Z M 190.476562 27.136719 C 190.964844 26.421875 191.15625 25.828125 191.558594 25.605469 C 192.578125 25.035156 194.972656 25.648438 195.761719 26.542969 C 196.742188 27.667969 196.464844 29.019531 195.257812 29.871094 C 194.136719 30.660156 193.257812 29.960938 192.515625 29.453125 C 191.722656 28.914062 191.191406 27.980469 190.476562 27.136719 Z M 106.925781 99.878906 C 108.550781 99.984375 109.761719 100.761719 109.6875 101.832031 C 109.585938 103.332031 108.4375 103.679688 107.160156 103.820312 C 106.792969 103.859375 106.441406 104.082031 106.089844 104.242188 C 105.023438 104.726562 103.925781 104.046875 103.871094 102.863281 C 103.820312 101.777344 105.835938 99.808594 106.925781 99.878906 Z M 51.15625 56.164062 C 51.617188 55.515625 51.890625 55.128906 52.171875 54.738281 C 53.847656 56.128906 54.273438 56.113281 55.902344 54.65625 C 57.757812 55.605469 58.222656 55.488281 59.460938 53.757812 C 60.394531 55.378906 61.515625 56.003906 62.300781 55.105469 C 63.046875 54.253906 63.289062 52.957031 63.925781 51.449219 C 64.007812 52.398438 64.019531 52.972656 64.117188 53.527344 C 64.355469 54.832031 63.871094 55.421875 62.5625 55.863281 C 58.882812 57.105469 55.230469 56.339844 51.15625 56.164062 Z M 85.113281 18.546875 C 83.691406 17.988281 82.433594 17.546875 81.234375 16.980469 C 80.898438 16.820312 80.527344 16.257812 80.570312 15.929688 C 80.609375 15.640625 81.210938 15.183594 81.53125 15.210938 C 82.9375 15.324219 84.363281 15.46875 85.710938 15.851562 C 86.203125 15.992188 86.503906 16.816406 86.894531 17.328125 C 86.332031 17.710938 85.769531 18.097656 85.113281 18.546875 Z M 134.410156 93.601562 C 134.195312 93.859375 133.800781 94.613281 133.179688 94.9375 C 132.9375 95.066406 131.773438 94.25 131.757812 93.835938 C 131.714844 92.816406 131.28125 92.617188 130.4375 92.441406 C 130.109375 92.375 129.648438 91.679688 129.707031 91.355469 C 129.785156 90.917969 130.25 90.320312 130.65625 90.21875 C 132.546875 89.75 134.308594 91.140625 134.410156 93.601562 Z M 170.539062 38.515625 C 171.617188 38.625 172.03125 39.433594 172.03125 40.574219 C 172.03125 41.855469 171.179688 42.679688 169.796875 42.660156 C 168.765625 42.644531 168.058594 42.113281 167.960938 41.050781 C 167.875 40.09375 169.445312 38.492188 170.539062 38.515625 Z M 132.074219 101.789062 C 132.777344 101.917969 133.847656 101.746094 133.898438 103.066406 C 133.941406 104.175781 132.613281 105.601562 131.554688 105.589844 C 130.351562 105.574219 129.921875 104.792969 129.882812 103.722656 C 129.839844 102.386719 130.503906 101.777344 132.074219 101.789062 Z M 98.601562 88.535156 C 98.570312 87.449219 99.613281 86.652344 101.191406 86.6875 C 101.988281 86.707031 103.007812 86.609375 103.082031 87.859375 C 103.136719 88.808594 101.652344 89.988281 100.402344 90.019531 C 99.382812 90.046875 98.625 89.734375 98.601562 88.535156 Z M 114.195312 78.035156 C 114.378906 78.199219 115.113281 78.550781 115.292969 79.089844 C 115.554688 79.878906 113.578125 81.632812 112.558594 81.664062 C 111.457031 81.699219 111.074219 80.964844 111.007812 80.042969 C 110.925781 78.851562 112 78.070312 114.195312 78.035156 Z M 65.925781 27.574219 C 64.148438 27.578125 62.753906 26.601562 63.148438 25.941406 C 63.648438 25.109375 64.613281 24.457031 65.511719 23.996094 C 66.113281 23.6875 67.339844 25.089844 67.089844 25.925781 C 66.871094 26.636719 66.199219 27.207031 65.925781 27.574219 Z M 158.027344 29.964844 C 158.167969 28.292969 158.695312 27.511719 159.910156 27.453125 C 161.015625 27.402344 161.566406 28.042969 161.621094 29.105469 C 161.675781 30.203125 160.695312 31.546875 159.851562 31.296875 C 159.085938 31.070312 158.476562 30.3125 158.027344 29.964844 Z M 195.753906 19.710938 C 195.457031 20.25 195.351562 20.6875 195.074219 20.871094 C 194.878906 21 194.199219 20.828125 194.171875 20.699219 C 193.863281 19.226562 192.570312 19.269531 191.550781 18.855469 C 191.28125 18.746094 191.046875 18.410156 190.929688 18.125 C 190.878906 17.996094 191.1875 17.542969 191.277344 17.558594 C 192.335938 17.738281 193.4375 17.847656 194.417969 18.246094 C 194.957031 18.464844 195.296875 19.183594 195.753906 19.710938 Z M 190.640625 23.925781 C 189.796875 23.015625 188.832031 22.113281 188.902344 22.023438 C 189.566406 21.183594 190.402344 20.476562 191.191406 19.734375 C 191.414062 20.511719 191.800781 21.285156 191.804688 22.066406 C 191.808594 22.546875 191.230469 23.027344 190.640625 23.925781 Z M 107.117188 35.761719 C 106.894531 35.777344 106.667969 35.792969 106.441406 35.808594 C 105.957031 35.226562 105.058594 34.609375 105.101562 34.070312 C 105.148438 33.476562 106.058594 32.949219 106.59375 32.390625 C 107.109375 32.96875 107.851562 33.480469 108.050781 34.148438 C 108.171875 34.558594 107.457031 35.214844 107.121094 35.761719 Z M 125.667969 85.671875 C 126.679688 85.082031 127.195312 84.574219 127.765625 84.496094 C 128.8125 84.355469 129.410156 85.121094 129.277344 86.054688 C 129.207031 86.570312 128.332031 87.453125 128.101562 87.371094 C 127.363281 87.109375 126.75 86.476562 125.664062 85.671875 Z M 94.484375 19.921875 C 94.496094 19.710938 94.507812 19.503906 94.523438 19.292969 C 94.957031 18.992188 95.386719 18.445312 95.832031 18.429688 C 96.882812 18.398438 97.707031 18.957031 97.652344 20.125 C 97.636719 20.484375 96.945312 21.167969 96.769531 21.105469 C 95.96875 20.828125 95.238281 20.335938 94.484375 19.921875 Z M 85.4375 92.40625 C 86.328125 91.707031 86.863281 91.035156 87.523438 90.875 C 87.851562 90.792969 88.410156 91.648438 88.867188 92.078125 C 88.21875 92.632812 87.613281 93.257812 86.894531 93.683594 C 86.757812 93.761719 86.15625 93.050781 85.4375 92.410156 Z M 68.917969 8.183594 C 68.910156 8 68.902344 7.820312 68.894531 7.636719 C 69.417969 7.285156 69.960938 6.644531 70.460938 6.675781 C 70.914062 6.707031 71.484375 7.40625 71.679688 7.933594 C 71.769531 8.167969 71.035156 9.046875 70.734375 9.019531 C 70.109375 8.957031 69.519531 8.488281 68.917969 8.183594 Z M 94.65625 15.980469 C 95.53125 15.277344 96.175781 14.53125 96.382812 14.636719 C 97.007812 14.957031 97.507812 15.574219 97.933594 16.167969 C 97.992188 16.25 97.269531 17.179688 97.035156 17.128906 C 96.359375 16.984375 95.75 16.539062 94.65625 15.980469 Z M 41.441406 53.605469 C 41.5 53.441406 41.5625 53.277344 41.621094 53.117188 C 43.210938 53.507812 45.175781 52.894531 46.324219 55.425781 C 44.488281 54.742188 42.964844 54.171875 41.441406 53.605469 Z M 100.730469 20.074219 C 100.128906 19.269531 99.609375 18.808594 99.4375 18.246094 C 99.367188 18 100.015625 17.539062 100.335938 17.179688 C 100.777344 17.65625 101.3125 18.082031 101.605469 18.640625 C 101.707031 18.828125 101.195312 19.34375 100.730469 20.074219 Z M 101.605469 21.351562 C 102.1875 20.871094 102.636719 20.34375 102.769531 20.414062 C 103.324219 20.707031 103.777344 21.183594 104.269531 21.589844 C 103.953125 21.902344 103.550781 22.527344 103.34375 22.46875 C 102.800781 22.3125 102.34375 21.859375 101.605469 21.351562 Z M 202.914062 55.746094 C 203.511719 55.238281 203.929688 54.882812 204.34375 54.527344 C 204.609375 54.960938 205.089844 55.410156 205.066406 55.828125 C 205.046875 56.191406 204.492188 56.703125 204.09375 56.792969 C 203.847656 56.851562 203.449219 56.246094 202.914062 55.746094 Z M 202.914062 55.746094 " fill-opacity="1" fill-rule="nonzero"></path></g></svg>