<?xml version="1.0" encoding="UTF-8"?>
<svg id="b" data-name="Ebene_2" xmlns="http://www.w3.org/2000/svg" width="345.618mm" height="532.941mm" viewBox="0 0 979.705 1510.698">
  <g id="c" data-name="Ebene_1">
    <path d="M400.199,1138.571c1.322-18.962,2.455-37.94,4-56.884,5.465-66.998,13.002-133.748,23.575-200.155,12.871-80.844,23.059-162.012,21.199-244.071-.556-24.526-5.118-48.962-7.855-73.439-.556-4.968-2.391-6.791-8.237-6.17-18.591,1.975-37.063.104-55.179-4.563-6.503-1.675-13.583-2.709-19.169-6.078-28.947-17.457-40.945-47.119-34.062-82.351,3.739-19.139,11.209-36.807,21.734-53.157,12.728-19.771,32.153-30.395,53.387-38.377,5.271-1.981,10.675-3.617,16.051-5.307,6.932-2.179,13.52-3.371,19.054-9.996,8.043-9.628,25.331-8.599,35.478-.432,2.383,1.918,5.623,3.727,8.55,3.864,26.562,1.245,51.964,7.655,76.877,16.474,1.067.378,2.19.596,3.793,1.023-1.023-13.047-2.191-25.636-2.961-38.249-1.432-23.455-2.697-46.922-3.896-70.39-.453-8.86-.252-8.495-9.461-7.746-18.233,1.484-36.493,2.732-54.764,3.597-5.802.275-11.74-.604-17.504-1.6-16.58-2.863-28.59-16.628-30.851-34.953-.287-2.328-.685-4.733-.404-7.026,2.957-24.174,3.953-48.83,9.555-72.386,9.649-40.578,35.644-70.784,68.413-95.414,18.758-14.099,39.493-24.38,61.939-31.32,2.375-.734,5.157-3.333,5.89-5.654,3.243-10.267,10.644-15.102,20.493-17.063,10.163-2.023,19.561-.183,26,8.362,3.46,4.592,7.141,5.661,12.434,5.756,42.405.761,81.968,10.974,115.712,37.805,28.657,22.785,48.509,52.101,60.09,86.866,4.623,13.878,4.197,28.599,12.527,42.286,8.184,13.449,4.371,30.202-2.819,44.651-14.062,28.259-36.73,45.692-67.956,50.295-19.67,2.9-39.65,3.934-59.535,5.008-6.594.356-13.322-1.773-20.518-2.845-.184,1.793-.61,3.572-.511,5.323,4.851,86.296,16.217,171.59,51.009,251.466,29.152,66.928,61.249,132.6,93.042,198.344,30.26,62.573,63.587,123.703,88.68,188.679,26.706,69.155,49.378,139.501,59.325,213.326,10.271,76.225,9.446,152.094-12.179,226.407-8.562,29.424-21.424,57.588-32.115,86.404-11.247,30.313-33.461,45.943-64.795,51.515-33.428,5.945-67.016,9.17-100.879,9.746-23.235.395-46.563,1.195-69.698-.389-15.725-1.077-31.333-5.412-46.715-9.371-8.737-2.249-15.783-7.927-20.692-16.052-1.051-1.739-4.61-2.718-7.033-2.756-26.544-.415-53.102-.191-79.634-.924-20.655-.57-41.273-2.408-61.926-3.261-3.346-.138-7.467,1.054-10.059,3.109-10.662,8.453-23.06,11.814-36.101,12.409-54.296,2.479-108.536,1.221-162.538-5.095-11.519-1.347-22.851-5.199-33.932-8.905-4-1.337-7.823-5.067-10.33-8.676-10.001-14.397-13.905-30.841-13.186-48.123,1.681-40.371,3.124-80.775,6.02-121.068,6.352-88.357-4.234-174.891-25.092-260.618-17.484-71.859-34.592-143.822-50.752-215.988-13.39-59.798-13.862-120.79-13.178-181.715.502-44.708,4.485-89.157,11.587-133.318.556-3.458.937-7.048.667-10.52-2.865-36.772-5.839-73.537-8.867-110.296-1.987-24.119-4.291-48.213-6.04-72.348-.408-5.634-2.313-7.804-7.941-7.947-15.651-.398-30.949.471-44.997,8.518-6.505,3.726-13.109,1.856-18.8-1.549-21.974-13.15-39.384-30.658-47.284-55.588-11.564-36.497-7.792-72.555,6.273-107.539,3.02-7.51,9.43-13.873,15.054-20.058,5.509-6.058,11.915-11.321,18.098-16.737,6.109-5.352,9.894-10.846,10.314-20.006.818-17.83,25.29-30.353,41.144-22.432,1.808.903,4.66,1.282,6.411.508,40.145-17.757,80.28-13.552,120.335.008,36.109,12.224,69.752,29.132,99.067,53.891,22.304,18.838,36.841,43.274,47.252,69.899,4.692,11.997,6.204,25.532,7.414,38.532,2.124,22.819-14.31,45.646-37.826,54.782-3.691,1.434-7.026,3.907-10.787,5.016-6.639,1.959-13.477,4.534-20.233,4.539-15.082.012-29.875.216-44.628,4.467-7.113,2.05-8.677,5.102-8.105,11.737,2.119,24.583,5.021,49.179,5.461,73.809.746,41.792.658,83.638-.563,125.417-1.565,53.546,3.297,106.577,10.122,159.509,8.698,67.459,26.315,133.132,40.333,199.533,16.71,79.156,43.534,154.994,73.307,229.939,4.553,11.462,8.825,23.036,13.227,34.558.563-.158,1.127-.315,1.69-.473ZM570.342,216.278c-.214,4.377-.402,6.656-.426,8.938-.518,50.611,4.214,100.906,8.774,151.23,1.037,11.446,4.053,21.04,13.139,28.691,4.028,3.392,7.006,8.23,9.859,12.789,14.327,22.898,22.602,47.494,18.864,74.862-1.215,8.9-4.378,17.719-12.436,22.819-4.4,2.785-4.693,5.261-3.556,9.72,7.481,29.339,20.448,56.462,33.307,83.641,26.311,55.615,53.929,110.656,78.632,166.976,43.737,99.713,65.777,203.998,60.255,313.412-2.643,52.38-11.135,103.59-28.737,153.173-14.032,39.529-32.117,77.25-52.133,113.934-8.666,15.884-9.838,29.705-2.803,46.208,7.255,17.016,11.925,35.09,12.058,53.993.085,12.029-4.478,19.33-15.716,22.816-3.037.942-6.451.871-9.696.907-9.824.107-19.65.039-29.476.039-.077,1.024-.154,2.048-.231,3.072,7.409,1.936,14.747,5.157,22.241,5.575,25.749,1.439,51.566,2.863,77.332,2.497,36.398-.516,72.79-2.493,108.634-9.747,19.432-3.932,37.872-9.012,47.668-29.319,19.259-39.921,35.359-80.9,44.219-124.469,16.042-78.887,12.795-157.636-3.923-235.831-19.102-89.348-51.391-174.178-91.513-256.121-40.482-82.677-81.35-165.169-121.172-248.163-51.294-106.905-72.756-220.179-69.651-338.404.115-4.392.015-8.79.015-14.762-30.698-6.065-61.632-12.176-93.528-18.478ZM438.44,1472.76c.18-.642.361-1.283.541-1.925-14.89-6.491-19.607-18.827-20.457-33.586-.337-5.848-1.347-11.664-2.167-17.477-10.317-73.119-17.943-146.443-17.29-220.432.038-4.312-1.277-8.83-2.821-12.929-7.777-20.653-16.163-41.08-23.738-61.805-18.614-50.933-38.664-101.431-54.897-153.122-23.091-73.53-37.719-149.306-53.138-224.743-15.658-76.606-24.896-154.116-21.798-232.453,2.642-66.792,1.722-133.409-3.264-200.026-.341-4.559-1.397-6.316-6.295-6.98-10.66-1.446-21.25-3.628-31.736-6.08-14.738-3.446-29.396-3.689-43.807.855-14.799,4.666-14.701,4.992-13.731,20.355.118,1.875.31,3.746.496,5.615,4.357,43.936,9.081,87.84,12.901,131.822,1.559,17.958,3.484,36.389,1.193,54.079-5.743,44.331-10.628,88.653-11.005,133.367-.51,60.468.788,120.893,14.337,180.182,15.48,67.735,31.472,135.358,47.942,202.859,18.115,74.239,30.641,149.169,28.468,225.839-1.098,38.732-4.669,77.389-6.234,116.116-.89,22.015-2.106,44.379.711,66.08,2.744,21.138,8.202,27.169,27.45,29.983,4.641.679,9.235,2.125,13.879,2.261,48.584,1.427,97.172,2.741,145.764,3.844,6.216.141,12.464-1.1,18.697-1.701ZM541.875,818.595c.953-.009,1.907-.018,2.86-.027,0-64.373-.026-128.746.011-193.119.017-29.819-4.816-58.906-12.765-87.561-1.411-5.087-2.875-8.491-9.558-6.264-20.034,6.675-40.21,12.937-60.424,19.049-4.969,1.502-4.926,4.012-4.16,8.348,3.185,18.017,7.32,36.018,8.559,54.199,3.972,58.307.939,116.537-6.312,174.428-9.164,73.164-20.159,146.098-29.309,219.264-7.29,58.295-12.224,116.845-12.049,175.687.014,4.79,1.034,9.785,2.61,14.33,13.374,38.586,27.963,76.78,40.26,115.702,13.301,42.1,14.636,85.914,14.218,129.738-.158,16.543-.07,16.871,16.613,17.283,42.964,1.061,85.936,1.807,128.905,2.671,3.793.076,6.834.097,8.756-4.763,7.937-20.064,16.065-40.078,24.972-59.725,11.154-24.606,11.472-25.031-3.494-47.816-.516-.785-1.019-1.581-1.573-2.338-26.333-36.047-48.009-74.776-63.528-116.573-26.588-71.609-37.477-146.428-40.613-222.282-2.619-63.356-2.749-126.816-3.981-190.23ZM676.686,1352.755c4.925-9.721,9.857-19.505,14.832-29.268,23.958-47.016,44.808-95.257,55.216-147.29,19.19-95.936,14.476-191.127-10.363-285.487-18.271-69.409-47.965-134.286-78.982-198.667-19.255-39.967-38.093-80.151-56.162-120.663-6.73-15.088-10.742-31.389-16.123-47.526-12.072,1.189-24.511,2.415-37.197,3.664.235,1.909.209,2.86.477,3.72,13.966,44.775,16.089,90.811,15.73,137.309-.759,98.445-1.426,196.9-.829,295.343.439,72.305,8.341,143.887,26.264,214.208,16.402,64.356,48.096,120.956,87.137,174.657ZM420.585,1249.806c-.553.12-1.107.239-1.66.359.679,12.969.73,26.008,2.148,38.896,5.569,50.603,11.545,101.161,17.426,151.729,1.335,11.48,3.488,13.484,14.841,15.982,5.225,1.15,7.626-.223,7.28-5.812-.564-9.109-.932-18.23-1.417-27.344-.66-12.416-.521-24.943-2.183-37.225-5.233-38.687-14.412-76.477-27.797-113.195-2.846-7.808-5.757-15.593-8.639-23.389ZM43.634,186.111c-8.211.599-13.418,3.571-15.583,9.585-5.254,14.595,2.032,42.048,13.707,52.087,3.28,2.82,5.953,3.197,9.929.604,5.201-3.392,10.925-6.496,16.862-8.135,11.315-3.122,15.071-8.959,10.662-20.23-4.521-11.555-11.505-21.54-22.233-28.195-4.065-2.522-8.873-3.846-13.343-5.716ZM342.736,247.326c4.321-.98,10.27-.641,11.803-3.079,2.196-3.493,2.824-9.723,1.197-13.535-4.636-10.863-21.928-15.33-32.983-9.532-8.845,4.639-13.199,21.629-8.036,31.357,2.464,4.642,16.945,11.398,21.993,10.26,7.159-1.613,9.169-7.848,6.025-15.472ZM676.451,53.397c-1.411,11.136,1.186,15.543,10.426,16.498,7.689.795,16.353-4.499,19.121-11.683,4.589-11.911,2.039-16.931-10.108-20.018-1.578-.401-3.089-1.062-4.634-1.593-10.868-3.736-27.896,2.395-32.8,12.687-1.369,2.872-.86,8.211,1.05,10.635,1.928,2.448,6.807,3.85,10.116,3.445,1.959-.239,3.371-4.871,5.057-7.509.544-.85,1.178-1.643,1.771-2.462ZM674.276,1406.068c-.785-.06-1.569-.12-2.354-.18-7.835,18.248-15.67,36.495-24.377,56.775,12.373-.964,22.161-1.359,31.801-2.767,2.101-.307,5.062-4.119,5.267-6.517,1.433-16.825-5.523-31.843-10.336-47.31ZM490.151,239.731c.787-.649,1.574-1.298,2.362-1.947-2.873,1.316-5.674,2.836-8.641,3.889-2.722.966-5.622,1.43-10.125,2.523,2.623,1.862,2.962,2.294,3.359,2.357,24.204,3.814,48.199.577,72.183-2.352,1.104-.135,1.966-2.257,2.94-3.453-12.297,3.581-16.347.89-17.108-11.429-.242-3.91-.541-7.817-.814-11.725-.794-.286-1.588-.571-2.382-.857-.966,1.881-2.644,3.727-2.739,5.651-.161,3.225.898,6.49,1.062,9.758.261,5.205-1.392,9.572-7.252,10.233-6.039.681-9.034-2.917-9.906-8.561-.618-4-1.152-8.014-1.723-12.021-.734.071-1.468.142-2.202.213.39,4.629,1.025,9.253,1.111,13.887.126,6.77-5.186,11.121-10.921,8.906-3.237-1.25-6.146-3.353-9.202-5.072ZM751.191,143.338c1.41,12.332,7.294,16.603,18.463,13.401,1.399-.401,3.143.508,4.608.213,2.309-.465,5.36-.802,6.535-2.367,1.221-1.626,1.578-5.225.573-6.942-2.564-4.377-5.377-9.333-9.45-11.893-3.894-2.447-9.893-3.672-14.219-2.55-2.854.74-4.386,6.58-6.51,10.137ZM157.674,81.586c-7.653-.012-14.628,5.925-14.489,12.335.149,6.896,5.278,11.906,12.172,11.888,8.166-.021,15.519-5.442,15.457-11.395-.073-6.928-6.104-12.816-13.139-12.827ZM595.194,21.981c-.01,10.455,3.583,13.551,11.42,12.386,1.843-.274,3.858-.486,5.413-1.385,3.427-1.982,9.427-4.582,9.288-6.573-.261-3.724-3.394-8.832-6.709-10.342-3.832-1.746-9.408-1.103-13.728.182-2.798.832-4.703,4.671-5.684,5.732ZM90.761,125.789c-2.268-3.346-3.174-6.12-5.044-7.16-4.759-2.648-15.963.203-19.632,4.387-4.595,5.24-3.303,11.551,2.354,15.534,5.225,3.679,9.341.424,12.812-1.947,3.705-2.532,6.173-6.874,9.51-10.814ZM481.152,465.349c-7.594.492-13.251,4.126-12.91,9.119.478,7.014,5.839,8.64,11.816,9.283,1.718.185,3.361,1.233,4.998,1.977,4.978,2.261,10.108-.91,10.365-6.437.236-5.071-9.18-14.271-14.269-13.941ZM741.731,261.289c-2.162-3.032-3.444-4.83-4.745-6.654-7.832,6.494-9.828,6.42-17.444-.378-8.67,4.416-10.836,3.868-16.616-4.204-4.368,7.576-9.604,10.492-13.271,6.3-3.491-3.99-4.626-10.043-7.593-17.074-.395,4.425-.435,7.104-.905,9.707-1.099,6.087,1.161,8.841,7.277,10.903,17.186,5.796,34.26,2.216,53.298,1.401ZM583.063,85.692c6.647-2.624,12.526-4.678,18.124-7.327,1.562-.739,3.296-3.365,3.102-4.89-.173-1.356-2.995-3.489-4.494-3.368-6.562.528-13.22,1.217-19.517,3-2.311.655-3.719,4.496-5.539,6.884,2.625,1.798,5.251,3.596,8.325,5.701ZM352.739,436.056c.998,1.197,2.84,4.721,5.733,6.23,1.146.598,6.577-3.199,6.657-5.135.197-4.765,2.223-5.697,6.172-6.512,1.523-.314,3.688-3.559,3.41-5.074-.373-2.033-2.546-4.83-4.443-5.302-8.824-2.198-17.065,4.294-17.529,15.793ZM183.921,178.905c-5.025.499-6.962,4.275-6.963,9.614-.001,5.971,3.98,9.829,10.426,9.732,4.828-.073,8.132-2.551,8.583-7.521.404-4.456-6.932-11.934-12.045-11.825ZM363.645,474.267c-3.282.617-8.285-.189-8.524,5.976-.2,5.164,6.009,11.827,10.957,11.767,5.608-.068,7.631-3.706,7.799-8.702.21-6.238-2.887-9.097-10.233-9.041ZM520.035,412.408c.15-5.067-4.715-8.798-12.089-8.625-3.735.088-8.498-.375-8.834,5.462-.255,4.426,6.667,9.935,12.515,10.094,4.773.129,8.301-1.338,8.408-6.931ZM447.186,363.384c-.866.774-4.291,2.414-5.126,4.918-1.233,3.699,8.013,11.886,12.772,12.028,5.148.153,6.936-3.267,7.239-7.571.392-5.56-4.633-9.217-14.886-9.375ZM672.706,127.818c8.321.033,14.831-4.532,12.982-7.613-2.334-3.89-6.837-6.925-11.043-9.084-2.805-1.44-8.546,5.115-7.365,9.004,1.009,3.322,4.16,5.993,5.426,7.693ZM242.389,138.987c-.67-7.802-3.13-11.449-8.809-11.722-5.151-.248-7.739,2.744-7.988,7.708-.258,5.133,4.323,11.391,8.267,10.227,3.581-1.057,6.431-4.596,8.53-6.213ZM66.119,91.113c1.373,2.514,1.877,4.567,3.17,5.418.907.597,4.089-.196,4.213-.794,1.435-6.879,7.488-6.68,12.248-8.605,1.259-.509,2.352-2.08,2.895-3.417.245-.603-1.192-2.709-1.617-2.638-4.948.824-10.084,1.351-14.669,3.199-2.526,1.018-4.107,4.384-6.24,6.837ZM90.011,110.788c3.937-4.252,8.437-8.461,8.117-8.866-3.103-3.932-7.013-7.226-10.693-10.702-1.05,3.631-2.85,7.256-2.873,10.894-.014,2.236,2.687,4.49,5.449,8.675ZM480.245,166.049c1.058.07,2.116.14,3.174.211,2.257-2.717,6.449-5.586,6.25-8.111-.218-2.776-4.475-5.236-6.972-7.833-2.4,2.696-5.866,5.074-6.803,8.208-.569,1.905,2.768,4.978,4.35,7.526ZM393.587,399.039c-4.736-2.749-7.14-5.121-9.817-5.485-4.885-.664-7.671,2.913-7.06,7.276.335,2.395,4.415,6.52,5.493,6.139,3.463-1.221,6.315-4.177,11.385-7.931ZM539.287,92.098c-.062-.974-.124-1.949-.186-2.923-2.038-1.419-4.041-3.967-6.122-4.032-4.901-.154-8.751,2.454-8.501,7.902.077,1.684,3.307,4.876,4.123,4.592,3.75-1.307,7.156-3.599,10.686-5.538ZM581.554,430.482c-4.159-3.268-6.663-6.411-9.75-7.164-1.543-.377-4.151,3.611-6.277,5.624,3.018,2.59,5.847,5.5,9.221,7.485.636.374,3.439-2.937,6.805-5.944ZM658.74,37.313c.037-.855.074-1.71.111-2.565-2.45-1.628-4.986-4.627-7.323-4.478-2.126.135-4.78,3.409-5.702,5.862-.411,1.093,3.014,5.211,4.421,5.076,2.929-.282,5.673-2.483,8.494-3.895ZM538.477,73.701c-4.098-3.287-7.097-6.761-8.063-6.266-2.919,1.496-5.261,4.38-7.242,7.144-.274.383,3.094,4.723,4.192,4.49,3.154-.671,6.01-2.749,11.113-5.368ZM787.117,249.336c-.283-.759-.566-1.518-.849-2.276-7.423,1.837-16.604-1.04-21.962,10.788,8.575-3.2,15.693-5.856,22.811-8.512ZM510.095,92.818c2.819-3.756,5.241-5.903,6.032-8.54.342-1.14-2.685-3.291-4.181-4.983-2.064,2.23-4.573,4.226-5.947,6.822-.468.883,1.922,3.28,4.097,6.701ZM506.011,98.773c-2.715-2.241-4.825-4.704-5.448-4.372-2.578,1.371-4.706,3.589-7,5.496,1.469,1.46,3.356,4.375,4.325,4.096,2.533-.729,4.665-2.854,8.123-5.22ZM32.654,259.334c-2.785-2.369-4.733-4.027-6.682-5.685-1.227,2.029-3.48,4.116-3.368,6.068.097,1.69,2.68,4.08,4.546,4.513,1.147.266,3.012-2.567,5.504-4.897Z"/>
  </g>
</svg>