<?xml version="1.0" encoding="UTF-8"?>
<svg id="b" data-name="Ebene_2" xmlns="http://www.w3.org/2000/svg" width="1273.97" height="1110.323" viewBox="0 0 1273.97 1110.323" fill="#7B7B7A">
  <g id="c" data-name="Layer_1">
    <path d="M1272.5,287.022c-1.3-3-1.4-4.8-.6-8.3,1.6-6.9,1.3-47.4-.4-63.9-2.3-21.9-5.7-44.9-8.6-58-2.3-10.4-4.8-21-6.7-28-3.2-11.5-12.4-38.6-15.1-44.5-.6-1.1-2-4.3-3.2-7-11.4-26.4-28-52.7-41.8-66.4-8.5-8.5-13.9-11.2-21.7-10.9-3.2.1-20.1.5-37.4.8-30.2.6-36.9,1.1-61.5,4.6-20.1,2.8-33.2,5.2-59.2,10.9-3.8.8-10.2,2.1-14.3,3s-9.3,2-11.5,2.5c-10.5,2.4-32.2,6.1-47.5,8.2-12.5,1.7-50.8,1.7-62.5,0-18.9-2.8-28.4-4.4-40.5-6.7-6.9-1.3-17.4-2.6-23.5-2.9-6-.3-13.5-1-16.5-1.6-9.1-1.7-41.5-2.7-57-1.9-13.6.8-30.3,2.9-39.5,5-15.6,3.5-22.4,5.1-25,6-1.6.5-7.7,2.3-13.5,4-21.9,6.4-55.1,18.1-73.5,26-1.1.4-5.8,2.3-10.5,4.2-16.7,6.8-48.7,22.4-60.5,29.6-3.7,2.3-6.9,4.1-7.1,4.1-1.2,0-35.7,22.9-45.4,30.2-1.4,1-5.3,4-8.7,6.6-3.5,2.6-9.3,6.9-12.9,9.7-3.7,2.7-9.5,7.2-12.9,10-3.5,2.7-12.3,9.7-19.6,15.5-7.3,5.8-15.6,12.3-18.3,14.5-10.1,8-28.3,21.2-36.9,26.9-17.1,11.2-29.1,16.5-62.7,27.6-6.3,2-12.8,4.3-14.5,5-1.6.7-3.9,1.6-5,2-39,15.6-85.9,38.2-109.5,52.8-37.5,23.2-46.5,35.6-47.8,65.2-.7,19.1,1.5,26.8,11.5,39.2,8.4,10.3,23.9,21.2,37.3,26,16.8,6.1,32.6,8.2,56.4,7.5,45.5-1.3,80.9-8.6,117.1-24.1,10.6-4.5,34.7-16.9,50-25.7,18.3-10.5,39.4-21.1,40.5-20.4,1.4.8-5.4,20.8-11.8,35-7.1,15.8-23.5,47.4-34.5,66.5-3.3,5.8-6.5,11.4-7.1,12.5-3.6,6.4-19.7,28.9-29.4,41-11.3,14.1-32.4,36.5-52.3,55.6-23.6,22.6-26.6,25.3-35.1,31.6l-6.7,5-11.3.6c-26.3,1.3-46.5,6.4-62.2,15.5-3.4,1.9-9.9,7.4-14.6,12.1-11.6,11.8-19.3,25.4-23.5,41.7-1.7,6.8-1.7,7.5-.2,13.1,1,3.3,1.7,7.4,1.7,9.1,0,1.8.5,4.1,1.2,5.2,1.7,2.6.7,3.6-20.7,20.3-41.7,32.8-66,55-79.1,72.7-13.3,17.9-20.4,32.4-23.9,48.6-.9,4.4-2.7,8.3-6.5,13.8-8.6,12.7-16,34.5-16,47.4,0,5.9,2.4,14.3,5.5,19.1,8.8,14,29.3,20.4,53.4,16.7,11.1-1.7,16.1-2,16.1-1,0,.4-2.4,3.7-5.4,7.3-8.3,10.3-22.2,29.4-29.4,40.5-21.6,33.3-25.4,59.6-12.4,85.6,5.3,10.6,16.6,21.9,27,26.8,7.3,3.5,8.3,3.7,17.7,3.7,11.2,0,16.2-1.4,25.3-7.2,8.2-5.2,13.3-10.4,27.7-28.3,20.9-26,39.7-41.9,77-65.2,11.2-7,33.1-19.9,43.5-25.6,2.5-1.4,5-2.8,5.5-3.2.6-.4,3.3-2,6-3.5,14.9-8.2,25.1-14,56.5-32,36.9-21.2,44.2-25.4,46.8-27,37.6-22.5,71.3-44.5,77.7-50.5,2.7-2.6,6.7-4.1,21-7.9,7.8-2.1,28.6-11.3,37-16.4,18.7-11.5,34.7-23.2,49.4-36.6,28.3-25.7,47.6-40.9,69.4-54.7,4.3-2.7,9.1-5.7,10.5-6.6,1.5-1,4.3-2.7,6.2-3.8,1.9-1.1,6.4-3.8,9.9-6,3.4-2.2,6.5-4,6.7-4s4.4-2.5,9.4-5.5,9.2-5.5,9.4-5.5,3.3-1.6,6.8-3.6c3.4-2,13.5-7.2,22.3-11.7,8.8-4.4,17.8-9.3,20-10.8,2.4-1.6,8.7-4,15.5-5.9,21.6-5.9,23.1-6.5,36.7-13.1,23.6-11.5,37.6-24.3,62.1-56.5,8.4-11.1,12-14.8,27.2-27.9,29.9-25.5,48-39.9,99.4-78.8,18.1-13.7,37.5-28.8,43-33.5,22.2-19,50.6-48.7,69.5-72.6,4.7-6,9.5-12,10.7-13.4,2-2.4,2.4-2.5,17.5-2.6,13.9-.2,16.1-.5,23.3-2.9,16.7-5.8,27.2-12.2,51.3-31.1,12.9-10.2,18.9-13.8,37.8-23.1,29.7-14.5,35.4-17,41.3-18,4.8-.8,16.5-8.9,20-13.8,2.6-3.7,2.9-9,.7-14.5h0ZM383,358.422c-41.7,23.6-66.5,33.8-98.5,40.8-15.2,3.3-22.5,4.2-53.5,6.6-35.3,2.6-63.9-5.6-77.4-22.3-5.4-6.7-5.8-8.2-5.7-18.8.1-10.2,1.7-17.1,5.2-22,4-5.7,25.8-20.4,48-32.4,9-4.9,44.5-22.5,45.4-22.5.3,0,2.9-1.2,5.8-2.6,12.6-6.1,31.1-13.4,55.7-22,40.9-14.4,47.5-17.4,70.5-32.7,9.3-6.2,24.1-17.1,35.5-26.2,32.7-26,42.4-33.5,54.5-42.6,37.6-28.3,56.4-40.4,87-55.9,17.3-8.8,42.1-19.7,60-26.5,3.9-1.4,8.6-3.2,10.5-4,19-7.6,64.3-21.4,81.5-24.8,4.4-.9,10.7-2.1,14-2.8,15.3-3,53.1-3.2,75.5-.4,26.4,3.4,54.3,7.5,74,10.9,11.1,2,18.1,2.1,44,.8,26.4-1.3,32.6-1.9,46.3-3.9,6.5-1,11.1-1.3,11.7-.7.6.6-4,3.4-11.6,7.3-31.4,16-64.3,38.1-91.4,61.3-12.7,10.8-20.5,16.1-35.4,23.8-27.9,14.5-38.3,22.7-79.1,62.9-36.8,36.2-54,51.9-78.5,71.3-12.5,9.9-39.4,29-44,31.1-.8.4-3.7,2.1-6.5,3.7-10.7,6.5-31.6,16-43.5,19.8-18.1,5.7-21.3,6.4-33.2,7-12.8.5-22.1-1.4-30.8-6.4-13.6-8-25.2-26.7-23.6-38.2.6-4.4,8.1-27.7,9.6-29.7.4-.6,1-1.9,1.3-3s1.5-4.5,2.6-7.5c2.3-6.1,2.6-10.5,1-20-.8-5.1-1.7-7.2-4-9.5-2.6-2.7-3.6-3-9-3-5.8,0-6.2.2-9.7,4-2.6,2.7-5.1,7.4-8,15-2.4,6-6.8,16.8-9.9,24-9.3,21.7-12.2,31.7-13.8,46.5-1.3,12.6-3.7,17-9.4,17-7.6,0-40.6,13.9-63.1,26.6h0ZM794.8,211.022c-24.9,32.9-34.8,48.8-48.4,76.8-4.1,8.5-7.8,16.2-8.3,17-.4.8-3.6,8.2-7,16.5-3.5,8.2-6.7,15.9-7.1,17-.5,1.1-2.1,4.9-3.6,8.5-21.8,53.7-35.9,79.2-57.4,104-3.1,3.6-6.9,8.2-8.4,10.2-2.8,3.8-6.1,4.9-8.2,2.8-.5-.5-6.3-2.4-12.9-4.1l-12-3.2-40.5-.2c-42.9-.2-52.2-.9-69.5-5.1-21.6-5.3-34.5-15.4-42.9-33.6-3.7-8.3-7.6-29.5-7.8-43-.1-3.7,5-13.8,12.2-24.4,3.3-4.8,6.1-9.2,6.3-9.8.2-.6,4.2,2.8,8.8,7.5,9.5,9.7,18.5,15.4,30.4,19.5,7.2,2.5,9.7,2.8,25,3.2,13.1.3,18.8,0,25-1.3,44-8.9,90.8-34.8,142.1-78.7,14.5-12.4,43.6-40.2,66.7-63.7,10.3-10.5,19-19.1,19.3-19.1.4,0-.5,1.5-1.8,3.2h0ZM306.8,602.322c39.3-36.2,68-67.9,88.1-97.5,14-20.6,21.8-34.2,38.8-67.8,3.7-7.3,7.2-13.1,7.7-12.9s1.3,1,1.7,1.8c.5.8,2.3,4.4,4,8.1,4.5,9.6,14.5,21.7,23.1,28.1,22.9,16.9,52.7,22.7,116.5,22.7,23.6,0,29.1.3,36.2,1.9,4.6,1.1,8.7,2.5,9.2,3.2.4.7-.3,2.9-1.8,5.2-1.3,2.2-3.7,6.7-5.3,10.1-1.5,3.3-4.7,10.1-6.9,15-2.3,4.9-4.6,10.6-5.1,12.7-2.1,7.6,2,15.1,8.8,16.5,1.8.4,3.2.8,3.2.9,0,1.2-1.4,3.5-2,3.5-.7,0-5.9,3.4-35.9,23.3-5,3.267-11.167,5.2-18.5,5.8-15,1.1-18.6,1.7-29.3,4.5-15.6,4-35.1,11.3-55.5,20.8l-7.3,3.4h-22.2c-12.3,0-22.3-.2-22.3-.5s1.1-1.8,2.5-3.5c3.8-4.5,3.5-11.5-.7-16.3-7.9-9.1-21.3-10.9-28-3.8-3.3,3.5-4.2,8.3-2.8,14.8,2.6,11.4,2.6,11.3-1.1,11.9-1.9.3-7,.7-11.4,1s-12.3,1.3-17.5,2.1c-22.1,3.7-22.3,3.7-45,0-7.4-1.2-23.7-3.1-30.2-3.5-2.4-.1.3-3.6,9-11.5h0ZM79.1,805.022c13.2-13.8,38.3-34.9,66.8-56.1,11.3-8.4,18.3-14.2,25.6-21.2,6.9-6.7,5.4-6.4,34.3-6.7,13.2-.2,17.9.1,20,1.2,1.5.8,3.5,2.3,4.6,3.5,1,1.1,5.9,3.4,11,5.1,10.6,3.6,28.2,12.2,27.8,13.5-.1.6-3.1,1.9-6.5,3.1-7.4,2.5-22.6,8.9-35.6,15-5.1,2.4-9.5,4.4-9.6,4.4-.3,0-5.2,2.3-23.5,10.7-3,1.4-7.8,4.1-10.6,5.9-2.8,1.9-6.2,3.4-7.4,3.4-4,0-14,2.5-46.5,11.6-34.9,9.8-42.6,12.4-56.3,18.7-8,3.6-6.8,1.2,5.9-12.1h0ZM355,890.122c-.8.4-2.4,1.3-3.5,1.9-2.9,1.9-8.4,5.1-14,8.3-2.7,1.5-8.8,4.9-13.5,7.5s-10.3,5.8-12.5,7c-2.2,1.3-19.3,10.7-38,21-37,20.4-36.4,20.1-51,28.5-63.7,36.6-92.1,58.4-117.4,90-5.2,6.6-11.6,14.2-14.1,16.9-10,10.9-18.8,13.4-26.6,7.7-11.9-8.5-17.3-22.6-14.5-37.2,4.1-20.5,26.4-53.6,62.9-93.2,4.9-5.4,9.5-11.1,10.2-12.6,1.3-3.3,4.4-4.6,20-8.6,11.7-3,18.7-4.6,33.5-7.5,5.5-1.1,12-2.4,14.5-2.9,2.5-.6,8.6-1.7,13.5-2.6,24.4-4.4,50.6-9.7,79.5-16.1,3.6-.8,8.3-1.9,10.5-2.4,2.2-.4,6.9-1.5,10.5-2.3s9.9-2.3,14-3.2c4.1-1,10.2-2.3,13.5-3.1s8-1.8,10.5-2.4c6.6-1.4,19-4.1,22.5-5,2.7-.6,5.5-.3,5.5.5,0,.4-13.7,8.8-16,9.8h0ZM563.8,754.322c-4.7,3.6-16.2,13.3-40.3,34.1-13.5,11.7-31.7,25-41.5,30.3-20.7,11.2-37.4,16.7-69.5,22.6-4.9.9-10.8,2.1-13,2.5-2.2.5-9.2,1.9-15.5,3-6.3,1.2-13.1,2.5-15,3-1.9.4-7.1,1.6-11.5,2.5s-10.9,2.4-14.5,3.2c-10.5,2.4-24.3,5.5-35,7.8-4.1.9-10.4,2.3-14,3.1-11.5,2.7-26.1,5.9-49,10.9-7.2,1.5-27.7,5.5-41.5,8-19.3,3.5-28.1,5.2-46,9-8.9,1.9-42.5,10.4-43.5,11-1.1.7-30.4,8.3-41.5,10.8-18,4-32.7,4.7-39,1.6-4.2-2-5.1-5.5-3.5-13.6,2.7-13.9,10.6-26.9,23.6-39.4,17.9-17,34.2-24.8,75.9-36.4,9.4-2.6,20.6-5.8,25-7.1,11.5-3.3,35.8-8.4,40.5-8.4.5,0,3,3.3,5.6,7.2,8.1,12.7,13,16.8,20.4,16.8,3.2,0,4.8-.7,7.7-3.4,3.3-3,3.7-3.9,3.7-8.4,0-3.9-.6-5.9-2.7-8.9-6.7-9.4-11.7-17.4-11.7-18.6,0-.6,1.7-2,3.8-2.9,2-.9,8.4-3.9,14.2-6.6,18-8.5,21-9.8,35-15.4,4.4-1.8,11.1-3.9,22.5-7.3,6.2-1.8,13-4.5,15.2-5.9l4-2.7,10.3,1.6c8.8,1.4,17,1.6,56.9,1.2,25.6-.3,53.4-1,61.6-1.6,8.3-.6,33.5-1.5,56-2.1,41.8-1,50-1.7,62.1-4.9,8.2-2.2,9.4-2.3,9.4-1.3,0,.4-2.4,2.6-5.2,4.7h0ZM1096.5,300.422c-.8,1-1.5,3.3-1.5,5,0,1.6-.7,3.9-1.5,5-.8,1-1.5,2.9-1.5,4,0,1.2-.7,2.7-1.5,3.4s-1.5,2.1-1.5,3.1-.4,2-1,2.4c-.5.3-3.4,5.8-6.5,12.2-5.4,11.4-13.4,25.4-18.4,32.3-27.6,38.5-61.6,74.4-96.6,102.1-7.6,6-13.5,10.6-57,44.3-7.8,6.1-37.2,30.2-48.8,40.1-22.1,18.7-25.8,21.5-28.1,21.5-4,0-10.1,5.5-17.2,15.5-29.7,41.7-44.9,54.8-74.8,64.9-8.5,2.9-10.8,3.6-30.1,8.6-20.1,5.2-21,5.5-36,10.5-21.5,7.1-40.4,14.6-62.3,24.7-13.1,5.9-40,17.1-47.2,19.5-16.7,5.6-22.3,6.3-58,7.3-36.9,1.1-68.3,2.4-89,3.9-23.4,1.6-67.7,2.3-84,1.2-23.7-1.6-35.1-4.5-58.6-15.3l-13.6-6.2-2.3-5.1c-2.5-5.6-3.4-6.3-14.3-10.6-25.6-10.3-49.4-15.6-66.1-14.7-6.4.3-6.6.2-6.3-2,.3-3.4,8.1-14.9,13.7-20.4,4.8-4.7,13.7-10.1,19.8-12,21.3-6.6,55.9-7.6,98.7-2.8,8.3.9,14.1,1.8,28.9,4.6,9.6,1.8,24.5,1.8,35.1-.1,4.7-.9,11-2,14.1-2.5,3-.6,12-1.4,20-2,60.5-4.2,65.1-4,79.7,3.4,7.3,3.7,11.4,4.5,16.6,3.4,8.2-1.7,12.5-10.3,9.1-18.4-.8-2-1.2-4.1-.8-4.5.8-.8,14-5.9,23.3-8.9,24.3-8,41.9-9.7,68-6.5,14.8,1.9,20.1,1.1,24.6-3.6,2.5-2.6,2.9-3.8,2.9-8.9,0-4.8-.4-6.3-2.5-8.5-3.3-3.5-2.5-4.5,9.6-12.1,14.2-9,17.4-13.2,16-20.7-1-5.2-5.5-8.9-11.6-9.5-2.7-.2-5-.6-5-.8s1.3-2.2,2.9-4.6c1.6-2.4,3.9-6.6,5.1-9.3,4-8.8,11.8-24.2,14.6-28.7,3.4-5.4,14.4-16.9,20.4-21.3,14.7-10.8,32.9-16.1,51.7-15.3,10.8.5,21.5,3.4,28.3,7.6,7.1,4.5,15.5,12.1,19.4,17.6,6.9,9.7,9,15.4,10.6,28.9,1.4,12.1,6.1,17.9,14.6,18.1,4.9.1,8.9-2.4,11.7-7.2,2.3-4,2.4-16.1.2-26.8-4.6-22.2-21.6-43.7-44.5-56.2-14.8-8.2-42.3-12.5-58-9.1-2.8.6-5.3.9-5.5.7s3.2-6.4,7.6-13.8c11.7-19.7,18.7-34.2,35.8-74.2,20.8-48.7,28.4-64,45.4-90.8,30.7-48.6,74.5-88.6,123.2-112.5,7.2-3.5,17.3-7.6,22.5-9,5.2-1.5,10-2.8,10.5-3,2.5-.9,30.4-.4,31,.5.3.5,2.1,1,3.8,1,1.8,0,4.1.7,5.1,1.5,1.1.8,3.1,1.5,4.4,1.5s3.6.6,5,1.4c1.5.8,5,2.5,7.7,3.8,9.9,4.9,13.5,7,13.5,7.9,0,.5.7.9,1.6.9.8,0,3,1,4.7,2.3,1.8,1.2,4,2.7,4.9,3.2,4.7,2.8,18,12.5,23.1,16.8,3.2,2.8,8.6,8.7,12.1,13.1,6.6,8.6,17.6,24.8,17.6,25.9,0,.4,1.1,2.5,2.5,4.7s2.5,4.8,2.5,5.9c0,1,.7,2.4,1.5,3.1s1.5,2.2,1.5,3.4c0,1.1.7,3,1.5,4,.8,1.1,1.5,3.6,1.5,5.7s.7,5.3,1.5,7.2c2.2,5.2,2.2,45.4,0,48.3h0ZM1242.6,279.122c-1.5,6.2-3.9,10.7-5.7,10.7-.6,0-13.3,6-28.3,13.4-28.7,14.2-40,21.2-57.4,35.4-17.1,14-25.9,19.4-38.5,23.7-7.7,2.6-12.7,3.2-12.7,1.6,0-.5,1.9-4.7,4.3-9.3,9.7-18.7,16.3-37.9,22.2-64.1,2.1-9.3,2.1-41.1,0-44.7-.8-1.4-1.4-4.8-1.5-7.7,0-2.8-.4-5.5-1-5.8-.5-.3-1-2.5-1-4.9s-.7-5.1-1.5-6.2c-.8-1-1.5-3-1.5-4.3,0-3.4-8.2-20-14.1-28.7-17.9-26.2-49.9-53-82.4-68.9-24.1-11.8-39-15.5-62.6-15.5-11.7,0-16-.3-15.7-1.2.5-1.4,10.2-6.9,29.8-16.6,37.1-18.5,55-24.4,116.5-38.7,6.2-1.5,13.2-3,27-6,16.5-3.5,22.9-5.8,27-9.6,1.7-1.5,4.1-1.9,14.5-2.2,6.9-.1,13.7-.4,15.2-.5,2.3-.2,3.6,1.1,9.6,9,11.4,15.4,23.2,37.1,31.3,57.8,9.4,24.1,17,52.5,21.3,79,3.3,20.6,3.7,23.9,4.6,33.5,3.4,35.9,3.6,58.3.6,70.8h0Z" fill-rule="evenodd"/>
  </g>
</svg>