<?xml version="1.0" encoding="utf-8"?>
<!-- Generator: Adobe Illustrator 28.0.0, SVG Export Plug-In . SVG Version: 6.00 Build 0)  -->
<svg version="1.1" id="Layer_1" xmlns="http://www.w3.org/2000/svg" xmlns:xlink="http://www.w3.org/1999/xlink" x="0px" y="0px"
	 viewBox="0 0 76.23 81.81" style="enable-background:new 0 0 76.23 81.81;" xml:space="preserve">
<style type="text/css">
	.st0{fill:#110E0D;}
</style>
<g>
	<path class="st0" d="M76.23,69.48H65.09c-0.91,2.28-2.17,4.39-3.73,6.23h14.86V69.48z"/>
	<g>
		<path class="st0" d="M29.28,52.07c-0.01-0.24-0.07-0.44-0.16-0.6c-0.09-0.16-0.22-0.2-0.37-0.13c-0.16,0.07-0.18,0.25-0.08,0.54
			c0.1,0.29,0.05,0.57-0.16,0.84c-0.2,0.27-0.43,0.43-0.69,0.47c-0.26,0.04-0.56-0.03-0.9-0.23c-0.35-0.19-0.57-0.45-0.68-0.77
			s-0.09-0.61,0.06-0.87c0.15-0.26,0.3-0.4,0.46-0.42c0.16-0.02,0.27-0.1,0.33-0.23c0.06-0.13,0.03-0.24-0.09-0.32
			s-0.28-0.08-0.49,0.01c-0.21,0.09-0.38,0.22-0.51,0.42c-0.13,0.19-0.23,0.42-0.31,0.67c-0.08,0.26-0.08,0.56,0.01,0.9
			s0.28,0.64,0.58,0.89c0.29,0.25,0.61,0.42,0.96,0.51c0.35,0.09,0.69,0.06,1.02-0.09c0.33-0.15,0.58-0.39,0.77-0.73
			C29.21,52.6,29.29,52.31,29.28,52.07z"/>
		<path class="st0" d="M29.64,50.98c0.51-0.02,0.94-0.21,1.28-0.58c0.34-0.37,0.51-0.81,0.49-1.32c-0.02-0.51-0.22-0.94-0.59-1.28
			c-0.38-0.35-0.82-0.52-1.33-0.5s-0.94,0.21-1.28,0.59c-0.35,0.38-0.51,0.82-0.49,1.32c0.02,0.51,0.22,0.93,0.6,1.28
			C28.69,50.84,29.14,51,29.64,50.98z M28.59,48.24c0.24-0.26,0.54-0.39,0.89-0.39c0.36-0.01,0.67,0.12,0.94,0.36
			c0.27,0.25,0.41,0.55,0.44,0.9c0.02,0.35-0.09,0.66-0.32,0.92c-0.24,0.26-0.53,0.39-0.89,0.39c-0.36,0-0.67-0.12-0.94-0.36
			c-0.27-0.25-0.41-0.55-0.44-0.9C28.24,48.8,28.35,48.49,28.59,48.24z"/>
		<path class="st0" d="M32.23,48.76c0.08,0.11,0.19,0.11,0.34,0.01c0.15-0.1,0.19-0.21,0.12-0.32l-1.37-1.99l2.91,1.01
			c0.14,0.04,0.24,0.02,0.31-0.07c0.07-0.08,0.07-0.18,0-0.27l-1.81-2.63c-0.1-0.13-0.22-0.14-0.36-0.04
			c-0.14,0.1-0.17,0.22-0.08,0.37l1.28,1.85l-2.77-0.97c-0.16-0.04-0.28,0-0.37,0.1c-0.09,0.1-0.09,0.21,0,0.33L32.23,48.76z"/>
		<path class="st0" d="M37.85,45.96c0.18,0.03,0.29-0.05,0.35-0.23l0.17-0.92l1.44-0.28l0.46,0.78c0.08,0.15,0.21,0.18,0.37,0.11
			c0.16-0.07,0.21-0.19,0.13-0.37l-1.65-2.79c-0.06-0.15-0.22-0.2-0.47-0.15c-0.25,0.05-0.4,0.16-0.43,0.32l-0.57,3.18
			C37.61,45.81,37.68,45.93,37.85,45.96z M38.7,42.72l0.09-0.02l0.77,1.38l-1.12,0.22L38.7,42.72z"/>
		<path class="st0" d="M41.69,45.37c0.18,0.01,0.27-0.05,0.28-0.18l0.16-2.72l0.75,2.08c0.04,0.16,0.12,0.24,0.26,0.26
			c0.14,0.01,0.25-0.06,0.34-0.21l1.02-1.95l-0.16,2.68c-0.01,0.14,0.07,0.22,0.25,0.23c0.17,0.01,0.27-0.05,0.29-0.19l0.19-3.13
			c-0.02-0.22-0.15-0.35-0.4-0.36c-0.25-0.02-0.41,0.07-0.48,0.27l-0.95,1.77l-0.64-1.84c-0.04-0.22-0.2-0.34-0.47-0.36
			c-0.27-0.02-0.43,0.08-0.5,0.3l-0.19,3.13C41.43,45.29,41.51,45.36,41.69,45.37z"/>
		<path class="st0" d="M47.23,46.29c0.48,0.17,0.95,0.14,1.41-0.09c0.46-0.22,0.77-0.58,0.94-1.06c0.17-0.49,0.14-0.96-0.08-1.41
			c-0.22-0.46-0.57-0.77-1.06-0.94c-0.48-0.17-0.95-0.14-1.41,0.09c-0.45,0.22-0.77,0.58-0.93,1.07c-0.17,0.48-0.14,0.95,0.08,1.41
			C46.4,45.81,46.75,46.12,47.23,46.29z M46.65,44.11c0.12-0.35,0.34-0.6,0.65-0.76c0.32-0.16,0.64-0.19,0.97-0.07
			c0.33,0.11,0.57,0.33,0.72,0.66c0.15,0.32,0.16,0.66,0.04,1c-0.12,0.35-0.34,0.6-0.65,0.76c-0.32,0.16-0.64,0.19-0.97,0.07
			c-0.33-0.11-0.57-0.33-0.71-0.66C46.54,44.79,46.53,44.46,46.65,44.11z"/>
		<path class="st0" d="M25.69,55.8c-0.34,0-0.62,0.28-0.62,0.62s0.28,0.62,0.62,0.62c0.34,0,0.62-0.28,0.62-0.62
			S26.04,55.8,25.69,55.8z"/>
		<path class="st0" d="M58.42,47.5c0.14-0.11,0.29-0.18,0.44-0.19c0.33-0.01,0.59-0.28,0.58-0.61l-0.04-3.37
			c0-0.17-0.13-0.33-0.26-0.44s-0.35-0.15-0.53-0.13c-0.55,0-1.04-0.77-1.04-1.66c0-0.88,0.49-1.66,1-1.66
			c0.02,0,0.09,0.01,0.1,0.02c0.17,0.02,0.34-0.04,0.47-0.16c0.13-0.12,0.2-0.28,0.2-0.45l-0.04-3.15c0-0.17-0.09-0.32-0.21-0.43
			c-0.12-0.11-0.3-0.16-0.47-0.15c-0.55,0-1.04-0.77-1.04-1.66s0.49-1.66,0.94-1.67c0.2,0.03,0.41-0.03,0.55-0.17
			c0.11-0.12,0.18-0.27,0.17-0.43l-0.04-2.95c0-0.33-0.27-0.59-0.6-0.6c-0.56-0.01-1.03-0.77-1.03-1.65c0-0.95,0.52-1.62,1-1.65
			c0.32-0.02,0.57-0.29,0.57-0.61l-0.03-2.44c0-0.31-0.24-0.57-0.55-0.59c-0.47-0.04-0.99-0.68-0.99-1.64c0-0.93,0.5-1.57,0.96-1.64
			c0.3-0.04,0.52-0.3,0.52-0.61l-0.03-1.97c0-0.29-0.22-0.54-0.51-0.59c-0.46-0.08-0.94-0.71-0.94-1.64c0-0.9,0.46-1.54,0.91-1.63
			c0.28-0.06,0.48-0.31,0.48-0.6L58.93,8.1c0-0.34-0.28-0.6-0.64-0.6c-0.54-0.02-1.02-0.79-1.02-1.66c0-0.96,0.53-1.63,1.02-1.65
			c0.33-0.01,0.58-0.29,0.58-0.61l0-0.14c0-0.17-0.09-0.33-0.22-0.45s-0.31-0.17-0.48-0.14c-1,0.12-1.98-0.51-1.98-1.32
			c0-0.2,0.07-0.4,0.2-0.6c0.12-0.19,0.13-0.42,0.03-0.62S56.11,0,55.89,0h-4.16c-0.22,0-0.42,0.12-0.52,0.3
			c-0.11,0.19-0.11,0.42,0,0.61c0.1,0.18,0.16,0.36,0.16,0.54c0,0.74-0.77,1.34-1.73,1.34c-0.95,0-1.73-0.6-1.73-1.34
			c0-0.18,0.05-0.36,0.16-0.54c0.11-0.19,0.11-0.42,0-0.61C47.96,0.12,47.76,0,47.54,0H43.5c-0.21,0-0.4,0.11-0.51,0.29
			s-0.12,0.4-0.03,0.59c0.08,0.15,0.12,0.31,0.12,0.48c0,0.74-0.77,1.34-1.73,1.34c-0.95,0-1.73-0.6-1.73-1.34
			c0-0.16,0.04-0.32,0.12-0.48c0.09-0.19,0.08-0.41-0.03-0.59C39.6,0.11,39.4,0,39.19,0h-3.95c-0.2,0-0.39,0.1-0.5,0.27
			s-0.13,0.38-0.05,0.57c0.06,0.15,0.1,0.29,0.1,0.42c0,0.74-0.77,1.34-1.73,1.34c-0.95,0-1.73-0.6-1.73-1.34
			c0-0.13,0.03-0.27,0.09-0.41c0.08-0.19,0.06-0.4-0.05-0.57C31.26,0.1,31.07,0,30.87,0h-3.88c-0.2,0-0.38,0.1-0.5,0.26
			c-0.11,0.16-0.14,0.37-0.07,0.55c0.05,0.14,0.07,0.25,0.07,0.35c0,0.74-0.77,1.34-1.73,1.34s-1.73-0.6-1.73-1.34
			c0-0.1,0.02-0.22,0.07-0.35c0.07-0.19,0.04-0.39-0.07-0.55C22.93,0.1,22.74,0,22.54,0h-3.81c-0.19,0-0.37,0.09-0.49,0.24
			S18.1,0.6,18.15,0.78c0.03,0.11,0.05,0.21,0.05,0.29c0,0.74-0.77,1.34-1.73,1.34c-0.95,0-1.73-0.6-1.73-1.34
			c0-0.09,0.02-0.18,0.05-0.3c0.05-0.18,0.02-0.38-0.09-0.53C14.59,0.09,14.41,0,14.22,0h-3.75C10.29,0,10.11,0.08,10,0.23
			C9.88,0.37,9.84,0.56,9.88,0.74C9.9,0.83,9.91,0.9,9.91,0.98c0,0.74-0.77,1.34-1.73,1.34c-0.95,0-1.73-0.6-1.73-1.34
			c0-0.08,0.01-0.15,0.03-0.24c0.04-0.18,0-0.37-0.11-0.51S6.08,0,5.9,0H2.53c-0.21,0-0.4,0.11-0.51,0.28
			C1.91,0.45,1.89,0.67,1.98,0.86c0.19,0.4,0.29,0.87,0.29,1.36c0,1.25-0.65,2.3-1.32,2.31C0.91,4.53,0.85,4.52,0.82,4.52
			c-0.16,0-0.33,0.05-0.45,0.16C0.25,4.8,0.19,4.96,0.19,5.12L0.18,7.66c0,0.17,0.08,0.32,0.2,0.43C0.5,8.2,0.66,8.25,0.82,8.25
			c0.78,0.01,1.45,1.04,1.45,2.3c0,1.25-0.65,2.3-1.34,2.31c-0.03-0.01-0.09-0.02-0.12-0.02c-0.16-0.01-0.33,0.05-0.45,0.16
			c-0.12,0.11-0.19,0.27-0.19,0.44l-0.01,2.54c0,0.17,0.09,0.32,0.21,0.43c0.11,0.11,0.28,0.16,0.44,0.16
			c0.82,0.01,1.45,1.04,1.46,2.3c0,1.25-0.65,2.3-1.36,2.31c-0.02,0-0.09-0.02-0.12-0.02c-0.17-0.01-0.33,0.05-0.46,0.16
			c-0.12,0.11-0.19,0.27-0.19,0.44l-0.01,2.55c0,0.17,0.07,0.33,0.19,0.44c0.12,0.11,0.28,0.18,0.45,0.16
			c0.04,0,0.08-0.01,0.07-0.01c0.77,0,1.42,1.06,1.42,2.3c0,1.25-0.65,2.3-1.37,2.31c-0.02,0-0.1-0.02-0.12-0.02
			c-0.16-0.01-0.33,0.04-0.46,0.16c-0.12,0.11-0.2,0.28-0.2,0.44l-0.01,2.55c0,0.17,0.07,0.33,0.2,0.45
			c0.13,0.12,0.3,0.17,0.46,0.16c0.04,0,0.08-0.01,0.07-0.02c0.77,0,1.42,1.06,1.42,2.3c0,1.25-0.65,2.3-1.39,2.3
			c-0.02,0-0.09-0.02-0.11-0.02C0.6,37.83,0.42,37.89,0.3,38c-0.13,0.11-0.2,0.28-0.2,0.45l-0.01,2.56c0,0.17,0.07,0.34,0.2,0.45
			c0.13,0.12,0.3,0.17,0.47,0.15l0.09-0.02c0.77,0,1.42,1.06,1.42,2.3c0,1.25-0.65,2.3-1.41,2.3c0,0,0,0,0,0
			c-0.02,0-0.1-0.02-0.11-0.02c-0.17-0.02-0.34,0.03-0.47,0.15c-0.13,0.11-0.2,0.28-0.2,0.45l-0.01,2.57c0,0.17,0.07,0.34,0.2,0.45
			c0.13,0.11,0.3,0.17,0.47,0.15c0.01,0,0.09-0.02,0.1-0.02c0.77,0,1.42,1.06,1.42,2.3c0,1.25-0.65,2.3-1.4,2.31l-0.08,0.58
			l-0.05-0.6c-0.17-0.03-0.35,0.03-0.48,0.14c-0.13,0.11-0.21,0.28-0.21,0.46l-0.01,2.57c0,0.17,0.07,0.34,0.21,0.46
			s0.31,0.17,0.48,0.14c0.01,0,0.1-0.02,0.12-0.02c0.77,0,1.42,1.06,1.42,2.3s-0.65,2.3-1.41,2.31l-0.07,0.57l-0.07-0.6
			c-0.18-0.03-0.35,0.02-0.49,0.14c-0.13,0.11-0.21,0.28-0.21,0.46l-0.01,2.58c0,0.18,0.08,0.35,0.21,0.46
			c0.13,0.12,0.31,0.17,0.49,0.14c0.01,0,0.12-0.02,0.13-0.02c0.77,0,1.42,1.06,1.42,2.3c0,1.25-0.65,2.3-1.41,2.31l-0.14-0.03
			c-0.18-0.03-0.35,0.02-0.49,0.13c-0.14,0.11-0.21,0.28-0.21,0.46L0,74.36c0,0.18,0.08,0.35,0.21,0.46
			c0.14,0.11,0.31,0.16,0.49,0.13c0,0,0.13-0.03,0.14-0.03c0.63,0,1.2,0.73,1.37,1.74c0.05,0.29,0.3,0.51,0.6,0.51H5
			c0.17,0,0.32-0.13,0.44-0.25s0.16-0.35,0.15-0.52c0-0.75,0.7-1.37,1.55-1.39C7.58,75,8,75.17,8.29,75.46
			c0.24,0.24,0.37,0.54,0.37,0.86c0,0.04-0.01,0.07-0.02,0.17c-0.03,0.17,0.03,0.35,0.14,0.48c0.12,0.13,0.28,0.21,0.46,0.21h3.39
			c0.17,0,0.34-0.08,0.46-0.21c0.11-0.13,0.17-0.31,0.14-0.48c0,0-0.02-0.15-0.02-0.15c0-0.75,0.7-1.37,1.55-1.39
			c0.43-0.02,0.86,0.15,1.15,0.43c0.24,0.24,0.37,0.54,0.37,0.86c0,0.07-0.01,0.14-0.03,0.21c-0.03,0.18,0.01,0.36,0.13,0.5
			c0.12,0.14,0.29,0.22,0.47,0.22h3.4c0.18,0,0.35-0.08,0.46-0.21c0.11-0.14,0.16-0.32,0.13-0.49c-0.01-0.07-0.03-0.13-0.03-0.2
			c0-0.75,0.7-1.37,1.55-1.39c0.43-0.02,0.86,0.15,1.15,0.43c0.24,0.24,0.37,0.54,0.37,0.86c0,0.09-0.01,0.18-0.03,0.26
			c-0.04,0.18,0,0.37,0.12,0.51c0.11,0.14,0.29,0.23,0.47,0.23h3.42c0.18,0,0.36-0.08,0.47-0.23c0.07-0.09,0.11-0.2,0.12-0.31
			c3.69,3.21,8.49,5.17,13.75,5.17c4.96,0,9.52-1.74,13.12-4.63h2.39c0.25,0,0.47-0.15,0.56-0.38c0.09-0.23,0.04-0.49-0.14-0.66
			c-0.21-0.2-0.32-0.47-0.32-0.75c0-0.64,0.63-1.14,1.24-1.02c0.18,0.04,0.36-0.01,0.5-0.13c0.14-0.12,0.22-0.29,0.22-0.47
			l-0.02-1.39c0-0.02-0.01-0.04-0.01-0.06c2.17-3.3,3.44-7.25,3.44-11.49C63.2,55.77,61.41,51.13,58.42,47.5z M58.14,73.26
			c-0.75,0.26-1.32,0.9-1.47,1.7c-0.34,0.35-0.71,0.68-1.08,1.01h0c0-0.02,0-0.04,0-0.07c0-0.65-0.26-1.26-0.74-1.73
			c-0.52-0.51-1.25-0.77-2.02-0.78c-1.5,0.03-2.72,1.18-2.74,2.57h-2.12c0-0.65-0.26-1.26-0.74-1.72c-0.04-0.04-0.09-0.07-0.13-0.11
			c1.64-0.54,3.16-1.37,4.47-2.44h1.89c0.33,0,0.6-0.27,0.6-0.6v-2.05c1.68-2.31,2.68-5.14,2.68-8.21c0-3.07-1-5.9-2.68-8.21v-3.43
			c0.06,0.02,0.11,0.03,0.17,0.03c0.34,0,0.62-0.28,0.62-0.62c0-0.34-0.28-0.62-0.62-0.62c-0.06,0-0.12,0.02-0.17,0.03v-3.55
			c1.11,0.8,2.13,1.71,3.05,2.72c-0.3,0.49-0.49,1.1-0.49,1.78c0,1.35,0.7,2.46,1.67,2.77l0.02,1.82c-1.12,0.18-1.96,1.36-1.96,2.84
			c0,1.51,0.88,2.72,2.03,2.85l0.03,2.21c-1.04,0.26-1.8,1.4-1.8,2.81c0,1.44,0.8,2.6,1.87,2.83l0.02,1.44
			c-1.07,0.17-1.89,1.1-1.89,2.22c0,1.07,0.75,1.95,1.75,2.18C58.29,73.06,58.22,73.16,58.14,73.26z M27.67,74.84
			c-0.93-0.96-1.76-2.02-2.48-3.15h8.7c0.94,0.77,1.99,1.41,3.12,1.92c-1.17,0.26-2.07,1.21-2.14,2.36h-2.13
			c-0.04-0.6-0.29-1.15-0.73-1.58c-0.52-0.51-1.26-0.78-2.02-0.78C29,73.63,28.15,74.12,27.67,74.84z M52.85,42.77
			c-0.45-0.26-0.9-0.51-1.37-0.74V7.37c0-0.11-0.09-0.2-0.2-0.2H7.27c-0.11,0-0.2,0.09-0.2,0.2v61.71c0,0.11,0.09,0.2,0.2,0.2h15.76
			c0.18,0.41,0.38,0.81,0.58,1.2H5.68V6.28h47.17V42.77z M51.79,70.48h-1.57c1.02-0.79,1.91-1.73,2.63-2.79v1.68
			C52.52,69.76,52.16,70.13,51.79,70.48z M45.21,73.47c-0.63,0.01-1.21,0.24-1.67,0.58c-0.27,0.02-0.54,0.04-0.81,0.04
			c-2.82,0-5.43-0.89-7.58-2.4h1.97c1.68,0.87,3.59,1.37,5.61,1.37c2.02,0,3.93-0.5,5.61-1.37h1.97c-1.24,0.87-2.64,1.52-4.14,1.93
			C45.87,73.52,45.54,73.46,45.21,73.47z M32.52,69.28h1.38c0.42,0.43,0.86,0.83,1.34,1.2h-1.57C33.26,70.1,32.87,69.71,32.52,69.28
			z M51.08,41.83c-2.69-1.26-5.69-1.99-8.85-1.99c-11.57,0-20.98,9.41-20.98,20.98c0,2.85,0.58,5.57,1.61,8.04H7.47V7.57h43.6V41.83
			z M22,60.83c0-11.15,9.07-20.23,20.23-20.23c3.18,0,6.18,0.76,8.85,2.07v2.15l-1.43,2.21c-0.06,0.12-0.02,0.23,0.13,0.32
			c0.15,0.1,0.26,0.09,0.34-0.01l0.71-1.1l0.25,0.16v3.18c-2.34-1.74-5.22-2.79-8.35-2.79c-7.73,0-14.01,6.29-14.01,14.02
			c0,2.99,0.95,5.77,2.56,8.04h-7.59C22.6,66.41,22,63.69,22,60.83z M51.48,47.07c0,0.01,0,0.01,0,0.02l0,1.12V47.07z M51.48,46.04
			v-0.86l0.19-0.29l0.48,0.31c0.2,0.13,0.32,0.28,0.34,0.47c0.02,0.19-0.06,0.35-0.24,0.49c-0.19,0.14-0.4,0.13-0.63-0.03
			L51.48,46.04z M29.47,60.83c0-7.31,5.95-13.26,13.26-13.26c3.16,0,6.07,1.12,8.35,2.97v1.37c-2.19-2.05-5.12-3.32-8.35-3.32
			c-6.75,0-12.24,5.49-12.24,12.24c0,3.08,1.15,5.89,3.04,8.04h-1.32C30.5,66.64,29.47,63.86,29.47,60.83z M52.85,66.23
			c-0.39,0.72-0.85,1.39-1.37,2.01V53.42c0.52,0.62,0.99,1.29,1.37,2.01V66.23z M54.06,59.11c0.09,0.56,0.14,1.14,0.14,1.72
			c0,0.59-0.06,1.16-0.14,1.72V59.11z M36.53,70.48c-0.55-0.36-1.07-0.76-1.55-1.2h15.49c-0.48,0.44-1,0.85-1.55,1.2H36.53z
			 M46.41,71.69c-1.16,0.39-2.4,0.62-3.69,0.62c-1.29,0-2.53-0.22-3.69-0.62H46.41z M51.08,68.68c-0.06,0.06-0.11,0.13-0.17,0.19
			H34.55c-2.04-2.07-3.3-4.91-3.3-8.04c0-6.33,5.15-11.48,11.48-11.48c3.29,0,6.26,1.4,8.35,3.63V68.68z M54.06,65.42
			c0.58-1.42,0.9-2.96,0.9-4.59c0-1.62-0.32-3.17-0.9-4.59v-2.26c1.21,2,1.92,4.34,1.92,6.84s-0.71,4.84-1.92,6.84V65.42z
			 M52.85,53.97c-0.41-0.6-0.87-1.16-1.37-1.67v-1.4c0.49,0.43,0.95,0.89,1.37,1.39V53.97z M51.48,49.9v-1.54
			c0.02,0.16,0.12,0.24,0.3,0.24c0.18,0,0.27-0.09,0.27-0.29l0-1.15c0.02-0.26-0.05-0.44-0.23-0.53c0.37,0.14,0.69,0.08,0.94-0.19
			c0.03-0.03,0.06-0.07,0.08-0.11v4.83C52.42,50.72,51.97,50.29,51.48,49.9z M52.85,45.1c-0.12-0.15-0.28-0.28-0.48-0.4l-0.63-0.41
			c-0.1-0.07-0.18-0.06-0.26-0.01v-1.41c0.47,0.24,0.92,0.51,1.37,0.79V45.1z M23.87,69.28h7.7c0.32,0.42,0.66,0.82,1.02,1.2h-8.14
			C24.24,70.09,24.06,69.68,23.87,69.28z M42.73,74.84c0.03,0,0.06,0,0.1,0c-0.2,0.34-0.33,0.72-0.35,1.13h-2.13
			c-0.02-0.53-0.21-1.02-0.55-1.43C40.74,74.73,41.72,74.84,42.73,74.84z M59.06,71.79c-0.61,0.11-1.23-0.38-1.23-1.02
			c0-0.63,0.59-1.11,1.2-1.02c0.17,0.02,0.35-0.02,0.49-0.14c0.13-0.12,0.21-0.29,0.21-0.46l-0.03-2.64c0-0.18-0.08-0.35-0.22-0.46
			c-0.14-0.11-0.32-0.16-0.49-0.13c0,0-0.11,0.02-0.11,0.02c-0.55,0-1.04-0.77-1.04-1.66c0-0.88,0.49-1.66,1.01-1.66
			c0,0,0.11,0.02,0.11,0.02c0.17,0.02,0.35-0.03,0.48-0.15c0.13-0.12,0.2-0.28,0.2-0.46l-0.05-3.44c0-0.19-0.1-0.37-0.25-0.48
			c-0.16-0.11-0.36-0.14-0.54-0.08c-0.08,0.02-0.14,0.04-0.19,0.04c-0.55,0-1.04-0.77-1.04-1.66c0-0.88,0.49-1.66,1.04-1.66
			c0.05,0,0.11,0.01,0.16,0.02c0.18,0.05,0.38,0.01,0.53-0.11c0.15-0.12,0.24-0.3,0.23-0.49l-0.04-2.96c0-0.34-0.27-0.61-0.65-0.6
			c-0.54-0.02-1.01-0.79-1.01-1.66c0-0.3,0.05-0.56,0.14-0.79c2.79,3.47,4.48,7.87,4.48,12.66c0,4.04-1.2,7.8-3.26,10.97
			C59.15,71.79,59.1,71.78,59.06,71.79z M25.1,75.97c-0.05-0.57-0.3-1.1-0.73-1.52c-0.52-0.51-1.25-0.78-2.02-0.78
			c-1.4,0.03-2.55,1.03-2.72,2.29h-2.16c-0.06-0.54-0.31-1.05-0.72-1.45c-0.52-0.51-1.27-0.78-2.02-0.78
			c-1.37,0.03-2.51,1-2.71,2.22H9.85c-0.08-0.52-0.32-1-0.71-1.38c-0.52-0.51-1.28-0.78-2.02-0.78c-1.35,0.03-2.47,0.96-2.69,2.15
			H3.3c-0.34-1.19-1.13-2.04-2.09-2.21l0-1.37c1.29-0.23,2.26-1.68,2.26-3.48c0-1.79-0.96-3.23-2.24-3.48l0-1.38
			c1.28-0.25,2.24-1.68,2.24-3.48c0-1.78-0.95-3.22-2.22-3.47l0-1.39c1.27-0.26,2.22-1.69,2.22-3.47c0-1.77-0.94-3.2-2.2-3.47l0-1.4
			c1.26-0.27,2.19-1.7,2.19-3.47c0-1.76-0.93-3.18-2.18-3.46l0-1.41c1.25-0.28,2.17-1.7,2.17-3.46c0-1.75-0.91-3.17-2.15-3.46
			l0-1.42c1.24-0.29,2.15-1.71,2.15-3.46c0-1.74-0.9-3.15-2.13-3.45l0-1.43c1.23-0.31,2.13-1.71,2.13-3.45
			c0-1.73-0.89-3.13-2.11-3.45l0-1.44c1.21-0.32,2.11-1.72,2.11-3.45c0-1.69-0.85-3.07-2.09-3.42l0-1.47
			c1.2-0.33,2.08-1.72,2.08-3.44c0-0.35-0.04-0.69-0.11-1.01h1.89c0.13,1.3,1.39,2.32,2.92,2.32c1.53,0,2.79-1.02,2.92-2.32h2.43
			c0.08,1.34,1.37,2.41,2.93,2.41c1.57,0,2.85-1.07,2.93-2.41h2.42c0.03,1.39,1.33,2.51,2.94,2.51s2.91-1.12,2.94-2.51h2.42
			c0,0.02,0,0.03,0,0.05c0,1.41,1.32,2.55,2.94,2.55c1.62,0,2.94-1.14,2.94-2.55c0-0.02,0-0.03,0-0.05h2.42c0,0.05,0,0.09,0,0.14
			c0,1.41,1.32,2.55,2.94,2.55s2.94-1.14,2.94-2.55c0-0.05,0-0.09,0-0.14h2.43C46.7,1.29,46.7,1.37,46.7,1.45
			c0,1.41,1.32,2.55,2.94,2.55s2.94-1.14,2.94-2.55c0-0.08,0-0.16-0.01-0.24h2.45C55,1.32,54.99,1.43,54.99,1.54
			c0,1.03,0.7,1.91,1.71,2.32c-0.39,0.51-0.63,1.22-0.63,1.99c0,1.35,0.69,2.45,1.66,2.77l0.02,1.35c-0.83,0.43-1.39,1.46-1.39,2.64
			c0,1.23,0.59,2.27,1.46,2.68l0.01,1.08c-0.87,0.4-1.47,1.46-1.47,2.68c0,1.27,0.63,2.34,1.54,2.71l0.02,1.5
			c-0.91,0.37-1.56,1.45-1.56,2.72c0,1.33,0.68,2.42,1.63,2.76l0.03,1.94c-0.97,0.32-1.66,1.42-1.66,2.77c0,1.38,0.73,2.5,1.73,2.79
			l0.03,2.05c-1.02,0.28-1.76,1.41-1.76,2.8c0,1.42,0.78,2.58,1.83,2.82l0.03,2.3c-0.23,0.09-0.43,0.22-0.62,0.38
			c-1.06-1.15-2.24-2.19-3.54-3.08V5.67c0-0.33-0.27-0.6-0.6-0.6H5.08c-0.33,0-0.6,0.27-0.6,0.6v65.42c0,0.33,0.27,0.6,0.6,0.6H24.3
			c0.86,1.41,1.86,2.72,3.02,3.89c-0.03,0.13-0.06,0.25-0.08,0.38H25.1z M28.56,75.7c0.23-0.5,0.79-0.87,1.44-0.88
			c0.43-0.03,0.86,0.15,1.15,0.43c0.24,0.24,0.37,0.54,0.37,0.86c0,0.09-0.01,0.19-0.05,0.31c-0.05,0.18-0.01,0.38,0.1,0.52
			c0.11,0.15,0.29,0.24,0.48,0.24h3.46c0.19,0,0.36-0.09,0.48-0.23c0.11-0.15,0.15-0.34,0.11-0.52c-0.03-0.11-0.04-0.2-0.04-0.29
			c0-0.75,0.7-1.37,1.55-1.39c0.42-0.01,0.86,0.15,1.15,0.43c0.24,0.24,0.37,0.54,0.37,0.86c0,0.1-0.02,0.21-0.06,0.35
			c-0.06,0.18-0.02,0.38,0.09,0.54c0.11,0.16,0.29,0.25,0.49,0.25h3.51c0.19,0,0.37-0.09,0.49-0.24c0.11-0.15,0.15-0.35,0.09-0.53
			c-0.04-0.13-0.06-0.24-0.06-0.34c0-0.75,0.7-1.37,1.55-1.39c0.43-0.01,0.86,0.15,1.15,0.43c0.24,0.24,0.37,0.54,0.37,0.86
			c0,0.12-0.03,0.25-0.08,0.4c-0.07,0.19-0.04,0.39,0.08,0.55c0.11,0.16,0.3,0.26,0.49,0.26h3.56c0.2,0,0.38-0.09,0.49-0.26
			c0.11-0.16,0.14-0.36,0.08-0.55c-0.05-0.15-0.07-0.27-0.07-0.38c0-0.75,0.7-1.37,1.55-1.39c0.44-0.02,0.86,0.15,1.15,0.43
			c0.24,0.24,0.37,0.54,0.37,0.86c0,0.14-0.03,0.29-0.09,0.45c-0.07,0.19-0.05,0.4,0.06,0.56c0.01,0.02,0.03,0.02,0.04,0.04
			c-3.39,2.57-7.6,4.11-12.17,4.11C36.95,81.06,32.16,79.01,28.56,75.7z"/>
		<path class="st0" d="M65.58,53.78h10.65v-5.52H62.9C64.03,49.95,64.93,51.81,65.58,53.78z"/>
		<path class="st0" d="M76.23,58.5h-9.63c0.09,0.81,0.15,1.64,0.15,2.47c0,1.22-0.11,2.41-0.3,3.58h9.78V58.5z"/>
		<path class="st0" d="M76.23,55.27H66.01c0.15,0.57,0.27,1.15,0.37,1.73h9.84V55.27z"/>
		<path class="st0" d="M65.62,67.99h10.61v-1.66H66.09C65.95,66.89,65.8,67.45,65.62,67.99z"/>
	</g>
</g>
</svg>
