<?xml version="1.0" encoding="utf-8"?>
<!-- Generator: Adobe Illustrator 28.0.0, SVG Export Plug-In . SVG Version: 6.00 Build 0)  -->
<svg version="1.1" id="Layer_1" xmlns="http://www.w3.org/2000/svg" xmlns:xlink="http://www.w3.org/1999/xlink" x="0px" y="0px"
	 viewBox="0 0 51.23 102.48" style="enable-background:new 0 0 51.23 102.48;" xml:space="preserve">
<style type="text/css">
	.st0{fill:#110E0D;}
</style>
<g>
	<path class="st0" d="M51.22,43.06c0.1-2.69-4.18-5.01-12.07-6.53c-0.23-0.05-0.47-0.09-0.71-0.13c0.12-0.16,0.13-0.38,0.02-0.56
		c-0.12-0.19-0.35-0.26-0.56-0.21c0.07-0.13,0.09-0.29,0.02-0.44c-0.11-0.25-0.42-0.37-0.67-0.25l-0.92,0.41l0.98-1.15
		c0.18-0.21,0.15-0.53-0.06-0.71c-0.21-0.18-0.53-0.15-0.71,0.06l-1.91,2.26c-0.25-0.03-0.5-0.06-0.75-0.09
		c0.23-0.3,0.44-0.59,0.62-0.87c0.02-0.03,0.04-0.06,0.06-0.09c0.24-0.38,0.44-0.74,0.6-1.09l2.05-0.65
		c0.27-0.08,0.41-0.37,0.33-0.63c-0.08-0.26-0.37-0.41-0.63-0.33l-1.32,0.42c0.12-0.5,0.17-0.96,0.13-1.36
		c1.18,0.38,2.24,0.5,3.09,0.5c0.24,0,0.46-0.01,0.67-0.02c2.33-0.17,4.46-1.24,5.43-2.73c0.05-0.08,0.08-0.17,0.09-0.27
		c0.2-1.92-0.57-3.52-1.03-4.28c0.24-0.22,0.47-0.45,0.69-0.7c2.4-2.77,3.38-6.72,2.92-11.72c-0.01-0.16-0.09-0.3-0.21-0.41
		c-1.37-1.15-2.07-2.12-2.63-2.91c0.44-2.53-0.24-3.97-0.92-4.72c-0.77-0.86-1.95-1.31-3.22-1.3c-0.92-1.39-2.56-2.22-4.4-2.22
		l-1.66,0.01c-2.54,0.02-4.73,0.03-6.13-0.33C28.28-0.02,28.13,0,28,0.07c-0.56,0.3-0.86,0.68-1.03,1
		c-0.72-0.16-1.85-0.29-2.57,0.26c-0.17,0.13-2.98,2.32-4.46,5.8c-1.48-0.49-3.15,0.11-4.09,1.57c-0.75,1.15-1.5,0.86-1.63,0.8
		c-0.16-0.09-0.35-0.09-0.52-0.02c-0.17,0.07-0.29,0.22-0.34,0.39c-0.03,0.09-2.54,9.52,6.61,15.25c0,0,0.01,0,0.01,0
		c1.46,1.37,3.66,2.62,6.9,3.58c0.06,0.02,0.11,0.02,0.17,0.02c0.16,0,0.31-0.06,0.42-0.17c0.27-0.27,0.52-0.46,0.76-0.63
		c-0.77,1.89-1.41,4.57-1.88,7.26c-1.6-0.05-3.2-0.05-4.77-0.02c-0.38-0.42-0.76-0.82-1.15-1.21c0.03-0.06,0.05-0.12,0.08-0.18
		l1.6,0.93c0.08,0.05,0.17,0.07,0.25,0.07c0.17,0,0.34-0.09,0.44-0.25c0.14-0.24,0.06-0.55-0.18-0.69l-1.29-0.75l0.87-0.49
		l1.63,1.54c0.1,0.09,0.22,0.14,0.35,0.14c0.13,0,0.27-0.05,0.37-0.16c0.19-0.2,0.18-0.52-0.02-0.71l-1.4-1.32l0.84-0.47
		c0.24-0.14,0.33-0.44,0.19-0.69c-0.14-0.24-0.45-0.33-0.69-0.19l-0.65,0.37l0.04-1.23c0.01-0.28-0.21-0.51-0.49-0.52
		c-0.27-0.01-0.51,0.21-0.52,0.49l-0.05,1.84l-0.73,0.41c0.07-0.56,0.03-1.09-0.14-1.58c-0.15-0.43-0.41-0.81-0.73-1.15l1.2-0.39
		c0.27-0.09,0.41-0.37,0.33-0.63c-0.08-0.26-0.37-0.41-0.63-0.33l-1.03,0.33c0.43-0.88,0.44-0.96,0.45-1.04
		c0.03-0.28-0.16-0.57-0.43-0.6c-0.27-0.04-0.52,0.12-0.55,0.4c-0.04,0.11-0.32,0.69-0.63,1.32c-0.17-0.09-0.34-0.18-0.53-0.25
		c-0.31-0.12-0.66,0.04-0.78,0.35c-0.12,0.31,0.04,0.66,0.35,0.78c0.99,0.38,1.62,0.91,1.85,1.59c0.2,0.59,0.12,1.33-0.25,2.16
		c-1.04-0.98-2.08-1.87-3.1-2.66c-0.12-0.39-0.24-0.84-0.36-1.32l0.82-0.54c0.23-0.15,0.3-0.47,0.14-0.7s-0.47-0.3-0.7-0.14
		l-0.52,0.35c-0.02-0.09-0.05-0.19-0.07-0.28l1.14-1.13c0.2-0.2,0.2-0.51,0-0.71c-0.2-0.2-0.51-0.2-0.71,0l-0.71,0.7
		c-0.36-1.48-0.38-1.5-0.64-1.6l-0.19,0.47l-0.45,0.21c0.03,0.09,0.13,0.49,0.25,0.96l-1.63-0.83c-0.24-0.13-0.55-0.03-0.68,0.22
		c-0.13,0.25-0.03,0.55,0.22,0.68l2.4,1.22c0.12,0.47,0.24,0.97,0.37,1.45c-1.59-1.16-3.06-2.08-4.21-2.74l1.05-1.25
		c0.18-0.21,0.15-0.53-0.06-0.71c-0.21-0.18-0.53-0.15-0.71,0.06l-0.34,0.41l0.16-0.98c0.04-0.27-0.14-0.53-0.42-0.58
		c-0.28-0.04-0.53,0.14-0.58,0.42l-0.31,1.96c-0.74-0.4-1.22-0.62-1.32-0.67c-0.31-0.14-0.66-0.01-0.8,0.3
		c-0.14,0.3-0.01,0.66,0.3,0.8c0.03,0.01,0.59,0.28,1.51,0.78c-0.18,0.07-0.37,0.15-0.57,0.23l-1.13-0.37
		c-0.27-0.09-0.55,0.06-0.64,0.32c-0.09,0.26,0.06,0.55,0.32,0.64l0.17,0.05c-0.1,0.06-0.2,0.12-0.3,0.18
		c-0.23,0.16-0.29,0.47-0.13,0.7c0.1,0.14,0.26,0.22,0.42,0.22c0.1,0,0.2-0.03,0.29-0.09c0.21-0.14,0.44-0.27,0.69-0.4l0.13,0.51
		c0.06,0.23,0.26,0.38,0.49,0.38c0.04,0,0.09-0.01,0.13-0.02c0.27-0.07,0.43-0.35,0.36-0.62L9.4,28.25
		c0.43-0.17,0.82-0.32,1.09-0.41c0.74,0.44,1.6,0.98,2.54,1.61c0,0.23,0.01,0.62,0.02,1.07c-0.35,0.06-0.68,0.12-1,0.19l-0.98-1.15
		c-0.18-0.21-0.5-0.24-0.71-0.06c-0.21,0.18-0.24,0.5-0.06,0.71l0.63,0.74c-0.09,0.02-0.19,0.04-0.27,0.06
		c-1.04,0.25-1.3,0.26-1.61-0.16c-0.16-0.22-0.48-0.27-0.7-0.11c-0.22,0.17-0.27,0.48-0.11,0.7c0.42,0.57,0.9,0.74,1.42,0.74
		c0.11,0,0.22-0.02,0.33-0.03c-0.16,0.2-0.31,0.42-0.42,0.68c-0.12,0.25-0.01,0.55,0.25,0.67c0.07,0.03,0.14,0.05,0.21,0.05
		c0.19,0,0.37-0.11,0.46-0.29c0.41-0.89,1.34-1.41,1.54-1.51c0.33-0.07,0.69-0.15,1.07-0.21c0.02,0.27,0.04,0.53,0.07,0.77
		l-1.05,0.41c-0.26,0.1-0.39,0.39-0.28,0.65c0.1,0.26,0.39,0.38,0.65,0.28l-0.09,0.15c-0.15,0.24-0.07,0.55,0.16,0.69
		c0.08,0.05,0.17,0.08,0.27,0.08c0.17,0,0.33-0.08,0.43-0.24l0.65-1.04c0.41,0.27,0.71,0.6,0.71,0.6c0.1,0.11,0.24,0.17,0.38,0.17
		c0.12,0,0.24-0.04,0.33-0.12c0.21-0.18,0.23-0.5,0.05-0.71c-0.02-0.03-0.51-0.58-1.19-0.95c-0.03-0.25-0.06-0.55-0.08-0.87
		c0.63-0.04,1.28,0.01,1.89,0.22c0.7,0.56,1.42,1.17,2.14,1.82c-0.77-0.09-1.4-0.08-1.44-0.08c-0.28,0.01-0.5,0.24-0.49,0.51
		c0.01,0.28,0.22,0.48,0.51,0.49c0.01,0,1.67-0.02,2.81,0.4c0.14,0.14,0.28,0.28,0.42,0.42c-8.64,0.35-16.17,1.91-18.8,4.39
		c-0.85,0.8-1.22,1.7-1.1,2.65c0.04,0.3,0.87,6.82,1.9,10.21c0.04,0.12,0.11,0.23,0.21,0.3c0.98,0.75,2.08,1.41,3.25,1.98
		l5.56,25.42c0.06,0.28,0.31,0.48,0.59,0.48h1c0.26,0,0.49-0.16,0.57-0.41c0.03-0.08,0.31-0.81,0.83-0.66
		c0.15,0.05,0.41,0.44,0.63,0.79c0.56,0.88,1.37,2.1,3.15,2.91c0.04,0.02,0.07,0.03,0.11,0.05c0.45,0.2,0.95,0.38,1.54,0.51
		c0.5,0.11,1.08,0.19,1.69,0.26c0.03,0,0.05,0.02,0.08,0.02c0.01,0,0.03,0,0.04,0c1.02,0.11,2.14,0.16,3.32,0.16
		c4.06,0,8.53-0.58,9.75-1.35c0.13-0.08,0.22-0.21,0.26-0.35c0.3-1.1,0.77-1.87,1.3-2.12c0.23-0.11,0.47-0.11,0.72,0
		c0.47,0.21,0.5,0.62,0.5,0.69c-0.01,0.2,0.08,0.38,0.24,0.5c0.16,0.12,0.36,0.15,0.55,0.09l0.98-0.31c0.19-0.06,0.33-0.21,0.39-0.4
		l7.92-25.8c0.59-0.29,1.11-0.55,1.47-0.75c1.68-0.94,2.4-8.28,2.62-11.12C51.21,43.26,51.22,43.16,51.22,43.06z M14.05,30.42
		c0-0.09,0-0.16-0.01-0.24c0.11,0.08,0.22,0.15,0.33,0.24C14.27,30.41,14.16,30.41,14.05,30.42z M33.28,62.63
		c0.17,0.25,0.35,0.48,0.53,0.69c0.52,0.64,1.06,1.29,0.44,2.14c-0.23,0.31-0.48,0.47-0.75,0.47c0,0-0.01,0-0.01,0
		c-0.44,0-0.77-0.41-1.03-0.75c-0.06-0.08-0.13-0.16-0.18-0.22c-0.11-0.12-0.26-0.11-0.37-0.07c-0.16,0.07-0.32,0.27-0.29,0.62
		c0.02,0.24,0.23,0.4,0.57,0.64c0.44,0.31,0.99,0.69,0.98,1.51c-0.01,0.72-0.14,1.17-0.44,1.46c-0.26,0.25-0.64,0.37-1.18,0.37
		c-0.02,0-0.03,0-0.05,0c-0.14,0-0.25-0.12-0.25-0.26c0-0.14,0.11-0.26,0.25-0.25c0.45,0,0.7-0.07,0.87-0.23
		c0.19-0.19,0.29-0.54,0.29-1.11c0.01-0.55-0.37-0.81-0.76-1.09c-0.37-0.26-0.75-0.53-0.78-1.02c-0.01-0.08,0.01-0.14,0.01-0.21
		c-0.28-0.03-0.54-0.22-0.76-0.4c-0.15-0.12-0.31-0.24-0.46-0.31c-0.21-0.09-0.4-0.03-0.5,0.02c-0.14,0.07-0.2,0.16-0.21,0.18
		c0,0.14-0.11,0.25-0.25,0.25c-0.14,0-0.25-0.12-0.25-0.26c0-0.19,0.13-0.4,0.36-0.55c0.32-0.21,0.71-0.25,1.05-0.1
		c0.21,0.09,0.4,0.24,0.57,0.38c0.31,0.25,0.45,0.32,0.58,0.28c0.12-0.19,0.28-0.32,0.44-0.39c0.34-0.14,0.7-0.07,0.94,0.19
		c0.06,0.07,0.13,0.16,0.21,0.25c0.18,0.23,0.43,0.58,0.63,0.55c0.13,0,0.26-0.15,0.35-0.27c0.37-0.51,0.14-0.83-0.43-1.52
		c-0.18-0.22-0.38-0.46-0.56-0.73c-0.26-0.39-0.39-0.77-0.42-1.15c-0.25,0.17-0.58,0.35-0.88,0.35c-0.04,0-0.08,0-0.11-0.01
		c-0.19-0.03-0.34-0.14-0.44-0.31c-0.12-0.21-0.18-0.42-0.25-0.62c-0.14-0.44-0.28-0.89-0.92-1.38c-0.67-0.51-1.29-0.66-1.53-0.64
		c-0.02,0.39-0.23,1.19-0.53,1.38c-0.22,0.14-0.43-0.02-0.55-0.11c-0.05-0.04-0.15-0.11-0.18-0.11c0,0-0.03,0.06-0.03,0.17
		c0,0.14-0.11,0.25-0.25,0.25c-0.14,0-0.25-0.11-0.25-0.25c0-0.22,0.07-0.41,0.19-0.54c0.1-0.09,0.22-0.14,0.36-0.14
		c0.2,0.01,0.36,0.13,0.48,0.21c0.01,0.01,0.02,0.01,0.03,0.02c0.12-0.22,0.27-0.79,0.25-0.96c-0.02-0.14,0.05-0.28,0.18-0.35
		c0.35-0.2,1.27,0,2.15,0.67c0.76,0.59,0.95,1.16,1.09,1.63c0.06,0.19,0.12,0.37,0.21,0.53c0.02,0.04,0.05,0.06,0.08,0.06
		c0.23,0.04,0.71-0.29,0.97-0.52c0.01-0.01,0.03-0.01,0.04-0.02c0.19-0.53,0.62-1.01,1.31-1.42c1.13-0.68,2.05-0.21,2.78,0.16
		c0.27,0.13,0.52,0.26,0.75,0.32c0.25,0.06,0.58,0.11,0.79-0.04c0.14-0.1,0.21-0.28,0.23-0.54c0.01-0.14,0.13-0.24,0.27-0.24
		c0.14,0.01,0.24,0.13,0.24,0.27c-0.03,0.41-0.18,0.73-0.44,0.91c-0.29,0.21-0.7,0.25-1.21,0.12c-0.29-0.07-0.56-0.21-0.85-0.36
		c-0.69-0.35-1.4-0.71-2.3-0.18c-0.66,0.39-1.04,0.83-1.15,1.29C32.88,61.76,32.98,62.18,33.28,62.63z M33.59,72
		c0,0.36-0.24,0.66-0.54,0.66S32.5,72.37,32.5,72s0.24-0.66,0.54-0.66S33.59,71.64,33.59,72z M28.34,62.29
		c-0.27,0-0.49-0.28-0.49-0.62c0-0.34,0.22-0.62,0.49-0.62c0.27,0,0.49,0.28,0.49,0.62C28.84,62.01,28.61,62.29,28.34,62.29z
		 M25.03,57.24c0,0.25-0.21,0.46-0.46,0.46c-0.25,0-0.46-0.21-0.46-0.46c0-0.25,0.21-0.46,0.46-0.46
		C24.82,56.78,25.03,56.99,25.03,57.24z M12.55,55.98c-0.45-2.4-0.91-5.67-0.91-5.71c-0.05-0.33-0.35-0.56-0.68-0.52
		c-0.33,0.05-0.56,0.35-0.52,0.68c0.01,0.03,0.4,2.85,0.82,5.2c-0.47-0.13-0.94-0.28-1.41-0.43l-0.94-4.98
		c-0.06-0.33-0.38-0.54-0.71-0.48l0,0c-0.33,0.06-0.54,0.38-0.48,0.71l0.81,4.3c-0.53-0.19-1.05-0.4-1.56-0.62
		C6.55,51.71,6,47.86,5.99,47.82c-0.05-0.33-0.35-0.56-0.68-0.51c-0.33,0.05-0.56,0.35-0.51,0.68c0.01,0.04,0.45,3.12,0.84,5.52
		c-0.34-0.17-0.66-0.35-0.98-0.53c-0.21-1.14-0.6-3.22-1.13-5.87c-0.82-0.45-1.38-0.83-1.72-1.08c-0.07-0.42-0.13-0.83-0.19-1.21
		c4.22,3.51,15.46,4.34,18.49,4.5l0.14,7.99C18.95,57.19,15.92,56.82,12.55,55.98z M11.49,56.97c0.24,0.06,0.48,0.13,0.71,0.18
		c2.05,7.42,3.69,15.43,5.01,24.43c-0.25-0.19-0.48-0.39-0.67-0.59C15.25,73.58,13.56,65.5,11.49,56.97z M13.02,45.11
		c-0.09,0.11-0.15,0.24-0.15,0.39c0,0.33,0.27,0.6,0.6,0.6s0.6-0.27,0.6-0.6c0-0.24-0.14-0.44-0.34-0.53
		c0.45-0.09,0.92-0.17,1.38-0.25c0.02,0,0.04,0.01,0.06,0.01c0.01,0,0.02,0,0.03,0c0.09,0,0.17-0.03,0.24-0.07
		c0.51-0.08,1.03-0.16,1.55-0.23C17,44.74,17.26,45,17.58,45c0.33,0,0.6-0.27,0.6-0.6c0-0.04-0.02-0.08-0.03-0.13
		c2.38-0.28,4.84-0.43,7.25-0.46c0,0.27,0.01,0.51,0.03,0.69c0.25,1.95,0.58,3.46,1.45,3.67c-0.3,0.05-0.52,0.3-0.52,0.61
		c0,0.35,0.28,0.63,0.63,0.63c0.35,0,0.63-0.28,0.63-0.63c0-0.27-0.17-0.49-0.4-0.58c0,0,0.01,0,0.01,0
		c1.15-0.14,1.32-0.93,0.99-3.03c-0.05-0.28-0.07-0.75-0.07-1.34c3.98,0.11,7.68,0.57,10.48,1.37c0.03,0.02,0.07,0.02,0.11,0.03
		c0.68,0.2,1.31,0.42,1.87,0.65c-0.05-0.01-0.09-0.03-0.14-0.03c-0.32,0-0.58,0.26-0.58,0.58c0,0.32,0.26,0.58,0.58,0.58
		c0.32,0,0.58-0.26,0.58-0.58c0-0.21-0.12-0.39-0.29-0.49c0.06,0.03,0.12,0.06,0.18,0.09c0.02,0.01,0.03,0.02,0.05,0.02
		c0.45,0.21,0.85,0.43,1.2,0.67c-0.37,0.05-0.76,0.11-1.16,0.15c-0.32,0.04-0.55,0.32-0.53,0.64l0.38,6.4
		c-5.92,1.76-12.31,1.92-19.49,0.48l-0.02-1.41c0.06,0.01,0.12,0.04,0.18,0.04c0.47,0,0.84-0.38,0.84-0.84
		c0-0.47-0.38-0.84-0.84-0.84c-0.07,0-0.14,0.02-0.21,0.04l-0.05-2.65c0-0.32-0.26-0.58-0.58-0.59c-0.93-0.04-2.14-0.12-3.5-0.25
		c0.11-0.11,0.18-0.26,0.18-0.42c0-0.33-0.27-0.6-0.6-0.6c-0.33,0-0.6,0.27-0.6,0.6c0,0.13,0.05,0.24,0.11,0.33
		c-1.15-0.12-2.39-0.29-3.63-0.48c0.04-0.08,0.07-0.17,0.07-0.27c0-0.1-0.03-0.19-0.07-0.27c0.1-0.11,0.16-0.24,0.16-0.4
		c0-0.33-0.27-0.6-0.6-0.6c-0.33,0-0.6,0.27-0.6,0.6c0,0.1,0.03,0.19,0.07,0.27c-0.1,0.11-0.16,0.24-0.16,0.4
		c0,0.03,0.01,0.06,0.02,0.09c-0.23-0.04-0.46-0.08-0.69-0.13c0.16-0.11,0.27-0.28,0.27-0.49c0-0.33-0.27-0.6-0.6-0.6
		s-0.6,0.27-0.6,0.6c0,0.12,0.05,0.23,0.11,0.33c-0.23-0.05-0.46-0.1-0.69-0.15c0.03-0.08,0.06-0.16,0.06-0.25
		c0-0.14-0.05-0.26-0.13-0.36C10.46,45.71,11.71,45.38,13.02,45.11z M30.69,36.74c-0.06,0.24-0.14,0.54-0.23,0.86
		c0-0.38-0.01-0.72-0.02-0.99c0.1,0.01,0.19,0.01,0.29,0.02C30.71,36.67,30.7,36.69,30.69,36.74z M29.42,36.54
		c0.04,0.67,0.08,2.05-0.16,2.92c-0.38,0.51-0.71,1-1,1.45c0.08-1.34,0.22-2.85,0.42-4.41C28.93,36.51,29.17,36.52,29.42,36.54z
		 M38.15,56.86c0,0.27-0.22,0.49-0.49,0.49c-0.27,0-0.49-0.22-0.49-0.49c0-0.27,0.22-0.49,0.49-0.49
		C37.93,56.37,38.15,56.59,38.15,56.86z M33.76,57.42c0,0.44-0.36,0.8-0.8,0.8c-0.44,0-0.8-0.36-0.8-0.8c0-0.44,0.36-0.8,0.8-0.8
		C33.41,56.62,33.76,56.98,33.76,57.42z M42.23,56.15l-0.48-8.14c0.35-0.05,0.68-0.1,1.01-0.15v8.06
		C42.57,56,42.39,56.08,42.23,56.15z M36.67,62.93c0,0.28-0.23,0.5-0.5,0.5c-0.28,0-0.5-0.23-0.5-0.5c0-0.28,0.23-0.5,0.5-0.5
		C36.45,62.43,36.67,62.65,36.67,62.93z M38.05,65.95c1.47-3.51,3.25-7.53,3.43-7.85c0.18-0.32,0.52-0.24,0.52-0.24
		s-5.75,13.99-6.34,15.3c-0.59,1.31-1.08,1.65-1.08,1.65S36.58,69.46,38.05,65.95z M48.57,47.26c-0.57,2.56-1.11,5.29-1.35,6.57
		c-0.9,0.45-2.13,1.03-3.24,1.54v-7.72c2.6-0.52,4.59-1.28,5.82-2.23c-0.05,0.48-0.11,0.95-0.16,1.4
		C49.34,46.95,48.98,47.11,48.57,47.26z M50.02,42.9c-0.01,0.1-0.01,0.2-0.02,0.3c-0.04,0.21-0.15,0.42-0.31,0.64
		c-0.82-1.73-3.2-3.14-3.2-3.14l0,0.01c-0.08-0.04-0.17-0.07-0.27-0.07c-0.24,0-0.44,0.14-0.54,0.34v-0.22c0-0.33-0.27-0.6-0.6-0.6
		s-0.6,0.27-0.6,0.6v5.54c-0.16,0.04-0.32,0.07-0.49,0.11v-5.99c0-0.33-0.27-0.6-0.6-0.6s-0.6,0.27-0.6,0.6v5.24
		c-0.28-0.18-0.58-0.35-0.9-0.51l0.26-5.07c0.02-0.33-0.24-0.62-0.57-0.63c-0.32-0.01-0.62,0.24-0.64,0.57l-0.24,4.6
		c-0.37-0.14-0.75-0.28-1.15-0.41l0.17-4.42c0.01-0.33-0.25-0.61-0.58-0.63c-0.01,0-0.02,0-0.02,0c-0.32,0-0.59,0.26-0.6,0.58
		l-0.16,4.12c-2.8-0.72-6.25-1.13-9.92-1.23c0.5-0.92,1.3-2.2,2.44-3.57c0.48-0.08,0.98-0.06,1.49,0.04
		c-0.16,0.36-0.29,0.71-0.35,1.03c-0.05,0.27,0.14,0.53,0.41,0.58c0.03,0,0.06,0.01,0.08,0.01c0.24,0,0.45-0.17,0.5-0.42
		c0.05-0.27,0.17-0.59,0.33-0.91c0.17,0.06,0.33,0.12,0.49,0.19c0.02,0.52,0.09,1.57,0.3,2.5c0.05,0.24,0.26,0.4,0.49,0.4
		c0.03,0,0.07,0,0.11-0.01c0.27-0.06,0.44-0.33,0.38-0.6c-0.12-0.57-0.2-1.22-0.24-1.72c0.39,0.25,0.68,0.49,0.8,0.66
		c0.1,0.14,0.25,0.22,0.41,0.22c0.1,0,0.2-0.03,0.29-0.09c0.23-0.16,0.29-0.47,0.13-0.7c-0.26-0.37-0.94-0.9-1.81-1.34
		c-0.06-0.07-0.15-0.1-0.25-0.12c-0.16-0.08-0.32-0.15-0.49-0.22c0.35-0.34,0.8-0.68,1.22-0.97c-0.06,0.05-0.12,0.1-0.18,0.15
		c-0.21,0.18-0.23,0.5-0.05,0.71c0.1,0.11,0.24,0.17,0.38,0.17c0.12,0,0.24-0.04,0.33-0.13c0.43-0.37,0.95-0.77,1.42-1.1
		c0.63,0.1,1.26,0.21,1.87,0.33C46.99,39.27,49.92,41.45,50.02,42.9z M37.02,36.15l0.12-0.05c-0.03,0.02-0.06,0.04-0.09,0.06
		C37.04,36.15,37.03,36.15,37.02,36.15z M33.79,36.93c-0.33,0.38-0.66,0.81-0.95,1.27c-0.35-0.09-0.71-0.14-1.07-0.16
		c0.2-0.21,0.4-0.42,0.62-0.64c0.19-0.19,0.37-0.37,0.54-0.56C33.22,36.86,33.5,36.89,33.79,36.93z M43.82,28.33
		c-0.81,1.12-2.52,1.92-4.42,2.06c-1.41,0.1-3.94-0.11-6.57-2.22c1.05,0.03,2.15-0.39,2.89-0.93c0.53-0.39,0.9-0.84,1.1-1.32
		c0.64,0.24,1.38,0.37,2.16,0.37c0,0,0.01,0,0.01,0c1.43,0,2.81-0.44,4.02-1.23C43.38,25.7,43.93,26.91,43.82,28.33z M43.68,7.21
		c-0.51-0.52-1.15-0.96-2.18-1.29c-0.1-0.03-0.2-0.06-0.3-0.08c0.18-0.68,0.17-1.38-0.02-2.05c0.7,0.1,1.33,0.4,1.75,0.88
		C43.46,5.25,43.7,6.13,43.68,7.21z M14.39,10.77c0.73,0.06,1.69-0.2,2.47-1.41c0.54-0.83,1.61-1.43,2.66-1.09
		c-0.39,1.26-0.57,2.65-0.41,4.16c-0.5,0.46-0.99,1.17-1.25,2.29l-0.1,0.41c-0.36,1.52-0.96,4.07-0.04,6.66
		C13.61,17.53,14.07,12.47,14.39,10.77z M26.88,27.43c-10.04-3.08-8.67-8.89-7.92-12.03l0.1-0.42c0.21-0.91,0.59-1.44,0.98-1.76
		c0.03-0.02,0.06-0.04,0.09-0.06c0.19-0.14,0.38-0.23,0.55-0.29c0.71-0.23,1.4-0.02,1.75,0.28c0.25,0.22,0.53,0.54,0.86,0.91
		c0.89,1.02,2.09,2.38,3.97,2.94c0.16,0.19,0.4,0.32,0.67,0.32c0.5,0,0.9-0.4,0.9-0.9c0-0.5-0.4-0.9-0.9-0.9
		c-0.23,0-0.44,0.09-0.6,0.24c-1.39-0.51-2.35-1.6-3.13-2.5c-0.34-0.39-0.66-0.76-0.98-1.03c-0.75-0.65-1.89-0.85-2.91-0.51
		c0,0-0.01,0-0.01,0c-0.21-5.49,4.81-9.39,4.86-9.43c0.37-0.28,1.44-0.11,2.05,0.09c0.18,0.06,0.37,0.02,0.53-0.08
		c0.16-0.1,0.25-0.28,0.27-0.47c0-0.03,0.04-0.32,0.41-0.58c1.54,0.33,3.7,0.32,6.18,0.31l1.65-0.01c1.46,0,2.74,0.64,3.43,1.73
		C40.11,4,40.21,4.81,40,5.58c-2.76-0.39-4.59,0.69-4.67,0.75c-0.26,0.16-0.36,0.48-0.24,0.76c0.05,0.12,1.2,2.93-2.53,5.84
		c-0.6,0.01-1.08,0.49-1.08,1.09c0,0.61,0.49,1.1,1.1,1.1s1.1-0.49,1.1-1.1c0-0.13-0.03-0.26-0.08-0.37
		c3.22-2.67,3.05-5.36,2.78-6.49c0.76-0.31,2.48-0.81,4.76-0.09c1.39,0.44,1.83,1.06,2.55,2.1c0.58,0.83,1.3,1.85,2.72,3.08
		c0.38,4.55-0.51,8.11-2.65,10.58c-1.24,1.43-2.97,2.25-4.77,2.25c0,0-0.01,0-0.01,0c-1.21,0-2.3-0.39-2.84-1.02
		c-1.46-1.67-4.08-4.05-4.19-4.15c-0.21-0.19-0.51-0.19-0.74-0.04c-0.06-0.02-0.13-0.04-0.2-0.04c-0.43,0-0.78,0.35-0.78,0.78
		s0.35,0.78,0.78,0.78c0.2,0,0.38-0.08,0.52-0.21c0.8,0.74,2.61,2.44,3.69,3.68c0.15,0.18,0.34,0.34,0.54,0.48
		c-0.1,0.31-0.36,0.62-0.76,0.91c-0.83,0.6-1.97,0.86-2.72,0.6l-0.49-0.17C30.37,26.17,28.88,25.63,26.88,27.43z M30.66,27.8
		c1.33,1.41,2.69,2.32,3.96,2.89c0.18,0.48,0.2,1.25-0.23,2.29c-0.17-0.86-0.35-1.54-0.37-1.58c-0.07-0.27-0.35-0.43-0.62-0.36
		c-0.27,0.07-0.43,0.35-0.36,0.62c0,0.02,0.39,1.46,0.56,2.75c-0.25,0.37-0.55,0.77-0.91,1.18c0,0,0,0,0,0
		c-0.08-0.15-0.17-0.3-0.27-0.45l0.81-0.59c0.23-0.16,0.27-0.48,0.11-0.7c-0.16-0.23-0.48-0.27-0.7-0.11L32.28,34v-1.1
		c0-0.28-0.23-0.5-0.5-0.5c-0.28,0-0.5,0.23-0.5,0.5v0.78c-0.36-0.4-0.65-0.68-0.68-0.7c-0.2-0.19-0.52-0.19-0.71,0.02
		c-0.19,0.2-0.19,0.52,0.02,0.71c0.32,0.31,1.01,1.04,1.53,1.77c-0.86-0.07-1.72-0.14-2.59-0.18C29.25,32.46,29.85,29.68,30.66,27.8
		z M26.13,36.39c-0.23,1.47-0.42,2.91-0.54,4.16c-0.89-1.51-1.9-2.91-2.97-4.2C23.78,36.35,24.96,36.36,26.13,36.39z M1.22,42.09
		c-0.07-0.55,0.17-1.08,0.73-1.61c2.53-2.38,10.3-3.85,19.06-4.09c0.3,0.34,0.6,0.68,0.89,1.03c-1.13-0.48-2.36-0.73-3.76-0.74
		c0,0-0.01,0-0.01,0c0,0-0.01,0-0.01,0c-0.02,0-0.03,0-0.05,0c-0.04,0-0.08,0-0.11,0c-0.04,0-0.07,0-0.11,0
		c-0.74,0.01-1.53,0.07-2.37,0.2c-0.27,0.04-0.46,0.3-0.42,0.58c0.04,0.26,0.29,0.44,0.55,0.42c-0.05,0.16-0.04,0.33,0.07,0.47
		c0.1,0.13,0.25,0.19,0.4,0.19c0.11,0,0.22-0.03,0.31-0.11c0.06-0.05,0.16-0.12,0.28-0.19c-0.08,0.42-0.06,0.78-0.06,0.81
		c0.02,0.26,0.24,0.47,0.5,0.47c0.01,0,0.02,0,0.04,0c0.28-0.02,0.49-0.26,0.47-0.54c-0.02-0.26,0.03-1.01,0.4-1.28
		c0.03,0,0.07-0.02,0.1-0.02c1.05,0.01,2,0.17,2.87,0.47c-0.8-0.06-1.37,0.1-1.42,0.12c-0.27,0.08-0.42,0.36-0.34,0.62
		c0.08,0.27,0.35,0.42,0.62,0.34c0.07-0.02,1.58-0.42,2.96,0.66c-0.12-0.01-0.22-0.01-0.27-0.01c-0.28,0-0.5,0.23-0.5,0.5
		c0,0.28,0.23,0.5,0.5,0.5h0c0.48,0,1.39,0.1,2.09,0.41c0.25,0.43,0.49,0.86,0.71,1.31c-3.24,0.05-6.54,0.32-9.6,0.79l-0.23-4.68
		c-0.02-0.33-0.3-0.59-0.63-0.57c-0.33,0.02-0.59,0.3-0.57,0.63l0.24,4.82c-0.57,0.1-1.14,0.21-1.69,0.32v-4.67
		c0-0.33-0.27-0.6-0.6-0.6c-0.33,0-0.6,0.27-0.6,0.6v4.94c-0.4,0.09-0.79,0.19-1.17,0.29v-4.65c0-0.33-0.27-0.6-0.6-0.6
		s-0.6,0.27-0.6,0.6v4.99c-0.16,0.05-0.3,0.1-0.46,0.15V40.5c0-0.33-0.27-0.6-0.6-0.6c-0.33,0-0.6,0.27-0.6,0.6v4.89
		c-0.14,0.05-0.29,0.1-0.42,0.15v-4.54c0-0.33-0.27-0.6-0.6-0.6c-0.33,0-0.6,0.27-0.6,0.6v4.72c-0.11-0.04-0.22-0.08-0.33-0.11
		v-4.26c0-0.33-0.27-0.6-0.6-0.6c-0.33,0-0.6,0.27-0.6,0.6v3.77c-0.02-0.01-0.04-0.02-0.06-0.02v-3.19c0-0.33-0.27-0.6-0.6-0.6
		s-0.6,0.27-0.6,0.6v0.38c-0.11-0.15-0.28-0.25-0.48-0.25c-0.33,0-0.6,0.27-0.6,0.6v0.99C1.6,43.18,1.3,42.66,1.22,42.09L1.22,42.09
		z M14.29,78.42c-0.18-0.05-0.35-0.07-0.51-0.07c-0.42-3.57-3.81-18.65-4.59-22.06c0.32,0.11,0.64,0.21,0.97,0.31
		c1.91,7.85,3.51,15.32,4.77,22.25C14.75,78.65,14.54,78.5,14.29,78.42z M18.54,82.32c-1.31-9.16-2.95-17.3-5-24.84
		c1.04,0.23,2.03,0.42,2.92,0.57c2.03,8.82,3.37,17.15,4,24.77c-0.29-0.05-0.58-0.1-0.84-0.16C19.22,82.56,18.87,82.45,18.54,82.32z
		 M37.02,79.35c-0.58-0.26-1.17-0.26-1.73,0.01c-0.82,0.39-1.47,1.3-1.87,2.64c-1.57,0.73-7.55,1.32-11.72,0.95
		c-0.61-7.61-1.94-15.92-3.94-24.72c1.74,0.25,2.91,0.33,3.06,0.34c0.01,0,0.03,0,0.04,0c0.01,0,0.02,0,0.03-0.01
		c1.79,0.75,3.82,1.13,3.98,2.31c0.07,1.44,1.94,3.74,2.99,5.43c1.04,1.69,3.44,6.81,3.84,10.03c0.4,3.23,1.16,2.64,2.24,1.92
		c1.08-0.71,3.05-3.98,4.82-8.78c1.28-3.48,3.7-8.95,4.93-11.7c-1.36,4.76-5.5,19.38-5.98,22.03C37.53,79.65,37.3,79.48,37.02,79.35
		z"/>
	<path class="st0" d="M32.74,57.42c0,0.12,0.1,0.23,0.23,0.23c0.12,0,0.23-0.1,0.23-0.23c0-0.12-0.1-0.23-0.23-0.23
		C32.84,57.19,32.74,57.29,32.74,57.42z"/>
	<path class="st0" d="M29.78,16.29c0,0.51,0.41,0.93,0.93,0.93c0.28,0,0.53-0.14,0.7-0.34c0,0,0,0.01,0,0.01c0,0.5,0.4,0.9,0.9,0.9
		c0.5,0,0.9-0.4,0.9-0.9c0-0.5-0.4-0.9-0.9-0.9c-0.27,0-0.51,0.13-0.67,0.32c0-0.01,0-0.02,0-0.02c0-0.51-0.41-0.93-0.93-0.93
		C30.19,15.36,29.78,15.78,29.78,16.29z"/>
	<path class="st0" d="M34.04,17.51c0.43,0,0.78-0.35,0.78-0.78s-0.35-0.78-0.78-0.78s-0.78,0.35-0.78,0.78S33.61,17.51,34.04,17.51z
		"/>
	<path class="st0" d="M33.75,20.05c0.43,0,0.78-0.35,0.78-0.78s-0.35-0.78-0.78-0.78s-0.78,0.35-0.78,0.78S33.32,20.05,33.75,20.05z
		"/>
	<path class="st0" d="M27.67,19c-0.43,0-0.78,0.35-0.78,0.78c0,0.43,0.35,0.78,0.78,0.78s0.78-0.35,0.78-0.78
		C28.45,19.35,28.1,19,27.67,19z"/>
	<path class="st0" d="M27.13,13.32c-0.43,0-0.78,0.35-0.78,0.78s0.35,0.78,0.78,0.78s0.78-0.35,0.78-0.78S27.56,13.32,27.13,13.32z"
		/>
	<circle class="st0" cx="31.8" cy="18.88" r="0.9"/>
	<path class="st0" d="M30.24,15c0-0.5-0.4-0.9-0.9-0.9c-0.5,0-0.9,0.4-0.9,0.9c0,0.5,0.4,0.9,0.9,0.9
		C29.84,15.9,30.24,15.49,30.24,15z"/>
	<circle class="st0" cx="29.64" cy="12.69" r="1.1"/>
	<path class="st0" d="M30.44,17.99c0-0.61-0.49-1.1-1.1-1.1c-0.61,0-1.1,0.49-1.1,1.1c0,0.61,0.49,1.1,1.1,1.1
		C29.95,19.08,30.44,18.59,30.44,17.99z"/>
	<path class="st0" d="M31.94,49.82c1.22,0,2.22-0.53,2.22-1.18c0-0.65-0.99-1.18-2.22-1.18c-1.22,0-2.22,0.53-2.22,1.18
		C29.72,49.29,30.72,49.82,31.94,49.82z"/>
	<path class="st0" d="M33.66,52.47c0,0.51,0.52,0.92,1.17,0.92c0.64,0,1.17-0.41,1.17-0.92c0-0.51-0.52-0.92-1.17-0.92
		C34.18,51.55,33.66,51.96,33.66,52.47z"/>
	<path class="st0" d="M31,45.86c0.44,0,0.8-0.28,0.8-0.63c0-0.35-0.36-0.63-0.8-0.63c-0.44,0-0.8,0.28-0.8,0.63
		C30.2,45.57,30.56,45.86,31,45.86z"/>
	<path class="st0" d="M32.73,47.46c0.37,0,0.66-0.3,0.66-0.66c0-0.37-0.3-0.66-0.66-0.66s-0.66,0.3-0.66,0.66
		C32.06,47.17,32.36,47.46,32.73,47.46z"/>
	<path class="st0" d="M36.4,46.39c0.32,0,0.58-0.26,0.58-0.58c0-0.32-0.26-0.58-0.58-0.58c-0.32,0-0.58,0.26-0.58,0.58
		C35.82,46.13,36.08,46.39,36.4,46.39z"/>
	<path class="st0" d="M35.94,50.4c0.32,0,0.58-0.26,0.58-0.58c0-0.32-0.26-0.58-0.58-0.58c-0.32,0-0.58,0.26-0.58,0.58
		C35.36,50.14,35.62,50.4,35.94,50.4z"/>
	<path class="st0" d="M36.8,47.94c0,0.32,0.26,0.58,0.58,0.58c0.16,0,0.3-0.06,0.41-0.17c0.1,0.16,0.28,0.28,0.48,0.28
		c0.32,0,0.58-0.26,0.58-0.58c0-0.32-0.26-0.58-0.58-0.58c-0.16,0-0.3,0.06-0.41,0.17c-0.1-0.16-0.28-0.28-0.48-0.28
		C37.06,47.36,36.8,47.62,36.8,47.94z"/>
	<path class="st0" d="M38.33,51.5c-0.32,0-0.58,0.26-0.58,0.58c0,0.32,0.26,0.58,0.58,0.58c0.32,0,0.58-0.26,0.58-0.58
		C38.91,51.76,38.65,51.5,38.33,51.5z"/>
	<path class="st0" d="M32.39,53.57c-0.32,0-0.58,0.26-0.58,0.58c0,0.32,0.26,0.58,0.58,0.58c0.32,0,0.58-0.26,0.58-0.58
		C32.97,53.83,32.71,53.57,32.39,53.57z"/>
	<path class="st0" d="M31,51.55c-0.32,0-0.58,0.26-0.58,0.58c0,0.32,0.26,0.58,0.58,0.58c0.32,0,0.58-0.26,0.58-0.58
		C31.58,51.81,31.32,51.55,31,51.55z"/>
	<path class="st0" d="M28.15,53.16c-0.32,0-0.58,0.26-0.58,0.58c0,0.32,0.26,0.58,0.58,0.58c0.32,0,0.58-0.26,0.58-0.58
		C28.73,53.42,28.47,53.16,28.15,53.16z"/>
	<circle class="st0" cx="28.84" cy="51.5" r="0.63"/>
	<circle class="st0" cx="25.29" cy="48.49" r="0.63"/>
	<circle class="st0" cx="24.03" cy="49.04" r="0.63"/>
	<circle class="st0" cx="24.03" cy="53.27" r="0.63"/>
	<circle class="st0" cx="23.4" cy="50.84" r="0.66"/>
	<circle class="st0" cx="21.88" cy="47.86" r="0.66"/>
	<path class="st0" d="M19.64,45.97c0.01,0,0.01,0,0.02,0c0,0,0,0,0,0c0,0.33,0.27,0.6,0.6,0.6c0.12,0,0.22-0.04,0.32-0.1
		c0.16,0.21,0.41,0.36,0.7,0.36c0.49,0,0.88-0.4,0.88-0.88s-0.4-0.88-0.88-0.88c-0.31,0-0.56,0.16-0.72,0.4
		c-0.09-0.05-0.18-0.09-0.29-0.09c-0.08,0-0.15,0.02-0.21,0.04c-0.05-0.17-0.21-0.3-0.4-0.3c-0.24,0-0.43,0.19-0.43,0.43
		C19.21,45.78,19.4,45.97,19.64,45.97z"/>
	<path class="st0" d="M14.87,47.46c0.33,0,0.6-0.27,0.6-0.6c0,0,0,0,0-0.01c0.01,0,0.02,0.01,0.04,0.01c0.31,0,0.56-0.24,0.59-0.54
		c0.06,0.02,0.13,0.04,0.21,0.04c0.33,0,0.6-0.27,0.6-0.6s-0.27-0.6-0.6-0.6c-0.31,0-0.56,0.24-0.59,0.54
		c-0.06-0.02-0.13-0.04-0.21-0.04c-0.33,0-0.6,0.27-0.6,0.6c0,0,0,0,0,0.01c-0.01,0-0.02-0.01-0.04-0.01c-0.33,0-0.6,0.27-0.6,0.6
		C14.27,47.2,14.54,47.46,14.87,47.46z"/>
	<circle class="st0" cx="23.75" cy="46.87" r="0.66"/>
	<path class="st0" d="M24.94,46.2c0.25,0,0.46-0.21,0.46-0.46c0-0.25-0.21-0.46-0.46-0.46c-0.25,0-0.46,0.21-0.46,0.46
		C24.49,46,24.69,46.2,24.94,46.2z"/>
	<path class="st0" d="M26.71,51.72c0.51,0,0.92-0.41,0.92-0.92c0-0.51-0.41-0.92-0.92-0.92c-0.51,0-0.92,0.41-0.92,0.92
		C25.79,51.31,26.2,51.72,26.71,51.72z"/>
	<path class="st0" d="M26.8,52.18c0,0.35,0.28,0.63,0.63,0.63c0.35,0,0.63-0.28,0.63-0.63c0-0.35-0.28-0.63-0.63-0.63
		C27.09,51.55,26.8,51.83,26.8,52.18z"/>
	<path class="st0" d="M28.48,50.48c0.25,0,0.45-0.2,0.45-0.45c0-0.25-0.2-0.45-0.45-0.45s-0.45,0.2-0.45,0.45
		C28.03,50.27,28.23,50.48,28.48,50.48z"/>
	<circle class="st0" cx="39.67" cy="50.86" r="0.57"/>
	<path class="st0" d="M39.42,49.82c0.23,0,0.42-0.17,0.45-0.4c0.05,0.02,0.1,0.03,0.15,0.03c0.26,0,0.47-0.21,0.47-0.47
		c0-0.26-0.21-0.47-0.47-0.47c-0.23,0-0.42,0.17-0.45,0.4c-0.05-0.02-0.1-0.03-0.15-0.03c-0.26,0-0.47,0.21-0.47,0.47
		C38.95,49.61,39.16,49.82,39.42,49.82z"/>
	<path class="st0" d="M35.48,88.48c0-0.19-0.08-0.37-0.24-0.49l-2.11-1.61c-0.1-0.08-0.22-0.12-0.35-0.12L23.69,86
		c-0.26-0.02-0.44,0.11-0.54,0.3l-0.83,1.41c-0.17,0.29-0.07,0.66,0.21,0.83l7.56,4.47c0.1,0.06,0.2,0.08,0.31,0.08
		c0.19,0,0.38-0.09,0.5-0.26l1.04-1.5l3.29-2.37C35.38,88.85,35.48,88.67,35.48,88.48z M30.22,91.68l-6.56-3.88l0.23-0.39l6.72,3.69
		L30.22,91.68z M31.45,90.19l-5.3-2.91l6.4,0.17l1.31,1L31.45,90.19z"/>
	<path class="st0" d="M49.65,89.19c-0.04-0.26-0.23-0.46-0.49-0.51c-0.76-0.15-1.43-0.33-2.04-0.51l0.21-1.15l2.26-3.51
		c0.1-0.16,0.12-0.36,0.06-0.54c-0.07-0.18-0.21-0.31-0.4-0.37l-6.08-1.75c-0.25-0.07-0.53,0.03-0.68,0.25l-2.07,3.21
		c-0.01,0.02-0.01,0.04-0.02,0.05c-0.02,0.05-0.04,0.09-0.05,0.14c-0.01,0.04-0.01,0.07-0.01,0.11c0,0.02-0.01,0.04-0.01,0.06
		l0.11,1.74c-1.44,0.18-2.49,0.96-3.04,2.29c-0.64,1.55-4.23,10.37-4.23,10.37c0,0.01,0,0.01,0,0.02c-0.02,0.07-0.04,0.14-0.04,0.21
		v1.74c0,0.2,0.1,0.38,0.26,0.5s0.37,0.14,0.55,0.07c0.04-0.01,3.72-1.32,4.98,0.61c0.01,0.01,0.02,0.02,0.03,0.03
		c0.04,0.06,0.1,0.11,0.16,0.15c0.01,0.01,0.02,0.02,0.04,0.03c0.07,0.04,0.16,0.06,0.24,0.07c0.01,0,0.02,0,0.03,0c0,0,0,0,0,0
		s0,0,0,0c0,0,0,0,0,0c0,0,0,0,0,0c0.04,0,0.08,0,0.12-0.01c4.39-0.92,7.45-1.84,9.11-2.76c1.56-0.86,1.75-2.74,1.75-2.82
		c0-0.01,0-0.02,0-0.03c0-0.01,0.01-0.03,0.01-0.04C50.4,96.71,50.31,94.05,49.65,89.19z M43.1,86.33c-0.13-0.1-0.29-0.15-0.46-0.13
		c-0.01,0-0.45,0.06-1.02,0.11l-0.05-0.78l4.48,1.66l-0.11,0.59C44.07,87.07,43.12,86.34,43.1,86.33z M43.26,82.13l4.87,1.4
		l-1.62,2.52l-4.66-1.73L43.26,82.13z M38.5,89.16c0.41-1,1.17-1.51,2.32-1.58c0.08,0,0.17-0.01,0.25-0.02c0.01,0,0.02,0,0.03,0
		c0,0,0,0,0.01,0c0.58-0.04,1.14-0.1,1.45-0.14c0.62,0.43,2.56,1.64,5.95,2.36c0.46,3.42,0.61,5.7,0.66,6.62
		c-1.63,0.51-7.18,2.23-9.3,3.01c-0.19-0.34-0.47-0.62-0.84-0.84c-0.57-0.33-1.34-0.5-2.21-0.5c-0.64,0-1.34,0.09-2.05,0.26
		C35.76,95.87,38.01,90.35,38.5,89.16z M34.32,100.22v-0.5c1.61-0.54,3.28-0.6,4.1-0.12c0.28,0.16,0.42,0.37,0.47,0.65l-0.02,0.31
		C37.42,99.67,35.43,99.95,34.32,100.22z M48.06,98.65c-1.02,0.56-3.23,1.43-8.01,2.47l0.03-0.51c1.66-0.62,6.6-2.17,8.8-2.86
		C48.72,98.09,48.46,98.43,48.06,98.65z"/>
</g>
</svg>
