<?xml version="1.0" encoding="UTF-8"?>
<svg id="Layer_1" data-name="Layer 1" xmlns="http://www.w3.org/2000/svg" viewBox="0 0 1919.23 2239.65">
  <defs>
    <style>
      .cls-1 {
        fill: #fff;
      }

      .cls-2 {
        fill: #fe264b;
      }

      .cls-3 {
        fill: #7c7a7e;
      }

      .cls-4 {
        fill: #948101;
      }

      .cls-5 {
        fill: #982427;
      }
    </style>
  </defs>
  <path class="cls-1" d="m338.75,1224.09s-16.06,14.24-25.59,28.62-21.18,54.15-17.29,75.06c0,0-3.53-5.2-3.35-18.39.18-13.19,12.35-50.59,24-65.08,10.26-12.76,9.57-12.35,22.24-20.21Z"/>
  <g>
    <g>
      <path class="cls-5" d="m1766.92,734.03c-11.29-17.29-22.94-20.29-36.26-20.73-16.7-.54-35.06,5.69-52.33,15.29-30.81,17.13-54.12,42-69.29,57.53s-22,25.18-22,25.18c7.53-1.06.82,6.24-8.35,17.41-9.18,11.18-25.76,38.47-27.41,37.29-1.65-1.18,4.24-10.94,8.82-18.35,4.59-7.41-1.29-1.65-6.47,5.29-5.18,6.94-16.12,23.29-23.29,32.12s-6,11.76-6,11.76c0,0,8.71-13.18,11.65-12,5.52,2.21-18.47,33.06-32.94,51.53-14.47,18.47-27.06,26-35.06,32s-14,16.94-14,16.94c0,0,4.82,14.24.82,17.53-4,3.29-6.71-2.71-6.71-2.71,0,0-6.12,3.65-7.76.24-1.65-3.41,5.53-6.94,5.53-6.94l.59-11.18-15.18,14.71c10.47-4.47,7.06,2.59.24,8.47s-10.82,12.71-25.18,36.47c-14.35,23.76-34,42.18-46.88,53.12-12.88,10.94-17.12-2.29-14.79-9.7,1.67-5.32,8.26-15.54,8.26-15.54-17.29,6.71-26.29-1.41-26.29-1.41l8.82,25.59s19.24,7.06,41.47,37.76c22.24,30.71,33.53,75,26.65,75.53-6.88.53-8.29-34.59-27.88-63.71-19.59-29.12-35.47-40.59-35.47-40.59,0,0,30.88,45,39.71,66.35,8.82,21.35,13.76,37.06,12.53,38.29-1.24,1.24-12.35-18.35-21.18-35.65-8.82-17.29-9.88-13.76-9.88-13.76,5.65,11.12,3,13.06-12.18-7.94-15.18-21-23.47-40.35-23.47-40.35,0,0-6.18,0-10.06-10.65-7.15-19.61-8.05-40.43-6.53-57.35,1.41-15.71,7.06-31.59,23.65-53.82s17.47-43.59,28.76-78.35c11.29-34.76,32.65-91.24,43.76-139.06,14.44-62.12,17.12-85.24,25.46-108.44,17.95-49.95,29.78-92.56,39.13-129.09,9.35-36.53,20.65-66.71,28.24-112.41,7.59-45.71-9.35-62.12-23.12-70.76s-32.82-17.47-54.53-17.47-34.06,14.47-38.65,18c-3.02,2.32-4.43.9-5.05-.34-.26-.52-.97-.61-1.34-.16-20.32,24.48-33.94,59.25-39.85,82.2-6,23.29-16.06,47.12-23.82,68.82s-15.35,48.35-21.88,70.94c-6.53,22.59-16.24,36.71-23.47,61.94-7.24,25.24-15.53,46.76-24.35,69.88-8.82,23.12-13.41,36.35-13.41,36.35,0,0,6.35-7.41,17.65-29.12s27.18-62.29,37.41-90,22.76-66.18,32.82-96.53c10.06-30.35,16.41-50.29,19.59-67.59,3.18-17.29,7.24-18.53,7.24-18.53,0,0,5.12,4.59,2.82,21.18-3.09,22.33-8.12,37.65-8.12,37.65,0,0,6-3.65,6.35,5.65.31,8.11-.35,12.12.12,25.29.29,8.24,1.78,13.07,2.86,15.54.46,1.06-.58,2.2-1.66,1.8-7.15-2.63-4.96-19.34-4.96-19.34h-1.88c1.76,21.18-9.06,28.82-16.24,39.06-7.18,10.24-8.59,20-20.35,52.94s-29.53,85.29-29.53,85.29c12.14-5.12,32.38-3.21,39.78-2.27,1.37.17,2.52,1.21,2.68,2.58.18,1.62-.95,3.03-2.51,3.24-2.01.27-5.65.83-12.18,1.99-13.18,2.35-32.35,10.47-32.35,10.47-1.26,23.22-8.63,30.34-11.99,32.4-.71.44-.71,1.46-.02,1.92,8.46,5.63,19.85,9.65,31.77,12.74,12.71,3.29,35.29,5.76,52.12,16.71,12.65,8.23,24.54,22.33,29.66,28.81,1.29,1.64,1.22,4.06-.34,5.45-1.65,1.47-4.13,1.27-5.53-.35-8.09-9.39-22.59-18.68-44.38-31.67-18.1-10.79-32.07-9.82-37.78-8.72-1.65.32-2.84,1.76-2.87,3.44-.03,2.45-.03,6.16.18,9.4.35,5.41-1.65,6.12,16.82,17.76s47.31,9.27,51.65,6.47c2.41-1.56.59-3.84,4.97-4.03,2.03-.09,4.21,1.99,3.38,6.15-1.53,7.65-14.35,9.53-30.12,9.53s-38.35-6.12-49.53-20.12c-8.63-10.81-7.51-19.86-6.55-23.43.22-.81-.36-1.61-1.2-1.67-2.81-.19-8.41-1.13-12.48-5.37-5.65-5.88-5.18-14.24-5.41-16.12s-5.65-1.06-7.29-.35c-1.65.71-10.35,32.47-38.59,101.18-28.24,68.71-54,101.41-63.41,104.71s-16.94-1.88-16.12-10.47c.82-8.59,11.53-8.12,11.53-8.12,10.12-13.18,35.76-67.29,52.71-103.06,16.94-35.76,27.06-73.41,27.06-73.41,0,0-5.88,7.29-18.12,40s-31.06,74.94-52.59,97.88-48.18,13.76-48.18,13.76c0,0-.88,16.06,2.65,31.06s20.65,32.65,7.94,35.65c-12.71,3-22.94-49.76-23.12-69.53-.18-19.76,5.29-55.41,5.82-64.76.53-9.35,3.71-10.41,3.71-10.41,6.71-42.71-3.53-71.65-1.76-104.82,3.2-60.12-2.47-90.35-2.12-137.65.35-47.29-5.29-120.35-6-153.18-.71-32.82-3.88-55.76-3.53-141.53.35-85.76-3.41-107.06-10.59-115.41-7.18-8.35-28-19.65-76-20.94-48-1.29-62.35,65.5-64.03,81.29-1.58,14.85-3.85,44.53-3.75,60.41h1.9s1.76-9.15,2.82-15.41c1.06-6.26.62-20.74,3.53-21,2.91-.26,5.38-.35,4.94,19.41-.44,19.76.88,28.24,1.24,37.85.35,9.62.53,43.32,0,54.97-.53,11.65-2.82,10.94-2.82,10.94,0,0-2.47,36.53-3.71,57.53-1.24,21-2.43,44.25-3.18,72.35-.88,33.18-12.76,58.76-5.59,72.53,0,0,6.12-7.94,14.41-10.06s16.59,3,11.47,6.71c-5.12,3.71-12.71,1.06-21.88,9.35-9.18,8.29-15.88,15.53-21,29.12-5.12,13.59-6.35,32.82,1.24,43.41l-1.94,3-2.93-1.95-.53.53c.75,1.88,1.67,5.98.81,14.13-1.32,12.62-3.47,46.06-3.24,68.41.24,22.35,1.61,50-.02,50s-3.16-14.35-3.75-28.82c-.59-14.47,0-36.12,0-36.12h-2.69c-.82,12.56-1.7,25.95-2.48,39.41-2.59,44.24-1.24,92.15-1.24,92.15,4.59,6.71,8.21,24.88,8.21,24.88,1.41-9.53,1.06-64.76,2.91-69.09,1.85-4.32,4.5,7.59,5.38,20.29.88,12.71-1.06,67.5-5.38,92.03s-17.47,39.62-17.47,39.62c6.31,11.23,7.07,24.74,3.44,40.06-.18-10.76-8.91-35.91-8.91-35.91-4.68,7.06-24.44,2.29-27-10.41-3.12-15.5-6.68-18.35-6.62-21.35.06-3.3,2.45-3.9,3.75-3.98.46-.03.89.21,1.09.62,2.46,5.06,13.06,11.66,17.39,9.28,4.5-2.47,10.59-1.24,10.59-1.24l5.29-34.15c-12.71,6.88-55.59,22.68-59.03,14.29-1.24-3.78,3.82-4.33,6.55-4.37-8.68-.42-16.26-3.93-16.26-3.93,5.47,19.94,24.62,30.71,24.79,37.15.18,6.44-8.38,10.15-18.09-2.82-9.71-12.97-14.65-25.76-19.68-36.79s-9.97-8.21-21.5-41.15-21.76-88.59-24.24-100.47c-.46-2.22-.84-3.99-1.15-5.39l-2.17-.52s.15,8.5-1.74,14.85c-1.88,6.35-5.82,5.27-6.29,3.51-.47-1.76,1.1-13.54,1.59-16.45.57-3.41,3.95-5,5.88-3.29l1.29-3.53s-3.76,1.29-6-.47c-2.24-1.76,1.06-4.35,2.12-15.88,1.06-11.53-2.47-14.24-5.76-22.82-3.29-8.59-8.47-17.06-17.65-61.06-9.18-44-24.47-80.71-42.59-146.12-18.12-65.41-41.94-119.06-50.06-150.12-8.12-31.06-16.76-48.71-21-49.24-2.96-.37-2.82-2.64-2.46-3.97.16-.62-.1-1.28-.63-1.64-33.55-22.69-75.83-7.76-98.21,14.79-22.59,22.76-19.76,57.35-19.76,57.35.53-28.06,11.29-42.71,11.82-43.94s5.65-7.06,7.24,1.76c1.59,8.82-15.18,14.29-10.24,64.41s32.71,140,41.18,167.76c8.47,27.76,22.09,93.94,26.15,98.44,4.06,4.5,3.26,13.15,3.26,13.15,0,0,2.91-.71,6.62,6.88,3.71,7.59,9.97,48.53,9.97,48.53,0,0,1.15-10.85,5.74-11.38,4.59-.53,11.47,6.88,10.59,11.65-.88,4.76-10.41-5.12-10.41-5.12.97,17.65-6.09,16.24-6.09,16.24,0,0-1.68,4.94,12,15.88,13.68,10.94,17.82,12.53,17.82,12.53,0,0,3.44-5.91,6.88-5.21,3.44.71,19.41,8,35.76,5.65,16.35-2.35,33.24-5.29,34.18-1.53s-2.53,6.71-18.35,11.47c-17.88,5.82-32.88,3.12-32.88,3.12,0,0,7.94,15.18,12,24,4.06,8.82-10.76,2.82-21.53-3.88-10.76-6.71-34.41-21.71-34.41-21.71,0,0,1.94,4.06,5.65,12.35,3.71,8.29,49.29,234.71,50.47,240.94,1.18,6.24-2.94,6.24-4.12,5.41-1.18-.82-7.53-31.76-21.29-101.65-13.76-69.88-36.71-153.41-36.71-153.41,0,0,52,274.59,50.82,288-1.18,13.41-4.47,15.76-3.29,47.53,1.18,31.76,21.41,139.29,45.41,178.35s32,69.88,37.88,105.18c5.88,35.29,8.71,86.35,8.71,86.35,0,0-14.82-113.41-55.76-185.65-45.41-80.11-49-136.59-49-136.59-5.29,19.94-39.18,90-49.94,111.18-10.76,21.18-43.24,74.47-52.94,111.53-9.71,37.06-4.85,67.59-4.85,67.59l-11.03.97c-9.44-46.85,10.41-97.5,27-125.38s12.33-25.06,31.24-58.35c19.18-33.76,32.29-60.76,32.29-60.76,0,0-17.65,25.59-28.94,46.41-11.29,20.82-22.32,45.88-32.29,62.82-9.97,16.94-23.12,21.88-23.12,21.88,3.16-3.03,8.49-10.38,13.26-17.31-6.95,2.1-8.76-1.04-9.46-1.92s-1.94,1.85-3.09,1.5c-1.15-.35,1.5-3.26,1.85-8.03.35-4.76,4.5-.62,4.5-.62,3.71-.88,3.71,2.8,6.26,2.74,1.88-.05,2.89.52,3.44,1.17,3.72-5.55,6.47-9.87,6.47-9.87-18.82,4.47-29.65-3.53-38.12-13.88s-32.47-25.18-57.18-74.12c-24.71-48.94-62.35-76-62.35-76-38.82-55.29-80.71-95.18-136.29-111.06-55.59-15.88-89.3-2.47-109.06,8.12-19.76,10.59-43.06,30.18-35.65,64.24,2.28,10.49,7.67,21.46,14.74,32.35h4.13c-.06-.08-.11-.16-.17-.24-24.71-34.59-7.94-59.65-7.94-59.65l13.06,52.59,93.88-7.41s11.47,27.18,2.65,38.21c-8.82,11.03-15.88,30-15.88,30,0,0,16.76-10.59,24.71-27,7.94-16.41,15.09-14.74,15.09-14.74,0,0-1.24,6.09-12.62,26.82-11.38,20.74-26.29,27.18-26.29,27.18,6.59,4.82,3.18,8.71,6.59,12.47,3.41,3.76,17.65,15.53,17.65,15.53,2.65-11.23,7.95-18.74,11.82-22.99,1.98-2.17,5.45-2.35,7.49-.23,1.61,1.68,1.86,4.19.69,6.13-4.52,7.49-12.4,22.47-12.71,25.33-.35,3.29,2.35,4.59,2.71,4.94.35.35.71,6.94.71,6.94,5.76-2.12,4.59,2.12,12,19.06,7.41,16.94,20.47,22.29,20.47,22.29l.92-9.77c.13-1.37,1.28-2.41,2.65-2.41h.23c1.46,0,2.64,1.18,2.66,2.64.07,6.21,2.25,6.1,5.54,13.95,3.71,8.82,9,27.88,34.41,71.65,25.41,43.76,33.97,66.97,33.97,66.97,5.26-3.09,9.62,1.5,9.62,1.5-1.06-8.12-59.12-111.53-72-138.88-12.88-27.35.35-34.94.35-34.94l13.76,12.53s-10.76,12.88-7.24,25.24c1.45,5.09,11.76,21.51,22.59,42,15.47,29.28,33.24,65.25,38.38,74.38,8.74,15.53,9.35,21.09,9.35,21.09,0,0,7.85-9.26,11.47-4.68,3.4,4.32-11.38,8.74-11.38,8.74l-2.24,5s2.5-.94,2.59.82c.38,7.7-7.76,3.06-9.76,7.18s-.94,6.35.59,32.82c1.53,26.47,28.35,36.94,28.35,36.94,0,0,4.35-8,14-12.24,9.65-4.24,16.12,5.29,31.88,5.41,15.76.12,31.76,17.06,43.06,39.06s10.71,45.29,10.47,48.12,9.29,14.59,15.29,17.88c6,3.29,6.94,1.41,11.18.94,26.59-5.53,28.94,17.06,34.59,33.41,4.45,12.87,15.45,20.28,19.93,22.85.96.55,1.45,1.74,1.02,2.76-.5,1.19-1.9,1.66-3.01,1.08-17.92-9.34-24.19-25.29-27.83-39.04-3.76-14.24-10.94-16.12-20.35-13.06-9.41,3.06-16.88,6.12-24.47-1.29-7.59-7.41-15.35-23.29-15.35-23.29,2.82-29.65-17.47-57.71-17.47-57.71,15.35,35.65,10.71,59.71,7.06,65.71-3.65,6-11.41.82-11.41.82,0,0,2.94,14.94,20.24,30.82,17.29,15.88,28.53,25.41,29.71,26,1.18.59,1.35-2.41,1.82-6.24s1.76-6.71,4.88-5.76c3.12.94,7.94,9.29,20.53,25.29,11.29,15.53,30.94,35.65,51.41,46.47s17.18,14.59,32.94,26.59,80.94,49.88,108.47,114.59c27.53,64.71,36.71,135.76,36.71,135.76,0,0,13.88-88.94-26.59-176-44.23-95.14-112.44-115.26-126.82-122.15-14.38-6.88-25.68-9.18-27.79-10.15-2.12-.97-1.24-4.15,2.56-4.76,3.79-.62,18.71,4.59,36.71,12.71s50.29,25.24,65.82,39.53c58.59,57.53,73.41,111.53,85.41,171.18,12,59.65-4.82,123.88-6.82,134.24-2,10.35-.41,20.35,3.03,27.85s23.74,25.06,28.15,26.82c4.41,1.76,2.47-.44,5.03-2.03,2.56-1.59,0,2.47,4.41,2.56,4.41.09,42.97-3.26,42.97-3.26-26.53-11.82-38.41-10.88-36.88-23.71.68-5.74,9.6-7.45,28.59-4.24,22.94,3.88,36,8.94,36,8.94,5.18-1.18,11.65-1.88,11.65-1.88,0,0-21.41-16.59-41.18-42.12-13.17-17.01-12.59-28.47-7.65-29.29,4.94-.82,3.18,16.47,35.65,47.41,11.8,11.25,23.29,20.71,23.29,20.71,0,0,6.47-9.29,14.24.94,5.53,7.3,10,10.35,10,10.35-1.29-4.82,2.94-4.82,4.82.47,1.41,3.97.12,7.65.12,7.65l7.76,2.71,13.29-15.18-16,.71,10-6.94s-1.41-7.29,11.06-8.71c9.35-1.06,20.24-2,20.24-2-9.88-36.71-67.29-61.53-101.65-64.47-31.76-2.72-42.47,7.41-43.41,2.71-1.3-6.5,39.53-19.53,94.59,4.35,41.5,18,52.12,45.76,52.12,45.76,0,0,3.76-4.82,5.88-2.82,3.58,3.38-3.53,7.06-3.53,7.06l2.47,5.53c19.53-6.12,28.89-2.93,29.18.94.24,3.18-2.24,4.35-13.18,4.35s-16.71,5.06-18.59,6.12c-1.88,1.06-4.82-1.53-17.76,8.12-12.94,9.65-23.76,23.06-23.76,23.06h15.88s30.24-36,75.65-34.35c23.75.86,70.35,23.18,70.35,23.18-28.59-28.82-41.06-29.41-51.41-31.53-7.21-1.47-12.25-6.43-14.65-9.3-.84-1.01-.96-2.49-.15-3.52.94-1.2,2.64-1.4,3.81-.49,3.3,2.57,10.56,7.52,17.69,7.78,9.65.35,18.82,4.24,37.88,19.53,19.06,15.29,22.82,23.06,22.82,23.06,63.76-4.24,131.29-2,138.71-3.35,10.57-1.93,23.47-12.53,23.47-12.53,0,0-31.76,4.59-49.24,4.94-13.63.28-39.53,1.41-39.53,1.41,17.82-3.88,90.71-7.76,90.71-7.76,0,0,13.41-6.18,28.59-37.41,15.18-31.24,9.35-34.06,9.35-34.06,4.06-10.41,10.94.53.71,29.29s-26.82,42.71-26.82,42.71c60.71-46.06,61.98-80.76,63-102,.97-20.21-10.16-26.25-6.97-27.97,9.79-5.29,20.91,39.09-.21,77.79-17.4,31.9-34.65,45.12-34.65,45.12,3.53,6.71-4.76,10.76-4.76,10.76,0,0,26.29-7.06,40.59-9.71,14.29-2.65,25.59-9.53,33.53-12.88,7.94-3.35,10.76-2.12,21-16.06s7.76-19.94,7.76-19.94c-19.59,39.71-86.29,46.41-87.18,43.24-.88-3.18,18-9.18,46.94-21s37.76-28.41,38.82-51.88-9.18-58.24-9.18-58.24c7.06,8.82,11.29,31.59,11.29,31.59,0,0,2.12-15.71-12.53-36.88-13.76-19.89-24.71-24-31.59-24.18-6.88-.18-13.71-10.76-18.88-44.65-5.18-33.88-8-52,24.71-121.88,32.71-69.88,33.18-78.35,47.06-116,13.88-37.65,11.76-35.06,13.65-103.53,1.88-68.47-3.29-75.76-.71-106.59,2.59-30.82,9.88-23.53,8.24-54.82-2.93-55.71-20.06-83.85-24.56-94.26-6.03-13.96-12.88-13.06-10.24-16.32,3.13-3.86,11.26,3.76,24.09,30.24,12.82,26.47,17.53,52.59,17.53,52.59,2.35-82.82-20.94-126.59-27.88-140-6.94-13.41-28.7-25.4-26.82-28.93,1.38-2.6,21.17,10.22,30.7,27.75,9.53,17.53,20.35,44.24,23.29,64.24s6.59,68.35,6.59,68.35c0,0,5.88-53.06,6.59-58.12.71-5.06,4.71-6.47,6-12.59,1.29-6.12.59-13.88,9.29-43.29s26.38-71.04,50.12-103.53c25.53-34.94,38.44-56.65,38.44-56.65,0,0-19.03,16.06-27.79,20.65-14.37,7.53-4.41-3.44,5.65-9.35,7.7-4.53,15.71-12,15.71-12,0,0-9.88,2.47-9.53-3.53.4-6.88,20.82-1.24,47.88-35.12,19.95-24.98,61.35-88.59,67.88-98.12,6.53-9.53,7.94-6.18,7.94-6.18,0,0,13.53-15.75,64.18-93.35,52.82-80.94,49.17-97.12,30.94-125.03Zm-448.35,12.49c-2.29,5.23-32.71-7.82-51.41,4.77,0,0,6.71,1.62,5.12,5.1-.74,1.62-11.87-.54-11.03-5.82.84-5.29,14.97-14.34,30.97-14.34s28.59,5.18,26.35,10.29Zm110.53-244.19c1.03.41,1.56,1.55,1.22,2.6-.33,1.03-1.39,1.64-2.45,1.41-24.16-5.1-57.59-29.38-67.56-36.92-1.64-1.24-2-3.56-.82-5.24.87-1.25,2.4-1.87,3.9-1.56l4.69.95c2.86.58,4.39,3.71,3.08,6.32,10.56,8.1,21.91,15.56,34.12,22.35l-2.43-3.92c-.4-.65-.5-1.44-.27-2.17.66-2.1,3.45-2.5,4.68-.67l7.43,11.11,14.41,5.74Zm-78.38-83.28c-.9,1.7-2.94,2.45-4.74,1.77-2.06-.77-3.06-3.1-2.19-5.12,3.75-8.79,13.69-31.17,23.26-45.11,15.83-23.05,32.43-31.76,39.36-34.59,1.85-.75,3.96.03,4.86,1.81h0c.97,1.91.19,4.25-1.74,5.18-4.37,2.1-12.67,7.04-24.72,18.19-18.71,17.29-29.18,41.53-31.18,49.76-.92,3.77-2,6.38-2.92,8.11Zm9.09,144.16c-10.24-6.79-2.56-11.47,12.26-11.47s38.82,10.5,47.91,13.15c9.09,2.65,12.18,3.88,11.12,6.09-.7,1.46-6.26.79-6.26.79,5.56,3.97-.18,6-.18,6,0,0,10.5,11.47-9.09,10.85-17.46-.55-45.53-18.62-55.76-25.41Zm-1016.76,663.62c-6.94,4.71-18.59,16.82-25.53,29.29-5.75,10.33-19.56,28.32-24.12,34.18-.88,1.13-2.4,1.52-3.72.96l-5.17-2.22c-1.9-.81-2.51-3.19-1.25-4.82,2.09-2.69,5.36-6.82,9.2-11.39,6.71-8,16.35-26.94,23.65-36.82s17.53-15.53,26.12-17.65c8.59-2.12,7.76,3.76.82,8.47Zm173.29,127.35c-1.65,2.24-8.2-3.5-6.29-5.12,2.29-1.94,7.94,2.88,6.29,5.12Zm-10.41-14.41c2.71-1.59,6.94,3.41,4.29,5.29-2.65,1.88-6.78-3.84-4.29-5.29Zm72.88,397.82c-2.51.84-5.18-9.06-3.29-9.53,3.06-.76,5.41,8.82,3.29,9.53Zm165.18-932.18c1.76-1.07,5,2.29,6.29,8.76s.53,13.47-2.26,13.65c-2.09.13-3.34-5.43-4.22-10.72-.87-5.22-1.13-10.89.19-11.69Zm-84.29-89.41c.35-1-3.01-4.29-.06-6.71,3.24-2.65,5.59,1.82,8.47,1.41,2.88-.41,10.59-2.47,10.59,3.47s-11.24,8.06-16,8.12c-4.59.06-13.09.11-13.09-3.95s10.09-2.34,10.09-2.34Zm-86.18-198.24c-6-.59-7.18,1.88-7.18,1.88-13.88,1.41-16-6.12-16-14.94s15.76-15.65,28.35-19.65c12.59-4,8.85-8.56,12.62-8.32,0,0,4.03,0,3.59,5.91-.37,5.02-6.44,9.09-20.32,13.71-12.63,4.2-18.71,6.12-17.76,12.35.76,5,7.18,5.29,7.18,5.29-.24-1.76,10.71-.35,29.65-2.94,18.94-2.59,42.12-9.88,42-10.59-.38-2.29-51.29,11.06-51.06,7.65s60.35-17.29,62.82-12.24-11.06,9.76-31.88,15.06c-20.82,5.29-36,7.41-42,6.82Zm97.53,226.24c-16.71,7.06-23.06,8.47-28.71,9.53-5.65,1.06-5.88,5.29-14.82,6-6.24.49-11.71.25-12.19-5.53-.36-4.35,15.25-20.82,31.48-24.7s33.41-2.71,53.41-2.71,24.82,1.18,24.24,5.88c-.67,5.37-11.88,3.18-22.94,3.41-11.06.24-13.76,1.06-30.47,8.12Zm-5.12,436.24c-9-27.35-.88-61.12,3.53-70.35,4.41-9.24,6.53-19.56,12.35-18.5,0,0,1.68-3.44,5.82-1.85,4.15,1.59,5.21,7.94-1.5,6.44,0,0,8.75,47.28,43.15,46.32,31.76-.88,43.76-37.59,48-40.59,0,0-3.71,3.18-12,2.29,0,0-9.34,10.83-34.59,16.06-8.34,1.73-13.28-4.75-14.83-7.21-.33-.52-.91-.83-1.53-.77-2.04.18-6.45.03-6.05-4.72.39-4.58,11.22-8.33,14.75-5.29.45.39,1.1.45,1.66.23,2.88-1.11,12.09-3.7,32.83-2.3,0,0,3.53-1.65,11.41-2.71,7.88-1.06,16.16-6.63,18.59-1.76,1.65,3.29-4.71,8-8,13.65s-19.18,39.79-48.94,39.18c-40-.82-49.65-51.06-49.65-51.06,0,0-12.94,16.82-12.94,54.24s35.06,84.47,69.18,84.47,57.59-35.38,58.59-61.65c1.09-28.73-9.76-29.18-6.65-34.18,2.33-3.73,15.88-1.41,16.24,29.29.35,30.71-20.82,75.53-67.24,75.53-31.76,0-60.44-29.09-72.18-64.76Zm165.12,61.65c-4.94,24.94-23.29,59.53-40.35,76.53-16.53,16.48-22.29,24.16-26.47,57.53-4.24,33.82-1.76,43.06-7.24,43.06s-3.82-26.76,0-49.47c3.82-22.71,9.71-34.18,24-49.53,14.29-15.35,33.88-42.88,45.35-87,0,0-23.47,47.82-54.53,47.29-21.32-.36-29.83-6.8-33.08-10.79-1.27-1.57-1.17-3.84.26-5.27h.01c1.28-1.29,3.26-1.52,4.81-.59,4.95,2.95,16.79,8.31,32.41,3.95,20.82-5.82,50.91-30.89,53.65-101.47.71-18.24-5.29-40.71-5.29-40.71,0,0-7.12-7.53-5.76-9.47,2.86-4.1,8.82,7,8.82,7,0,0,12-.59,12.82,44.11.47,25.65-4.47,49.89-9.41,74.83Zm139.04-882.91c2.88-3.4,22.43-8.32,41.89-8.32,21.17,0,31.48,14.84,31.48,14.84l.38-.32c1.87-1.59,4.57-1.72,6.58-.32,2.38,1.66,3.05,4.9,1.47,7.34-3.76,5.79-12.85,14.95-32.93,15.44-19.49.47-24.78-5.78-26.17-8.62-.39-.79-1.23-1.24-2.1-1.15-4.07.42-14.4.81-14.09-6.21.44-9.97,17.65-7.76,30.09-7.76s29.91,3.09,29.91,3.09c-13.15-12.26-34.32-9.71-42.79-8.12-7.34,1.38-20.06,1.1-23.31,1-.45-.01-.7-.54-.41-.88Zm-28.8,294.56c4.18-.84,5.71-2.9,6.27-4.26.32-.79,1.04-1.35,1.88-1.53,3.34-.7,4.69-2.15,9.74-5.86,5.76-4.24,25.12-16.03,51.68-16.03s39.97,14.29,40.5,20.21c.53,5.91-4.94,5.03-5.65,7.24-.36,1.14.84,1.79,1.89,2.14.84.28,1.4,1.06,1.4,1.94v.31c0,.79.45,1.5,1.15,1.85l3.19,1.55c1.14.55,1.66,1.88,1.21,3.06-.47,1.22-1.8,1.84-3.04,1.45-1.17-.37-2.49-.97-3.43-1.42-.8-.39-1.73-.38-2.52.03-5.76,2.97-30.44,14.95-56.39,16.39-12.13.67-12.82-2.71-23.06-3.88-10.24-1.18-12-1.41-22.47-7.41s-8.82-14.47-2.35-15.76Zm75.07,380.18c-.29.44-.77.67-1.25.67-.29,0-.57-.08-.83-.25-7.02-4.66-17.41-6.7-17.51-6.72-.81-.16-1.35-.94-1.19-1.76.16-.81.94-1.35,1.76-1.19.45.09,11.09,2.17,18.6,7.17.69.46.88,1.39.42,2.08Zm-29.49-2.04c-.27,1.07-1.36,1.72-2.43,1.44-1.01-.25-24.92-5.94-35.79,19.44-.32.76-1.06,1.21-1.84,1.21-.26,0-.53-.05-.79-.16-1.02-.44-1.49-1.61-1.05-2.63,12.24-28.57,40.17-21.81,40.45-21.74,1.07.27,1.72,1.36,1.44,2.43Zm-18.64,309.33c-12.15,44.78-25.06,58.06-56.12,66.18s-49.53-11.88-58.35-25.65c-8.82-13.76-7.66-24.51-6.47-24.53,4.35-.06,6.24,19.29,23.18,34.29,16.94,15,44.47,19.94,68.83-7.24s27.4-66.29,27.4-85.24-5.41-18.24-11.65-21.18c-3.9-1.84-6.91-5.17-8.62-7.41-.85-1.12-.37-2.75.95-3.24.76-.28,1.63-.1,2.21.47,4.43,4.36,7.56,7.01,14.5,9.46,3.89,1.38,6.71,4.8,7.3,8.89,1.53,10.67,3.15,31.96-3.15,55.19Zm12.88-103.6l-42.26-50.96c-.17-.21-.26-.47-.26-.73v-1.86c0-.85.89-1.41,1.65-1.03l3.17,1.55-10.82-32.12c-.18-.54-.04-1.13.36-1.54h0c.74-.74,1.99-.51,2.42.43,7.54,16.55,10.9,28.98,11.1,38.28,0,0,17.76,21.41,27.18,31.88,9.41,10.47,15.79,15.97,12.41,20.12-2.21,2.71-6.62,1.95-9.05,1.26-1-.29-1.64-1.27-1.52-2.3.14-1.19,1.22-2.04,2.4-1.89l2.46.31c.76.1,1.25-.79.76-1.39Zm-29.75-7.25c-.41-.39-.65-.94-.65-1.51v-1.73c0-.97,1.1-1.57,1.9-1.02,12.8,8.84,17.67,29.36,9.03,41.37-.27.38-.88.17-.86-.3.96-19.09,1.49-26.37-9.42-36.82Zm72.62,850.92c-2.79,2.79-16,14.56-32.81,6.67-5.52-2.59-11.15-4.69-14.25-5.79-1.4-.49-2.22-1.93-1.95-3.38.29-1.57,1.77-2.67,3.35-2.43,8.45,1.28,18.82,7.44,23.8,7.44,5.33,0,14.07-2.84,14.78-3.07.03-.01.06-.02.1-.02h6.75c.3,0,.45.36.24.57Zm54.93-1050.97c-1.44,6.58-4.66,21.02-7.09,30.31-3.88,14.82-8.47,43.06-27.18,48,0,0-10.29,19.84-36.18,19.71-23.18-.12-41.65-26-54.71-29.41.17,2.18-8.35-.81-17.41-4.12,0,0,3.18,6.59,8.71,10.59,0,0,3.18,34.94,17.53,56.94s27.65,31.76,41.88,31.76c8.09,0,13.21-5.27,16.46-6.35,1-.33,1.92.7,1.45,1.64-1.66,3.38-6.84,11.18-19.29,11.18-15.88,0-34.68-14.05-46.68-35.65-15-27-17.11-54.82-17.11-54.82-6.67-5.44-10.27-11.7-10.25-18.94,0,0-2.94-2.12-2.59-8.71.28-5.27,4.71-13.79,6.47-16.98.41-.74,1.27-1.09,2.08-.86.84.24,1.38,1.06,1.29,1.93l-.33,3.08c-.05.44.3.83.74.83.48,0,.83.44.73.91l-.49,2.23c-.08.36-.4.61-.77.59l-1.03-.05c-.33-.02-.65.19-.75.51-1.38,4.03-1.98,7.9-1.58,11.58l7.18-.44-2.44-3.15c-.67-.86-.56-2.09.25-2.82.82-.74,2.08-.72,2.87.06,4.6,4.55,20.21,18.52,38.97,18.82,22.41.35,43.06-10.71,48.71-10.71,4.6,0,14.5,3.98,18.02,5.46.8.33,1.37,1.04,1.54,1.89l.49,2.46c.12.59.87.77,1.24.3,6.52-8.32,11.7-18.74,14.76-32.44-3.37,8.89-7.83,16.17-13.41,21.79,0,0,.26-4.59,5.29-14.47,5.03-9.88,8.72-16.65,11.91-26.03,2.19-6.46,4.2-14.23,5.12-17.94.32-1.28,1.47-2.17,2.79-2.17,1.83,0,3.2,1.69,2.81,3.48Zm43.16,164.67c-.17.26-3.86,5.87-11.58,5.87-.73,0-1.49-.05-2.28-.16-1.09-.15-1.86-1.16-1.71-2.25.15-1.1,1.15-1.86,2.25-1.71,6.78.92,9.93-3.86,9.96-3.91.6-.93,1.84-1.2,2.76-.6.93.6,1.2,1.83.6,2.76Zm125.03-80.23c1.25,3.32.42,7.13-2.46,11.32-.39.56-1.01.87-1.65.87-.39,0-.79-.11-1.13-.35-.91-.63-1.14-1.87-.51-2.78,2.1-3.05,2.78-5.62,2.01-7.64-1.23-3.27-5.93-4.54-5.97-4.55-1.07-.27-1.72-1.36-1.45-2.43.27-1.07,1.36-1.72,2.43-1.45.27.07,6.76,1.75,8.74,7.02Zm-21.23-23.96c.47-1.29,4.59-1.76,8.41-1.76s8.41-.12,8.41,1.76-1.76,2.94-8.47,2.94-8.92-1.39-8.35-2.94Zm-29.06-34.35c4-1.76,10.47,21.65,10.59,25.76.12,4.12,8.35,18.12,6,18.82-4.06,1.22-22.53-41.97-16.59-44.59Zm44.47,165.29c-15.88-6.47-29.18-20.93-36.76-31.76-9.88-14.12-9.88-26.82-9.88-26.82,0,0-7.24-21.71-7.24-35.47s2.65-15.71,6.24-13.49c3.76,2.32,2.93,18.25,5.4,27.78,2.47,9.53,7.24,24.88,17.82,36,10.59,11.12,10.53,10,13.76,9.06,2.82-.82,5.29,8.65-2.76,9.35-7.7.67-26.47-31-26.47-31,0,0,10.63,35.93,49.48,51.89l-11.81-43.93s-.15,10.63-4.97,10.98c-5.02.37-7.28-4.02-3.8-5.23.77-.27,1.05-1.22.51-1.84-1.32-1.53-3.23-4-4.24-6.47-2.94-7.18,8.59-6.24,8.59-6.24l-11.69-34.39c-.4-1.19.08-2.5,1.17-3.14,1.43-.84,3.26-.17,3.83,1.38l12.43,34.28,2.21.25c.92.1,1.5,1.06,1.16,1.92l-1.7,4.3s6.24,18,11.88,35.12c5.65,17.12,2.71,23.94-13.18,17.47Zm84.65,669.35c3,0,12.18,57.51,9.53,57.51s-12.18-57.51-9.53-57.51Zm20.48,88.07c.17.77-.87,1.18-1.28.51-4.96-8.12-12.79-24.27-14.12-30.23-.14-.65.62-1.1,1.14-.68,4.34,3.58,12.11,20.43,14.27,30.4Zm188.4-872.01c-1.15.12,2.94-5.65-.94-7.53-3.88-1.88-6.71,1.65-7.83,4.59s-10.05,16.47-28.52,14c-18.47-2.47-29.29-21.06-26.71-21.76s5.41,6.85,18.82,12.47c17.33,7.27,27.71-1.3,31.06-7.05,4.47-7.66,12.47-8.95,17.29-5.31,6.31,4.77-.44,10.31-3.18,10.59Zm38.06-46.4c-1.69.65-3.6.05-4.62-1.45l-2.06-3.01c-.28-.41-.92-.16-.85.33l1.14,7.8c.41,2.78-1.03,5.5-3.56,6.73l-16.44,8.01c-4.29,2.09-8.95,3.29-13.72,3.53l-10.25.52s-18.35,9.35-32.82,9.71c-14.47.35-22.94-42.35,8.29-68.29,0,0,2.25-8.93,7.85-7.06,6.88,2.29.53,13.24.53,13.24-5.32,14.24-6.44,40.94,16.85,43.24,0,0,21.82-9.24,31.47-8.76,0,0-2.71-2.82-2.35-6.71.35-3.88-4.29-14.12-15.76-24.47-15.53-14-31.39-16.79-31.29-23.29.12-7.65,10.71-6.47,10.71-6.47l-.55-.82c-1.9-2.8-1.88-6.49.05-9.27,1.98-2.86,5.56-4.18,8.91-3.23,28.56,8.13,43.36,30.93,50.9,65.23.42,1.9-.61,3.82-2.42,4.51Zm85.26-118.58c-.23,1.44-1.46,2.5-2.92,2.5-1.7,0-3.04-1.43-2.94-3.12.97-15.79-1.25-30.25-12.65-40.85-1.68-1.56-3.61-2.83-5.69-3.8-5.02-2.33-16.16-7.68-22.69-12.04-2.37-1.58-3.05-4.76-1.56-7.19,1.35-2.19,4.08-3.12,6.47-2.17,28.66,11.36,47.93,29.75,41.97,66.68Z"/>
      <g>
        <g>
          <path class="cls-3" d="m1445.39,1049.6v43.22s-40.82,0-40.82,0c-6.26,0-11.31,5.15-11.17,11.41h0c.13,6.08,5.09,10.94,11.17,10.94h57.37c2.92,0,5.28-2.37,5.26-5.29l-.37-60.35c-.04-5.89-4.83-10.65-10.72-10.65h0c-5.92,0-10.72,4.8-10.72,10.72Z"/>
          <path class="cls-3" d="m1437.37,1127.82h41.91v-45.35c0-6.53,5.29-11.82,11.82-11.82h0c6.53,0,11.82,5.29,11.82,11.82v60.53c0,2.63-2.13,4.76-4.76,4.76h-60.79c-5.51,0-9.97-4.46-9.97-9.97h0c0-5.51,4.46-9.97,9.97-9.97Z"/>
        </g>
        <g>
          <path class="cls-3" d="m1264.34,828.79c40.87,0,74.12,33.26,74.12,74.13s-33.25,74.13-74.12,74.13-74.12-33.26-74.12-74.13,33.25-74.13,74.12-74.13m0-16.42c-49.92,0-90.54,40.62-90.54,90.56s40.62,90.56,90.54,90.56,90.54-40.62,90.54-90.56-40.62-90.56-90.54-90.56h0Z"/>
          <path class="cls-3" d="m1264.29,897.53c.66,0,1.29.09,1.9.25l2.67-7.01c-1.44-.46-2.97-.71-4.57-.71-1.99,0-3.89.39-5.63,1.09l3.02,6.84c.81-.3,1.69-.47,2.6-.47Z"/>
          <path class="cls-3" d="m1271.02,901.55l6.83-3.02c-1.55-3.17-4.17-5.72-7.4-7.16l-2.66,7c1.37.71,2.51,1.82,3.24,3.18Z"/>
          <path class="cls-3" d="m1271.92,905.16c0,.52-.05,1.04-.15,1.53l7.09,2.4c.34-1.26.54-2.57.54-3.93,0-1.78-.32-3.47-.89-5.06l-6.86,3.03c.18.65.28,1.32.28,2.03Z"/>
          <path class="cls-3" d="m1264.29,912.79c-.66,0-1.29-.09-1.9-.25l-2.67,7.01c1.44.46,2.97.71,4.57.71,1.75,0,3.43-.31,4.99-.86l-3.03-6.87c-.63.17-1.28.26-1.96.26Z"/>
          <path class="cls-3" d="m1256.66,905.16c0-.6.08-1.17.2-1.73l-7.09-2.4c-.37,1.32-.59,2.7-.59,4.13,0,1.97.39,3.84,1.07,5.56l6.84-3.02c-.28-.79-.44-1.65-.44-2.54Z"/>
          <path class="cls-3" d="m1257.84,909.23l-6.88,3.04c1.58,2.95,4.1,5.31,7.17,6.68l2.66-7c-1.21-.63-2.23-1.57-2.96-2.71Z"/>
          <path class="cls-3" d="m1267.84,911.92l3.02,6.83c3.4-1.64,6.08-4.51,7.48-8.04l-7.09-2.4c-.7,1.55-1.9,2.82-3.4,3.61Z"/>
          <path class="cls-3" d="m1260.16,898.75l-3.04-6.88c-3.05,1.65-5.47,4.32-6.8,7.55l7.11,2.41c.61-1.26,1.56-2.33,2.73-3.08Z"/>
          <g>
            <rect class="cls-3" x="1234.29" y="830.08" width="14.8" height="52.43" transform="translate(-234.54 546.83) rotate(-22.75)"/>
            <path class="cls-3" d="m1253.14,889.27c-.63,0-1.28-.11-1.91-.34l-23.57-8.74c-2.85-1.06-4.3-4.22-3.25-7.07,1.06-2.85,4.22-4.3,7.07-3.25l18.53,6.87,7.58-19.13c1.12-2.82,4.31-4.21,7.14-3.09,2.82,1.12,4.21,4.31,3.09,7.14l-9.56,24.13c-.85,2.16-2.92,3.48-5.11,3.48Z"/>
          </g>
          <g>
            <rect class="cls-3" x="1280.47" y="931.92" width="14.8" height="52.43" transform="translate(-286.83 646.78) rotate(-25.46)"/>
            <path class="cls-3" d="m1265.82,960.19c-.67,0-1.35-.12-2.01-.38-2.83-1.11-4.22-4.3-3.11-7.13l9.19-23.4c1.09-2.78,4.2-4.18,7.02-3.15l24.36,8.95c2.85,1.05,4.31,4.21,3.26,7.06-1.05,2.85-4.21,4.31-7.06,3.27l-19.31-7.1-7.23,18.39c-.85,2.17-2.93,3.49-5.12,3.49Z"/>
          </g>
          <g>
            <rect class="cls-3" x="1187.59" y="922.34" width="52.43" height="14.8" transform="translate(-265.09 541.67) rotate(-22.75)"/>
            <path class="cls-3" d="m1232.54,947.36c-.63,0-1.28-.11-1.91-.34-2.85-1.06-4.3-4.22-3.25-7.07l6.87-18.53-19.13-7.58c-2.82-1.12-4.21-4.31-3.09-7.14,1.12-2.82,4.31-4.21,7.14-3.09l24.13,9.56c2.78,1.1,4.17,4.22,3.13,7.02l-8.74,23.57c-.82,2.22-2.92,3.59-5.16,3.59Z"/>
          </g>
          <g>
            <rect class="cls-3" x="1289.43" y="876.17" width="52.43" height="14.8" transform="translate(-252.08 651.5) rotate(-25.46)"/>
            <path class="cls-3" d="m1312.2,911.12c-.67,0-1.35-.12-2.01-.38l-23.4-9.19c-2.78-1.09-4.18-4.21-3.15-7.02l8.95-24.36c1.05-2.85,4.21-4.31,7.06-3.27,2.85,1.05,4.31,4.21,3.26,7.06l-7.1,19.31,18.39,7.23c2.83,1.11,4.22,4.3,3.11,7.13-.85,2.17-2.93,3.49-5.12,3.49Z"/>
          </g>
        </g>
        <g>
          <circle class="cls-3" cx="996.19" cy="819.17" r="7.56"/>
          <g>
            <path class="cls-3" d="m968.73,733.39c-1.18,0-2.28-.75-2.66-1.94-.48-1.47.33-3.05,1.8-3.53,9.05-2.94,18.5-4.47,28.1-4.55,1.58,0,2.81,1.23,2.82,2.78.01,1.55-1.23,2.81-2.78,2.82-9.02.08-17.91,1.51-26.41,4.27-.29.09-.58.14-.86.14Z"/>
            <path class="cls-3" d="m936.72,751.68c-.77,0-1.55-.32-2.1-.95-1.02-1.16-.91-2.93.25-3.95,7.03-6.21,14.91-11.3,23.42-15.15,1.41-.64,3.07-.01,3.7,1.4.64,1.41.01,3.07-1.4,3.7-8,3.61-15.41,8.4-22.01,14.24-.53.47-1.19.7-1.85.7Z"/>
            <path class="cls-3" d="m914.1,782.21c-.39,0-.78-.08-1.16-.25-1.41-.64-2.03-2.3-1.39-3.71,4.03-8.87,9.42-17.04,16-24.27,1.04-1.14,2.81-1.23,3.96-.19s1.23,2.81.19,3.96c-6.19,6.8-11.25,14.48-15.04,22.82-.47,1.03-1.49,1.64-2.55,1.64Z"/>
            <path class="cls-3" d="m906.27,812.92c-.07,0-.14,0-.21,0-1.54-.11-2.7-1.46-2.59-3,.56-7.49,2.01-14.89,4.33-21.99.48-1.47,2.06-2.28,3.53-1.79,1.47.48,2.27,2.06,1.79,3.53-2.18,6.68-3.54,13.63-4.07,20.67-.11,1.47-1.34,2.59-2.79,2.59Z"/>
            <path class="cls-3" d="m909.28,843.94c-1.23,0-2.35-.81-2.7-2.06-2.16-7.81-3.29-15.92-3.36-24.1-.01-1.55,1.23-2.81,2.77-2.83h.03c1.53,0,2.79,1.24,2.8,2.77.07,7.69,1.13,15.31,3.16,22.66.41,1.49-.46,3.03-1.95,3.44-.25.07-.5.1-.75.1Z"/>
            <path class="cls-3" d="m928.1,879.07c-.79,0-1.57-.33-2.12-.97-6.72-7.77-12.08-16.52-15.93-26-.58-1.43.11-3.07,1.54-3.65,1.43-.58,3.07.11,3.65,1.54,3.62,8.91,8.66,17.13,14.98,24.44,1.01,1.17.88,2.94-.29,3.95-.53.46-1.18.68-1.83.68Z"/>
            <path class="cls-3" d="m954.61,900.12c-.44,0-.88-.1-1.3-.32-7.76-4.08-14.92-9.23-21.26-15.31-1.12-1.07-1.15-2.84-.08-3.96,1.07-1.12,2.84-1.15,3.96-.08,5.97,5.72,12.7,10.56,19.99,14.4,1.37.72,1.9,2.41,1.18,3.78-.5.95-1.47,1.5-2.48,1.5Z"/>
            <path class="cls-3" d="m989.25,910.17c-.08,0-.15,0-.23,0-9.11-.75-18.02-2.81-26.49-6.15-1.44-.57-2.15-2.19-1.58-3.63.57-1.44,2.19-2.15,3.63-1.58,7.96,3.13,16.34,5.07,24.9,5.77,1.54.13,2.69,1.48,2.56,3.02-.12,1.46-1.34,2.57-2.79,2.57Z"/>
            <path class="cls-3" d="m998.33,910.46c-1.52,0-2.77-1.22-2.8-2.75-.03-1.55,1.21-2.82,2.75-2.85,11.16-.19,22-2.44,32.22-6.69,1.43-.59,3.07.08,3.66,1.51.59,1.43-.08,3.07-1.51,3.66-10.88,4.52-22.41,6.92-34.27,7.12h-.05Z"/>
            <path class="cls-3" d="m1040.74,899.13c-.98,0-1.94-.52-2.45-1.44-.75-1.35-.26-3.06,1.09-3.81,4.18-2.32,8.2-5,11.95-7.98,1.21-.96,2.97-.76,3.93.46.96,1.21.76,2.97-.46,3.93-3.99,3.16-8.27,6.02-12.71,8.48-.43.24-.9.35-1.36.35Z"/>
            <path class="cls-3" d="m1060.59,884.23c-.72,0-1.44-.28-1.99-.83-1.09-1.1-1.08-2.87.02-3.96,8.95-8.85,15.76-19.27,20.26-30.95.55-1.44,2.18-2.16,3.62-1.61,1.44.56,2.16,2.17,1.61,3.62-4.78,12.43-12.03,23.51-21.54,32.92-.55.54-1.26.81-1.97.81Z"/>
            <path class="cls-3" d="m1084.77,841.97c-.23,0-.46-.03-.69-.09-1.5-.38-2.41-1.9-2.03-3.4,1.76-7.01,2.66-14.26,2.66-21.56,0-2.41-.1-4.86-.3-7.26-.12-1.54,1.02-2.89,2.56-3.02,1.53-.13,2.89,1.02,3.02,2.56.21,2.56.31,5.15.31,7.72,0,7.76-.95,15.47-2.83,22.92-.32,1.27-1.46,2.12-2.71,2.12Z"/>
            <path class="cls-3" d="m1085.84,802.31c-1.31,0-2.49-.93-2.75-2.27-1.16-5.97-2.95-11.84-5.33-17.44-.6-1.42.06-3.07,1.48-3.67,1.42-.6,3.07.06,3.67,1.48,2.53,5.96,4.44,12.21,5.67,18.56.29,1.52-.7,2.99-2.21,3.28-.18.04-.36.05-.54.05Z"/>
            <path class="cls-3" d="m1075.84,775.17c-.98,0-1.93-.51-2.44-1.42-3.11-5.5-6.82-10.69-11.05-15.41-1.03-1.15-.93-2.92.22-3.95,1.15-1.03,2.92-.93,3.95.22,4.49,5.02,8.44,10.54,11.75,16.39.76,1.35.29,3.05-1.06,3.81-.44.25-.91.36-1.37.36Z"/>
            <path class="cls-3" d="m1059.3,753.96c-.69,0-1.39-.26-1.93-.77-6.61-6.29-14.11-11.49-22.29-15.45-1.39-.67-1.97-2.35-1.3-3.74s2.35-1.97,3.74-1.3c8.7,4.22,16.68,9.75,23.71,16.43,1.12,1.07,1.17,2.84.1,3.96-.55.58-1.29.87-2.03.87Z"/>
            <path class="cls-3" d="m1029.66,735.12c-.34,0-.68-.06-1.02-.19-8.17-3.18-16.78-5.11-25.57-5.73-1.54-.11-2.7-1.45-2.59-2.99.11-1.54,1.45-2.7,2.99-2.59,9.35.66,18.51,2.72,27.21,6.1,1.44.56,2.15,2.18,1.59,3.62-.43,1.11-1.49,1.79-2.61,1.79Z"/>
          </g>
          <g>
            <path class="cls-3" d="m982.07,811.69c-1.91,0-3.8-.82-5.12-2.4l-27.44-32.98c-2.35-2.82-1.96-7.02.86-9.37,2.82-2.35,7.02-1.96,9.37.86l27.44,32.98c2.35,2.82,1.96,7.02-.86,9.37-1.24,1.03-2.75,1.54-4.25,1.54Z"/>
            <path class="cls-3" d="m946.93,793.18c-.1,0-.2,0-.3,0-3.03-.16-5.36-2.76-5.19-5.79l1.18-21.7c.16-2.92,2.57-5.2,5.49-5.2h22.41c3.04,0,5.5,2.46,5.5,5.5s-2.46,5.5-5.5,5.5h-17.2l-.9,16.5c-.16,2.93-2.59,5.2-5.49,5.2Z"/>
          </g>
          <g>
            <path class="cls-3" d="m949.08,867.38c-1.91,0-3.8-.82-5.12-2.4-2.35-2.82-1.96-7.02.86-9.37l32.98-27.44c2.82-2.35,7.02-1.96,9.37.86,2.35,2.82,1.96,7.02-.86,9.37l-32.98,27.44c-1.24,1.03-2.75,1.54-4.25,1.54Z"/>
            <path class="cls-3" d="m964.7,873.93c-.1,0-.2,0-.3,0l-21.7-1.18c-2.92-.16-5.2-2.57-5.2-5.49v-22.41c0-3.04,2.46-5.5,5.5-5.5s5.5,2.46,5.5,5.5v17.2l16.5.9c3.03.16,5.36,2.76,5.19,5.79-.16,2.93-2.59,5.2-5.49,5.2Z"/>
          </g>
          <g>
            <path class="cls-3" d="m1037.75,872.93c-1.91,0-3.8-.82-5.12-2.4l-27.44-32.98c-2.35-2.82-1.96-7.02.86-9.37,2.82-2.35,7.02-1.96,9.37.86l27.44,32.98c2.35,2.82,1.96,7.02-.86,9.37-1.24,1.03-2.75,1.54-4.25,1.54Z"/>
            <path class="cls-3" d="m1044.28,877.86h-22.41c-3.04,0-5.5-2.46-5.5-5.5s2.46-5.5,5.5-5.5h17.2l.9-16.5c.16-3.03,2.75-5.37,5.79-5.19,3.03.16,5.36,2.76,5.19,5.79l-1.18,21.7c-.16,2.92-2.57,5.2-5.49,5.2Z"/>
          </g>
          <g>
            <path class="cls-3" d="m1010.32,811.7c-1.91,0-3.8-.82-5.12-2.4-2.35-2.82-1.96-7.02.86-9.37l32.98-27.44c2.82-2.35,7.02-1.96,9.36.86,2.35,2.82,1.96,7.02-.86,9.37l-32.98,27.44c-1.24,1.03-2.75,1.54-4.25,1.54Z"/>
            <path class="cls-3" d="m1049.38,798.99c-3.04,0-5.5-2.46-5.5-5.5v-17.2l-16.5-.9c-3.03-.16-5.36-2.76-5.19-5.79.16-3.03,2.76-5.37,5.79-5.19l21.7,1.18c2.92.16,5.2,2.57,5.2,5.49v22.41c0,3.04-2.46,5.5-5.5,5.5Z"/>
          </g>
        </g>
        <path class="cls-3" d="m675.95,977.37c-7.48,0-14.74-2.62-20.56-7.44-3.27-2.69-5.97-5.98-8.01-9.76-1.94-3.59-3.18-7.46-3.68-11.51-.13-.93-.21-1.95-.25-3-.67-18.13,13.36-33.41,31.26-34.07,3.07-.11,6.12.21,9.06.97,3.87.96,7.52,2.65,10.82,5.01,3.8,2.71,7.05,6.29,9.4,10.36,2.67,4.63,4.19,9.94,4.39,15.34h0c.67,18.13-13.36,33.41-31.26,34.07-.39.01-.79.02-1.18.02Zm-.05-60c-.32,0-.65,0-.97.02-14.71.54-26.23,13.13-25.68,28.06.03.86.1,1.7.21,2.47.42,3.36,1.44,6.55,3.03,9.51,1.68,3.12,3.89,5.82,6.59,8.04,5.03,4.17,11.36,6.33,17.83,6.09,14.71-.54,26.23-13.13,25.68-28.06-.16-4.47-1.42-8.84-3.62-12.66-1.94-3.36-4.61-6.31-7.74-8.54-2.71-1.94-5.69-3.32-8.87-4.11-2.11-.54-4.28-.81-6.46-.81Z"/>
        <path class="cls-3" d="m656.27,970.65l-.86-.71c-3.28-2.7-5.98-5.98-8.02-9.77-1.94-3.59-3.18-7.46-3.68-11.51-.13-.93-.21-1.95-.25-3-.67-18.13,13.36-33.41,31.26-34.07,3.07-.11,6.12.21,9.06.97,3.87.96,7.52,2.65,10.82,5.01,3.8,2.71,7.05,6.29,9.4,10.36l.58,1-.27,1.12c-2.12,8.88-7.22,17.73-14.36,24.9-9.36,9.41-21.23,15.12-32.57,15.65l-1.11.05Zm19.64-53.28c-.32,0-.65,0-.97.02-14.71.54-26.23,13.13-25.68,28.06.03.86.1,1.7.21,2.47.42,3.36,1.44,6.55,3.03,9.51,1.5,2.78,3.43,5.24,5.74,7.31,9.57-.78,19.57-5.79,27.6-13.87,6.09-6.12,10.51-13.54,12.54-21.02-1.87-2.95-4.33-5.54-7.15-7.55-2.71-1.94-5.69-3.32-8.87-4.11-2.11-.54-4.28-.81-6.46-.81Z"/>
        <path class="cls-3" d="m648.3,961.86l-.91-1.68c-1.94-3.59-3.18-7.47-3.68-11.51-.13-.93-.21-1.95-.25-3-.67-18.13,13.36-33.41,31.26-34.07,3.07-.11,6.12.21,9.06.97,3.87.96,7.52,2.65,10.82,5.01l1.56,1.12-.42,1.87c-2.03,9.12-7.19,18.21-14.53,25.59-8.86,8.92-20.17,14.58-31.02,15.54l-1.9.17Zm27.6-44.49c-.32,0-.65,0-.97.02-14.71.54-26.23,13.13-25.68,28.06.03.86.1,1.7.21,2.47.34,2.71,1.07,5.31,2.17,7.77,8.91-1.31,18.1-6.21,25.47-13.63,6.06-6.08,10.45-13.42,12.5-20.84-2.26-1.38-4.69-2.4-7.24-3.03-2.11-.54-4.28-.81-6.46-.81Z"/>
        <path class="cls-3" d="m644.14,951.83l-.43-3.13c-.13-.96-.22-1.98-.26-3.04-.67-18.13,13.36-33.41,31.26-34.07h0c3.07-.11,6.12.21,9.06.97l3.08.79-1.07,3c-2.6,7.27-7.07,14.22-12.94,20.1-7.36,7.41-16.47,12.63-25.63,14.69l-3.08.69Zm30.79-34.44h0c-14.42.53-25.78,12.65-25.7,27.2,6.98-2.23,13.81-6.49,19.51-12.23,4.4-4.42,7.92-9.48,10.31-14.8-1.36-.17-2.74-.22-4.12-.17Z"/>
        <g>
          <path class="cls-3" d="m729.49,924.91c-2.67,1.61-5.48,2.89-8.3,3.79-1.89-9.53.57-18.92,5.98-26.06,1.81,2.63,4.67,5.79,7.88,5.66,5.82-.24,8.7-6.47,6.5-9.8-.63-.95-1.37-1.31-2.1-1.31-2.11,0-4.26,2.9-4.26,2.9,1.33-4.39,4.79-7.86,9.22-9.02.54-.14,1.08-.27,1.63-.38,2.15-.45,4.3-.66,6.42-.66-.58,4.83-2.08,9.81-4.48,14.65-4.18,8.42-10.75,15.61-18.49,20.23Z"/>
          <path class="cls-3" d="m739.37,938.69c-3.55,2.2-7.29,3.9-10.96,4.96-.32-.37-.63-.76-.94-1.15-1.88-2.4-3.44-5.09-4.58-8.04,3.3-1.04,6.54-2.51,9.68-4.4,8.72-5.2,16.1-13.27,20.78-22.72,2.73-5.49,4.44-11.17,5.08-16.73,2.76.51,5.41,1.41,7.91,2.62.27.13.53.26.8.4-.27,7.14-2.5,14.91-6.55,22.34-5.09,9.37-12.63,17.43-21.22,22.72Z"/>
          <path class="cls-3" d="m751.92,947.08c-3.85,2.38-7.9,4.17-11.84,5.22-1.1-.48-2.17-1.02-3.21-1.62-1.22-.7-2.39-1.48-3.51-2.35,3.09-1.16,6.15-2.67,9.16-4.54,9.47-5.82,17.75-14.68,23.34-24.95,3.82-7.03,6.18-14.39,6.98-21.42,1.58,1.3,3.04,2.77,4.36,4.36.82.98,1.58,2.02,2.28,3.11-.69,6.32-2.83,13.02-6.34,19.47-5.1,9.37-12.63,17.44-21.22,22.72Z"/>
          <path class="cls-3" d="m759.21,954.32c-3.02.63-6.04.8-8.98.55,1.62-.79,3.24-1.69,4.84-2.68,9.46-5.83,17.75-14.69,23.34-24.96,2.27-4.18,4.02-8.47,5.24-12.74.13.5.24,1.01.35,1.52,3.64,17.57-7.46,34.72-24.79,38.31Z"/>
        </g>
        <ellipse class="cls-3" cx="663.25" cy="920.25" rx="6.61" ry="4.89" transform="translate(-420.46 585.08) rotate(-37.03)"/>
        <g>
          <path class="cls-3" d="m663.98,907.27c-2.23,0-4.32-1.36-5.15-3.57-.42-1.12-10.09-27.78,9.71-50.93,15.16-17.72,42.91-20.92,60.61-6.97,13.92,10.97,17.86,28.11,18.02,28.83.66,2.97-1.21,5.9-4.17,6.56-2.96.66-5.9-1.21-6.56-4.17-.03-.12-3.32-14.09-14.09-22.58-12.97-10.22-34.2-7.66-45.44,5.48-15.63,18.28-7.85,39.7-7.77,39.92,1.07,2.84-.37,6.01-3.22,7.08-.64.24-1.29.35-1.93.35Z"/>
          <path class="cls-3" d="m742.22,885.91c-.91,0-1.81-.23-2.62-.67l-15.06-8.18c-2.67-1.45-3.66-4.79-2.21-7.46,1.45-2.67,4.79-3.66,7.46-2.21l10.04,5.45,4.67-9.44c1.35-2.72,4.64-3.84,7.37-2.49,2.72,1.35,3.84,4.65,2.49,7.37l-7.2,14.56c-.66,1.34-1.84,2.35-3.27,2.81-.54.17-1.1.26-1.66.26Z"/>
        </g>
        <g>
          <path class="cls-3" d="m1465.83,1208.21c-1.33,0-2.66-.48-3.72-1.45-2.24-2.05-2.39-5.53-.33-7.77l5.16-5.62c2.05-2.24,5.53-2.39,7.77-.34,2.24,2.05,2.39,5.53.33,7.77l-5.16,5.62c-1.08,1.18-2.57,1.78-4.05,1.78Z"/>
          <path class="cls-3" d="m1455.07,1197.35c-1.33,0-2.66-.48-3.72-1.45-2.24-2.05-2.39-5.53-.33-7.77l3.3-3.59c2.05-2.24,5.53-2.39,7.77-.33s2.39,5.53.33,7.77l-3.3,3.59c-1.08,1.18-2.57,1.78-4.05,1.78Z"/>
          <path class="cls-3" d="m1445.12,1188.35c-1.58,0-3.16-.68-4.24-2l-1.05-1.27c-1.93-2.34-1.6-5.81.74-7.74,2.34-1.93,5.81-1.6,7.74.74l1.05,1.27c1.93,2.34,1.6,5.81-.74,7.74-1.03.85-2.27,1.26-3.5,1.26Z"/>
        </g>
        <g>
          <path class="cls-3" d="m1479.57,1042.24c-1.33,0-2.66-.48-3.72-1.45-2.24-2.05-2.39-5.53-.33-7.77l5.16-5.62c2.05-2.24,5.53-2.39,7.77-.33,2.24,2.05,2.39,5.53.33,7.77l-5.16,5.62c-1.08,1.18-2.57,1.78-4.05,1.78Z"/>
          <path class="cls-3" d="m1468.81,1031.38c-1.33,0-2.66-.48-3.72-1.45-2.24-2.05-2.39-5.53-.34-7.77l3.3-3.59c2.05-2.24,5.53-2.39,7.77-.34,2.24,2.05,2.39,5.53.34,7.77l-3.3,3.59c-1.08,1.18-2.57,1.78-4.06,1.78Z"/>
          <path class="cls-3" d="m1460.92,1021.42c-1,0-2.01-.36-2.81-1.08-1.72-1.55-1.87-4.21-.31-5.93l.85-.95c1.55-1.73,4.21-1.87,5.93-.31s1.87,4.21.31,5.93l-.85.95c-.83.92-1.98,1.39-3.12,1.39Z"/>
        </g>
        <g>
          <path class="cls-3" d="m361.63,1407.69c-.14,0-.28,0-.42-.02-1.67-.17-3.08-1.31-3.58-2.91l-32.35-101.61c-.48-1.49-.08-3.13,1.02-4.24,1.11-1.11,2.74-1.51,4.23-1.05l100.82,31.53c1.54.48,2.67,1.81,2.9,3.41.23,1.6-.47,3.19-1.81,4.09l-24.97,16.78,25.18,27.05c1.53,1.65,1.5,4.21-.09,5.82l-19.66,19.9c-1.62,1.64-4.27,1.67-5.92.05l-27.35-26.71-14.33,25.74c-.75,1.34-2.16,2.16-3.67,2.16Zm17-38.95c1.09,0,2.15.42,2.94,1.2l28.29,27.63,13.9-14.06-25.79-27.7c-.84-.9-1.24-2.12-1.1-3.34s.81-2.32,1.83-3.01l21.79-14.65-84.76-26.51,26.95,84.65,12.27-22.05c.64-1.14,1.77-1.93,3.07-2.11.2-.03.4-.04.61-.04Z"/>
          <g>
            <path class="cls-3" d="m313.15,1285.9c9.7-10.05,26.19-9.88,36.84.4,1.91,1.84,3.5,3.88,4.76,6.04s4.62,1.16,4.51-1.33c-.4-8.88-4.01-17.38-10.84-23.6-14.37-13.08-37.52-11.06-51.7,4.52s-14.03,38.81.35,51.9c5.82,5.3,13.07,8.11,20.59,8.56,3.4.2,4.8-4.22,1.9-6.02-1.65-1.03-3.23-2.25-4.69-3.66-10.65-10.27-11.42-26.75-1.72-36.8Z"/>
            <g>
              <path class="cls-3" d="m350.24,1255.55c-.06,0-.12,0-.18,0-1.93-.1-3.42-1.74-3.32-3.67l.67-13.14c.1-1.93,1.75-3.41,3.67-3.32,1.93.1,3.42,1.74,3.32,3.67l-.67,13.14c-.1,1.87-1.64,3.32-3.49,3.32Z"/>
              <path class="cls-3" d="m330.19,1250.71c-1.87,0-3.42-1.48-3.49-3.36l-.66-16.58c-.08-1.93,1.43-3.56,3.36-3.64,1.92-.08,3.56,1.43,3.64,3.36l.66,16.58c.08,1.93-1.43,3.56-3.36,3.64-.05,0-.09,0-.14,0Z"/>
              <path class="cls-3" d="m310.91,1255.55c-1.35,0-2.63-.78-3.21-2.1l-7.53-17.22c-.77-1.77.03-3.83,1.81-4.61,1.77-.77,3.83.03,4.61,1.81l7.53,17.22c.77,1.77-.03,3.83-1.81,4.61-.46.2-.93.29-1.4.29Z"/>
              <path class="cls-3" d="m289.77,1266.15c-.83,0-1.66-.29-2.33-.89l-9.9-8.81c-1.44-1.28-1.57-3.5-.29-4.94,1.28-1.44,3.5-1.57,4.94-.29l9.9,8.81c1.44,1.28,1.57,3.5.29,4.94-.69.78-1.65,1.17-2.62,1.17Z"/>
              <path class="cls-3" d="m278.4,1288.82c-.34,0-.69-.05-1.03-.16l-11.39-3.51c-1.85-.57-2.88-2.53-2.31-4.38.57-1.85,2.53-2.88,4.38-2.31l11.39,3.51c1.85.57,2.88,2.53,2.31,4.38-.46,1.5-1.85,2.47-3.34,2.47Z"/>
              <path class="cls-3" d="m275.04,1331.8c-1.57,0-3-1.07-3.39-2.66-.47-1.88.68-3.77,2.55-4.24l9.29-2.3c1.88-.47,3.77.68,4.24,2.55.47,1.88-.68,3.77-2.55,4.24l-9.29,2.3c-.28.07-.57.1-.85.1Z"/>
              <path class="cls-3" d="m266.65,1313.05c-1.88,0-3.44-1.5-3.5-3.39-.06-1.93,1.46-3.55,3.39-3.61l11.74-.36c1.92-.04,3.55,1.46,3.61,3.39s-1.46,3.55-3.39,3.61l-11.74.36s-.07,0-.11,0Z"/>
            </g>
          </g>
        </g>
        <path class="cls-3" d="m1200.1,1503c-20.12-14.29-36.71-21-63-37.06s-44.82-25.94-72-40.06c-27.18-14.12-34.06-16.76-52.41-30.35-18.35-13.59-29.65-22.24-42.18-26.65-12.53-4.41-20.29-3.88-26.65-8.12-6.35-4.24-12.18-9.88-10.24-2.47,0,0-9.62-3.62-21.62,2.56,0,0-5.29-3.09-8.29,2.74,0,0-8.38-1.62-8.38,11.82,0,21.71-4.59,29.47-4.59,47.65s4.76,117.65,5.24,141.18-1.53,63.71-1.53,72.35,1.53,12.35,8.82,15.88c0,0,5.06,11.41,23.06,6.82,0,0,15.06-.65,36.24-9.65s32.12-13.76,60.71-25.94,41.29-18.35,64.24-30.88c22.94-12.53,37.76-19.59,54.71-26.12,16.94-6.53,38.82-14.12,55.24-25.94,16.41-11.82,22.76-23.47,2.65-37.76Zm-299.53-19.12l1-24.24,1.94,24.24h-2.94Zm29.63-120.05c-3.5,0-7.72.03-11.21-.16,2.36-1.04,4.95-1.31,7.5-1.34,2.54.04,5.1.37,7.5,1.34-1.29.13-2.54.14-3.79.16Zm29.29,15.99c-9.71-3.35-24.35-9.35-24.35-9.35,7.32-.71,13.68.26,17.38,2.12,3.71,1.85,12.53,3.09,21.88,7.94,9.35,4.85,15.62,10.06,15.62,10.06-12.71-5.56-20.82-7.41-30.53-10.76Zm102.62,219.35c-18.47,9.18-32.94,14.59-52.82,22.94-19.88,8.35-35.18,16.24-35.18,16.24,0,0,15.29-10.12,29.53-18.24s36.71-20.35,63.65-32.12c26.94-11.76,43.06-14.35,43.06-14.35-13.76,6.71-29.76,16.35-48.24,25.53Zm127.17-60.53c-10.59,6.24-24.64,12.53-24.64,12.53,13.77-11.09,26.64-19.27,38.76-25.06,0,0-3.54,6.29-14.13,12.53Z"/>
      </g>
      <g>
        <path class="cls-4" d="m1053.28,230.47c-3.71-14.65-18.41-40.12-47.41-40.12-27.06,0-51.41,13.12-56,61.18-2.11,22.1-.59,36.82,4.82,40,5.41,3.18,14.59,1.88,18.59,3.29,4,1.41,18.76,2.88,34.12,3.59,15.35.71,42.88,4.41,43.94,2.12.66-1.43.5-2.85.28-3.73-.12-.5.05-1.02.45-1.35,1.21-.99,3.51-3.69,3.51-9.92,0-8.47,1.41-40.41-2.29-55.06Zm-4.12,46.24c-.1-2.55-.11-5.09-.17-7.63-.28-7.34-.71-15.49-1.77-22.73-1.42-9.96-3.42-20.11-7.95-29.17,10.33,16.39,11.6,40.63,9.88,59.53Z"/>
        <path class="cls-4" d="m1381.39,468.59s8.47,22.59,63.88,25.41c0,0,.39,7.21,7.65,7.29,7.76.09,14.71-11.76,24.59-49.53,10.5-40.13,11.73-76.09-9.35-85.59-19.59-8.82-46.8-15.81-59.69-9.81s-29.78,36.63-35.08,47.93-16.06,40.97-14.21,47.65c1.54,5.56,11.15,19,22.21,16.65Z"/>
        <path class="cls-4" d="m1723.98,848.94c-8.23.31-12.71-4.24-18.82-9.29s-13.29-9.76-24.59-13.18-13.88-12.12-18.12-16.94-7.53-12.71-2.94-28.71,12.82-26.71,24.94-37.41,30.82-18.24,48.71-18.24,19.06,4.71,32.47,16.82,15.39,30.93,2.24,54.35c-15.53,27.65-34.24,45.53-34.24,45.53,0,0-.35,6.71-9.65,7.06Z"/>
        <path class="cls-4" d="m246.1,1167.53c-2.29-15.18-40.06-49.24-61.24-65.29s-59.29-25.59-73.24,10.59,16.1,68.29,29.82,83.12c19.51,21.08,45.88,46.95,47.47,46.94,6.73-.03,8.47-20.29,23.12-37.94,6.67-8.04,35.71-26.5,34.06-37.41Zm-68.12-55.29c-12.82-5.76-18.56-12.04-16.82-13.65,4.59-4.24,35.41,23.65,35.41,23.65,0,0-5.76-4.24-18.59-10Zm56.21,59.26c4.53-7.86-1.12-13.98-1.48-14.36,0,0-.01-.01-.02-.02,0,0,0,0,.02.02,9.42,9.43,9.46,14.58,1.48,14.36Z"/>
        <path class="cls-4" d="m533.97,454.76c.25-.46.71-.74,1.23-.76,1.56-.05,5.18-.42,10.61-2.35,7.41-2.65,21-4.53,30.41-6.06s16.71-3.82,23.24-5.47,17.65-2.29,22.24-2.29,10.29-5.88,7.59-10.12-3.76-5.94-6.29-15.76-5.82-20.06-12.29-36.76c-6.47-16.71-14.71-30.12-23.35-31.24s-11.53-4.12-18.76-4.12-27.29,4.18-37.65,11.12-21.02,19.89-21.41,36.35c-.47,19.76,7.18,26.94,6.82,33.29s1.18,10.97,4.35,18.29c3.18,7.32,8.74,17.62,10.41,18.18,1.21.4,2.31-1.27,2.87-2.3Z"/>
      </g>
      <g>
        <path class="cls-1" d="m922.56,605.53s-3.76-6.82-3.76-23.18,5.65-32.59,5.65-51.41,1.88-43.18,1.88-62.94,3.06-41.88,3.06-64.24,4.24-52.71,4.24-64.71c0-9.06,1.41-14.03,2.1-15.92.24-.66.37-1.36.37-2.06v-21.9s-3.28,9.56-4.46,13.21c-.92,2.86-1.93,4.24-4.76,3.63.2,15.77-1.87,47.21-5.07,77.86-3.35,32.12-11.71,204.71-11.71,204.71-3.88,7.06-5.18,28.24-5.18,28.24-2.37,5.06-4.01,9.9-5.12,14.54h0s7.57-24.66,22.76-35.83Z"/>
        <path class="cls-1" d="m899.81,641.36h0c-3.94,16.52-1.13,30.51-.77,42.64.33,10.8-1.28,35.16-3.16,63.88h2.69s.29-22.76,1.18-34.41c.88-11.65,3.76-29.47,3.29-31.47l1.72-1.72.53-.53.03-.03s-7.33-8.17-5.51-38.36Z"/>
        <path class="cls-1" d="m947.31,660.26c-2.04,2.04,5.47,5.12,10.85,6.26s16.5,4.15,19.59,5.82,15.97,2.29,27.26-.35,34.24-10.59,34.24-10.59c0,0-11.21-2.65-24.53-5.29s-23.03-4.85-39.88-3.35-26.85,6.82-27.53,7.5Z"/>
        <path class="cls-1" d="m969.81,647.03c20.86-3.55,44.7,1.05,70.41,10.76,0,0-7.05-3.81-4.5-7.94,1.85-3,7.68-2.74,7.68-2.74,0,0-9.89-13.56-31.5-12.97-22.76.62-42.09,12.88-42.09,12.88Z"/>
        <path class="cls-1" d="m1238.22,744.24s-2.59,8.94-4.35,17.29-10.12,23.18-10.12,23.18c0,0,2.47-15.18,5.06-22.82s9.41-17.65,9.41-17.65Z"/>
        <path class="cls-1" d="m1246.22,746.58c1.8.99,16.71-6.82,9.76-25.29,0,0-11.06,24.57-9.76,25.29Z"/>
        <path class="cls-1" d="m1256.45,705.29s7.41,1.76,3.41,10.24c0,0,4.24-3.6,4.24-11.72,0,0,23.53-62.17,34.47-90.17,9.59-24.53,12.71-38.71,19.06-48.82s17.18-16.71,17.18-29.41c0,0-8-1.29-5.41-17.65,0,0-13.29,39.88-18.47,55.53s-17.06,48.82-26.82,72.71-27.65,59.29-27.65,59.29Z"/>
        <path class="cls-1" d="m1405.28,565.65s-24.94-3.88-25.29-1.65,15.41,3.18,25.29,5.06,16.35,5.65,16.35,5.65c0,0-3.88,2.71-1.41,4s6.06,7.01-5.88,4.59c-26.71-5.41-44.47-21.29-49.88-21.76,0,0,9.65-5.06,40.82,4.12Z"/>
        <path class="cls-1" d="m1136.34,954.35c1.83,1.83,8.71-3.06,18.71-19.18s25.53-39.41,22.71-42.24-13.19,19.18-20.54,30-21.7,30.59-20.87,31.41Z"/>
        <path class="cls-1" d="m1096.45,899.88s.59,13.53,10.82,14.47c0,0-14.71,3.76-10.82-14.47Z"/>
        <path class="cls-1" d="m1042.69,1099.69v.74c0,1.39-.83,2.64-2.11,3.19-4.55,1.93-15.11,6.27-18.13,6.27-3.88,0-32.24-2.94-32.24-2.94,0,0,18.35-3.41,26.24-7.65,5.24-2.82,8.76-4.9,10.54-5.99.87-.53,1.92-.65,2.88-.33l10.43,3.42c1.42.47,2.39,1.79,2.39,3.29Z"/>
        <path class="cls-1" d="m983.04,1111.18c20.83,6.77,38.36,7.46,52.12,1.18,0,0-12,9.53-24.71,9.53s-27.41-10.71-27.41-10.71Z"/>
        <path class="cls-1" d="m724.69,1109.47c0,1.94,6.88,3.6,27.09-4.59,0,0-27.09-.18-27.09,4.59Z"/>
        <path class="cls-1" d="m628.51,1099.41s-1.06-18.18,6-23.29c0,0-7-40.35-15.71-76.59-8.71-36.24-11.53-61.41-19.29-99.29-7.76-37.88-16.53-77.71-19.53-101.71,0,0-4.06-1.59-6.18-4.59,0,0,1.47,35.47,8.29,56.41,6.82,20.94,17.99,45.78,23.76,94.82,6.12,52,20.94,109.18,20.94,109.18,0,0-1.53,39.29,1.71,45.06Z"/>
        <path class="cls-1" d="m586.81,785.88s21.18,20.59,32.24,15.88c0,0,0,17.41,21.18,15.06l11.06,19.41s-14.47-8.24-25.18-14.82c-10.71-6.59-30.35-17.41-39.29-35.53Z"/>
        <path class="cls-1" d="m625.16,800.12c14.08,6.04,29.83,7.34,44.74,3.88-2.59,1.03-5.56,1.97-8.31,2.55-12.3,2.43-25.79.33-36.43-6.43h0Z"/>
        <path class="cls-1" d="m625.78,806.74c3.97,2.04,7.78,3.67,12,5.02-4.45.49-9.19-1.55-12-5.02h0Z"/>
        <path class="cls-1" d="m573.81,710.35c.62,18.77,4.9,36.04,10.65,52.71l-10.65-52.71Z"/>
        <path class="cls-1" d="m564.1,713.65s2.24,28.47,8.82,41.29v10.35s-11.18-30.94-8.82-51.65Z"/>
        <path class="cls-1" d="m632.92,747.88s6.93-6,9.65-.47c0,0,2.35,1.18,12.35-3.06s23.06-9.18,23.06-9.18c0,0-31.18-1.76-45.06,12.71Z"/>
        <path class="cls-1" d="m554.92,706.59s.71-9.18,6-14.47c0,0-4.59-23.29-8.65-33.71-4.06-10.41-3.18-18-3.18-18l3.11,1.55-4.46-12.55c-.25-.63-.81-1.09-1.48-1.21l-1.9-.37c-.94-.18-1.62-1.01-1.62-1.96v-6.28c0-.24-.04-.47-.12-.69-1.32-3.58-13.01-35.44-17.17-52.08-4.41-17.65-12.35-42.53-17.82-61.06-5.47-18.53-12-46.06-12-46.06,0,0,3.18,36.88,7.94,55.59,4.76,18.71,15.71,41.47,25.94,87.71s19.41,76.24,25.41,103.59Z"/>
        <path class="cls-1" d="m856.98,969.94s2.12,2.59,8.35,1.94c0,0,1,5.47,18.06,2.18,0,0-5.26,12.06-12.68,12.06-10.32,0-13.74-16.18-13.74-16.18Z"/>
        <path class="cls-1" d="m895.42,921.79s2.82,13.06-3.71,22.59c0,0,3.53-16.06,3.71-22.59Z"/>
        <path class="cls-1" d="m893.22,953.74l-5.29,13.15s.44-9.88,5.29-13.15Z"/>
        <path class="cls-1" d="m1531.16,1161.35s24.71-32.91,32.47-44.65c11.61-17.54,12.71-19.85,19.5-29.21s19.85-31.32,19.85-31.32c-11.83,15.14-22.95,27.53-32.47,33.62,2.48,12.6-17.29,36.53-39.35,71.56Z"/>
        <path class="cls-1" d="m1548.63,1070.38l11.47-4.59c-2.74-14.74,1.73-20.04,8.65-14.12-10.76-37.72-28.35-50.71-46.18-53.56,3.95,7.32,2.74,12.03-1.76,15.06,22.87,14.75,36.47,30.69,35.76,48.47l-1.88,2h3.18l-9.24,6.74Z"/>
        <path class="cls-1" d="m1495.63,1038.35s-7.41,32.03,15.29,40.82c-35.06,10.71-25.29-28.35-15.29-40.82Z"/>
        <path class="cls-1" d="m1322.22,1082.94s9.41,25.76,21.29,42.71,12.12,24.35,19.88,30.94c0,0-2.82,1.41-10.35-10s-12.71-21.29-18.59-31.88-9.76-21.41-12.24-31.76Z"/>
        <path class="cls-1" d="m1333.63,1023.53s-6.82,34.24,15.65,40.47c0,0-22.02,3.63-25.41-7.06-1.01-3.19,2.47-7.18,2.47-7.18,0,0,2.82-17.65,7.29-26.24Z"/>
        <path class="cls-1" d="m1355.39,1087.59s13.24-10.41,31.06-31.41,33.53-47.38,47.74-59.03h-2.91s-18.97,19.85-29.38,31.06-15.88,14.82-24.18,26.29-22.32,33.09-22.32,33.09Z"/>
        <polygon class="cls-1" points="1559.61 844.57 1561.37 845.42 1585.63 812.41 1559.61 844.57"/>
        <path class="cls-1" d="m1524.43,893.33l2.61,1.49s-37.88,48.24-46.82,55.29c0,0,7.72-9.6,11.32-14.47,5.29-7.15,32.89-42.31,32.89-42.31Z"/>
        <path class="cls-1" d="m1448.75,1438.76l-2.18,157.71-2.35,8.24v-74.35c0-17.18-1.88-40.71-1.88-57.18,0-23.29,6.41-34.41,6.41-34.41Z"/>
        <path class="cls-1" d="m1441.16,1642.94l4.38-13.41s-1.56,97.06-15.68,165.88-27.71,112.59-32.82,112.59c0,0-6.35,12.53-4.06,25.41,0,0-24.06-1.88-24.06-40s12.94-63.29,21.65-90.82,12.24-47.53,20.24-72.24,16.24-45.65,16.24-45.65c0,0-2.32,51.26-13.41,101.65-14.35,65.18-28.5,87.67-30.35,104.53-.59,5.35,7.88,9.24,10.47,6.76s-2.94-4.94,2.71-15.06,22.59-60.71,31.53-112.94,13.18-126.71,13.18-126.71Z"/>
        <path class="cls-1" d="m1395.98,1952.82s-5.47-3.35-10.76-2.65c0,0-4.53-7.06-16.29-7.24,0,0-12.47-30.71-12.47-62.12s17.29-69.88,41.65-118.94c0,0-16.06,54.18-24.53,70.24s-17.78,60.96-9.35,87.52c5.76,18.18,24.62,23.04,24.62,23.04,0,0,7.85,5.03,7.15,10.15Z"/>
        <path class="cls-1" d="m1070.92,2146.35l-83.29,2.94s19.33-16.58,46.71-15.18c25.29,1.29,35.88,7.59,35.88,7.59,0,0-5.41.65.71,4.65Z"/>
        <path class="cls-1" d="m892.78,2143.68l31.5,4.06s-.88-5.82-5.74-6.62-8.29-.35-7.5-1.94,2.91-1.54.09-3.35c-1.65-1.06-3.35-2.03-3.35-2.03,0,0-1.17,10.21-6.62,9.09-2.56-.53-1.94-7.85-1.94-7.85,0,0-5.47-.26-4.41-3.71h-6.44s-.26,2.56-3.09,2.47-9.09-.97-9.09-.97l12.18,6.09s1.19-3.19,3.53-4.06,6.09,4.94.88,8.82Z"/>
        <path class="cls-1" d="m864.34,2142.47h-7.18c0-4.13-16.16-11.4-38.47-19.88,0,0,18.71.12,42.12,6,0,0-2,11.18,3.53,13.88Z"/>
        <path class="cls-1" d="m736.22,2048.47c-22.79-72.92-51.64-131.69-88-172.94,11.76,9.41,32.24,36.12,32.24,36.12-16-26-46.12-53.18-46.12-53.18,0,0,38.59,32.94,42.82,26.82,7.19-10.39-29.06-31.65-44.47-42-15.41-10.35-28.59-26.35-28.59-26.35l52.12,35.53s-8.66-10.01-22.35-18.24c-28.85-17.33-39.65-27.06-39.65-27.06l4.82.24c-8.94-2.94-21.88-19.41-21.88-19.41,0,0,49.94,32.47,75.53,55.24,25.59,22.76,48.18,48.71,48.18,48.71l3.53-2.65,16.94,26.65c-18.18-43.94-57.35-77.29-57.35-77.29l-3.88-.53c-11.82-17.65-81.71-57-82.85-59.47s-7.85-5.29-19.68-12.53-36.71-30.53-36.71-30.53l8.12,6.53,1.94-1.76,24.18,18.35-21.53-27.18-4.41-6.53s-2.47,2.47-4.76-.18c-2.29-2.65.18-6,.18-6l-9.71-12.35-2.29,6s10.59,3.71,6.88,6.53c-3.71,2.82-8.82-4.59-8.82-4.59-4.94,4.24-10.06-2.47-33.18-21.53-23.12-19.06-28.59-37.59-28.59-37.59l-4.59,1.94c9.71,15.18,36,44.29,36,44.29-10.59-9.53-34.94-40.59-34.94-40.59-23.29-7.41-24.71-8.47-51-34.59s-34.59-58.06-34.59-58.06c0,0,10.06,25.41,33.71,53.12,23.65,27.71,40.41,36.53,45.18,32.29s-2.29-6.35-2.29-6.35c2.81.58,3.33-.86,3.23-2.28-.08-1.17-.61-2.27-1.4-3.14-6.78-7.33-4.65-16.99-4.65-16.99,0,0,7.41,3.71,10.06-2.65,2.65-6.35-9.53-15.71-12-12.71s5.82,8.65,5.82,8.65c0,0-9.53-.18-10.24,7.59-.71,7.76,3.88,15.53,3.88,15.53-9-1.76-17.29-4.94-42.35-35.65-25.06-30.71-39.71-71.29-46.24-95.12-6.53-23.82-27.53-70.59-49.76-102.35s-23.65-42.88-23.65-42.88c-18.35,1.76-46.41-39.53-46.41-39.53,0,0,8.65,21,20.65,34.94,12,13.94,25.24,24.18,34.59,37.06s31.76,51.18,46.06,81.18,13.94,41.65,28.41,82.41,31.06,59.29,50.47,79.94c19.41,20.65,35.47,33.35,51.53,48.18,16.06,14.82,39.71,41.47,57.35,62.47,17.65,21,24.88,26.47,38.47,40.76,13.59,14.29,30.35,31.59,58.59,61.41,28.24,29.82,57.88,68.29,78.71,109.41,20.82,41.12,17.47,52.76,36,90.18,13.96,28.18,22.59,37.06,22.59,37.06-14.18-43.53-9.82-42.35-9.82-42.35Zm-65.62-170.53c-5.77-1.54-10.59-6.73-12.5-12.29,5.18,3.04,9.15,7.35,12.5,12.29Zm-228.71-210.47c3.41,3.6,6.27,7.6,8.56,12-3.41-3.6-6.27-7.61-8.56-12Zm85.97,84.65c5.23,3.23,9.9,7.34,13.76,12.12-5.23-3.23-9.9-7.34-13.76-12.12Zm25.18,22.12c13.1,11.1,25.5,22.94,37.18,35.53-13.11-11.09-25.5-22.94-37.18-35.53Zm60.91,72.13c24.84,26.21,47.56,54.73,66.18,85.72,1.22,2.08,2.43,4.17,3.62,6.26-20.98-32.3-44.97-62.57-69.79-91.99Z"/>
        <path class="cls-1" d="m173.22,1238.65c24.88,25.06,36.79,48.44,36.79,48.44,1.94,12.35,7.32,22.85,7.32,22.85-5.65-16.41-2.12-35.65-2.12-35.65,0,0-30.35-30.35-37.76-36.88-7.39-6.51-33.06-30.25-57.71-64.71h-4.13c15.91,24.49,40.39,48.6,57.61,65.94Z"/>
        <path class="cls-1" d="m245.22,1303.76s2.47,20.38,20.21,28.32c0,0-3.53,5.38,1.24,9.09l-.56,6.35s-5.18-2.47-5.29-7.06c0,0-14.24-9.29-11.53-18.82,0,0-5.98-4.48-4.06-17.88Z"/>
        <path class="cls-1" d="m286.81,1356s7.76,17.88,24.47,44c16.71,26.12,39.41,72.12,39.41,72.12,0,0-3.65-1.76-5.06-6.12s-4.59-11.88-12.82-26.12-18.82-34.24-26.24-44.59c-7.41-10.35-18-24.94-19.76-39.29Z"/>
        <path class="cls-1" d="m452.79,1623.42h0c.7-.76,1.88-.79,2.62-.07,1.78,1.74,4.53,5.18,4.04,9.53-.71,6.35-3.18,8.82-10.76,6.71,0,0,8.4-.84,3.73-14.31-.22-.64-.09-1.35.37-1.85Z"/>
        <path class="cls-1" d="m165.63,1101.97c8.05,3.79,15.63,8.56,22.5,14.21-8.05-3.78-15.62-8.57-22.5-14.21h0Z"/>
        <path class="cls-1" d="m675.87,1896.94c12.57,15.48,22.68,32.99,30.28,51.41,1.09,2.63,2.01,5.34,3.02,8-1.13-2.62-2.17-5.27-3.38-7.84-8.12-18.17-18.15-35.52-29.92-51.57h0Z"/>
        <path class="cls-1" d="m706.34,1912.94c8.82,12.29,15.54,25.95,21.62,39.75,5.91,13.9,10.93,28.18,14.62,42.83-10.72-27.73-22.12-56.46-36.24-82.59h0Z"/>
        <path class="cls-1" d="m987.72,370.24c11.03,1.32,12.44.88,13.06,7.32,18.39,4.64,31.89,2.44,41.56-5.12l-54.62-2.21Z"/>
      </g>
    </g>
    <g>
      <path class="cls-2" d="m96.39,1056.35c0-2.94-9.71-6.47-16.29,1.65-6.59,8.12.61,20.21,4.35,20.1,3.18-.09,10.47-6.39,13.37-4.37,1.76,1.24,2.39,11.09-1.54,12.88-6.97,3.18-14.38-1.15-16.15.97s2.21,10.24,10.59,10.24,16.94-7.76,15.79-18.35-5.65-18.44-11.82-17.21c-3.2.64-6.71,4.5-7.94,3.62s1.06-4.15,4.5-5.29,5.15-2.82,5.15-4.24Z"/>
      <path class="cls-2" d="m117.16,1079.18c-5.54,1.85-6.24-.59-6.24-5.41s.18-31.97.18-31.97l-3.57-.38c-1.4-.15-1.99-1.88-.96-2.84,2.01-1.89,7-3.61,9.91-5.25,5.09-2.86,10.56-5.03,9.93.02-.47,3.73-10.13,8.81-10.29,11.9s1.16,26.35,1.16,26.35l9.65-7.42c1.48-1.14,3.61-.83,4.7.69h0c.96,1.33.79,3.15-.38,4.3-3.03,2.97-8.98,8.31-14.09,10.02Z"/>
      <path class="cls-2" d="m115.25,1053l6.67-3.03c1.56-.71,3.39.03,4.02,1.62h0c.51,1.29.07,2.76-1.06,3.55l-11.03,7.73,1.41-9.88Z"/>
      <path class="cls-2" d="m141.28,1023.3c-.75-.34-1.61.19-1.64,1.01-.18,5.29-.84,24.98-.84,30.16,0,6,.29,15.29,5.47,11.41s6.57-5.22,20.58-11.07c1.18-.49,1.95-1.64,1.95-2.92h0c0-2.06-1.93-3.56-3.93-3.07-5.74,1.43-11.95,3.68-18.33,6.23,0,0,3.96-28.49-3.26-31.75Z"/>
      <path class="cls-2" d="m174.15,1010.74h0c1.49,0,2.69,1.2,2.69,2.69v1.81l12.26-2.61c1.72-.37,3.41.76,3.73,2.49h0c.28,1.49-.55,2.95-1.95,3.51-3.8,1.5-7.8,2.65-12.01,3.4v9.71h9.22c1.49,0,2.69,1.2,2.69,2.69h0c0,1.49-1.2,2.69-2.69,2.69h-9.04v9.88l17.41-3.35c1.91-.37,3.68,1.1,3.68,3.04h0c0,1.53-1.12,2.82-2.63,3.06-5.89.95-12.06,1.51-18.46,1.75v.71c0,.83-.67,1.5-1.5,1.5h-1.52c-1.81,0-3.29-1.43-3.35-3.24l-1.21-36.95c-.05-1.52,1.17-2.78,2.69-2.78Z"/>
      <path class="cls-2" d="m230.46,1021.29h0c-.44,1.68-2.14,2.71-3.84,2.32-2.06-.47-4.74-1.17-6.64-2.03-3.53-1.59-11.47-3.26-11.47,8.65s6.53,14.65,10.59,14.12c2.59-.34,6.08-1.75,8.27-2.74,1.26-.57,2.74-.29,3.72.69h0c1.29,1.29,1.3,3.36.04,4.68-2.21,2.34-6.37,5.39-13,5.39-10.76,0-17.21-12-17.21-22.5,0-11.38,9.26-16.85,16.1-16.85,3.28,0,6.61,2.47,11.53,4.46,1.5.61,2.32,2.24,1.9,3.8Z"/>
      <path class="cls-2" d="m242.69,1019.48h0c-.51,1.49.21,3.12,1.66,3.74l28.47,12.09c1.75.74,3.78-.09,4.5-1.85h0c.67-1.62,0-3.47-1.54-4.32-10.14-5.58-20.02-9.55-29.6-11.62-1.49-.32-2.99.51-3.48,1.95Z"/>
      <path class="cls-2" d="m249.89,1023.09l-7.89,31.79c-.47,1.87.7,3.77,2.58,4.19h0c1.79.41,3.58-.66,4.08-2.42l8.73-30.74-7.5-2.82Z"/>
      <path class="cls-2" d="m475.02,374.26h0c1.29-1.49,1.11-3.74-.4-5-2.03-1.7-5.36-4.28-10.4-7.67-9.71-6.53-20.59-19.5-20.59-19.5,0,0,20.26,8.72,23.06,4.27s-9.76-26.94-9.76-26.94l28.44,20.1c1.17.83,2.77.69,3.79-.32h0c1.27-1.27,1.12-3.38-.33-4.45l-37.63-27.84c-1.72-1.27-4.1-1.14-5.66.32h0c-1.47,1.37-1.83,3.54-.9,5.32l14.06,26.65-23.55-6.45c-1.37-.38-2.84.01-3.85,1.02h0c-1.49,1.49-1.56,3.91-.13,5.46,12.21,13.3,25.27,25.08,39.06,35.57,1.48,1.13,3.58.89,4.8-.52Z"/>
      <path class="cls-2" d="m502.52,278.9c6.5,0,13.28,4.49,16.85,11.85,4.67,9.62,2.08,20.51-5.77,24.31-1.85.89-3.82,1.32-5.82,1.32-6.5,0-13.28-4.49-16.85-11.85-4.67-9.62-2.08-20.51,5.77-24.31,1.85-.9,3.82-1.32,5.82-1.32m0-7.5h0c-3.2,0-6.26.7-9.09,2.07-11.56,5.6-15.71,21.01-9.24,34.33,4.74,9.77,14,16.07,23.59,16.07,3.2,0,6.26-.7,9.09-2.07,11.56-5.61,15.71-21.01,9.24-34.33-4.74-9.77-14-16.07-23.59-16.07h0Z"/>
      <path class="cls-2" d="m543.53,259.9h0c1.22-.69,2.75-.37,3.58.76,3.59,4.84,12.75,17.88,16.4,29.58l5.49-38.23c.22-1.56,1.56-2.71,3.13-2.71h0c1.87,0,3.33,1.61,3.15,3.48l-4.66,47.07c-.24,2.43-2.14,4.35-4.56,4.63h0c-2.19.25-4.29-.91-5.25-2.89l-18.41-38.08c-.63-1.31-.14-2.89,1.12-3.61Z"/>
      <path class="cls-2" d="m598.23,246.54l-9.53,54.35c-.27,1.52.75,2.97,2.27,3.24l21.55,3.79c1.73.3,3.39-.82,3.75-2.54h0c.36-1.74-.75-3.45-2.48-3.84l-17.69-3.9,3.88-21.99,12.6,2.62c1.68.35,3.33-.73,3.68-2.41h0c.36-1.72-.78-3.4-2.51-3.7l-12.95-2.27,1.29-18.24c5.89,2.14,11.6,3.47,16.96,3.09,1.65-.12,2.92-1.49,2.92-3.14h0c0-1.71-1.36-3.09-3.07-3.14-6.2-.16-12.32-1.19-18.34-3.31-1.04-.37-2.15.31-2.34,1.4Z"/>
      <path class="cls-2" d="m867.16,197.46c-.29,1.32.27,2.68,1.42,3.38,3.12,1.9,9.75,5.66,17.17,8.22,9.59,3.31,22.22,10.25,28.12,13.61,1.72.98,3.89.15,4.52-1.73l11.5-34.11c.38-1.14-.17-2.38-1.27-2.85h0c-1.19-.51-2.56.06-3.04,1.26l-11.6,28.99c-5.57-1.86-11.89-4.83-18.59-8.35l6.26-17.66c.57-1.6-.31-3.35-1.93-3.86h0c-1.56-.49-3.23.37-3.74,1.92l-5.55,16.84c-6.06-1.89-11.32-4.11-15.51-6.78,2.62-10.57,5.96-18.66,10.49-22.66,1.43-1.26,1.47-3.49.17-4.88h0c-1.26-1.36-3.36-1.48-4.77-.28-3.52,2.99-9.56,10.56-13.66,28.93Z"/>
      <path class="cls-2" d="m897.16,148.74h0c0,1.77,1.37,3.24,3.14,3.37,4.65.32,13.46.9,19.45,1.07,8.47.24,17.88.35,23.53,1.76s12.03,1.15,12.15-2.47c.15-4.59-3.44-2.01-3.44-2.01,0,0-16.94-3.28-30.44-3.99-8.84-.46-16.56-.87-20.83-1.1-1.93-.1-3.55,1.44-3.55,3.37Z"/>
      <path class="cls-2" d="m935.5,125.82h0c1.45,0,2.62,1.18,2.61,2.63l-.47,46.64c-.02,1.89-1.55,3.41-3.44,3.41h0c-1.91,0-3.47-1.56-3.45-3.48.16-15.9.83-31.53,2.14-46.82.12-1.35,1.25-2.38,2.61-2.38Z"/>
      <path class="cls-2" d="m1002.63,106.86c-.42-16.91-30.48-17.65-40.63-2.12-.59.9-.45,2.11.33,2.85.92.88,2.36.82,3.23-.11.25-.26.53-.55.84-.84l5.28,40.06c.21,1.61,1.58,2.77,3.14,2.77.16,0,.33-.01.49-.04,1.76-.27,2.96-1.93,2.66-3.68l-2.66-15.41h.01s27.87-1.52,27.31-23.48Zm-32-3.37c3.24-1.87,7.82-3.52,14-3.66,20.12-.47,11.6,24.67-10.53,23.47l-3.47-19.81Z"/>
      <path class="cls-2" d="m1013.39,151.08h0c2.07.84,4.46-.01,5.5-1.99,8.54-16.15,16.18-33.07,21.62-50.73,3.9,14.17,5.03,33.73.39,62.79-.18,1.1,1.1,1.81,1.95,1.09,2.52-2.13,6.34-7.68,7.49-21.99,1.76-22,.35-49.88-8.47-49.88s-23.54,35.86-30.92,55.11c-.85,2.22.23,4.72,2.44,5.61Z"/>
      <path class="cls-2" d="m1023.45,134.65c5.44.48,10.68,2.67,15.74,6.28,1.28.91,3.08.3,3.59-1.18h0c.23-.67.16-1.41-.22-2.02-1.48-2.37-6.13-8.06-16.73-8.19-13.41-.18-2.38,5.12-2.38,5.12Z"/>
      <path class="cls-2" d="m1059.98,164.74h0c.83.6,1.97.48,2.66-.28,6.35-7.04,19.35-26.2,34.06-48.99l-13.71,51.14c-.88,3.28.53,6.75,3.44,8.49h0c2.83,1.69,6.44,1.37,8.91-.81,11.96-10.54,22.39-21.39,29.04-32.12.63-1.01.51-2.31-.24-3.22h0c-1.12-1.35-3.17-1.34-4.29,0-9.47,11.28-19.8,21.75-31.03,31.41l14.16-55.88c.75-2.97-.9-6.01-3.79-7.01h0c-2.58-.89-5.44.12-6.9,2.43l-32.83,52.17c-.56.89-.33,2.07.53,2.69Z"/>
      <path class="cls-2" d="m1150.91,160.15c15.37,9.13,10.95,37.36,1.08,49.23-8.12,9.76-17.01,15.63-28.39,16.42-18.17,1.27-24.65-16.94-26.52-24.32-.44-1.73.44-3.51,2.08-4.23h0c2.04-.89,4.41.23,4.98,2.38,1.17,4.38,3.47,10.78,7.11,14.4,5.09,5.06,19.24,7.44,32.65-5.53,8.39-8.11,11.34-19.9,11.06-27.62-.41-11.07-6.29-18.09-6.29-18.09-11.98,11.8-25.68,23.75-41.04,34.78-1.3.93-3.1.7-4.13-.52h0c-1.12-1.32-.92-3.3.43-4.37,6.85-5.45,26.07-20.74,33.12-26.45,6.52-5.28,11.74-9.62,13.91-11.44.62-.52,1.53-.48,2.1.09h0c.54.54.61,1.39.17,2.01l-2.31,3.25Z"/>
      <path class="cls-2" d="m1315.16,330.35s-9.44,14.21-5.03,26.38,20.65,13.15,25.68,1.15c3.64-8.68,5.78-11.21,9.22-9.52,4.13,2.02,3.6,5.37,1.71,10.74-2.55,7.23-10.67,17.49-21.25,17.93-9.97.42-27.09-8.71-25.97-27.97.74-12.69,8.14-21.54,12.82-25.92,1.99-1.86,5.1-1.74,6.93.27h0c1.6,1.76,1.69,4.43.21,6.29h0c-.8,1.01-2.14,1.4-3.36.98l-.96-.33Z"/>
      <path class="cls-2" d="m1348.17,286.35c-13.71,1.26-23.96,19.49-12.54,38,12.12,19.65,29.12,3.53,29.12,3.53,0,0,11.35-.59,11.82-14.47.52-15.4-14.34-28.35-28.41-27.06Zm16.34,28.14c-.43.17-.73.56-.8,1.02-.31,2.28-2,9.15-11.05,9.73-12.53.79-18.18-30.79.09-29.09,9.82.92,13.58,12.4,14.52,16.03.16.63-.17,1.27-.77,1.51l-2,.8Z"/>
      <path class="cls-2" d="m1380.78,270.04l.2-.08c1.46-.57,3.11-.31,4.31.69,4.48,3.75,15.69,14.17,25.76,31.93v-32.76c0-2.37,1.92-4.29,4.29-4.29h0c2.37,0,4.29,1.92,4.29,4.29v41.78c0,3.41-2.76,6.17-6.17,6.17h0c-2.03,0-3.93-1-5.08-2.68l-18.52-26.97c1.64,10.5,4.76,19.6,9.7,26.96,1.08,1.6.9,3.74-.46,5.1h0c-1.44,1.44-3.76,1.62-5.31.32-6.24-5.2-11.54-19.72-15.68-45.77-.32-1.99.79-3.95,2.67-4.69Z"/>
      <path class="cls-2" d="m1434.1,262.41l3.18,2.12s-5.12,15.53-6,33.18c-.88,17.65-2.47,20.65,8.47,25.41s31.28-11.98,33-32.65c1.76-21.18-30.53-44.47-38.65-28.06Zm10,52.06c-6.25-.02-5.65-4.59-4.24-17.06,1.41-12.47,3.65-31.88,3.65-31.88,0,0,17.41,5.53,18.71,21.88,1.14,14.35-13.06,27.07-18.12,27.06Z"/>
      <path class="cls-2" d="m1505.05,262.57h0c1.32.41,2.1,1.77,1.79,3.12-5.46,23.47-12.18,44.3-19.92,63.02,4.64,1.58,9.5,1.73,14.58.44,1.99-.5,4.07.41,5.02,2.23h0c1.29,2.46.04,5.47-2.6,6.32-6,1.91-12.73,2.02-21.11-1.98h0c-.91,1.38-2.7,1.87-4.19,1.16l-2.16-1.03c-1.8-.86-2.43-3.1-1.35-4.78,7.38-11.46,14-37.62,26.75-67.02.53-1.23,1.91-1.86,3.19-1.47Z"/>
      <path class="cls-2" d="m1491.96,278.52l25.29,8.25c2.34.76,4.87-.4,5.82-2.66h0c1.03-2.46-.18-5.26-2.65-6.24-6.92-2.75-16.26-4.16-26.63-6.28-1.69-.35-3.4.56-4.05,2.16h0c-.79,1.93.23,4.13,2.21,4.77Z"/>
      <path class="cls-2" d="m1495.16,296.94l20.02,17.7c2.12,1.87,2.07,5.18-.09,7h0c-1.81,1.52-4.48,1.42-6.18-.23l-15.86-15.41,2.12-9.06Z"/>
      <path class="cls-2" d="m1510.96,356.6h0c1.48,1.23,3.67,1.04,4.91-.43l29.52-34.88-26.17,44.96c-1.81,3.12-1.55,7.02.66,9.87h0c2.98,3.84,8.51,4.54,12.36,1.58l38.05-29.3c2.31-1.78,2.38-5.25.13-7.12h0c-1.63-1.35-3.97-1.4-5.66-.12l-35.48,26.96c13.01-21.63,24.6-41.84,31.4-57.28,1.3-2.96.2-6.42-2.55-8.12h0c-2.51-1.55-5.75-1.21-7.89.82-16.75,15.81-30.21,32-40.07,48.61-.87,1.47-.53,3.36.79,4.45Z"/>
      <path class="cls-2" d="m1576.62,395.29h0c1.37.72,3.08.41,4.07-.79,2.17-2.62,5.28-8.16.95-15.89-6.09-10.85-28.24-6.93-32.21,14.47-1.59,8.56,7.06,12.18,6.62,16.85s-8.7,12.37-20.38,8.21c-7.42-2.64-8.18-10.37-7.75-15.63.23-2.8-1.97-5.19-4.78-5.19h0c-2.7,0-4.88,2.22-4.79,4.91.28,8.96,3.32,27.06,23.41,27.06,22.94,0,27.21-21.31,22.22-27.29-5.5-6.59-7.51-8.82-.22-16.24,6.66-6.77,14.55-3.07,11.29,5.47-.59,1.55.11,3.29,1.58,4.06Z"/>
      <path class="cls-2" d="m1511.79,476.29h0c1.99,0,3.7-1.38,4.13-3.32l6.06-27.56c14.3,4.53,30.13,5.15,46.45,1.64l-5.38,18.46c-.8,2.74,1.23,5.49,4.09,5.54h0c1.94.03,3.66-1.24,4.21-3.1l6.29-21.27c.19-.65.48-1.27.88-1.81.53-.71,1.08-2.03-.5-3.42-2.91-2.56-7.91-1.09-7.91-1.09-16.94,1.18-35.53,1.18-47.41-5.41,0,0-6.71-3.53-9.41,4.24-2.02,5.81-4.54,23.69-5.68,32.34-.33,2.53,1.64,4.78,4.19,4.78Z"/>
      <path class="cls-2" d="m1553.28,444l-10.83,20.62c-.87,1.65-2.84,2.38-4.57,1.69h0c-1.86-.74-2.77-2.84-2.04-4.7l5.79-14.78,11.65-2.82Z"/>
      <path class="cls-2" d="m1585.95,743.38s.71-13.32-11.12-13.32-21,21.09-7.85,19.76c0,0,4.94,15.53,25.71,31.35,0,0,1.24,4.29,4.65,3.59,3.41-.71,12.18-11.21,12.09-24.79-.09-13.59-9.62-23.38-23.47-16.59Zm-10.59,7.67c-4.13-4.79-6.88-8.28-6.88-8.28,0,0,6.3-7.64,8.47-3.79,2.21,3.92-.1,9.32-1.59,12.08Zm20.65,20.92c-4.52-3.66-9.35-8.47-13.69-13.13,3.01-2.93,12.99-11.94,15.9-5.75,4.49,9.57-2.21,18.88-2.21,18.88Z"/>
      <path class="cls-2" d="m1592.1,717.65c8.83,12.83,17.82,24.18,27.26,34.94,1.16,1.33,3.15,1.55,4.59.53h0c1.53-1.08,1.93-3.19.88-4.74-9.19-13.59-19.37-25.3-29.79-36.38,0,0,8.81-9.1,12.82-1.88,2.35,4.24-2.47,17.76-2.47,17.76l6,4.24h20.83c2.14,0,3.88-1.74,3.88-3.88h0c0-2.1-1.67-3.82-3.77-3.88l-16.94-.48s3.16-11.88-1.29-18.12c-6.47-9.06-19.94-6.07-25.68,5.06-3.07,5.95-2.98,8.61-1.63,9.33,1.14.61,3-.46,5.31-2.51Z"/>
      <path class="cls-2" d="m1629.63,688.79h0c1.03-.45,2.23-.25,3.02.54,1.69,1.65,4.77,5.43,9.07,13.73,3.74,7.23,9.04,14.3,11.83,17.83,1.06,1.35.95,3.27-.27,4.49h0c-1.25,1.25-3.26,1.34-4.6.18-2.86-2.47-7.6-7.3-10.93-14.47-2.91-6.25-7.22-14.34-9.44-18.45-.77-1.42-.16-3.2,1.32-3.85Z"/>
      <path class="cls-2" d="m1671.75,718.09h0c1.46-.78,2.14-2.5,1.61-4.06l-6.85-20.23s11.5,15.51,19.06,12.62c4.77-1.82,5.47-10.59,4.29-19.59-.43-3.29-3.78-10.75-5.55-14.85-.67-1.56-2.46-2.29-4.03-1.65h0c-1.45.6-2.23,2.19-1.81,3.71,2.72,9.73,4.12,18.69,3.44,24.79l-18.6-23.63c-1.39-1.72-3.78-2.25-5.76-1.28h0c-1.95.95-3,3.1-2.55,5.23,1.74,8.23,6.43,28.35,12.29,37.76.94,1.51,2.89,2.01,4.45,1.18Z"/>
      <path class="cls-2" d="m1724.85,660.21c-.26,1.48-1.7,2.44-3.17,2.11-3.64-.82-10.21-1.01-14.29,6.5-5.88,10.82,2.23,23.6,14.35,22.12,10.59-1.29,7.88-9.53,7.88-9.53l-10.89,1.46c-2.24.3-4.31-1.26-4.63-3.5h0c-.28-1.96.87-3.83,2.74-4.48l12.66-4.36c3.74-1.29,7.71,1.25,8.1,5.19l1.77,18c.15,1.52-.82,2.93-2.29,3.34h0c-1.65.46-3.37-.5-3.85-2.14l-.18-.63s-5.06,5.83-16.94,4.65-22.78-15.83-17.39-30.19c6.45-17.22,20.27-13.84,24.83-11.29.98.55,1.51,1.65,1.31,2.75h0Z"/>
      <path class="cls-2" d="m1757.52,710.53h0c1.67,1.24,4.01,1.04,5.45-.47l24.78-26.06,21.41,11.39c1.41.75,3.15.31,4.03-1.02h0c.96-1.45.55-3.4-.91-4.33l-23.66-15.06c-1.43-.91-3.32-.68-4.48.56l-27.15,28.85c-1.69,1.8-1.44,4.66.54,6.13Z"/>
      <path class="cls-2" d="m1769.34,689.62h0c.7-.7,1.77-.91,2.66-.49,5.14,2.42,9.57,5.59,13.2,9.62,1.03,1.14.95,2.9-.14,3.99h0c-1,1-2.57,1.14-3.73.33l-12.02-8.39-.61-2.89c-.17-.79.07-1.6.64-2.17Z"/>
      <path class="cls-2" d="m1827.98,717.76c.01-5-11.24-14.53-36,1.29-13.09,8.36-13.65,30.71,9.88,29.88,23.53-.82,29.18-21.76,22.82-27.65,0,0,3.28.59,3.29-3.53Zm-25.85,22.62c-15.53,1.15-11.54-10.26-6.18-14.56,8.03-6.44,17.75-7.35,17.75-7.35,0,0-1.87,2.94,2.28,5.76,4.15,2.82,2.03,14.97-13.85,16.15Z"/>
      <path class="cls-2" d="m1826.31,763.15c-14.3-3.71-29.38-4.24-36.09-3.87-1.98.11-3.53,1.75-3.53,3.73s1.43,3.5,3.32,3.72l8.21.92-12.96,19c-1.29,1.89-.88,4.45.93,5.84,1.85,1.43,4.51,1.12,5.98-.69l10.58-13.03c15.35,15.18,37.7,12.13,39-2.29,1.15-12.71-14.38-15.26-15.44-13.32Zm2.41,16.28c-6.52.69-17.71.07-19.97-11.78l20,2.39c2.15.26,3.85,1.94,4.13,4.08.34,2.62-1.53,5.03-4.15,5.31Z"/>
      <path class="cls-2" d="m1839.45,806.63h0c0,1.72-1.33,3.15-3.05,3.28-13.15,1.01-28.32.54-42.31-.62l12.44,11.56c1.6,1.49,2.2,3.77,1.55,5.85h0c-.75,2.4-3,4.01-5.51,3.97l-18.07-.32,25.86,23.82c1.78,1.64,1.84,4.43.13,6.14h0c-1.6,1.6-4.19,1.67-5.87.14l-32.06-29.1c-2.39-2.17-2.87-5.73-1.15-8.46h0c1.31-2.08,3.66-3.26,6.11-3.08l15.05,1.12-7.99-8.74c-2.09-2.28-2.37-5.69-.7-8.29h0c1.39-2.15,3.86-3.34,6.41-3.08,8.46.87,28.39,2.68,45.85,2.51,1.82-.02,3.3,1.46,3.3,3.28Z"/>
      <path class="cls-2" d="m1767.02,841.75h0c1.68-1,3.86-.51,4.94,1.12l21.11,31.8c.34.52.52,1.12.5,1.74-.04,1.09.02,2.92.78,4.11.53.83.53,1.89-.1,2.64l-.06.08c-.53.64-1.38.92-2.18.71-11.7-3.02-25.54-8.41-40.33-14.86-1.81-.79-2.59-2.93-1.71-4.7h0c.81-1.61,2.72-2.32,4.39-1.63l32.7,13.57s-16.14-20.3-21.37-29.68c-.96-1.73-.35-3.9,1.34-4.92Z"/>
      <path class="cls-2" d="m1768.7,866.68h0c.96.58,2.21.34,2.89-.55l8.14-10.74c.56-.74.53-1.77-.08-2.48h0c-.66-.77-1.8-.91-2.63-.32l-3.3,2.33-5.72,8.69c-.68,1.04-.37,2.44.7,3.08Z"/>
      <path class="cls-2" d="m1771.25,897.26c-2.82,0-2.56-1.06-12.44-10.5-7.53-7.19-15.93-10.9-19.5-12.26-1.04-.4-2.22-.1-2.96.75-.99,1.14-.85,2.87.32,3.82l7.23,5.93-12.79,8.08c-1.88,1.19-2.4,3.69-1.15,5.53,1.15,1.69,3.41,2.22,5.19,1.2l10.51-5.99c.18,20.21,10.59,32.29,21.98,21.62,11.39-10.68,3.61-18.18,3.61-18.18Zm-6,9.22l-2.93,3.09c-1.56,1.65-4.28,1.19-5.24-.88-1.41-3.03-2.87-8-2.68-15.41l10.54,8.5c1.46,1.17,1.6,3.34.31,4.7Z"/>
      <path class="cls-2" d="m1754.49,929.46l-24.94-20.26c-1.37-1.11-3.36-.99-4.58.28h0c-1.24,1.29-1.27,3.32-.06,4.64,6.11,6.68,13.44,12.6,22.34,17.55,0,0-8.17,5.47-17.97.21s-7.21-22.88-5.69-29.63c.34-1.51-.36-3.06-1.73-3.8h0c-1.7-.92-3.81-.28-4.71,1.43-3.23,6.17-8.86,20.69,1.24,33.28,12.54,15.63,27.93,10.52,36.49-.42.8-1.02.61-2.49-.39-3.3Z"/>
    </g>
  </g>
</svg>