<?xml version="1.0" encoding="UTF-8"?>
<svg id="b" data-name="Ebene_2" xmlns="http://www.w3.org/2000/svg" width="1073.725" height="1011.614" viewBox="0 0 1073.725 1011.614">
  <g id="c" data-name="Layer_1">
    <path d="M1073.598,288.412c-.6-22.8-3.1-32.7-13-52.1-35.3-69.2-143.3-132.9-288.3-170-9.9-2.6-19.8-5-22-5.5-2.2-.4-10.7-2.3-19-4-16.2-3.5-25.5-5.3-38-7.5-13.1-2.3-18.6-3.4-19.7-4.1-.9-.6-7.8-1.4-27.6-3-7.2-.7-7.3-.7-9.2-4.5-1.1-2.1-2-4.6-2-5.5,0-3.1-4-8.1-7.7-9.7-2.1-.9-10.3-3.6-18.3-6-22.2-6.8-25.5-7.7-27.6-7.7-1.1,0-3.5-1.1-5.5-2.4-7-4.8-10.9-5.9-22.9-6.3-8.3-.3-12.1,0-13.6.9-1.1.7-3.6,2.3-5.5,3.5-1.9,1.3-3.8,2.3-4.4,2.3-.5,0-5.9.7-12,1.5-12.3,1.7-18.9,3.1-31.8,6.9-4.8,1.4-11.1,2.6-14,2.6-5.5,0-7.4,1.2-13.2,8.5-2.6,3.4-1.7,3.3-45,5.4-11,.5-22.9,1.4-26.5,2s-9.6,1.1-13.5,1.1-11,.7-16,1.5c-4.9.8-11,1.5-13.4,1.5s-8.6.6-13.5,1.4c-5,.8-14.3,2.2-20.6,3.1-18.2,2.7-27.8,4.4-51,9.1-4.1.8-9.3,1.9-11.5,2.4-2.2.6-8,1.9-13,3.1-22.8,5.2-51.3,13.9-75,22.6-6.6,2.5-14.8,5.8-18.3,7.4-3.5,1.6-6.6,2.9-7,2.9-1.7,0-33,16.2-43,22.2-23.5,14.2-35.6,23.5-50.8,39-20.2,20.5-31.1,38.4-37.3,60.8-2.7,9.6-3.7,29.2-2.2,42.2,2.2,19.7,12.2,42.4,27.3,61.9,14,18.3,17.5,22.3,26.4,31.4,28.4,28.7,67.8,60.3,104.4,83.5,35.2,22.4,85.4,47.7,124,62.5,5.2,2,11.1,4.2,13,5,10,4,43.4,14.8,56.8,18.5,3.5.9,4.6,1.8,5.8,4.5.7,1.8,3.5,6.2,6.2,9.7,2.6,3.5,9.2,13.5,14.7,22.3,5.4,8.8,13.5,21.4,17.9,28,7.3,10.9,8,12.5,8,17,.1,4.8-.3,5.6-9.4,17.8-5.2,7-11.5,15.7-14,19.2-5.4,7.7-22.8,31.5-32,44-12,16.2-27.3,37-36,48.9-6.8,9.4-9.3,12.1-12.7,13.6-4.7,2.1-6,4.2-11.8,19-12.9,33-18.7,47.7-19.5,49.5-.5,1.1-2.4,6-4.4,11-1.9,4.9-6.8,17.5-10.9,28-4.2,10.4-9.4,23.9-11.6,30-2.3,6-4.5,11.9-5,13s-2.2,5.1-3.6,9c-11.6,30.4-22.7,58-23.9,59.3-.7.7-4,1.7-7.5,2.3-8,1.5-11.5,4.2-11.5,9.3,0,2.4.7,4.4,2.2,5.9,2.1,2.1,3.1,2.2,17.5,2.2,8.4,0,24.7.6,36.3,1.4,18.6,1.1,21.5,1.1,24.7-.3,5.7-2.4,7.2-9.1,3-13.8-.8-.9-1.2-2.2-.8-2.8.4-.6,14.7-8,31.8-16.4,17.2-8.4,52.7-26,79-39.1,40.1-19.9,48.1-23.5,49.2-22.4.7.8,6.1,17.6,11.9,37.4,9.9,33.4,14.9,50,18,60,2,6.3,1.7,6.5-10,6.5s-13.7.7-15.9,5c-2.1,4.1-1.9,5.5,1.4,9.2,2.9,3.3,3,3.3,14.3,3.9,6.2.3,20.1,1.2,30.8,1.9,10.7.6,23.3,1,27.9.7,7.1-.4,8.7-.8,10.8-2.9,5-5.1,2.1-12.6-5.6-14.8-2-.5-8-1-13.3-1s-9.9-.4-10.3-.9c-1-1.7,30.8-96,32.6-96.6.9-.3,4.7.9,8.5,2.6,3.8,1.7,8.7,3.9,10.9,4.9s6.5,2.9,9.5,4.3c3,1.4,10.7,4.8,17,7.7s14.8,6.7,18.8,8.6c4,1.9,7.4,3.4,7.7,3.4.2,0,3.7,1.5,7.7,3.4,9.5,4.5,49.9,22.6,50.3,22.6.2,0,4.1,1.7,8.7,3.9,4.6,2.1,12.6,5.7,17.9,8,5.3,2.3,10.5,4.8,11.5,5.5,1.7,1.3,1.7,1.5,0,4-2.6,4-2.4,8.3.6,11.3,2.2,2.1,3.8,2.6,12.4,3.3,13,1.2,35.2,1.2,43.3,0,8.2-1.1,11.1-3.7,11.1-9.5,0-3.2-.6-4.7-2.5-6.5-2.4-2.3-3.2-2.4-12.5-2.2-10.8.3-10,.8-11.5-6.6-.4-1.8-1.3-4.5-2.1-6s-1.4-3.3-1.4-4c0-.6-1.8-6-3.9-12-8.8-24.1-30.1-84.8-40.6-115.7-1.3-3.9-5.1-14.9-8.5-24.5-3.3-9.6-7-20.1-8-23.2-1.1-3.2-2-7.9-2-10.5,0-6-2.3-10.4-10.5-20.2-10.3-12.3-18.4-22.1-29-35.1-5.5-6.8-14.7-18-20.5-24.9-35.5-42.8-50.5-61.6-50.8-63.7-.3-2.1,2.9-8.6,15-30.4,4.4-8,11.4-21.2,17.3-32.8,3.1-6.2,6.5-11.7,7.5-12.2s12.3-1.4,25.2-2c12.8-.5,26.9-1.4,31.3-1.9,4.4-.6,14.1-1.8,21.5-2.6,16.9-2.1,34.3-4.9,53-8.5,24.4-4.8,38.6-8.3,69-17,14.1-4.1,53.1-18,65.5-23.5,71.7-31.4,123.6-65.7,171.1-113,10.8-10.7,18.4-24.8,20.6-28.2,5.7-8.8,13.1-26.3,15.8-36.7,2-8,2.1-10.7,1.8-27h0ZM554.798,66.813c.6-3.6,1.3-9.7,1.6-13.5,1-10.2,1.5-11.1,6.6-11.9,5.3-.8,13-4.3,18.3-8.5,4.2-3.2,8.3-3.9,10.3-1.9,1.5,1.5,1.6,13.6.1,19.2-5.6,21.8-13.9,33.1-29.6,40.8-5.7,2.7-8.8,3.7-9.5,3-.9-.9-.1-10.9,2.2-27.2h0ZM536.598,215.712c.1-4.1.7-9.9,1.2-12.9s1.2-8.2,1.5-11.5,1-8.9,1.5-12.5,1.6-12.8,2.5-20.5,2.3-18.1,3.1-23.1,1.4-10.9,1.4-13.1.6-4.7,1.3-5.7c1.3-1.8,6.1-3.3,11.1-3.5l2.9-.1-.7,11.7c-.4,6.5-1.2,26.2-1.7,43.8-1.4,44.1-2.3,60.2-3.1,61.1-.4.4-2.6-.1-4.7-1.1-2.2-.9-6.8-2.5-10.3-3.5l-6.3-1.7.3-7.4h0ZM519.798,354.412c0-.9,2.6-1.5,9.8-2,5.3-.3,11.1-1,12.7-1.5,4.5-1.4,6.5-1.3,6.5.3,0,.8-2.1,2.4-4.6,3.7-7.1,3.4-24.4,3.1-24.4-.5ZM520.798,393.212c0,.9-3.9,1.3-5.1.5-1-.6-.4-.9,1.9-.9,1.7,0,3.2.2,3.2.4h0ZM544.798,392.812c4.1-1.3,7.2-1.1,6.8.2-.6,1.7-3.3,2.2-6.6,1.2l-2.7-.7,2.5-.7ZM541.898,332.212c-6.4,1.9-17.2,2.1-18.9.4-1.5-1.5-1.6-7.5-.1-11.7l1.1-3.1,8.1-.1c4.5,0,10.7-.7,13.7-1.4,7.4-1.7,8.3-1.5,9.3,2.2,2,6.9-1,10.1-13.2,13.7h0ZM537.998,286.012c4.8-.6,10-1.8,11.5-2.6,3.8-2.1,5.1-2,5.8.5,1,3-.2,8.4-2.3,10.2-3.3,3-10.2,5-17.7,5.1-4,0-7.7-.2-8.1-.6-1.2-1.2-.5-9.1.9-10.4.6-.6,5.1-1.6,9.9-2.2h0ZM532.798,246.012c1.2-2.8,4.9-2.9,10.7-.1,4.8,2.3,9.3,7.1,9.3,9.9,0,5.4-18.6,13.7-21.7,9.7-1.2-1.4.1-15.9,1.7-19.5ZM504.398,28.912c9.9-2.6,10.6-2.5,14.5,1.5,1.8,2,6.2,5,9.7,6.5,3.6,1.7,6.2,3.6,6.2,4.4,0,.9-1.1,3.3-2.4,5.4-2.4,3.7-3.7,9.4-7.1,30.6-2,11.9-2.4,13.5-3.5,13.5-1.4,0-15.8-16.9-18.5-21.7-4.6-8.3-7.6-18.4-8.2-27.3-.7-10.1-.6-10.3,9.3-12.9ZM152.898,387.613c-40.6-20.6-67.3-39.3-92.5-64.9-22.6-22.8-35.5-45.4-40-69.8-2.1-10.9-2-18.6.3-29.7,5.8-27.3,22.2-51,52.1-74.9,7.9-6.4,24.1-17.5,25.4-17.5.3,0,3.5-1.8,7.1-4,19.9-12.2,57.2-28.1,90-38.4,8.3-2.6,16.1-5.1,17.5-5.6,20.1-6.5,73.4-17.5,108-22.4,48.5-6.8,121-11.9,121-8.5,0,1.1-5.1,9.5-28.9,47.7-14.8,23.8-14.1,22.6-21.1,33.6-6.8,10.7-11.7,18.7-24.3,39.1-5.4,8.8-10.3,16.9-11,17.9-.7,1.1-4.2,6.7-7.9,12.5-15.7,25-36.2,57.9-46.4,74.6-9.8,16-13.5,20.9-21.1,27.5-1.5,1.3-2.3,3-2.3,5.2,0,5.8,1.1,6.9,19.4,18,11.3,6.9,17.7,6.7,25.1-.8,3.7-3.7,3.7-3.8,3.1-10l-.6-6.2,12.8-21.4c12.9-21.4,26.1-43.4,59.2-99.3,9.8-16.5,26.9-45.2,37.9-63.8,11.1-18.6,21.1-35.4,22.2-37.5,1.2-2,5.5-9.1,9.5-15.7,4.1-6.6,7.8-12.7,8.3-13.5,1.6-2.9,3.9-2.3,4.6,1.2,1.3,6.2,10.3,23.2,15.5,29.2,6.7,7.7,7.4,9.2,6.1,12.4-.5,1.5-1.3,4.7-1.6,7.2s-1,6.7-1.5,9.5c-.5,2.7-1.6,9.2-2.5,14.2-.8,5.1-2.2,13.5-3.1,18.5-.8,5.1-2.1,12.9-2.9,17.3-.7,4.4-2.1,12.5-3,18s-2.1,12.4-2.7,15.3c-.5,2.9-1.4,7.9-1.8,11-1.2,7.5-3.5,21.6-5.4,32.2-.8,4.7-2.9,16.5-4.5,26.3-1.7,9.7-4.4,25.7-6.1,35.5-1.7,9.7-3.5,20.2-4,23.2-1.3,8.3-6.8,39.7-8,46.4-2,10.4,0,14.2,10.9,20.6,9,5.3,8.5,4.3,6.7,15.5-.9,5.5-2.1,13.1-2.7,17-.6,3.8-1.7,10.6-2.6,15-.8,4.4-1.7,12-2,16.8-.3,4.8-1,9-1.5,9.3-.9.6-17.6-.9-28.8-2.6-3.6-.5-11.4-1.7-17.5-2.6-18.9-2.7-35.5-5.6-61.5-11-28.5-5.9-30.3-6.2-36-7.8-3-.8-10.2-2.6-16-4.1-9.3-2.4-22.4-6-36-10-9.5-2.7-23.8-7.5-32-10.5-4.7-1.7-10.3-3.7-12.5-4.4-14.2-4.7-48.3-19.6-70.4-30.8h0ZM384.798,526.913c0-1.2,2.9-1.5,4.6-.3,1.9,1.2,30.4,46.9,30.4,48.6,0,.4,1.1,2.4,2.5,4.6,1.4,2.2,2.5,4.4,2.5,5,0,2.1-2.7.9-4.1-1.8-.7-1.5-2.5-4.3-4-6.2-7-9.3-31.9-48.2-31.9-49.9h0ZM491.298,681.513c1-2.5,2.2-2.2,9.4,2.4,7.2,4.5,7.1,3.9,3.2,16.9-1,3.6-3,10.5-4.4,15.4-2.5,8.4-5.6,13.6-8.3,13.6-.6,0-1.4-.6-1.6-1.3-.7-1.9.9-45,1.7-47h0ZM461.298,597.913c.4-.3,12.9-.8,27.8-1.1,15-.3,27.8-.7,28.5-.8s2.2.3,3.3.8c2.1,1.2,2.6,4,.7,4.1-.7,0-11.9,0-24.8-.1-21.7-.1-37-1.3-35.5-2.9ZM504.398,662.513c-7.4-4.8-7.2-5.9,1-5.6,3.8.1,7.5.4,8.2.7,1.3.4,1.6,4,.6,6.6-1,2.5-4.5,1.9-9.8-1.7ZM506.898,636.613l-13.6-.3-.9-7.4c-1-8.6-.6-9,6.2-8.4,2.6.2,9.7.7,15.7,1.1,12.3.8,11.8.4,9.7,8.5-1.8,6.7-1.9,6.8-17.1,6.5h0ZM523.798,568.313c-5.4,10.1-3.4,9.5-33.9,9.5-14.6,0-27.2-.4-27.9-.9-1.1-.6-1.3-4.3-1-17.2.1-9,.7-17,1.1-17.7,1-1.5,3.5-1.5,17.1.2,20,2.6,30.9,3.7,42.3,4.3,6.1.3,11.7.9,12.4,1.4.9.5.2,2.5-2.8,7.6-2.2,3.7-5.5,9.5-7.3,12.8h0ZM472.198,620.913c1.1,1,2.8,14,2,14.8-.7.7-35.9.3-39-.4-1.3-.3-2.7-1.8-3.4-3.7-.6-1.8-1.9-4.9-2.7-7-.8-2-1.2-4.2-.8-4.8.9-1.4,42.4-.4,43.9,1.1h0ZM461.898,683.813c8.7-4.5,10.4-4.6,10.3-.5-1.6,39.5-1.6,40.5-3.4,40.5-3.7,0-5.8-4.1-14.8-29.8-1.8-5.2-1.8-5.1,7.9-10.2ZM446.598,669.313l-1.8-2.3c-2.6-3.2-3.7-9.2-1.9-10.3,1.7-1.1,21.5-.8,23.2.3s-.8,2.9-11.1,8.1l-8.4,4.2h0ZM443.398,541.613c-.3,2-.6,10.6-.6,18.9,0,17.8-.7,18.8-6,8.5-1.9-3.7-4.6-8.7-6-11.2-9.3-15.9-13-23.1-12.5-24.1.4-.6,1.8-.8,3.4-.4,1.4.4,5.3,1.1,8.6,1.6,3.3.6,7.7,1.5,9.9,2,3.7,1,3.8,1.1,3.2,4.7ZM361.098,697.513c7.8-10.7,20.1-27.5,27.2-37.3,17.1-23.4,20.4-27.6,21.8-27.1.6.2,2.6,4.6,4.5,9.8,11.4,31.6,12.5,34.9,11.2,36.4-.7.8-5.3,3.6-10.4,6.1-25.4,12.9-58.6,29.9-62.4,32-9.6,5.3-8.5,2.7,8.1-19.9h0ZM352.398,740.313c35-17.9,68.9-35.5,73.9-38.2,4.6-2.467,7.367-3.167,8.3-2.1.5.7,2.9,6.8,5.2,13.5l4.2,12.2-3.6,6.4c-2.6,4.6-3.6,7.6-3.6,10.8,0,2.4-.4,4.9-.8,5.5-.5.8-10,.8-32.7.3-43.1-1-59.7-1.9-59.2-3.3.2-.6,3.9-2.9,8.3-5.1h0ZM402.098,782.213c-1.1,2-15.4,16.9-41.7,43.6-12.2,12.4-32.2,32.8-44.5,45.3-12.3,12.6-22.5,22.6-22.7,22.4-.7-.7,1.6-4.5,26.2-41.2,13.2-19.8,31-46.4,39.4-59,8.4-12.7,16-23.6,16.8-24.3,1.1-.8,5.1-1.2,11.9-1.2,9.5,0,10.4.2,11.7,2.2,2.1,3.3,3.8,10.6,2.9,12.2h0ZM254.198,913.813c-1.3,2.4-4.6,6.1-5,5.7-.5-.4,2.1-7.5,8.1-22.7,5-12.6,10.3-26.2,23.8-60.5,3.1-7.7,7.1-18.1,9-23,2-5,6.5-16.6,10.1-25.8s6.6-17.1,6.6-17.5c0-1.3,3.2-3.9,5.5-4.5,1.1-.3,4.5-.3,7.5,0,3,.2,11.1.8,18,1.1,10.7.6,12.5.9,12.4,2.3-.1.9-7,12-15.4,24.5-8.5,12.6-24.8,37.1-36.3,54.4-11.5,17.3-22,33.1-23.4,35-4.8,6.8-19.8,29.1-20.9,31h0ZM427.498,865.113c-.3.8-8.1,5.2-17.4,9.7-9.2,4.6-41.6,20.6-72,35.6-30.4,15.1-56,27.4-56.8,27.4-2.4,0,.1-2.9,16.9-20,91.5-93.3,110-112,110.6-112,.4,0,1.2.6,1.8,1.3.6.7,2.4,6,4.1,11.7,1.6,5.8,5.3,18.2,8.2,27.7,2.8,9.4,4.9,17.8,4.6,18.6h0ZM481.198,963.713c-1.6,1.7-2,.9-6.4-13.9-3.1-10-8-26.1-10-32.5-2.5-8-9.3-30.5-10.6-34.9-1-3.9-1.1-5.3-.1-6.5s14.2-8.1,15.5-8.1c.2,0,6.3,2.9,13.6,6.4,7.2,3.5,15.3,7.3,17.9,8.5,2.6,1.2,5.1,2.9,5.4,3.7.7,1.9-23.3,75.2-25.3,77.3ZM513.798,865.213c-1.3,1.3-18.4-6.4-18.8-8.5-.2-.9,3.7-3.5,11.5-7.6,6.5-3.4,12.4-6.2,13.1-6.3.6,0,1.2,1,1.2,2.3,0,2.7-5.5,18.6-7,20.1ZM498.798,830.813c-16.8,8.4-35.1,17.4-40.6,20.2-5.6,2.8-10.7,4.7-11.3,4.4-.9-.6-2.7-6-8.8-26.6-.9-3-1.9-6.6-2.3-8-1.1-3.4-4.6-15.1-7-23.4-1.1-3.7-2-7.7-2-8.8s2.4-4.5,5.3-7.6,6.1-6.9,7-8.4l1.7-2.8,13.3.5c7.2.3,24.2.7,37.7,1,26.2.7,34.2,1.5,34.9,3.6.2.7,3,4.1,6.2,7.6,4.2,4.5,5.9,7,5.9,9,0,3.6-5.9,20.3-7.9,22.5-.9.9-15.3,8.5-32.1,16.8h0ZM679.298,940.813c-.5,0-15.4-6.7-30.3-13.6-4.1-1.9-7.6-3.4-7.8-3.4s-4.1-1.7-8.6-3.9c-4.6-2.1-10.5-4.8-13.3-6.1-2.7-1.2-10.3-4.7-16.8-7.6-6.5-3-12-5.4-12.2-5.4s-4.6-2-9.9-4.5c-5.3-2.5-9.9-4.5-10.1-4.5s-3.4-1.4-7.2-3.1c-11.4-5.2-14.6-6.6-21-9.4-3.4-1.5-6.8-3.5-7.6-4.4-1.6-1.7-1.9-.5,10.9-37.8l2.8-8.2,8.5-4.5c4.7-2.5,9.1-4.5,9.6-4.6.6,0,5.1,4.2,10.1,9.2,5,5.1,19.6,20.5,32.4,34.3,12.9,13.7,27.5,29.3,32.5,34.5,17.2,17.9,38.5,41.1,38.5,42.1,0,.5-.2.9-.5.9h0ZM565.298,777.113l1.5-3.6,18.5.7c10.1.3,19.1.9,19.9,1.2.9.3,1.3,1,1,1.6-.8,1.2-32.2,16.8-33.9,16.8-.8,0-3-1.7-4.9-3.8-4-4.1-4.5-7.2-2.1-12.9ZM648.898,778.813c.4,0,1.1.6,1.6,1.2.6.7,2,4,3.1,7.3s6.2,17.7,11.2,32c5.1,14.3,12.3,35,16.1,46,3.7,11,9.6,27.9,13,37.5,8.8,25.2,9.9,28.9,8.7,29.6-.6.4-2.9-1.3-5.1-3.7-8.7-9.6-35.1-37.7-56.2-59.9-5-5.2-12.2-12.9-16-17-3.9-4.2-13.7-14.7-22-23.4-8.2-8.7-15.1-16.6-15.3-17.5-.2-1.2,7.1-5.4,30-16.8,16.7-8.4,30.6-15.2,30.9-15.3h0ZM616.798,754.413c0,.8-6.3,1-21.7.8-21.6-.4-60.8-2.2-64.9-3-1.8-.3-2.2-1.3-2.7-6.8-.6-6.7-3.3-12.3-7.6-15.8-2.5-2.1-2.6-5.1-.7-11,.8-2.4,2.2-7,3.1-10.3,1.7-5.9,3-8.5,4.5-8.5.4,0,13.5,7.7,29.1,17.1,15.6,9.4,35.7,21.5,44.6,26.8,9,5.3,16.3,10.1,16.3,10.7h0ZM562.398,661.513c19.6,24,42.5,51.8,49.2,59.6,3.7,4.5,5.3,7.7,3.7,7.7-.3,0-7.2-4-15.3-8.8-8.1-4.9-25.9-15.5-39.7-23.7-13.7-8.2-25.8-15.6-26.8-16.4-2.3-1.9-1.9-5.3,2.3-19.6,5.3-17.7,6.3-20.5,7.5-20.5.7,0,9.3,9.8,19.1,21.7ZM558.298,584.312c-2.8,5-3.8,6-6.1,6-1.5,0-3.2-.8-3.7-1.7-.9-1.4-.5-2.1,1.8-4,1.7-1.3,4.6-3.7,6.5-5.5,3.8-3.5,5-4,5-2.1-.1.7-1.6,4-3.5,7.3ZM551.898,558.812c-.6,0-.5-1.3.3-3.3.7-1.7,1.6-4,1.9-5,.8-2.1,7.7-2.5,7.7-.4,0,1.4-8.3,8.7-9.9,8.7ZM854.398,475.812c-.4,0-2.6.9-4.9,1.9-6,2.7-30.7,11.8-41.2,15.3-37.9,12.3-83.3,22.7-123,28.2-39,5.4-51.1,6.1-107,6.1s-67.8-.8-108.5-6.1c-29.4-3.9-76.9-13.4-99-19.9-2.5-.7-9.7-2.7-16-4.5-40.4-11.4-82.6-28-127-49.9-9-4.5-17.1-8.8-18-9.6-.9-.8-2.2-1.5-2.8-1.5s-1.4-.5-1.8-1.2c-.5-.8,0-.9,1.7-.4,1.3.4,3.8,1.1,5.4,1.6,1.7.4,5.5,1.8,8.5,2.9,3,1.2,7.1,2.6,9,3.1,1.9.4,6.7,2,10.5,3.3,7.7,2.8,29.3,9.4,39.5,12.2,3.6.9,8.5,2.3,11,3.1,6.7,2,39.8,10,53.5,12.9,23.6,5.1,53.1,10.3,79.5,13.9,6.3.9,16.1,2.3,21.6,3.1,5.6.8,12.2,1.5,14.7,1.5s6.8.5,9.4,1c2.6.6,11.3,1.5,19.3,2.1,8,.5,18.1,1.4,22.5,1.9,23.8,2.8,94.4,3.9,128,2.1,42.9-2.4,78.3-4.8,80.3-5.6.8-.3,6.3-.9,12.3-1.5,6-.5,13.5-1.4,16.7-1.9,3.1-.6,10.7-1.8,16.7-2.6,28.3-4.1,64.5-11.7,97.4-20.5,6.2-1.7,12.1-3.5,13.1-4,2.2-1.2,5-1.3,5-.2,0,.7-25,13.2-26.4,13.2h0ZM924.798,424.513c-29.6,12.7-74.8,26.5-110.8,33.8-18.9,3.8-23.5,4.7-33.7,6.5-28.3,5-62.7,9.2-89,11-8.2.5-18.8,1.4-23.5,2-28.9,3.2-159.4,1-163.2-2.8-.8-.8-.7-4.7.6-14.4.9-7.3,2.4-19.2,3.2-26.3,2.3-19.2,2.3-19.3,3.9-19.9.8-.3,4.2-.1,7.7.5,4.1.7,8.4.7,12.8,0,3.6-.5,10.3-1.2,15-1.6,6.7-.4,9.9-1.2,14.7-3.6,7.4-3.6,10.9-7.7,12.2-14.5.5-2.7,1.2-37.1,1.5-76.4s1-76,1.6-81.5c.5-5.5,1.5-25.1,2-43.5.6-18.4,1.5-42.5,2.1-53.5,1-19.9.9-32.6-.5-35.6-.5-1.1,1-3.3,5.4-7.5,7-6.7,13.7-16.3,17-24.4,1.3-3,2.7-5.9,3.1-6.4.8-.9,3.7,4.9,13.4,26.4,2.6,5.8,5.7,12.7,7,15.5,6.8,14.7,10,21.5,12.2,26.5,1.4,3,5.1,11.1,8.3,18,3.1,6.9,8.1,17.7,11,24s7.3,15.8,9.7,21c2.5,5.2,6.7,14.4,9.5,20.5,2.7,6,6.3,13.9,8,17.5,1.6,3.6,4.1,9,5.5,12s4.1,8.8,5.9,12.8c1.9,4,3.4,7.4,3.4,7.6s2.1,4.8,4.6,10.3c2.5,5.4,10,21.5,16.6,35.8s13.5,29.2,15.4,33.2c1.8,4,4.5,10,5.9,13.3l2.6,6.1-2.1,3.3c-3.4,5.5-2.7,8.3,3.4,14.2,6.3,6.1,10.4,7.1,22.9,5.4,9.5-1.2,15.3-3.1,23.3-7.5,7.8-4.4,10.2-8.6,8-13.9-.8-1.9-2.3-3.9-3.3-4.4-5-2.8-12.4-11.2-15.6-17.7-5.3-10.7-21.2-44.2-25.7-54-2.4-5.3-13-28.1-21-45-1.5-3.3-5.5-11.6-8.8-18.5s-8-16.8-10.5-22c-2.4-5.2-6.9-14.7-9.9-21-3.1-6.3-7-14.7-8.8-18.5-1.8-3.9-5.7-12.1-8.6-18.3-3-6.2-5.4-11.4-5.4-11.6s-4-8.8-9-19c-4.9-10.3-9-18.9-9-19.1s-3.4-7.5-7.6-16.2c-9.5-19.7-9.7-20.3-8.1-20.3.7,0,5.1.4,9.7,1,4.7.5,11,1.4,14,2,3,.5,9.6,1.7,14.5,2.6,30.5,5.4,64.7,13,90,19.9,14.2,3.9,44.2,13,49.3,15,2.1.8,10.9,3.9,19.7,7.1,15.2,5.3,29.3,10.8,36.2,14,1.7.7,3.4,1.4,3.8,1.4,2.2,0,41,19.2,54.5,27,42.3,24.4,73.2,50.6,91.7,77.6,14.9,21.9,21.3,40,21.3,60.4,0,50.8-45.5,97.5-130,133.7h0Z" fill-rule="evenodd"/>
  </g>
</svg>