<?xml version="1.0" encoding="UTF-8"?>
<svg id="b" data-name="Ebene_2" xmlns="http://www.w3.org/2000/svg" width="1203.261" height="1662.325" viewBox="0 0 1203.261 1662.325">
  <g id="c" data-name="Layer_1">
    <path d="M1168.381,1.623c-11.9,4.8-19.6,15.6-23,32.7-.4,1.867-2.434,2.567-6.1,2.1-9.4-1.1-15.4,1.4-24.5,10.5-6,6-8.5,9.5-11.7,16.1-2.2,4.6-4.3,10-4.6,12-.9,4.9-2.9,6.4-10.6,7.9-10.6,2-23.3,9.3-33.8,19.4-11.9,11.4-18,21.9-20.7,35.7-.9,4.6-2.4,10.3-3.2,12.6-1.4,3.8-2,4.4-6.7,5.7-6.8,2-19.7,10.6-27.1,18-3.6,3.6-7.6,9-9.7,13.1-3.5,6.7-7.8,21.5-7.8,26.8,0,1.4-.4,3.7-.9,5-.9,2.3-1.5,2.5-9.8,2.9-8,.4-9.6.8-15.5,4.1-12.3,6.9-28.8,28.5-35.2,46.2-1,2.7-2.2,5.4-2.6,5.8s-3.8,1.2-7.6,1.7c-26.5,3.7-43.9,14.1-56.7,34.1-5.1,8-7.1,12.8-11.3,26.6-.2.9-2.4,1.3-6.5,1.3-21.3,0-42.2,14.4-64.4,44.4-3,4.1-5.5,7.8-5.5,8.2s-.6,1.5-1.4,2.3c-2.7,3.1-8.8,16.3-12.4,26.9l-3.7,10.7-12.8.7c-14.3.7-18.5,1.9-31.6,8.7-10.8,5.5-20.4,12.1-31.1,21.4-22.1,19-44.5,52.6-54.6,81.7-3.7,10.9-2.4,10.3-16.9,7.7-24.5-4.5-54-.2-78.5,11.6-34.1,16.4-59,36.6-79.8,64.8-5,6.8-9.6,11.6-16,16.7-18.5,14.7-22.6,20.9-43.2,64.7-4.4,9.4-6.1,14-6.6,18.4-.3,2.7-1.4,5.6-2.7,7-2.2,2.3-23.6,16.8-37.1,25-3.7,2.3-11.4,5.7-17,7.6-11.9,3.9-18.9,6.6-43.1,16.7-9.9,4.1-22.9,9.4-28.9,11.8-6,2.3-14.1,5.7-18,7.5s-9.3,4.2-12.1,5.3c-27.1,10.9-29.4,12.1-56.5,30-29.7,19.6-29.3,19.3-40.2,28.8-21.5,18.9-39.1,39.9-59,70.4-10.3,15.8-9.8,14.9-17.8,30.6-13.5,26.6-26.7,65.9-33.4,99.4-4.8,24.2-6.3,36.4-7.7,62.8-1.1,20.1-1.1,27.1.4,52.9,2.1,37.6,3.6,48,9.3,67.3,9.5,31.9,23.5,60,51.4,102.5,20.9,31.9,29.4,47.7,42.6,79,3.7,8.8,7.5,18,8.4,20.5,19.4,50.3,22,58.1,26.2,78.5,3.2,15.6,2.9,38.1-.7,54-5.6,24.9-6.5,32.9-4.4,40.1,4.1,13.7,18.2,18.9,32.2,11.8,3.5-1.8,4.9-2.1,5.1-1.2.3.7,1.2,3.7,2.1,6.6,2,6.3,6.9,11.6,13.4,14.5,6,2.7,19.2,2.8,26.9.3,14.2-4.8,25.3-13,45.7-33.8,33.7-34.4,66-66.3,83-81.8,35-31.9,64.5-62.1,79.9-81.8,3.7-4.7,5.8-6.4,8.7-7.2,2.4-.7,6.4-3.4,10.7-7.3,9.6-8.9,22.1-16.9,31.9-20.5,20-7.4,25.2-8.8,67.3-17.9,8.3-1.8,42.1-10.2,51.5-12.8,11.7-3.2,40.8-13.2,52-17.9,1.7-.7,6.2-2.6,10-4.1,17.2-7,52.5-26.1,70-37.8,32.2-21.6,62.3-51,80.1-78.2,15.2-23.3,26.4-50.6,31.9-77.8,4.8-24,4.9-26.1,4.9-60.7s-.2-37.4-5-62c-3.2-16.2-10-37.6-16-50.7-1.9-4-3.4-7.7-3.4-8.3,0-.5,1.2-1.2,2.8-1.5,5.4-1.2,19.9-8.1,27.1-13,26.9-18.1,52.6-54.3,64.7-91.1,12.2-37.3,12.9-85.8,2.1-130.9-.8-3.3-1.8-6.8-2.2-7.7-.8-1.9,1.2-3.2,6.5-4.3,14.1-2.9,30.3-18.4,40.7-39,10-19.7,15.2-45.8,15.3-75.5,0-13.4-2.1-37.8-4-45.5-2.1-8.7-1.6-9.8,5.1-12.9,12.7-5.8,28.4-25.1,35.2-43.1,5.6-15,6.1-18.4,6-41-.1-16.6-.5-23-2.1-30.5-1-5.2-1.7-10.1-1.5-10.7.3-.7,3-2.4,6.1-3.9,7.4-3.4,21.5-17.6,25.9-25.9,9.4-17.9,12.8-41.2,8.8-61.8-.8-4.3-1.5-8.3-1.5-8.8,0-.4,2.4-2.4,5.3-4.2,14.4-9.2,27.4-30.2,33.8-54.4,2.8-10.7,3.1-13.4,3.3-28.7l.2-16.9,4.4-1.2c12.2-3.1,21.9-11.8,29.2-26,7.2-14,10.4-30.1,10.8-54.2,0-.6,3.6-3.7,8-6.7,12.5-8.8,22.6-23.4,27.6-40.1,2.5-8.4,2.7-10.3,2.6-27.5v-18.5l3-5.5c1.7-3,4.5-7.1,6.3-9,5.5-6,11.6-14.2,13.6-18.5,6.1-13.1,3.5-28.3-6.2-35.6-7.7-5.8-17.5-7.4-25.4-4.2h0ZM1143.181,68.123c2.4,1.2,2.1,3.1-.9,5.9-3.7,3.4-5,7-6.4,17.9-1.6,12.5-5.9,24.6-8,22.3-1.9-2.1-3.5-11.7-3.4-20.3,0-8.4.4-10.3,3.1-16,4.1-8.9,7.4-12.3,11-11.4,1.6.4,3.6,1.1,4.6,1.6h0ZM1101.781,126.023c.9,3.9.8,5.7-.5,8.8-1.8,4.4-1.9,7.6-.9,18.1.6,6.5.4,8.4-1.8,14.8-4.5,12.9-16.3,31.9-18.5,29.7-1.4-1.3-12.8-28.2-15.3-35.9-3.3-10.2-2.8-11.6,7.5-22.4,2.8-3,8.9-8,13.6-11.2,4.7-3.1,9.4-6.7,10.5-7.9,1.8-2.1,2-2.1,3.2-.6.6,1,1.7,3.9,2.2,6.6h0ZM1048.781,197.223c.8,2.1,4.9,11.2,5.8,13,.3.4-1.4,2.4-3.6,4.3-5.4,4.9-6.4,8.4-5.6,19.7,1.1,14.7-2.3,26.6-12.1,42.3-3.1,5-5.2,7.4-6.3,7.2-2.1-.4-13.1-22.6-16.6-33.6-1.9-6-2.8-11-2.9-16.2-.1-7,.1-7.8,3.3-12.3,4.2-5.8,15.8-15.6,26-21.9,8.6-5.3,10.8-5.8,12-2.5h0ZM988.681,273.923c1.8,3.6,6,11.6,9.2,17.7,3.3,6.2,6,11.7,6,12.3s-1.2,2.9-2.7,5.1c-2.7,4.1-2.7,4.4-2.4,18.1.2,13.4.1,14.4-2.9,23.5-4.5,13.7-13,28.7-15.1,26.6s-22.9-40.8-27.2-50.4c-6.9-15.4-6.4-21.6,2.8-34.9,7.6-11,23.5-25.3,27.5-24.7.8.1,3,3.1,4.8,6.7h0ZM898.381,312.923c-.3.5-1,1-1.4,1-1,0-11,6.7-15.8,10.6-1.8,1.5-3.3,2.2-3.3,1.7,0-2.2,7.5-9.4,12.3-11.7,5.3-2.6,9.3-3.4,8.2-1.6ZM927.081,338.223c4,9,12.2,24.7,21.7,41.4l9.2,16.2-1.7,5.6c-1.2,4.4-1.4,7.7-.9,14.3.7,9.1-.7,27.1-2.6,33.2-5.5,17.4-19,40.1-23.7,40-1.1-.1-6.7-8-16.6-24-8.2-13.1-16.2-26.3-17.8-29.2-11.4-20.5-22.8-47.2-22.8-53.6,0-10.5,19.1-34.1,34.7-42.9,7.5-4.1,15.3-7.2,17-6.5.7.2,2.2,2.7,3.5,5.5h0ZM819.381,376.923c-.3.5-1.3,1-2.1,1s-1.2-.5-.9-1c.3-.6,1.3-1,2.1-1s1.2.4.9,1ZM847.281,401.723c12.3,31.5,18.3,42.9,47.1,88.2,15.8,25,14.9,22,15.3,51.7l.3,25.3-3.1,11.5c-1.7,6.4-3.5,12.4-3.9,13.3-.5.9-2.5,5.2-4.5,9.4-4.2,9.4-10.5,19.2-17.5,27.4-6,7.1-19.6,19.4-21.4,19.4-.7,0-2.1-1.5-3.2-3.3-1.8-3-9.5-14.9-30-46.2-12.4-19-18.5-28.4-18.5-28.9,0-.3-2-3.8-4.4-7.9-3.7-6.2-13-24.8-16.6-33.2-.5-1.1-1.5-3.6-2.4-5.5-5.2-12.2-10.6-32.5-10.6-39.9,0-5,.8-7.3,7.4-20.1,4-8,7.9-15.6,8.7-17,7.8-14,33.6-38.9,47.8-46.2,3-1.5,5.9-2.8,6.5-2.8s1.9,2.1,3,4.8h0ZM742.381,469.923v6.5l-10.5,1.2c-5.8.6-12.5,1.8-15,2.6-14,4.6-27.8,13.3-44,27.5-12.2,10.9-4.4-.6,10.4-15.3,10.2-10.1,23.2-19.6,34-24.8,5.8-2.8,14.8-4.6,21.6-4.3l3.5.1v6.5h0ZM747.881,505.222c0,.1,2.2,6.5,4.9,14.2,11.7,33.4,22.6,53.9,54.6,102.5,21,31.8,25,38.1,27.6,43.1l2.1,4.2-2.2,9c-2.9,12-7.2,25.8-13.5,43.7-4,11-18.6,42.7-21.5,46.5-.4.5-2.2,3.7-4,7-4.5,8.1-18.6,29.6-28.4,43-17.7,24.2-39.7,48.2-43.1,46.8-3.9-1.4-25.6-37.4-38.2-63.3-25.2-51.4-37.5-86.4-46.2-131-2.6-13.5-5.4-43.1-4.6-49.2,1.1-8.6,13.5-34.5,27.4-57,9.1-14.7,27.9-35.6,40.1-44.5,7.1-5.1,16.4-10.4,21.5-12.2,4.2-1.5,23.5-3.8,23.5-2.8h0ZM986.381,522.122c-1.9,9.3-16.6,31.4-20.4,30.6-2.5-.6-1.5-4.7,2.7-10.5,5.3-7.3,17.6-23.2,18-23.3.2,0,.1,1.5-.3,3.2h0ZM594.381,583.022c4.3,1.2,11.2,7.9,11.7,11.4.7,5-.4,15.6-1.7,16.2-.8.2-7.2-1.4-14.2-3.6-18.9-6-23.9-7.1-33.1-7.1-11.2,0-28.6,3.5-45.6,9.1-4.9,1.6-9.1,2.7-9.4,2.4-.6-.6,3.7-5.5,4.9-5.5.4,0,3.8-1.9,7.5-4.2,14.3-8.6,29.8-15.1,44.9-18.7,5.7-1.3,30.2-1.3,35,0h0ZM935.981,605.722c-3.5,21.2-7.6,34.4-15.1,49.4-7.6,15.1-17.4,27.9-28.1,36.9l-5.1,4.3-1.9-2.5c-4-5-3.6-6.6,2.5-12.1,6.7-6,15.4-17.4,21.7-28.5,7.4-13,18.1-37.4,21.9-49.8,2.7-9.1,4.3-12.6,5.3-11.6.6.6.2,5.4-1.2,13.9h0ZM572.881,631.923c5.2,1.6,11.6,3.6,14.1,4.3,2.5.8,8.1,3.3,12.6,5.5l8,4.1,1.2,9.3c4.5,34.4,11.1,62.2,21.5,90.3,1.4,3.8,3,7.9,3.5,9s2.3,5.6,4.1,10c1.7,4.4,4,9.8,4.9,12,1,2.2,3.6,8,5.7,13,5.4,12.8,23.9,49.1,31.4,61.5,7.2,12.1,15.4,24.7,22.2,34.1,6.4,8.9,7,10.8,5.7,17.2-1.4,6.7-6.7,22.9-8,24.1-.5.6-.9,1.6-.9,2.4,0,1.8-13.4,29-18.2,37-2.1,3.4-3.8,6.5-3.8,6.8s-3.3,5.6-7.4,11.7c-31.9,48.3-73.3,88.4-111.9,108.6-10.6,5.6-34.5,13.5-36.3,12-.7-.6-1.6-3.2-1.9-5.7-.4-2.6-1.3-7.2-2-10.2s-2-9.1-3-13.5c-2.1-9.6-8.5-34.5-11.8-46.5-3.1-10.6-4.5-15.6-7.7-25.5-1.7-5.5-3.5-11.4-4-13-.7-2.7-7.4-22.9-9.9-30-1.2-3.4-5.8-17-13.1-38.5-4.3-13-6.2-18.8-11.5-36.5-2.2-7.4-6.1-22-8-30-.9-3.9-2.2-9.7-3-13-1.6-6.9-3.9-17.5-5.4-25.5-1.2-6.2-.8-38.7.7-58.5,2.9-37.5,11-64.4,26-85.4,11.9-16.8,23.7-25.7,44.5-33.4,29-10.9,45-12.9,61.7-7.7h0ZM941.481,681.123c-5.7,21-17.4,39.6-27.6,43.8-3.8,1.6-9.7.4-11.4-2.2-.9-1.5-.6-2.1,1.4-3.4,8.8-5.7,33.7-35.1,37.3-43.8,1.7-4.2,1.9-.3.3,5.6ZM873.881,776.923c0,31.7-6.5,58.4-21.6,88.1-12,23.7-25.1,41.4-44,60-15.1,14.7-22.7,20.5-25.4,19.3-2.3-1.1-14-16.7-14-18.8,0-.8,1.9-2.5,4.3-3.9,5.8-3.4,20.3-17.2,29-27.6,34.7-41.3,56.1-80.8,65.7-121.4,4.5-18.9,6-17.9,6,4.3ZM341.281,792.123c-1.4,2.4-12.9,16.4-22.1,27-14.1,16.1-29.2,29.4-59.8,52.6-29.1,22-39.2,30.7-57.4,49.1-18.4,18.7-41,47-50.6,63.3-.5.9-3,5-5.5,9-12,19.7-25.5,49.4-34,74.8-1.6,4.7-4,11.2-5.3,14.5-1.4,3.3-3,9.4-3.6,13.5s-1.8,10.6-2.6,14.5c-4.4,21.4-6.5,41.8-6.5,64.9,0,36.5,5.3,71.3,16.6,109.6,3.1,10.6,23.8,73,30,90.5,2.5,7.1,4.9,14.1,5.4,15.5,2.6,7.7,7.5,20.5,15.5,41,.7,1.9,2.6,6.9,4.1,11,1.4,4.1,3.2,8.8,3.9,10.5,2,4.5,7.3,21.5,9.6,30.2,7.7,29.8,8,57.3.9,83.8-.6,2.2-3,8.8-5.2,14.7-6.3,16.1-10.4,20.3-7.1,7.2,2.5-10.1,2.5-47.4,0-59.4-3.7-17.3-9.2-35.9-15.5-52.5-7.9-20.6-12.1-31.4-13.2-34-.7-1.7-1.6-3.9-2.1-5-11.1-27.4-21.9-50.5-29.5-63.5-2-3.6-11.5-18.7-20.9-33.5-26.9-42.3-32.8-53.2-42.7-79-6.6-17.3-9.7-29.7-12.5-51-2.5-19.1-2.5-85.8,0-103,2-13.7,4.3-27.2,5.7-33,.5-2.2,1.7-7.2,2.6-11,1.4-6.5,2.1-8.9,6-22,2.5-8.5,7.2-22.7,9.4-28.5,1.2-3,2.5-6.6,2.9-8,1.3-3.9,8.9-20.4,12.8-27.8,7.9-14.7,24.6-39.4,37.4-55.2,18.6-22.8,29-32,60.9-53.2,28.6-19.1,31-20.4,57-31.3,10.2-4.3,19-8.1,19.5-8.5.6-.4,6.2-2.9,12.5-5.5,20.3-8.3,28.4-11.7,35-14.7,10.6-4.9,21.9-9.4,31.5-12.6,5-1.7,10.6-3.8,12.5-4.6,4.3-1.9,5.3-2,4.4-.4h0ZM408.781,805.623c.6,2.1,1.1,4.7,1.1,5.8s.6,5.1,1.4,9c.9,3.8,2.2,10.6,3.1,15,7.9,38.8,16.6,68.6,40.3,137.5,4.7,13.6,14.3,43.8,17.9,56,.9,3,2,6.6,2.4,8,1.4,4.1,5.7,20.8,11.4,44.5,7.8,32,12.5,69.8,12.5,99.6,0,44-8.8,89.1-26.5,134.9-4.1,10.6-11,27.1-13,31-1.3,2.5-5.8,11.5-9.9,20-4.1,8.5-8.9,17.7-10.5,20.5-1.6,2.7-3.9,6.7-5,8.7-3.4,6.2-15,23.7-22.5,33.8-20.3,27.5-39,47.8-73.6,79.9-37,34.4-61.3,57.8-77.2,74.6-26.6,28-38.4,39.1-46.8,44.1-7.2,4.2-10.4,5.3-11.4,3.6-.7-1.1,8-17.8,13.3-25.4,2.5-3.7,10-12.2,16.6-19,12.3-12.6,16.7-18.4,22.6-29.8,3.5-6.6,11.6-15.5,22.2-24.4,3.2-2.6,9.8-9.5,14.7-15.2,4.9-5.8,12.1-13.2,15.9-16.5,10.9-9.5,14.8-16.5,17-30.3,1.9-11.7,2.6-13.1,8.9-17.3,10.9-7.2,19.1-17.5,22.7-28.2,1.5-4.5,1.7-7.4,1.2-16.9s-.4-12.1,1-15c1.5-3.1,10.7-11.5,14.3-13,.8-.3,3.1-1.5,5-2.7s6.2-3.7,9.5-5.5c9-4.9,24.5-15.4,28.7-19.4,6.3-6.1,10.7-12,13.4-18.2,6.8-15.2,7.2-36.1,1.1-48.1-2.3-4.4-10.3-11.9-15.3-14.4-2.3-1.1-4.8-2.6-5.4-3.4-3.4-4.1,3.5-15.5,13.7-22.6,18.9-13.1,25.6-19.1,33.3-29.4,10-13.4,13.9-27.3,16-56.5,2.7-37.3-5.2-61.9-23.8-74.6-7.7-5.4-12.3-6.7-23.4-6.8-7.7-.1-9-.4-11-2.4-2-1.9-2.3-3.3-2.3-9.4,0-7,0-7.1,3.9-10.2,9.9-7.9,13.7-12.1,16.7-18.3,2.7-5.5,3.2-7.8,3.6-16.6.7-13.3-.7-23.4-6.3-45.3-2.5-9.8-6.1-24.2-8-31.9-1.9-7.7-3.9-15.6-4.4-17.5-3-11.1-8.6-43-11.5-65.5-1.5-11.9-2.2-53.5-.9-58.3.9-3.3,2.2-2.7,3.3,1.5h0ZM348.881,831.323c0,.8-1.7,6.8-3.9,13.3-10,30.5-15.2,61.9-18.1,109.3-2.3,38.4-5.4,76.7-7,88-.5,3.6-1.3,9.3-1.6,12.7-1.2,11.4-2.4,6.6-2.4-9.5,0-30-5.5-49.8-19.7-71.3-11.7-17.9-32.1-36.4-51.7-47-1.7-.9-3.1-2-3.3-2.6-.5-1.4,12-11.8,35.7-29.8,10.7-8.1,24.3-18.8,30.1-23.6,10.5-8.7,39.9-38.2,39.9-40,0-.5.5-.9,1-.9.6,0,1,.6,1,1.4ZM891.381,854.123c-3.2,34.7-20,70.6-45.4,97.1-15.1,15.8-36,26-44.2,21.7-1-.6-1.9-1.5-1.9-2,0-.4,3.9-3.9,8.8-7.6,12.1-9.5,33.5-31,41.9-42.4,8-10.9,18.1-26.9,24.2-38.5,4.7-8.9,13.1-28.1,13.1-29.9,0-1.3,2.8-5.6,3.6-5.6.3,0,.2,3.3-.1,7.2h0ZM231.381,949.923c15.4,6.7,38,29.1,46.6,46.2,8.3,16.4,10.2,26.7,9.7,50.6-.3,10.3-1,21.2-1.7,24.2s-1.9,8.9-2.8,13c-2.2,10.6-6.8,24.2-11.3,33.1-4.4,9-14.7,24.9-16.1,24.9-1.2,0-1.2-2.3,0-3.6,1.4-1.5,6.2-16.3,8.2-25.3,1.4-6.4,1.9-12.6,1.9-24.5,0-14.6-.3-17.2-3-28.1-5.6-22.2-17.3-41.5-31.6-52.3-12.3-9.3-22.4-13.2-39.4-15.3-5.5-.7-10-1.7-10-2.1,0-1.8,13.5-19.6,24.9-32.8,9.6-11.2,9.5-11.1,15.5-10.4,2.8.4,6.9,1.5,9.1,2.4h0ZM768.181,975.222c2.8,4,5.9,8.6,6.8,10.2,4.3,7.9,10.7,63.3,9.5,82-1,15.3-3.7,29.9-6.7,35.5-.4.8-3.4,6.9-6.5,13.5-20.8,43.9-56.4,87.9-92.9,114.9-13.4,9.9-14.3,10.6-15.1,10.6-.4,0-2.1,1-3.8,2.3-8.4,6.3-37.1,20.6-63.6,31.7-6.9,2.8-13.4,5.6-14.5,6.1-7.5,3.3-25.3,7.8-44.5,11.3-4.7.9-12.4,2.4-17.2,3.3s-9.1,1.4-9.5,1,.8-6,2.6-12.5c4.9-17.8,6.5-24.8,10.1-45.2.8-4.5,4-28.7,4-30.3,0-.3,3.3-.5,7.3-.4,17.8.1,57.2-17.7,88.3-39.9,27.2-19.4,50.7-43.5,79-80.9,27.7-36.6,50.2-81.9,58.8-118.8.4-1.5,1.1-2.5,1.6-2.2.6.4,3.4,3.9,6.3,7.8h0ZM201.881,1021.923c17.1,6.7,27.7,20.7,34.2,45,2.8,10.6,2.8,31.4,0,42-2.4,9-2.7,9.7-6.3,17.8-1.6,3.5-2.9,6.6-2.9,7-.1.9-3.7,5.2-4.4,5.2-.3,0-.6-2.1-.6-4.8s-.9-7.9-1.9-11.7c-6.5-24.3-24.1-45.9-45.2-55.3-5.9-2.7-20-5.7-24.5-5.2-4.9.6-5.7-1.4-3-7.3.8-1.8,2.6-5.9,4.1-9.2,7.8-17.6,10.4-21.5,15.5-23,1.4-.4,4.5-1.3,7-2.1,6.3-2,21.1-1.1,28,1.6h0ZM314.581,1076.123c-.2,1.3-.4.5-.4-1.7-.1-2.2.1-3.2.4-2.3.2,1,.2,2.8,0,4ZM311.581,1093.123c-.3.7-.5.2-.5-1.2s.2-1.9.5-1.3c.2.7.2,1.9,0,2.5ZM164.481,1093.923c6.4,2.9,18,14.8,22.7,23.1,4.5,7.9,6.7,16.3,6.7,24.9s-2.1,16.5-7.4,27.5c-5.1,10.8-15.6,27.4-17.3,27.4-.6.1-1.6-2.4-2.2-5.7-2.9-15-8.1-26.9-15.5-34.9-6.5-7.1-15-11.3-23.3-11.3-4.7,0-4.7-.3-1.2-20,4.9-27.4,6-29.7,16.6-32.6,6.3-1.8,14.7-1.2,20.9,1.6h0ZM308.881,1108.822c-2.9,13-11.4,47.4-14.2,57.1-1.6,5.8-3.6,12.8-4.3,15.6-2.7,10.1-13.7,42-19.2,55.6-6.6,16.7-15.5,34.2-23.1,45.8-7.4,11.2-22.9,26.7-30.2,30.2s-17.2,6-22.3,5.6c-3.6-.3-4.2-.7-5.3-3.8-1.7-4.9-1.7-21.6.1-29.2,2.3-9.5,3.7-13,10.6-25.8,4.5-8.3,32.6-44.9,58.7-76.4,20.8-25.1,28.3-35.4,35.2-48.1,4.5-8.4,10-21.3,10-23.5,0-.8.7-2.4,1.5-3.4.8-1.1,1.5-3.2,1.5-4.6,0-1.5.3-3,.8-3.4,1.3-1.4,1.4,2.7.2,8.3h0ZM813.181,1125.322c.8,2-.9,27.7-2.3,36.1-3.3,19.4-8.8,39.6-14,51-11.4,25.3-19.3,37.5-36.3,56.6-31.8,35.7-79.3,65.8-139.7,88.6-29.6,11.2-49,16.9-93.5,27.3-21.9,5.1-36.1,8.9-47.4,12.6-7.4,2.4-14,4.4-14.7,4.4-.8,0,.2-2.8,2.6-7.3,2.1-3.9,5.8-11,8.3-15.7,2.7-5.2,5.3-9,6.8-9.7,1.3-.6,8.9-3.2,16.9-5.6,12.5-3.9,21.3-6.2,45-11.8,2.5-.6,6.5-1.7,9-2.4s7.4-2.1,11-3c14.4-3.9,44-14.3,55.5-19.5,46.3-20.9,70.3-37.9,111.5-79,20.2-20.1,29.6-31,41.6-48,14.7-20.8,28.6-47.8,35.4-68.8,2.4-7.2,3.3-8.5,4.3-5.8h0ZM173.881,1249.322c0,.7-.7,1.9-1.5,2.6s-1.5,2.1-1.5,3.1c0,1.1-.4,1.9-.9,1.9s-1.2,1.3-1.6,3c-.4,1.6-1.1,3.2-1.6,3.5-.5.4-.9,1.6-.9,2.8s-.4,2.9-1,3.7c-.8,1.2-1,1.2-1.6-.3-.6-1.6,1.3-7.5,3.7-11.7.4-.8,1.8-3.4,3-5.8,2.3-4.2,3.9-5.4,3.9-2.8h0ZM248.881,1438.423c15.4,3.6,25.8,9.3,37.3,20.4,6.3,6,8.7,9.7,8.7,13.2,0,1.5-3.4,5.4-10.6,12.3-5.8,5.6-11,10.2-11.4,10.4-.5.2-2-1.7-3.5-4.2-6.3-10.8-22.5-21.6-35.5-23.7-8-1.3-18-.4-23.7,2.1-2.3,1-4.4,1.6-4.7,1.2-.2-.4-1.3-3.7-2.5-7.5-1.1-3.7-2.5-7.6-3-8.6-1.5-2.7.3-4.4,10.4-9.5,14.5-7.3,25.5-9.1,38.5-6.1h0ZM237.081,1495.923c8.4,4.3,11.2,8.4,9.8,14.4-.5,2.1-.6,5.3-.3,7.2.5,2.9,0,4-4.1,8.5-4.2,4.7-9.3,12.3-15.9,23.9-3.2,5.7-13.4,17-15.3,17-1.8,0-1.8-.1.2-9.7,1.2-5.7,1.7-13.7,1.8-29.8l.1-22,4-6c5.4-8,9.5-8.8,19.7-3.5h0Z" fill-rule="evenodd"/>
  </g>
</svg>