<svg xmlns="http://www.w3.org/2000/svg" id="Ebene_2" data-name="Ebene 2" viewBox="0 0 304.79 531.32"><defs><style>      .cls-1 {        fill: #030202;        fill-rule: evenodd;      }    </style></defs><g id="Ebene_1-2" data-name="Ebene 1"><g><path class="cls-1" d="M298.6,231.64c-6.29,5.08-13.59,8.75-20.47,12.97-12.31,7.02-25.18,12.95-38.37,18.17-4.78,1.38-9.56,5.33-14.72,4.93-1.41-.54-1.87-2.16-2.42-3.45-.71-2.06-2.41-3.74-2.19-5.22,1.62-3.62,7.5-4.07,10.69-6.16,14.83-10.05,29.85-20.06,46.78-26.29,5.48-1.66,11.48-3.35,17.1-1.87,2.13.6,3.46,2.99,4.65,2.61,5.17-5.64,5.15-19.54,5.13-26.98l-.03-.17c-1.12-13.29-2.48-20.94-13.73-29.11-3.3-6.23-9.67-14.86-14.71-19.65-5.06-9.22,6-30.46,3.4-43.34-1.14-8.41-9.72-1.4-12.63-5.73-15.42-24.17-36.11-44.89-58.88-62.2-.69-.48-1.14-.86-1.22-1.03,10.5,4.66,21.61,11.53,30.89,18.88,8.55,7.79,17.46,15.94,24.88,24.71,5.9,5.91,9.29,13.58,15.08,19.48,6.55,3.54.26-4.41-1.26-5.8-24.03-36.04-59.08-58.6-99.68-74.8-2.27-1.09-6.9-1.08-3.06,1.75,4.15,1.9,8.66,2.94,12.36,5.61,30,17.82,55.82,41.74,76.16,70.02,6.47,7.98.87,15.61-.62,24.8-1.24,10.07-9-2.83-11.85-5.52-7.11-6.12-13.99-12.44-21.63-17.9-1.04-1.27-6.02-3.58-5.88-1.04,1.95,2.97,5.68,5.27,8.25,7.66,9.98,8.91,21.15,18.2,27,30.37.21,8.96-4.76,17.17-6.19,25.82-1.57,3.94-1.85,8.08-3.64,12.15-3.95,6.31-7.74,11.66-11.68,18.1-.62.79-5.39,8.68-1.65,6.09,2.42-2.28,3.95-6.65,6.69-8.66,1.16-.06,1.2,3.59,2.83,4.9,1.73,2.65,6.54,2.63,7.29,5.76-2.08,5.52-6.35,10.43-9.67,15.38-1.56,1.52-13.65,19.66-10.85,8.67,3.39-25.61-2.99-56.27-18.28-77.56-12.53-17.07-37.41-43.6-58.42-23.71-27.64,23.3-44.16,58.18-44.22,94.61-.33,1.07,1.23,6.02-.13,5.57-2.7-2.34-5.14-5.77-8.2-7.75-17.76-13.94-12.1-14.07-15.02-34.92-3.23-18.91-2.02-38.3-2.36-57.44-.26-8.35,5.29-14.23,10.01-20.4,6.38-9.66,11.95-20.09,17.84-30.1,8.9-17.78,15.86-36.75,29.84-51.44,5.58-6.73,12.62-12.54,20.25-16.86,2.37-1.84,7.63-2.59,7.55-5.23-1.31-.79-3.44.25-4.91.76-23.09,11.56-42.03,30.8-55.45,52.69-9.39,14.93-14.16,32.14-24.73,46.42-6.12,9.9-14.84,8.19-17.64,19.9-3.32,24.19-.26,49.23.75,73.61,1.94,9.37.45,20.72,7.98,27.92,12.4,10.97,24.82,21.62,37.26,32.43,2.28,2.18,3.63,4.68,5.87,6.72,2.1,2.04,5.77,2.53,6.84,5.47.89,3.64.02,8.99,1.19,12.97.14,1.33.41,2.94-1.23,2.95-3.16-.36-6.1.91-9.51.9-7.31-.19-5.27-6.07-.41-8.87,1.94-2.1,12.56-5.29,7.93-8.43-15.53-.31-31.47,3.96-46.79,6.34-4.93,1.07-10.44,2-15.57,2.04-5.02.15-8.08-2.27-12.87-2.31-3.1-.03-6.95,1.33-9.1-1.66-2.35-4.59-3.55-10-3.87-15.14.34-10.2-.44-20.19-1.53-30.32-.24-14.18,2.99-28.95,7.29-41.57,2.38-9.65,6.01-18.85,11.57-27.14,2.95-5.45,8.06-9.89,10.26-15.62-2.46-5.1-12.24,11.32-14.26,13.23-12.99,16.71-18.91,37.61-23.26,57.76-12.34,14.54-8.11,50.55-4.56,69.33,4.87,8.04,9.29,5.23,16.71,8.52,10.44,2.67,21,5.44,31.87,3.43,12.8-.97,24.87-3.6,37.89-5.36,2.93-.24,5.48-1.75,8.26-1.93,5.78-.18,1.19,3.78-1.82,4.92-13.06,6.15-26.65,10.72-39.27,17.89-14.96,9-26.94,22.07-37.75,35.6-6.77,7.77-10.98,17.17-16.59,25.72-1.96,3-4.05,6.06-5.81,9.19-1.71,3.03-3.29,7.04-1.8,10.43.14.33.37.68.72.72.6.05.81-.77.83-1.36.27-8.32,6.89-15.15,11.06-21.86,3.61-6.36,6.75-12.99,11.45-18.61,3.28-4.71,7.31-8.97,10.89-13.44,2.01-2.6,3.42.69,5.09,1.81,1.41,1.77,5.97.25,7.06.36-1.51,1.87-4.5,4.39-6.08,6.5-8.56,9.61-16.04,19.87-23.58,30.26-3.61,5.18-6.84,10.74-11.13,15.35-1.69,1.4-4.38.25-6.05,1.43-10.25,14.5-14.65,48.04-12.03,65.43,1.06,14.73,2.32,29.73,8.81,43.18.63,1.34,1.19,3.06,2.61,3.6.4-.02.46.12.82-.18.77-.88.38-2.07.23-3.14-3.12-9.16-4.65-18.72-5.9-28.29-2.84-21.82-1.64-44.7,6.22-65.35,4.39-11.03,11.8-20.62,18.53-30.27,8.83-12.84,18.37-25.57,29.38-36.59,14.84-5.86,31.17-9.29,44.03-19.43,8.67-6.26,4.05-6.6-1.94-1.15-6.65,4.31-13.22,8.1-20.97,10.1-5.46,1.39-10.69,3.75-15.82,5.73-1.93-.42-.97-3.34-2.07-4.66-.77-2.63-5.43-3.92-5.78-5.77,11.84-12.61,29.51-19.73,45.41-26.16,8.34-3.9,17.19-10.96,23.74-.23,6.01,3.48-.26-4.73-1.64-6.27-1.14-1.13-2.69-1.66-3.59-2.92-.29-.78.76-1.1,1.38-1.26,4.88-.97,7.89,7.92,7.85,11.69-1.43,3.16-5.72,3.36-8.04,5.84-14.43,13.02-28.9,26.53-39.52,43.02-4.78,8.72-12.51,16.52-14.55,26.41-1.01,4.48-3.77,8.51-1.58,13.11,1.26,7.29.69,15.37,1.26,22.8,2.5,47.02,39.71,73.48,83.71,79.03,3.95,0,20.47,2.66,22.59-.92-2.93-3.35-10.57-2.25-14.75-4.13-8.54-1.99-15.49-5.16-23.4-7.32-18.38-5.51-36.18-15.65-47.78-31.28-2.31-5.93-2.13-12.65-3.14-18.98-.48-7.4-2.9-14.47-2.06-21.88.91-8.94,3.43-18.28.97-26.79.84-3.59,5.12-5.28,7.55-7.86,3.45-3.69,7.32-7.34,10.18-11.37,9.69-13.43,17.91-27.66,29.78-39.37,1.26-1.64,4.44-2.69,5.73-3.42,1.32-1.71-4.7-3.19-5.14-5.36-1.17-2.39-.75-6.52.78-8.76,1.15-.59,7.71,6.72,7.93,8.06.97,2.63-.56,5.55-.38,8.12-.63,6.65,6.22,10.78,8.59,16.27,1.45,10.55,1.69,23.02,10.92,29.94,3.29,2.04,6.75.08,9.55-.85,1.49-.04,3.76,1.52,5.91,1.3,9.07-1.87,12.26-14.28,12.2-22.76,0-2.86-2.22-6.12-.14-8.62,5.09-4.15,7.28-5.84,10.2-12.08.68-.71,1.63-.57,2.54-.42,2.45.58,5.41-.25,7.43,1.52,5.03,5.5,6.58,13.24,10.05,19.64,4.57,8.69,10.02,16.94,15.64,24.95,2.46,5.08,8.75,9.16,9.58,14.84-.31,1.56-2.28,3.17-3.76,4.7-18.44,14.6-38.8,22.19-62.83,26.48-1.21.42-2.49,1.15-1.46,2.23,4.44,2.9,10.77,1.2,15.98.73,15.07-1.44,28.69-7.93,41.48-13.99,6.02-2.86,11.51-7.79,18.05-9.35,1.53-.08,1.74,1.6,1.98,2.8,2.5,18.18,1.52,38.34,1.31,56.81-2.27,10.63-7.75,20.19-13.8,29.09-12.2,17.84-29.3,31.57-47.78,42.5-2.14,2.29-15.26,4.88-12.45,8.32,30.51-1.84,60.21-34.56,76.75-58.28,1.91-2.63,2.56-6.99,4.34-9.63,1.18-1.8,2.78-3.25,3.13-5.48,4.09-17.56,2.37-40.11.58-58.47.19-19.16-6.21-12.54,7.91-28.58,10.46-13.9,24.3-31.94,24.48-49.86-1.17-4.05-5.82-4.11-8.74-6.22-2.14-1.37-4.22-2.92-6.32-4.47-14.13-11.71-31.67-18.32-49.38-22.16-3.07-.67-6.19-1.15-9.26-1.82-2.11-.46-4.12-1.35-6.16-2.08-.68-.24-1.47-.55-1.93-1.14-.47-.6-.22-1.13-.97-1.52-1.44-.75-3.02-1.24-4.64-1.42-.36-.04-.8-.02-.97.29-.11.2-.05.46.07.66.44.72,1.5.74,2.12,1.3.77.7.64,1.92.48,2.95-.23,1.5-.36,3.02-.41,4.53-.04,1.33-.13,2.61-1.11,3.64-.9.95-2.36,1.02-3.62,1.36-.25.07-.55.22-.54.48,0,.26.31.39.56.46,1.43.37,2.91.58,4.38.7,4.35.36,10.01.07,13.52,3.13,18.14,10.71,36.58,20.15,56.82,26.12,5.65,2.03-.61,7.77-1.48,11.18-4.99,9.06-9.29,18.37-15.22,26.88-1.71,1.69-4.74,7.83-7.12,3.95-2.08-4.8-4.83-9.08-6.78-13.77-2.83-6.47-7.5-11.94-11.28-17.84-5.85-8.64-11.04-17.83-18.94-24.82-2.23-2.55-5.3-4.13-7.68-6.33-1.58-1.71-2.27-4.32-4.68-5.33-2.75-.8-4.72-2.79-3.47-5.77,2.21-7.59,3.93-14.48,2.79-22.54.15-3.32-2.17-7.82.56-10.21,5.31-4.26,14.16,2.94,10.78,9-.72,1.62-3.13,1.99-4.64,2.35-.93.23-1.82.51-2.72.81-.45.15-.9.32-1.34.45-.37.11-.95.1-.99.62-.02.28.22.53.49.61.55.17,1.36,0,1.93-.04.71-.05,1.41-.1,2.11-.19,1.39-.17,2.76-.47,4.07-.96,2.54-.96,4.91-2.29,7.36-3.45,3.98-1.42,8.48-2.65,11.78-4.23,14.14-5.41,27.98-11.59,41.03-19.21,4.86-2.49,9.29-5.35,13.9-8.11,3-2.06,7.23-3.86,8.48-7.16.19-1.43-1.79-.78-2.78-.04ZM36.35,276.94c.14-.77.89-.88,1.63-1.07.6-.1,1.55-.57,2.04-.31l.1.1c1.27,2.03.61,4.1-.41,6.07-.23.42-.33.77-.77.97-.6.29-1.38.23-2.02.42-.38,0-.54-.23-.59-.62,0-1.8-.08-3.74.03-5.56ZM30.62,199.88c1.21-6.92,4.29-12.88,6.5-19.35l.05-.16c.54-2.56,2.15-4.72,3.07-7.31.87-2.17,2.05-4.18,3.19-6.08.21-.3.33-.41.37-.3-.26,3.55-2.64,7.11-3.84,10.28-1.12,4.23-1.75,8.63-3.01,12.81-1.65,5.13-3.48,11.56-4.22,17.91-.29,1.49.04,6.03-2.31,4.47-.76-.75-.97-2.04-.95-3.13.13-3.26.59-6.34,1.15-9.16ZM22.36,275.26l-.1-.04c-.56-.25-.76-.96-.86-1.6-.42-5.22.65-11.94-1.07-17.39-2.54-12.11.11-29.77,3.55-39.22.48-1.31,1.12-2.82,2.71-2.83,1.92-.16,4.54-.28,4.63,2.33-.04,1.82-1.63,3.68-1.39,5.91.18,12.13.72,23.03,3.21,32.63.69,2.26.56,4.97.95,7.18.33,2.34,1.27,4.51,2.08,6.71.45,1.89-1.96,2.49-3.41,2.72-3.34.53-5.58,1.61-7.95,2.91-.7.36-1.61.88-2.35.68ZM34.41,280.57c-.19.79-.28,1.89-.92,2.33l-.13.07c-.96.28-2.13-.06-3.03-.28-2.1-.69-4.09-1.82-5.32-3.65-.25-.63.84-1.01,1.28-1.07,1.08-.11,2.17-.24,3.25-.35.93-.11,2.11-.44,3.04-.29,1.53.25,2.15,1.86,1.84,3.24ZM34.93,274.59c-.74-.03-1.34.21-1.95.49-.45.2-.91.42-1.42.56-.53.13-1.22.06-1.78.07-.25,0-2.93-.04-2-.93.41-.39,1.03-.64,1.46-.97.4-.33,1.2-.32,1.71-.4.66-.11,1.31-.18,1.97-.24.57-.05,1.16-.09,1.74-.11.63-.02.8,0,1.23.45.86.92-.19,1.12-.97,1.09ZM109.98,283.26c.16.51.2.9-.03,1.2l-.06.07c-.4.51-1.93.67-2.82.71-8.41.32-15.82,2.15-23.19,3.54-3.23.05-6.05.57-9.22,1.06-3.78.11-7.61,0-11.39.05-6.83-.03-15.26-.04-22.04-1.89-1.76-.54-3-1.11-4.41-1.77-.26-.12-.53-.32-.62-.53-.06-.17.11-.3.47-.42.49-.17,1.24-.4,1.81-.62,2.13-.71,3.09-3.16,3.27-5.43.18-1.06.02-2.53.82-3.3.43-.3,1.42.56,2.14.58.19,0,.35-.06.48-.15.6-.39.19-1.84.72-2.23.62-.37,1.48-.12,2.23-.02,4.68.97,10.42,2.96,15.73,2.75,2.31-.12,3.96-1.06,6.01-1.29,3.5-.13,6.82-.23,10.27-1.26,4.17-.85,8.06-2.13,12.17-2.59,2.34-.14,4.7-.11,6.96-.7,5.64-1.48,11.5-2.77,18.26-3.11.76-.06,2.08-.02,2.52.18.97.42-1.22,1.44-1.62,1.66-3.08,1.33-5.57,4.17-7.71,6.75-.6.76-1.28,2.01-1.4,2.92-.33,1.31.28,2.8.66,3.82ZM14.78,397.91l-.09.13c-1.46,2.16-2.44,4.19-3.61,6.51-.99,2.46-1.23,5.37-2.22,7.83-4.17,11.51-5.38,25.63-5.25,41.46-.04.82.09,3.01-.35,2.8-1.46-4.43-.69-11.17-.67-16.11-.08-9.56,1.93-19.86,4.6-28.1.49-2.54.89-4.99,1.79-7.34.65-3.57,2.11-6.83,3.67-10.22.29-.68.59-1.39,1.04-1.96.89-1.17,2.66-1.82,3.24-.5.36,1.37-1.3,4.02-2.15,5.5ZM58.18,333.5c-.17.39-.36.86-.77,1.06l-.16.07c-1.46.2-2.96-.12-4.22-.69-.3-.21-.44-.54-.49-.91-.03-1.6.21-3,.73-4.38.32-.67,1.3-.8,1.92-.45.48.29.61.99.78,1.5.31.92.74,1.69,1.48,2.33.55.42.98.88.74,1.46ZM62.01,328.08l.08.11c.14.23.12.61.12,1.02-.04.54.15,1.35-.32,1.69-.25.13-.59.26-.84.43-.41.56-.38.96-.76.25-.65-1.43-2.05-2.26-2.78-3.65-.33-.85.38-.9,1.14-.67,1.01.29,2.51.34,3.35.82ZM278.28,157.98c1.56.14,3.3,4.85,4.68,6.05l.13.13c1.48,1.2,2.04,2.85,3.39,4.25,1.21,1.35,2.1,3.19,2.27,4.98.03,1.11-1.19,2.35-1.79,3.2-.85,1.19-1.27-.37-1.56-1.2-1.62-5.76-4.45-11.07-6.8-16.14-.16-.37-.47-1.02-.33-1.27ZM254.62,129c-.09-.14-.33-.47-.31-.6l.03-.04c2.48,1.13,4.22,2.97,4.74,5.84.11.61-.28,1.21-.85.6-1-2.26-2.26-3.95-3.61-5.8ZM249.02,177.59c.77-2.93,2.13-5.39,2.94-7.98l.05-.16c.84-2.68,1.11-5.87,2.08-8.45,1.14-3.25,2.29-6.05,3.37-9.3,1.06-4.23,1.81-8.59,2.81-12.84.75-3.09,2.6-5.08,3-8.19.42-2.74.73-5.62,1.17-8.33.42-2.09,1.35-3.83,1.76-5.91.41-2.4,1.07-4.15,2.33-5.9.96-1.49,1.31-3.41,2.95-4.17,2.89-.92,6.24-.57,5.93,3.22-.15,10.09-1.68,18.06-3.75,26.7-.54,2.73-.4,5.78-1.08,8.53-.44,1.25-1.01,2.53-1.3,3.63-.54,4.5-2.21,9-3.36,13.44-2.04,5.62-3.54,11.48-6.22,16.83-.73,1.41-1.09,3.83-3.09,3.79-1.35-.04-3.27-2.06-4.81-2.47-1.01-.33-2.11-.21-3.09.16-.63.23-1.41.45-1.82-.11-.35-.67-.05-1.73.11-2.5ZM248.87,197.14l-.15-.09c-1.42-.96-3.14-1.7-3.88-3.39-.63-1.46-1.26-3.28-.7-4.61.94-3.12,3.36-5.55,6.64-6.08,2.51-.58,5.54.54,6.98,2.5.61.92.54,2.22.37,3.51-.41,2.11.07,4.69-1.37,6.43-1.97,1.46-5.39,3.12-7.89,1.72ZM227.52,196.18l.06-.06c.18.03.66-.06.86.06.11.32.25.7.18,1.04-.09.39-.44.49-.75.64-.12.03-.27.23-.32.17-.08-.45,0-1.39-.03-1.85ZM177.91,121.76l.06-.07c.38-.39,1.55-.03,2.16.21,6.66,2.58,12.71,7.94,17.42,12.65,1.79,1.84,3.45,3.89,5.25,5.75.26.3.91,1.17.79,1.28-.37,0-1.29-.94-1.68-1.31-2.43-2.23-4.97-4.39-7-6.94-3.5-3.11-7.49-3.69-12.89-4.11-.95-.06-2.18-.24-2.74-.76-1.13-.96-.52-2.71-.99-4.24-.14-.77-.71-1.72-.37-2.46ZM164.14,122.53c.79-1.89,2.95-2.44,4.6-3.37l.14-.08c3.88-2.13,4.07,4.5,6.38,5.94,1.34.6,1.8,1.49,1.34,2.92-.7,2.13-1.86,3.88-3.67,4.92-1.2.51-2.27.11-3.43.04-1.21-.03-2.59.29-3.57-.63-2.65-2.27-3.3-6.6-1.79-9.73ZM148.87,133.02c2-2.07,3.68-4.81,6.04-6.49l.16-.08c1.55-.54,2.55-1.78,3.98-2.6.68-.39,1.64-.56,1.97.35.47,1.6.5,3.41.75,5.08.23,1.48-.83,2.04-2.18,2.01-3.97.05-7.43.43-9.75,2.1-.86.62-2.13,1.14-.97-.38ZM133.71,149.84l.09-.13c3.66-5.25,8.18-10.04,13.8-13.21,3.97-2.16,7.85-4.07,12.49-3.97,3.98.22,6.09,3.59,9.87,3.57,1.66-.09,3.48-.75,4.89-1.62,1.65-.97,2.69-2.61,4.61-3.27,1.14-.42,2.52-.48,3.78-.32,9.2,1.13,12.96,6.75,18.84,12.08,1.63,1.86,2.89,4.48,4.84,5.9.11.07.19.07.24,0,.2-1.36-1.44-3.07-1.79-4.31-.37-.89.1-.91.71-.33.95.82,1.68,2.08,2.49,3.1,1.98,2.23,3.8,4.4,5.25,6.94,1.55,2.39,3.49,4.82,4.2,7.61-.06,1.49-1.68-.87-2.03-1.41-1.21-1.84-2.99-3.4-4.56-4.92-2.63-2.66-5.59-3.96-8.88-5.84-5.2-3.78-12.94-7.19-20.7-5.64-3.13.93-4.57,4.32-7.3,6.23-1.94,1.56-4.88,2.99-6.81,1.01-1.6-2.2-1.42-4.65-4.98-4.77-9.97-.18-21.41.1-27.16,4.39-1.47,1.1-3.89,1.94-1.88-1.09ZM122.92,169.14l.07-.15c.77-1.51,1.25-3.31,2.16-4.91,1.37-2.07,3.6-3.52,5.14-5.47,6.47-7.46,16.18-10.4,29.66-10.66,1.34,0,2.54.2,3.6.94,2.49,1.92,3.15,5.59,7.01,5.3,2.58-.08,5.46-1.87,7.45-3.72,2.39-2.43,3.97-4.8,7.56-4.47,4.25.13,8.37.61,11.46,1.98.75.35,1.39.85,2.03,1.36,1.65,1.43,3.87,2.41,5.66,3.87,2.37,2.24,5.57,3.34,7.83,5.72,2.07,2.05,3.1,5.04,4.93,7.19.63.79,1.25,1.6,1.78,2.46,1.31,2.27,2.54,2.69,3.47,4.59.7,2.01,1.3,4.32,1.9,6.37.14.55.3,1.29.11,1.76-.13.21-.58.09-1.05-.45-.78-.96-1.55-2.5-2.44-3.57-2.07-3.64-4.83-6.11-8.21-8.5-4.67-3.86-10.48-6.23-16.06-8.49-4.01-.84-9.69-2.46-13.44-.54-3.4.97-5.5,3.91-8.53,5.68-.77.45-1.51.72-2.41.46-.49-.14-.99-.41-1.48-.25-.9.31-.99,1.49-2.08,1.29-.97-.18-1.65-1.15-2.27-1.85-.9-1.01-2.2-1.55-3.54-1.83-6.3-1.12-13.86-1.91-20.27-.53-3.28.88-6.34,2.61-9.42,3.78-3.1,1.02-5.37,2.85-8.27,4.69-1.16.66-2.22,2.2-3.43,2.35-.82-.52.55-3.26,1.1-4.38ZM115.84,191.09c1.96-12.64,12.15-20.64,22.58-24.78l.17-.05c7.21-1.51,16.47-3.6,23.52-1.33,2.2.67,3.71,2.4,5.35,3.87.71.63,2.44,1.28,3.17.41.27-.31.45-.7.79-.92.65-.42,1.45-.05,2.15-.26.85-.25,1.76-.78,2.55-1.19,1.39-.73,2.34-2.04,3.55-3,1.63-1.21,3.34-2.08,5.26-2.74,4.65-1.39,9.22,1.15,13.61,2.15,6.36,2.07,12.11,6.24,17.19,10.7,4.06,4.66,7.56,10.09,8.93,16.16.95,5.44-7.61-5.05-8.82-5.46-1.92-1.41-4.56-2.6-6.16-4.08-.59-.5-1.17-.98-1.88-1.31-4.66-1.84-10.26-3.01-15.35-2.63-5.12.97-8.35,3.55-12.94,5.46-1.84.99-3.93,2.21-5.92.79-.66-.48-1.33-1.21-2.11-.99-1.23.35-1.01,2.25-1.95,2.95-1.55,1.18-3.93.22-5.28-.75-2.71-1.93-4.6-5.22-8.16-5.78-3.36-.36-6.29-.84-9.66-.33-1.81.19-4.02-.06-5.78.19-9.2,1.93-17.87,6.73-23.95,14.08-1.09,1.2-.93,0-.86-1.18ZM80.32,110.07c2.5-3.78,5.55-7.55,8.3-11.22,6.19-9.57,10.94-19.7,15.52-30.12,6.34-11.84,13.44-23.42,22.35-33.57,2.37-2.69,5.05-5.27,7.43-7.97.44-.47,1.71-1.53,1.78-1.21-.82,2.49-3.69,5.04-5.19,7.34-2.79,4.48-5.51,9.03-8.25,13.53-3.67,7.4-6.64,14.93-10.27,22.35-8.32,13.62-15.04,28.24-25.5,40.4-1.18,1.11-2.38,5.16-4.21,4-.73-.84-2.08-2.24-1.98-3.43l.02-.1ZM75.11,113.62c.09-.19.22-.4.35-.56l.11-.11c.59-.43,1.37-.42,2.11-.61.83-.1,1.75-.6,2.52-.17.55.43.64,1.36.91,1.95.55,1.57,1.13,2.84,1.19,4.76-.22,1.95-2.87-.42-3.64-.88-.9-.75-2.22-1.39-3.5-1.95-.92-.52-.34-1.57-.06-2.43ZM71.38,200.38l-.09-.04c-.51-.23-.69-1.58-.72-2.36-.21-4.07-.4-8.18-.61-12.26-.12-2.27-.94-4.19-1.1-6.39-.24-5.24.31-10.62-.35-15.82-2.21-11.53-1-28.83.86-41.74.33-2.58,2.83-3.24,5.42-2.83,2.81.47,4.69,3.04,5.91,5.4,1.21,3.34.65,7.27,1.1,10.69,1.6,16.45-1.1,34.66,2.61,49.61.47,3.1.1,6.95.81,9.68.33,1.72,1.38,4.39.44,5.87-.61.65-1.66.1-2.4-.2-3.01-1.39-6.73-2.39-9.52-.5-.73.41-1.65,1.12-2.36.9ZM72.67,207.07c.04-1.22-.18-2.92.34-3.92l.07-.13c.98-1.67,3.05-3.11,5.1-2.78,2.02.62,4.3,1.15,5.57,2.73.5.9.39,2.06.34,3.08-.16,2.33-.4,3.79-1.42,5.46-.61.87-1.7,1.12-2.72,1.11-1.31-.04-2.8.13-3.77-.29-.83-.36-1.6-.88-2.35-1.39-1.35-.81-1.17-2.45-1.17-3.87ZM112.51,250.57l-.12-.11c-1.68-1.3-3.18-2.71-4.91-4.18-1.43-1.1-3.05-1.96-4.31-3.51-1.26-1.7-3.01-2.84-4.75-3.97-2.47-1.63-4.25-4.55-6.42-6.54-1.12-.97-2.34-1.75-3.5-2.67-1.62-1.27-3.31-3.07-4.93-4.47-3.12-2.24-5.9-4.61-8.62-7.28-.63-.61-1.78-2.32-.8-2.06,1.01.37,2.8,2.06,3.87,2.25,1.45.25.3-1.84.82-2.55.47-.92,2.92-.88,4.37-1.98,2.02-1.09,2.33-4.56,4.8-4.74,2.12.31,3.9,2.48,5.33,3.89,2.93,2.63,5.94,5.14,9.11,7.51,3.57,3.53,6.46,7.47,9.38,11.47,1.41,1.8,1.97,4.2,3.01,6.08,2.01,4.7,5.32,8.88,7.46,13.56.42,1.29.27,2.94-.88,3.81-3.2,2.01-6.72-2.55-8.9-4.52ZM127.15,262.96l-.11.09c-.14.11-.32.12-.52.08-1.88-.77-3.74-2.13-5.19-3.58-.38-.37-.96-.84-.62-1.36,1.07-1.27,2.31-2.33,3-3.94.18-.28.44-.59.77-.64,1.65.08,3.15,2.01,3.4,3.43.13,1.2,0,4.21-.75,5.93ZM72.59,378.93c.25-.11.54-.27.72-.46l.11-.11c.34-.36.56-.64,1.16-.54.79.24,2.12.32,2.67.95.17.17.19.79.17.84-.11,2.11-.98,3.49-2.26,5.12-.27.43-1.02.76-1.41.72-.96-.1-2.14-.26-2.77-.99-.3-.47-.26-.9-.29-1.3-.02-1.84-.1-3.52,1.89-4.22ZM88.64,447.98l.14.08c1.64.97,2.33,2.91,3.7,4.26,3.22,3.02,6.48,6.07,10.11,8.59,3.65,2.68,7.09,5.67,11.39,7.27,1.4.71,2.62,1.7,3.94,2.43,2.44.97,4.67,1.83,7.09,3.04,2.24,1.27,4.98,2.02,7.5,2.77,2,.91,3.87,1.87,6.04,2.34,1.96.52,3.55,1.41,5.59,2.02,6.9,1.7,13.93,3.01,20.71,5.08.37.11.83.34.78.74-.05.38-.53.52-.91.54-3.53.24-5.74-.67-9.97-1.43-3.13-.57-6.3-.97-9.36-1.78-2.46-.76-4.87-.87-7.34-1.45-1.7-.54-3.43-1.11-5.14-1.69-4.14-1.41-8.32-2.35-12.15-4.5-1.94-1-4.21-1.52-6.23-2.39-3.1-1.95-6.59-3.72-9.43-5.8-2.17-1.15-4-2.7-5.94-4.39-2.43-1.53-4.21-3.41-6.25-5.58-1.89-1.81-4.22-3.39-5.86-5.37-1-1.28-2.43-2.77-2.08-4.3.29-1.03,2.46-1.19,3.66-.46ZM85.13,429.13l.05.16c1.32,3.56.11,8.14,1.05,11.46.26,1.07.72,2.32.6,3.37-.05.65-.56,1.25-1.17,1.31-3.2.17-5.41-4.08-6.33-6.87-.66-2.29-1.91-4.81-2.65-6.9-1.44-4.07-2.33-8.17-3.35-12.4-1.26-9.12-1.71-18.39-2.68-27.56-.17-1.42-.11-3.01,1.27-3.74,2.22-.97,4.73-1.69,6.43-3.57,1.01-1,1.76-2.33,1.91-3.82.32-2.1-1.47-4.01-.81-4.63,1.86-1,4.2,1.04,4.33,3.23.76,6.02.34,12.63-.87,18.24-.28,1.41-.46,2.81-.51,4.27-.28,3.87.22,7.56.94,11.35.09,1.19.03,2.46.04,3.66-.1,3.22,1.06,5.22,1.01,8.38,0,1.4.31,2.74.73,4.05ZM134.45,313.37l.02.11c.09.68-.5,1.48-1.35,2.38-3.94,4.16-7.91,8.32-11.84,12.48-3.68,4.87-6.69,9.8-10.46,14.48-2.14,3.27-4.16,6.54-6.53,9.64-2.21,2.91-4.28,5.83-6.55,8.75-1.35,1.41-3.01,2.52-4.33,3.97-1.25,1.24-2.21,2.71-3.6,3.73-2.29,1.5-4.22,3.66-6.93,4.43-2.18.56-4.44,1.04-6.64,1.55-1.19.21-2.79.58-3.56-.58-1.75-5.48,4.73-10.07,6.81-14.55,1.2-3.18,3.14-5.5,4.89-8.24,2.35-3.26,4.22-6.84,6.79-9.95,1.88-3.29,4.94-5.87,6.97-9.08,1.62-2.43,4.75-4.01,6.38-6.56,2.66-4.46,7.17-7.58,11.2-10.77,1.98-1.96,3.75-4.26,5.78-6.18,1.94-1.56,3.83-2.68,5.64-4.49.89-.77,2.3-2.11,3.42-2,.25.06.44.2.56.42.78,1.46.11,4.9.88,6.83.33,1.5,2.01,2.27,2.43,3.64ZM141.47,303.05l-.04.04c-2.42-.12-4-3.75-5.34-5.52-5.79-7.18-6.87-16.7-7.95-25.54.6-3.57.82-7.53,1.4-11.06.36-2.03,1.84-4.76.2-6.53-10.41-8.73-16.56-20.38-16.93-34.77.3-5.97-1.41-12.64,1.74-17.96,2.39-3.11,3.01-6.98,5.22-10.09,5.82-6.45,22.97-14.24,34.12-11.73,5.19.48,7.41,5.57,11.65,7.55,2.2.73,4.36-.4,6.29-1.33,1.87-.88,4.86-.54,6.84-1.24,4.53-2.29,8.95-4.61,13.98-5.68,6.7-2.05,13.01,2.19,18.72,5.32,12,6.79,18.76,20.69,16.52,34.38-.41,3.23-1.05.77-.97-.97.11-18.73-19.59-28.2-36.24-25.01-3.3.59-6.35,2.04-9.25,3.66-1.87,1.04-5.15,4.42-7.33,2.78-.69-.52-1.27-1.43-2.12-1.32-.55.09-.95.59-1.19,1.1s-.42,1.06-.83,1.44c-1.53,1.39-5.88-3.32-7.46-3.82-9.34-5.48-20.25-4.48-29.72-.1-23.33,10.81-15.79,45.61.83,59.5,1.85,1.5.39,3.67.08,5.53-.33,3.6-.7,7.65-1.2,11.13.12,9.37,2.04,19.71,7.83,27.33.46.96,1.6,1.95,1.15,2.92ZM227.54,228.75c-.1.49-.47,1.32-.65,1.88-.12.28-.17.65-.4.8-.19.12-.72.12-.82,0-.08-.49.44-1.33.57-1.88.12-.28.17-.66.4-.8.2-.13.71-.11.85-.07l.05.07ZM214.18,214.12c-.2-1.43-.51-2.85-.91-4.24-.19-.65-.4-1.29-.63-1.92-.71-1.97-2.04-3.45-3.25-5.14-.7-.94-1.17-1.68-1.03-1.84l.03-.03c.09-.05.31.03.64.21,3.75,2.43,5.85,4.67,7.05,9.06,1.14,4.16,1.24,8.53,1.32,12.81.11,5.86-1.8,10.89-4.34,16.1-3.77,6.68-9.11,12.71-15.23,17.28-2.1,1.57-4.04,3.33-6.25,4.74-.15-.03.03-.51.46-1.21,1.37-2.26,3.29-4.35,5.13-6.16,2.05-2.62,4.07-5.11,5.92-7.88,6.49-9.36,12.77-19.99,11.09-31.79ZM210.81,210.18c.26.67.48,1.33.63,1.97,1.25,5.15.64,11.6-1.4,16.47-1.08,2.58-2.38,5.07-3.77,7.5-1.3,2.27-2.55,5.03-4.24,7.03-1.89,2.26-4.11,5.12-5.69,7.63-1.88,2.07-.78-.52-.07-1.43,1.89-2.47,3.46-5.04,4.94-7.79.91-1.68,2.04-3.16,2.78-4.95.72-1.73,1.3-3.62,1.84-5.43.82-2.72,1.32-5.62,1.73-8.42.43-2.92.51-5.88.22-8.82-.4-4.09-1.74-7.19-3.96-10.61-.39-.6-1.4-2.05-1.23-2.36.41-.29,1.24.47,1.69.75,2.75,1.78,5.22,5.19,6.5,8.46ZM199.92,264.09c1.76.37,2.07,3.79,2.25,5.14.35,2.6.43,5.29-.14,7.85-.03.15-.07.3-.1.46-1.13,4.92-2.08,9.82-4.41,14.35-1.04,2.72-2.14,5.4-3.84,7.74-.85,1.47-1.92,2.8-3.27,2.68-1.04-.05-2.19-.66-2.57-1.63-.53-1.41.25-4.13.76-5.85.76-2.36,2.45-5.02,3.35-7.41,2.29-6.1,3.51-10.99,3.91-17.75-.14-2.4,2.04-5.47,4.05-5.58ZM193.38,272.18c-.33,6.04-.53,6.26-1.93,11.22,0,0-2.25,5.29-2.64,6.34-.3.81-.74,2.35-1.67,2.61-.7.19-1.42-.25-1.97-.73-1.63-1.46-4.93-6.44-6.11-8.05-1.15-1.57-3.02-3.47-4.14-5.07-.77-1.1-.84-2.46.63-2.98,5.2-1.84,11.3-2.74,15.24-5.84.55-.38,1.34-.94,1.93-.64.8.54.71,2.16.67,3.14ZM184.05,299.81c-.31.1-.38-.39-.47-.59.1-1.23-1.24-.59-1.81-.85l-.08-.08c-.27-.83.34-.91,1.09-.86.46.06,1.36-.13,1.66.12.11.4,0,1.93-.4,2.26ZM177.8,288.78c-1.07-.74-2.66-.87-3.81-.27-.35.15-.7.32-.97.39l-.13.03c-1.44.11-.65-4.25-.85-5.37.12-1-.32-3.94.39-4.17,1.76.64,2.74,2.93,3.76,4.47.86,1.54,1.74,3.09,2.83,4.41.3.4.77,1.17.65,1.56-.19.36-.91-.5-1.85-1.05ZM178.6,297.14l-.08.11c-.39.33-.97.02-1.47-.05-1.4-.4-2.81-.36-4.36-.72-.87-.33-.76-1.77-.47-2.44.26-.38.86-.89.99-1.22.59-1.17,1.04-2.77,2.51-3.07,1.27-.17,1.51,1.32,1.83,2.19.51,1.57,1.42,3.34,1.04,5.2ZM169.28,293.66c-.07.85.17,1.82-.16,2.59-.49.59-1.42.29-2.2.36-.8-.12-2.23.4-2.41-.62.12-1.45.47-3.07.72-4.5.11-.43.46-.7.86-.87.53-.2.9-.64,1.47-.7.72,0,.96.63,1.47.95l.09.1c.35.76.09,1.8.16,2.7ZM166.41,300.48l.08-.09c1.27-.14,2.93-.03,4.25-.04.43.06.54.69.15.88-1.29.14-2.83.04-4.15.05-.36-.08-.49-.53-.33-.8ZM170.94,283.29c-.12.55-.27,1.1-.43,1.64-.36,1.25-.3,1.81-1.67,2.27-1.58.53-3.31.4-4.89.94-1.4.47-2.59,1.51-3.32,2.79-.66,1.17-.69,2.58-1.81,3.47-.86.68-2.26,1.25-3.36,1.27-1.87.03-.94-1.99-.47-3.02,1.77-3.86,4.31-7.35,7.43-10.24,1.68-1.56,3.53-2.93,5.5-4.09.81-.47,1.74-.96,2.49-.14.59.66.8,1.58.82,2.45.02.9-.1,1.79-.29,2.67ZM158.69,303.17c-.32.11-.7.25-1.04.18-.4-.09-.49-.44-.64-.76-.04-.12-.24-.28-.17-.32.45-.08,1.39,0,1.85-.03l.06.06c-.03.18.06.66-.06.86ZM156.16,299.21c-.46.16-.9.65-1.32.96l-.15.09c-.67.26-.84-.13-.38-.66.52-.63.9-1.56,1.57-1.99.47-.23,1.15-.11,1.73-.14.75.04,2.88-.28,1.94,1.03-.96.82-2.3.24-3.38.72ZM136.51,255.07c-.19-.17-.38-.33-.56-.5-2.63-2.3-5.36-4.7-7.33-7.62-4.66-6.92-9.76-18.73-7.79-28.48-.03-6.1,2.39-11.63,6.78-15.9,2.78-2.02,5.75-4.06,8.93-5.39,2.4-.76,2.28.43.82,1.56-2.85,2.33-6.59,4.32-8.75,7.41-1.19,1.72-2.03,3.49-2.6,5.48-.92,3.48-1.41,7.12-1.42,10.72-.02,6.22,1.97,12.38,4.88,17.81,3.24,6.07,7.46,11.63,12.52,16.3,2.54,2.35,5.33,4.04,8.07,6.07,3.12,2.31,6.1,4.8,9.24,7.09.19.14.37.27.56.4.48.34,1.4,1.19,1.41,1.4.06.18-.24.16-.79.03-1.63-.43-3-1.72-4.42-2.46-2.46-1.12-4.99-2.31-7.02-4.06-1.84-1.28-3.94-2.49-5.62-4.17-1.08-1.02-2.33-1.66-3.43-2.63-1.16-1.02-2.31-2.03-3.47-3.05ZM137.58,260.35c-.05.34-.15.68-.19.87-.4,2.24-.73,4.49-1,6.75,0,1.88-.41,3.83-.54,5.71-.13,1.82-.21,3.6-.4,5.42-.02.16-.07.35-.22.37-.1.01-.19-.06-.26-.14-.52-.57-.54-1.56-.6-2.29-.07-.84-.06-1.69-.07-2.53,0-1.46.11-2.91.23-4.37.28-3.4.85-6.85,1.84-10.11.13-.42.43-1.1.98-.76.3.19.3.64.23,1.08ZM137.58,224.7l.02.18c.59,5.98,3.62,13.97,6.64,19.3,1.7,2.65,4.16,4.79,5.46,7.67.46,1.53-.96-.55-1.33-.9-2.28-2.57-3.97-5.11-5.78-7.88-2.3-3.54-4.78-6.82-6.65-10.62-1.35-2.75-3.1-6.31-3.3-9.46-.62-9.5,1.22-17.47,9.43-21.18,1.17-.4,0,1.36-.33,1.84-4.83,5.8-4.96,13.71-4.16,21.06ZM130.31,222.68c.08.82.19,1.64.35,2.45.56,2.83,1.81,6.05,3.23,8.51,1.79,3.09,2.97,5.23,4.74,8.17,2.59,3.64,4.84,7.39,7.64,10.91,1.91,2.53,4.02,4.98,5.97,7.52.36.45,1.56,1.52,1.4,1.82-.14.25-5.56-3.63-6.08-3.98-2.27-1.54-4.31-3.76-6.22-5.71-1.96-2.01-3.37-3.38-5.12-5.57-1.67-2.11-3.45-4.76-4.56-7.27-1.78-4-3.47-8.09-4.09-12.44-.55-3.84-.4-7.77.16-11.6.39-2.68,1-5.42,2.47-7.73,1.38-2.17,3.65-3.85,5.6-5.48.5-.37.81-.51.87-.32-.17,1.3-1.2,2.24-1.9,3.27-.72,1.05-1.37,2.23-1.92,3.38-2.05,4.34-2.98,9.29-2.53,14.09ZM143.93,267.61c.02-1.01.16-2.14.66-2.45,0,0,.08-.05.08-.05.45-.3,1.22.17,1.72.48,5.01,3.3,10.66,7.99,17.29,9.3.87.19,2.26.6,2.44,1.41.06.27-.05.55-.28.85-.96,1.13-2.26,1.91-3.38,2.86-1.13.97-2.17,2.05-3.14,3.19-1.96,2.3-3.62,4.82-5.27,7.34-.54.82-1.43,3.23-2.67,3.12-1.03-.09-1.67-1.73-2.03-2.52-1.17-2.58-2.65-4.94-3.32-7.69-.68-2.82-1.2-5.67-1.56-8.55-.24-1.9-.4-3.81-.5-5.72-.02-.31-.05-.91-.04-1.56ZM162.49,301.31l.08.08c.22,1-.4,1.12-1.2,1.1-.47.03-1.62-.83-1.62-1.16.75-.09,1.97-.06,2.75-.02ZM147.11,304.17c-.72-.31-1.3-1-1.8-1.61-1.07-1.31-2.08-2.68-2.91-4.16-.81-1.44-1.33-2.71-1.76-4.33-.92-3.42-1.61-6.89-2.37-10.34-.59-2.72-1.47-7.62-1.19-10.38.34-3.4.76-6.8,1.16-10.2.08-.73.01-2.78,1.18-2.71.78.05,1.53.94,1.99,1.49,1.29,1.57,1.2,3.33.85,5.25-.77,4.26.15,8.5.96,12.68.79,4.06,2,8.12,4.03,11.74.53,1.4,1.33,2.62,2.16,3.8.86,1.4,1.18,3.12,1.34,4.73.1.95.11,1.82-.25,2.54-.45.91-1.55,1.67-2.58,1.67-.29,0-.56-.06-.81-.17ZM167.89,361.42l-.11.07c-1.71.75-4.43.55-5.89-.83-.63-.66-1.04-1.54-1.64-2.25-3.71-4.46-4.94-10.12-6.17-15.7-.17-.94-.14-2.08-.33-2.99-.22-1.51-2.04-6.75.74-6.45,3.7,1.33,7.05,2.73,11.89,3,1.2.09,2.74.21,3.4,1.3.38.59.47,1.51.49,2.27-.05,5.98.92,18.56-2.36,21.58ZM185.24,351.73l-.08.13c-.9,1.22-1.55,3.23-2.33,4.79-1.06,1.64-2.48,3.35-4.04,4.5-1.4.88-3.35.74-4.28.08-3.55-3.7-2.58-14.92-2.52-22.12.07-1.06.3-1.99,1.29-2.43,3.32-.77,7.8-.63,10.38-2.1,2.09-1.12,2.75-.33,2.85,1.89-.05,5.31.95,10.79-1.26,15.25ZM188.9,329.88c-8.83,5.08-21.88,6.49-31.33,2.92l-.16-.08c-2.66-1.51-6.15-3.1-7.83-5.48-1.74-3.6,1.26-8.55,4.65-10.11,2.31-1.31,4.88-2.2,7.75-2.39,1.75-.31,3.3-.88,5.1-.97,7.03.04,15.96,1.46,20.87,3.82,1.5.86,2.5,2.32,3.84,3.45.96.79,1.86,1.58,2.09,2.43.43,2.6-2.76,4.88-5,6.4ZM196.83,319.62l-.06.12c-1.69,2.34-1.62-2.53-1.44-3.71.11-1.33.11-2.79-.28-4.01-.54-1.72-1.8-3.09-2.84-4.52-.54-.77-1.41-1.87-.31-1.28.4.23.97.59,1.33.97.78.78.74,2.05,1.55,2.73.36.35.79.68,1.01,1.15.34.74.26,1.77.63,2.36.6.97.76,2.05.69,3.25-.04.97.15,2.1-.29,2.93ZM244.5,391.66c-1.52,1.32-3.95,1.65-5.34,3.18l-.13.11c-1.97,2.2-5.5,3.04-7.76,4.44-6.5,3.57-13.36,6.02-20.21,8.63-4.02.71-7.04,2.49-11.29,3.23-1.21.21-2.4.57-3.6.84-1.3.29-2.63.47-3.93.69-1.67.29-3.36.57-5.05.38-.37-.05-.85-.22-.85-.6,0-.13.14-.2.27-.24.73-.21,1.49-.21,2.24-.29,1.1-.11,2.18-.36,3.21-.76.97-.36,2.03-.53,3.03-.76,1.09-.24,2.17-.49,3.23-.78,1.03-.3,1.99-.76,3-1.09,5.08-1.61,10.01-3.6,14.83-5.81,7.76-3.13,14.59-7.77,21.5-12.31,1.91-1.49,4.48-3.03,6.43-.75.49.42.9,1.34.43,1.87ZM251.22,388.97l-.11.09c-2.14.44-4.55-.28-6.64-.66-.9-.27-.67-1.3-.56-2.1.2-1.44,1.21-3.86,2.9-3.76.93.1,1.31,1.03,1.71,1.75.43.76.91,1.4,1.54,1.99.82.62,1.87,1.69,1.17,2.7ZM255.34,389.92c-1.56-2.83-4.23-6.96-6.72-10.12-1.42-2.05-2.93-2.89-3.88-4.64l-.04-.12c-.4-2.51,3.62-.27,4.74.05,1.97.72,3.03,1.64,4.08,3.1.88,1.18,2.25,1.73,3.41,2.56,1.42,1.03,2.05,2.9,3.07,4.39.82,1.21,1.4,2.82.05,3.92-.97.74-2.77,2.39-3.76,1.93-.41-.19-.72-.64-.96-1.06ZM260.92,391.66c.08-.13.13-.25.22-.31.11-.14.6.08.62.1.22.1.52.23.74.18.38-.06.72-.4,1.19-.37l.08.05c.11.12,0,.5-.07.89-.26,1.08-.36,2.32-.74,3.35-.18.33-.56.42-.78.66-.24.23-.33.59-.69.7-.56.09-1.77.2-2.27-.11-.35-.95-.15-2.34.15-3.21.28-.69,1.29-1.18,1.55-1.92ZM259.22,463.3c-.1.76-.4,1.49-.63,2.2l-.06.15c-1.05,3.11-3,5.72-4.83,8.38-2.01,3.14-4.22,6.17-6.66,9.05-1.91,2.27-3.54,4.74-5.73,6.76-1.33,1.75-2.41,3.72-4.24,5.05-3.01,2.42-5.37,5.67-8.11,8.43-2.47,1.89-4.79,3.25-6.8,5.66-2.54,2.05-5.27,3.67-7.81,5.69-2.13,1.86-4.67,3.14-7.1,4.62-2.41,2.1-5.38,3.24-8.33,4.51-.85.57-5.26,2.49-3.11.34,2.1-1.41,4.31-2.36,6.48-3.85,4.68-3.24,9.4-6.3,14.03-9.7,5.41-4.89,10.81-9.82,16.21-14.72,1.51-1.29,2.46-3.1,3.57-4.59,4.24-4.73,7.44-9.9,11-15.04,1.4-2.74,3.35-5.32,4.68-8.06.83-2.42,1.95-4.69,2.63-7.2.18-.67.52-1.57,1.11-1.73,2.08-.33,4.04,2.06,3.7,4.05ZM265.13,424.07l.04.15c1,3.64.46,7.62.58,11.39,0,2.23-.76,4.09-.92,6.26-.03,4.37.13,8.99-.94,13.21-.1,2.65-1.05,4.43-4.05,4.09-1.98-.22-2.64-1.86-2.51-3.7.07-4.43.83-8.97.45-13.38-.82-3.34-.78-6.85.12-10.19.42-3.58.12-6.78.38-10.69.08-2.41.03-4.88-.58-7.2-.95-3.76-.43-8.46-.54-12.44-.03-3.35.97-2.46,3.96-2.42,1.97-.2,2.68-.26,2.81,2.03.56,7.55.07,15.4,1.2,22.88ZM291.61,322.4c.43-.62.57-1.93.95-2.77l.11-.07c.22-.11.6-.11,1.03-.11.68.02,1.49-.09,1.74.32.24.46.89.64.91,1.19-.19,1.11-1.05,2.01-1.78,2.82-.49.54-.92,1.31-1.72,1.38-.65-.03-1.68.26-2.17-.23-.25-.75.63-1.84.94-2.53ZM250.5,310.39l-.15-.07c-5.19-1.95-9.74-5.16-14.44-8.15-1.94-1.19-4.3-1.67-6.26-2.88-2.46-1.4-4.35-2.93-6.99-3.87-2.3-1-5.48-.66-7.39-2.47-1.33-1.63-1.51-4.69-1.02-6.62.49-1.37,1.66-1.34,3.2-.81,2.57.97,5.38,1.84,8.25,2.6,9.57,2.34,18.66,4.82,27.74,7.64,2.34.61,4.47,1.84,6.59,2.85,2.52,1.25,4.98,2.26,7.34,3.87,6.44,2.89,11.77,7.7,17.36,11.95,1.7,1.53,4.72,2.66,4.79,5.27-.11,1.57-.54,3.67-2.01,4.43-.76.37-1.79.28-2.68.08-12.37-2.85-23.3-8.4-34.33-13.81ZM261.96,371.88l.11-.13c2.65-3.46,5.86-6.54,7.9-10.45,1.35-2.25,2.9-4.4,3.86-6.79,1.62-2.41,3.27-5.18,4.58-7.79,1.43-2.78,2.61-5.63,4.01-8.55,1.58-2.69,3.49-5.46,4.68-8.53.76-2.23,2.46-3.09,4.86-2.59,2.41.18,3.96.97,3.19,3.48-1.24,4.34-3.59,7.89-5.4,11.72-.73,1.87-1.74,3.26-2.78,4.93-.83,1.43-1.31,3.26-2.3,4.54-1.86,2.69-3.66,5.18-5.39,7.91-4.42,5.82-9.38,11.47-13.5,17.5-3.01,4.42-6.58-2.63-3.83-5.26ZM211.39,305.88l.13.06c5.05,2.91,8.76,7.87,13.22,11.64,4.81,6.02,8.63,12.43,13.06,18.69,6.59,10.04,13.49,20,17.97,31.22,1.74,4.04,3.55,8.11,4.92,12.24.26.84.34,1.38.08,1.44-2.54-.77-4.72-3.87-6.87-5.19-4.2-2.59-8.89-3.76-13.07-6.61-10.57-12.74-18.91-27.43-25.18-42.76-1.45-3.11-3.44-6.56-6.53-8.44-1.92-.8-3.17-.94-3.54-3.26-.61-3.27,1.62-10.16,5.8-9.02ZM206.24,300.37l.14.06c1.22.61,3.38,1.63,2.63,3.23-.36.65-1.04,1.02-1.67,1.41-3.21,1.77-3.67,6.17-3.78,10.8-.09,1.07-.78,1.72-1.84,1.21-2.62-1.28-3.08-4.28-4.46-6.63-1.21-2.28.07-4.12,1.96-5.44,1.52-1.27,1.48-3.45,3.3-4.38,1.13-.59,2.57-.79,3.74-.27ZM205.52,272.56c-.11,1.42-.34,2.84-.56,4.25-1.24,7.88-2.61,16.54-7.97,22.8l-.07.13c-.17.62-.91,1.09-.79.28.07-.29.3-.67.48-1.01,5.49-10.45,7.92-22.38,7.84-34.17,0-.89.11-1.78.12-2.67,0-.58.06-1.18.05-1.76.15-.27.64-.29.83-.11.16.15.08.55.1.85.06.74,0,1.49,0,2.23,0,.75-.2,1.48-.12,2.24.07.77.12,1.56.16,2.33.07,1.54.07,3.09-.07,4.62ZM205.21,257.09l-.13.1c-3.14,2.22-6.05,4.85-9.18,6.98-3.84,1.97-7.39,4.64-11.29,6.43-1.3.2-.57-.46.12-1.11,2.9-1.92,5.38-4.21,8.18-6.26,4.93-3.7,10.2-7.3,14.33-11.92,5.78-6.47,9.65-13.18,11.71-21.62.47-1.93.61-4.6.71-6.59.16-2.98.01-5.52-.34-8.46-.34-2.85-1.41-6.52-2.98-8.94-2.07-3.19-4.33-5.73-7.63-7.65-.38-.22-2.33-1.33-1.79-1.91.51-.54,3.11.67,3.58.86,9.7,3.83,16.31,15.62,13.89,26.85-.15,6.05-2.13,11.32-4.81,16.68-.49,1.07-.97,2.11-1.69,3.03-1.63,1.86-3,4.36-4.86,6.22-1.36,1.23-2.86,2.37-4.14,3.67-1.31,1.31-2.27,2.72-3.68,3.65ZM212.09,257.88c-1.13.05-3.4,1.05-3.14.1,1.3-1.73,3.57-2.93,5.09-4.6,1.43-1.57,2.44-3.33,3.93-4.88,3.81-4.68,7.39-9.36,10.36-14.64,1.39-1.76,3.82-2.57,5.7-4.32,3.28-2.82,5.83-6.93,8.16-10.21,1.95-2.5,4.39-4.52,5.79-7.41,1.12-1.83,2.05-3.81,3.34-5.44,1.23-1.66,2.15-3.55,3.23-5.32,1.19-2.6,3.58-4.43,4.93-6.94,1.2-2.43.68-5.97,1.57-8.52,1.11-3.02,3.09-5.44,3.98-8.53,2.12-5,3.57-9.93,5.41-15.18.82-2.36.76-6.02,2.47-7.73.92-.36,1.77,1.25,2.19,2.02,1.09,2.24,2.55,4.16,3.71,6.38,1.07,2.98,2,6.24,3.35,9.08.92,2.97,2.11,5.87,2.86,8.94.69,2.76.51,6.53,1.12,9.39,1.92,6.8.54,13.77-.32,20.58-.42,2.88-1.79,5.81-3.23,8.28-.52.97-.63,1.5-.27,1.5,6.99-4.13,7.13-19.8,6.81-30.19-.36-4.36-1.42-8.41.15-12.47.28-.68.57-1.53,1.43-1.43,1.43.33,2.02,2.06,3.26,2.75,1.18.9,2.91.68,3.86,1.74,2.14,3.18,3.18,6.88,3.47,10.8.76,3.45,1.51,6.55,1.25,10.16v.2c0,6.3-.97,12.79-1.62,18.47-.2,2.78-2.03,3.07-4.39,2.17-5.14-1.99-9.62.03-15,.96-9.09,1.84-17.05,6.69-25.23,10.79-13.26,6.34-23.76,17.38-37.63,22.39-2.2.86-4.35,1.09-6.59,1.14Z"></path><path class="cls-1" d="M161.25,322.48c-1.07.33-1.75.99-2.1,1.9-.17.43-.26.91-.29,1.43-.04.92.13,1.84.36,2.73.1.39.22.79.48,1.1.48.56,1.31.67,2.05.63,2.02-.11,3.51-1.47,3.45-3.58-.03-1.07-.38-2.24-.89-3.17-.62-1.15-1.83-1.4-3.06-1.04ZM162.72,326.86c-.06.09-.12.15-.24.21-.09.03-.17.03-.27.03-.39,0-1.12-.18-1.33-.55-.22-.38.13-.98.46-1.18.4-.25.97-.16,1.3.18.32.35.35.93.08,1.31Z"></path><path class="cls-1" d="M182.39,322.75c-.29-.17-.58-.31-.9-.39-.76-.22-1.75-.06-2.5.18-1.48.68-1.97,2.63-1.74,4.12.08.45.21.9.38,1.32.16.4.27.73.62,1.02.33.27.75.44,1.17.53,1.51.3,3.38.11,4.17-1.4.13-.27.23-.55.31-.85.32-1.27.3-2.53-.52-3.61-.27-.36-.6-.67-.98-.91ZM181.68,326.6c-.07.11-.16.2-.28.26-.32.15-.76.11-1.04-.07-.06-.03-.11-.07-.15-.11-.08-.08-.11-.17-.15-.27-.08-.21-.12-.44-.1-.67.02-.19.1-.38.23-.54.11-.12.28-.18.45-.2.33-.04.68.07.91.32.31.32.36.9.13,1.28Z"></path><path class="cls-1" d="M173,323.79c-.84-.33-1.62-.56-2.54-.5-.68.05-1.35.24-1.95.55-.09.04-.16.09-.25.13-.63.39-.79,1.2-.88,1.9-.13.99-.05,2.01.19,2.98.2.81.73,1.41,1.56,1.68.5.16,1.03.19,1.55.19,1.33.02,2.73-.49,3.69-1.43.13-.13.25-.3.33-.47.59-1.16.1-2.69-.48-3.74-.31-.55-.63-1.09-1.22-1.31ZM171.86,327.67c-.07.11-.16.19-.29.24-.3.11-.69.07-.94-.05-.68-.33-.92-1.22-.21-1.65.41-.24.98-.16,1.3.19.31.32.36.89.13,1.27Z"></path><path class="cls-1" d="M155.86,323.13c-.56-.41-1.4-.67-2.1-.52-.34.07-.81.22-1.11.43-.29.21-.48.67-.58.99-.24.79-.12,1.64.12,2.43.05.17.11.34.2.49.11.17.25.31.41.44.27.21.57.37.89.48.82.27,1.77-.03,2.36-.66.15-.16.28-.34.37-.54.22-.44.28-.93.3-1.42.02-.54-.02-1.12-.33-1.57-.15-.21-.35-.38-.55-.53Z"></path><path class="cls-1" d="M168.43,321.29c.22-.44.28-.93.3-1.42.02-.54-.01-1.12-.33-1.57-.15-.21-.35-.38-.55-.53-.56-.41-1.4-.67-2.1-.52-.34.07-.81.22-1.11.43-.29.21-.48.67-.58.99-.24.79-.12,1.64.12,2.43.05.17.11.34.2.49.11.17.25.31.41.44.27.21.57.37.89.48.82.27,1.77-.03,2.36-.66.15-.16.28-.34.37-.54Z"></path><path class="cls-1" d="M178.33,321.29c.22-.44.28-.93.3-1.42.02-.54-.02-1.12-.33-1.57-.15-.21-.35-.38-.55-.53-.56-.41-1.4-.67-2.1-.52-.34.07-.81.22-1.11.43-.29.21-.48.67-.58.99-.24.79-.12,1.64.12,2.43.05.17.11.34.2.49.11.17.25.31.41.44.27.21.57.37.89.48.82.27,1.77-.03,2.36-.66.15-.16.28-.34.37-.54Z"></path><path class="cls-1" d="M189.85,322.11c-.56-.41-1.4-.67-2.1-.52-.34.07-.81.22-1.11.43-.29.21-.48.67-.58.99-.24.79-.12,1.64.12,2.43.05.17.11.34.2.49.11.17.25.31.41.44.27.21.57.37.89.48.82.27,1.77-.03,2.36-.66.15-.16.28-.34.37-.54.22-.44.28-.93.3-1.42.02-.54-.01-1.12-.33-1.57-.15-.21-.35-.38-.55-.53Z"></path></g></g></svg>