<?xml version="1.0" encoding="UTF-8"?>
<svg xmlns="http://www.w3.org/2000/svg" xmlns:xlink="http://www.w3.org/1999/xlink" width="304.789pt" height="531.315pt" viewBox="0 0 304.789 531.315">
<defs>
<clipPath id="clip-0">
<path clip-rule="nonzero" d="M 0.0898438 0 L 304.488281 0 L 304.488281 530.632812 L 0.0898438 530.632812 Z M 0.0898438 0 "/>
</clipPath>
</defs>
<g clip-path="url(#clip-0)">
<path fill-rule="evenodd" fill="#F25FC1" fill-opacity="1" d="M 211.910156 257.550781 C 210.785156 257.597656 208.511719 258.601562 208.769531 257.644531 C 210.070312 255.917969 212.339844 254.714844 213.859375 253.054688 C 215.289062 251.488281 216.292969 249.734375 217.78125 248.175781 C 221.589844 243.5 225.160156 238.832031 228.128906 233.554688 C 229.515625 231.796875 231.949219 230.984375 233.820312 229.238281 C 237.09375 226.421875 239.640625 222.316406 241.972656 219.042969 C 243.917969 216.542969 246.351562 214.527344 247.753906 211.644531 C 248.871094 209.824219 249.808594 207.835938 251.085938 206.214844 C 252.316406 204.554688 253.234375 202.671875 254.3125 200.898438 C 255.496094 198.300781 257.890625 196.480469 259.238281 193.96875 C 260.441406 191.542969 259.917969 188 260.804688 185.460938 C 261.910156 182.445312 263.886719 180.03125 264.777344 176.949219 C 266.894531 171.957031 268.335938 167.03125 270.175781 161.789062 C 271 159.429688 270.941406 155.777344 272.640625 154.066406 C 273.558594 153.703125 274.40625 155.316406 274.828125 156.082031 C 275.914062 158.316406 277.375 160.234375 278.53125 162.449219 C 279.597656 165.425781 280.523438 168.679688 281.871094 171.515625 C 282.789062 174.484375 283.980469 177.378906 284.726562 180.441406 C 285.414062 183.199219 285.230469 186.960938 285.84375 189.816406 C 287.761719 196.601562 286.375 203.570312 285.527344 210.367188 C 285.105469 213.238281 283.742188 216.171875 282.300781 218.632812 C 281.785156 219.597656 281.671875 220.132812 282.035156 220.132812 C 289.011719 216.007812 289.152344 200.355469 288.839844 189.976562 C 288.476562 185.625 287.417969 181.578125 288.992188 177.519531 C 289.269531 176.84375 289.566406 175.992188 290.425781 176.089844 C 291.855469 176.421875 292.4375 178.140625 293.679688 178.839844 C 294.851562 179.734375 296.582031 179.515625 297.535156 180.574219 C 299.671875 183.753906 300.714844 187.449219 301 191.359375 C 301.753906 194.808594 302.507812 197.902344 302.25 201.507812 L 302.242188 201.707031 C 302.242188 208 301.277344 214.480469 300.636719 220.152344 C 300.4375 222.929688 298.613281 223.214844 296.257812 222.316406 C 291.121094 220.332031 286.644531 222.347656 281.277344 223.273438 C 272.203125 225.105469 264.25 229.953125 256.078125 234.050781 C 242.839844 240.378906 232.347656 251.402344 218.5 256.414062 C 216.300781 257.273438 214.15625 257.503906 211.910156 257.550781 M 205.039062 256.757812 L 204.90625 256.855469 C 201.773438 259.070312 198.863281 261.695312 195.742188 263.824219 C 191.90625 265.789062 188.363281 268.453125 184.46875 270.246094 C 183.167969 270.445312 183.894531 269.789062 184.59375 269.140625 C 187.484375 267.21875 189.964844 264.929688 192.761719 262.886719 C 197.683594 259.195312 202.953125 255.59375 207.070312 250.984375 C 212.847656 244.519531 216.707031 237.816406 218.769531 229.390625 C 219.242188 227.460938 219.378906 224.796875 219.480469 222.8125 C 219.636719 219.832031 219.492188 217.292969 219.144531 214.359375 C 218.808594 211.515625 217.734375 207.84375 216.167969 205.425781 C 214.09375 202.238281 211.835938 199.703125 208.546875 197.785156 C 208.171875 197.5625 206.214844 196.457031 206.753906 195.878906 C 207.261719 195.339844 209.859375 196.550781 210.328125 196.734375 C 220.015625 200.5625 226.621094 212.335938 224.195312 223.550781 C 224.042969 229.59375 222.066406 234.851562 219.394531 240.207031 C 218.910156 241.277344 218.429688 242.316406 217.707031 243.230469 C 216.074219 245.09375 214.707031 247.585938 212.847656 249.445312 C 211.492188 250.675781 209.992188 251.8125 208.714844 253.113281 C 207.40625 254.417969 206.441406 255.832031 205.039062 256.757812 M 205.34375 272.214844 C 205.230469 273.636719 205 275.046875 204.78125 276.460938 C 203.539062 284.328125 202.175781 292.972656 196.820312 299.226562 L 196.753906 299.359375 C 196.582031 299.980469 195.847656 300.449219 195.960938 299.636719 C 196.027344 299.351562 196.257812 298.96875 196.4375 298.625 C 201.917969 288.191406 204.351562 276.269531 204.265625 264.5 C 204.257812 263.613281 204.378906 262.722656 204.390625 261.835938 C 204.398438 261.253906 204.449219 260.664062 204.4375 260.082031 C 204.589844 259.8125 205.078125 259.792969 205.269531 259.964844 C 205.429688 260.117188 205.34375 260.519531 205.363281 260.816406 C 205.421875 261.550781 205.355469 262.304688 205.375 263.039062 C 205.382812 263.785156 205.171875 264.519531 205.25 265.273438 C 205.316406 266.046875 205.375 266.828125 205.410156 267.601562 C 205.476562 269.140625 205.476562 270.6875 205.34375 272.214844 M 206.070312 299.980469 L 206.214844 300.039062 C 207.433594 300.648438 209.589844 301.671875 208.835938 303.265625 C 208.476562 303.914062 207.796875 304.285156 207.167969 304.675781 C 203.960938 306.445312 203.5 310.84375 203.386719 315.464844 C 203.300781 316.53125 202.605469 317.183594 201.546875 316.675781 C 198.929688 315.398438 198.472656 312.398438 197.085938 310.050781 C 195.875 307.769531 197.152344 305.9375 199.042969 304.621094 C 200.5625 303.351562 200.523438 301.175781 202.335938 300.246094 C 203.464844 299.65625 204.90625 299.457031 206.070312 299.980469 M 211.207031 305.488281 L 211.339844 305.546875 C 216.378906 308.449219 220.09375 313.402344 224.539062 317.171875 C 229.34375 323.1875 233.160156 329.589844 237.578125 335.832031 C 244.167969 345.855469 251.046875 355.8125 255.527344 367.007812 C 257.261719 371.046875 259.066406 375.113281 260.441406 379.238281 C 260.699219 380.078125 260.785156 380.613281 260.519531 380.679688 C 257.976562 379.90625 255.800781 376.8125 253.65625 375.496094 C 249.464844 372.910156 244.777344 371.746094 240.605469 368.890625 C 230.046875 356.167969 221.722656 341.496094 215.464844 326.183594 C 214.011719 323.082031 212.027344 319.636719 208.941406 317.753906 C 207.023438 316.953125 205.773438 316.820312 205.410156 314.5 C 204.800781 311.234375 207.023438 304.351562 211.207031 305.488281 M 261.710938 371.402344 L 261.816406 371.265625 C 264.460938 367.8125 267.667969 364.738281 269.710938 360.832031 C 271.054688 358.589844 272.601562 356.441406 273.566406 354.054688 C 275.1875 351.652344 276.832031 348.882812 278.140625 346.277344 C 279.570312 343.5 280.746094 340.65625 282.148438 337.734375 C 283.722656 335.050781 285.632812 332.285156 286.824219 329.21875 C 287.589844 326.996094 289.277344 326.136719 291.683594 326.632812 C 294.089844 326.8125 295.636719 327.605469 294.871094 330.105469 C 293.632812 334.441406 291.285156 337.992188 289.480469 341.808594 C 288.753906 343.679688 287.742188 345.066406 286.703125 346.734375 C 285.871094 348.167969 285.394531 349.992188 284.402344 351.269531 C 282.539062 353.953125 280.746094 356.441406 279.015625 359.171875 C 274.605469 364.988281 269.652344 370.628906 265.539062 376.652344 C 262.53125 381.0625 258.972656 374.027344 261.710938 371.402344 M 250.265625 309.996094 L 250.113281 309.925781 C 244.929688 307.980469 240.386719 304.773438 235.691406 301.785156 C 233.75 300.59375 231.394531 300.113281 229.4375 298.910156 C 226.984375 297.507812 225.09375 295.980469 222.460938 295.046875 C 220.160156 294.042969 216.988281 294.386719 215.082031 292.582031 C 213.753906 290.949219 213.574219 287.898438 214.058594 285.96875 C 214.546875 284.601562 215.722656 284.632812 217.257812 285.15625 C 219.824219 286.121094 222.632812 286.988281 225.496094 287.753906 C 235.050781 290.09375 244.128906 292.5625 253.195312 295.378906 C 255.535156 295.992188 257.664062 297.210938 259.78125 298.222656 C 262.300781 299.476562 264.753906 300.476562 267.113281 302.089844 C 273.546875 304.972656 278.863281 309.785156 284.449219 314.023438 C 286.148438 315.550781 289.164062 316.675781 289.230469 319.28125 C 289.117188 320.847656 288.695312 322.949219 287.226562 323.710938 C 286.460938 324.082031 285.441406 323.988281 284.554688 323.789062 C 272.203125 320.941406 261.28125 315.398438 250.265625 309.996094 M 291.320312 321.984375 C 291.75 321.363281 291.894531 320.054688 292.265625 319.214844 L 292.371094 319.148438 C 292.589844 319.035156 292.972656 319.042969 293.402344 319.042969 C 294.078125 319.0625 294.890625 318.957031 295.140625 319.359375 C 295.378906 319.816406 296.027344 320 296.046875 320.550781 C 295.855469 321.660156 294.996094 322.554688 294.269531 323.367188 C 293.785156 323.910156 293.355469 324.675781 292.550781 324.742188 C 291.902344 324.714844 290.871094 325 290.386719 324.511719 C 290.136719 323.757812 291.015625 322.671875 291.320312 321.984375 M 264.878906 423.519531 L 264.917969 423.671875 C 265.921875 427.308594 265.375 431.28125 265.5 435.050781 C 265.5 437.273438 264.738281 439.136719 264.582031 441.304688 C 264.554688 445.664062 264.71875 450.285156 263.648438 454.496094 C 263.554688 457.140625 262.597656 458.925781 259.601562 458.582031 C 257.625 458.359375 256.964844 456.71875 257.089844 454.886719 C 257.15625 450.46875 257.921875 445.933594 257.539062 441.523438 C 256.71875 438.191406 256.757812 434.679688 257.664062 431.347656 C 258.082031 427.765625 257.789062 424.578125 258.046875 420.675781 C 258.121094 418.269531 258.074219 415.796875 257.464844 413.488281 C 256.519531 409.734375 257.035156 405.039062 256.917969 401.058594 C 256.890625 397.71875 257.882812 398.605469 260.871094 398.644531 C 262.835938 398.441406 263.542969 398.386719 263.675781 400.667969 C 264.238281 408.207031 263.742188 416.046875 264.878906 423.519531 M 258.980469 462.703125 C 258.886719 463.457031 258.578125 464.195312 258.351562 464.902344 L 258.292969 465.054688 C 257.242188 468.15625 255.296875 470.761719 253.472656 473.425781 C 251.46875 476.554688 249.253906 479.589844 246.820312 482.464844 C 244.910156 484.726562 243.289062 487.199219 241.09375 489.210938 C 239.765625 490.960938 238.6875 492.925781 236.855469 494.253906 C 233.847656 496.667969 231.488281 499.914062 228.75 502.671875 C 226.289062 504.5625 223.96875 505.917969 221.960938 508.324219 C 219.425781 510.367188 216.703125 511.988281 214.164062 514.003906 C 212.035156 515.863281 209.496094 517.144531 207.070312 518.613281 C 204.664062 520.714844 201.699219 521.847656 198.75 523.117188 C 197.898438 523.691406 193.5 525.601562 195.644531 523.460938 C 197.746094 522.058594 199.949219 521.105469 202.117188 519.613281 C 206.796875 516.378906 211.5 513.324219 216.132812 509.925781 C 221.535156 505.039062 226.925781 500.125 232.320312 495.226562 C 233.828125 493.9375 234.773438 492.132812 235.890625 490.644531 C 240.128906 485.917969 243.316406 480.753906 246.875 475.621094 C 248.28125 472.878906 250.21875 470.300781 251.554688 467.574219 C 252.382812 465.15625 253.503906 462.886719 254.179688 460.386719 C 254.359375 459.71875 254.695312 458.820312 255.285156 458.65625 C 257.367188 458.324219 259.324219 460.71875 258.980469 462.703125 M 260.671875 391.152344 C 260.746094 391.019531 260.804688 390.902344 260.890625 390.84375 C 260.996094 390.703125 261.492188 390.921875 261.511719 390.941406 C 261.730469 391.035156 262.027344 391.167969 262.246094 391.121094 C 262.628906 391.066406 262.960938 390.722656 263.429688 390.75 L 263.503906 390.796875 C 263.621094 390.921875 263.515625 391.292969 263.4375 391.6875 C 263.179688 392.761719 263.074219 394.003906 262.703125 395.035156 C 262.523438 395.371094 262.140625 395.457031 261.921875 395.695312 C 261.683594 395.921875 261.585938 396.285156 261.234375 396.390625 C 260.671875 396.476562 259.46875 396.589844 258.972656 396.277344 C 258.617188 395.332031 258.816406 393.9375 259.125 393.070312 C 259.402344 392.382812 260.414062 391.894531 260.671875 391.152344 M 255.105469 389.414062 C 253.550781 386.589844 250.875 382.464844 248.394531 379.304688 C 246.972656 377.261719 245.464844 376.421875 244.519531 374.675781 L 244.480469 374.550781 C 244.082031 372.039062 248.097656 374.285156 249.214844 374.597656 C 251.183594 375.316406 252.242188 376.242188 253.292969 377.691406 C 254.171875 378.867188 255.535156 379.417969 256.699219 380.25 C 258.121094 381.28125 258.742188 383.140625 259.765625 384.632812 C 260.585938 385.84375 261.15625 387.449219 259.8125 388.546875 C 258.847656 389.28125 257.042969 390.929688 256.058594 390.472656 C 255.648438 390.28125 255.34375 389.832031 255.105469 389.414062 M 250.992188 388.46875 L 250.886719 388.554688 C 248.75 388.992188 246.34375 388.277344 244.253906 387.894531 C 243.355469 387.628906 243.582031 386.597656 243.6875 385.796875 C 243.890625 384.355469 244.902344 381.941406 246.582031 382.042969 C 247.507812 382.140625 247.890625 383.074219 248.289062 383.792969 C 248.71875 384.554688 249.195312 385.195312 249.828125 385.777344 C 250.648438 386.398438 251.699219 387.464844 250.992188 388.46875 M 244.28125 391.160156 C 242.761719 392.476562 240.339844 392.8125 238.945312 394.339844 L 238.8125 394.453125 C 236.84375 396.648438 233.320312 397.488281 231.058594 398.894531 C 224.570312 402.460938 217.714844 404.90625 210.871094 407.511719 C 206.851562 408.21875 203.835938 409.996094 199.597656 410.738281 C 198.386719 410.949219 197.203125 411.3125 196 411.578125 C 194.699219 411.863281 193.375 412.046875 192.078125 412.265625 C 190.40625 412.550781 188.714844 412.839844 187.035156 412.648438 C 186.664062 412.601562 186.1875 412.429688 186.1875 412.046875 C 186.1875 411.914062 186.328125 411.847656 186.453125 411.808594 C 187.179688 411.597656 187.941406 411.597656 188.6875 411.519531 C 189.785156 411.417969 190.863281 411.160156 191.894531 410.757812 C 192.859375 410.394531 193.917969 410.230469 194.921875 410.003906 C 196.007812 409.765625 197.085938 409.515625 198.144531 409.21875 C 199.179688 408.925781 200.132812 408.457031 201.144531 408.132812 C 206.214844 406.527344 211.136719 404.535156 215.960938 402.328125 C 223.710938 399.207031 230.535156 394.566406 237.425781 390.035156 C 239.335938 388.546875 241.902344 387.007812 243.851562 389.289062 C 244.335938 389.710938 244.75 390.625 244.28125 391.160156 M 196.667969 319.207031 L 196.609375 319.332031 C 194.921875 321.667969 194.996094 316.800781 195.167969 315.625 C 195.273438 314.300781 195.28125 312.839844 194.890625 311.617188 C 194.347656 309.898438 193.097656 308.535156 192.058594 307.101562 C 191.511719 306.328125 190.644531 305.230469 191.75 305.824219 C 192.152344 306.050781 192.726562 306.414062 193.078125 306.796875 C 193.859375 307.578125 193.8125 308.847656 194.625 309.527344 C 194.988281 309.878906 195.417969 310.203125 195.636719 310.671875 C 195.980469 311.40625 195.894531 312.4375 196.265625 313.03125 C 196.867188 314.003906 197.03125 315.074219 196.953125 316.273438 C 196.914062 317.238281 197.105469 318.375 196.667969 319.207031 M 188.746094 329.457031 C 179.925781 334.535156 166.894531 335.9375 157.453125 332.371094 L 157.292969 332.292969 C 154.636719 330.785156 151.152344 329.199219 149.472656 326.824219 C 147.738281 323.222656 150.734375 318.28125 154.121094 316.722656 C 156.433594 315.417969 159 314.527344 161.863281 314.335938 C 163.609375 314.03125 165.15625 313.460938 166.960938 313.375 C 173.976562 313.410156 182.902344 314.835938 187.808594 317.191406 C 189.308594 318.050781 190.308594 319.511719 191.644531 320.636719 C 192.601562 321.429688 193.507812 322.210938 193.738281 323.0625 C 194.167969 325.65625 190.976562 327.941406 188.746094 329.457031 M 185.089844 351.277344 L 185.011719 351.414062 C 184.113281 352.632812 183.464844 354.640625 182.683594 356.195312 C 181.625 357.835938 180.210938 359.535156 178.644531 360.691406 C 177.242188 361.570312 175.292969 361.425781 174.367188 360.769531 C 170.828125 357.074219 171.792969 345.867188 171.847656 338.679688 C 171.914062 337.621094 172.144531 336.691406 173.136719 336.253906 C 176.449219 335.480469 180.925781 335.625 183.503906 334.152344 C 185.59375 333.039062 186.253906 333.820312 186.347656 336.042969 C 186.300781 341.351562 187.292969 346.820312 185.089844 351.277344 M 167.761719 360.957031 L 167.648438 361.023438 C 165.941406 361.769531 163.21875 361.578125 161.769531 360.195312 C 161.136719 359.535156 160.726562 358.65625 160.125 357.953125 C 156.421875 353.492188 155.191406 347.84375 153.960938 342.269531 C 153.789062 341.332031 153.816406 340.1875 153.625 339.28125 C 153.40625 337.773438 151.59375 332.542969 154.359375 332.835938 C 158.054688 334.164062 161.40625 335.566406 166.234375 335.832031 C 167.4375 335.917969 168.976562 336.042969 169.632812 337.132812 C 170.015625 337.722656 170.101562 338.640625 170.121094 339.40625 C 170.074219 345.378906 171.039062 357.941406 167.761719 360.957031 M 147.015625 303.78125 C 146.292969 303.46875 145.714844 302.789062 145.21875 302.175781 C 144.152344 300.863281 143.140625 299.496094 142.3125 298.019531 C 141.507812 296.574219 140.984375 295.308594 140.550781 293.691406 C 139.636719 290.277344 138.941406 286.8125 138.1875 283.359375 C 137.59375 280.648438 136.722656 275.75 136.996094 272.996094 C 137.332031 269.601562 137.757812 266.207031 138.15625 262.8125 C 138.238281 262.089844 138.167969 260.03125 139.332031 260.105469 C 140.113281 260.152344 140.863281 261.042969 141.320312 261.597656 C 142.613281 263.167969 142.519531 264.921875 142.171875 266.835938 C 141.402344 271.089844 142.320312 275.328125 143.132812 279.503906 C 143.925781 283.558594 145.132812 287.609375 147.164062 291.226562 C 147.6875 292.628906 148.492188 293.84375 149.320312 295.027344 C 150.179688 296.429688 150.496094 298.136719 150.65625 299.75 C 150.753906 300.695312 150.773438 301.566406 150.410156 302.292969 C 149.960938 303.203125 148.859375 303.957031 147.828125 303.957031 C 147.539062 303.957031 147.265625 303.890625 147.015625 303.78125 M 162.371094 300.925781 L 162.445312 301.003906 C 162.667969 302.003906 162.046875 302.121094 161.242188 302.101562 C 160.777344 302.128906 159.621094 301.269531 159.621094 300.945312 C 160.375 300.859375 161.585938 300.886719 162.371094 300.925781 M 143.835938 267.265625 C 143.859375 266.253906 143.996094 265.125 144.492188 264.816406 C 144.492188 264.816406 144.566406 264.765625 144.566406 264.765625 C 145.015625 264.472656 145.789062 264.9375 146.285156 265.246094 C 151.289062 268.539062 156.929688 273.226562 163.554688 274.53125 C 164.421875 274.722656 165.804688 275.132812 165.988281 275.945312 C 166.042969 276.210938 165.941406 276.5 165.710938 276.796875 C 164.75 277.921875 163.449219 278.699219 162.332031 279.65625 C 161.203125 280.628906 160.164062 281.703125 159.199219 282.839844 C 157.246094 285.132812 155.585938 287.652344 153.9375 290.167969 C 153.394531 290.992188 152.511719 293.394531 151.269531 293.28125 C 150.234375 293.1875 149.601562 291.550781 149.246094 290.761719 C 148.082031 288.179688 146.59375 285.832031 145.929688 283.078125 C 145.25 280.261719 144.726562 277.410156 144.371094 274.535156 C 144.132812 272.636719 143.96875 270.734375 143.871094 268.824219 C 143.855469 268.515625 143.824219 267.914062 143.835938 267.265625 M 130.238281 222.386719 C 130.3125 223.210938 130.433594 224.027344 130.589844 224.835938 C 131.144531 227.664062 132.394531 230.882812 133.8125 233.335938 C 135.59375 236.421875 136.773438 238.5625 138.542969 241.496094 C 141.132812 245.132812 143.375 248.875 146.171875 252.386719 C 148.078125 254.917969 150.191406 257.359375 152.136719 259.898438 C 152.5 260.347656 153.691406 261.417969 153.53125 261.710938 C 153.390625 261.964844 147.980469 258.089844 147.460938 257.738281 C 145.195312 256.199219 143.160156 253.980469 141.25 252.03125 C 139.289062 250.023438 137.882812 248.660156 136.140625 246.464844 C 134.472656 244.363281 132.699219 241.710938 131.585938 239.207031 C 129.8125 235.210938 128.121094 231.125 127.5 226.777344 C 126.949219 222.9375 127.105469 219.023438 127.664062 215.195312 C 128.050781 212.519531 128.660156 209.78125 130.128906 207.472656 C 131.503906 205.304688 133.769531 203.628906 135.71875 201.996094 C 136.214844 201.621094 136.53125 201.488281 136.585938 201.671875 C 136.417969 202.972656 135.386719 203.910156 134.683594 204.941406 C 133.964844 205.992188 133.316406 207.164062 132.769531 208.320312 C 130.71875 212.65625 129.789062 217.59375 130.238281 222.386719 M 137.496094 224.410156 L 137.511719 224.589844 C 138.105469 230.566406 141.132812 238.546875 144.148438 243.863281 C 145.847656 246.507812 148.300781 248.644531 149.597656 251.519531 C 150.054688 253.046875 148.644531 250.964844 148.269531 250.621094 C 145.988281 248.054688 144.308594 245.511719 142.496094 242.753906 C 140.203125 239.222656 137.722656 235.949219 135.855469 232.148438 C 134.507812 229.398438 132.761719 225.839844 132.558594 222.695312 C 131.9375 213.207031 133.773438 205.246094 141.972656 201.546875 C 143.136719 201.144531 141.980469 202.902344 141.644531 203.378906 C 136.824219 209.175781 136.691406 217.066406 137.496094 224.410156 M 137.496094 260.007812 C 137.441406 260.351562 137.34375 260.6875 137.308594 260.878906 C 136.914062 263.117188 136.582031 265.363281 136.3125 267.621094 C 136.3125 269.5 135.90625 271.449219 135.773438 273.328125 C 135.644531 275.144531 135.566406 276.925781 135.375 278.742188 C 135.355469 278.894531 135.304688 279.089844 135.148438 279.113281 C 135.046875 279.125 134.953125 279.050781 134.886719 278.972656 C 134.367188 278.402344 134.347656 277.414062 134.285156 276.683594 C 134.21875 275.84375 134.226562 275 134.222656 274.160156 C 134.210938 272.703125 134.335938 271.25 134.453125 269.796875 C 134.734375 266.40625 135.308594 262.960938 136.292969 259.699219 C 136.417969 259.277344 136.722656 258.597656 137.269531 258.9375 C 137.566406 259.121094 137.566406 259.574219 137.496094 260.007812 M 136.425781 254.742188 C 136.238281 254.578125 136.050781 254.414062 135.863281 254.25 C 133.238281 251.945312 130.503906 249.554688 128.539062 246.640625 C 123.882812 239.730469 118.792969 227.929688 120.761719 218.195312 C 120.730469 212.105469 123.148438 206.578125 127.527344 202.3125 C 130.304688 200.296875 133.273438 198.253906 136.445312 196.925781 C 138.839844 196.171875 138.726562 197.355469 137.265625 198.484375 C 134.421875 200.8125 130.679688 202.796875 128.53125 205.878906 C 127.335938 207.597656 126.507812 209.363281 125.933594 211.351562 C 125.015625 214.824219 124.519531 218.460938 124.511719 222.054688 C 124.492188 228.265625 126.484375 234.417969 129.378906 239.84375 C 132.617188 245.902344 136.835938 251.460938 141.882812 256.125 C 144.417969 258.46875 147.210938 260.160156 149.941406 262.183594 C 153.054688 264.492188 156.03125 266.984375 159.167969 269.261719 C 159.351562 269.398438 159.539062 269.53125 159.726562 269.664062 C 160.203125 270.007812 161.121094 270.859375 161.136719 271.058594 C 161.195312 271.238281 160.902344 271.21875 160.347656 271.085938 C 158.714844 270.65625 157.347656 269.367188 155.9375 268.632812 C 153.484375 267.515625 150.953125 266.324219 148.929688 264.578125 C 147.085938 263.296875 144.996094 262.085938 143.316406 260.414062 C 142.242188 259.394531 140.992188 258.75 139.890625 257.785156 C 138.734375 256.773438 137.582031 255.757812 136.425781 254.742188 M 156.050781 298.824219 C 155.59375 298.988281 155.152344 299.476562 154.734375 299.78125 L 154.582031 299.867188 C 153.914062 300.125 153.742188 299.734375 154.199219 299.207031 C 154.714844 298.578125 155.097656 297.652344 155.765625 297.222656 C 156.234375 296.992188 156.910156 297.109375 157.492188 297.078125 C 158.246094 297.117188 160.363281 296.800781 159.429688 298.109375 C 158.476562 298.929688 157.128906 298.347656 156.050781 298.824219 M 158.582031 302.777344 C 158.265625 302.882812 157.882812 303.027344 157.539062 302.960938 C 157.140625 302.875 157.054688 302.519531 156.902344 302.207031 C 156.863281 302.082031 156.660156 301.929688 156.730469 301.890625 C 157.175781 301.8125 158.113281 301.878906 158.582031 301.863281 L 158.636719 301.917969 C 158.609375 302.101562 158.695312 302.578125 158.582031 302.777344 M 170.8125 282.925781 C 170.691406 283.476562 170.542969 284.023438 170.382812 284.5625 C 170.019531 285.808594 170.082031 286.371094 168.714844 286.828125 C 167.136719 287.359375 165.414062 287.230469 163.832031 287.765625 C 162.433594 288.238281 161.246094 289.269531 160.519531 290.550781 C 159.855469 291.71875 159.832031 293.125 158.714844 294.015625 C 157.855469 294.695312 156.453125 295.261719 155.355469 295.277344 C 153.484375 295.308594 154.414062 293.292969 154.886719 292.265625 C 156.648438 288.414062 159.195312 284.921875 162.300781 282.046875 C 163.980469 280.492188 165.824219 279.113281 167.800781 277.957031 C 168.609375 277.484375 169.539062 276.996094 170.285156 277.820312 C 170.878906 278.472656 171.082031 279.402344 171.101562 280.261719 C 171.125 281.164062 171.003906 282.050781 170.8125 282.925781 M 166.285156 300.097656 L 166.359375 300.007812 C 167.628906 299.867188 169.289062 299.980469 170.609375 299.972656 C 171.039062 300.027344 171.152344 300.660156 170.761719 300.851562 C 169.472656 300.992188 167.933594 300.886719 166.617188 300.898438 C 166.253906 300.820312 166.128906 300.371094 166.285156 300.097656 M 169.15625 293.28125 C 169.089844 294.128906 169.328125 295.09375 168.996094 295.867188 C 168.507812 296.457031 167.574219 296.152344 166.800781 296.230469 C 165.996094 296.105469 164.574219 296.628906 164.394531 295.609375 C 164.519531 294.15625 164.859375 292.542969 165.109375 291.113281 C 165.222656 290.683594 165.566406 290.417969 165.96875 290.246094 C 166.492188 290.042969 166.867188 289.605469 167.4375 289.546875 C 168.15625 289.546875 168.394531 290.179688 168.910156 290.492188 L 168.996094 290.589844 C 169.347656 291.351562 169.082031 292.382812 169.15625 293.28125 M 178.464844 296.753906 L 178.386719 296.859375 C 177.996094 297.195312 177.421875 296.878906 176.917969 296.8125 C 175.515625 296.410156 174.113281 296.449219 172.5625 296.097656 C 171.695312 295.773438 171.800781 294.332031 172.097656 293.660156 C 172.355469 293.28125 172.957031 292.773438 173.089844 292.441406 C 173.683594 291.273438 174.128906 289.671875 175.601562 289.375 C 176.871094 289.203125 177.109375 290.691406 177.421875 291.5625 C 177.929688 293.128906 178.84375 294.894531 178.464844 296.753906 M 177.660156 288.410156 C 176.59375 287.675781 175.007812 287.542969 173.855469 288.144531 C 173.5 288.296875 173.15625 288.46875 172.878906 288.535156 L 172.746094 288.566406 C 171.304688 288.679688 172.097656 284.316406 171.894531 283.199219 C 172.019531 282.199219 171.582031 279.265625 172.289062 279.039062 C 174.042969 279.675781 175.027344 281.96875 176.039062 283.503906 C 176.898438 285.042969 177.777344 286.589844 178.863281 287.90625 C 179.160156 288.308594 179.636719 289.070312 179.511719 289.460938 C 179.324219 289.824219 178.605469 288.964844 177.660156 288.410156 M 183.90625 299.425781 C 183.597656 299.523438 183.523438 299.035156 183.4375 298.835938 C 183.53125 297.605469 182.195312 298.242188 181.632812 297.984375 L 181.558594 297.910156 C 181.289062 297.078125 181.898438 297.003906 182.644531 297.050781 C 183.101562 297.109375 184 296.917969 184.304688 297.175781 C 184.410156 297.574219 184.316406 299.101562 183.90625 299.425781 M 193.222656 271.832031 C 192.898438 277.863281 192.691406 278.085938 191.289062 283.039062 C 191.289062 283.039062 189.039062 288.324219 188.652344 289.371094 C 188.351562 290.179688 187.914062 291.71875 186.976562 291.976562 C 186.273438 292.171875 185.558594 291.730469 185.015625 291.246094 C 183.390625 289.789062 180.09375 284.816406 178.910156 283.203125 C 177.757812 281.632812 175.894531 279.738281 174.773438 278.144531 C 174.003906 277.042969 173.9375 275.691406 175.398438 275.171875 C 180.59375 273.328125 186.683594 272.433594 190.625 269.339844 C 191.179688 268.957031 191.960938 268.402344 192.554688 268.699219 C 193.355469 269.234375 193.257812 270.859375 193.222656 271.832031 M 199.75 263.746094 C 201.503906 264.113281 201.820312 267.527344 202 268.882812 C 202.347656 271.476562 202.433594 274.171875 201.863281 276.726562 C 201.828125 276.878906 201.792969 277.03125 201.757812 277.183594 C 200.636719 282.09375 199.675781 286.988281 197.355469 291.515625 C 196.3125 294.234375 195.214844 296.90625 193.515625 299.246094 C 192.667969 300.714844 191.597656 302.042969 190.253906 301.917969 C 189.210938 301.871094 188.066406 301.261719 187.683594 300.285156 C 187.160156 298.875 187.933594 296.164062 188.449219 294.445312 C 189.210938 292.085938 190.898438 289.4375 191.796875 287.046875 C 194.082031 280.960938 195.300781 276.070312 195.703125 269.320312 C 195.558594 266.925781 197.734375 263.859375 199.75 263.746094 M 210.625 209.910156 C 210.886719 210.574219 211.101562 211.238281 211.257812 211.878906 C 212.511719 217.019531 211.894531 223.457031 209.863281 228.328125 C 208.785156 230.910156 207.488281 233.390625 206.097656 235.816406 C 204.800781 238.089844 203.550781 240.839844 201.871094 242.839844 C 199.980469 245.09375 197.765625 247.957031 196.191406 250.460938 C 194.308594 252.53125 195.40625 249.941406 196.121094 249.027344 C 198.011719 246.5625 199.578125 243.996094 201.058594 241.246094 C 201.960938 239.566406 203.09375 238.09375 203.835938 236.304688 C 204.554688 234.582031 205.136719 232.6875 205.679688 230.882812 C 206.492188 228.171875 206.992188 225.273438 207.410156 222.476562 C 207.839844 219.5625 207.917969 216.601562 207.632812 213.667969 C 207.238281 209.582031 205.898438 206.492188 203.671875 203.074219 C 203.28125 202.472656 202.269531 201.023438 202.441406 200.714844 C 202.851562 200.429688 203.683594 201.183594 204.132812 201.460938 C 206.875 203.242188 209.339844 206.640625 210.625 209.910156 M 213.996094 213.847656 C 213.792969 212.417969 213.488281 211 213.085938 209.613281 C 212.898438 208.964844 212.691406 208.324219 212.460938 207.691406 C 211.746094 205.726562 210.425781 204.242188 209.21875 202.558594 C 208.523438 201.621094 208.054688 200.878906 208.1875 200.726562 L 208.21875 200.695312 C 208.304688 200.648438 208.523438 200.726562 208.859375 200.90625 C 212.601562 203.339844 214.699219 205.574219 215.902344 209.957031 C 217.042969 214.113281 217.140625 218.472656 217.222656 222.753906 C 217.335938 228.605469 215.429688 233.625 212.886719 238.832031 C 209.125 245.503906 203.789062 251.519531 197.671875 256.089844 C 195.574219 257.65625 193.640625 259.414062 191.425781 260.824219 C 191.273438 260.796875 191.453125 260.320312 191.882812 259.613281 C 193.25 257.359375 195.167969 255.269531 197.011719 253.464844 C 199.054688 250.847656 201.078125 248.359375 202.917969 245.597656 C 209.402344 236.25 215.671875 225.640625 213.996094 213.847656 M 227.335938 228.457031 C 227.242188 228.941406 226.871094 229.773438 226.6875 230.335938 C 226.5625 230.613281 226.515625 230.984375 226.289062 231.136719 C 226.097656 231.261719 225.570312 231.261719 225.464844 231.136719 C 225.390625 230.652344 225.90625 229.8125 226.039062 229.257812 C 226.164062 228.980469 226.210938 228.597656 226.441406 228.457031 C 226.640625 228.324219 227.144531 228.351562 227.289062 228.390625 Z M 141.378906 302.664062 L 141.339844 302.703125 C 138.925781 302.578125 137.351562 298.960938 136.003906 297.183594 C 130.21875 290.015625 129.140625 280.507812 128.0625 271.679688 C 128.664062 268.109375 128.882812 264.15625 129.464844 260.632812 C 129.828125 258.609375 131.300781 255.878906 129.667969 254.113281 C 119.273438 245.398438 113.125 233.761719 112.761719 219.386719 C 113.058594 213.421875 111.347656 206.769531 114.5 201.453125 C 116.886719 198.347656 117.503906 194.484375 119.710938 191.371094 C 125.523438 184.925781 142.648438 177.148438 153.789062 179.660156 C 158.972656 180.136719 161.1875 185.222656 165.425781 187.199219 C 167.621094 187.925781 169.777344 186.800781 171.707031 185.875 C 173.574219 184.996094 176.554688 185.339844 178.539062 184.632812 C 183.066406 182.339844 187.476562 180.03125 192.503906 178.960938 C 199.195312 176.910156 205.496094 181.148438 211.207031 184.28125 C 223.195312 191.054688 229.945312 204.945312 227.699219 218.613281 C 227.289062 221.839844 226.648438 219.386719 226.726562 217.640625 C 226.832031 198.929688 207.15625 189.480469 190.527344 192.660156 C 187.238281 193.25 184.191406 194.691406 181.289062 196.316406 C 179.417969 197.355469 176.144531 200.726562 173.96875 199.09375 C 173.28125 198.578125 172.699219 197.660156 171.847656 197.777344 C 171.296875 197.863281 170.902344 198.367188 170.664062 198.875 C 170.425781 199.378906 170.246094 199.933594 169.835938 200.316406 C 168.308594 201.699219 163.964844 197.003906 162.390625 196.496094 C 153.0625 191.027344 142.160156 192.019531 132.710938 196.402344 C 109.410156 207.199219 116.941406 241.953125 133.542969 255.824219 C 135.394531 257.320312 133.933594 259.488281 133.617188 261.351562 C 133.292969 264.949219 132.921875 268.984375 132.417969 272.460938 C 132.539062 281.816406 134.449219 292.144531 140.234375 299.75 C 140.691406 300.707031 141.828125 301.699219 141.378906 302.664062 M 134.363281 312.964844 L 134.382812 313.066406 C 134.46875 313.746094 133.886719 314.546875 133.035156 315.445312 C 129.101562 319.597656 125.132812 323.75 121.210938 327.910156 C 117.535156 332.769531 114.527344 337.695312 110.765625 342.375 C 108.628906 345.636719 106.613281 348.902344 104.246094 352.003906 C 102.042969 354.90625 99.972656 357.828125 97.707031 360.738281 C 96.363281 362.140625 94.703125 363.257812 93.382812 364.699219 C 92.132812 365.941406 91.179688 367.410156 89.785156 368.421875 C 87.492188 369.921875 85.574219 372.078125 82.863281 372.84375 C 80.6875 373.40625 78.425781 373.882812 76.230469 374.390625 C 75.039062 374.597656 73.441406 374.972656 72.679688 373.808594 C 70.933594 368.335938 77.40625 363.746094 79.484375 359.277344 C 80.6875 356.101562 82.625 353.789062 84.375 351.050781 C 86.722656 347.792969 88.589844 344.214844 91.148438 341.113281 C 93.03125 337.828125 96.085938 335.25 98.109375 332.042969 C 99.722656 329.621094 102.851562 328.035156 104.484375 325.496094 C 107.140625 321.039062 111.644531 317.925781 115.671875 314.738281 C 117.648438 312.78125 119.414062 310.480469 121.449219 308.5625 C 123.386719 307.007812 125.277344 305.890625 127.078125 304.074219 C 127.96875 303.304688 129.378906 301.964844 130.496094 302.082031 C 130.746094 302.136719 130.9375 302.28125 131.0625 302.5 C 131.84375 303.960938 131.175781 307.398438 131.9375 309.324219 C 132.273438 310.824219 133.941406 311.589844 134.363281 312.964844 M 85.109375 428.578125 L 85.15625 428.742188 C 86.472656 432.292969 85.261719 436.875 86.207031 440.1875 C 86.464844 441.257812 86.921875 442.507812 86.808594 443.554688 C 86.757812 444.207031 86.242188 444.804688 85.640625 444.863281 C 82.445312 445.035156 80.238281 440.789062 79.324219 438 C 78.664062 435.710938 77.414062 433.199219 76.679688 431.109375 C 75.238281 427.042969 74.351562 422.949219 73.328125 418.726562 C 72.070312 409.621094 71.621094 400.363281 70.65625 391.199219 C 70.484375 389.777344 70.539062 388.191406 71.925781 387.464844 C 74.140625 386.503906 76.652344 385.777344 78.351562 383.90625 C 79.363281 382.902344 80.105469 381.578125 80.257812 380.085938 C 80.574219 377.988281 78.789062 376.078125 79.449219 375.46875 C 81.308594 374.464844 83.636719 376.507812 83.773438 378.695312 C 84.535156 384.707031 84.117188 391.304688 82.902344 396.90625 C 82.625 398.320312 82.445312 399.714844 82.398438 401.171875 C 82.121094 405.039062 82.617188 408.722656 83.332031 412.503906 C 83.417969 413.6875 83.363281 414.957031 83.371094 416.160156 C 83.277344 419.378906 84.429688 421.371094 84.382812 424.53125 C 84.375 425.933594 84.6875 427.269531 85.109375 428.578125 M 88.621094 447.402344 L 88.765625 447.480469 C 90.40625 448.445312 91.09375 450.382812 92.457031 451.738281 C 95.675781 454.753906 98.929688 457.796875 102.558594 460.320312 C 106.203125 462.992188 109.640625 465.976562 113.9375 467.582031 C 115.339844 468.289062 116.550781 469.28125 117.867188 470.007812 C 120.304688 470.96875 122.535156 471.832031 124.949219 473.042969 C 127.183594 474.3125 129.925781 475.054688 132.445312 475.808594 C 134.441406 476.71875 136.308594 477.683594 138.476562 478.148438 C 140.433594 478.664062 142.019531 479.5625 144.0625 480.164062 C 150.953125 481.863281 157.96875 483.171875 164.746094 485.230469 C 165.117188 485.347656 165.578125 485.574219 165.53125 485.96875 C 165.480469 486.347656 165.003906 486.484375 164.621094 486.5 C 161.101562 486.742188 158.886719 485.832031 154.667969 485.070312 C 151.546875 484.496094 148.375 484.097656 145.320312 483.292969 C 142.867188 482.53125 140.453125 482.425781 137.992188 481.84375 C 136.292969 481.300781 134.5625 480.734375 132.855469 480.152344 C 128.722656 478.742188 124.542969 477.804688 120.722656 475.65625 C 118.785156 474.65625 116.523438 474.140625 114.5 473.273438 C 111.40625 471.324219 107.914062 469.558594 105.078125 467.476562 C 102.910156 466.332031 101.085938 464.785156 99.140625 463.097656 C 96.714844 461.570312 94.929688 459.6875 92.898438 457.519531 C 91.007812 455.71875 88.675781 454.132812 87.046875 452.15625 C 86.042969 450.878906 84.621094 449.386719 84.964844 447.863281 C 85.25 446.832031 87.417969 446.667969 88.621094 447.402344 M 72.585938 378.445312 C 72.832031 378.332031 73.117188 378.179688 73.300781 377.988281 L 73.414062 377.871094 C 73.757812 377.511719 73.976562 377.234375 74.570312 377.339844 C 75.363281 377.578125 76.6875 377.652344 77.234375 378.28125 C 77.40625 378.453125 77.425781 379.078125 77.40625 379.125 C 77.300781 381.234375 76.421875 382.609375 75.152344 384.238281 C 74.882812 384.667969 74.128906 385.003906 73.75 384.957031 C 72.792969 384.859375 71.609375 384.699219 70.980469 383.960938 C 70.683594 383.496094 70.722656 383.066406 70.695312 382.664062 C 70.675781 380.832031 70.597656 379.152344 72.585938 378.445312 M 127.078125 262.621094 L 126.976562 262.707031 C 126.832031 262.808594 126.660156 262.828125 126.460938 262.78125 C 124.578125 262.007812 122.726562 260.652344 121.277344 259.203125 C 120.894531 258.832031 120.320312 258.363281 120.65625 257.847656 C 121.726562 256.578125 122.964844 255.515625 123.652344 253.914062 C 123.835938 253.636719 124.09375 253.324219 124.425781 253.273438 C 126.078125 253.351562 127.578125 255.277344 127.824219 256.699219 C 127.957031 257.90625 127.824219 260.910156 127.078125 262.621094 M 112.457031 250.25 L 112.332031 250.144531 C 110.652344 248.84375 109.152344 247.433594 107.425781 245.972656 C 105.996094 244.875 104.378906 244.015625 103.121094 242.46875 C 101.859375 240.769531 100.113281 239.632812 98.375 238.507812 C 95.914062 236.882812 94.128906 233.964844 91.960938 231.976562 C 90.84375 231.003906 89.625 230.230469 88.46875 229.316406 C 86.855469 228.046875 85.164062 226.25 83.542969 224.847656 C 80.429688 222.613281 77.652344 220.246094 74.933594 217.574219 C 74.300781 216.964844 73.15625 215.253906 74.128906 215.511719 C 75.140625 215.882812 76.925781 217.574219 77.996094 217.753906 C 79.449219 218.003906 78.292969 215.921875 78.816406 215.207031 C 79.285156 214.289062 81.738281 214.328125 83.179688 213.230469 C 85.195312 212.140625 85.507812 208.679688 87.972656 208.496094 C 90.089844 208.800781 91.867188 210.976562 93.296875 212.382812 C 96.230469 215.003906 99.234375 217.515625 102.394531 219.882812 C 105.964844 223.40625 108.847656 227.347656 111.757812 231.339844 C 113.171875 233.132812 113.726562 235.527344 114.765625 237.410156 C 116.769531 242.105469 120.082031 246.277344 122.222656 250.957031 C 122.640625 252.242188 122.488281 253.894531 121.34375 254.761719 C 118.144531 256.769531 114.632812 252.214844 112.457031 250.25 M 72.671875 206.804688 C 72.707031 205.585938 72.488281 203.886719 73.015625 202.890625 L 73.082031 202.757812 C 74.0625 201.089844 76.125 199.65625 78.179688 199.980469 C 80.191406 200.601562 82.472656 201.125 83.742188 202.710938 C 84.238281 203.609375 84.132812 204.773438 84.085938 205.785156 C 83.925781 208.113281 83.6875 209.574219 82.664062 211.234375 C 82.054688 212.105469 80.964844 212.351562 79.945312 212.34375 C 78.636719 212.304688 77.148438 212.476562 76.183594 212.054688 C 75.351562 211.695312 74.589844 211.179688 73.835938 210.671875 C 72.488281 209.863281 72.671875 208.226562 72.671875 206.804688 M 71.382812 200.125 L 71.296875 200.085938 C 70.789062 199.855469 70.609375 198.511719 70.578125 197.726562 C 70.371094 193.664062 70.179688 189.558594 69.96875 185.480469 C 69.84375 183.210938 69.03125 181.300781 68.871094 179.097656 C 68.632812 173.863281 69.175781 168.492188 68.515625 163.296875 C 66.3125 151.785156 67.515625 134.507812 69.375 121.613281 C 69.710938 119.035156 72.203125 118.375 74.789062 118.785156 C 77.597656 119.253906 79.476562 121.820312 80.6875 124.179688 C 81.898438 127.511719 81.339844 131.445312 81.785156 134.851562 C 83.378906 151.28125 80.6875 169.464844 84.390625 184.394531 C 84.859375 187.484375 84.488281 191.332031 85.203125 194.0625 C 85.539062 195.78125 86.578125 198.445312 85.640625 199.925781 C 85.03125 200.574219 83.980469 200.019531 83.246094 199.722656 C 80.238281 198.339844 76.527344 197.335938 73.738281 199.226562 C 73.015625 199.636719 72.089844 200.34375 71.382812 200.125 M 75.105469 113.46875 C 75.191406 113.277344 75.324219 113.070312 75.457031 112.90625 L 75.574219 112.800781 C 76.164062 112.371094 76.9375 112.382812 77.683594 112.191406 C 78.511719 112.09375 79.429688 111.589844 80.203125 112.019531 C 80.753906 112.449219 80.839844 113.375 81.109375 113.964844 C 81.660156 115.53125 82.234375 116.800781 82.292969 118.71875 C 82.070312 120.667969 79.429688 118.300781 78.65625 117.84375 C 77.757812 117.097656 76.441406 116.457031 75.160156 115.894531 C 74.246094 115.378906 74.816406 114.328125 75.105469 113.46875 M 80.304688 109.929688 C 82.808594 106.148438 85.851562 102.386719 88.589844 98.722656 C 94.777344 89.167969 99.523438 79.046875 104.09375 68.644531 C 110.421875 56.816406 117.515625 45.257812 126.410156 35.121094 C 128.777344 32.4375 131.453125 29.859375 133.828125 27.160156 C 134.269531 26.691406 135.539062 25.628906 135.605469 25.945312 C 134.78125 28.4375 131.917969 30.976562 130.421875 33.277344 C 127.632812 37.753906 124.921875 42.296875 122.183594 46.792969 C 118.515625 54.183594 115.550781 61.703125 111.929688 69.113281 C 103.617188 82.714844 96.90625 97.320312 86.464844 109.460938 C 85.289062 110.566406 84.085938 114.613281 82.265625 113.449219 C 81.539062 112.609375 80.183594 111.214844 80.289062 110.023438 Z M 115.777344 190.847656 C 117.734375 178.226562 127.910156 170.238281 138.324219 166.09375 L 138.496094 166.046875 C 145.695312 164.539062 154.941406 162.449219 161.988281 164.71875 C 164.183594 165.386719 165.691406 167.117188 167.335938 168.585938 C 168.039062 169.214844 169.769531 169.863281 170.503906 168.996094 C 170.769531 168.691406 170.953125 168.300781 171.296875 168.082031 C 171.945312 167.660156 172.746094 168.03125 173.441406 167.824219 C 174.292969 167.574219 175.199219 167.039062 175.992188 166.640625 C 177.375 165.914062 178.328125 164.605469 179.53125 163.640625 C 181.164062 162.429688 182.863281 161.5625 184.78125 160.902344 C 189.421875 159.515625 193.996094 162.046875 198.375 163.050781 C 204.722656 165.121094 210.46875 169.28125 215.546875 173.742188 C 219.605469 178.398438 223.097656 183.820312 224.464844 189.882812 C 225.410156 195.3125 216.867188 184.839844 215.652344 184.429688 C 213.734375 183.019531 211.101562 181.835938 209.503906 180.355469 C 208.914062 179.859375 208.339844 179.371094 207.625 179.046875 C 202.96875 177.207031 197.382812 176.039062 192.296875 176.421875 C 187.179688 177.394531 183.953125 179.964844 179.371094 181.875 C 177.527344 182.867188 175.449219 184.078125 173.460938 182.664062 C 172.804688 182.1875 172.136719 181.453125 171.351562 181.671875 C 170.121094 182.027344 170.339844 183.914062 169.40625 184.621094 C 167.859375 185.796875 165.480469 184.839844 164.136719 183.878906 C 161.425781 181.949219 159.542969 178.667969 155.984375 178.101562 C 152.625 177.738281 149.703125 177.261719 146.332031 177.769531 C 144.53125 177.960938 142.3125 177.710938 140.558594 177.960938 C 131.367188 179.886719 122.707031 184.679688 116.636719 192.019531 C 115.550781 193.222656 115.710938 192.03125 115.777344 190.847656 M 122.851562 168.921875 L 122.917969 168.765625 C 123.691406 167.257812 124.167969 165.464844 125.074219 163.859375 C 126.441406 161.789062 128.675781 160.347656 130.210938 158.402344 C 136.671875 150.957031 146.371094 148.015625 159.832031 147.757812 C 161.167969 147.757812 162.371094 147.957031 163.429688 148.691406 C 165.921875 150.613281 166.578125 154.277344 170.425781 153.980469 C 173.003906 153.90625 175.878906 152.109375 177.863281 150.269531 C 180.25 147.84375 181.824219 145.476562 185.414062 145.800781 C 189.660156 145.933594 193.773438 146.410156 196.859375 147.777344 C 197.601562 148.128906 198.242188 148.625 198.882812 149.132812 C 200.535156 150.5625 202.746094 151.539062 204.53125 152.996094 C 206.898438 155.230469 210.097656 156.328125 212.351562 158.707031 C 214.421875 160.75 215.441406 163.738281 217.277344 165.882812 C 217.90625 166.675781 218.527344 167.480469 219.050781 168.335938 C 220.359375 170.601562 221.589844 171.019531 222.515625 172.921875 C 223.214844 174.925781 223.816406 177.234375 224.417969 179.277344 C 224.558594 179.828125 224.710938 180.566406 224.519531 181.035156 C 224.386719 181.242188 223.9375 181.121094 223.472656 180.585938 C 222.6875 179.628906 221.925781 178.085938 221.035156 177.015625 C 218.964844 173.378906 216.21875 170.914062 212.835938 168.527344 C 208.167969 164.671875 202.367188 162.304688 196.800781 160.050781 C 192.792969 159.210938 187.121094 157.597656 183.378906 159.515625 C 179.980469 160.480469 177.890625 163.421875 174.867188 165.1875 C 174.09375 165.636719 173.355469 165.902344 172.460938 165.644531 C 171.972656 165.503906 171.46875 165.234375 170.980469 165.398438 C 170.082031 165.703125 169.988281 166.886719 168.898438 166.6875 C 167.925781 166.503906 167.25 165.542969 166.628906 164.835938 C 165.730469 163.824219 164.433594 163.289062 163.09375 163.011719 C 156.804688 161.894531 149.253906 161.101562 142.851562 162.488281 C 139.574219 163.363281 136.519531 165.09375 133.4375 166.257812 C 130.34375 167.277344 128.074219 169.101562 125.179688 170.945312 C 124.023438 171.601562 122.964844 173.140625 121.753906 173.292969 C 120.933594 172.777344 122.308594 170.035156 122.851562 168.921875 M 133.628906 149.648438 L 133.714844 149.515625 C 137.371094 144.273438 141.886719 139.492188 147.496094 136.320312 C 151.460938 134.164062 155.335938 132.253906 159.972656 132.359375 C 163.945312 132.578125 166.054688 135.949219 169.835938 135.921875 C 171.496094 135.835938 173.308594 135.175781 174.722656 134.308594 C 176.375 133.34375 177.402344 131.703125 179.324219 131.042969 C 180.460938 130.625 181.84375 130.566406 183.09375 130.71875 C 192.285156 131.84375 196.039062 137.457031 201.90625 142.785156 C 203.539062 144.644531 204.789062 147.261719 206.738281 148.675781 C 206.851562 148.742188 206.929688 148.742188 206.976562 148.683594 C 207.175781 147.328125 205.535156 145.621094 205.191406 144.378906 C 204.820312 143.492188 205.289062 143.472656 205.898438 144.042969 C 206.84375 144.863281 207.578125 146.125 208.390625 147.136719 C 210.367188 149.363281 212.1875 151.527344 213.628906 154.066406 C 215.175781 156.453125 217.113281 158.878906 217.820312 161.664062 C 217.761719 163.15625 216.140625 160.796875 215.796875 160.261719 C 214.585938 158.417969 212.808594 156.863281 211.242188 155.347656 C 208.617188 152.691406 205.660156 151.394531 202.375 149.515625 C 197.183594 145.742188 189.449219 142.335938 181.699219 143.882812 C 178.570312 144.808594 177.136719 148.195312 174.40625 150.105469 C 172.46875 151.660156 169.53125 153.09375 167.609375 151.117188 C 166.015625 148.921875 166.1875 146.476562 162.636719 146.355469 C 152.679688 146.171875 141.253906 146.449219 135.507812 150.734375 C 134.039062 151.832031 131.625 152.675781 133.628906 149.648438 M 148.765625 132.847656 C 150.761719 130.777344 152.441406 128.046875 154.800781 126.367188 L 154.960938 126.289062 C 156.507812 125.746094 157.511719 124.515625 158.933594 123.695312 C 159.609375 123.300781 160.574219 123.128906 160.902344 124.046875 C 161.367188 125.640625 161.394531 127.453125 161.65625 129.125 C 161.882812 130.605469 160.824219 131.15625 159.476562 131.128906 C 155.515625 131.175781 152.0625 131.558594 149.742188 133.230469 C 148.882812 133.847656 147.613281 134.363281 148.765625 132.847656 M 164.019531 122.375 C 164.8125 120.484375 166.96875 119.941406 168.613281 119.007812 L 168.757812 118.929688 C 172.632812 116.800781 172.820312 123.425781 175.125 124.859375 C 176.460938 125.460938 176.917969 126.347656 176.460938 127.769531 C 175.761719 129.898438 174.597656 131.644531 172.792969 132.683594 C 171.589844 133.191406 170.523438 132.789062 169.367188 132.722656 C 168.15625 132.695312 166.78125 133.007812 165.804688 132.09375 C 163.164062 129.832031 162.511719 125.507812 164.019531 122.375 M 177.765625 121.601562 L 177.824219 121.535156 C 178.207031 121.144531 179.371094 121.507812 179.980469 121.746094 C 186.636719 124.324219 192.675781 129.675781 197.382812 134.375 C 199.167969 136.214844 200.828125 138.257812 202.625 140.121094 C 202.882812 140.417969 203.53125 141.285156 203.414062 141.402344 C 203.042969 141.410156 202.128906 140.464844 201.734375 140.09375 C 199.3125 137.867188 196.773438 135.710938 194.75 133.164062 C 191.253906 130.058594 187.265625 129.476562 181.871094 129.058594 C 180.925781 129 179.695312 128.820312 179.132812 128.292969 C 178.003906 127.339844 178.617188 125.582031 178.140625 124.054688 C 177.996094 123.28125 177.433594 122.335938 177.765625 121.601562 M 227.316406 195.925781 L 227.375 195.867188 C 227.554688 195.894531 228.035156 195.808594 228.234375 195.925781 C 228.347656 196.238281 228.480469 196.621094 228.417969 196.964844 C 228.332031 197.355469 227.976562 197.453125 227.664062 197.605469 C 227.539062 197.632812 227.394531 197.832031 227.347656 197.777344 C 227.269531 197.328125 227.335938 196.390625 227.316406 195.925781 M 248.644531 196.890625 L 248.492188 196.804688 C 247.066406 195.847656 245.347656 195.101562 244.613281 193.414062 C 243.984375 191.953125 243.355469 190.140625 243.917969 188.8125 C 244.851562 185.703125 247.277344 183.265625 250.550781 182.742188 C 253.0625 182.160156 256.089844 183.285156 257.519531 185.242188 C 258.132812 186.160156 258.054688 187.457031 257.890625 188.746094 C 257.480469 190.855469 257.960938 193.433594 256.527344 195.171875 C 254.5625 196.628906 251.144531 198.28125 248.644531 196.890625 M 248.785156 177.359375 C 249.558594 174.429688 250.914062 171.972656 251.726562 169.386719 L 251.773438 169.226562 C 252.613281 166.550781 252.878906 163.363281 253.855469 160.789062 C 254.992188 157.542969 256.144531 154.746094 257.222656 151.5 C 258.285156 147.269531 259.027344 142.917969 260.03125 138.679688 C 260.777344 135.597656 262.628906 133.601562 263.027344 130.5 C 263.449219 127.757812 263.753906 124.886719 264.191406 122.175781 C 264.613281 120.085938 265.539062 118.347656 265.949219 116.277344 C 266.359375 113.878906 267.019531 112.132812 268.277344 110.386719 C 269.234375 108.898438 269.585938 106.980469 271.226562 106.226562 C 274.109375 105.308594 277.460938 105.652344 277.144531 109.441406 C 276.992188 119.523438 275.464844 127.484375 273.40625 136.113281 C 272.871094 138.84375 273.003906 141.886719 272.324219 144.625 C 271.886719 145.875 271.3125 147.15625 271.027344 148.253906 C 270.484375 152.75 268.824219 157.246094 267.667969 161.675781 C 265.632812 167.289062 264.136719 173.140625 261.453125 178.484375 C 260.726562 179.898438 260.363281 182.3125 258.371094 182.265625 C 257.023438 182.226562 255.105469 180.203125 253.570312 179.800781 C 252.554688 179.46875 251.457031 179.589844 250.484375 179.964844 C 249.855469 180.195312 249.074219 180.414062 248.671875 179.859375 C 248.320312 179.191406 248.625 178.132812 248.785156 177.359375 M 254.378906 128.835938 C 254.292969 128.695312 254.054688 128.371094 254.074219 128.238281 L 254.101562 128.199219 C 256.574219 129.324219 258.320312 131.167969 258.839844 134.03125 C 258.941406 134.640625 258.558594 135.242188 257.988281 134.632812 C 256.984375 132.378906 255.734375 130.6875 254.378906 128.835938 M 278.015625 157.78125 C 279.570312 157.921875 281.308594 162.621094 282.691406 163.824219 L 282.828125 163.957031 C 284.304688 165.160156 284.859375 166.800781 286.214844 168.203125 C 287.425781 169.550781 288.3125 171.390625 288.476562 173.175781 C 288.507812 174.285156 287.285156 175.527344 286.691406 176.375 C 285.84375 177.566406 285.421875 176.003906 285.136719 175.171875 C 283.511719 169.417969 280.6875 164.117188 278.347656 159.050781 C 278.1875 158.675781 277.878906 158.027344 278.015625 157.78125 M 62.015625 327.652344 L 62.09375 327.757812 C 62.238281 327.988281 62.21875 328.371094 62.21875 328.78125 C 62.179688 329.3125 62.371094 330.125 61.902344 330.46875 C 61.65625 330.605469 61.3125 330.726562 61.0625 330.898438 C 60.652344 331.460938 60.679688 331.855469 60.308594 331.148438 C 59.660156 329.714844 58.253906 328.894531 57.53125 327.5 C 57.195312 326.652344 57.914062 326.605469 58.667969 326.832031 C 59.679688 327.121094 61.175781 327.175781 62.015625 327.652344 M 58.199219 333.074219 C 58.027344 333.46875 57.835938 333.933594 57.425781 334.136719 L 57.265625 334.203125 C 55.804688 334.402344 54.304688 334.078125 53.042969 333.515625 C 52.75 333.304688 52.605469 332.980469 52.558594 332.609375 C 52.527344 331.015625 52.769531 329.609375 53.28125 328.234375 C 53.609375 327.566406 54.582031 327.433594 55.203125 327.789062 C 55.679688 328.074219 55.8125 328.78125 55.984375 329.285156 C 56.289062 330.203125 56.71875 330.976562 57.464844 331.617188 C 58.019531 332.035156 58.449219 332.492188 58.199219 333.074219 M 14.851562 397.394531 L 14.765625 397.527344 C 13.304688 399.683594 12.332031 401.707031 11.160156 404.027344 C 10.164062 406.480469 9.925781 409.390625 8.941406 411.847656 C 4.78125 423.339844 3.570312 437.445312 3.703125 453.253906 C 3.664062 454.074219 3.789062 456.261719 3.347656 456.050781 C 1.890625 451.621094 2.664062 444.890625 2.679688 439.957031 C 2.605469 430.410156 4.609375 420.121094 7.273438 411.894531 C 7.761719 409.355469 8.160156 406.910156 9.058594 404.5625 C 9.707031 400.992188 11.167969 397.738281 12.722656 394.359375 C 13.011719 393.679688 13.316406 392.972656 13.765625 392.402344 C 14.652344 391.238281 16.417969 390.585938 17 391.90625 C 17.363281 393.269531 15.703125 395.921875 14.851562 397.394531 M 109.925781 282.894531 C 110.089844 283.402344 110.125 283.792969 109.898438 284.097656 L 109.839844 284.164062 C 109.441406 284.667969 107.914062 284.832031 107.023438 284.871094 C 98.625 285.183594 91.226562 287.019531 83.867188 288.402344 C 80.640625 288.449219 77.824219 288.976562 74.65625 289.460938 C 70.875 289.578125 67.058594 289.472656 63.277344 289.507812 C 56.453125 289.480469 48.03125 289.472656 41.265625 287.617188 C 39.507812 287.085938 38.265625 286.511719 36.863281 285.851562 C 36.605469 285.730469 36.339844 285.539062 36.246094 285.328125 C 36.1875 285.15625 36.359375 285.03125 36.710938 284.910156 C 37.199219 284.738281 37.953125 284.507812 38.515625 284.289062 C 40.644531 283.582031 41.597656 281.128906 41.78125 278.867188 C 41.960938 277.808594 41.800781 276.335938 42.601562 275.574219 C 43.03125 275.277344 44.023438 276.136719 44.738281 276.15625 C 44.929688 276.15625 45.09375 276.097656 45.214844 276.003906 C 45.820312 275.609375 45.410156 274.160156 45.933594 273.777344 C 46.554688 273.40625 47.414062 273.652344 48.15625 273.757812 C 52.835938 274.722656 58.5625 276.71875 63.871094 276.507812 C 66.179688 276.382812 67.820312 275.449219 69.871094 275.21875 C 73.367188 275.085938 76.6875 274.992188 80.132812 273.960938 C 84.296875 273.109375 88.179688 271.832031 92.285156 271.371094 C 94.625 271.230469 96.984375 271.257812 99.234375 270.675781 C 104.867188 269.195312 110.71875 267.90625 117.46875 267.574219 C 118.230469 267.515625 119.546875 267.554688 119.988281 267.753906 C 120.953125 268.175781 118.765625 269.195312 118.375 269.414062 C 115.300781 270.742188 112.808594 273.578125 110.671875 276.15625 C 110.070312 276.917969 109.390625 278.160156 109.269531 279.074219 C 108.933594 280.382812 109.542969 281.871094 109.925781 282.894531 M 34.976562 274.238281 C 34.238281 274.207031 33.636719 274.445312 33.027344 274.722656 C 32.578125 274.921875 32.121094 275.144531 31.605469 275.285156 C 31.078125 275.417969 30.382812 275.34375 29.828125 275.351562 C 29.582031 275.363281 26.898438 275.316406 27.835938 274.425781 C 28.246094 274.035156 28.867188 273.789062 29.296875 273.453125 C 29.695312 273.121094 30.496094 273.128906 31.003906 273.054688 C 31.660156 272.949219 32.3125 272.871094 32.96875 272.8125 C 33.542969 272.765625 34.125 272.726562 34.707031 272.699219 C 35.335938 272.679688 35.507812 272.691406 35.9375 273.148438 C 36.796875 274.066406 35.746094 274.265625 34.976562 274.238281 M 34.460938 280.210938 C 34.269531 281.003906 34.183594 282.101562 33.542969 282.539062 L 33.410156 282.609375 C 32.453125 282.886719 31.28125 282.550781 30.382812 282.332031 C 28.285156 281.644531 26.296875 280.515625 25.066406 278.683594 C 24.816406 278.054688 25.90625 277.671875 26.34375 277.617188 C 27.425781 277.5 28.511719 277.378906 29.589844 277.261719 C 30.515625 277.15625 31.699219 276.824219 32.625 276.976562 C 34.152344 277.222656 34.773438 278.835938 34.460938 280.210938 M 22.421875 274.90625 L 22.328125 274.867188 C 21.765625 274.617188 21.5625 273.910156 21.46875 273.273438 C 21.046875 268.058594 22.117188 261.351562 20.398438 255.910156 C 17.859375 243.816406 20.503906 226.175781 23.941406 216.742188 C 24.417969 215.4375 25.054688 213.925781 26.652344 213.917969 C 28.570312 213.753906 31.183594 213.640625 31.269531 216.246094 C 31.234375 218.0625 29.636719 219.921875 29.886719 222.148438 C 30.066406 234.261719 30.601562 245.152344 33.09375 254.734375 C 33.78125 256.988281 33.65625 259.699219 34.039062 261.902344 C 34.375 264.242188 35.308594 266.410156 36.121094 268.605469 C 36.570312 270.496094 34.164062 271.085938 32.710938 271.324219 C 29.382812 271.851562 27.136719 272.929688 24.769531 274.226562 C 24.074219 274.589844 23.167969 275.105469 22.421875 274.90625 M 30.667969 199.617188 C 31.882812 192.707031 34.957031 186.75 37.160156 180.296875 L 37.207031 180.136719 C 37.742188 177.578125 39.355469 175.421875 40.273438 172.835938 C 41.140625 170.667969 42.324219 168.664062 43.460938 166.761719 C 43.671875 166.464844 43.792969 166.351562 43.832031 166.464844 C 43.574219 170.007812 41.199219 173.570312 39.996094 176.738281 C 38.878906 180.964844 38.25 185.359375 36.988281 189.527344 C 35.335938 194.65625 33.511719 201.070312 32.777344 207.417969 C 32.492188 208.90625 32.816406 213.441406 30.46875 211.882812 C 29.714844 211.140625 29.503906 209.851562 29.523438 208.761719 C 29.65625 205.507812 30.117188 202.433594 30.667969 199.617188 M 36.398438 276.585938 C 36.539062 275.8125 37.285156 275.707031 38.027344 275.515625 C 38.628906 275.417969 39.574219 274.941406 40.0625 275.210938 L 40.15625 275.304688 C 41.425781 277.328125 40.769531 279.402344 39.746094 281.367188 C 39.519531 281.785156 39.414062 282.140625 38.972656 282.339844 C 38.371094 282.628906 37.597656 282.570312 36.960938 282.761719 C 36.578125 282.761719 36.414062 282.53125 36.367188 282.140625 C 36.359375 280.34375 36.292969 278.40625 36.398438 276.585938 M 298.308594 231.339844 C 292.027344 236.40625 284.734375 240.082031 277.863281 244.292969 C 265.566406 251.300781 252.710938 257.226562 239.546875 262.4375 C 234.773438 263.8125 230 267.765625 224.847656 267.363281 C 223.441406 266.828125 222.972656 265.207031 222.429688 263.917969 C 221.722656 261.855469 220.023438 260.183594 220.246094 258.707031 C 221.867188 255.089844 227.738281 254.640625 230.917969 252.558594 C 245.730469 242.527344 260.726562 232.523438 277.632812 226.296875 C 283.101562 224.636719 289.097656 222.957031 294.710938 224.425781 C 296.839844 225.027344 298.164062 227.414062 299.359375 227.03125 C 304.523438 221.402344 304.503906 207.523438 304.484375 200.085938 L 304.457031 199.914062 C 303.339844 186.636719 301.984375 179 290.75 170.839844 C 287.457031 164.613281 281.089844 155.996094 276.058594 151.214844 C 271.007812 142 282.050781 120.792969 279.457031 107.921875 C 278.320312 99.523438 269.75 106.53125 266.847656 102.207031 C 251.449219 78.066406 230.785156 57.371094 208.046875 40.082031 C 207.359375 39.605469 206.910156 39.222656 206.824219 39.050781 C 217.316406 43.710938 228.40625 50.5625 237.675781 57.902344 C 246.21875 65.683594 255.113281 73.828125 262.523438 82.582031 C 268.410156 88.480469 271.800781 96.144531 277.585938 102.035156 C 284.125 105.566406 277.84375 97.632812 276.324219 96.238281 C 252.328125 60.242188 217.324219 37.714844 176.773438 21.535156 C 174.511719 20.449219 169.882812 20.457031 173.71875 23.28125 C 177.863281 25.183594 182.367188 26.222656 186.0625 28.886719 C 216.023438 46.679688 241.808594 70.570312 262.121094 98.816406 C 268.582031 106.789062 262.988281 114.40625 261.5 123.585938 C 260.261719 133.648438 252.507812 120.761719 249.664062 118.070312 C 242.5625 111.960938 235.691406 105.652344 228.0625 100.191406 C 227.023438 98.921875 222.046875 96.613281 222.191406 99.152344 C 224.140625 102.121094 227.863281 104.410156 230.429688 106.796875 C 240.394531 115.695312 251.554688 124.972656 257.394531 137.132812 C 257.605469 146.078125 252.640625 154.277344 251.210938 162.914062 C 249.644531 166.847656 249.359375 170.980469 247.574219 175.046875 C 243.632812 181.347656 239.839844 186.695312 235.910156 193.128906 C 235.289062 193.917969 230.527344 201.792969 234.257812 199.207031 C 236.671875 196.925781 238.199219 192.566406 240.9375 190.558594 C 242.09375 190.503906 242.144531 194.148438 243.765625 195.457031 C 245.492188 198.101562 250.292969 198.082031 251.046875 201.210938 C 248.96875 206.730469 244.710938 211.628906 241.386719 216.570312 C 239.832031 218.089844 227.757812 236.207031 230.554688 225.230469 C 233.941406 199.648438 227.566406 169.035156 212.292969 147.765625 C 199.78125 130.71875 174.933594 104.21875 153.949219 124.082031 C 126.34375 147.355469 109.851562 182.1875 109.785156 218.574219 C 109.449219 219.644531 111.015625 224.589844 109.648438 224.140625 C 106.957031 221.804688 104.515625 218.375 101.460938 216.398438 C 83.722656 202.484375 89.375 202.347656 86.453125 181.519531 C 83.226562 162.640625 84.441406 143.269531 84.097656 124.152344 C 83.839844 115.808594 89.375 109.9375 94.089844 103.78125 C 100.457031 94.128906 106.023438 83.714844 111.902344 73.722656 C 120.789062 55.964844 127.738281 37.019531 141.703125 22.347656 C 147.277344 15.628906 154.304688 9.824219 161.929688 5.507812 C 164.296875 3.675781 169.546875 2.921875 169.472656 0.289062 C 168.164062 -0.503906 166.035156 0.535156 164.566406 1.050781 C 141.503906 12.601562 122.59375 31.808594 109.183594 53.675781 C 99.808594 68.585938 95.035156 85.777344 84.488281 100.039062 C 78.378906 109.929688 69.664062 108.21875 66.867188 119.914062 C 63.554688 144.074219 66.609375 169.082031 67.609375 193.421875 C 69.546875 202.777344 68.058594 214.117188 75.582031 221.304688 C 87.960938 232.265625 100.371094 242.898438 112.789062 253.695312 C 115.070312 255.871094 116.417969 258.371094 118.652344 260.40625 C 120.75 262.4375 124.417969 262.933594 125.484375 265.863281 C 126.375 269.5 125.503906 274.847656 126.667969 278.820312 C 126.8125 280.144531 127.078125 281.757812 125.4375 281.769531 C 122.277344 281.40625 119.347656 282.675781 115.941406 282.664062 C 108.636719 282.476562 110.679688 276.605469 115.53125 273.808594 C 117.46875 271.707031 128.074219 268.527344 123.453125 265.386719 C 107.941406 265.082031 92.019531 269.339844 76.726562 271.714844 C 71.800781 272.785156 66.304688 273.710938 61.175781 273.75 C 56.164062 273.902344 53.113281 271.488281 48.320312 271.441406 C 45.226562 271.410156 41.378906 272.765625 39.230469 269.777344 C 36.882812 265.195312 35.691406 259.792969 35.367188 254.660156 C 35.710938 244.472656 34.925781 234.5 33.839844 224.378906 C 33.597656 210.214844 36.828125 195.464844 41.121094 182.867188 C 43.5 173.222656 47.125 164.042969 52.671875 155.757812 C 55.621094 150.316406 60.71875 145.875 62.914062 140.160156 C 60.460938 135.0625 50.6875 151.460938 48.671875 153.371094 C 35.699219 170.054688 29.792969 190.933594 25.4375 211.054688 C 13.113281 225.574219 17.34375 261.539062 20.886719 280.296875 C 25.753906 288.328125 30.164062 285.519531 37.570312 288.804688 C 47.996094 291.464844 58.542969 294.234375 69.394531 292.230469 C 82.175781 291.257812 94.234375 288.632812 107.234375 286.875 C 110.164062 286.636719 112.703125 285.128906 115.480469 284.945312 C 121.257812 284.765625 116.664062 288.726562 113.667969 289.863281 C 100.628906 296 87.054688 300.574219 74.445312 307.730469 C 59.507812 316.722656 47.535156 329.773438 36.742188 343.289062 C 29.980469 351.050781 25.773438 360.433594 20.167969 368.976562 C 18.207031 371.96875 16.128906 375.03125 14.371094 378.148438 C 12.660156 381.175781 11.082031 385.179688 12.574219 388.566406 C 12.714844 388.890625 12.941406 389.25 13.296875 389.28125 C 13.894531 389.332031 14.101562 388.515625 14.121094 387.917969 C 14.390625 379.609375 21 372.789062 25.171875 366.082031 C 28.78125 359.734375 31.910156 353.113281 36.605469 347.5 C 39.882812 342.792969 43.910156 338.546875 47.480469 334.078125 C 49.484375 331.480469 50.894531 334.765625 52.566406 335.882812 C 53.980469 337.648438 58.535156 336.128906 59.621094 336.246094 C 58.113281 338.117188 55.125 340.625 53.550781 342.734375 C 44.996094 352.328125 37.53125 362.582031 30 372.957031 C 26.394531 378.128906 23.167969 383.6875 18.890625 388.289062 C 17.199219 389.691406 14.519531 388.535156 12.847656 389.71875 C 2.617188 404.199219 -1.785156 437.695312 0.828125 455.066406 C 1.890625 469.777344 3.148438 484.753906 9.628906 498.195312 C 10.261719 499.53125 10.816406 501.25 12.238281 501.792969 C 12.636719 501.773438 12.695312 501.917969 13.058594 501.613281 C 13.832031 500.734375 13.441406 499.539062 13.285156 498.480469 C 10.175781 489.335938 8.648438 479.78125 7.398438 470.226562 C 4.5625 448.433594 5.753906 425.582031 13.609375 404.960938 C 17.992188 393.949219 25.398438 384.375 32.121094 374.734375 C 40.941406 361.914062 50.46875 349.199219 61.464844 338.191406 C 76.289062 332.339844 92.589844 328.914062 105.441406 318.785156 C 114.097656 312.53125 109.488281 312.1875 103.503906 317.640625 C 96.859375 321.945312 90.300781 325.726562 82.558594 327.730469 C 77.109375 329.113281 71.886719 331.472656 66.761719 333.449219 C 64.832031 333.027344 65.789062 330.117188 64.691406 328.789062 C 63.917969 326.164062 59.269531 324.875 58.914062 323.023438 C 70.742188 310.433594 88.390625 303.320312 104.265625 296.898438 C 112.601562 293.003906 121.4375 285.949219 127.976562 296.667969 C 133.980469 300.144531 127.71875 291.945312 126.335938 290.40625 C 125.199219 289.28125 123.652344 288.746094 122.746094 287.496094 C 122.460938 286.710938 123.507812 286.398438 124.121094 286.234375 C 129 285.269531 131.996094 294.148438 131.957031 297.910156 C 130.527344 301.070312 126.25 301.269531 123.929688 303.742188 C 109.515625 316.742188 95.0625 330.238281 84.460938 346.707031 C 79.6875 355.414062 71.964844 363.203125 69.929688 373.082031 C 68.917969 377.558594 66.167969 381.578125 68.355469 386.179688 C 69.613281 393.460938 69.042969 401.527344 69.613281 408.945312 C 72.117188 455.898438 109.277344 482.328125 153.214844 487.875 C 157.160156 487.867188 173.660156 490.53125 175.773438 486.960938 C 172.839844 483.617188 165.214844 484.71875 161.042969 482.835938 C 152.507812 480.851562 145.570312 477.683594 137.675781 475.523438 C 119.320312 470.015625 101.546875 459.898438 89.957031 444.28125 C 87.648438 438.363281 87.828125 431.644531 86.816406 425.324219 C 86.339844 417.9375 83.925781 410.871094 84.753906 403.472656 C 85.660156 394.550781 88.179688 385.214844 85.71875 376.71875 C 86.558594 373.128906 90.835938 371.449219 93.257812 368.871094 C 96.707031 365.1875 100.570312 361.539062 103.425781 357.511719 C 113.105469 344.101562 121.316406 329.886719 133.171875 318.195312 C 134.429688 316.550781 137.609375 315.511719 138.898438 314.777344 C 140.214844 313.066406 134.199219 311.589844 133.761719 309.421875 C 132.597656 307.035156 133.015625 302.910156 134.542969 300.675781 C 135.691406 300.085938 142.246094 307.386719 142.46875 308.726562 C 143.441406 311.347656 141.902344 314.269531 142.085938 316.839844 C 141.457031 323.480469 148.300781 327.605469 150.667969 333.085938 C 152.117188 343.621094 152.355469 356.082031 161.570312 362.992188 C 164.851562 365.023438 168.308594 363.066406 171.105469 362.140625 C 172.59375 362.105469 174.855469 363.660156 177.003906 363.441406 C 186.0625 361.570312 189.25 349.179688 189.183594 340.710938 C 189.175781 337.859375 186.96875 334.601562 189.039062 332.101562 C 194.128906 327.960938 196.3125 326.269531 199.226562 320.035156 C 199.902344 319.332031 200.859375 319.464844 201.765625 319.617188 C 204.207031 320.199219 207.167969 319.367188 209.179688 321.132812 C 214.203125 326.621094 215.75 334.355469 219.214844 340.75 C 223.777344 349.425781 229.21875 357.664062 234.832031 365.664062 C 237.285156 370.742188 243.566406 374.808594 244.394531 380.488281 C 244.089844 382.042969 242.113281 383.65625 240.644531 385.183594 C 222.230469 399.769531 201.898438 407.351562 177.890625 411.636719 C 176.679688 412.054688 175.410156 412.78125 176.429688 413.859375 C 180.871094 416.753906 187.1875 415.0625 192.390625 414.585938 C 207.445312 413.144531 221.046875 406.664062 233.820312 400.609375 C 239.832031 397.757812 245.3125 392.832031 251.839844 391.277344 C 253.367188 391.199219 253.578125 392.871094 253.816406 394.070312 C 256.316406 412.226562 255.335938 432.359375 255.125 450.8125 C 252.863281 461.425781 247.382812 470.96875 241.339844 479.867188 C 229.160156 497.679688 212.074219 511.398438 193.621094 522.316406 C 191.484375 524.609375 178.378906 527.195312 181.183594 530.628906 C 211.652344 528.796875 241.320312 496.113281 257.835938 472.421875 C 259.742188 469.796875 260.394531 465.445312 262.167969 462.800781 C 263.34375 461.003906 264.949219 459.554688 265.289062 457.332031 C 269.375 439.792969 267.65625 417.277344 265.875 398.941406 C 266.0625 379.800781 259.667969 386.417969 273.777344 370.398438 C 284.21875 356.519531 298.042969 338.496094 298.222656 320.597656 C 297.058594 316.550781 292.410156 316.496094 289.496094 314.386719 C 287.359375 313.019531 285.289062 311.472656 283.1875 309.917969 C 269.078125 298.222656 251.566406 291.617188 233.875 287.78125 C 230.808594 287.117188 227.699219 286.636719 224.632812 285.964844 C 222.527344 285.5 220.515625 284.609375 218.480469 283.886719 C 217.804688 283.644531 217.007812 283.332031 216.550781 282.746094 C 216.082031 282.148438 216.332031 281.617188 215.582031 281.222656 C 214.144531 280.46875 212.566406 279.984375 210.953125 279.804688 C 210.597656 279.761719 210.15625 279.777344 209.984375 280.09375 C 209.878906 280.296875 209.929688 280.554688 210.050781 280.75 C 210.488281 281.46875 211.542969 281.488281 212.171875 282.050781 C 212.941406 282.75 212.808594 283.972656 212.652344 285 C 212.425781 286.5 212.292969 288.011719 212.246094 289.527344 C 212.207031 290.855469 212.113281 292.132812 211.132812 293.164062 C 210.234375 294.109375 208.78125 294.175781 207.519531 294.519531 C 207.265625 294.589844 206.96875 294.734375 206.972656 294.996094 C 206.980469 295.253906 207.28125 295.386719 207.53125 295.453125 C 208.957031 295.824219 210.4375 296.03125 211.90625 296.152344 C 216.25 296.515625 221.898438 296.222656 225.410156 299.273438 C 243.527344 309.976562 261.941406 319.398438 282.15625 325.363281 C 287.800781 327.386719 281.546875 333.125 280.679688 336.53125 C 275.695312 345.582031 271.398438 354.878906 265.480469 363.375 C 263.773438 365.0625 260.746094 371.191406 258.371094 367.316406 C 256.289062 362.523438 253.550781 358.246094 251.601562 353.558594 C 248.777344 347.097656 244.109375 341.636719 240.339844 335.738281 C 234.496094 327.109375 229.3125 317.925781 221.417969 310.949219 C 219.195312 308.398438 216.121094 306.824219 213.753906 304.628906 C 212.179688 302.921875 211.480469 300.316406 209.078125 299.304688 C 206.328125 298.5 204.363281 296.515625 205.613281 293.539062 C 207.816406 285.957031 209.535156 279.074219 208.398438 271.03125 C 208.550781 267.714844 206.230469 263.21875 208.960938 260.835938 C 214.269531 256.578125 223.097656 263.773438 219.730469 269.828125 C 219.011719 271.441406 216.601562 271.808594 215.09375 272.179688 C 214.164062 272.40625 213.28125 272.691406 212.378906 272.988281 C 211.933594 273.136719 211.480469 273.308594 211.039062 273.4375 C 210.671875 273.546875 210.085938 273.542969 210.054688 274.0625 C 210.035156 274.34375 210.273438 274.589844 210.542969 274.671875 C 211.09375 274.84375 211.902344 274.667969 212.46875 274.632812 C 213.175781 274.585938 213.878906 274.53125 214.582031 274.441406 C 215.96875 274.269531 217.339844 273.976562 218.648438 273.480469 C 221.183594 272.519531 223.554688 271.191406 226 270.035156 C 229.972656 268.613281 234.46875 267.390625 237.761719 265.808594 C 251.878906 260.40625 265.703125 254.230469 278.742188 246.621094 C 283.597656 244.128906 288.019531 241.277344 292.621094 238.527344 C 295.617188 236.464844 299.835938 234.671875 301.085938 231.375 C 301.277344 229.945312 299.300781 230.59375 298.308594 231.339844 "/>
</g>
<path fill-rule="evenodd" fill="#F25FC1" fill-opacity="1" d="M 162.597656 326.441406 C 162.542969 326.527344 162.476562 326.59375 162.359375 326.652344 C 162.273438 326.679688 162.1875 326.679688 162.09375 326.679688 C 161.703125 326.671875 160.976562 326.5 160.765625 326.125 C 160.546875 325.742188 160.898438 325.144531 161.226562 324.953125 C 161.625 324.703125 162.199219 324.789062 162.523438 325.132812 C 162.835938 325.488281 162.875 326.058594 162.597656 326.441406 M 161.128906 322.058594 C 160.058594 322.382812 159.382812 323.050781 159.027344 323.960938 C 158.855469 324.390625 158.769531 324.867188 158.742188 325.390625 C 158.703125 326.308594 158.875 327.222656 159.105469 328.121094 C 159.199219 328.511719 159.324219 328.914062 159.582031 329.21875 C 160.058594 329.78125 160.890625 329.886719 161.625 329.847656 C 163.640625 329.742188 165.128906 328.378906 165.070312 326.269531 C 165.042969 325.199219 164.6875 324.035156 164.183594 323.101562 C 163.5625 321.953125 162.359375 321.699219 161.128906 322.058594 "/>
<path fill-rule="evenodd" fill="#F25FC1" fill-opacity="1" d="M 181.539062 326.183594 C 181.46875 326.296875 181.375 326.382812 181.261719 326.441406 C 180.945312 326.59375 180.507812 326.546875 180.21875 326.375 C 180.164062 326.347656 180.105469 326.308594 180.066406 326.261719 C 179.992188 326.183594 179.953125 326.089844 179.914062 325.992188 C 179.839844 325.78125 179.789062 325.554688 179.820312 325.324219 C 179.839844 325.132812 179.914062 324.941406 180.046875 324.789062 C 180.164062 324.664062 180.324219 324.609375 180.496094 324.589844 C 180.820312 324.550781 181.175781 324.65625 181.402344 324.902344 C 181.710938 325.230469 181.765625 325.800781 181.539062 326.183594 M 182.242188 322.335938 C 181.957031 322.164062 181.660156 322.03125 181.347656 321.945312 C 180.582031 321.726562 179.601562 321.886719 178.847656 322.125 C 177.367188 322.804688 176.878906 324.75 177.109375 326.242188 C 177.183594 326.691406 177.316406 327.136719 177.488281 327.558594 C 177.652344 327.960938 177.757812 328.285156 178.109375 328.578125 C 178.433594 328.847656 178.855469 329.019531 179.277344 329.105469 C 180.785156 329.402344 182.652344 329.21875 183.4375 327.703125 C 183.570312 327.433594 183.664062 327.148438 183.742188 326.851562 C 184.058594 325.582031 184.039062 324.320312 183.226562 323.242188 C 182.960938 322.878906 182.625 322.574219 182.242188 322.335938 "/>
<path fill-rule="evenodd" fill="#F25FC1" fill-opacity="1" d="M 171.734375 327.242188 C 171.667969 327.359375 171.574219 327.433594 171.449219 327.480469 C 171.152344 327.597656 170.761719 327.546875 170.511719 327.433594 C 169.835938 327.109375 169.597656 326.210938 170.300781 325.78125 C 170.710938 325.542969 171.285156 325.621094 171.601562 325.972656 C 171.90625 326.289062 171.964844 326.863281 171.734375 327.242188 M 172.871094 323.378906 C 172.03125 323.050781 171.246094 322.8125 170.332031 322.878906 C 169.652344 322.929688 168.984375 323.121094 168.382812 323.433594 C 168.296875 323.472656 168.222656 323.519531 168.136719 323.566406 C 167.503906 323.960938 167.34375 324.769531 167.257812 325.46875 C 167.125 326.460938 167.210938 327.472656 167.449219 328.445312 C 167.648438 329.257812 168.175781 329.859375 169.003906 330.125 C 169.5 330.289062 170.035156 330.316406 170.550781 330.316406 C 171.878906 330.335938 173.28125 329.828125 174.234375 328.886719 C 174.367188 328.75 174.484375 328.589844 174.570312 328.417969 C 175.160156 327.261719 174.664062 325.734375 174.09375 324.683594 C 173.785156 324.132812 173.460938 323.597656 172.871094 323.378906 "/>
<path fill-rule="evenodd" fill="#F25FC1" fill-opacity="1" d="M 155.753906 322.710938 C 155.1875 322.300781 154.359375 322.042969 153.660156 322.191406 C 153.316406 322.265625 152.847656 322.40625 152.554688 322.617188 C 152.269531 322.824219 152.070312 323.28125 151.972656 323.605469 C 151.734375 324.390625 151.855469 325.242188 152.097656 326.027344 C 152.148438 326.195312 152.207031 326.367188 152.300781 326.515625 C 152.40625 326.6875 152.554688 326.828125 152.710938 326.953125 C 152.980469 327.160156 153.28125 327.320312 153.601562 327.425781 C 154.417969 327.699219 155.371094 327.398438 155.957031 326.765625 C 156.105469 326.605469 156.234375 326.425781 156.332031 326.230469 C 156.550781 325.792969 156.613281 325.296875 156.632812 324.8125 C 156.65625 324.269531 156.617188 323.691406 156.304688 323.242188 C 156.160156 323.03125 155.960938 322.863281 155.753906 322.710938 "/>
<path fill-rule="evenodd" fill="#F25FC1" fill-opacity="1" d="M 168.308594 320.875 C 168.527344 320.441406 168.589844 319.945312 168.609375 319.460938 C 168.632812 318.917969 168.59375 318.335938 168.285156 317.890625 C 168.136719 317.679688 167.9375 317.511719 167.730469 317.359375 C 167.164062 316.945312 166.332031 316.691406 165.636719 316.839844 C 165.292969 316.910156 164.824219 317.054688 164.53125 317.261719 C 164.246094 317.46875 164.046875 317.929688 163.949219 318.253906 C 163.714844 319.039062 163.832031 319.890625 164.074219 320.675781 C 164.125 320.84375 164.183594 321.011719 164.277344 321.164062 C 164.382812 321.335938 164.53125 321.476562 164.6875 321.601562 C 164.957031 321.808594 165.257812 321.96875 165.578125 322.074219 C 166.398438 322.347656 167.347656 322.042969 167.933594 321.414062 C 168.082031 321.25 168.210938 321.070312 168.308594 320.875 "/>
<path fill-rule="evenodd" fill="#F25FC1" fill-opacity="1" d="M 178.191406 320.875 C 178.410156 320.441406 178.472656 319.945312 178.492188 319.460938 C 178.515625 318.917969 178.476562 318.335938 178.167969 317.890625 C 178.019531 317.679688 177.820312 317.511719 177.613281 317.359375 C 177.050781 316.945312 176.21875 316.691406 175.519531 316.839844 C 175.175781 316.910156 174.707031 317.054688 174.414062 317.261719 C 174.128906 317.46875 173.929688 317.929688 173.832031 318.253906 C 173.597656 319.039062 173.714844 319.890625 173.957031 320.675781 C 174.007812 320.84375 174.066406 321.011719 174.160156 321.164062 C 174.265625 321.335938 174.414062 321.476562 174.570312 321.601562 C 174.839844 321.808594 175.140625 321.96875 175.460938 322.074219 C 176.28125 322.347656 177.230469 322.042969 177.816406 321.414062 C 177.964844 321.25 178.09375 321.070312 178.191406 320.875 "/>
<path fill-rule="evenodd" fill="#F25FC1" fill-opacity="1" d="M 189.695312 321.699219 C 189.132812 321.285156 188.300781 321.027344 187.605469 321.175781 C 187.257812 321.25 186.792969 321.394531 186.496094 321.601562 C 186.210938 321.808594 186.015625 322.265625 185.917969 322.589844 C 185.679688 323.375 185.796875 324.226562 186.039062 325.011719 C 186.09375 325.183594 186.152344 325.351562 186.242188 325.5 C 186.351562 325.671875 186.496094 325.8125 186.65625 325.9375 C 186.921875 326.144531 187.226562 326.304688 187.546875 326.414062 C 188.363281 326.683594 189.316406 326.382812 189.898438 325.75 C 190.050781 325.589844 190.175781 325.410156 190.273438 325.214844 C 190.492188 324.78125 190.554688 324.28125 190.574219 323.796875 C 190.597656 323.253906 190.558594 322.675781 190.25 322.230469 C 190.105469 322.015625 189.902344 321.847656 189.695312 321.699219 "/>
</svg>
