<?xml version="1.0" encoding="UTF-8"?>
<svg id="b" data-name="Ebene_2" xmlns="http://www.w3.org/2000/svg" width="889.988" height="1386.329" viewBox="0 0 889.988 1386.329">
  <g id="c" data-name="Layer_1">
    <g>
      <path d="M883.488,580.402c3.8-12.6,6.4-41.1,6.5-70.3,0-41.9-8-67.8-32.2-104.2-11.8-17.7-20.5-22.3-27.9-14.9-3,3-3.4,4-3.4,8.7,0,3,.5,7.2,1,9.4,4.2,17,7.6,41.5,9.4,68,1.3,19.4,1.3,22.4-.4,39.5-2.7,27.3-5.3,37.5-14.3,56-4.6,9.4-7.7,13.9-9.9,14-.4,0-6.1,3.3-12.5,7.4-25.6,16-50,29.1-73.8,39.6-7.7,3.4-17.8,7.8-22.5,9.9-30,13.5-43.9,18.8-42.8,16.3.2-.4,2.8-5.7,5.8-11.7,3.1-6.1,6.6-13.3,7.8-16.2,1.5-3.4,3.8-6.4,6.5-8.5,11.1-8.5,31-26.9,50.3-46.5,18-18.1,27.5-31.9,32.9-47.8,3.5-10.4,3.6-10.5,11.1-18.7,12.9-14.1,17.8-26,22.9-56.3.8-5,1.5-11.5,1.5-14.5s.7-9.8,1.5-15,1.5-12,1.5-15,.7-10.7,1.5-17c.9-6.3,2.3-16.5,3.1-22.5,4.2-30.8,14.1-78.1,18.2-87.4,2.8-6.1,2-21.1-1.5-29-1.3-3-5.3-14.5-8.9-25.5-6.3-19.8-13.1-39.1-14.4-41.1-.4-.6-1.5-3.3-2.5-6-3.8-10.3-18.1-37.7-27.5-52.5-.5-.8-2.6-4.2-4.7-7.5-18.6-29.7-47.1-60.2-68.5-73.3-9.3-5.7-13.3-7.2-20.3-7.8-4.9-.4-6.6-.2-9.3,1.5-1.8,1.2-3.7,3.2-4.2,4.6-.6,1.6-2.1,2.7-4.7,3.4-4.4,1.2-7.3,3.6-10.8,8.9-1.3,2-5.6,8.2-9.4,13.7-10.4,14.8-27.3,39.4-46.2,67-3.4,4.9-8.5,12.4-11.4,16.5-5.1,7.4-11.1,16.1-22.7,33-20.4,29.7-50.7,73.6-53.7,77.7-.9,1.2-1.9,2.3-2.3,2.3-.5,0-.8-20.6-.8-45.8-.1-57.2-1.7-180.4-2.6-201.6-.6-14.1-1-16.1-2.8-18.2-2.4-2.7-6.2-3.7-9.1-2.5-1.1.5-2.9,1.9-4,3.1-2,2.2-2,3.5-1.8,79.4.2,42.4.7,94.4,1.3,115.5s.7,38.7.4,39-1.9-1-3.4-2.9c-9.6-12-61.7-77.3-72.6-91.1-7.3-9.1-15-18.6-17.3-21.3-2.3-2.7-4.1-5.7-4.1-7.1,0-6.7-4.6-10.6-12.5-10.6-6.5,0-17.8,4.9-31.2,13.7-26.3,17.1-45.3,37.5-84.5,90.6-9.4,12.8-19.2,25.8-21.6,28.8s-5.7,7.3-7.5,9.5c-6.8,8.7-25.5,26-31.7,29.5-9.7,5.4-12,7.9-12,13.5,0,2.5-.4,5.4-.9,6.4-4,7.5-6.5,64.6-4.2,96.6.7,8.8,1.6,22.6,2.1,30.7s1.3,18,1.9,22c.6,4,1.6,12,2.2,17.8,1.3,12.5,3.2,26.7,5.4,41,2.5,17.1,3.5,24,4.6,34,.8,6.8,1.6,10.2,3.2,12.4,1.2,1.7,3.4,5.8,4.8,9.2,6.4,15.1,19.5,32.9,37.4,50.9,13.1,13.2,16,15.9,27,25,3.3,2.7,7.6,6.4,9.5,8.1s8.2,7.3,14,12.4c11.5,10.1,50,48,50,49.1,0,1.2-9.9,3-21.8,4-6.3.5-13,1.3-15,1.9-2.1.5-6.4,1-9.7,1-3.3.1-9.6.7-14,1.5s-9.7,1.5-11.9,1.5c-8.8,0-50.7,7.1-68.7,11.5-3.5.9-10,2.9-14.4,4.5-12.6,4.5-13.7,4.5-18.7.3-4.7-3.9-2.3-3.7-23.3-1.7-5.7.6-6.2.4-10.6-2.9-11.1-8.6-18.4-35.3-24.4-89.2-.8-7.2-1.9-16.6-2.4-21s-1.6-10.8-2.5-14.1c-1.8-7.1-2-12.1-.6-16,.6-1.4,1.7-7.4,2.5-13.3,2.5-19,9.8-43.9,18.1-61.6,1.5-3.3,6.6-12.9,11.3-21.4,7.2-13.1,8.6-16.3,8.9-21,.3-4.6,0-6.1-1.7-8.3-2.9-3.7-8.1-5-14.3-3.7-6.3,1.4-20.5,10.7-28,18.5-3.2,3.2-7.7,7.5-10,9.5-3.3,2.8-5.8,6.6-10.5,16.1-18.5,37.2-26.8,64-31.5,101.8-1.7,14.1-1.8,72.8,0,87,3.6,29.4,7.5,48.8,12.2,61.3,1.2,3.2,2,7.7,2,11.5,0,7.5,1.6,11.4,6.9,17,10.7,11.2,31.9,18.6,66.4,23.3,13.8,1.9,18.8,2,54.7,1.6,21.7-.2,44-1,49.5-1.6,5.5-.7,16.1-1.9,23.5-2.7s22-2.6,32.3-4c29-4,28.7-3.8-16.3,17.1-47.5,22-68,33.4-88.4,48.9-10,7.6-11.5,8.5-14.6,8.6-3.3,0-6,1.9-16.6,11.5-31.2,27.9-53.1,55.7-84.6,107-30.3,49.4-41.2,67.6-50.7,85.5l-5.6,10.5.2,8.4c.1,6.7-.4,10.1-2.3,16-5.7,17.3-10.7,40.5-15,70.1-2.5,16.4-2.5,69.2-.1,79.8,2,8.7,3.8,12.3,7.3,15.1,3.3,2.6,7,2.7,11.1.1,5.9-3.6,7.8-10.3,8.8-30.5.3-7.2,1-16.6,1.6-21,.5-4.4,1.4-13.4,1.9-20,2.5-33.3,9.7-66.7,18.4-85.9,3-6.5,4.2-8,8.1-10.4,22.1-13.1,30.4-22,60.5-65.3,10.4-14.9,26.8-36.4,49.5-64.9,23.9-30,29.9-37.9,33.7-44.3,2.4-4.2,3.1-4.6,7.5-5.2,8.2-1.1,14.1-3.4,34.8-13.5,27.4-13.5,49.4-23.2,51.4-22.7,1.8.3,1.5.6-19.9,21.2-14.8,14.2-26.5,26.5-34.7,36.7-17,20.8-33.4,52.2-37.3,71.3-.6,3.3-2.1,7.6-3.3,9.5-2.1,3.3-2.2,4.5-1.9,26,.2,12.4.7,27.1,1.3,32.7,2.4,26.9,3.1,33,5.4,49.3,1.4,9.6,3.2,21.3,4,26,1.8,11,7.2,40.4,9,50,.8,4.1,2,10,2.6,13,4.5,23.2,10.1,33.7,22.4,42,2.8,1.9,7.5,5.5,10.5,8.2,17,14.8,51.4,32.6,77.1,39.9,13.2,3.7,39.6,8.4,57.1,10.1,10.4,1,12.1.9,16.2-.6,7.8-3,10.9-9.9,7-15.5-2.6-3.6-7.7-5.2-20.8-6.2-17.2-1.3-27.6-3.3-43.3-8.6-23-7.6-47.9-20.4-60.1-30.8-5-4.4-11.4-12.5-17-21.8-3-5-4.2-8.4-4.7-12.5-.9-8.4-3.4-28.6-4.6-37.3-6.4-48.2-9.7-112-6.9-134.2l1.2-9.8,6.6-5c20.7-15.6,46.9-47.3,79.5-95.9,6.5-9.6,13.7-20,16.1-23,10.8-13.6,38.6-37.5,42.8-36.8,1.3.2,2.9,2.7,5.2,8.5,1.8,4.6,4.6,10.2,6.2,12.5,2.9,4.2,12.8,14.5,21.7,22.3,4.1,3.7,4.6,4.5,5.2,10,2.5,22.8,11.7,44.6,24.4,57.8,2.5,2.7,6.3,5.7,8.3,6.8,6.5,3.3,15.4,2.1,21-2.9,1.6-1.3,2-1.3,4,.2,1.3.9,3.8,2.8,5.7,4.1,1.9,1.4,4.8,2.6,6.5,2.7,10.6.6,17.3-1.9,25.3-9.4,10.8-10.3,16.9-22.1,20.3-39.3,2.4-12.5,2.5-20.4.5-30-2.1-9.7-1.9-11,1.3-13,9.7-6.3,19-22,21.9-37,1.6-8.1,2-9,4.1-9.3,1.4-.2,3.3.5,4.5,1.6,3.8,3.5,8.9,5.5,15.4,6,6.2.5,6.5.6,11.2,5.8,5.5,6,12.4,18.9,17.1,31.9,1.7,4.9,3.8,10.6,4.5,12.5.8,1.9,2.6,6.9,4.1,11,11.4,31.7,26.2,58.2,46.1,82.6,4.3,5.4,10.2,12.7,13.2,16.3,7.8,9.7,19.4,25.1,21.8,29.1,4.4,7.3,14.1,27.7,15.7,32.9,1.3,4.4,1.6,10.6,1.6,32,.1,14.6.5,36.7,1,49.1s1.3,34.4,1.6,49c.6,23.4.5,27.2-1,32.4-2.7,9.4-10,22.7-18,33.1-17.3,22.3-36.5,42.6-56.4,59.3-6.7,5.7-12.6,11.1-13.2,12.2-1.3,2.4-1.3,8.6,0,11.1,2.9,5.3,12,6.2,20.2,1.9,35.2-18.3,72.5-47.3,91.2-70.7,14.4-18,20.9-32.8,26-58.8l2.2-11,5.9-.5c3.3-.3,7-1.1,8.2-1.8,5.8-3.2,13.9-17.5,18.2-32.2,10-33.7,12.5-47.9,15.2-83.7,1-12.7,1-19.9,0-34-1.7-25.5-2.8-36-4.5-42.3-.8-3-2.2-8.4-3-12-2.4-10.2-9.4-37.9-11.1-44-.9-3-2.1-8.9-2.6-13-3.7-26.3-9.2-37.1-32.5-64.6-11-13-28.7-32.2-36.2-39.3-8.9-8.4-20.9-19.6-26.3-24.5-8-7.4-19.3-18-28.9-27.1-18.8-18-50.1-46.1-68.5-61.5-5.7-4.8-6.8-7.6-3.7-10.1.9-.8,6.9-3,13.2-4.7,6.4-1.8,16.3-5.6,22.5-8.7,6.1-3,16.4-7.3,23-9.6,56-19.4,118.8-50.4,157-77.6,23.8-16.8,40.9-31.1,43.5-36.4,3.2-6.2,4.5-16.2,3-24.1-1.1-5.5-1.1-7.6,0-11h0ZM64.288,1073.002c1,2.8,1,3.9,0,5.6-1.7,2.7-4.3,3.3-10.3,2.3-6.1-1.1-6.1-1.6.3-12.5,5.2-9,7.9-11.6,10-9.5,1,1.1,1.1,2.2,0,6-1,3.7-1,5.4,0,8.1h0ZM169.288,946.302c-25.6,31.5-48.3,60-54.5,68.3-13.6,18.5-23.8,32.7-27.1,37.4-3.5,5.1-5.1,6.1-8.5,5.3-4.5-1.2-5.8-2.9-4.8-6.4.7-2.5.5-4-1-7-1-2-1.9-4.1-1.9-4.5s2.5-4.9,5.6-10c8.3-13.6,9.7-14.9,11.4-10.4,1.4,3.7,5,6.6,8.3,6.6,3.7,0,8.7-4.9,8.7-8.5,0-4-5-8.5-9.4-8.5-2.8,0-3.6-.4-3.6-1.8,0-2.6,19.7-31.2,40-58.2,14.4-19.1,36-42.8,39.2-43,.3,0,2,2.2,3.6,4.8,1.6,2.6,4.6,6.6,6.6,8.7,2,2.2,3.6,4.4,3.6,4.8,0,1.4-7.5,11.7-16.2,22.4h0ZM858.888,469.702c2.8-3.1,5.3-2.7,6.5,1.1,2.8,9.1,2.1,12-2.9,13.1-4,1-5.2-.5-5.4-6.6-.1-4.1.4-6,1.8-7.6h0ZM726.588,552.902c-5.8,6.2-23.8,23.9-34,33.3-9.2,8.5-9.5,8.4-10.2-6.6-.4-6.9-1.2-16.6-1.8-21.7s-.8-9.8-.5-10.6c.3-.8,2.2-2.4,4.3-3.5,4.8-2.7,14.8-13.2,23.1-24.3,7.6-10.2,11-13.9,12.5-13.9.6,0,2.2,2.2,3.5,4.9,3.1,6.7,7.7,11,14.2,13.1,3.8,1.2,5.4,2.3,5.6,3.7.4,2.5-9.7,17.9-16.7,25.6h0ZM804.088,286.002c-1.1,2.7-2.2,3.5-5.9,4.5-8.4,2.1-10.4,9.4-4.2,15.8,1.9,2,3.5,4.6,3.5,5.7,0,1.9-2.7,14.3-5.8,27.6-1.5,6.3-4.8,30.6-10.3,76-.5,4.7-1.4,13-1.9,18.5-2.1,23.1-5.5,38.7-11.1,49.8-3.9,7.7-4.4,7.9-9.7,4.7-3-1.8-9.7-3.9-18.7-6-7.7-1.8-14.6-3.8-15.4-4.5-1.2-1.2-.7-3.4,3.7-15.2,2.8-7.6,7.4-19.7,10.2-26.8,5.3-13.3,18-49.1,20.5-58,.8-2.8,3.2-11.2,5.4-18.7s4.2-14.2,4.6-14.7c.4-.7,2-.4,4.5.9,5.2,2.6,7.8,2.5,12.4-.6,3.5-2.4,3.8-2.9,3.2-6.3-.7-4.7-5.3-8.9-10.7-9.7-2.2-.4-4.3-1.2-4.5-1.8-.5-1.2-.4-1.4,5-27.1,2-9.4,3.6-17.1,3.6-17.2,0-.2,2.4-1.6,5.3-3.3,5.5-3.1,12-4,15.8-2,2.3,1.3,2.4,3.8.5,8.4h0ZM771.288,185.802c2.9-2.5,3.6-2.7,5-1,3.2,4.1,25.8,68.9,24.8,71.4-.3.9-2.1,1.4-4.8,1.4-2.3,0-7.1.7-10.6,1.6s-6.7,1.2-7.2.8c-.4-.5-1.5-7.1-2.5-14.7-1.7-14.2-1.4-16.7,2.2-16.7.8,0,2.5-1.1,3.8-2.5,2.6-2.6,3.3-7.2,1.5-10.5-1-1.9-5.9-4-9.5-4-2.6,0-3.3-1.6-6.5-13.5-2-7.5-2-8.1-.4-9,.9-.6,2.8-2,4.2-3.3h0ZM752.088,147.802c.8-1.3,2.3-2.2,3.2-2,1,.2,4,4.6,7,10.2,6.8,12.8,7,14.1,1.8,14.1-2.1,0-4.5-.5-5.1-1-.7-.6-2.9-5-4.9-9.9-3.4-8.4-3.5-9.1-2-11.4h0ZM561.788,217.202c.3-.7,6.7-10.3,14.3-21.2,7.6-10.9,16.8-24.4,20.6-29.9s10.4-15.2,14.8-21.5c4.3-6.3,10.4-15.1,13.4-19.5s10-14.5,15.5-22.5,13.5-19.6,17.7-25.8c4.4-6.4,8.4-11.2,9.3-11.2s5.9,5.1,11.2,11.3c5.3,6.1,11.1,13.4,13,16l3.4,4.8-5.5,5.2c-7.1,6.7-12.7,11.8-33.5,30.8-56.7,51.6-90.1,82.4-91.1,83.5-1.5,1.8-3.8,1.8-3.1,0h0ZM553.088,253.502c7.8-7,34.4-31.3,46.4-42.4,4.2-3.9,17.2-15.8,29-26.5s25.1-22.9,29.5-27c4.4-4.2,12.3-11.4,17.5-16,5.2-4.7,14-12.7,19.4-17.8,5.5-5.1,10.5-9.1,11-8.9.6.2,4.4,5.7,8.5,12.3,6.2,9.8,22.1,40.1,22.1,41.8,0,.3,1.1,2.9,2.4,5.9,7.1,15.4,13.8,40.3,16.6,61.2.6,3.8,1.4,9.9,2,13.5.5,3.6,1.4,13.2,2.1,21.5,1.1,14.5,1,15.4-1.6,29-1.4,7.7-3.1,15.6-3.6,17.5s-1.8,7.5-3,12.5c-1.8,7.9-6.3,24.5-10.4,38.5-3.8,13.1-17.9,53.9-20.5,59.5-1.6,3.3-8.6,22.3-12.3,33.5-4.3,12.7-7.7,26.5-7.7,31.2,0,3.9-3.3,9.5-12.1,20.3-11.5,14.3-12.1,14.2-16.5-2.5-6.4-24.2-15.9-48.3-29.5-74.6-37.5-72.6-78.3-119.8-111.3-128.6-2.7-.7-6.3-2.6-8-4.2-4.5-4.3-8.7-6.6-11.8-6.6-1.6,0-2.8-.4-2.8-.9,0-.9,26.9-26.3,44.6-42.2h0ZM612.488,438.102c0,1.1-2.6.5-10.7-2.4-15.5-5.5-27.1-8.3-54.3-13.1-12.2-2.2-36.8-2.4-47.3-.6-11.4,2.1-15.2,4.2-17.7,10-2.3,5.4-3.2,6-7.6,5.1-2.7-.5-4.3-1.7-6.7-5.2-3.8-5.4-8.2-7.8-17.7-9.8-9.9-2.1-36.7-2-48.5.1-10.5,1.9-26.4,5.9-31.8,7.9-4.8,1.9-4.7,1.9-4.7-.8,0-1.3,3.1-6.9,6.9-12.4,6.1-8.8,7.4-10.1,10.5-10.7,1.9-.4,5.5-1.6,8-2.7,10.2-4.5,21.4-5.9,46.2-5.9h23.2l4.2,4.4c2.3,2.4,6.5,5.7,9.3,7.2,4.8,2.7,6.1,2.9,15.2,2.9s10.4-.2,14.8-2.8c4.9-2.9,8.8-8,10.1-13.2.4-1.6,1.3-3.3,1.9-3.7,1.8-1.2,19.8-.9,25.9.3,24.1,4.9,46.5,15.3,56.9,26.5,5.5,6,13.9,17.4,13.9,18.9h0ZM505.388,350.102c7.1-3.7,7.4-3.8,15-3.1,4.3.3,10.2,1.3,13.2,2.2,9.2,2.7,23,9.9,32.6,17.1,5,3.7,10.6,7.7,12.4,8.8,3.2,1.9,6.9,6.9,5.8,7.9-.2.3-5.7-1.2-12-3.3-20.8-7-28.7-8.3-51.6-8.3-18.9,0-20.4.1-24.1,2.2-4.3,2.4-7.2,6.5-7.2,10.3,0,1.4-.3,3.2-.6,4.1-.8,2-4.4,2.1-4.5.1-.1-.8-.3-2-.4-2.5-.1-.6-.3-2.2-.4-3.6,0-1.4-1.4-3.9-3-5.5-2.5-2.4-3.7-2.9-8-2.9-2.8,0-7.2.8-9.8,1.9-4,1.5-8.6,1.9-27.3,2.4-12.4.3-24.9,1.1-27.8,1.7-3.8.9-5.7.9-6.5.1-1.7-1.7,3.6-7.6,10.4-11.6,3.4-2,8.5-5.5,11.5-8,6.6-5.3,15.2-10.4,21.9-12.7,7.5-2.6,20.3-2,27.5,1.4,8.5,3.9,12.7,5,19.5,5,5.1,0,7.3-.6,13.4-3.7h0ZM489.888,322.802c5,.3,5.1.4,6,4.1,1.2,4.8,0,7.1-4.1,7.5-4.2.4-9.9-2.1-10.6-4.7-.3-1.3.3-3.1,1.5-4.6,1.8-2.3,2.7-2.6,7.2-2.3h0ZM244.088,258.102c6.4-7.3,8.4-8.8,8.4-6.2,0,.7-.6,2.1-1.4,3.2-.7,1.1-2.8,4.7-4.5,8-3.9,7.1-7,10.3-8.2,8.3-2-3-.7-6,5.7-13.3ZM217.488,285.602c2.4-2.4,3.2-2.4,8.5-.6,4.5,1.6,5.5,3.8,2.9,6.7-1.7,1.9-6.6,2.5-11.1,1.3-2.9-.8-3.1-4.6-.3-7.4ZM214.588,520.602c-1.3,0-2.9-5.8-3.7-13-.3-3-1.1-9.6-1.9-14.5-4.1-26.6-9.5-88.6-9.5-109.1,0-6.8.5-7.4,6.5-7.4,4.5,0,7.5-3.2,7.5-8s-2.8-7.3-9.3-8l-5.2-.5.3-12c.4-14.9,1.8-32,2.7-33.5s23.4-.3,25.4,1.3c4,3.3,5.8,17.2,6.5,50.7.3,15.7,1,32.8,1.6,38,.5,5.2,1.4,14.7,2,21,1.2,14.4,3.5,32.9,4.8,39.5.6,2.7,1.8,9.5,2.7,15,1,5.5,2.4,12.3,3.1,15.2.8,2.8,1.4,6.4,1.4,8.1,0,1.933-2.233,3.067-6.7,3.4-8.1.6-16.2,4.2-22.7,9.9-2.4,2.1-4.9,3.9-5.5,3.9h0ZM233.088,536.302c-1,1-1.9-.5-1-1.8.6-1.1.8-1.1,1.2,0,.2.7.1,1.5-.2,1.8ZM290.888,629.402c-2.2-1.9-5.2-4.6-6.8-5.9-15.9-13-36.7-33.9-45.6-45.7-12.8-17-13.7-20.2-5.9-20.2,2.2,0,5.6-.7,7.5-1.6,3.6-1.7,12.4-10.8,12.4-12.8s3-5.6,4.5-5.6c.8,0,4,3,7.2,6.7,6.4,7.5,12.6,16.5,19.8,29.1,4.2,7.3,4.9,9.1,5.5,16.5,1.2,13,3,24.5,5.2,33.1,2.5,9.7,1.6,11.2-3.8,6.4h0ZM310.488,478.902c-8.1,17.1-14.2,36.1-17,52.7-2.1,13.2-2.2,13.2-7.2,6.2-1.9-2.6-6.7-8.2-10.7-12.5-6-6.5-7.1-8.1-6.4-10,1.4-3.8.8-9.8-2.4-25.2-8.6-40.9-11.7-72.5-13.3-133-.8-31.6-1.1-33.9-5.7-48.1l-1.6-5.2,4-5.9c3.6-5.3,25.8-42.5,27.6-46.3.4-.8,1.5-2.7,2.5-4.2.9-1.4,3.9-6.2,6.7-10.5,6.5-10.3,19.1-28.8,23-33.8,10.6-13.6,15.7-19.9,21.8-27,10-11.5,40.4-41.5,42.1-41.5.8,0,4.4,3.7,8,8.2,3.6,4.6,15.2,19,25.6,32.1,10.5,13.1,20.4,25.5,22,27.5,1.6,2.1,5.8,7.3,9.3,11.7,3.5,4.4,14.4,18.1,24.3,30.4,9.8,12.4,18.4,23.4,19.1,24.5.8,1.3,1.2,6.4,1.3,13.3,0,10.1-.2,11.3-1.9,12.3-1.1.5-2.9,1-4,1-2.4,0-27,8.9-32.8,11.8-13.8,7.1-52.9,45.7-71.7,70.8-3.3,4.3-7.8,10.4-10.1,13.4-15.1,20.3-41.3,63.8-52.5,87.3h0ZM74.188,576.102c.4-5.9,6.1-23.3,8.1-24.5,3.7-2.2,4.7-.8,4.5,6-.4,9.6-2.3,19.8-4,21.6-1,.9-2.9,1.4-5.2,1.2-3.5-.3-3.6-.4-3.4-4.3h0ZM67.788,615.302c.3-4.9,1.1-9.5,1.8-10.3.7-.9,3.2-1.4,7.1-1.4,5.8,0,5.9.1,7.4,3.5.7,1.9,1.4,4.6,1.4,6,0,2.5-.2,2.5-4.7,2-5.2-.6-6.5.1-11.2,6l-2.4,3,.6-8.8h0ZM73.188,725.602c-3.1-15.1-3.7-18.7-4.7-30.4-1.1-12.1-.6-14.6,2.6-14.6.7,0,2.5-1.1,4-2.4,5.5-4.7,3-12.5-4.8-15l-3.3-1.1-.3-17.3c-.2-11.2.1-17.2.8-17.2.5,0,1,.5,1,1.2,0,.6,1.1,2.6,2.4,4.3,3.1,4,7.6,5.1,11.9,3,5.9-3,5.8-3.2,7.6,12.5,4.5,36.7,10.5,62,18.4,77.3,2.2,4.2,2.7,6.1,1.9,6.9-.6.6-5,1.9-9.8,2.9s-11.5,2.8-15,4c-8.8,3.1-9.3,2.6-12.7-14.1h0ZM314.488,774.602c-6.9,1.2-26.4,3.8-34,4.6-2.5.2-10.3,1.1-17.5,1.9-37.4,4.2-92.7,5.4-118,2.7-29.9-3.3-54.3-10.1-57.5-16.3-1.7-3.1,1-6.4,6.7-8.3,6-2.1,24.8-5.2,37-6.1,8.2-.6,9.6-.4,13.4,1.6,4.2,2.1,5.2,2.1,21.9,1.6,9.6-.3,19.1-1,21-1.5s8-1.8,13.5-2.7c5.5-1,26.7-5.1,47-9.1,50.2-9.9,70.1-13,92-14.3,17.1-1.1,33.8-1.2,35.2-.3.9.6,1,4.8.5,16.7l-.7,16-2.8,1.3c-4.4,2.1-25.3,6.9-41.7,9.6-5.2.9-12.4,2-16,2.6h0ZM467.488,792.602c.3-.3,3.5-4.2,6.9-8.7,5.4-7.1,6.7-8.3,9.9-8.8,2-.4,4.4-.8,5.2-1,2.8-.6,5.5-.5,6.6.3,1.3.8,20.8,24.2,26.7,32,5.4,7.1,4.4,8-6,5.6-11-2.5-42-2.6-51.1-.1-7.1,1.9-9.8,2.1-10.6.8-.5-.8,10.6-18.8,12.4-20.1h0ZM444.888,787.602c-1.1,0-5.3-6-8.7-12.5-6.7-12.8-11.3-30.8-8.7-34,1.5-1.9,2.4-1.9,5.8-.1,1.5.7,5.5,2.1,9,3,10.2,2.6,26,9.5,26.8,11.8.7,2.3-.4,4.2-11.9,18.8-9.4,11.9-10.4,13-12.3,13h0ZM512.988,765.102c-4.7-4.9-8.8-9.9-9.1-11.1-1-3.9,1.1-6.1,6.6-6.9,4.9-.7,11.9-2.5,31.5-8.3,12.6-3.7,14-3.3,13.2,4.2-1.5,14.9-15.2,41.6-21.8,42.4-2.1.2-3.4-.8-7.1-5.6-2.6-3.2-8.5-9.8-13.3-14.7h0ZM536.588,693.702c-8.1,6.3-22.5,18.2-31.3,25.9-4.7,4.2-10.7,8.7-13.2,10l-4.5,2.5-5.3-2.8c-2.9-1.5-7.8-4.5-10.8-6.6s-9.5-6-14.5-8.6c-21.9-11.5-47.9-31.4-73.1-55.8-20.4-19.7-28.3-30.4-33.7-45.2-5.8-16.1-7.5-40.8-3.6-52.2,4.6-13.7,14.2-25.5,26.9-32.9,8.3-4.9,14.6-7,26.5-8.9,10.6-1.6,12-1.7,19-.1,22.6,4.9,48.2,32.4,52.6,56.4,1.3,6.9,2.3,8.2,6.1,8.2,5,0,10.4-6.1,13.7-15.8,3.8-10.7,7.1-16.3,14-23.5,11.8-12.4,35.7-22,50.9-20.4,21.4,2.3,41,14.5,48.6,30.2,6.4,13,8.3,29.4,5.1,41.9-3.7,14.1-17,38-29.7,53-9.1,10.9-37.5,39.9-43.7,44.7h0ZM261.788,884.202c-4.5,1.9-17.1,7.8-28,13.1-18.6,9-20.2,9.6-26.3,9.7-5.2.1-7.1-.3-9.6-2.1-3.9-2.8-6.9-9.2-6-12.9,2-7.6,30.4-27.3,63.2-43.7,18.1-9.1,23.3-11.6,53.4-25.9,7.4-3.6,19.1-9.1,26-12.4,6.8-3.2,19.6-9.5,28.5-14,8.8-4.5,16.4-7.7,16.9-7.3.5.5,2,4.4,3.4,8.6,3.8,12.3,3.9,14.6.7,17.1-1.5,1.2-4.2,2.6-6,3.1s-8,4.5-13.6,8.8c-28.9,22.2-63.1,41.4-102.6,57.9h0ZM219.088,1070.202c-.5-9.8-.3-14.2.5-15.2,1.4-1.7.9-1.7,5.2.1,2,.8,4.7,1.5,6,1.5,4.1,0,4.5,1.6,3.8,16l-.6,13.5h-4.5c-2.5.1-5.3.4-6.2.9-2.7,1.2-3.5-1.9-4.2-16.8h0ZM223.688,1121.102c-.3-.3-.8-4.6-1-9.5l-.4-8.9,4.3-.4c7.5-.7,7.4-.8,7.7,5.9l.3,6.1-5.2,3.7c-2.8,2.1-5.4,3.5-5.7,3.1h0ZM231.988,1174.801c-1.3-7.7-3.5-20-5.1-28.5-1.5-8.6-1.3-13.7.6-13.7.5,0,1.2.4,1.5,1,.3.5,1.6,1,2.9,1,3.6,0,4.6,1.9,4.6,9.4.1,7.5,1.4,23,2.5,28.2.8,3.5-1.3,6.4-4.5,6.4-1.4,0-2.1-1-2.5-3.8h0ZM242.588,1224.102c-.6.3-1.3-.4-1.6-1.7-1.4-6.4-4.5-23.6-4.5-25.6,0-3.4,2.9-2.7,4.4,1,1.7,4.3,3.1,25.4,1.7,26.3ZM390.088,872.602c-.3,0-3.2,1.9-6.4,4.2-27.7,20-41.4,35-64.6,70.3-22.3,34.1-55.5,72.6-71.6,83.1-6.7,4.4-8.1,4.9-13.1,4.9-7.9,0-10.3-2.2-9.4-8.5.3-2.5,1.3-6.8,2.2-9.5,1.4-4.6,12.6-28.3,15.5-33,14.9-23.4,35.7-46.3,75.8-83,4.1-3.8,9.8-8.9,12.5-11.4,5.4-5,18.8-16.9,30-26.6,3.8-3.3,9.4-8.3,12.5-11.2,3-2.9,6.1-5.3,6.8-5.3s2.1,1.4,3,3.2c2.4,4.5,7.8,10.4,11.8,12.9,1.9,1.1,3.4,2.6,3.4,3.3,0,1.1-7,6.6-8.4,6.6ZM409.788,847.602c-5.4,0-10.5-6.9-8.2-11.1,1.3-2.5,2-2.4,7.9.8,3.9,2.2,5,3.3,5,5.3,0,3.2-1.7,5-4.7,5h0ZM424.888,820.602c-.9,0-3.4-1.3-5.7-2.9-13.4-9.2-24.5-48.1-22.2-77.6.9-11.1,1.7-12.9,5.3-12,1.5.4,2.9.9,3.1,1.1s.8,4.6,1.2,9.6c1.8,23.8,8.3,41.8,21.8,60.3,2.8,3.8,5.1,7.6,5.1,8.3,0,2.4-7.1,13.2-8.6,13.2h0ZM490.088,938.301c-.3,3.8-.6,16.2-.7,27.6-.2,18.9-.4,21-2.1,23.3-2.7,3.3-5.1,3-9.8-1.2-4.8-4.3-12.9-20.4-15.9-31.4-2.8-10.2-4.2-20.7-3.1-23.5,1.1-2.9,3-3.6,11.5-4.5,13.4-1.4,17-1.2,19,1,1.5,1.6,1.7,3.1,1.1,8.7h0ZM533.988,961.902c-2.3,9.4-6.6,18.3-11.1,23-8.4,8.8-11.5,8.7-13.5-.6-2.7-12.7-1.1-50.2,2.3-54.5.7-.8,4.1-1.2,10.4-1.2,9,0,9.4.1,11.1,2.7,2.6,4,3.1,21.2.8,30.6ZM550.388,882.802c-3.4,7.2-5.9,8.9-5.9,3.9,0-1.5-.9-4-2.1-5.5-1.6-2.1-2.9-2.6-6.4-2.6s-4.8.5-6.4,2.6c-5.2,6.6-1,12.6,9.2,13.6l2.9.3-3,4.1c-1.7,2.3-4.7,5.5-6.8,7-3.6,2.8-4.2,2.9-14.3,2.9-6.8,0-11.8.5-13.9,1.4-2.5,1.1-3.8,1.1-5.5.3-5.2-2.7-11.6-3.2-27-2.1l-15.5,1.1-5.3-3.9c-7.1-5-15.6-13.8-18.2-18.8-1.8-3.4-2.1-5.7-2.1-14.5.1-14.3,1.2-17.8,8.2-24.8,6.5-6.6,13.4-10.8,24.1-14.6,7.6-2.7,21.1-4.6,29.1-4,2.5.2,7.7.6,11.5.9,3.9.3,11.5,1.7,17,3.2,25.7,6.6,33.5,14.7,33.5,34.6,0,6.9-.4,9-3.1,14.9ZM558.488,819.602c-1.8,0-12-14-12-16.4,0-.7,1.4-2.5,3.1-4.2,8.3-7.9,19.1-29.1,22.8-44.8,1.3-5.2,2.1-12.1,2.1-17.1,0-6.9.3-8.6,1.8-9.4,3.2-1.9,5.9-1.3,7,1.6,3.1,8.2,3.6,11.6,3.6,23.8,0,18.2-3.8,32.9-12.8,48.9-4.3,7.7-13.1,17.6-15.6,17.6h0ZM587.888,836.102l-5.6,6-2.9-3.3c-1.6-1.8-2.9-3.9-2.9-4.8s1.6-3.6,3.6-6c4.1-5,6.7-5.5,10.8-2.3,1.4,1.1,2.6,2.6,2.6,3.2-.1.7-2.6,3.9-5.6,7.2h0ZM602.988,859.602c-2.2,0-2.5-.5-2.5-3.4,0-1.9.9-4.5,2.1-6,2.3-2.9,2.1-2.8,4.3-2,3.8,1.5.3,11.4-3.9,11.4h0ZM603.488,786.102c-1-.6-.2-7.1,1.2-9.8.9-1.8,5.3-2.3,6.3-.7.8,1.3-6.4,11.2-7.5,10.5ZM748.088,1077.902c-6.8-13.8-14.4-25.4-26.1-39.8-24.8-30.3-30.3-37.5-37.3-48-7.8-11.7-20.6-36.8-26.7-52.5-2-5.2-4.3-11.1-5-13-.8-1.9-3-8-5-13.5-5.2-14.3-10.5-23.9-18-32.5-9-10.4-9.8-12.4-9.3-24,.2-5.2.7-10.1,1.1-10.8,1.7-2.6,4.7-1,11.3,6,12,12.7,25.5,32,51.6,73.6,6,9.7,17.1,29.2,25.3,44.7,2.6,4.9,6.7,12.6,9,17,6.1,11.5,19.6,38.5,24.5,49,5.2,11.1,9.5,24.6,11,34.5.7,4.1,1.6,9.7,2.2,12.3.8,3.9.8,5.2-.3,6.3-2.1,2.1-3.5.6-8.3-9.3ZM760.688,1124.002c-3.2-.5-4.2-1.1-4.6-3.1-.8-3,.2-4.9,4-7.4,3.9-2.6,4.2-2.5,4.9,1.8.3,2.1.8,4.5.9,5.4.6,3.1-.9,4-5.2,3.3h0ZM769.088,1147.902c.5,4.5.9,13.8.9,20.6,0,10-.3,12.5-1.5,13.1-.8.4-3.2,1.5-5.3,2.5-2,1-3.9,1.6-4.2,1.3-1.3-1.3-2.6-17.9-2.3-30.8l.3-14.4,3.3-.2c1.9-.1,3.9-.7,4.5-1.3,2-2,3.4.8,4.3,9.2h0ZM756.888,1284.301c-.8.8-1.4,2.1-1.4,2.9s-.5,1.4-1.1,1.4c-.7,0-.8-.7-.4-1.8.4-.9,1.4-3.8,2.1-6.5.7-2.6,1.6-5.2,1.9-5.7.4-.6,1-5.2,1.5-10.2.9-9.1,1.7-10.8,5.3-10.8,1.2,0,1.7.8,1.7,2.8,0,5.5-6.7,25-9.6,27.9h0ZM768.988,1237.201c-1.8.7-8.2-3.1-8.9-5.4-.4-1.5-1-29.3-.7-33.5.1-1.9,1.2-2.2,2.7-.8.5.5,2.5,1.3,4.4,1.8l3.5.9.3,18.2c.2,15.5,0,18.3-1.3,18.8ZM792.488,1166.101c-.4.3-1.1-3.4-1.4-8.2-.6-9.1-4.6-41.7-7.2-58.3-2.5-16.6-8.9-42.3-13.9-56-5.7-15.5-19.4-44.5-33.4-70.6-4.5-8.3-8.1-15.4-8.1-15.8,0-1.4,2.8-.4,5.7,2.1,5.7,5,13.4,14.6,21.2,26.3,6.4,9.7,7.9,12.6,9,18.4.8,3.8,3.1,12.1,5.3,18.5s4.3,12.9,4.7,14.6c.5,1.6,3,8.6,5.6,15.5,6.2,16.6,11.2,36.3,13.2,52.4,3.1,24.9,2.7,59-.7,61.1h0ZM816.088,1064.801c1.3,2.1,3.3,15,3.3,21.5l.1,6.3h-3.5c-4,0-4.7-1-6.4-9-.7-3-1.9-8.1-2.8-11.2-1.3-4.7-1.4-6-.3-7.3,1.5-1.8,8.5-2,9.6-.3h0ZM800.488,998.601c.6,0,1,.7,1,1.5s-.4,1.5-1,1.5c-.5,0-1-.7-1-1.5s.5-1.5,1-1.5ZM795.988,1025.201c1.9-.4,4.7-1.8,6.2-3.1,3.5-3.1,5.1-3.1,5.8-.3.2,1.3,1.5,6.8,2.8,12.3,1.8,7.4,2.2,10.3,1.3,11.1-.6.7-3.6,1.5-6.7,1.8-6.2.8-6,1.1-10.8-11.1-3.1-7.8-2.9-9.9,1.4-10.7ZM624.288,792.301c2.3-2.6,3.5-2.2,9.9,3.5,12.8,11.6,41.9,38.8,62.8,58.8,7.1,6.9,17.3,16.6,22.5,21.5,26.3,24.8,50.8,52,63.2,70,7.8,11.4,9.1,14.7,8.6,21.4-.3,4.4-1.2,6.8-4.2,11.3-2.2,3.2-4.6,5.8-5.5,5.8-1,0-4.4-3.9-8.1-9.3-15.4-22.3-28.6-36.1-63-65.8-22.2-19.2-22.6-19.6-30.8-31.9-22.7-34.4-35.7-48.6-53-57.5l-7.7-4,.1-7.5c0-7.5,1.5-12.1,5.2-16.3h0ZM643.088,723.101c-1.4,2.1-13.3,6.7-21.1,8.1-2.2.4-6.4,1.5-9.3,2.6-2.9,1.1-5.9,1.8-6.6,1.5-.7-.3-1.9-2.7-2.5-5.4-.7-2.6-1.9-6.5-2.7-8.5l-1.3-3.7,5.7-3.4c3.1-1.9,6.4-3.7,7.2-4,2.4-.9,26.4-.7,27.8.2.7.4,2,3,2.8,5.6,1.2,4.2,1.2,5.1,0,7h0ZM643.788,515.001c-15.3-21.1-27.1-30-48.7-36.9-17.3-5.5-30.8-7.6-50.6-7.8l-16.5-.2-11,3.9c-15.3,5.4-17.7,6.8-21.9,12.6-2,2.7-4.2,5-5,5-1.6,0-5.2-2.7-12.7-9.5-17.8-16.2-39.5-23.8-68.4-23.9-26.8,0-46,6.3-62.5,20.6-4.4,3.7-8.3,6.8-8.9,6.8-2.1,0,2.2-9,7.3-15.2,11.9-14.4,28.1-22.5,56.1-27.8,10.6-2.1,37.3-2.6,44-.9,3.3.8,5.3,2.2,8,5.5,2.3,2.7,5.9,5.5,10.2,7.6,6,2.9,7.5,3.2,15.2,3.2,12.1-.1,18.4-3.1,23.4-11.1,2.5-4,2.8-4.2,9.4-4.9,18.3-1.9,62.8,5.3,84,13.7,18.7,7.3,28.8,15.7,40.7,33.7,3.5,5.3,7.9,11.3,9.8,13.3,3.2,3.5,6.8,13.4,6.8,18.8,0,3.5-3.2,1-8.7-6.5h0ZM860.688,606.201c-7.5,8.9-46.1,37.2-69.2,50.6-30.3,17.6-76,39.1-110.4,51.9-14.7,5.5-16,5.9-17.6,4.4-1-.9-2.1-3.1-2.4-4.8-.8-4.1-4.1-10.5-7.3-13.9-1.4-1.4-2.3-3.4-2.1-4.4.5-2.6,17.4-11,46.3-22.9,49.4-20.3,77.8-34,101-48.7,24.5-15.4,52.6-29.6,56.3-28.3.8.3,1.7.5,2.2.5s1.4,1.7,2,3.7c.7,2.1,1.6,4.2,2.1,4.7,1.4,1.6,1,4.9-.9,7.2h0ZM865.988,558.401c-.1,4.5-.5,8.6-1.1,9.2s-5,1.3-9.8,1.5l-8.8.4.5-2.7c.9-5.2,5.1-19.7,6-20.9,1-1.3,2-1,4.9,1.5.9.8,3.2,1.7,5,2.1l3.3.7v8.2h0ZM868.488,530.001c-.8,2.1-1.6,2.6-4.5,2.6-1.9,0-4.4.6-5.5,1.2-1.7,1.1-2.2,1-3-.2-1.3-2-.1-13,1.6-15.5.8-1.1,2.5-3.7,3.9-5.8,1.4-2,3-3.7,3.5-3.7.6,0,1.9,1.5,3,3.2,2.2,3.6,2.8,13.7,1,18.2h0Z" fill-rule="evenodd"/>
      <path d="M216.888,326.602c-5.9,2.4-8.2,10.5-4.3,15.4,2.9,3.6,9.9,3.7,13.4.1,3.4-3.3,3.5-10.2.3-13.3-2.8-2.5-6.6-3.4-9.4-2.2Z" fill-rule="evenodd"/>
      <path d="M442.288,881.602c-2.8,2.8-3,3.5-2.6,8.2.4,3.8,1.2,5.7,2.8,7,5.7,4.6,15-.2,15-7.7,0-2.9-.8-4.5-3.4-7.1-4.3-4.3-7.7-4.4-11.8-.4h0Z" fill-rule="evenodd"/>
      <path d="M472.288,881.301c-1.4.2-3.8,1.5-5.2,2.8-2.1,2-2.6,3.3-2.6,7.3,0,6.6,3.2,9.7,9.8,9.6,3.8-.1,5-.6,7.4-3.2,3.5-4,4.4-7.4,2.8-11.3-1.8-4.2-6.1-6-12.2-5.2h0Z" fill-rule="evenodd"/>
      <path d="M511.788,884.602c-1.9-2.4-3.3-3-6.3-3s-4.4.7-6.9,3.5c-8.2,9.4.7,20.8,11.9,15,3.1-1.6,5.5-7.2,4.5-10.5-.3-1.1-1.8-3.4-3.2-5Z" fill-rule="evenodd"/>
    </g>
  </g>
</svg>