<?xml version="1.0" encoding="utf-8"?>
<!-- Generator: Adobe Illustrator 28.0.0, SVG Export Plug-In . SVG Version: 6.00 Build 0)  -->
<svg version="1.1" id="Layer_1" xmlns="http://www.w3.org/2000/svg" xmlns:xlink="http://www.w3.org/1999/xlink" x="0px" y="0px"
	 viewBox="0 0 113.09 113.08" style="enable-background:new 0 0 113.09 113.08;" xml:space="preserve">
<style type="text/css">
	.st0{fill:#110E0D;}
</style>
<g>
	<path class="st0" d="M35.9,56.93c0,1.95,0.28,3.88,0.82,5.74c-0.38,0.33-0.75,0.68-1.1,1.04c-0.12-0.36-0.23-0.73-0.33-1.09
		l-4.2,1.43c0.1,0.38,0.21,0.77,0.33,1.15l4.1-1.39c-1.81,1.83-3.28,3.97-4.34,6.34c-0.04-0.07-0.08-0.15-0.12-0.22l-9.92,6.16
		c-0.28,0.17-0.37,0.54-0.19,0.83c0.11,0.19,0.31,0.29,0.51,0.29c0.11,0,0.22-0.03,0.31-0.09l8.8-5.47
		c-0.39,1.07-0.68,2.19-0.9,3.33l-5.54,4.55c-0.25,0.21-0.29,0.59-0.08,0.86c0.12,0.14,0.29,0.22,0.46,0.22
		c0.14,0,0.27-0.05,0.38-0.14l4.51-3.71c-0.07,0.66-0.11,1.32-0.12,2l-3.24,2.9c-0.25,0.22-0.27,0.6-0.05,0.86
		c0.12,0.13,0.28,0.2,0.45,0.2c0.14,0,0.28-0.05,0.4-0.16l2.49-2.23c0.05,0.88,0.15,1.75,0.3,2.6l-1.1,1.12
		c-0.23,0.24-0.23,0.62,0.01,0.86c0.11,0.12,0.27,0.18,0.42,0.18c0.15,0,0.31-0.06,0.42-0.18l0.55-0.56
		c2.09,8.32,8.97,14.74,17.54,16.14l-0.34,1.69c-0.07,0.33,0.14,0.65,0.46,0.72c0.04,0.01,0.08,0.01,0.12,0.01
		c0.28,0,0.53-0.19,0.59-0.48l0.35-1.75c0.76,0.08,1.54,0.13,2.32,0.13c1.99,0,3.92-0.28,5.77-0.79c0.12-0.02,0.23-0.04,0.35-0.06
		v-0.05c1.14-0.34,2.25-0.76,3.31-1.27l0.01,0.07l0.07,0.64c0.39-0.07,0.8-0.14,1.19-0.22l-0.06-0.54l-0.06-0.53
		c0.68-0.38,1.34-0.81,1.98-1.26l0.3,1.45l0.09,0.42c0.4-0.08,0.8-0.16,1.18-0.24l-0.08-0.4l-0.34-1.67l-0.07-0.36
		c1.02-0.82,1.96-1.73,2.82-2.73l0.75,2.21l0.55,1.63l0.17,0.5c0.48-0.1,0.89-0.19,1.18-0.26l-0.2-0.59l-0.55-1.63l-1-2.96
		c1.46-1.94,2.61-4.14,3.37-6.55l4.14,6.77l0.06,0.1c0.11,0.18,0.31,0.29,0.51,0.29c0.11,0,0.21-0.03,0.31-0.09
		c0.29-0.17,0.37-0.54,0.2-0.84l-0.02-0.04l-6.08-9.93c-0.34,0.21-0.7,0.4-1.06,0.57l1.05,1.73c-1.15,1.41-2.5,2.61-3.98,3.59
		l-1.2-3.55c-0.38,0.13-0.77,0.25-1.16,0.36l1.3,3.82c-0.79,0.44-1.61,0.84-2.47,1.15l-0.9-4.46c-0.39,0.08-0.79,0.16-1.19,0.22
		l0.93,4.6c-0.49,0.14-0.98,0.27-1.48,0.37l-0.54-4.82c-0.39,0.06-0.8,0.1-1.2,0.12l0.56,4.9c-0.76,0.1-1.53,0.17-2.31,0.17
		c-0.03,0-0.05,0-0.08,0v-4.96c-0.17,0.01-0.35,0.01-0.53,0.01c-0.22,0-0.45,0-0.68-0.02v4.91c-0.81-0.06-1.6-0.16-2.37-0.32
		l0.53-4.69c-0.4-0.02-0.81-0.07-1.2-0.13l-0.51,4.52c-0.48-0.14-0.95-0.3-1.42-0.48l0.84-4.2c-0.39-0.06-0.8-0.13-1.18-0.22
		l-0.8,3.95c-0.81-0.38-1.6-0.81-2.34-1.3l1.08-3.17c-0.38-0.11-0.77-0.23-1.15-0.36l-0.95,2.79c-1.39-1.08-2.62-2.35-3.64-3.79
		l0.48-0.79c-0.36-0.17-0.72-0.37-1.06-0.57l-0.15,0.24c-0.37-0.62-0.71-1.25-1.01-1.92l0.44-0.54c-0.31-0.21-0.6-0.43-0.91-0.66
		c-0.15-0.43-0.29-0.86-0.41-1.3l2.92-3.24c-0.32-0.24-0.63-0.5-0.94-0.77l-2.31,2.57c-0.1-0.55-0.18-1.11-0.23-1.68l1.66-1.69
		c-0.29-0.27-0.58-0.55-0.85-0.86l-0.89,0.9c0.01-0.59,0.04-1.18,0.1-1.76l0.01-0.01c0,0-0.01-0.01-0.01-0.01
		c0.07-0.61,0.17-1.21,0.29-1.8c3.89,5.23,9.99,8.31,16.55,8.31c11.38,0,20.64-9.26,20.64-20.64s-9.26-20.64-20.64-20.64
		C45.16,36.28,35.9,45.54,35.9,56.93z M57.23,91.83c4.81,0,9.34-1.8,12.8-5.02c-3.11,7.62-10.58,12.75-19,12.75
		c-11.32,0-20.52-9.21-20.52-20.52c0-6.24,2.77-11.9,7.27-15.69c0.01-0.01,0.01-0.01,0.02-0.02c1.73-1.46,3.71-2.64,5.9-3.47
		c-3.41,3.5-5.33,8.15-5.33,13.13C38.38,83.38,46.83,91.83,57.23,91.83z M56.54,37.49c10.72,0,19.44,8.72,19.44,19.43
		s-8.72,19.43-19.44,19.43c-6.52,0-12.53-3.23-16.15-8.64c1.07-3.44,3.19-6.5,6.16-8.76c0.23-0.17,0.3-0.48,0.18-0.74
		c-0.12-0.26-0.41-0.4-0.68-0.33c-3.1,0.73-5.91,2.09-8.3,3.93c-0.41-1.59-0.63-3.23-0.63-4.89C37.11,46.21,45.82,37.49,56.54,37.49
		z"/>
	<path class="st0" d="M70.29,15.59c0.11-0.31-0.06-0.66-0.37-0.77c-0.32-0.11-0.67,0.05-0.78,0.37l-0.52,1.52
		c0.39,0.11,0.78,0.23,1.16,0.35L70.29,15.59z"/>
	<path class="st0" d="M65.92,11.14c0.06-0.33-0.15-0.65-0.48-0.72c-0.32-0.06-0.65,0.15-0.71,0.48l-0.91,4.72
		c0.4,0.06,0.8,0.14,1.19,0.22L65.92,11.14z"/>
	<path class="st0" d="M65.41,29.57l3.8-10.88c-0.38-0.12-0.78-0.24-1.17-0.35l-3.79,10.89C64.64,29.33,65.02,29.45,65.41,29.57z"/>
	<path class="st0" d="M15.16,61.68l12.97-1.61c-0.06-0.4-0.09-0.81-0.11-1.21l-12.99,1.61C15.06,60.87,15.11,61.27,15.16,61.68z"/>
	<path class="st0" d="M57.15,28.2V16.7c-0.29-0.01-0.57-0.01-0.87-0.01h-0.34v11.52c0.22-0.02,0.45-0.02,0.68-0.02
		C56.8,28.19,56.98,28.19,57.15,28.2z"/>
	<path class="st0" d="M57.15,29.63v-0.68c-0.17-0.01-0.35-0.01-0.53-0.01c-0.23,0-0.45,0-0.68,0.02v0.67
		c0.22-0.02,0.45-0.02,0.68-0.02C56.8,29.61,56.97,29.61,57.15,29.63z"/>
	<path class="st0" d="M57.15,14.99V0.6c0-0.33-0.27-0.6-0.6-0.6c-0.33,0-0.6,0.27-0.6,0.6v14.37h0.34
		C56.58,14.98,56.87,14.98,57.15,14.99z"/>
	<path class="st0" d="M14.97,42.91c-0.11,0.3,0.04,0.64,0.34,0.77c0.13-0.38,0.26-0.76,0.4-1.13
		C15.41,42.45,15.08,42.61,14.97,42.91z"/>
	<path class="st0" d="M59.96,30.34c-0.39-0.06-0.8-0.1-1.2-0.13L58.25,35c0.4,0.03,0.81,0.07,1.2,0.12L59.96,30.34z"/>
	<path class="st0" d="M57.15,34.95v-4.82c-0.18-0.01-0.35-0.01-0.53-0.01c-0.22,0-0.45,0-0.68,0.01v4.82c0.2-0.02,0.4-0.02,0.6-0.02
		C56.75,34.93,56.95,34.93,57.15,34.95z"/>
	<path class="st0" d="M32.58,23.96l7.55,9.48c0.33-0.24,0.67-0.46,1.01-0.69l-7.54-9.47C33.25,23.51,32.91,23.73,32.58,23.96z"/>
	<path class="st0" d="M61.39,16.99c-0.4-0.05-0.81-0.09-1.2-0.12L58.97,28.3c0.4,0.02,0.81,0.06,1.2,0.12L61.39,16.99z"/>
	<path class="st0" d="M15.68,49l12.74,2.76c0.06-0.4,0.14-0.8,0.24-1.19l-12.73-2.75C15.85,48.21,15.75,48.6,15.68,49z"/>
	<path class="st0" d="M62.51,28.81l2.18-11.29c-0.39-0.07-0.8-0.15-1.2-0.21l-2.17,11.28C61.73,28.65,62.12,28.73,62.51,28.81z"/>
	<path class="st0" d="M60.08,29.17c-0.39-0.06-0.8-0.1-1.2-0.12l-0.07,0.67c0.4,0.02,0.81,0.06,1.2,0.12L60.08,29.17z"/>
	<path class="st0" d="M14.87,56.93v0.22h13.09c-0.01-0.07-0.01-0.15-0.01-0.22c0-0.33,0.01-0.66,0.03-0.99h-13.1
		C14.87,56.27,14.87,56.6,14.87,56.93z"/>
	<path class="st0" d="M62.48,6.81c0.04-0.33-0.2-0.62-0.53-0.67c-0.33-0.04-0.64,0.2-0.67,0.53l-0.91,8.49
		c0.4,0.03,0.81,0.07,1.2,0.13L62.48,6.81z"/>
	<path class="st0" d="M6.33,50.98c-0.04,0.33,0.2,0.64,0.53,0.68l6.48,0.8c0.05-0.4,0.1-0.81,0.15-1.21l-6.49-0.8
		C6.68,50.42,6.37,50.65,6.33,50.98z"/>
	<path class="st0" d="M61.95,106.99h0.06c0.33-0.04,0.57-0.34,0.53-0.67l-0.62-5.58c-0.39,0.04-0.81,0.08-1.2,0.13l0.62,5.58
		C61.38,106.77,61.65,106.99,61.95,106.99z"/>
	<path class="st0" d="M47.66,83.42c0.38,0.14,0.77,0.26,1.15,0.37l0.22-0.67c-0.39-0.11-0.77-0.23-1.15-0.37L47.66,83.42z"/>
	<path class="st0" d="M50.72,78.14c-0.39-0.1-0.78-0.22-1.16-0.35l-1.52,4.5c0.37,0.14,0.77,0.26,1.15,0.37L50.72,78.14z"/>
	<path class="st0" d="M44.08,81.1c-0.35-0.19-0.71-0.38-1.05-0.59l-0.38,0.64c0.34,0.21,0.7,0.4,1.05,0.58L44.08,81.1z"/>
	<path class="st0" d="M43.79,74.84l-2.92,3.62c0.32,0.24,0.65,0.48,0.99,0.71l2.94-3.65C44.45,75.3,44.12,75.08,43.79,74.84z"/>
	<path class="st0" d="M57.15,112.48v-11.26c-0.49,0.05-0.91,0.09-1.21,0.12v11.14c0,0.34,0.27,0.6,0.6,0.6
		C56.88,113.08,57.15,112.82,57.15,112.48z"/>
	<path class="st0" d="M65.33,102.88c0.04,0,0.08,0,0.12-0.01c0.32-0.07,0.53-0.38,0.46-0.72l-0.36-1.81
		c-0.36,0.04-0.77,0.09-1.2,0.14l0.38,1.92C64.79,102.69,65.04,102.88,65.33,102.88z"/>
	<path class="st0" d="M51.13,106.99c0.3,0,0.56-0.22,0.6-0.53l0.58-5.15l-1.21-0.06l-0.57,5.08c-0.04,0.32,0.2,0.62,0.53,0.67H51.13
		z"/>
	<path class="st0" d="M29.92,25.92l8.1,9.17c0.3-0.28,0.61-0.53,0.93-0.78l-8.06-9.14C30.55,25.42,30.23,25.67,29.92,25.92z"/>
	<path class="st0" d="M6.98,61.47c-0.33,0.05-0.57,0.35-0.53,0.68c0.04,0.31,0.3,0.53,0.6,0.53h0.07l6.29-0.78
		c-0.05-0.4-0.09-0.81-0.12-1.21L6.98,61.47z"/>
	<path class="st0" d="M0,56.55c0,0.33,0.27,0.6,0.6,0.6h12.5v-0.22c0-0.33,0-0.67,0.01-0.99H0.6C0.27,55.94,0,56.2,0,56.55z"/>
	<path class="st0" d="M54.85,78.85c-0.4-0.02-0.81-0.07-1.2-0.12l-0.53,4.76c0.39,0.06,0.8,0.11,1.2,0.13L54.85,78.85z"/>
	<path class="st0" d="M10.7,65.73c0.06,0.28,0.31,0.48,0.59,0.48c0.04,0,0.08-0.01,0.12-0.02l2.62-0.53
		c-0.08-0.39-0.16-0.79-0.24-1.18l-2.62,0.53C10.85,65.08,10.63,65.4,10.7,65.73z"/>
	<path class="st0" d="M14.64,70.26c0.09,0.25,0.32,0.4,0.57,0.4c0.07,0,0.13-0.01,0.19-0.03l0.06-0.02
		c-0.13-0.37-0.26-0.76-0.38-1.14l-0.06,0.02C14.7,69.6,14.53,69.94,14.64,70.26z"/>
	<path class="st0" d="M10.62,47.28c-0.07,0.32,0.14,0.65,0.46,0.72l2.86,0.62c0.08-0.39,0.17-0.79,0.27-1.18l-2.87-0.62
		C11.02,46.75,10.69,46.96,10.62,47.28z"/>
	<path class="st0" d="M50.78,84.3c0.39,0.08,0.79,0.16,1.18,0.22l0.13-0.68c-0.39-0.06-0.79-0.14-1.18-0.22L50.78,84.3z"/>
	<path class="st0" d="M54.26,84.12c-0.4-0.03-0.81-0.07-1.2-0.13l-0.08,0.68c0.39,0.06,0.8,0.1,1.21,0.13L54.26,84.12z"/>
	<path class="st0" d="M34.78,60.17l-4.34,0.9c0.06,0.4,0.13,0.8,0.22,1.18l4.32-0.89C34.91,60.96,34.84,60.57,34.78,60.17z"/>
	<path class="st0" d="M52.92,28.44c0.39-0.06,0.8-0.11,1.2-0.13l-1.23-11.48c-0.4,0.02-0.8,0.06-1.2,0.11L52.92,28.44z"/>
	<path class="st0" d="M15.25,51.46c-0.06,0.4-0.11,0.81-0.15,1.21l12.98,1.59c0.03-0.4,0.07-0.81,0.14-1.21L15.25,51.46z"/>
	<path class="st0" d="M29.87,48.97l0.85,0.3c0.11-0.39,0.23-0.78,0.37-1.15l-0.85-0.31C30.1,48.19,29.98,48.57,29.87,48.97z"/>
	<path class="st0" d="M28.83,54.35l0.92,0.11c0.03-0.4,0.08-0.81,0.14-1.2l-0.92-0.11C28.91,53.54,28.86,53.95,28.83,54.35z"/>
	<path class="st0" d="M29.16,51.92l0.9,0.2c0.07-0.4,0.14-0.81,0.24-1.2l-0.9-0.19C29.31,51.12,29.23,51.52,29.16,51.92z"/>
	<path class="st0" d="M30.95,65.36c-0.13-0.38-0.24-0.76-0.34-1.15l-0.86,0.29c0.1,0.38,0.21,0.77,0.34,1.14L30.95,65.36z"/>
	<path class="st0" d="M30.37,53.32c-0.06,0.39-0.1,0.8-0.13,1.2l4.38,0.53c0.03-0.4,0.08-0.81,0.13-1.2L30.37,53.32z"/>
	<path class="st0" d="M28.78,58.76c0.02,0.4,0.05,0.82,0.09,1.21l0.93-0.11c-0.05-0.4-0.08-0.81-0.1-1.21L28.78,58.76z"/>
	<path class="st0" d="M30.13,56.93v0.22h4.42c-0.01-0.07-0.01-0.15-0.01-0.22c0-0.33,0.01-0.67,0.03-0.99h-4.42
		C30.14,56.27,30.13,56.6,30.13,56.93z"/>
	<path class="st0" d="M30.18,58.59c0.02,0.4,0.06,0.81,0.11,1.21l4.37-0.54c-0.04-0.39-0.07-0.8-0.09-1.21L30.18,58.59z"/>
	<path class="st0" d="M41.38,35.02l2.9,3.65c0.34-0.23,0.69-0.45,1.04-0.66l-2.93-3.68C42.04,34.54,41.71,34.77,41.38,35.02z"/>
	<path class="st0" d="M47.69,29.62c0.38-0.13,0.77-0.25,1.16-0.35L45,18.21c-0.39,0.1-0.78,0.22-1.17,0.34L47.69,29.62z"/>
	<path class="st0" d="M49.25,15.54l-0.9-4.64c-0.06-0.33-0.37-0.54-0.71-0.48c-0.33,0.07-0.54,0.38-0.48,0.72l0.89,4.61
		C48.44,15.67,48.85,15.6,49.25,15.54z"/>
	<path class="st0" d="M50.58,28.84c0.39-0.09,0.79-0.16,1.19-0.22l-2.2-11.39c-0.4,0.06-0.81,0.13-1.2,0.2L50.58,28.84z"/>
	<path class="st0" d="M52.71,15.12L51.8,6.68c-0.03-0.33-0.34-0.57-0.67-0.53c-0.33,0.04-0.57,0.33-0.53,0.67l0.91,8.43
		C51.9,15.19,52.3,15.15,52.71,15.12z"/>
	<path class="st0" d="M43.26,16.92c0.39-0.12,0.78-0.23,1.17-0.34l-0.48-1.38c-0.11-0.32-0.45-0.48-0.78-0.37
		c-0.31,0.11-0.48,0.45-0.37,0.77L43.26,16.92z"/>
	<path class="st0" d="M43.75,33.5l2.46,4c0.35-0.19,0.72-0.37,1.09-0.54l-2.47-4.03C44.46,33.11,44.1,33.3,43.75,33.5z"/>
	<path class="st0" d="M43.79,31.25l-6.25-10.19c-0.36,0.18-0.73,0.36-1.08,0.55l6.26,10.2C43.07,31.61,43.42,31.42,43.79,31.25z"/>
	<path class="st0" d="M30.17,62.34c-0.08-0.39-0.15-0.79-0.21-1.19l-0.9,0.19c0.06,0.4,0.13,0.8,0.2,1.19L30.17,62.34z"/>
	<path class="st0" d="M43.1,32.45l0.39,0.64c0.35-0.21,0.71-0.4,1.07-0.57l-0.38-0.62C43.82,32.06,43.45,32.25,43.1,32.45z"/>
	<path class="st0" d="M40.6,34.04l0.46,0.58c0.33-0.24,0.67-0.46,1.01-0.69l-0.46-0.58C41.27,33.57,40.93,33.79,40.6,34.04z"/>
	<path class="st0" d="M28.71,56.93c0,0.07,0,0.15,0.01,0.22h0.92v-0.22c0-0.33,0.01-0.67,0.02-0.99h-0.92
		C28.72,56.27,28.71,56.6,28.71,56.93z"/>
	<path class="st0" d="M37.43,38.47l3.24,3.25c0.26-0.29,0.55-0.57,0.86-0.85l-3.25-3.26C37.98,37.89,37.7,38.18,37.43,38.47z"/>
	<path class="st0" d="M36.51,37.56l0.56,0.56c0.27-0.29,0.55-0.58,0.85-0.86l-0.55-0.56C37.06,36.97,36.78,37.26,36.51,37.56z"/>
	<path class="st0" d="M39.08,43.55c0.24-0.32,0.49-0.64,0.77-0.94l-3.33-3.11c-0.27,0.3-0.52,0.61-0.77,0.94L39.08,43.55z"/>
	<path class="st0" d="M34.53,42.16L38.06,45c0.21-0.34,0.44-0.68,0.69-1l-3.53-2.83C34.97,41.49,34.74,41.82,34.53,42.16z"/>
	<path class="st0" d="M34.78,39.53l0.6,0.56c0.24-0.32,0.49-0.64,0.76-0.94l-0.59-0.55C35.28,38.91,35.03,39.22,34.78,39.53z"/>
	<path class="st0" d="M43.35,39.31l-3.06-3.47c-0.32,0.24-0.62,0.49-0.93,0.77l3.05,3.47C42.72,39.8,43.03,39.56,43.35,39.31z"/>
	<path class="st0" d="M29.38,65.89c-0.13-0.37-0.24-0.76-0.34-1.15l-12.3,4.17c0.12,0.38,0.25,0.77,0.38,1.14L29.38,65.89z"/>
	<path class="st0" d="M28.53,62.69c-0.08-0.39-0.15-0.8-0.21-1.19l-12.78,2.62c0.07,0.39,0.15,0.79,0.24,1.18L28.53,62.69z"/>
	<path class="st0" d="M38.51,35.66l0.51,0.58c0.3-0.27,0.61-0.53,0.93-0.79l-0.5-0.57C39.13,35.13,38.82,35.39,38.51,35.66z"/>
	<path class="st0" d="M16.96,44.28l12.19,4.42c0.11-0.38,0.23-0.77,0.37-1.15l-12.15-4.41C17.24,43.51,17.1,43.9,16.96,44.28z"/>
	<path class="st0" d="M33.47,41.32l0.67,0.53c0.21-0.34,0.44-0.68,0.69-1.01l-0.66-0.52C33.93,40.65,33.7,40.98,33.47,41.32z"/>
	<path class="st0" d="M36.82,47.16c0.18-0.36,0.37-0.73,0.57-1.08l-3.8-2.39c-0.21,0.35-0.4,0.72-0.57,1.08L36.82,47.16z"/>
	<path class="st0" d="M30.55,52.22l4.31,0.94c0.07-0.4,0.15-0.8,0.24-1.19l-4.32-0.94C30.68,51.43,30.61,51.82,30.55,52.22z"/>
	<path class="st0" d="M27.87,27.88c-0.23,0.23-0.23,0.61,0,0.86l8.1,8.29c0.27-0.29,0.56-0.58,0.86-0.86l-8.1-8.29
		C28.5,27.64,28.11,27.64,27.87,27.88z"/>
	<path class="st0" d="M31.19,49.44l4.18,1.52c0.1-0.39,0.22-0.78,0.35-1.16l-4.17-1.51C31.41,48.66,31.3,49.05,31.19,49.44z"/>
	<path class="st0" d="M31.86,44.05l0.74,0.45c0.18-0.36,0.37-0.72,0.57-1.07l-0.73-0.45C32.23,43.32,32.03,43.69,31.86,44.05z"/>
	<path class="st0" d="M53.07,29.86c0.39-0.06,0.8-0.1,1.2-0.13l-0.07-0.67c-0.4,0.03-0.81,0.07-1.2,0.13L53.07,29.86z"/>
	<path class="st0" d="M23.05,32.95l9.83,7.88c0.23-0.33,0.46-0.67,0.71-0.99l-9.78-7.85C23.55,32.31,23.29,32.63,23.05,32.95z"/>
	<path class="st0" d="M53.63,35.12c0.39-0.05,0.8-0.09,1.2-0.12l-0.51-4.77c-0.4,0.02-0.81,0.07-1.2,0.13L53.63,35.12z"/>
	<path class="st0" d="M25.61,30.18c-0.23,0.24-0.21,0.62,0.03,0.86l8.59,7.97c0.24-0.31,0.5-0.62,0.78-0.93l-8.54-7.92
		C26.23,29.93,25.84,29.94,25.61,30.18z"/>
	<path class="st0" d="M20.4,36.84l10.82,6.79c0.18-0.36,0.37-0.72,0.58-1.07l-10.75-6.75C20.82,36.16,20.61,36.5,20.4,36.84z"/>
	<path class="st0" d="M77.02,39.08c0.26,0.3,0.52,0.61,0.77,0.94l0.6-0.56c-0.24-0.31-0.5-0.62-0.78-0.93L77.02,39.08z"/>
	<path class="st0" d="M60.1,84.69l-0.08-0.68c-0.39,0.06-0.8,0.1-1.2,0.12l0.08,0.68C59.31,84.78,59.71,84.74,60.1,84.69z"/>
	<path class="st0" d="M62.36,78.14l1.54,4.56c0.38-0.1,0.78-0.23,1.15-0.37l-1.53-4.53C63.14,77.93,62.76,78.04,62.36,78.14z"/>
	<path class="st0" d="M101.73,46.82l-3.37,0.73c0.09,0.39,0.18,0.8,0.26,1.19L102,48c0.32-0.07,0.53-0.39,0.46-0.72
		C102.39,46.95,102.06,46.75,101.73,46.82z"/>
	<path class="st0" d="M70.49,81.2l-0.39-0.64c-0.34,0.21-0.7,0.41-1.06,0.59l0.38,0.62C69.78,81.6,70.14,81.41,70.49,81.2z"/>
	<path class="st0" d="M66.28,76.66l2.49,4.07c0.36-0.18,0.72-0.37,1.06-0.58l-2.48-4.06C67.01,76.29,66.65,76.47,66.28,76.66z"/>
	<path class="st0" d="M72.27,78.53l-2.97-3.69c-0.33,0.24-0.67,0.47-1.01,0.69l2.99,3.71C71.62,79.01,71.95,78.78,72.27,78.53z"/>
	<path class="st0" d="M83.69,47.51c0.14,0.38,0.26,0.77,0.37,1.15l11.59-4.2c-0.13-0.39-0.27-0.78-0.41-1.15L83.69,47.51z"/>
	<path class="st0" d="M65.45,83.47l-0.23-0.67c-0.37,0.14-0.76,0.26-1.15,0.36l0.22,0.67C64.68,83.72,65.06,83.6,65.45,83.47z"/>
	<path class="st0" d="M97.54,60.41L85.2,58.87c-0.01,0.4-0.05,0.81-0.1,1.21l12.31,1.53C97.46,61.21,97.5,60.81,97.54,60.41z"/>
	<path class="st0" d="M85.01,53.04c0.06,0.39,0.11,0.8,0.14,1.2l12.32-1.51c-0.05-0.4-0.09-0.8-0.15-1.2L85.01,53.04z"/>
	<path class="st0" d="M84.56,50.54c0.1,0.39,0.18,0.79,0.24,1.19l12.11-2.62c-0.08-0.39-0.17-0.8-0.25-1.19L84.56,50.54z"/>
	<path class="st0" d="M78.65,42.08c-0.21-0.34-0.44-0.68-0.69-1L74.35,44c0.23,0.32,0.46,0.66,0.68,1L78.65,42.08z"/>
	<path class="st0" d="M97.34,42.55l-0.44,0.16c0.14,0.37,0.28,0.76,0.41,1.14l0.44-0.16c0.31-0.12,0.47-0.46,0.36-0.78
		C98,42.6,97.65,42.44,97.34,42.55z"/>
	<path class="st0" d="M46.8,76.65c-0.36-0.17-0.73-0.36-1.07-0.56l-2.44,4c0.34,0.21,0.7,0.4,1.05,0.58L46.8,76.65z"/>
	<path class="st0" d="M62.07,83.16l-0.95-4.71c-0.38,0.08-0.78,0.15-1.18,0.21l0.95,4.72C61.28,83.32,61.68,83.25,62.07,83.16z"/>
	<path class="st0" d="M75.24,37.19c0.29,0.27,0.57,0.56,0.85,0.86l0.56-0.56c-0.27-0.29-0.55-0.58-0.86-0.86L75.24,37.19z"/>
	<path class="st0" d="M99.21,52.51l7.01-0.86c0.33-0.04,0.57-0.34,0.53-0.68c-0.04-0.33-0.34-0.57-0.68-0.53l-7.01,0.86
		C99.12,51.71,99.17,52.11,99.21,52.51z"/>
	<path class="st0" d="M62.31,84.33l-0.14-0.68c-0.39,0.09-0.79,0.16-1.18,0.22l0.14,0.67C61.53,84.48,61.92,84.41,62.31,84.33z"/>
	<path class="st0" d="M57.15,78.9c-0.2,0.02-0.4,0.02-0.6,0.02c-0.2,0-0.4,0-0.6-0.02v4.82c0.22,0.01,0.45,0.01,0.68,0.01
		c0.18,0,0.35,0,0.53-0.01V78.9z"/>
	<path class="st0" d="M55.94,84.22v0.68c0.22,0.02,0.44,0.02,0.68,0.02c0.18,0,0.36,0,0.53-0.01v-0.69
		c-0.18,0.02-0.35,0.02-0.53,0.02C56.4,84.24,56.16,84.24,55.94,84.22z"/>
	<path class="st0" d="M84.38,28.1l-8.04,7.99c0.29,0.27,0.58,0.56,0.86,0.86l8.04-7.99c0.23-0.24,0.23-0.62,0-0.86
		C84.99,27.86,84.61,27.86,84.38,28.1z"/>
	<path class="st0" d="M101.66,66.19c0.04,0.01,0.08,0.02,0.12,0.02c0.28,0,0.53-0.2,0.59-0.48c0.07-0.33-0.14-0.65-0.47-0.72
		l-3.12-0.65c-0.08,0.39-0.15,0.79-0.24,1.18L101.66,66.19z"/>
	<path class="st0" d="M86.52,30.39l-8.36,7.62c0.27,0.3,0.52,0.6,0.78,0.92l8.41-7.66c0.24-0.23,0.26-0.61,0.03-0.86
		C87.15,30.17,86.77,30.16,86.52,30.39z"/>
	<path class="st0" d="M81.39,42.51c0.21,0.34,0.41,0.7,0.58,1.06l10.32-6.48c-0.21-0.34-0.41-0.7-0.64-1.04L81.39,42.51z"/>
	<path class="st0" d="M97.69,57.15v-0.22c0-0.33,0-0.66-0.01-0.99H85.25c0.02,0.33,0.03,0.66,0.03,0.99c0,0.07,0,0.15-0.01,0.22
		H97.69z"/>
	<path class="st0" d="M58.23,78.85l0.54,4.78c0.4-0.02,0.8-0.06,1.19-0.12l-0.53-4.78C59.04,78.79,58.63,78.83,58.23,78.85z"/>
	<path class="st0" d="M53.04,35.21l-0.91-4.7c-0.4,0.06-0.8,0.14-1.19,0.23l0.91,4.69C52.24,35.34,52.64,35.27,53.04,35.21z"/>
	<path class="st0" d="M113.09,56.55c0-0.34-0.27-0.6-0.6-0.6H99.45c0.01,0.32,0.01,0.66,0.01,0.99v0.22h13.03
		C112.82,57.15,113.09,56.88,113.09,56.55z"/>
	<path class="st0" d="M74.68,69.38l3.59,2.95c0.24-0.33,0.47-0.68,0.68-1.02l-3.6-2.95C75.13,68.7,74.91,69.05,74.68,69.38z"/>
	<path class="st0" d="M75.84,67.5l3.92,2.44c0.2-0.35,0.39-0.72,0.56-1.08l-3.93-2.44C76.21,66.79,76.03,67.15,75.84,67.5z"/>
	<path class="st0" d="M70.41,31.75l6.09-9.93c-0.35-0.19-0.72-0.38-1.08-0.55l-6.09,9.92C69.69,31.36,70.05,31.55,70.41,31.75z"/>
	<path class="st0" d="M53.14,78.66c-0.4-0.06-0.8-0.13-1.18-0.22l-0.95,4.69c0.39,0.09,0.79,0.16,1.18,0.22L53.14,78.66z"/>
	<path class="st0" d="M50.72,29.57l0.13,0.68c0.39-0.09,0.79-0.17,1.19-0.23l-0.13-0.67C51.51,29.41,51.11,29.49,50.72,29.57z"/>
	<path class="st0" d="M106.04,62.67c0.3,0,0.56-0.22,0.6-0.53c0.04-0.32-0.2-0.62-0.52-0.68l-6.83-0.85
		c-0.03,0.4-0.07,0.81-0.12,1.21l6.8,0.85H106.04z"/>
	<path class="st0" d="M79.86,89.5c0.13,0,0.26-0.04,0.38-0.13c0.25-0.21,0.29-0.59,0.09-0.86l-6.79-8.41
		c-0.32,0.24-0.66,0.47-0.99,0.71l6.83,8.47C79.51,89.42,79.68,89.5,79.86,89.5z"/>
	<path class="st0" d="M69.95,74.37l3.17,3.51c0.31-0.25,0.61-0.5,0.92-0.78l-3.15-3.5C70.58,73.87,70.26,74.13,69.95,74.37z"/>
	<path class="st0" d="M77.42,40.36c-0.25-0.32-0.5-0.64-0.77-0.94l-3.41,3.2c0.27,0.3,0.52,0.61,0.77,0.94L77.42,40.36z"/>
	<path class="st0" d="M73.39,71.07l3.48,3.1c0.26-0.3,0.5-0.61,0.75-0.94l-3.47-3.1C73.9,70.46,73.65,70.77,73.39,71.07z"/>
	<path class="st0" d="M48.33,31.47l1.56,4.49c0.38-0.13,0.77-0.24,1.16-0.33l-1.57-4.51C49.09,31.22,48.7,31.34,48.33,31.47z"/>
	<path class="st0" d="M71.76,72.8l3.3,3.35c0.29-0.28,0.57-0.57,0.85-0.88l-3.29-3.33C72.34,72.24,72.05,72.53,71.76,72.8z"/>
	<path class="st0" d="M80.92,70.66c0.2-0.34,0.39-0.71,0.57-1.07l-0.75-0.46c-0.17,0.36-0.36,0.73-0.55,1.08L80.92,70.66z"/>
	<path class="st0" d="M80.17,44.7c-0.17-0.36-0.36-0.73-0.57-1.08l-3.91,2.46c0.2,0.35,0.39,0.72,0.57,1.08L80.17,44.7z"/>
	<path class="st0" d="M97.05,64.02l-12.14-2.49c-0.06,0.39-0.13,0.79-0.21,1.18v0.01l12.12,2.48C96.9,64.8,96.98,64.41,97.05,64.02z
		"/>
	<path class="st0" d="M82.04,49.39c-0.11-0.39-0.23-0.78-0.36-1.15l-4.31,1.56c0.13,0.38,0.25,0.77,0.35,1.16L82.04,49.39z"/>
	<path class="st0" d="M95.87,68.75l-11.68-3.97c-0.1,0.39-0.22,0.78-0.35,1.15l11.65,3.96C95.62,69.52,95.75,69.14,95.87,68.75z"/>
	<path class="st0" d="M68.56,32.45c0.36,0.17,0.72,0.36,1.07,0.56l0.38-0.62c-0.35-0.19-0.71-0.38-1.07-0.55L68.56,32.45z"/>
	<path class="st0" d="M65.79,36.96c0.37,0.16,0.74,0.34,1.09,0.53l2.49-4.06c-0.35-0.2-0.71-0.38-1.07-0.55L65.79,36.96z"/>
	<path class="st0" d="M91.61,77.2c0.2,0,0.4-0.1,0.51-0.29c0.18-0.28,0.09-0.66-0.19-0.83l-9.8-6.09c-0.18,0.36-0.37,0.73-0.57,1.07
		l9.74,6.05C91.39,77.17,91.5,77.2,91.61,77.2z"/>
	<path class="st0" d="M60.04,35.21c0.4,0.06,0.8,0.13,1.19,0.22l0.91-4.72c-0.39-0.09-0.8-0.17-1.19-0.23L60.04,35.21z"/>
	<path class="st0" d="M47.94,30.34l0.23,0.66c0.37-0.13,0.76-0.25,1.15-0.36l-0.23-0.65C48.7,30.09,48.31,30.21,47.94,30.34z"/>
	<path class="st0" d="M62.03,35.61c0.39,0.1,0.78,0.21,1.16,0.33l1.57-4.52c-0.38-0.14-0.76-0.25-1.15-0.35L62.03,35.61z"/>
	<path class="st0" d="M61.05,29.99c0.4,0.06,0.8,0.14,1.19,0.22l0.13-0.67c-0.39-0.08-0.79-0.15-1.19-0.21L61.05,29.99z"/>
	<path class="st0" d="M73.07,79.52l-0.47-0.59c-0.32,0.24-0.66,0.47-0.99,0.71l0.46,0.58C72.41,79.99,72.74,79.76,73.07,79.52z"/>
	<path class="st0" d="M65.15,30.29c-0.38-0.13-0.77-0.24-1.15-0.34l-0.23,0.65c0.39,0.11,0.78,0.22,1.16,0.35L65.15,30.29z"/>
	<path class="st0" d="M88.55,80.6c0.17,0,0.34-0.08,0.46-0.22c0.21-0.26,0.17-0.65-0.08-0.86l-8.35-6.85
		c-0.22,0.34-0.44,0.69-0.69,1.01l8.26,6.78C88.28,80.55,88.41,80.6,88.55,80.6z"/>
	<path class="st0" d="M78.1,61.35l4.48,0.92c0.08-0.39,0.15-0.79,0.21-1.19l-4.49-0.92C78.25,60.57,78.18,60.96,78.1,61.35z"/>
	<path class="st0" d="M78.42,59.26l4.53,0.56c0.05-0.4,0.08-0.81,0.11-1.21l-4.55-0.56C78.49,58.46,78.46,58.86,78.42,59.26z"/>
	<path class="st0" d="M78.33,53.86c0.05,0.39,0.1,0.8,0.13,1.2L83,54.5c-0.03-0.4-0.08-0.81-0.14-1.2L78.33,53.86z"/>
	<path class="st0" d="M79.99,72.18l-0.66-0.54c-0.21,0.34-0.43,0.69-0.68,1.02l0.65,0.53C79.55,72.86,79.78,72.52,79.99,72.18z"/>
	<path class="st0" d="M83.11,56.93c0-0.33-0.01-0.66-0.02-0.99h-4.58c0.02,0.32,0.03,0.66,0.03,0.99c0,0.07,0,0.15-0.01,0.22h4.58
		V56.93z"/>
	<path class="st0" d="M84.08,85.06c0.15,0,0.31-0.06,0.42-0.18c0.24-0.23,0.24-0.61,0.01-0.86l-7.18-7.28
		c-0.27,0.3-0.55,0.59-0.86,0.87l7.17,7.27C83.77,85,83.93,85.06,84.08,85.06z"/>
	<path class="st0" d="M86.61,82.69c0.17,0,0.33-0.07,0.45-0.2c0.22-0.25,0.2-0.64-0.05-0.86l-7.84-7.01
		c-0.24,0.32-0.49,0.64-0.76,0.94l7.79,6.96C86.33,82.64,86.47,82.69,86.61,82.69z"/>
	<path class="st0" d="M76.25,75.64c-0.27,0.29-0.55,0.58-0.85,0.87l0.55,0.56c0.3-0.27,0.58-0.56,0.86-0.86L76.25,75.64z"/>
	<path class="st0" d="M78.61,74.13L78,73.57c-0.24,0.32-0.48,0.64-0.76,0.94l0.61,0.55C78.12,74.76,78.37,74.45,78.61,74.13z"/>
	<path class="st0" d="M83.47,64.54l-0.86-0.29c-0.1,0.39-0.21,0.77-0.34,1.15l0.85,0.29C83.25,65.31,83.37,64.93,83.47,64.54z"/>
	<path class="st0" d="M82.93,50.89c0.09,0.39,0.17,0.79,0.23,1.19l0.9-0.19c-0.06-0.4-0.14-0.8-0.24-1.19L82.93,50.89z"/>
	<path class="st0" d="M73.45,78.25l0.51,0.57c0.31-0.23,0.62-0.49,0.93-0.77l-0.52-0.58C74.06,77.74,73.76,78.01,73.45,78.25z"/>
	<path class="st0" d="M82.14,48.07c0.13,0.37,0.25,0.76,0.36,1.15l0.85-0.3c-0.11-0.39-0.23-0.78-0.37-1.16L82.14,48.07z"/>
	<path class="st0" d="M78.22,53.16l4.47-0.97c-0.06-0.4-0.14-0.8-0.24-1.19l-4.47,0.97C78.07,52.36,78.15,52.76,78.22,53.16z"/>
	<path class="st0" d="M83.35,53.24c0.06,0.39,0.1,0.8,0.13,1.2l0.93-0.11c-0.04-0.4-0.08-0.81-0.14-1.2L83.35,53.24z"/>
	<path class="st0" d="M84.53,56.93c0-0.33-0.01-0.66-0.03-0.99h-0.92c0.01,0.32,0.02,0.66,0.02,0.99v0.22h0.92
		C84.53,57.08,84.53,57,84.53,56.93z"/>
	<path class="st0" d="M84.17,61.37l-0.91-0.19c-0.06,0.4-0.13,0.8-0.2,1.19l0.9,0.19C84.04,62.17,84.11,61.78,84.17,61.37z"/>
	<path class="st0" d="M79.71,41.24c-0.22-0.33-0.46-0.67-0.7-0.99l-0.66,0.52c0.24,0.32,0.47,0.66,0.69,1L79.71,41.24z"/>
	<path class="st0" d="M84.46,58.78l-0.92-0.11c-0.02,0.4-0.05,0.81-0.1,1.21l0.92,0.11C84.41,59.6,84.44,59.19,84.46,58.78z"/>
	<path class="st0" d="M72,32.7c0.34,0.21,0.68,0.43,1.01,0.68l7.32-9.18c-0.33-0.23-0.67-0.45-1.01-0.69L72,32.7z"/>
	<path class="st0" d="M71.06,33.88c0.34,0.21,0.68,0.43,1.01,0.68l0.46-0.58c-0.33-0.24-0.67-0.47-1.01-0.68L71.06,33.88z"/>
	<path class="st0" d="M82.05,87.51c0.15,0,0.29-0.05,0.4-0.15c0.25-0.23,0.27-0.61,0.05-0.86l-7.11-7.89
		c-0.3,0.28-0.61,0.53-0.93,0.78l7.14,7.92C81.73,87.44,81.89,87.51,82.05,87.51z"/>
	<path class="st0" d="M75.74,38.4c-0.27-0.29-0.55-0.58-0.85-0.86l-3.32,3.33c0.29,0.27,0.58,0.55,0.86,0.85L75.74,38.4z"/>
	<path class="st0" d="M73.79,36.54c-0.3-0.27-0.61-0.52-0.94-0.77l-3.12,3.54c0.32,0.24,0.64,0.49,0.95,0.76L73.79,36.54z"/>
	<path class="st0" d="M74.2,34.25c0.32,0.24,0.64,0.5,0.94,0.77l7.39-8.37c0.23-0.26,0.19-0.66-0.08-0.87c0,0-0.01-0.01-0.01-0.01
		c-0.25-0.2-0.61-0.16-0.83,0.08L74.2,34.25z"/>
	<path class="st0" d="M77.45,63.76l4.34,1.48c0.13-0.38,0.24-0.77,0.34-1.16l-4.34-1.48C77.69,63,77.58,63.38,77.45,63.76z"/>
	<path class="st0" d="M98.06,69.5l-0.53-0.18c-0.12,0.38-0.25,0.77-0.37,1.15l0.51,0.17c0.07,0.02,0.13,0.03,0.2,0.03
		c0.25,0,0.48-0.15,0.57-0.4C98.55,69.94,98.38,69.6,98.06,69.5z"/>
	<path class="st0" d="M79.6,39.77c0.24,0.32,0.47,0.65,0.71,0.98l9.39-7.54c-0.23-0.32-0.48-0.65-0.74-0.96L79.6,39.77z"/>
	<path class="st0" d="M80.61,44.43l0.74-0.46c-0.19-0.36-0.38-0.72-0.59-1.06l-0.73,0.45C80.23,43.72,80.43,44.07,80.61,44.43z"/>
	<path class="st0" d="M67.78,38c0.35,0.21,0.7,0.42,1.03,0.66l2.95-3.71c-0.33-0.24-0.67-0.46-1.01-0.68L67.78,38z"/>
	<path class="st0" d="M73.19,35.39c0.31,0.25,0.62,0.5,0.93,0.78l0.51-0.57c-0.3-0.28-0.61-0.53-0.94-0.78L73.19,35.39z"/>
</g>
</svg>
