<svg xmlns="http://www.w3.org/2000/svg" id="b" data-name="Ebene_2" width="1202.592" height="1593.811" viewBox="0 0 1202.592 1593.811"><g id="c" data-name="Layer_1"><g><path d="M409.182,945.368c1.3,8.7,4.9,37.9,5.8,48,.7,7.2,3.7,9.5,12.3,9.5,11.9,0,14.9-3.4,14.8-16.9,0-10.4-1.4-16.5-9.8-43.7-7.6-24.6-11.8-35.2-14.7-37.7-3.1-2.5-7.5-2.2-10.4.8-3,2.9-3.2,6.6-.9,21,.8,5.5,2.1,14.1,2.9,19h0Z" fill-rule="evenodd"></path><path d="M1200.182,1579.868c-1.4-1.9-2.5-4.1-2.5-5,0-2.6-4.9-6.5-13.5-10.7-8.8-4.4-26.6-13.6-53.5-27.7-9.6-5.1-20.4-10.7-24-12.5s-7.1-4-7.7-4.9c-1-1.1-1.3-6.9-1.3-20.7v-19.1l-3.3-6.4c-4-8-6.1-9.2-25.7-15.5-8-2.5-32.9-10.7-55.4-18.3-32.9-11-41-14.1-41.6-15.7-.4-1.1-1-112.3-1.4-247-.4-134.8-1.1-277.9-1.6-318-.5-40.2-.9-134.9-1-210.5,0-124.5-.2-137.8-1.6-139.8-.9-1.3-1.3-2.6-1-3,.4-.3,4.9-1.6,10-2.9,13.6-3.2,35.7-12.9,51.4-22.4,13-8,29.5-23.4,30.7-28.8,1.1-5.1-1.5-8.1-7.1-8.1-2.6,0-6.2.9-8.6,2.1-8.7,4.5-15.2,6-30.3,7.1-15.8,1.2-63.1.3-65.6-1.2-2-1.3.6-3.8,7.1-6.7,19.4-8.8,38.2-18.7,40.9-21.3,5.3-5.3,3.4-12.7-3.7-14.7-4.4-1.3-37.3-.9-55.5.6-15.1,1.3-17,1.3-18.4-.1-1.4-1.5-1.1-1.9,2.7-4.7,6.5-4.7,12.9-7.4,37.7-16,27.2-9.4,37.9-13.9,49.3-20.6,14.2-8.2,21-15.6,28.9-31.1,4.6-9.2,5-12,2-15.8-3.2-4.1-8.2-3.6-13.9,1.4-6.4,5.7-16.4,10.4-33,15.6-21.3,6.6-25.2,7.3-50.5,8.5-19.8.9-28.5,1.7-50.7,4.6-2.8.4-3.8.1-3.8-.9,0-2.7,10.6-18.6,23.5-35.3,25-32.2,27.3-36.7,21.9-42.2-3.1-3.1-6.5-2.7-12.8,1.6-4.7,3.2-54.7,28.1-56.5,28.1-1.9,0-1.2-5.3,2.4-17.6,7.4-25.4,17.8-44.8,41.6-77.9,16.5-23,17.5-25.1,25.4-58,2.8-11.9,2.6-15.3-1.4-17.4-5.9-3.2-10.9.4-14,9.7-2.8,8.8-9.4,17.7-24,32.3-20.3,20.2-43.5,39.1-62.1,50.5-11.2,6.8-22.5,15-25.9,18.8-3.2,3.4-5.1,3.3-5.1-.2,0-7.1,7.9-42,12.1-53.7,3.9-10.7,3.5-14.8-1.6-17.2-3.1-1.5-3.7-1.5-7.7.1-8.2,3.1-39.4,27-56.2,42.8-2.2,2.1-4.4,3.8-4.8,3.8-2.9,0-1.5-8.9,3.3-20.9,1.7-4.2,7.4-15,12.8-24.1s12.6-21.5,16.1-27.5c3.5-6.1,7.6-13,9.1-15.5,10.7-17.5,15.4-40,13-62.6-1.5-13.9-4-24.1-7.7-32.1-3.2-6.6-5.8-9.2-9.5-9.3-4.8,0-6.6,3.4-8.8,17-2.8,17.1-10.7,39.9-19.9,57-5.6,10.5-15.1,20.2-30.7,31.5-14,10.1-24.9,18.8-34.9,27.8-4.3,4-8.5,7.5-9.2,8-2.3,1.4-13.1,15.4-15.3,20.1-2.2,4.5-4.3,5.8-5.7,3.5-.6-1-4.4-17.3-12.9-54.9-1.4-6.3-3.9-17.4-5.6-24.5-1.7-7.2-4.4-18.9-5.9-26-1.34-6.03-3.1-13.68-4.93-21.56l-.28-1.18-8.66-35.95-.03-.15c-.33-1.27-.6-2.27-.8-2.96-.88-3.14-1.25-4.71-1.07-5.63l-2.48-11.37c-1.91-8.75-14.39-8.76-16.31-.01l-3.86,17.6c-.25,1.3-.55,2.76-.88,4.41-1.5,7-3.6,16.4-4.7,20.8-.49,1.81-1.01,3.79-1.46,5.65-.66,2.65-1.2,5.06-1.44,6.35-.5,2.2-1.8,8.7-3,14.5s-2.8,12.5-3.6,15-3,11.7-5,20.5c-1.9,8.8-4.2,18.7-5,22-.9,3.3-3.4,13.9-5.6,23.5-5.1,22.7-7.6,32.1-8.7,33.2-1.5,1.5-3.6-.1-6.3-5-4.5-8-10.4-14.7-23-25.9-6.7-5.9-13.4-11.7-14.9-12.8-36.6-27.2-41.4-31.4-48.3-42.2-9.2-14.5-21.7-49.5-23.3-65.2-.9-9.2-3.2-13.1-7.7-13.1-3.9,0-5.4,1.4-9.4,9-3.6,6.7-4.9,11.4-6.8,24.7-2.5,17.3-1.4,37.6,2.7,50.3,2,6.1,8,18.2,13,26.2,2.6,4.3,4.8,8,4.8,8.3s1.8,3.5,4,7.1,4,6.8,4,7.1c0,.2,4.5,8,10,17.3,10,16.9,14.5,27.6,15.7,37.2.7,5.7-.9,6.4-4.8,2.2-7.5-8.1-46.1-38.4-54.3-42.6-5.3-2.7-10.5-2.6-12.8.2-2.7,3.4-2.2,8.5,2.1,21.1,5.1,14.9,11.2,46.2,9.6,48.9-1,1.7-1.8,1.3-9.7-5.4-4.3-3.5-9.9-7.6-12.5-9.1-13.2-7.7-28.8-18.7-40.3-28.4-11.1-9.4-31.6-28-33.9-30.7-1.4-1.6-4.7-5.6-7.6-8.9-6.8-8.1-10.3-13.6-12.6-20.3-1.1-3.1-2.9-6.6-4.1-7.9-2.9-3.1-8-3.1-10.8-.1-2.6,2.7-2.4,4.7,1.4,23.3,4.3,20.8,8.7,29.4,30.8,61,14.9,21.2,24.1,38.2,31.2,57.3,4.8,13,7,21.4,6.5,25.2-.5,3.1-3.5,2.9-9-.6-2.1-1.3-4-2.4-4.2-2.4-1.5,0-36.7-17.7-42.7-21.4-9.7-6-13.4-6-15.9.3-2.2,5.1,1.1,10.2,32.2,50.4,7.4,9.6,16.1,24.7,14.9,25.9-.7.7-2.7.5-6.4-.5-7.1-2-22.5-3.5-44.3-4.2-23.4-.8-33.5-2.5-53-8.6-17.6-5.6-27.6-10.2-34.6-16.1-7.9-6.6-14.9-4.6-14.9,4.4,0,2,.6,5,1.2,6.5,2.6,5.9,10.4,18,14.3,22.1,10.2,11.1,30.9,21.3,69.7,34.6,30.3,10.4,43.7,18.1,35.3,20.2-1.4.4-7.9.2-14.3-.5-16.9-1.6-46.8-2.5-53.5-1.7-13.2,1.7-15.9,11.7-4.8,18.4,2.5,1.5,11.1,5.9,19.1,9.7,29.3,14.1,30.3,14.8,23.4,16.1-2.1.4-18.9.7-37.3.8-37.2.1-42.4-.5-54.9-6.4-7.4-3.5-13.1-3.9-15.5-1.2-3.8,4.1-1.7,9,7.9,18.4,11.7,11.5,25.9,20.7,43.9,28.5,4.4,2,9.8,4.3,12,5.3,5.8,2.6,12.1,4.6,19,6,3.3.7,6.4,1.7,6.9,2.1s.2,2.2-.7,4.1c-1.4,2.9-1.5,15.9-1.6,113.8-.1,60.8-.5,216.9-1.1,347-.5,130.1-1.2,285.1-1.4,344.5-.2,59.4-.6,108.7-1,109.5-.4.9-14.1,5.9-35.4,13-19.1,6.3-40.1,13.3-46.7,15.6s-16.5,5.6-22,7.4c-14.1,4.6-15.1,5.2-18.5,12l-3,5.9v19.6c0,22.8.4,21.9-11.7,27.8-7.2,3.6-19.2,9.8-60.6,31.4-25.1,13.1-25.9,13.7-27.7,17.7-.9,2.3-2.4,4.7-3.3,5.4-2.1,1.8-3.1,6.6-1.8,9,1.6,3.1,5.7,4,20.7,4.6,20.5.9,1148.4.6,1164.3-.3,12.3-.6,13.5-.9,15.2-3,2.6-3.1,2.4-6.1-.6-10.1h0ZM929.382,422.768c14.7-1.1,26.1-1,26.9.3,1.1,1.8-3.2,4.6-16.8,11-11.6,5.4-14.1,6-15.1,3.5-5.7-14.1-5.7-14,5-14.8ZM924.682,464.768c4.2-.8,27.6-.1,41.9,1.2,5.8.5,18.7.9,28.8.9,14.8,0,18.3.3,18.3,1.4,0,2.5-29.3,16.1-43.2,20-4.4,1.2-9.7,1.6-24.1,1.4l-18.5-.2-2.6-4c-1.4-2.2-3.3-6.4-4.2-9.5-2.1-7.3-1.1-10.4,3.6-11.2h0ZM888.082,365.868c9.7-3.4,15-4.1,42.6-5,27.8-.9,36.9-2.1,60.5-8.4,10.1-2.7,11.5-2.9,11.5-1.9s-7.6,5.8-14.1,9c-7.4,3.5-25.4,10.4-38.8,14.7-20.9,6.8-30,10.9-41.2,18.2-3.6,2.4-7.3,4.4-8.1,4.4-1.3,0-19.2-21.2-20.3-24.2-.9-2.4,1.8-4.7,7.9-6.8h0ZM316.082,317.768c-8-10.7-9.5-13.9-6.8-13.9,1.5,0,19,8.5,33.8,16.4,8.9,4.8,17.4,2.7,17.7-4.3.3-8.3-.4-12.5-5.5-31.3-6.9-25.7-14.7-42.1-32.2-68.1-13.2-19.7-15.6-23.6-15.2-24.7.1-.5,4.4,2.5,9.4,6.7,22.7,19.3,31.8,26.1,50.3,37.5,13.7,8.4,17.7,11.5,25.8,20,11.9,12.3,13.5,14.7,19.7,29,2.7,6.3,5.7,8.5,10.1,7.4,4.3-1.1,5.5-5.4,3.8-13.5-.7-3.6-1.8-8-2.3-9.6-.5-1.7-2.1-10.9-3.5-20.5-2.9-20.4-3.5-23.7-7-38.5-3.7-15.7-2.7-16.7,8.1-8.3,16.4,12.8,25.8,21.1,38.7,34,7.5,7.6,14.5,13.8,15.5,13.8,7.8,0,8.6-15.6,2-44.5-1.8-8.3-7.5-21.4-13.6-31.5-3.1-5.2-6.1-10.2-6.7-11.1-.5-.9-2-3.5-3.3-5.8-1.2-2.3-6.3-10.9-11.3-19.3-16.5-27.5-19.6-35.2-20.8-52.7-.8-11.5-.5-15.7,1-16.6,1.1-.7,2.9,3.1,6.9,14.4,3.8,10.7,13.5,29.7,18.3,35.6,1.7,2.2,5.4,6.2,8.2,8.8,5,4.9,6.6,6.1,27.5,21.6,15.2,11.2,34.7,27.8,40.3,34.2,5.3,6,11,17,13.1,24.9,4.9,19,6.6,22,12.6,22,2,0,4.3-.6,4.9-1.3,1.8-2.3,7.9-24.6,13.2-48.7.5-2.5,2.1-9.2,3.5-15s4.3-18.2,6.4-27.5c2.1-9.4,4.5-19.7,5.4-23,.8-3.3,3.1-13.4,5-22.5s4.7-20.9,6.1-26.4c.67-2.6,1.28-5.17,1.72-7.27.48-2.26.78-3.96.78-4.53,0-2.9,2.9-9,3.9-8.3.6.3,1.7,2.9,2.6,5.8.42,1.52,1.25,4.91,2.23,9.09.87,3.8,1.87,8.23,2.77,12.51,2,9.1,3.8,16.8,4,17.2.3.4,1.6,6,3,12.5,1.4,6.6,4.1,18.2,6,25.9,3.8,15.2,9.7,40.8,15.2,66,1.9,8.8,4.9,20.3,6.6,25.5l3.2,9.5,4.1.3c5.8.4,7.4-2,12.9-19.4,8.1-25.4,14.6-32.5,66-70.5,23-17,30.9-28.2,45.2-64.4,2.9-7.4,4.7-6.6,5.1,2.3.6,15.6-4.1,31.4-14.4,48.2-4.1,6.8-8.6,14.2-9.8,16.4-1.3,2.3-5.4,9.4-9.2,15.9-19.4,33-19.6,33.5-24.5,57.2-3,14-3.9,25.8-2.4,30.4.3,1,1.6,2.4,3,3.1,3.2,1.7,7.5,0,10.8-4.4,6.1-7.9,27.4-27.5,43.7-40.2,13.7-10.6,14.7-10.2,11.1,4.4-1.1,4.3-3.4,16.7-5.1,27.7s-4.1,24.3-5.2,29.5c-3.8,17.6-4.1,20.8-2.4,23.5,3.6,5.4,10.4,3.7,13.3-3.3,5.8-14.3,8.7-18.6,19.7-29.6,6.9-6.9,13.9-12.8,18.5-15.6,20.8-12.7,37.1-24.5,55.3-40.1,6.6-5.7,10.6-8.4,11.3-7.7.6.5-4.6,9.1-11.2,18.3-19.8,28.1-32.4,56.4-38.9,87.1-3.9,18.6-2.4,24.4,6.1,24.4,3.3,0,8.1-2,22.9-9.5,10.2-5.2,19.3-9.5,20.1-9.5,2.8,0,1.5,2.6-6.6,13.9-4.4,6.2-10.2,15-12.9,19.5-5.6,9.5-6.6,10.5-11.2,11.2-3.1.5-3.9,0-13.3-9.4-11.7-11.6-20.8-18.4-36-27.2-19.1-10.9-26.6-14-34.3-14s-10.9,1.5-17.4,8.6c-8.9,9.7-17.1,9.9-26,.7-5.9-6.1-8.1-12.2-7.3-20.2.4-3.8.2-7.7-.4-9.3-1-2.5-5.8-6.1-16.1-12-2.5-1.4-8.8-5.2-14-8.4-21.2-12.9-42.8-21.6-69-28-8.2-2-18.7-1.7-23.8.6-4.2,1.9-4.3,1.9-7.5,0-5.7-3.5-15.8-2.8-34.2,2.5-24.6,7.1-38.1,12.9-59.3,25.6-22.3,13.3-29.2,18-29.4,19.7-.1,1-.2,5.7-.2,10.7-.1,7.9-.4,9.6-2.8,13.6-8.5,14.4-19.5,15.6-31.5,3.4-6.9-7.1-9.4-8-19.1-7.3-6.5.5-21.1,7.3-36.8,17.1-13.2,8.2-18.5,12.4-30,23.7-5.6,5.5-10.9,10-11.9,10-4.6,0-8.1-3.1-13.5-12.2-3-5.1-8.7-13.6-12.6-18.9h0ZM254.682,374.868c-27.2-9.5-31.1-11-40-15.2-9.3-4.5-15-7.9-15-9.1,0-1.1,1.8-.8,12,1.9,23.5,6.3,32.1,7.5,60,8.4,28.3.9,39.4,2.4,46.5,6.3,4.9,2.7,5.4,5.3,2,9.2-1.5,1.7-4.7,5.7-7.2,9-6.2,8.1-9.4,11.5-10.9,11.5-.7,0-3.6-1.6-6.5-3.6-11.7-7.8-15.6-9.6-40.9-18.4h0ZM296.082,474.968c2.1-10.9,2-13.9-.5-22.3-3.7-12.1-3-14.2,12.9-36.8,9.7-13.8,16.5-22.6,25.7-33,4.2-4.7,10.3-11.9,13.6-16,9-11.2,25.2-27.2,33.8-33.3,8.4-6.1,25.1-15.9,31.9-18.8,2.4-1.1,6.2-1.9,8.3-1.9,3.5,0,4.8.7,9.7,5.5,6.5,6.3,13.6,9.5,22.4,10.3,8.8.7,14.9-1.9,22.9-9.8,8.5-8.5,12.1-15.7,12.7-26,.2-4.2,1-8.3,1.6-9.2,1-1.3,10.3-7.4,25-16.2,24-14.4,55.8-25.6,72.9-25.6,4.5,0,8.9-.5,9.7-1,.8-.6,2.4-.7,3.5-.4s6.7.9,12.5,1.4c9.2.6,14.6,1.7,29,6,5.7,1.7,24.2,9.2,29.5,12.1,17.6,9.3,38.1,22.4,39.6,25,.5,1.1.7,2.8.4,3.9-.9,3,1.1,12.3,4.1,18.6,1.4,3.1,5.2,8.2,8.3,11.3,13.3,13.7,30.9,13.3,46.6-.9,5.6-5,6-5.2,10.5-4.8,5.7.6,25,10.8,38,20.1,10.1,7.3,25.8,22.8,35.5,35.2,3.9,4.9,8.3,10.2,9.8,11.8,14.2,15,38.6,48.5,42.3,58.4,1.7,4.3,1.7,4.6-1.1,13.8-2.3,7.7-2.6,10.4-2,15.2,1,8.7,2.5,14.1,5.8,21.3,5.3,11.4,21.3,24.8,34.5,28.6,2.8.9,5.6,2.4,6.2,3.4.6,1.1,1.3,105.7,2,284.1.6,155.3,1.3,359.2,1.7,453l.6,170.7-2.2,1.1c-2.7,1.5-39.6,1.1-40.8-.4-.4-.6-.6-177.5-.3-393.2l.5-392.2,2.6-2.8c4.7-5,6.3-9.2,6.3-16.8s-1.5-11.4-5.4-15c-3.1-2.8-4.7-6.3-5.5-12-4-29.9-17.5-66.3-33-89-3.6-5.2-6.5-10-6.5-10.7,0-.6.8-3.5,1.7-6.4,3-9.6-.7-21.1-8.4-26.1-1.7-1.1-5.5-1.9-10.7-2.3l-8-.5-3.4-4.5c-6.9-9.2-15.9-18.6-29.6-30.8-19.8-17.6-34.5-28.4-54.5-40-.7-.4-1.9-4-2.6-7.9-1.5-8.8-4.4-13.4-10.6-16.8-5.8-3.1-9.3-3.1-14.4,0-8.3,5-8.1,5-13.3,2.7-15.7-7-22.2-9.5-35.2-13.7-8-2.5-17.4-5.3-21-6.2-5.1-1.1-32.4-6.3-33.7-6.3-.1,0-2-2.7-4.2-5.9-6.1-8.9-8.3-9.9-22.1-9.9-7.4,0-12.4.5-14,1.3-3.2,1.7-7.3,6.2-9.4,10.2-1.9,3.7-3.3,4.2-20.6,7.4-22,4-42.4,10.1-63.3,19-7.7,3.3-14.5,5.9-15.1,5.9-.7,0-2.1-.8-3-1.9-2.6-2.9-10.2-5.4-14-4.7-7.6,1.4-15.5,10.4-15.6,17.7,0,6.2-1.9,8.7-10,13.3-14.5,8.4-28.3,19-50.9,39.1-10.8,9.5-22.1,22-28.3,30.9-.4.6-4.2,1.3-8.5,1.6-4.3.4-9.1,1.3-10.8,2.1-7.5,3.6-11.7,18.5-8,28.3,1.6,4.3,1.7,4.7.1,6.8-17.2,23.5-32.9,60.7-37,87.3-.9,6-1.9,12.5-2.2,14.3-.3,2-2.1,5.1-4.4,7.6-4.9,5.3-6,8.2-6,15.4,0,6.3,2.6,13.1,6.6,17.2l2.4,2.6v784.8l-2.2.9c-1.3.4-10.5.7-20.6.5-14.9-.2-18.5-.6-19.2-1.8-1.3-1.9-1.3-133.8,0-295.5.5-68.8,1.1-198.8,1.4-289,.9-262.3,1.5-322.7,3.4-324.8.8-.9,2.3-1.7,3.2-1.7,1,0,5.5-1.9,10.1-4.2,6.3-3.1,10.3-6.1,16-11.7,8.8-8.9,12-15,14.3-27h0ZM577.182,474.468c9.7-2,38.1-2.1,47.6-.1,19.8,4.2,43.7,13,65.9,24.3,14.5,7.4,37.3,21.9,46.3,29.5,5.7,4.9,5.8,6,1.8,20.4-5.4,18.9-13.5,32.8-27.6,46.8-23.8,23.9-58.2,39.1-96.2,42.5-34.9,3.2-75.7-7-103.6-25.9-27.2-18.5-45.7-46-50.2-74.7-.8-5-.5-5.3,13-15.4,28.1-21,70.7-40.6,103-47.4h0ZM563.482,355.068l3.7.3,1.2,16c1.8,25,3.3,47.6,4.3,65,.5,8.8,1.2,17.4,1.5,19.1.6,3.6-1.5,6.3-3.2,4.2-1-1.2-2.4-10-3.8-23.8-.3-3-1-8.4-1.5-12-1.8-12.1-4-29.4-6-47.3-2.4-20.5-2.1-22,3.8-21.5h0ZM582.682,356.767c0-4.8,2.1-6.8,3.4-3.3.8,2,.8,19.9,0,19.2-.9-1-3.3-12.1-3.4-15.9h0ZM600.682,336.867c.6,0,1,10,.9,28.2,0,16.8-.4,27.5-.9,26.3-1.2-2.9-1.2-54.5,0-54.5ZM617.682,357.367c0-2.5.5-4.5,1-4.5.6,0,1,2,1,4.5s-.4,4.5-1,4.5c-.5,0-1-2-1-4.5ZM629.282,454.867c.3-7.4,2.4-44.3,3.5-61,.6-8.5,1.4-20.4,1.7-26.3.8-12.5,1.9-14.4,7.4-12.5l3.1,1.1-.6,8.1c-.3,4.5-1.3,13-2.2,19.1-.8,6-3.1,25-5,42.2-1.9,17.1-3.8,31.9-4.1,32.8-.4.9-1.4,1.4-2.3,1.3-1.2-.3-1.6-1.4-1.5-4.8h0ZM896.282,829.767c-1.8,1.5-8.9,2.7-27.6,4.6-25.6,2.7-30.8,2.9-32.5,1.5-1.3-1.1-1.5-6.9-1.5-43.6v-42.4l2.3-1.4c2.6-1.7,12.2-5.4,26.2-10.2,5.5-1.8,14.3-4.9,19.5-6.8,10.5-3.9,12.1-4.1,13.8-2.4,1.9,1.9,1.7,99.1-.2,100.7h0ZM897.982,957.568c.4,87.6.2,108.5-.8,110-1.1,1.5-3.9,1.8-24.1,2.4-12.6.4-24.9.8-27.4,1-2.5.1-5.5-.1-6.7-.5l-2.3-.7-.1-45.7c0-25.1-.4-72.9-.8-106.2-.4-33.3-.6-61.3-.3-62.2.6-2.4,4.5-3.7,15.7-4.9,5.5-.6,15.2-1.7,21.5-2.4,15.7-1.7,22.5-1.8,23.7-.3.7.9,1.2,40.1,1.6,109.5h0ZM880.182,716.368c-7.1,2.6-18.6,6.7-25.5,9.2s-14.1,4.6-16,4.7l-3.5.1-.8-19.8c-.8-18.2-.7-20,.9-21.8.9-1,2.2-1.9,2.9-1.9,1.6,0,17.7-9.6,25.5-15.3,12.6-9,19.4-14.2,24.4-18.5,5.6-4.7,8.1-5.3,9-2,.3,1.3.6,14.3.6,29,0,32.4,1.3,29.6-17.5,36.3h0ZM889.482,619.968c-4.6,4.1-8.8,7.8-9.4,8.4-1.3,1.2-10.6,9.3-18.6,16.3-9.8,8.4-23,17.3-25.2,17-1.8-.3-2.2-1.2-2.6-5.8-.3-3-2-9.2-3.8-13.7s-3.2-9-3.2-9.9,4.4-6.2,9.7-11.8c32.2-33.6,50.9-52.6,51.9-52.6.6,0,1.6.6,2.2,1.2,1.2,1.5,3.5,12.4,5.6,26.9,2.5,16.7,2.8,15.6-6.6,24ZM861.782,572.368c-30.5,31.7-39.4,40.5-40.6,40.5-.7,0-1.7-.6-2.2-1.3-1.6-1.9-9.3-20-9.3-21.7,0-.8,1.1-2.7,2.3-4.2,2.2-2.5,9.9-18.3,31.2-63.8,4.7-10.1,9.1-18.8,9.7-19.1,2.2-1.4,5.5,1.4,11.3,9.7,6.8,9.6,17.4,29.8,18.1,34.6.6,3.6,1.6,2.4-20.5,25.3ZM386.882,730.368c2.1-1.8,3.8-4.8,5.4-9.3,5.5-16.4,27-57.9,44.2-85.2,5.5-8.8,5.1-16.5-1.1-19.1-4.8-2.1-16.8-1.4-26.7,1.5-4.7,1.3-8.9,2.2-9.3,1.9-2-1.2.5-7.8,9.5-25.8,9.7-19.2,32-47.6,36.2-46.2.6.2,2.9,5.3,5.1,11.3,4,10.9,11.3,25.3,15.7,30.8,8,10.2,12.4,14.9,19.4,21.2,24.5,22,56.9,36.5,89.9,40.3,25.8,3,27.4,3,52.5,0,20-2.4,36.6-7.4,54.5-16.4,36.6-18.5,61.5-46.2,72-79.9,1.1-3.9,2.7-7.2,3.4-7.4,2.7-.9,18.8,17.6,28.7,32.8,4.9,7.7,18.4,35,18.4,37.4,0,2.6-1.9,2.8-8.3.7-3.4-1.2-9.8-2.5-14.1-3.1-19-2.4-24.4,5.1-15,21.2,22.4,38.6,35.9,64.4,41.8,80.3,2.1,5.7,5,11.3,6.6,13,2.6,2.8,2.9,3.8,3.5,13.6,1.3,19.2-.9,19.5-15,2-2.9-3.6-9.5-10.7-14.6-15.7-5.2-5-18.8-18.4-30.4-29.7-13.9-13.6-23.8-22.4-29.3-26.1-14.5-9.6-18.7-8.8-24.5,4.8-6.8,15.6-7.1,21.5-1.9,39.1,3.5,11.9,6.1,17.8,13.7,31.6,18.3,32.9,22.2,42.1,26.2,60.9,2.2,10.7,2.6,39.2.5,42.8-.8,1.3-1.6,2.2-1.8,1.9-.3-.3-2.3-6.7-4.5-14.3-4.4-15.4-11.7-31.4-20.4-44.9-5.9-9.1-16.1-19.9-36.3-38.4-15.2-13.9-21.8-22.9-28.5-39.3-2.1-4.9-3.7-13.4-4.7-23.5-.9-9.8-3.1-13.3-8.4-13.3-4.7.1-11.3,3.5-12.9,6.7-3,5.8-7.1,29.4-11.8,67.8-.5,4.4-1.3,10.9-1.9,14.5-2.1,14.7-5.5,47.5-7,69-1,13.7-1.4,15.5-3.8,16.5-2.7,1-4.2-2.3-4.2-9.4,0-6.6-1.7-23.7-6.4-64.6-1.4-12.1-3-26.5-3.6-32-1.2-10.3-7.1-47.2-9-56-1.3-6.1-3.5-8.8-8.5-10.9-9.5-4-13.9-1-15,10.2-3.2,30.9-13.2,48-43.7,74.1-17.2,14.7-23.9,23.4-35,45.1-3.8,7.4-7.4,14-8,14.7-1.5,1.8-9.7,1.7-10.4-.2-.8-2,1.3-16.8,3.5-25.8,2-7.6,10-27.3,12.9-31.7,2.4-3.6,13.8-24.6,16.6-30.5,5.5-11.6,6.8-15,8.6-22.2,4.2-16.3,3.4-26.4-3.2-39.9-5.1-10.5-11-11.9-20.2-4.9-2.5,1.9-6,4.2-7.9,5.2-3.8,2-63.6,60.6-70.7,69.3-6.6,8.2-10.6,12-12.4,12-1.4,0-1.6-1.7-1.6-12.9v-12.9l3.2-2.7h0ZM390.282,651.868c5.6-2,6.8-3.3,8.4-8.1,1.6-4.9,6-8.7,12.7-11.1,6-2.1,8.2-2.2,8.9-.3.4.8-1.2,4.5-3.4,8.3-2.2,3.7-5.4,9.4-7.2,12.7-11.1,20.4-16.5,30.8-19.1,36.3-2.1,4.8-3.3,6.3-4.6,6-1.6-.3-1.8-2-2.1-17.4-.3-21.1.4-24.2,6.4-26.4h0ZM811.682,651.868c2.3.6,4.5,2,5.2,3.3,1.4,2.5,2.4,31.5,1.4,37.2-.4,2.1-1.2,3.5-1.9,3.3-.7-.2-5.1-7.9-9.8-17.1-4.8-9.2-10.9-20.6-13.7-25.5-11.5-20-12.3-23-6-21.7,1.8.3,5.8,1.8,8.8,3.3,5,2.4,5.8,3.3,8.7,9.4,3,6.1,3.6,6.8,7.3,7.8h0ZM747.682,1075.868c-2.9-.4-4.2-1.6-8.1-7.2-7.6-11.1-11.7-15.5-16.4-17.8-5.9-2.9-10.5-1.6-13,3.7-2.1,4.4-1.5,9,3.2,23.6,3.3,10.4,3.4,10.9,1.7,12.8-.9,1-3,1.9-4.5,1.9-3.7,0-15.2-4.6-17.3-6.9-.9-1-3.1-7.1-5-13.7-1.9-6.5-4.4-14.6-5.6-17.9s-3.7-10.5-5.5-16c-4.6-14.1-10.2-27.1-14.4-33.5-3.1-4.7-4.5-5.8-9.5-7.8-3.933-1.6-6.767-1.733-8.5-.4-3.5,2.5-3.6,4.7-1.2,15,1.1,4.8,3.4,17,5.1,27.2s3.5,20,4,21.9c.9,3.3-.1,7.2-1.8,7-.4,0-5.4-2.4-11.2-5.2l-10.5-5.2.2-4.5c.6-11.3-3.4-37.3-9.3-61.6-4.1-17.1-5.9-20.4-10.9-20.4-5.4,0-6.2,2.2-6.9,20-1.8,41.9-2.2,46-4.8,46-1.3,0-11-7.7-12.1-9.7-.5-.8-.4-4.2.2-7.6,2.3-12.8,5.3-31.3,5.8-35.4.5-3.5.2-4.5-2-6.7-4.1-4-7.8-3.5-11.8,1.6-1.8,2.4-5.7,6.9-8.6,10-4,4.2-5.3,6.4-5.3,8.6,0,3.9-4.4,9.2-7.6,9.2-5.2,0-5.6-8.5-.7-16.3,1.4-2.3,4.6-6.4,7-9.2,3-3.4,4.3-5.9,4.3-7.9,0-5.6-5.1-8.2-10.3-5.4-4.9,2.6-15.7,12-19.2,16.7-2,2.8-4,5.1-4.3,5.1-.4,0-1.4-2.1-2.2-4.7-1.9-6.1-5.2-7.6-10.4-4.8-2.7,1.5-3.8,1.7-4.7.8-3.7-3.7,21.3-16.6,58.6-30.2,8.6-3.2,18.8-4,22.8-1.9,2.4,1.2,9.3,6.6,14.7,11.4,18.3,16.5,23.1,18.6,45.5,20.4,25.9,2.1,45,5,72.5,11.1,32.4,7.1,49.6,14.2,69.9,28.8l6.3,4.6-.6,6.4c-.3,3.9-.1,7.1.6,8.5,1.8,3.3,6,6.5,10,7.6,6.9,1.9,6.8,1.7,6.8,25.9,0,15.8-.3,22.2-1.2,23.4-1.1,1.3-3.9,1.8-14.9,2.3-7.4.4-15.2.4-17.1,0-2.2-.4-7.7-3.6-13.6-7.9-11.3-8.3-23-14.8-28.2-15.7h0ZM757.682,1098.568c0,2.1-26.8,1.9-27.6-.2-1.2-3.1,6-8.5,11.3-8.5,1.7,0,5.3.9,8,2.1,5.4,2.3,8.3,4.6,8.3,6.6h0ZM507.982,1053.667c.9,9.2,1.8,19.1,2,22,.2,3,1.1,6,2.1,7,3.2,3.6,1.3,7.2-3.7,7.2-1.7,0-5.2-1.4-8-3.1-2.7-1.7-7.4-4.1-10.3-5.4-3-1.3-5.7-3-5.9-3.7-.3-.8.6-4.1,2-7.6,4.5-11.1,2.8-19.5-4-19.5-4.1,0-7.1,2.8-13.9,13.2-3.6,5.4-7.9,11.1-9.7,12.5-6.2,5.3-11.2,2-9-6,1-3.7,8.1-13.2,17.2-23.2,5.7-6.1,9.9-13.2,9.9-16.4,0-3.5-4-7.8-7.2-7.8-3.4,0-6.5,2.4-19.5,14.9-20.6,19.7-24.3,23.1-25.4,23.1-1.3,0-8.6-4.6-9.4-6-1.1-1.7,5.3-7.8,20-19.3,17.2-13.6,32.2-24.5,47.9-35,14.5-9.7,17.2-10.5,24.9-6.6,2.3,1.2,15.7,9.9,29.7,19.4s30.1,20.3,35.7,24.1c5.7,3.8,10.3,7.4,10.3,8.1,0,.6-3.3,2.2-7.2,3.6-4,1.4-8.8,3.1-10.5,3.8-3.2,1.3-3.4,1.2-7.6-3-3.9-3.7-4.9-4.2-8.3-3.9-5.8.5-8.4,4.9-8.4,14,0,6.3-.3,7.2-2.9,9.9-5.5,5.4-6.6,3.9-9.2-12.1-1.4-9.3-4.5-19.5-7-23.6-2.6-4.3-6.9-6-10.8-4.4-5.1,2.1-5.6,5-3.8,23.8h0ZM489.282,1098.767c-.9,1.3-40.2,1.6-41,.2-1-1.5,3.4-4.4,10.2-6.8,8.3-2.8,12.2-2.9,20.3-.3,7.1,2.2,11.6,5.1,10.5,6.9h0ZM491.682,961.767c0-1,.6-2,1.3-2.2,2-.9,19.7-.8,19.7,0,0,.5-.4,1.3-.8,2-1,1.6-10.9,8.3-12.4,8.3-1.9,0-7.8-6.2-7.8-8.1h0ZM577.182,1063.568c5.4-2.2,14.3-2.1,24,.2,11.5,2.8,26.5,9,43.9,18.2,9.7,5.2,17.4,8.6,21.6,9.5,7,1.6,14.4,5.2,14.2,6.9-.1.7-26.6,1-77.2,1s-77.1-.3-77.2-1c-.6-3,38.2-29.6,50.7-34.8h0ZM810.082,1009.868c-26.1-19.3-52-28.8-102.9-37.6-21-3.6-40.3-6.4-45-6.5-2.2,0-4.9-.4-6-.8-1.7-.7-1.4-.9,1.5-1.4,5-1,59.1-2.8,105-3.6,21.7-.4,43.5-.8,48.3-.9,8.2-.2,8.8-.1,9.6,2,.4,1.2.7,13.7.7,27.7-.1,30.2.3,29.5-11.2,21.1h0ZM820.182,939.368l-12,.6c-6.6.4-40.3,1.2-75,1.8-34.6.6-70.4,1.6-79.5,2.1s-21.3,1-27.1,1h-10.6l-5.5-4.3c-8.3-6.5-13.4-8.1-23.2-7.4-4.9.3-11.3,1.6-16.1,3.2-7.5,2.5-9.3,2.7-29.6,3-11.9.2-25.4.9-30,1.5-11.6,1.4-33,1.3-35-.3-1.4-1.1-14.5-19.2-26.4-36.7-11.9-17.3-15-21.8-19.7-28.3-2.8-3.7-4.8-7.3-4.5-8.1.8-2.1,15.9-15.1,21.3-18.2,8.9-5.2,30.2-6.3,40.9-2.2,7.1,2.8,17.7,10.1,22.8,15.8,6.7,7.4,8.1,11,8.7,22.4.5,8.7.8,10,2.9,11.7,2.8,2.3,7.1,2.4,14.5.5,6.7-1.8,11.2-.8,16,3.5,4.2,3.7,9.1,5.7,12.2,5.1s7.3-4.8,8.1-8.1c.9-3.8,3.1-7.9,7.4-13.7,4.4-6,15.1-12.2,22.8-13.1,6.4-.7,16.3,2.3,25.6,7.8,9.2,5.5,11.7,7.9,15.1,14.7,2.5,5.1,2.9,6.8,3.1,16.7.1,6,.2,11.7.3,12.5,0,.8.9,2.6,1.9,3.9l1.8,2.4,62.9.4c34.6.2,72.6.7,84.4,1.1l21.5.7v8h0ZM497.082,805.968c5.2-8.6,9.6-13.4,36.7-39.6,13.4-12.9,23-25.8,26.8-35.9,2.3-6.2,4.9-10.6,6.2-10.6.4,0,1.2,1.7,1.7,3.7.5,2.1,1.5,7.6,2.1,12.3.7,4.7,1.8,12.5,2.6,17.5,1.3,8.2,3.7,27.6,8.1,66.5,2.5,21.6,3.2,29.9,3.3,35.6l.1,5.2-7.2,4.3c-4,2.3-9.9,6.9-13.1,10.2-4.7,4.6-6.4,5.7-8.1,5.2-1.1-.3-5-1.1-8.6-1.7-3.6-.5-7.1-1.3-7.8-1.7-.7-.3-2.3-3.5-3.6-7.1-6-17.2-20.7-30.7-41.6-38.1-4.3-1.5-7.6-3.3-7.8-4.1-.4-2,4-11.4,10.2-21.7h0ZM818.882,911.068c-.9.9-26.5.8-116-.8-39.3-.7-34.9.7-37.2-11.4-2.8-15.4-12.4-28.1-26.3-34.8-4.5-2.2-10.9-4.8-14.2-5.8l-6-1.9.3-10.5c.2-10.2,1.7-24.8,4.7-47.5.8-6.1,2.4-19.3,3.6-29.5,2.1-18.7,6.4-46.3,7.4-48.1,1.2-1.8,2.6-.9,3.7,2.3,2.1,5.9,9,19.2,12.7,24.3,5.6,7.8,14.8,17.5,24.6,26.1,14.2,12.5,21.3,20.1,27,28.8,10.4,16,19.5,37,22.7,52.5,2,9.7,2,13.6.2,37.7-.5,7.4-.4,8.4,1.5,10.3,1.5,1.5,3.4,2.1,6.3,2.1,3.5,0,4.7-.6,7.7-3.8,4.9-5.1,11.6-18.9,14-28.7,4.8-19.6,5.3-48.4,1.2-68.7-3-14.6-12.4-36.9-24-56.6-5.8-9.7-13.8-27.7-15.7-35.2-1.8-7.1-1.6-18.9.5-22.8.8-1.4,2.1-2.2,3.8-2.2,2.2,0,8.1,5.5,31.8,29.2,16,16.1,34,34.7,40,41.3,6.1,6.6,12.8,13.8,15,16.1,2.2,2.2,5.7,6.1,7.7,8.6l3.7,4.5.2,61.8c0,39.6-.3,62.1-.9,62.7h0ZM386.882,782.068c26-28.8,37.6-41.1,66.1-69.5,22.3-22.3,26.2-25.8,28.5-25.5,1.8.2,3.1,1.3,4,3.1,5.3,11.1.6,27.9-16.8,59.2-11,20-15.2,28.9-19,40.7-3.9,12.1-6.1,22.4-6.6,32.3-.7,11.9-.6,11.6-8.1,16-3.7,2.2-9.6,6.1-13.1,8.7-3.5,2.7-6.9,4.8-7.5,4.8-.7,0-4.2-3.2-7.7-7-6.8-7.4-13.2-12.1-19.1-14.2-1.9-.6-3.7-1.6-4.1-2.2s-.8-10.2-.8-21.4v-20.2l4.2-4.8ZM395.482,853.368c4,4.1,8.5,10.1,10.1,13.3,1.6,3.2,4,6.6,5.3,7.4,2.4,1.6,10.3,12.7,38.9,54.3,21.4,31.1,24.9,36.2,30.5,43.8,5.9,8.1,5.8,9.8-1.1,14.3-3,2-6,3.4-6.8,3.1-.7-.3-1.9-3-2.6-6-2.3-10.5-7.6-14.9-13.7-11.6-4.4,2.3-3.8,10.2,1.8,21.2,2.4,4.7,1.8,6.5-2.9,9.7-3.3,2.2-11.3,8.2-24.8,18.5-8.3,6.3-18.2,14.4-23,18.9-2.7,2.5-5.7,4.6-6.7,4.6-2.2,0-2.6-1.9-3.2-14-.2-5.2-1.1-22.8-2-39-.8-16.2-1.6-36.5-1.6-45-.1-18.1-2.5-63.8-3.9-72.6-.6-4.3-1.9-7.5-4-10.4-2.5-3.5-3.1-5.3-3.1-9.6,0-11.1,2.9-11.3,12.8-.9h0ZM396.282,1061.868c30.6,16.2,39.4,21.4,39.4,23.3,0,1.7-2.6,3.1-9.1,5-4.1,1.2-6.5,2.7-9.3,5.8l-3.7,4.2-15-.5c-9.6-.4-15.4-1-16.4-1.8-1.2-1-1.5-4.7-1.5-21,0-10.8.3-20,.7-20.3,1.4-1.4,3.9-.5,14.9,5.3ZM381.882,1117.168c1.1-1.4,16.5-1.6,146.4-2.1,54.7-.2,65.3,0,67,1.2,1.9,1.4,1.8,1.5-.4,6-2.6,5.6-2.7,6.5-.5,11.1,2.3,4.7,1.3,5.5-8.7,6.6-12.9,1.5-17,4.1-17,11,0,2.8,4.1,6.5,8.6,7.8,3.3,1,37.6,6.1,51.4,7.7,6.3.7,13,2.5,13,3.5,0,1.3-2.6,1.7-19.5,2.9-8.8.6-22.3,1.8-30,2.6-7.7.8-28.7,1.8-46.7,2.3-35.7,1-37.6,1.3-39.7,7.1-2.6,7.7,3.9,14.3,20.9,21,8.8,3.5,31.6,7.3,53.5,9,17.6,1.3,39.2,3.9,42.3,5.1l2.7,1.1-2.5,2.1c-1.4,1.2-5,3-8,3.9-31,9.7-39.1,13-50.3,20.8-24.7,17-72.3,48.8-78,52-6.4,3.7-48,31.4-83.2,55.4-12.3,8.4-20.8,13.5-22,13.4-1.9-.3-2-1.2-2.3-18.3-.7-35,1.9-231.9,3-233.2h0ZM627.282,1262.468c-1.6,1.1-6.7,1.4-25.7,1.4-13.1,0-24.4-.3-25.3-.6-1.8-.7-2.1-2.5-.7-4,1.5-1.4,51-.9,52.4.5.9,1,.7,1.6-.7,2.7h0ZM659.682,1281.968c4.8,1.4,23.5,14,23.5,15.9,0,1.3-9.9,1.5-81.7,1.8-77.9.2-81.8.1-81.8-1.6,0-1.1,3.9-4.4,11.3-9.2l11.2-7.5,19-.6c25.7-.9,94.2,0,98.5,1.2h0ZM430.182,1356.868c11-7.5,28.4-19.2,38.6-26.2,10.3-6.9,19.8-12.9,21.3-13.4,1.9-.7,212-1.1,221.7-.5,1.6.1,14.1,8.2,41.4,26.9,8.3,5.7,20.3,13.8,26.7,18,11.5,7.5,13.7,9.7,12,11.4-.4.4-86.5.7-191.3.6-168.5-.3-190.4-.5-190.4-1.8,0-.8,8.9-7.5,20-15h0ZM720.682,1302.568c-3-1.7-14-8.7-24.3-15.6-10.3-6.9-24.6-16.4-31.6-21.1-25-16.5-30.6-20.6-30.6-22.3,0-1,2.2-3.1,5.2-5,2.8-1.7,9-5.6,13.7-8.5,13.6-8.4,16.5-13.7,11-20.1-3.8-4.6-14.7-9.5-25-11.4-10.1-1.9-25.6-4.3-32.6-5.2-2.6-.3-5-1-5.3-1.5-.8-1.4,2.5-2.1,14-3,14.7-1.2,31.3-2.8,40.5-3.9,4.1-.6,12.7-1.5,19-2.1,17.5-1.7,24.4-2.9,27.7-5,6-3.6,5.1-11.9-1.7-15.2-1.9-.9-8-2.4-13.5-3.3-5.5-.8-14-2.2-19-3-4.9-.8-15.1-2.2-22.5-3-18.9-2.2-21-2.6-21-3.6,0-.4,1.4-2.4,3-4.2,3.6-4.2,4-9.2,1-12.5-1.2-1.2-4.3-3.3-7-4.7-5.2-2.6-7-4.9-7-8.7,0-5.3-5.1-5.1,103.3-4.4,55.4.4,101.4.9,102.2,1.3.9.3,1.7,1.5,1.9,2.7.3,1.1.7,31.3,1,67.1.3,35.7.9,90.2,1.3,121,.3,30.9.3,57.3-.1,58.8-.4,1.8-1.3,2.7-2.6,2.7-1.1,0-9.7-5.3-19.2-11.7-58.4-39.6-76.3-51.5-81.8-54.6ZM838.282,484.968c-.8,1.9-5,11.7-9.2,21.9-15.2,36.8-26.5,62.5-28,64-1.7,1.7-1.4,2-11.4-11.1-3-4-7.4-9.5-9.7-12.3-5.1-6-5.4-8.3-1.7-18.1,1.5-3.9,4.6-12.6,6.9-19.5,2.4-6.9,7.8-22.2,12-34s8.2-23.1,8.7-25c2.3-7.9,4.2-7.8,12.4.6,8.1,8.4,15.7,18.3,19,25,2.4,4.8,2.4,5.3,1,8.5h0ZM791.582,447.068c-4.3,12-9.5,26.7-15.4,43.8-3.3,9.5-5.6,15.7-11.7,31.7-1.1,2.9-2.6,5.3-3.3,5.3-2.1,0-16.4-12.9-17-15.3-.7-2.5,2.4-19.2,5.7-31.7,1-4.1,3.7-15.1,5.8-24.5,5.8-25.1,9.9-41.5,11.1-43.6,1.3-2.5,3.4-2.4,7.2.3,5,3.4,16.9,13.1,19.4,15.7,3.1,3.3,2.9,5.3-1.8,18.3h0ZM751.582,409.468c-.5,1.6-2.4,8.9-4,16.4-1.7,7.4-4.7,20.7-6.9,29.5-2.1,8.8-4.3,18.7-5,22-.6,3.3-2,8.7-3,12s-2.1,7.2-2.4,8.6c-.6,2.8-3,4.4-4.8,3.3-.5-.4-.8-1.6-.5-2.8.3-1.1,1.2-4.8,2.1-8.1.8-3.3,1.6-7.8,1.6-10s.9-8.3,2.1-13.5c1.1-5.2,4.2-22.8,6.9-39s5.2-30.1,5.5-30.8c.6-1.7,5.1-.8,7.8,1.5,1.9,1.8,2.2,6.8.6,10.9h0ZM717.482,456.368c-1.6,8.8-3.3,18-3.7,20.5-1.2,7.3-3.3,12.9-5,13.5-1.9.8-5.4-3.2-4.6-5.2.3-.8.9-5.4,1.5-10.2,1.2-11,4.5-33.2,6.5-43.6,1.4-7.8,6.5-41.5,6.5-43.4,0-.5.7-1.7,1.6-2.5,1.4-1.4,1.8-1.4,4.4-.1,1.6.8,3.2,2,3.6,2.6,1,1.7-3,27-10.8,68.4h0ZM703.982,382.368c-.1,3.9-.9,10.8-1.7,15.5-.9,4.7-3.4,20.9-5.6,36-4.3,30-6.6,43.5-7.5,45-1,1.6-3.6,1.2-9.2-1.5-5-2.3-5.3-2.6-5.3-6.2,0-4.2,4-31.6,8.5-57.8.9-5.5,2.7-17.1,4-25.9,1.4-10.2,2.7-16.1,3.6-16.7,1.7-1,4.1-.4,9.4,2.5l4,2.2-.2,6.9h0ZM672.782,383.168c-1.1,5.6-2.9,16.3-4,23.7-1.1,7.4-2.6,16.6-3.2,20.5-2.5,16.4-6.1,36.2-6.9,38.2-1.2,2.9-4.8,3-8.4.2-2.9-2.3-3.1-3.8-1.6-14.9,6.4-47.1,10-77.5,10-83.6,0-2,.8-4.2,1.9-5.3,1.7-1.7,2.4-1.8,6.3-.8,2.4.7,5.2,1.7,6.3,2.4,2.4,1.4,2.4,5.5-.4,19.6h0ZM551.882,466.268c-4,2.1-6.9,2-8.1-.2-.8-1.6-3.6-18.6-6.2-37.7-.6-4.4-1.7-10.9-2.5-14.5-.7-3.6-2.5-14.2-3.9-23.5-1.3-9.4-2.7-18.4-3.1-20.1-.8-4.2.9-7.1,4.9-8.3,4.4-1.3,8.5-1.3,9.2-.1.8,1.3,2.7,15.5,6.6,48.5,1.6,14.3,3.4,29.4,4,33.5.5,4.1,1.2,10.5,1.6,14.2.4,4.4-.433,7.133-2.5,8.2ZM528.482,471.568c-.5,4.6-13.3,10.6-15.4,7.2-.3-.6-1.9-10-3.5-20.8-4.5-31.5-4.9-34.3-5.3-35-.9-1.4-6.7-45.5-6.2-46.8.7-1.6,8.2-5.1,11.4-5.2,1.4-.1,2.6.7,3.2,2.1,1.4,3.4,3.6,15.7,7,39.8,1.7,11.8,3.3,22,3.5,22.7,1.1,3.3,5.6,33.6,5.3,36h0ZM496.182,490.268c-2.8,1-4.4-.6-5.5-5.7-4.1-20.3-8.4-43-10.1-54.1-3-19.3-4.6-28.3-6-35.5-1.3-6.2-1.2-6.4,1-8.2,2.9-2.4,6.7-2.4,7.6-.2.9,2.4,3.7,20,7.5,46.4,1.7,11.8,3.7,25,4.5,29.4,3.9,22,4.1,26.7,1,27.9h0ZM475.482,489.468c.5,1.1,1.4,3.9,2,6.4.9,3.6.8,4.8-.3,5.9-2,2-4.3-.1-5.1-4.8-.3-2-1.2-5.9-2-8.6-2.8-10-6.7-26.3-10-41.4-1.9-8.5-4-17.8-4.8-20.5-3-10.3-5.6-23.9-5-25.8.3-1.1,2-2.6,3.7-3.3,4-1.8,4.2-1.8,5.4-.3.5.7,1.5,5.6,2.2,10.8.7,5.2,2.2,14,3.2,19.5,4.7,24.2,8,43.6,8.8,51.6.5,4.8,1.4,9.5,1.9,10.5h0ZM453.682,485.368c1.7,7.1,3.8,15.6,4.6,18.8s1.2,6.6.9,7.7c-.7,2.2-11.8,12.7-15.1,14.2-3,1.4-4.8,0-6.7-5.5-.9-2.3-3.6-10.1-6.2-17.2-6.5-18-14.8-41.5-20.2-57.2-4.4-12.6-4.5-13.3-2.9-15.7,1.7-2.7,13.3-12.4,20-16.8,5.2-3.5,7.4-3.5,8.6-.2.6,1.5,2.1,7.7,3.5,13.9,1.3,6.1,4.2,18.8,6.5,28.1,2.2,9.3,5.4,22.7,7,29.9h0ZM410.682,490.368c11.5,32.1,17,48.3,17,50.1,0,.9-2.4,4.4-5.3,7.8-3,3.4-8.2,9.8-11.6,14.4-4.2,5.5-6.8,8.2-7.9,8-1.8-.3-6.8-9.6-10.3-18.8-1.1-3-4.3-10.5-7-16.6-2.7-6.2-4.9-11.5-4.9-11.8s-1.7-4.3-3.9-8.8c-2.1-4.6-4.2-9.4-4.6-10.8s-2.5-6.5-4.6-11.3c-2.2-4.8-3.9-10-3.9-11.5,0-3.6,10.3-18.4,19.4-28,7.9-8.3,10.5-9.1,12.9-3.9.9,1.8,3.2,8,5.1,13.8,1.9,5.7,6.2,18,9.6,27.4h0ZM365.682,534.868c3.9,8.5,9.1,19.5,11.5,24.5,2.4,4.9,5.7,11.9,7.3,15.5,1.6,3.6,4.1,8,5.6,9.9,1.4,1.9,2.6,4.5,2.6,5.8,0,3.4-8.6,21.2-10.6,22-1.8.7-5.7-3.1-43.4-42.7-17-17.8-17.5-18.5-17.4-22.5,0-5.7,10-25.9,17.6-35.8,9-11.7,10.2-11.8,15.6-.5,2.2,4.6,7.2,15.3,11.2,23.8h0ZM327.782,580.568c42.6,43.6,47.9,49.2,47.9,51.3,0,.9-1.3,5.7-3,10.8-1.6,5.1-3,11-3,13.2,0,4.5-.8,7-2.3,7-3.3,0-21.5-13.9-44.2-34-20.1-17.7-18.9-16-18-24.5,1.4-14.7,6.7-36.5,8.9-36.5.7,0,6.9,5.7,13.7,12.7ZM368.682,711.868c-.5,18.1-.6,18.5-2.7,18.8-2.7.4-4.4-.2-48.3-16-13.4-4.9-12.4-2.4-12.8-33.1-.3-28.7,0-32.7,2.6-32.7.9,0,5.1,2.7,9.2,6.1,13.5,10.8,31.7,23.3,41.7,28.5,7.3,3.8,9.9,5.7,10.3,7.5.3,1.3.3,10.7,0,20.9h0ZM305.282,730.068c.9-3.2,3.2-2.9,20.5,3.3,35.4,12.7,40.5,14.7,41.7,16.3,1.8,2.4,1.8,83.1-.1,85.6-1.6,2.1-5.3,2-32.7-.8-21.8-2.3-27.9-3.5-29-5.7-1.1-1.9-1.4-94.8-.4-98.7h0ZM366.782,959.868c-.2,57.9-.7,106.4-1,107.9l-.8,2.6-27.9-.4c-21.9-.2-28.4-.6-30.1-1.7l-2.3-1.4v-108.5c0-103.4.1-108.6,1.8-110.3,2-2-1.1-2.2,45.7,2.8,6.1.6,11.9,1.7,13,2.4,2,1.3,2,2.2,1.6,106.6h0ZM304.782,1087.568l1-3.7,10.2.1c5.6,0,19,.6,29.7,1.2l19.5,1.2v21.5c0,11.8-.4,70.5-.9,130.3l-.9,108.8-2.8,2.2c-4.2,3.3-7.9,5.9-26.4,18-30,19.7-27.6,18.4-29.1,16.2-1.2-1.6-1.4-25.6-1.4-146.9,0-97.5.4-146.3,1.1-148.9h0ZM353.082,1372.767c6.3-4.2,9-4.8,10-2.3.9,2.4.7,5-.6,7.9-1,2.3-9.3,8.1-47.6,33.3-8.8,5.8-11.2,5.5-11.2-1.8,0-4.7-.9-4,49.4-37.1h0ZM339.882,1415.068c.2-1,8.2-7,17.8-13.4l17.5-11.8h452.1l16.9,11.2c16.4,11,19.8,13.8,18.1,15.5-.6.7-199.4,2.7-262.1,2.7-53.3,0-241.4-1.5-250.3-2s-10.3-.8-10-2.2ZM839.682,1373.767c0-7.1,1.2-7.1,12.5.4,3.3,2.2,7.4,4.9,9,6.1,1.7,1.1,10.4,7,19.5,13s16.8,11.4,17.2,12c1,1.5,1,8.8-.1,10.5-.9,1.4-2.8.7-8.1-3-1.4-.9-11.9-7.9-23.5-15.4-26.1-17.1-26.5-17.5-26.5-23.6ZM897.082,1384.568c-1,.3-5.9-2.3-13.2-7.2-6.4-4.3-18.4-12.3-26.7-17.8-8.2-5.4-15.8-10.8-16.7-11.9-1.7-1.9-1.8-5.7-1.8-49.2,0-25.9-.5-83.7-1.1-128.5-.8-60.7-.8-81.6,0-82.5,1.3-1.2,28.6-3.2,47.8-3.4,10.2-.2,11.3,0,12.3,1.7.7,1.3,1,49.9,1,150.1,0,133.7-.2,148.1-1.6,148.7h0ZM246.082,424.767c-1.7-2.9,6.1-3.5,26-2,11.4.8,11.9,1.5,8.1,10.5-1.5,3.6-3.4,6.6-4,6.6-1.9,0-29.2-13.8-30.1-15.1ZM217.082,482.867c-11.4-4.6-27.6-13-28.1-14.6-.3-.8,7.1-1.3,24.9-1.9,13.9-.3,30.9-1,37.8-1.5,15.1-.9,27.7-.5,29.6,1.1,3.1,2.6,1.2,12.4-3.8,19.4l-2.8,4.1-18.1.2c-20.4.2-23.5-.3-39.5-6.8h0ZM151.682,1467.167c3.8-1.8,77.2-26.1,79.4-26.2,1-.1,3.5.9,5.5,2.1,4.1,2.6,1.1,2.6,124.1,2.5,64.7-.1,360.2-.1,481-.1,35.5,0,76.5.2,91.1.4l26.6.2,6.2-2.7,6.2-2.8,39.7,13.3c21.8,7.2,40.6,13.7,41.6,14.2,1.7.9,1.7,1.1.3,1.9-2.2,1.3-904.2.7-904.2-.6,0-.5,1.1-1.5,2.5-2.2h0ZM1171.382,1576.467c-1.1,1.1-1136.5,1.2-1139.1.1-2.067-.867,17.567-12,58.9-33.4,6.6-3.4,12.5-6.2,13.1-6.2.6-.1,2.1,1.1,3.5,2.5,1.3,1.5,3.8,3.2,5.4,3.9,2.4,1.1,95.9,1.3,488.5,1.3,419,0,485.8-.2,488.2-1.4,1.5-.8,3.5-2.6,4.4-3.9,2-3.1,4.4-3.1,9.7-.1,2.3,1.3,12.3,6.5,22.2,11.7,9.9,5.1,23.2,12,29.6,15.4,13.8,7.1,16.7,9,15.6,10.1h0Z" fill-rule="evenodd"></path></g></g></svg>